<svg width="621" height="527" viewBox="0 0 621 527" fill="none" xmlns="http://www.w3.org/2000/svg">
<path fill-rule="evenodd" clip-rule="evenodd" d="M620.203 307.416L620.459 310.524L620.667 313.639L620.827 316.76L620.936 319.886L620.994 323.015L621 326.147L620.955 329.281L620.857 332.416L620.708 335.551L620.507 338.685L620.253 341.817L619.947 344.946L619.588 348.07L619.175 351.19L618.71 354.303L618.19 357.409L617.618 360.506L616.992 363.594L616.314 366.672L615.583 369.738L614.8 372.792L613.967 375.833L613.083 378.86L612.151 381.873L611.171 384.871L610.143 387.853L609.07 390.819L607.951 393.768L606.788 396.7L605.582 399.613L604.333 402.509L603.041 405.385L601.705 408.241L600.327 411.076L598.903 413.887L597.435 416.676L595.922 419.439L594.363 422.175L592.758 424.884L591.108 427.565L589.414 430.217L587.675 432.838L585.893 435.428L584.068 437.987L582.201 440.513L580.294 443.007L578.347 445.467L576.361 447.894L574.337 450.286L572.278 452.645L570.182 454.969L568.053 457.258L565.891 459.513L563.697 461.733L561.472 463.917L559.217 466.067L556.932 468.181L554.62 470.259L552.279 472.301L549.912 474.307L547.519 476.277L545.1 478.21L542.656 480.105L540.188 481.963L537.695 483.782L535.179 485.562L532.639 487.303L530.076 489.004L527.491 490.663L524.884 492.281L522.254 493.856L519.604 495.388L516.932 496.876L514.24 498.319L511.528 499.716L508.797 501.067L506.047 502.371L503.279 503.627L500.494 504.835L497.693 505.995L494.876 507.106L492.045 508.169L489.201 509.183L486.345 510.149L483.479 511.067L480.603 511.938L477.718 512.764L474.827 513.545L471.931 514.282L469.03 514.977L466.126 515.631L463.22 516.245L460.312 516.82L457.405 517.358L454.498 517.86L451.592 518.329L448.689 518.764L445.789 519.169L442.893 519.546L440.001 519.896L437.114 520.221L434.233 520.525L431.357 520.81L428.488 521.077L425.624 521.33L422.766 521.571L419.914 521.803L417.068 522.028L414.227 522.247L411.391 522.463L408.559 522.678L405.73 522.892L402.902 523.107L400.077 523.323L397.251 523.539L394.425 523.756L391.597 523.973L388.766 524.191L385.931 524.408L383.092 524.624L380.247 524.839L377.395 525.051L374.536 525.26L371.669 525.465L368.793 525.665L365.907 525.858L363.011 526.043L360.104 526.218L357.186 526.381L354.257 526.531L351.316 526.664L348.363 526.779L345.398 526.873L342.422 526.943L339.435 526.986L336.437 527L333.43 526.981L330.414 526.926L327.391 526.832L324.361 526.695L321.326 526.512L318.289 526.279L315.25 525.994L312.213 525.652L309.178 525.25L306.15 524.786L303.129 524.255L300.12 523.656L297.125 522.984L294.147 522.239L291.189 521.416L288.254 520.515L285.345 519.534L282.467 518.47L279.621 517.323L276.811 516.092L274.04 514.777L271.312 513.376L268.628 511.892L265.992 510.324L263.407 508.673L260.874 506.942L258.396 505.131L255.973 503.244L253.609 501.283L251.304 499.25L249.057 497.15L246.871 494.987L244.744 492.764L242.675 490.488L240.662 488.164L238.701 485.8L236.788 483.401L234.919 480.977L233.088 478.535L231.289 476.082L229.513 473.627L227.754 471.177L226.003 468.74L224.25 466.325L222.487 463.936L220.703 461.582L218.888 459.268L217.032 457L215.125 454.781L213.156 452.616L211.115 450.508L208.993 448.458L206.779 446.469L204.465 444.539L202.044 442.668L199.506 440.855L196.847 439.096L194.061 437.388L191.143 435.727L188.09 434.105L184.899 432.519L181.568 430.962L178.097 429.427L174.484 427.906L170.731 426.394L166.84 424.881L162.812 423.36L158.652 421.822L154.363 420.26L149.951 418.665L145.422 417.029L140.784 415.344L136.043 413.601L131.21 411.793L126.293 409.911L121.304 407.949L116.252 405.9L111.151 403.756L106.011 401.512L100.847 399.161L95.6712 396.7L90.4975 394.123L85.3401 391.426L80.2135 388.606L75.132 385.661L70.1105 382.588L65.1635 379.386L60.3057 376.055L55.5516 372.595L50.9155 369.007L46.4113 365.293L42.0527 361.454L37.8528 357.494L33.8242 353.417L29.979 349.227L26.3286 344.929L22.8835 340.528L19.6538 336.031L16.6483 331.444L13.8752 326.774L11.3416 322.028L9.05388 317.214L7.01708 312.341L5.23538 307.416L3.71188 302.447L2.44859 297.444L1.44644 292.414L0.705288 287.367L0.2239 282.31L0 277.253L0.0302645 272.202L0.310459 267.167L0.835906 262.153L1.60169 257.17L2.60266 252.224L3.83333 247.321L5.28795 242.469L6.96043 237.674L8.84435 232.941L10.933 228.277L13.2192 223.686L15.6956 219.174L18.3546 214.745L21.1881 210.403L24.188 206.151L27.3458 201.994L30.653 197.934L34.1008 193.973L37.6805 190.114L41.3833 186.359L45.2005 182.708L49.1234 179.163L53.1436 175.724L57.2529 172.391L61.4434 169.166L65.7076 166.047L70.0385 163.035L74.4294 160.129L78.8743 157.328L83.3669 154.633L87.901 152.042L92.4704 149.554L97.0686 147.167L101.689 144.879L106.327 142.688L110.974 140.591L115.625 138.585L120.274 136.667L124.916 134.835L129.543 133.083L134.152 131.407L138.735 129.805L143.289 128.271L147.809 126.8L152.289 125.388L156.725 124.03L161.114 122.72L165.452 121.454L169.734 120.227L173.959 119.032L178.124 117.864L182.225 116.719L186.262 115.591L190.232 114.473L194.134 113.362L197.967 112.252L201.731 111.138L205.426 110.014L209.052 108.877L212.609 107.721L216.098 106.542L219.52 105.335L222.877 104.098L226.171 102.825L229.403 101.514L232.577 100.162L235.694 98.7644L238.758 97.3199L241.772 95.8258L244.739 94.2802L247.662 92.6812L250.545 91.0276L253.393 89.3183L256.208 87.5525L258.995 85.73L261.757 83.8506L264.5 81.9146L267.228 79.9227L269.943 77.8757L272.652 75.775L275.357 73.622L278.064 71.4186L280.776 69.1673L283.497 66.8711L286.233 64.5334L288.986 62.1584L291.762 59.7504L294.564 57.3143L297.396 54.8554L300.261 52.3792L303.162 49.8917L306.104 47.3987L309.088 44.9067L312.117 42.422L315.193 39.9513L318.318 37.501L321.494 35.0779L324.721 32.6886L328.001 30.3398L331.334 28.0379L334.72 25.7896L338.159 23.6011L341.65 21.4786L345.194 19.4282L348.787 17.4557L352.43 15.5665L356.121 13.7662L359.857 12.0596L363.636 10.4516L367.456 8.94651L371.315 7.54837L375.209 6.26081L379.136 5.08711L383.092 4.03013L387.074 3.09238L391.079 2.27599L395.103 1.58272L399.143 1.01397L403.195 0.570778L407.256 0.253853L411.321 0.0635722L415.389 0L419.454 0.0629014L423.513 0.251758L427.564 0.565786L431.602 1.00395L435.624 1.56498L439.627 2.2474L443.608 3.04953L447.564 3.96949L451.491 5.00527L455.387 6.15469L459.25 7.41543L463.075 8.78507L466.862 10.2611L470.608 11.8408L474.309 13.5215L477.965 15.3005L481.573 17.1748L485.131 19.1416L488.638 21.198L492.091 23.3409L495.49 25.5674L498.832 27.8744L502.117 30.2588L505.343 32.7175L508.509 35.2475L511.615 37.8456L514.66 40.5085L517.642 43.2333L520.562 46.0166L523.419 48.8553L526.213 51.7461L528.943 54.6858L531.611 57.6712L534.216 60.6988L536.758 63.7655L539.239 66.868L541.658 70.0028L544.018 73.1666L546.319 76.3562L548.562 79.5681L550.749 82.7996L552.881 86.048L554.958 89.3114L556.982 92.588L558.952 95.8763L560.87 99.1751L562.736 102.483L564.55 105.8L566.313 109.124L568.024 112.454L569.685 115.791L571.295 119.132L572.855 122.478L574.365 125.827L575.826 129.178L577.239 132.53L578.605 135.882L579.923 139.234L581.197 142.583L582.425 145.93L583.611 149.271L584.755 152.608L585.859 155.937L586.925 159.259L587.954 162.572L588.947 165.875L589.907 169.167L590.835 172.448L591.734 175.716L592.604 178.971L593.449 182.213L594.271 185.439L595.07 188.651L595.851 191.848L596.615 195.028L597.363 198.192L598.099 201.341L598.824 204.473L599.541 207.589L600.25 210.689L600.955 213.774L601.656 216.845L602.355 219.901L603.053 222.945L603.751 225.975L604.45 228.995L605.151 232.005L605.854 235.005L606.558 237.998L607.265 240.984L607.973 243.966L608.682 246.943L609.39 249.919L610.098 252.893L610.802 255.868L611.503 258.845L612.197 261.824L612.882 264.808L613.558 267.797L614.22 270.793L614.868 273.795L615.497 276.806L616.106 279.825L616.691 282.853L617.25 285.89L617.78 288.937L618.278 291.994L618.742 295.06L619.169 298.136L619.556 301.221L619.902 304.314L620.203 307.416Z" fill="#BCF5F9"/>
</svg>
