<svg width="336" height="358" viewBox="0 0 336 358" fill="none" xmlns="http://www.w3.org/2000/svg">
<path fill-rule="evenodd" clip-rule="evenodd" d="M421.459 208.833L421.632 210.944L421.774 213.061L421.882 215.181L421.956 217.304L421.996 219.43L422 221.557L421.969 223.686L421.903 225.816L421.802 227.946L421.665 230.075L421.493 232.202L421.284 234.327L421.04 236.45L420.76 238.569L420.444 240.684L420.091 242.794L419.702 244.898L419.276 246.996L418.815 249.086L418.319 251.169L417.787 253.244L417.221 255.31L416.62 257.366L415.987 259.413L415.32 261.449L414.622 263.475L413.893 265.49L413.133 267.493L412.343 269.485L411.523 271.464L410.674 273.431L409.796 275.385L408.888 277.325L407.951 279.251L406.984 281.161L405.987 283.055L404.958 284.932L403.899 286.791L402.808 288.631L401.687 290.452L400.536 292.253L399.354 294.034L398.143 295.794L396.903 297.532L395.634 299.248L394.338 300.942L393.015 302.613L391.665 304.262L390.29 305.887L388.891 307.489L387.467 309.068L386.02 310.623L384.551 312.155L383.06 313.663L381.548 315.147L380.015 316.607L378.463 318.043L376.891 319.455L375.301 320.842L373.692 322.205L372.066 323.543L370.422 324.856L368.762 326.143L367.084 327.405L365.39 328.641L363.68 329.851L361.954 331.033L360.213 332.188L358.456 333.316L356.684 334.415L354.897 335.485L353.096 336.526L351.281 337.536L349.451 338.516L347.608 339.466L345.752 340.383L343.884 341.269L342.003 342.122L340.11 342.943L338.207 343.731L336.293 344.486L334.369 345.208L332.436 345.896L330.496 346.553L328.548 347.176L326.593 347.768L324.633 348.329L322.668 348.86L320.7 349.36L318.729 349.833L316.755 350.277L314.78 350.694L312.805 351.085L310.829 351.45L308.853 351.791L306.879 352.109L304.906 352.405L302.936 352.68L300.968 352.936L299.002 353.174L297.041 353.395L295.083 353.602L293.128 353.795L291.178 353.977L289.232 354.148L287.29 354.312L285.353 354.47L283.418 354.622L281.488 354.771L279.561 354.918L277.636 355.064L275.713 355.209L273.792 355.355L271.872 355.502L269.952 355.649L268.031 355.796L266.109 355.944L264.185 356.092L262.259 356.239L260.33 356.386L258.396 356.532L256.459 356.676L254.516 356.818L252.567 356.958L250.613 357.093L248.652 357.224L246.684 357.35L244.709 357.469L242.726 357.58L240.735 357.681L238.736 357.772L236.73 357.85L234.715 357.914L232.693 357.961L230.663 357.991L228.626 358L226.582 357.987L224.533 357.95L222.478 357.886L220.419 357.793L218.357 357.668L216.293 357.51L214.228 357.316L212.164 357.084L210.102 356.811L208.044 356.496L205.991 356.135L203.946 355.728L201.911 355.272L199.887 354.766L197.877 354.207L195.883 353.595L193.906 352.928L191.95 352.206L190.016 351.426L188.107 350.59L186.224 349.696L184.37 348.745L182.546 347.737L180.755 346.672L178.998 345.55L177.277 344.374L175.592 343.144L173.947 341.862L172.34 340.53L170.773 339.149L169.247 337.723L167.761 336.253L166.316 334.743L164.91 333.197L163.541 331.618L162.209 330.012L160.909 328.383L159.639 326.736L158.395 325.077L157.172 323.41L155.966 321.742L154.77 320.078L153.58 318.423L152.389 316.782L151.191 315.16L149.978 313.561L148.745 311.989L147.484 310.448L146.188 308.941L144.85 307.47L143.463 306.038L142.021 304.645L140.516 303.294L138.944 301.983L137.299 300.712L135.574 299.48L133.767 298.286L131.874 297.125L129.891 295.996L127.816 294.895L125.648 293.818L123.384 292.76L121.025 291.717L118.571 290.684L116.02 289.656L113.376 288.629L110.639 287.595L107.812 286.551L104.897 285.49L101.899 284.406L98.8214 283.295L95.6693 282.15L92.448 280.966L89.1636 279.738L85.8225 278.46L82.4319 277.127L78.9992 275.735L75.5324 274.278L72.0399 272.754L68.5305 271.157L65.0132 269.485L61.4975 267.734L57.9928 265.902L54.509 263.987L51.0559 261.986L47.6435 259.898L44.2818 257.723L40.9807 255.461L37.7501 253.11L34.5996 250.673L31.5388 248.149L28.5769 245.542L25.7228 242.852L22.9852 240.082L20.3722 237.236L17.8916 234.316L15.5505 231.327L13.3557 228.272L11.3133 225.155L9.42886 221.983L7.7072 218.759L6.15255 215.489L4.76845 212.178L3.5577 208.833L2.52241 205.457L1.66394 202.059L0.98293 198.642L0.479278 195.213L0.152151 191.778L0 188.343L0.0205662 184.912L0.210972 181.491L0.568039 178.085L1.08843 174.7L1.76863 171.34L2.60494 168.01L3.59342 164.714L4.72995 161.456L6.01017 158.241L7.42949 155.073L8.98309 151.954L10.666 148.889L12.4729 145.88L14.3984 142.93L16.437 140.042L18.5828 137.218L20.8302 134.46L23.1732 131.769L25.6058 129.148L28.122 126.597L30.7159 124.117L33.3817 121.708L36.1137 119.372L38.9061 117.108L41.7538 114.917L44.6515 112.799L47.5946 110.752L50.5784 108.778L53.599 106.876L56.6519 105.045L59.7331 103.285L62.8382 101.595L65.9629 99.9729L69.103 98.4186L72.2542 96.9301L75.4123 95.5056L78.573 94.1431L81.7324 92.8405L84.8864 91.5954L88.0311 90.4052L91.1627 89.2672L94.2775 88.1786L97.3722 87.1364L100.443 86.1373L103.488 85.1781L106.503 84.2555L109.485 83.366L112.433 82.506L115.343 81.672L118.214 80.8603L121.044 80.0673L123.831 79.2893L126.574 78.5226L129.272 77.7637L131.923 77.0089L134.528 76.2547L137.086 75.4977L139.597 74.7345L142.061 73.9617L144.478 73.1764L146.849 72.3755L149.175 71.556L151.456 70.7154L153.694 69.8509L155.891 68.9604L158.047 68.0415L160.166 67.0923L162.248 66.1111L164.296 65.0961L166.312 64.0461L168.298 62.9599L170.258 61.8366L172.193 60.6754L174.106 59.4759L176 58.2378L177.877 56.9611L179.741 55.646L181.594 54.2928L183.44 52.9023L185.28 51.4752L187.119 50.0126L188.958 48.5159L190.801 46.9865L192.65 45.4267L194.509 43.8387L196.38 42.2252L198.267 40.5894L200.171 38.9346L202.095 37.2642L204.042 35.5821L206.014 33.8922L208.013 32.1987L210.04 30.5059L212.099 28.818L214.189 27.1396L216.313 25.4751L218.471 23.829L220.664 22.2059L222.893 20.6103L225.158 19.0466L227.459 17.5193L229.796 16.0326L232.168 14.5908L234.576 13.1979L237.018 11.8579L239.494 10.5746L242.001 9.35158L244.54 8.19229L247.108 7.09994L249.705 6.07751L252.327 5.12773L254.973 4.25308L257.641 3.45576L260.33 2.73773L263.036 2.10071L265.757 1.54612L268.492 1.07517L271.237 0.688807L273.991 0.387739L276.75 0.172447L279.513 0.0431857L282.277 0L285.039 0.04273L287.798 0.171024L290.551 0.384348L293.295 0.682L296.028 1.06312L298.748 1.5267L301.453 2.0716L304.142 2.69654L306.81 3.40017L309.458 4.18098L312.083 5.03743L314.682 5.96784L317.256 6.97051L319.801 8.04364L322.317 9.18538L324.801 10.3939L327.253 11.6671L329.671 13.0032L332.053 14.4002L334.4 15.8559L336.71 17.3684L338.981 18.9355L341.213 20.5553L343.405 22.2256L345.557 23.9442L347.668 25.7091L349.737 27.5181L351.763 29.3691L353.747 31.2599L355.689 33.1882L357.587 35.152L359.443 37.149L361.256 39.177L363.026 41.2337L364.753 43.317L366.439 45.4245L368.083 47.5541L369.687 49.7033L371.25 51.87L372.775 54.052L374.261 56.2472L375.71 58.4539L377.121 60.6708L378.496 62.8966L379.835 65.1304L381.139 67.3713L382.407 69.6186L383.64 71.8715L384.837 74.1296L386 76.3922L387.129 78.6587L388.223 80.9286L389.283 83.2013L390.309 85.4762L391.302 87.7526L392.262 90.0298L393.19 92.3072L394.086 94.5839L394.952 96.8593L395.787 99.1324L396.592 101.403L397.37 103.669L398.12 105.931L398.844 108.187L399.543 110.438L400.219 112.682L400.871 114.918L401.502 117.147L402.112 119.367L402.704 121.578L403.278 123.78L403.836 125.972L404.38 128.154L404.91 130.325L405.429 132.486L405.938 134.635L406.438 136.774L406.93 138.902L407.417 141.019L407.899 143.125L408.378 145.221L408.855 147.306L409.329 149.383L409.804 151.45L410.278 153.509L410.754 155.56L411.23 157.605L411.707 159.643L412.186 161.676L412.666 163.705L413.147 165.73L413.629 167.753L414.111 169.774L414.591 171.795L415.07 173.815L415.546 175.838L416.018 177.862L416.484 179.889L416.943 181.919L417.393 183.954L417.833 185.994L418.26 188.039L418.674 190.09L419.072 192.147L419.452 194.21L419.812 196.28L420.15 198.357L420.466 200.44L420.756 202.529L421.019 204.624L421.254 206.726L421.459 208.833Z" fill="#BCF5F9"/>
</svg>
