<svg width="744" height="622" viewBox="0 0 744 622" fill="none" xmlns="http://www.w3.org/2000/svg">
<mask id="mask0_455_3442" style="mask-type:luminance" maskUnits="userSpaceOnUse" x="55" y="12" width="94" height="95">
<path d="M101.995 12.2371C127.949 12.2371 148.989 33.2774 148.989 59.2318C148.989 85.1863 127.949 106.227 101.995 106.227C76.0403 106.227 55 85.1863 55 59.2318C55 33.2774 76.0403 12.2371 101.995 12.2371Z" fill="white"/>
</mask>
<g mask="url(#mask0_455_3442)">
<path d="M101.995 12.2371C127.949 12.2371 148.989 33.2774 148.989 59.2318C148.989 85.1863 127.949 106.227 101.995 106.227C76.0403 106.227 55 85.1863 55 59.2318C55 33.2774 76.0403 12.2371 101.995 12.2371Z" fill="url(#paint0_linear_455_3442)" fill-opacity="0.1"/>
<path opacity="0.3" d="M130.692 86.7996C134.072 86.4144 137.477 86.0423 140.874 85.6265C142.69 82.9519 144.24 80.0804 145.483 77.0513C134.965 77.5328 124.415 77.7473 114.321 80.5969C107.484 82.5273 101.058 85.6265 94.8334 89.0057C92.1326 90.4721 88.8234 91.8204 86.4465 93.7814C85.2778 94.7488 82.5814 98.2287 85.9081 98.128C89.5632 98.0142 92.728 95.7512 96.0022 94.3898C99.631 92.8797 103.387 91.6934 107.195 90.7216C114.899 88.7562 122.8 87.7013 130.688 86.7952L130.692 86.7996ZM106.875 73.6983C94.921 79.3013 86.7792 90.6253 76.173 98.4957C74.4965 97.3927 72.8944 96.1845 71.3799 94.8801C75.3326 92.6083 79.0883 89.9906 82.577 87.0578C93.7172 77.6773 102.179 65.1451 114.479 57.3447C123.273 51.768 133.503 48.9622 143.627 46.5503C144.752 46.2833 145.89 46.0206 147.033 45.7799C148.302 50.0434 148.989 54.5564 148.989 59.2313C148.989 61.9584 148.753 64.6329 148.307 67.2374C144.792 67.6095 141.268 67.9247 137.74 68.1785C127.247 68.9314 116.396 69.2378 106.875 73.6983ZM119.635 36.3074C114.833 37.9664 109.913 39.691 106.026 42.9653C100.966 47.2288 98.2346 53.6328 93.7698 58.5178C87.7116 65.1407 78.9832 68.4806 71.1172 72.8097C67.217 74.9546 63.3344 77.6072 60.2396 80.8202C56.891 74.3549 54.9956 67.0142 54.9956 59.2313C54.9956 56.3336 55.2582 53.4927 55.7616 50.7394C63.0455 46.2089 69.6596 40.387 76.405 35.0073C87.4489 26.2046 99.8936 18.2116 113.135 13.5673C123.325 16.0449 132.216 21.8448 138.593 29.7546C132.273 31.9388 125.952 34.1231 119.635 36.303V36.3074ZM65.6412 35.5239C63.8859 36.2417 62.1043 36.9071 60.3097 37.5155C63.33 31.7287 67.5191 26.6511 72.5661 22.5933C73.5291 26.2396 73.1439 30.1223 70.5175 32.6917C69.1649 34.0137 67.3965 34.8104 65.6456 35.5239H65.6412ZM88.0399 104.116C95.5469 99.0604 104.547 96.2414 113.599 96.1364C118.891 96.0751 124.192 96.9068 129.471 97.3533C121.745 102.934 112.255 106.222 101.995 106.222C97.1359 106.222 92.4522 105.486 88.0399 104.116Z" fill="url(#paint1_linear_455_3442)" fill-opacity="0.1"/>
</g>
<mask id="mask1_455_3442" style="mask-type:luminance" maskUnits="userSpaceOnUse" x="-798" y="80" width="1780" height="348">
<path d="M938.576 93.0572C866.895 68.9573 776.515 79.8231 719.476 119.423C702.971 130.867 688.853 144.577 669.276 153.006C616.072 175.932 546.999 151.808 486.87 161.97C385.022 179.173 342.3 286.237 238.291 294.097C195.854 297.305 153.128 282.844 113.104 274.12C54.1309 261.26 -10.6102 248.564 -66.9099 266.344C-118.378 282.6 -155.709 322.638 -211.518 326.605C-256.319 329.792 -296.728 308.48 -337.519 294.178C-433.859 260.412 -549.493 265.967 -641.63 303.666C-709.267 331.343 -762.534 376.157 -797.38 427.17L981.995 425.798L938.576 93.0345L938.576 93.0572Z" fill="white"/>
</mask>
<g mask="url(#mask1_455_3442)">
<path d="M938.576 93.0572C866.895 68.9573 776.515 79.8231 719.476 119.423C702.971 130.867 688.853 144.577 669.276 153.006C616.072 175.932 546.999 151.808 486.87 161.97C385.022 179.173 342.3 286.237 238.291 294.097C195.854 297.305 153.128 282.844 113.104 274.12C54.1309 261.26 -10.6102 248.564 -66.9099 266.344C-118.378 282.6 -155.709 322.638 -211.518 326.605C-256.319 329.792 -296.728 308.48 -337.519 294.178C-433.859 260.412 -549.493 265.967 -641.63 303.666C-709.267 331.343 -762.534 376.157 -797.38 427.17L981.995 425.798L938.576 93.0345L938.576 93.0572Z" fill="url(#paint2_linear_455_3442)"/>
</g>
<mask id="mask2_455_3442" style="mask-type:luminance" maskUnits="userSpaceOnUse" x="-835" y="422" width="1782" height="151">
<path d="M905.705 567.521C834.107 577.893 743.543 573.141 686.159 555.989C669.554 551.032 655.324 545.097 635.664 541.442C582.236 531.499 513.249 541.884 452.977 537.455C350.887 529.956 307.365 483.652 203.177 480.19C160.666 478.777 117.99 485.001 77.98 488.747C19.026 494.27 -45.7036 499.718 -102.195 491.998C-153.838 484.939 -191.494 467.61 -247.398 465.861C-292.275 464.456 -332.583 473.642 -373.323 479.8C-469.541 494.335 -585.353 491.862 -677.864 475.51C-745.774 463.505 -799.419 444.102 -834.664 422.03L946.848 423.723L905.705 567.53L905.705 567.521Z" fill="white"/>
</mask>
<g mask="url(#mask2_455_3442)">
<path d="M905.705 567.521C834.107 577.893 743.543 573.141 686.159 555.989C669.554 551.032 655.324 545.097 635.664 541.442C582.236 531.499 513.249 541.884 452.977 537.455C350.887 529.956 307.365 483.652 203.177 480.19C160.666 478.777 117.99 485.001 77.9801 488.747C19.0261 494.27 -45.7036 499.718 -102.195 491.998C-153.838 484.939 -191.494 467.61 -247.398 465.861C-292.275 464.456 -332.583 473.642 -373.323 479.8C-469.541 494.335 -585.353 491.862 -677.864 475.51C-745.775 463.505 -799.419 444.102 -834.664 422.03L946.848 423.723L905.705 567.53L905.705 567.521Z" fill="url(#paint3_linear_455_3442)"/>
</g>
<mask id="mask3_455_3442" style="mask-type:luminance" maskUnits="userSpaceOnUse" x="42" y="372" width="251" height="250">
<path d="M255.53 408.766C254.812 408.064 254.113 407.378 253.415 406.725C247.023 400.624 238.87 394.167 228.598 388.405C223.679 385.495 216.806 382.089 207.965 379.1C205.826 378.344 203.4 377.588 200.962 376.917C200.377 376.748 199.777 376.596 199.193 376.427C198.969 376.355 198.748 376.317 198.508 376.264C197.839 376.082 197.187 375.917 196.52 375.77C193.076 374.937 189.743 374.266 186.505 373.776C185.448 373.6 184.392 373.458 183.353 373.298C183.216 373.272 183.097 373.262 182.945 373.254C182.196 373.161 181.448 373.069 180.717 372.993C174.63 372.294 168.965 372.162 163.742 372.36C162.748 372.4 161.754 372.44 160.778 372.496C160.34 372.521 159.937 372.544 159.499 372.569C159.095 372.592 158.691 372.615 158.287 372.638C158.103 372.666 157.935 372.675 157.767 372.685C157.565 372.696 157.363 372.708 157.179 372.735C156.826 372.772 156.456 372.794 156.104 372.831C149.453 373.448 144.393 374.396 140.26 375.308C140.143 375.331 140.026 375.355 139.909 375.378C139.959 375.359 140.026 375.355 140.06 375.353C139.626 375.445 139.21 375.553 138.81 375.644C137.11 376.011 135.166 376.545 133.208 377.13C132.127 377.411 131.064 377.708 130.154 378.014C127.65 378.782 124.34 379.917 121.899 380.901C121.899 380.901 121.868 380.936 121.834 380.938C120.646 381.411 119.492 381.883 118.356 382.37C118.356 382.37 118.341 382.388 118.325 382.406C118.309 382.423 118.259 382.443 118.226 382.445C117.551 382.737 116.892 383.011 116.284 383.299C115.429 383.686 114.608 384.07 113.804 384.471C111.306 385.627 108.783 386.92 106.218 388.367C106.202 388.385 106.186 388.402 106.152 388.404C104.126 389.533 102.103 390.73 100.055 392.063C89.6887 398.617 80.5097 406.673 72.5298 416.147C68.3419 420.963 63.9728 426.988 59.9153 433.992L59.4546 434.761C59.4546 434.761 59.4546 434.761 59.4387 434.779C59.4229 434.797 59.4071 434.814 59.3913 434.832C58.3215 436.717 57.2697 438.618 56.1982 440.756C55.4706 442.149 54.6918 443.814 54.0672 445.235C54.0514 445.253 54.0356 445.27 54.0218 445.322C53.9625 445.46 53.8873 445.617 53.828 445.755C52.8023 448.093 52.3239 449.134 51.6383 450.946C51.5493 451.154 51.4762 451.344 51.4031 451.534C50.6245 453.486 50.1167 454.883 49.5321 456.69C49.1449 457.843 48.7735 458.979 48.4042 460.148C48.3745 460.218 48.3607 460.269 48.3489 460.354C47.8808 461.85 47.4642 463.36 47.0496 464.903C47.0358 464.955 47.022 465.006 46.9923 465.076C46.633 466.413 46.3073 467.749 45.9995 469.101C45.7864 470.059 45.5892 470.999 45.4077 471.921C45.3446 472.279 45.2479 472.639 45.1848 472.997C43.3192 482.493 42.9371 490.249 42.9429 495.162C42.9394 495.669 42.9456 496.057 42.9418 496.277C42.9238 498.524 42.965 500.632 43.0653 502.315C43.0974 502.853 43.1157 503.443 43.1677 504.031C43.1697 504.065 43.1737 504.132 43.1757 504.166L43.1837 504.301C43.3522 507.128 43.6282 510.624 44.305 515.179C47.347 536.467 55.7298 556.132 68.8881 572.907C69.2548 573.393 69.6373 573.861 70.0219 574.362C70.0754 574.41 70.113 574.475 70.1685 574.556C72.2139 577.141 74.3919 579.685 76.3537 581.717C76.4785 581.828 76.6054 581.973 76.7322 582.117C78.2818 583.751 80.0414 585.508 81.8842 587.243C82.1715 587.531 82.4588 587.818 82.7283 588.09L83.6913 588.946C84.3511 589.533 84.9931 590.105 85.635 590.676C87.1864 592.056 88.716 593.353 90.1504 594.47C91.4263 595.478 92.6824 596.436 93.9344 597.327C94.0592 597.438 94.2177 597.547 94.3584 597.64C94.7824 597.954 95.2242 598.283 95.6461 598.563C96.3514 599.063 97.0388 599.547 97.6906 599.999C97.7263 600.031 97.7798 600.079 97.8154 600.11C97.8689 600.158 97.9224 600.206 97.9917 600.235C115.389 612.209 135.217 619.331 156.232 621.168C156.759 621.222 157.301 621.259 157.828 621.313C158.066 621.333 158.303 621.354 158.541 621.374C159.321 621.43 160.083 621.471 160.794 621.498C177.726 622.539 193.699 619.953 207.98 615.066C232.724 606.93 252.057 592.449 265.019 575.041C265.019 575.041 265.05 575.005 265.066 574.988C265.193 574.845 265.335 574.685 265.444 574.527C266.089 573.73 266.698 572.902 267.355 572.02C267.606 571.702 267.839 571.367 268.073 571.033C268.417 570.574 268.745 570.133 269.04 569.694C269.04 569.694 269.056 569.677 269.072 569.659C269.461 569.113 269.819 568.603 270.146 568.128C270.161 568.111 270.177 568.093 270.193 568.075C271.607 566.018 272.471 564.652 272.533 564.547C273.694 562.775 274.419 561.636 275.532 559.63C275.612 559.541 275.671 559.403 275.732 559.298C275.825 559.158 275.884 559.019 275.96 558.863C276.035 558.707 276.112 558.584 276.187 558.428C276.63 557.642 277.087 556.806 277.575 555.934L277.788 555.55L278.561 554.07C278.561 554.07 278.625 553.999 278.639 553.948L278.67 553.912C279.459 552.415 280.372 550.454 281.12 548.824C281.135 548.806 281.151 548.789 281.149 548.755C281.224 548.599 281.299 548.442 281.359 548.304C281.493 548.009 281.612 547.732 281.73 547.455C281.76 547.386 281.79 547.317 281.835 547.23C282.578 545.532 283.025 544.527 283.622 542.923C283.681 542.784 283.738 542.612 283.797 542.474C283.813 542.456 283.829 542.438 283.843 542.387C284.268 541.299 284.691 540.177 285.096 539.039C285.254 538.574 285.396 538.127 285.572 537.678C285.759 537.144 285.931 536.627 286.119 536.093C286.322 535.541 286.506 534.939 286.688 534.304C287.411 531.983 288.035 529.702 288.579 527.509C288.593 527.458 288.607 527.406 288.621 527.355C291.686 515.038 292.278 504.856 292.262 498.913C292.265 498.406 292.259 498.018 292.263 497.798C292.254 496.228 292.213 494.694 292.17 493.126C292.16 492.671 292.149 492.215 292.155 491.742C292.114 489.921 291.902 486.927 291.533 483.571C290.843 477.093 289.678 470.861 288.026 464.961C287.785 464.046 287.529 463.149 287.277 462.319C287.104 461.687 286.894 460.99 286.666 460.277C282.666 446.997 277.116 436.608 271.932 428.968C271.506 428.334 271.097 427.716 270.693 427.165C270.637 427.084 270.546 426.971 270.491 426.889C265.753 419.933 260.743 414.073 255.823 409.154C255.734 409.075 255.645 408.995 255.555 408.916L255.53 408.766Z" fill="white"/>
</mask>
<g mask="url(#mask3_455_3442)">
<path d="M255.53 408.767C254.812 408.065 254.113 407.379 253.415 406.726C247.023 400.625 238.87 394.168 228.598 388.406C223.679 385.496 216.806 382.09 207.965 379.101C205.826 378.345 203.4 377.589 200.962 376.918C200.377 376.749 199.777 376.597 199.193 376.428C198.969 376.356 198.748 376.318 198.508 376.265C197.839 376.083 197.187 375.918 196.52 375.77C193.076 374.937 189.743 374.267 186.505 373.777C185.448 373.601 184.392 373.459 183.353 373.299C183.216 373.273 183.097 373.263 182.945 373.254C182.196 373.162 181.448 373.07 180.717 372.994C174.63 372.295 168.965 372.163 163.742 372.361C162.748 372.401 161.754 372.441 160.778 372.497C160.341 372.522 159.937 372.545 159.499 372.57C159.095 372.593 158.691 372.616 158.287 372.639C158.103 372.667 157.935 372.676 157.767 372.686C157.565 372.697 157.363 372.709 157.179 372.736C156.826 372.773 156.456 372.795 156.104 372.832C149.453 373.449 144.393 374.397 140.26 375.309C140.143 375.332 140.026 375.356 139.909 375.379C139.959 375.36 140.026 375.356 140.06 375.354C139.626 375.446 139.21 375.554 138.81 375.645C137.11 376.012 135.166 376.546 133.208 377.131C132.127 377.412 131.064 377.709 130.154 378.015C127.65 378.783 124.34 379.918 121.899 380.902C121.899 380.902 121.868 380.937 121.834 380.939C120.646 381.412 119.492 381.884 118.356 382.371C118.356 382.371 118.341 382.389 118.325 382.406C118.309 382.424 118.259 382.444 118.226 382.446C117.551 382.738 116.892 383.012 116.284 383.3C115.429 383.687 114.608 384.071 113.804 384.472C111.306 385.628 108.783 386.921 106.218 388.368C106.202 388.386 106.186 388.403 106.152 388.405C104.126 389.534 102.103 390.731 100.055 392.064C89.6887 398.618 80.5098 406.674 72.5298 416.148C68.3419 420.964 63.9728 426.989 59.9153 433.993L59.4546 434.762C59.4546 434.762 59.4546 434.762 59.4388 434.78C59.4229 434.798 59.4071 434.815 59.3913 434.833C58.3216 436.718 57.2697 438.619 56.1982 440.757C55.4707 442.15 54.6918 443.815 54.0673 445.236C54.0514 445.254 54.0356 445.271 54.0218 445.323C53.9625 445.461 53.8874 445.618 53.8281 445.756C52.8023 448.094 52.324 449.135 51.6383 450.947C51.5494 451.155 51.4763 451.345 51.4031 451.535C50.6246 453.487 50.1168 454.884 49.5321 456.691C49.1449 457.844 48.7736 458.98 48.4042 460.149C48.3746 460.219 48.3608 460.27 48.349 460.355C47.8809 461.851 47.4642 463.361 47.0496 464.904C47.0358 464.956 47.022 465.007 46.9924 465.077C46.6331 466.414 46.3074 467.75 45.9996 469.102C45.7865 470.059 45.5892 470.999 45.4078 471.922C45.3447 472.28 45.248 472.64 45.1849 472.998C43.3192 482.494 42.9372 490.249 42.943 495.163C42.9394 495.67 42.9457 496.058 42.9419 496.278C42.9238 498.524 42.9651 500.633 43.0654 502.316C43.0975 502.854 43.1158 503.444 43.1677 504.032C43.1697 504.066 43.1737 504.133 43.1757 504.167L43.1838 504.302C43.3523 507.129 43.6283 510.625 44.305 515.18C47.3471 536.468 55.7299 556.133 68.8882 572.908C69.2549 573.394 69.6374 573.862 70.0219 574.363C70.0754 574.411 70.1131 574.476 70.1686 574.557C72.214 577.142 74.392 579.685 76.3538 581.718C76.4786 581.829 76.6054 581.974 76.7323 582.118C78.2819 583.752 80.0415 585.509 81.8843 587.244C82.1716 587.531 82.4589 587.819 82.7284 588.091L83.6914 588.947C84.3512 589.534 84.9931 590.106 85.6351 590.677C87.1865 592.057 88.7161 593.354 90.1505 594.471C91.4264 595.479 92.6824 596.437 93.9345 597.328C94.0593 597.439 94.2178 597.548 94.3585 597.641C94.7824 597.955 95.2242 598.284 95.6462 598.564C96.3515 599.064 97.0389 599.548 97.6907 600C97.7263 600.032 97.7798 600.08 97.8155 600.111C97.869 600.159 97.9225 600.207 97.9918 600.236C115.39 612.209 135.217 619.332 156.232 621.169C156.759 621.223 157.301 621.26 157.828 621.314C158.066 621.334 158.303 621.355 158.541 621.375C159.321 621.431 160.083 621.472 160.794 621.499C177.726 622.54 193.699 619.954 207.981 615.067C232.724 606.931 252.058 592.45 265.019 575.042C265.019 575.042 265.051 575.006 265.066 574.989C265.193 574.846 265.335 574.686 265.444 574.528C266.089 573.731 266.698 572.903 267.355 572.021C267.606 571.702 267.839 571.368 268.073 571.034C268.417 570.575 268.745 570.134 269.04 569.695C269.04 569.695 269.056 569.678 269.072 569.66C269.461 569.114 269.819 568.604 270.146 568.129C270.161 568.111 270.177 568.094 270.193 568.076C271.607 566.019 272.471 564.653 272.533 564.548C273.694 562.776 274.419 561.637 275.533 559.631C275.612 559.542 275.671 559.404 275.732 559.299C275.825 559.159 275.884 559.02 275.96 558.864C276.035 558.708 276.112 558.585 276.187 558.429C276.63 557.643 277.087 556.807 277.575 555.935L277.788 555.551L278.562 554.071C278.562 554.071 278.625 554 278.639 553.949L278.67 553.913C279.459 552.416 280.372 550.455 281.12 548.825C281.135 548.807 281.151 548.79 281.149 548.756C281.224 548.6 281.299 548.443 281.359 548.305C281.493 548.01 281.612 547.733 281.73 547.456C281.76 547.387 281.79 547.318 281.835 547.231C282.578 545.533 283.025 544.528 283.622 542.924C283.681 542.785 283.738 542.613 283.798 542.475C283.813 542.457 283.829 542.439 283.843 542.388C284.268 541.3 284.691 540.178 285.096 539.04C285.254 538.575 285.396 538.128 285.572 537.679C285.759 537.145 285.931 536.628 286.119 536.094C286.323 535.542 286.506 534.94 286.688 534.305C287.411 531.984 288.035 529.703 288.579 527.51C288.593 527.459 288.607 527.407 288.621 527.356C291.686 515.039 292.278 504.857 292.262 498.914C292.265 498.407 292.259 498.019 292.263 497.799C292.254 496.229 292.213 494.695 292.17 493.127C292.16 492.672 292.15 492.216 292.155 491.743C292.114 489.922 291.902 486.928 291.533 483.572C290.843 477.094 289.678 470.862 288.026 464.962C287.785 464.047 287.529 463.15 287.277 462.32C287.104 461.688 286.894 460.991 286.666 460.278C282.666 446.998 277.116 436.609 271.932 428.969C271.506 428.335 271.097 427.717 270.693 427.166C270.637 427.085 270.546 426.972 270.491 426.89C265.753 419.934 260.743 414.074 255.823 409.155C255.734 409.076 255.645 408.996 255.555 408.917L255.53 408.767Z" fill="url(#paint4_radial_455_3442)"/>
<g style="mix-blend-mode:screen" opacity="0.2">
<path d="M360.234 390.474C355.758 378.017 350.578 366.782 345.104 356.848C344.989 356.618 344.858 356.406 344.743 356.176C343.704 354.328 342.684 352.529 341.649 350.748C338.373 345.094 334.441 339.207 330.218 333.252C178.15 452.855 -3.94095 537.218 -191.335 576.266C-188.705 588.93 -185.16 601.356 -180.502 613.465C-180.058 614.689 -179.58 615.911 -179.101 617.133C-179.042 617.281 -178.982 617.43 -178.905 617.594C-176.355 624.1 -173.466 630.621 -170.667 635.914C-170.495 636.258 -170.289 636.601 -170.116 636.946C-170.039 637.11 -169.926 637.306 -169.815 637.469C20.1585 595.775 204.449 510.34 360.234 390.474ZM-21.082 761.038C-21.5812 760.881 -22.0804 760.724 -22.5797 760.567C-23.7168 760.193 -24.8183 759.851 -25.9554 759.477C-61.4002 748.031 -92.6478 729.643 -118.626 705.298C57.2228 669.78 228.615 593.812 374.671 485.848C374.613 487.709 374.512 489.69 374.381 491.74C373.625 505.121 371.631 518.995 368.42 533.124C366.782 540.494 365.056 546.958 363.819 550.861C363.507 551.858 363.193 552.822 362.881 553.819C361.848 557.17 360.792 560.438 359.692 563.793C359.55 564.24 359.277 565.049 358.886 566.135C354.774 578.189 346.58 598.276 332.243 621.567C229.771 684.29 118.866 733.618 4.47986 767.359C-2.44721 765.915 -9.35849 764.453 -16.2524 762.433C-17.7975 762.015 -19.3783 761.565 -21.0484 761.036L-21.082 761.038ZM-158.471 387.812C-158.255 387.462 -158.057 387.096 -157.842 386.746C-156.738 384.859 -155.668 382.975 -154.483 381.033C-152.84 378.288 -151.125 375.607 -149.392 372.942C-149.297 372.835 -149.253 372.714 -149.176 372.592C-147.18 369.523 -145.147 366.52 -143.044 363.546C-142.933 363.422 -142.858 363.265 -142.747 363.141C-141.111 360.836 -139.457 358.546 -137.765 356.322C-137.251 355.6 -136.78 355 -136.277 354.363C-39.2148 323.858 55.0044 281.647 142.842 229.013C146.681 229.367 150.676 229.797 155.017 230.376C155.818 230.482 156.667 230.569 157.434 230.677C157.86 230.737 158.304 230.813 158.747 230.889C159.155 230.933 159.514 230.997 159.94 231.057C160.843 231.191 161.73 231.343 162.636 231.51C163.557 231.66 164.496 231.826 165.468 231.99C167.653 232.371 169.871 232.751 172.042 233.184C175.049 233.755 178.223 234.57 181.339 235.269C75.7465 301.75 -39.5304 353.405 -158.471 387.812ZM-196.054 539.056C-197.023 519.138 -195.717 498.821 -191.804 478.337C-189.988 468.289 -188.025 460.698 -186.329 454.591L-186.246 454.282C-186.246 454.282 -186.19 454.076 -186.163 453.973C-185.801 452.669 -185.436 451.433 -185.1 450.266C-184.511 448.24 -183.79 445.886 -182.976 443.391C-35.4724 406.439 107.314 341.359 232.839 253.09C235.462 254.307 238.055 255.307 240.687 256.659C241.992 257.31 243.3 257.995 244.626 258.696C245.079 258.94 245.531 259.151 245.985 259.395C247.154 260.02 248.323 260.646 249.494 261.305C254.279 263.935 258.989 266.721 263.103 269.424C280.11 280.151 292.538 290.853 301.109 299.463C304.011 302.234 306.542 305.027 309.19 307.797C158.888 418.485 -15.8667 498.124 -196.039 539.038L-196.054 539.056ZM-130.499 693.433C-132.754 691.013 -135.042 688.628 -137.202 686.101C-137.31 686.006 -137.403 685.859 -137.476 685.762C-137.565 685.683 -137.639 685.586 -137.712 685.488C-138.818 684.218 -139.946 682.864 -141.13 681.429C-141.839 680.575 -142.551 679.687 -143.263 678.799C-143.501 678.492 -143.737 678.219 -143.974 677.912C-145.745 675.7 -147.487 673.385 -149.268 671.005C37.0938 633.333 218.585 551.655 371.917 435.407C373.356 444.526 374.302 454.45 374.639 465.202C224.705 575.836 49.6314 654.648 -130.481 693.449L-130.499 693.433Z" fill="#C4DBFB"/>
</g>
</g>
<g filter="url(#filter0_d_455_3442)">
<path d="M43.302 507.192C43.3701 508.049 43.4382 508.905 43.54 509.76C13.861 533.922 -1.55129 556.51 5.02276 570.844C17.2152 597.39 100.086 585.88 189.753 545.154C279.436 504.411 342.47 449.67 330.293 423.106C325.317 412.291 308.657 407.794 284.559 409.017C276.684 409.416 267.984 410.452 258.691 412.045C258.114 411.437 257.534 410.796 256.905 410.174C296.583 403.321 325.429 406.82 332.45 422.123C345.189 449.886 281.597 506.042 190.729 547.325C137.736 571.401 87.002 585.159 51.3694 586.973C25.9048 588.258 8.14247 583.418 2.83397 571.863C-4.20494 556.544 12.071 532.556 43.2861 507.21L43.302 507.192Z" fill="#FEFEFC"/>
</g>
<path d="M195.251 556.561C195.251 556.561 208.175 544.094 220.692 543.224C234.503 542.264 259.194 563.946 259.194 563.946C259.194 563.946 234.819 541.908 234.164 528.056C233.568 515.502 244.425 501.193 244.425 501.193C244.425 501.193 231.502 513.66 218.985 514.53C205.174 515.49 180.483 493.808 180.483 493.808C180.483 493.808 204.857 515.846 205.513 529.698C206.108 542.252 195.251 556.561 195.251 556.561Z" fill="#FEFEFC"/>
<path d="M76.8822 483.172C76.8822 483.172 85.4018 474.945 93.6682 474.37C102.775 473.747 119.063 488.037 119.063 488.037C119.063 488.037 102.997 473.498 102.554 464.365C102.162 456.074 109.328 446.641 109.328 446.641C109.328 446.641 100.808 454.868 92.5417 455.443C83.4346 456.066 67.1469 441.776 67.1469 441.776C67.1469 441.776 83.2132 456.315 83.6555 465.448C84.0477 473.739 76.8822 483.172 76.8822 483.172Z" fill="#FEFEFC"/>
<path d="M74.0742 612.518C74.0742 612.518 76.7229 609.967 79.2925 609.769C82.1152 609.573 87.1888 614.03 87.1888 614.03C87.1888 614.03 82.1962 609.518 82.0437 606.671C81.925 604.109 84.162 601.159 84.162 601.159C84.162 601.159 81.5132 603.711 78.9437 603.909C76.121 604.104 71.0474 599.647 71.0474 599.647C71.0474 599.647 76.0399 604.159 76.1925 607.006C76.3112 609.568 74.0742 612.518 74.0742 612.518Z" fill="#FEFEFC"/>
<path d="M222.48 470.947C222.48 470.947 226.39 467.192 230.137 466.927C234.287 466.638 241.728 473.173 241.728 473.173C241.728 473.173 234.381 466.531 234.184 462.369C233.993 458.595 237.28 454.284 237.28 454.284C237.28 454.284 233.37 458.039 229.623 458.305C225.473 458.593 218.032 452.058 218.032 452.058C218.032 452.058 225.379 458.7 225.576 462.862C225.766 466.636 222.48 470.947 222.48 470.947Z" fill="#FEFEFC"/>
<mask id="mask4_455_3442" style="mask-type:luminance" maskUnits="userSpaceOnUse" x="473" y="0" width="254" height="254">
<path d="M726.373 119.711C726.421 120.726 726.47 121.717 726.494 122.684C726.808 131.626 726.204 142.139 723.644 153.788C722.533 159.468 720.48 166.96 716.784 175.66C715.915 177.787 714.852 180.131 713.717 182.427C713.451 182.983 713.161 183.539 712.896 184.095C712.799 184.312 712.678 184.506 712.558 184.723C712.244 185.352 711.93 185.956 711.591 186.56C709.901 189.726 708.162 192.699 706.35 195.478C705.771 196.396 705.167 197.291 704.587 198.185C704.515 198.306 704.442 198.402 704.346 198.523C703.911 199.152 703.476 199.78 703.041 200.384C699.467 205.459 695.747 209.834 692.076 213.652C691.375 214.377 690.675 215.102 689.975 215.803C689.661 216.118 689.371 216.408 689.057 216.722C688.767 217.012 688.477 217.302 688.187 217.592C688.042 217.713 687.922 217.833 687.801 217.954C687.656 218.099 687.511 218.244 687.366 218.365C687.1 218.607 686.835 218.873 686.569 219.114C681.618 223.73 677.487 226.921 674.009 229.434C673.913 229.507 673.816 229.579 673.72 229.652C673.768 229.627 673.816 229.579 673.84 229.555C673.478 229.821 673.116 230.062 672.778 230.304C671.353 231.343 669.638 232.455 667.875 233.543C666.933 234.171 665.991 234.775 665.145 235.259C662.875 236.636 659.783 238.376 657.392 239.56C657.392 239.56 657.344 239.56 657.32 239.585C656.16 240.165 655.025 240.721 653.89 241.252C653.89 241.252 653.866 241.252 653.842 241.252C653.817 241.252 653.769 241.276 653.745 241.301C653.069 241.615 652.417 241.929 651.789 242.195C650.919 242.581 650.074 242.944 649.228 243.282C646.668 244.394 643.987 245.433 641.161 246.4C641.137 246.4 641.113 246.4 641.089 246.424C638.867 247.198 636.596 247.923 634.205 248.575C622.25 252.007 609.956 253.53 597.396 253.191C590.923 253.119 583.412 252.369 575.369 250.726L574.475 250.557C574.475 250.557 574.475 250.557 574.451 250.557C574.427 250.557 574.402 250.557 574.378 250.557C572.229 250.098 570.079 249.614 567.736 248.986C566.19 248.599 564.403 248.068 562.906 247.584C562.882 247.584 562.857 247.584 562.809 247.56C562.664 247.512 562.495 247.463 562.35 247.415C559.887 246.618 558.775 246.279 556.94 245.578C556.722 245.506 556.529 245.433 556.336 245.361C554.331 244.636 552.93 244.08 551.167 243.306C550.032 242.823 548.921 242.34 547.786 241.832C547.713 241.808 547.665 241.784 547.593 241.736C546.143 241.083 544.718 240.382 543.269 239.657C543.221 239.633 543.173 239.609 543.1 239.585C541.844 238.956 540.612 238.304 539.381 237.627C538.511 237.144 537.666 236.66 536.845 236.177C536.531 235.984 536.192 235.814 535.878 235.621C527.425 230.642 521.29 225.712 517.571 222.401C517.184 222.063 516.894 221.797 516.725 221.652C515.01 220.154 513.44 218.703 512.233 217.495C511.846 217.108 511.411 216.698 511.001 216.263C510.977 216.238 510.928 216.19 510.904 216.166L510.808 216.069C508.779 214.039 506.315 211.477 503.32 207.9C489.239 191.273 479.988 171.697 476.148 150.453C476.027 149.849 475.931 149.245 475.81 148.616C475.81 148.544 475.786 148.471 475.762 148.375C475.182 145.088 474.723 141.728 474.506 138.877C474.506 138.707 474.482 138.514 474.457 138.321C474.264 136.049 474.119 133.535 474.047 130.974C474.023 130.563 473.999 130.152 473.974 129.765V128.46C473.974 127.566 473.974 126.696 473.974 125.826C473.974 123.723 474.023 121.693 474.143 119.856C474.24 118.213 474.361 116.618 474.53 115.071C474.53 114.902 474.554 114.709 474.578 114.539C474.626 114.008 474.675 113.452 474.747 112.944C474.844 112.074 474.94 111.228 475.037 110.431C475.037 110.383 475.037 110.31 475.037 110.262C475.037 110.189 475.037 110.117 475.061 110.044C477.718 88.8247 485.689 69.0311 498.465 51.896C498.779 51.461 499.118 51.026 499.432 50.5909C499.577 50.3976 499.721 50.2043 499.866 50.0109C500.349 49.3826 500.832 48.7784 501.291 48.2225C511.919 34.7126 524.647 24.3687 537.98 16.8524C560.829 3.60838 584.837 -1.27356 606.767 0.635712C606.767 0.635712 606.816 0.635712 606.84 0.635712C607.033 0.635712 607.251 0.635742 607.444 0.659897C608.482 0.708237 609.521 0.804886 610.632 0.901566C611.043 0.925735 611.453 0.974075 611.864 1.02242C612.443 1.07074 612.999 1.11909 613.53 1.1916C613.53 1.1916 613.554 1.1916 613.579 1.1916C614.255 1.2641 614.883 1.33659 615.463 1.4091C615.487 1.4091 615.511 1.4091 615.535 1.4091C618.047 1.72328 619.665 1.98914 619.786 2.01331C621.911 2.32748 623.264 2.54498 625.534 3.05251C625.655 3.05251 625.8 3.10085 625.921 3.12502C626.09 3.14919 626.235 3.19753 626.404 3.24586C626.573 3.29419 626.718 3.31837 626.887 3.3667C627.781 3.56004 628.723 3.77754 629.713 3.99506L630.148 4.09175L631.79 4.50261C631.79 4.50261 631.887 4.50259 631.935 4.52676H631.983C633.65 4.93762 635.751 5.56601 637.49 6.0977C637.514 6.0977 637.538 6.09769 637.563 6.12186C637.732 6.1702 637.901 6.21852 638.046 6.26686C638.36 6.36353 638.649 6.46022 638.939 6.5569C639.012 6.58107 639.084 6.60522 639.181 6.62939C640.968 7.20943 642.031 7.54778 643.649 8.17615C643.794 8.22449 643.963 8.29697 644.108 8.34531C644.132 8.34531 644.156 8.34534 644.205 8.36949C645.316 8.78035 646.451 9.21536 647.586 9.67455C648.045 9.86789 648.48 10.0612 648.939 10.2304C649.47 10.4479 649.977 10.6654 650.509 10.8829C651.064 11.1005 651.644 11.3663 652.248 11.6563C654.494 12.6714 656.643 13.7348 658.672 14.7982C658.721 14.8223 658.769 14.8465 658.817 14.8707C670.217 20.8401 678.333 27.2447 682.825 31.2565C683.212 31.5949 683.502 31.8608 683.671 32.0058C684.854 33.0692 685.989 34.1326 687.149 35.2201C687.487 35.5343 687.825 35.8485 688.187 36.1627C689.54 37.4194 691.665 39.5945 693.96 42.1321C698.404 47.0141 702.341 52.0894 705.698 57.3097C706.229 58.1072 706.737 58.9047 707.196 59.6539C707.558 60.2098 707.944 60.8382 708.331 61.4907C715.697 73.4539 719.828 84.6437 722.122 93.7067C722.315 94.4559 722.509 95.1809 722.653 95.8576C722.678 95.9543 722.702 96.0993 722.726 96.196C724.803 104.461 725.866 112.195 726.276 119.228C726.276 119.349 726.276 119.47 726.276 119.591L726.373 119.711Z" fill="white"/>
</mask>
<g mask="url(#mask4_455_3442)">
<path d="M726.373 119.712C726.421 120.727 726.469 121.718 726.493 122.685C726.807 131.627 726.203 142.14 723.643 153.789C722.532 159.469 720.479 166.961 716.784 175.661C715.914 177.788 714.852 180.132 713.716 182.428C713.451 182.984 713.161 183.54 712.895 184.096C712.799 184.313 712.678 184.507 712.557 184.724C712.243 185.353 711.929 185.957 711.591 186.561C709.9 189.727 708.161 192.7 706.35 195.479C705.77 196.397 705.166 197.292 704.587 198.186C704.514 198.307 704.442 198.403 704.345 198.524C703.91 199.153 703.476 199.781 703.041 200.385C699.466 205.46 695.747 209.835 692.075 213.653C691.375 214.378 690.674 215.103 689.974 215.804C689.66 216.118 689.37 216.408 689.056 216.723C688.766 217.013 688.477 217.303 688.187 217.593C688.042 217.714 687.921 217.834 687.8 217.955C687.655 218.1 687.51 218.245 687.366 218.366C687.1 218.608 686.834 218.874 686.568 219.115C681.617 223.731 677.487 226.922 674.009 229.435C673.912 229.508 673.816 229.58 673.719 229.653C673.767 229.628 673.816 229.58 673.84 229.556C673.478 229.822 673.115 230.063 672.777 230.305C671.352 231.344 669.637 232.456 667.874 233.544C666.932 234.172 665.99 234.776 665.145 235.26C662.874 236.637 659.783 238.377 657.392 239.561C657.392 239.561 657.343 239.561 657.319 239.586C656.16 240.166 655.025 240.721 653.889 241.253C653.889 241.253 653.865 241.253 653.841 241.253C653.817 241.253 653.769 241.277 653.745 241.302C653.068 241.616 652.416 241.93 651.788 242.196C650.919 242.582 650.073 242.945 649.228 243.283C646.668 244.395 643.987 245.434 641.161 246.401C641.137 246.401 641.113 246.401 641.088 246.425C638.866 247.199 636.596 247.924 634.205 248.576C622.249 252.008 609.955 253.531 597.396 253.192C590.923 253.12 583.411 252.37 575.368 250.727L574.474 250.558C574.474 250.558 574.474 250.558 574.45 250.558C574.426 250.558 574.402 250.558 574.378 250.558C572.228 250.099 570.079 249.615 567.736 248.987C566.19 248.6 564.403 248.069 562.905 247.585C562.881 247.585 562.857 247.585 562.809 247.561C562.664 247.513 562.495 247.464 562.35 247.416C559.886 246.618 558.775 246.28 556.939 245.579C556.722 245.507 556.529 245.434 556.336 245.362C554.331 244.637 552.93 244.081 551.167 243.307C550.032 242.824 548.921 242.341 547.785 241.833C547.713 241.809 547.665 241.785 547.592 241.737C546.143 241.084 544.718 240.383 543.269 239.658C543.22 239.634 543.172 239.61 543.1 239.586C541.844 238.957 540.612 238.305 539.38 237.628C538.511 237.145 537.665 236.661 536.844 236.178C536.53 235.985 536.192 235.815 535.878 235.622C527.424 230.643 521.29 225.713 517.57 222.402C517.184 222.064 516.894 221.798 516.725 221.653C515.01 220.155 513.44 218.704 512.232 217.496C511.846 217.109 511.411 216.699 511 216.263C510.976 216.239 510.928 216.191 510.904 216.167L510.807 216.07C508.778 214.04 506.315 211.478 503.32 207.901C489.239 191.274 479.988 171.698 476.148 150.454C476.027 149.85 475.93 149.246 475.809 148.617C475.809 148.545 475.785 148.472 475.761 148.376C475.182 145.089 474.723 141.729 474.505 138.878C474.505 138.708 474.481 138.515 474.457 138.322C474.264 136.05 474.119 133.536 474.046 130.975C474.022 130.564 473.998 130.153 473.974 129.766V128.461C473.974 127.567 473.974 126.697 473.974 125.827C473.974 123.724 474.022 121.694 474.143 119.857C474.24 118.214 474.36 116.619 474.529 115.072C474.529 114.903 474.554 114.71 474.578 114.54C474.626 114.009 474.674 113.453 474.747 112.945C474.843 112.075 474.94 111.229 475.037 110.432C475.037 110.384 475.037 110.311 475.037 110.263C475.037 110.19 475.037 110.118 475.061 110.045C477.718 88.8257 485.688 69.0321 498.465 51.897C498.779 51.462 499.117 51.0269 499.431 50.5919C499.576 50.3986 499.721 50.2052 499.866 50.0119C500.349 49.3835 500.832 48.7793 501.291 48.2235C511.918 34.7136 524.647 24.3697 537.979 16.8534C560.828 3.60936 584.836 -1.27258 606.767 0.636688C606.767 0.636688 606.815 0.636688 606.839 0.636688C607.033 0.636688 607.25 0.636719 607.443 0.660873C608.482 0.709213 609.52 0.805862 610.631 0.902542C611.042 0.926712 611.453 0.975052 611.863 1.02339C612.443 1.07172 612.998 1.12007 613.53 1.19258C613.53 1.19258 613.554 1.19258 613.578 1.19258C614.254 1.26508 614.882 1.33757 615.462 1.41008C615.486 1.41008 615.51 1.41008 615.535 1.41008C618.046 1.72426 619.665 1.99011 619.785 2.01428C621.911 2.32846 623.263 2.54596 625.534 3.05348C625.655 3.05348 625.8 3.10182 625.92 3.12599C626.089 3.15016 626.234 3.1985 626.403 3.24684C626.572 3.29517 626.717 3.31935 626.886 3.36768C627.78 3.56102 628.722 3.77852 629.712 3.99603L630.147 4.09273L631.789 4.50359C631.789 4.50359 631.886 4.50357 631.934 4.52774H631.983C633.649 4.9386 635.751 5.56699 637.49 6.09868C637.514 6.09868 637.538 6.09866 637.562 6.12283C637.731 6.17117 637.9 6.2195 638.045 6.26784C638.359 6.3645 638.649 6.4612 638.939 6.55788C639.011 6.58205 639.084 6.6062 639.18 6.63037C640.968 7.2104 642.03 7.54875 643.649 8.17712C643.794 8.22546 643.963 8.29794 644.107 8.34628C644.132 8.34628 644.156 8.34631 644.204 8.37047C645.315 8.78133 646.45 9.21634 647.586 9.67552C648.044 9.86887 648.479 10.0622 648.938 10.2314C649.469 10.4489 649.977 10.6664 650.508 10.8839C651.064 11.1014 651.643 11.3673 652.247 11.6573C654.493 12.6724 656.643 13.7357 658.672 14.7991C658.72 14.8233 658.768 14.8475 658.817 14.8716C670.217 20.8411 678.332 27.2456 682.825 31.2575C683.211 31.5959 683.501 31.8618 683.67 32.0068C684.854 33.0702 685.989 34.1335 687.148 35.2211C687.486 35.5353 687.824 35.8495 688.187 36.1637C689.539 37.4204 691.665 39.5955 693.959 42.1331C698.403 47.0151 702.34 52.0904 705.698 57.3107C706.229 58.1082 706.736 58.9057 707.195 59.6549C707.557 60.2108 707.944 60.8392 708.33 61.4917C715.697 73.4548 719.827 84.6446 722.122 93.7076C722.315 94.4568 722.508 95.1819 722.653 95.8586C722.677 95.9553 722.701 96.1003 722.725 96.1969C724.803 104.462 725.865 112.196 726.276 119.229C726.276 119.35 726.276 119.471 726.276 119.592L726.373 119.712Z" fill="url(#paint5_radial_455_3442)"/>
<g style="mix-blend-mode:screen" opacity="0.2">
<path d="M810.57 52.6951C816.995 64.4649 822.018 75.9446 825.859 86.7719C825.955 87.0136 826.028 87.2553 826.125 87.4969C826.825 89.5271 827.501 91.5088 828.153 93.4906C830.231 99.7743 832.042 106.711 833.709 113.913C640.557 148.424 453.879 229.363 297.971 344.814C290.146 334.3 283.117 323.256 277.079 311.583C276.451 310.423 275.847 309.238 275.243 308.054C275.171 307.909 275.098 307.764 275.026 307.595C271.814 301.287 268.819 294.713 266.693 289.034C266.548 288.671 266.427 288.285 266.282 287.922C266.21 287.753 266.138 287.535 266.089 287.342C425.74 171.722 614.713 89.8413 810.57 52.6951ZM272.683 91.678C272.466 92.1614 272.248 92.6447 272.031 93.1281C271.548 94.2398 271.065 95.3032 270.582 96.4149C255.365 130.927 248.24 166.937 249.182 202.972C394.631 93.8773 567.736 15.3797 748.014 -22.419C746.565 -23.6274 744.995 -24.8842 743.352 -26.1651C732.701 -34.5997 720.842 -42.4301 707.968 -49.5114C701.278 -53.2332 695.215 -56.2784 691.423 -57.9702C690.457 -58.4052 689.515 -58.816 688.549 -59.2511C685.313 -60.7253 682.124 -62.1271 678.84 -63.553C678.405 -63.7463 677.608 -64.0847 676.521 -64.5197C664.614 -69.5225 643.866 -76.8453 616.549 -81.679C499.938 -46.3937 387.796 4.28659 285.122 68.0901C281.547 74.3012 277.997 80.5124 274.881 87.0861C274.156 88.5362 273.432 90.0346 272.707 91.6539L272.683 91.678ZM462.96 446.802C463.371 446.875 463.781 446.972 464.192 447.044C466.366 447.479 468.515 447.938 470.786 448.349C473.974 448.953 477.162 449.461 480.35 449.944C480.495 449.944 480.616 449.993 480.761 450.017C484.432 450.573 488.079 451.056 491.751 451.467C491.92 451.467 492.089 451.515 492.258 451.515C495.108 451.829 497.958 452.119 500.784 452.337C501.677 452.434 502.45 452.482 503.272 452.53C591.816 399.651 687.317 356.801 786.417 325.793C788.736 322.652 791.103 319.34 793.59 315.667C794.049 314.99 794.557 314.289 794.991 313.637C795.233 313.274 795.474 312.888 795.716 312.501C795.957 312.163 796.151 311.848 796.392 311.486C796.899 310.713 797.382 309.939 797.866 309.142C798.373 308.344 798.88 307.522 799.411 306.676C800.595 304.767 801.802 302.834 802.938 300.9C804.532 298.242 806.053 295.293 807.623 292.466C686.061 327.582 569.209 380.002 462.96 446.802ZM322.994 373.428C337.437 387.567 353.716 400.255 371.879 411.082C380.719 416.472 387.796 420.097 393.569 422.924L393.859 423.069C393.859 423.069 394.052 423.166 394.148 423.215C395.38 423.819 396.564 424.375 397.675 424.906C399.607 425.825 401.877 426.864 404.317 427.927C531.748 341.237 677.318 277.047 828.83 241.52C829.675 238.716 830.665 236.082 831.414 233.182C831.8 231.756 832.163 230.306 832.525 228.831C832.646 228.324 832.791 227.84 832.911 227.333C833.225 226.028 833.539 224.723 833.829 223.394C835.061 218.004 836.124 212.566 836.848 207.636C840.182 187.552 840.447 170.949 839.698 158.672C839.554 154.611 839.143 150.817 838.829 146.95C653.624 186.127 475.471 264.697 323.018 373.428H322.994ZM250.172 219.938C250.486 223.273 250.752 226.608 251.211 229.943C251.211 230.088 251.259 230.257 251.283 230.378C251.283 230.499 251.308 230.62 251.332 230.741C251.549 232.432 251.815 234.197 252.105 236.058C252.274 237.169 252.467 238.305 252.66 239.441C252.733 239.828 252.781 240.19 252.853 240.577C253.336 243.405 253.916 246.281 254.52 249.229C408.688 133.634 592.927 51.3417 784.388 13.6154C778.447 6.38922 771.563 -1.00623 763.641 -8.49829C578.725 30.4363 400.984 109.804 250.172 219.913V219.938Z" fill="#1A2F4B"/>
</g>
</g>
<g filter="url(#filter1_d_455_3442)">
<path d="M508.827 213.869C508.223 213.241 507.62 212.613 507.04 211.96C468.733 218.099 441.223 214.522 434.774 199.9C422.843 172.808 487.355 117.971 578.605 77.6827C669.879 37.3947 753.835 26.6641 765.791 53.7564C770.646 64.8012 762.844 80.4137 745.696 97.7905C740.092 103.47 733.45 109.343 725.987 115.288C726.059 116.134 726.156 117.004 726.204 117.898C758.11 92.546 774.872 68.4022 767.989 52.7896C755.502 24.4648 670.097 34.6637 577.615 75.4834C523.681 99.2889 479.095 128.339 453.734 154.029C435.62 172.397 427.335 189.073 432.528 200.867C439.412 216.504 468.564 220.37 508.803 213.869H508.827Z" fill="#27BEFF"/>
</g>
<path d="M573.992 65.8658C573.992 65.8658 592.155 64.4641 601.261 55.5703C611.308 45.7581 611.55 12.4788 611.55 12.4788C611.55 12.4788 611.792 45.7581 621.839 55.5703C630.945 64.4641 649.108 65.8658 649.108 65.8658C649.108 65.8658 630.945 67.2676 621.839 76.1614C611.792 85.9736 611.55 119.253 611.55 119.253C611.55 119.253 611.308 85.9736 601.261 76.1614C592.155 67.2676 573.992 65.8658 573.992 65.8658Z" fill="#27BEFF"/>
<path d="M549.211 204.783C549.211 204.783 561.19 203.865 567.205 197.992C573.822 191.515 573.991 169.571 573.991 169.571C573.991 169.571 574.161 191.515 580.778 197.992C586.793 203.865 598.772 204.783 598.772 204.783C598.772 204.783 586.793 205.702 580.778 211.575C574.161 218.052 573.991 239.996 573.991 239.996C573.991 239.996 573.822 218.052 567.205 211.575C561.19 205.702 549.211 204.783 549.211 204.783Z" fill="#27BEFF"/>
<path d="M449.749 119.229C449.749 119.229 453.469 118.939 455.353 117.126C457.406 115.12 457.454 108.281 457.454 108.281C457.454 108.281 457.502 115.096 459.555 117.126C461.415 118.939 465.159 119.229 465.159 119.229C465.159 119.229 461.439 119.519 459.555 121.331C457.502 123.337 457.454 130.177 457.454 130.177C457.454 130.177 457.406 123.361 455.353 121.331C453.493 119.519 449.749 119.229 449.749 119.229Z" fill="#27BEFF"/>
<path d="M657.03 103.157C657.03 103.157 662.513 102.722 665.242 100.063C668.261 97.1148 668.334 87.0851 668.334 87.0851C668.334 87.0851 668.406 97.1148 671.425 100.063C674.154 102.746 679.637 103.157 679.637 103.157C679.637 103.157 674.154 103.592 671.425 106.25C668.406 109.199 668.334 119.229 668.334 119.229C668.334 119.229 668.261 109.199 665.242 106.25C662.513 103.568 657.03 103.157 657.03 103.157Z" fill="#27BEFF"/>
<defs>
<filter id="filter0_d_455_3442" x="-8.79004" y="396.822" width="352.865" height="200.353" filterUnits="userSpaceOnUse" color-interpolation-filters="sRGB">
<feFlood flood-opacity="0" result="BackgroundImageFix"/>
<feColorMatrix in="SourceAlpha" type="matrix" values="0 0 0 0 0 0 0 0 0 0 0 0 0 0 0 0 0 0 127 0" result="hardAlpha"/>
<feOffset/>
<feGaussianBlur stdDeviation="5"/>
<feColorMatrix type="matrix" values="0 0 0 0 1 0 0 0 0 1 0 0 0 0 1 0 0 0 0.75 0"/>
<feBlend mode="normal" in2="BackgroundImageFix" result="effect1_dropShadow_455_3442"/>
<feBlend mode="normal" in="SourceGraphic" in2="effect1_dropShadow_455_3442" result="shape"/>
</filter>
<filter id="filter1_d_455_3442" x="421" y="26.7529" width="358.519" height="200.132" filterUnits="userSpaceOnUse" color-interpolation-filters="sRGB">
<feFlood flood-opacity="0" result="BackgroundImageFix"/>
<feColorMatrix in="SourceAlpha" type="matrix" values="0 0 0 0 0 0 0 0 0 0 0 0 0 0 0 0 0 0 127 0" result="hardAlpha"/>
<feOffset/>
<feGaussianBlur stdDeviation="5"/>
<feColorMatrix type="matrix" values="0 0 0 0 1 0 0 0 0 1 0 0 0 0 1 0 0 0 0.75 0"/>
<feBlend mode="normal" in2="BackgroundImageFix" result="effect1_dropShadow_455_3442"/>
<feBlend mode="normal" in="SourceGraphic" in2="effect1_dropShadow_455_3442" result="shape"/>
</filter>
<linearGradient id="paint0_linear_455_3442" x1="101.995" y1="106.826" x2="101.995" y2="-10.2841" gradientUnits="userSpaceOnUse">
<stop stop-color="#2A759F"/>
<stop offset="0.42" stop-color="#2E5382"/>
<stop offset="0.97" stop-color="#0F172A"/>
</linearGradient>
<linearGradient id="paint1_linear_455_3442" x1="79.7536" y1="95.7906" x2="116.72" y2="35.0248" gradientUnits="userSpaceOnUse">
<stop stop-color="#315D93"/>
<stop offset="0.98" stop-color="#1E293B"/>
</linearGradient>
<linearGradient id="paint2_linear_455_3442" x1="66.5856" y1="199.183" x2="72.9996" y2="413.829" gradientUnits="userSpaceOnUse">
<stop stop-color="#98D6FA"/>
<stop offset="1" stop-color="#27B1FF"/>
</linearGradient>
<linearGradient id="paint3_linear_455_3442" x1="26.3874" y1="521.486" x2="26.6007" y2="422.161" gradientUnits="userSpaceOnUse">
<stop stop-color="#315D93"/>
<stop offset="1" stop-color="#27B1FF"/>
</linearGradient>
<radialGradient id="paint4_radial_455_3442" cx="0" cy="0" r="1" gradientUnits="userSpaceOnUse" gradientTransform="translate(213.764 458.843) rotate(-93.7912) scale(150.48 150.458)">
<stop offset="0.03" stop-color="#109867"/>
<stop offset="0.59" stop-color="#34D399"/>
<stop offset="1" stop-color="#D1FAE5"/>
</radialGradient>
<radialGradient id="paint5_radial_455_3442" cx="0" cy="0" r="1" gradientUnits="userSpaceOnUse" gradientTransform="translate(660.265 117.611) rotate(45.3978) scale(152.49 152.489)">
<stop offset="0.03" stop-color="#1D66D3"/>
<stop offset="0.59" stop-color="#008CDC"/>
<stop offset="1" stop-color="#0C4497"/>
</radialGradient>
</defs>
</svg>
