<svg width="390" height="736" viewBox="0 0 390 736" fill="none" xmlns="http://www.w3.org/2000/svg">
<mask id="mask0_446_2868" style="mask-type:luminance" maskUnits="userSpaceOnUse" x="0" y="0" width="94" height="95">
<path d="M46.9947 0.866974C72.9492 0.866974 93.9895 21.9072 93.9895 47.8617C93.9895 73.8162 72.9492 94.8564 46.9947 94.8564C21.0403 94.8564 0 73.8162 0 47.8617C0 21.9072 21.0403 0.866974 46.9947 0.866974Z" fill="white"/>
</mask>
<g mask="url(#mask0_446_2868)">
<path d="M46.9947 0.866974C72.9492 0.866974 93.9895 21.9072 93.9895 47.8617C93.9895 73.8162 72.9492 94.8564 46.9947 94.8564C21.0403 94.8564 0 73.8162 0 47.8617C0 21.9072 21.0403 0.866974 46.9947 0.866974Z" fill="url(#paint0_linear_446_2868)" fill-opacity="0.1"/>
<path opacity="0.3" d="M75.6923 75.4295C79.0716 75.0443 82.4771 74.6722 85.8739 74.2563C87.6905 71.5818 89.2401 68.7103 90.4832 65.6812C79.9646 66.1627 69.4153 66.3772 59.3212 69.2268C52.4838 71.1572 46.058 74.2563 39.8334 77.6356C37.1326 79.102 33.8234 80.4502 31.4465 82.4113C30.2778 83.3787 27.5814 86.8586 30.9081 86.7579C34.5632 86.6441 37.728 84.3811 41.0022 83.0197C44.631 81.5095 48.3867 80.3233 52.1949 79.3515C59.899 77.3861 67.8 76.3312 75.6879 75.4251L75.6923 75.4295ZM51.8754 62.3282C39.921 67.9311 31.7792 79.2552 21.173 87.1256C19.4965 86.0225 17.8944 84.8144 16.3799 83.51C20.3326 81.2381 24.0883 78.6205 27.577 75.6877C38.7172 66.3072 47.1786 53.775 59.4788 45.9746C68.2728 40.3979 78.5025 37.5921 88.6272 35.1802C89.7522 34.9132 90.8903 34.6505 92.0328 34.4098C93.3022 38.6732 93.9894 43.1863 93.9894 47.8612C93.9894 50.5883 93.7531 53.2628 93.3066 55.8673C89.7916 56.2394 86.2679 56.5545 82.7398 56.8084C72.2474 57.5613 61.396 57.8677 51.8754 62.3282ZM64.6352 24.9373C59.8333 26.5963 54.9132 28.3209 51.0262 31.5952C45.966 35.8586 43.2346 42.2626 38.7698 47.1477C32.7116 53.7706 23.9832 57.1105 16.1172 61.4396C12.217 63.5845 8.33437 66.2371 5.23961 69.4501C1.89098 62.9848 -0.00439453 55.6441 -0.00439453 47.8612C-0.00439453 44.9634 0.258244 42.1226 0.761634 39.3692C8.04547 34.8387 14.6596 29.0169 21.405 23.6372C32.4489 14.8345 44.8936 6.8415 58.1349 2.19718C68.3253 4.67474 77.2156 10.4747 83.5933 18.3845C77.2725 20.5687 70.9517 22.753 64.6352 24.9329V24.9373ZM10.6412 24.1537C8.88591 24.8716 7.10435 25.537 5.30965 26.1454C8.32999 20.3586 12.5191 15.2809 17.5661 11.2232C18.5291 14.8695 18.1439 18.7521 15.5175 21.3216C14.1649 22.6436 12.3965 23.4402 10.6456 24.1537H10.6412ZM33.0399 92.7461C40.5469 87.6903 49.5467 84.8713 58.5989 84.7663C63.8911 84.705 69.192 85.5367 74.471 85.9831C66.7451 91.5642 57.2551 94.8516 46.9947 94.8516C42.1359 94.8516 37.4522 94.1162 33.0399 92.7461Z" fill="url(#paint1_linear_446_2868)" fill-opacity="0.1"/>
</g>
<mask id="mask1_446_2868" style="mask-type:luminance" maskUnits="userSpaceOnUse" x="204" y="39" width="194" height="194">
<path d="M397.117 130.635C397.153 131.409 397.19 132.164 397.209 132.901C397.448 139.716 396.988 147.729 395.037 156.607C394.19 160.936 392.625 166.646 389.809 173.277C389.146 174.897 388.336 176.684 387.471 178.434C387.268 178.858 387.047 179.281 386.845 179.705C386.771 179.871 386.679 180.018 386.587 180.184C386.348 180.663 386.109 181.123 385.851 181.584C384.562 183.997 383.237 186.262 381.856 188.381C381.415 189.08 380.954 189.762 380.513 190.444C380.457 190.536 380.402 190.609 380.329 190.701C379.997 191.18 379.666 191.659 379.334 192.12C376.61 195.988 373.775 199.322 370.977 202.232C370.443 202.785 369.91 203.337 369.376 203.871C369.136 204.111 368.916 204.332 368.676 204.571C368.455 204.792 368.234 205.013 368.014 205.234C367.903 205.326 367.811 205.419 367.719 205.511C367.609 205.621 367.498 205.732 367.388 205.824C367.185 206.008 366.983 206.211 366.78 206.395C363.007 209.913 359.859 212.344 357.208 214.26C357.134 214.315 357.061 214.37 356.987 214.426C357.024 214.407 357.061 214.37 357.079 214.352C356.803 214.555 356.527 214.739 356.269 214.923C355.183 215.715 353.876 216.562 352.532 217.391C351.814 217.87 351.097 218.331 350.452 218.699C348.722 219.749 346.366 221.075 344.543 221.978C344.543 221.978 344.506 221.978 344.488 221.996C343.604 222.438 342.739 222.862 341.874 223.267C341.874 223.267 341.856 223.267 341.837 223.267C341.819 223.267 341.782 223.285 341.764 223.304C341.248 223.543 340.751 223.783 340.273 223.985C339.61 224.28 338.966 224.556 338.321 224.814C336.37 225.662 334.327 226.454 332.173 227.19C332.155 227.19 332.136 227.19 332.118 227.209C330.424 227.798 328.694 228.351 326.872 228.848C317.76 231.464 308.39 232.624 298.818 232.366C293.884 232.311 288.159 231.74 282.03 230.487L281.349 230.359C281.349 230.359 281.349 230.359 281.33 230.359C281.312 230.359 281.293 230.359 281.275 230.359C279.637 230.009 277.998 229.64 276.213 229.161C275.035 228.867 273.672 228.461 272.531 228.093C272.513 228.093 272.494 228.093 272.457 228.074C272.347 228.038 272.218 228.001 272.108 227.964C270.23 227.356 269.383 227.098 267.984 226.564C267.819 226.509 267.671 226.454 267.524 226.398C265.996 225.846 264.929 225.422 263.585 224.833C262.72 224.464 261.873 224.096 261.008 223.709C260.952 223.691 260.916 223.672 260.86 223.635C259.756 223.138 258.67 222.604 257.565 222.051C257.529 222.033 257.492 222.014 257.436 221.996C256.479 221.517 255.54 221.02 254.602 220.504C253.939 220.136 253.295 219.767 252.669 219.399C252.429 219.252 252.172 219.123 251.932 218.975C245.49 215.181 240.814 211.423 237.979 208.9C237.685 208.642 237.464 208.439 237.335 208.329C236.028 207.187 234.831 206.082 233.911 205.161C233.616 204.866 233.285 204.553 232.972 204.221C232.954 204.203 232.917 204.166 232.899 204.148L232.825 204.074C231.279 202.527 229.401 200.574 227.118 197.848C216.387 185.176 209.336 170.256 206.409 154.065C206.317 153.605 206.244 153.144 206.152 152.665C206.152 152.61 206.133 152.555 206.115 152.481C205.673 149.976 205.323 147.416 205.158 145.242C205.158 145.113 205.139 144.966 205.121 144.818C204.974 143.087 204.863 141.171 204.808 139.219C204.789 138.906 204.771 138.593 204.753 138.298V137.303C204.753 136.622 204.753 135.959 204.753 135.296C204.753 133.693 204.789 132.146 204.882 130.746C204.955 129.493 205.047 128.278 205.176 127.099C205.176 126.97 205.194 126.823 205.213 126.694C205.25 126.288 205.286 125.865 205.342 125.478C205.415 124.815 205.489 124.17 205.563 123.562C205.563 123.526 205.563 123.47 205.563 123.433C205.563 123.378 205.563 123.323 205.581 123.268C207.606 107.095 213.681 92.0099 223.418 78.9505C223.658 78.6189 223.915 78.2874 224.155 77.9558C224.265 77.8084 224.376 77.6611 224.486 77.5137C224.854 77.0349 225.222 76.5744 225.572 76.1507C233.672 65.8542 243.373 57.9707 253.534 52.2422C270.948 42.1484 289.246 38.4276 305.96 39.8828C305.96 39.8828 305.997 39.8828 306.015 39.8828C306.163 39.8828 306.328 39.8828 306.475 39.9012C307.267 39.938 308.059 40.0117 308.905 40.0854C309.218 40.1038 309.531 40.1406 309.844 40.1775C310.286 40.2143 310.709 40.2512 311.114 40.3064C311.114 40.3064 311.133 40.3064 311.151 40.3064C311.667 40.3617 312.145 40.4169 312.587 40.4722C312.605 40.4722 312.624 40.4722 312.642 40.4722C314.557 40.7117 315.79 40.9143 315.882 40.9327C317.502 41.1721 318.533 41.3379 320.263 41.7247C320.355 41.7247 320.466 41.7616 320.558 41.78C320.686 41.7984 320.797 41.8352 320.926 41.8721C321.055 41.9089 321.165 41.9273 321.294 41.9642C321.975 42.1115 322.693 42.2773 323.448 42.4431L323.779 42.5168L325.031 42.8299C325.031 42.8299 325.104 42.8299 325.141 42.8483H325.178C326.448 43.1614 328.05 43.6404 329.375 44.0456C329.393 44.0456 329.412 44.0456 329.43 44.064C329.559 44.1008 329.688 44.1377 329.798 44.1745C330.038 44.2482 330.259 44.3219 330.48 44.3956C330.535 44.414 330.59 44.4324 330.664 44.4508C332.026 44.8929 332.836 45.1508 334.069 45.6297C334.18 45.6665 334.308 45.7217 334.419 45.7586C334.437 45.7586 334.456 45.7586 334.492 45.777C335.339 46.0901 336.204 46.4217 337.07 46.7717C337.419 46.919 337.751 47.0664 338.1 47.1953C338.505 47.3611 338.892 47.5269 339.297 47.6926C339.72 47.8584 340.162 48.061 340.622 48.2821C342.334 49.0557 343.973 49.8661 345.519 50.6766C345.556 50.695 345.593 50.7134 345.629 50.7318C354.318 55.2814 360.503 60.1626 363.927 63.2202C364.221 63.4781 364.442 63.6807 364.571 63.7913C365.473 64.6017 366.338 65.4122 367.222 66.241C367.48 66.4805 367.737 66.72 368.014 66.9594C369.044 67.9172 370.664 69.575 372.413 71.509C375.8 75.2297 378.801 79.0978 381.359 83.0764C381.764 83.6843 382.151 84.2921 382.501 84.8631C382.777 85.2868 383.071 85.7657 383.366 86.263C388.98 95.3806 392.128 103.909 393.877 110.816C394.024 111.387 394.171 111.94 394.282 112.455C394.3 112.529 394.319 112.64 394.337 112.713C395.92 119.013 396.73 124.907 397.043 130.267C397.043 130.359 397.043 130.451 397.043 130.543L397.117 130.635Z" fill="white"/>
</mask>
<g mask="url(#mask1_446_2868)">
<path d="M397.116 130.636C397.153 131.41 397.19 132.165 397.208 132.902C397.448 139.717 396.988 147.73 395.036 156.608C394.19 160.936 392.625 166.647 389.808 173.278C389.146 174.898 388.336 176.685 387.471 178.435C387.268 178.859 387.047 179.282 386.845 179.706C386.771 179.872 386.679 180.019 386.587 180.185C386.348 180.664 386.108 181.124 385.851 181.585C384.562 183.998 383.237 186.263 381.856 188.382C381.414 189.081 380.954 189.763 380.512 190.444C380.457 190.537 380.402 190.61 380.328 190.702C379.997 191.181 379.666 191.66 379.334 192.121C376.61 195.989 373.775 199.323 370.977 202.233C370.443 202.786 369.909 203.338 369.375 203.872C369.136 204.112 368.915 204.333 368.676 204.572C368.455 204.793 368.234 205.014 368.013 205.235C367.903 205.327 367.811 205.42 367.719 205.512C367.608 205.622 367.498 205.733 367.387 205.825C367.185 206.009 366.982 206.212 366.78 206.396C363.006 209.914 359.859 212.345 357.208 214.261C357.134 214.316 357.061 214.371 356.987 214.427C357.024 214.408 357.061 214.371 357.079 214.353C356.803 214.556 356.527 214.74 356.269 214.924C355.183 215.716 353.876 216.563 352.532 217.392C351.814 217.871 351.096 218.332 350.452 218.7C348.722 219.75 346.365 221.076 344.543 221.979C344.543 221.979 344.506 221.979 344.488 221.997C343.604 222.439 342.739 222.863 341.874 223.268C341.874 223.268 341.855 223.268 341.837 223.268C341.819 223.268 341.782 223.286 341.763 223.305C341.248 223.544 340.751 223.784 340.272 223.986C339.61 224.281 338.965 224.557 338.321 224.815C336.37 225.663 334.327 226.455 332.173 227.191C332.154 227.191 332.136 227.191 332.118 227.21C330.424 227.799 328.694 228.352 326.871 228.849C317.759 231.465 308.39 232.625 298.817 232.367C293.884 232.312 288.159 231.741 282.029 230.488L281.348 230.359C281.348 230.359 281.348 230.359 281.33 230.359C281.311 230.359 281.293 230.359 281.275 230.359C279.636 230.01 277.998 229.641 276.212 229.162C275.034 228.867 273.672 228.462 272.531 228.094C272.512 228.094 272.494 228.094 272.457 228.075C272.347 228.039 272.218 228.002 272.107 227.965C270.23 227.357 269.383 227.099 267.984 226.565C267.818 226.51 267.671 226.455 267.524 226.399C265.996 225.847 264.928 225.423 263.585 224.834C262.719 224.465 261.873 224.097 261.007 223.71C260.952 223.692 260.915 223.673 260.86 223.636C259.756 223.139 258.67 222.605 257.565 222.052C257.528 222.034 257.491 222.015 257.436 221.997C256.479 221.518 255.54 221.021 254.601 220.505C253.939 220.137 253.294 219.768 252.669 219.4C252.429 219.253 252.172 219.124 251.932 218.976C245.489 215.182 240.814 211.424 237.979 208.901C237.684 208.643 237.464 208.44 237.335 208.33C236.028 207.188 234.831 206.083 233.911 205.162C233.616 204.867 233.285 204.554 232.972 204.222C232.954 204.204 232.917 204.167 232.898 204.149L232.825 204.075C231.278 202.528 229.401 200.575 227.118 197.849C216.386 185.177 209.336 170.257 206.409 154.066C206.317 153.606 206.243 153.145 206.151 152.666C206.151 152.611 206.133 152.556 206.115 152.482C205.673 149.977 205.323 147.417 205.157 145.243C205.157 145.114 205.139 144.967 205.121 144.819C204.973 143.088 204.863 141.172 204.808 139.22C204.789 138.907 204.771 138.594 204.752 138.299V137.304C204.752 136.623 204.752 135.96 204.752 135.297C204.752 133.694 204.789 132.147 204.881 130.747C204.955 129.494 205.047 128.279 205.176 127.1C205.176 126.971 205.194 126.824 205.213 126.695C205.249 126.289 205.286 125.866 205.341 125.479C205.415 124.816 205.489 124.171 205.562 123.563C205.562 123.527 205.562 123.471 205.562 123.434C205.562 123.379 205.562 123.324 205.581 123.269C207.606 107.096 213.68 92.0108 223.418 78.9514C223.657 78.6199 223.915 78.2883 224.154 77.9568C224.265 77.8094 224.375 77.6621 224.486 77.5147C224.854 77.0358 225.222 76.5753 225.572 76.1517C233.671 65.8552 243.372 57.9717 253.534 52.2432C270.948 42.1494 289.245 38.4286 305.96 39.8837C305.96 39.8837 305.997 39.8837 306.015 39.8837C306.162 39.8837 306.328 39.8838 306.475 39.9022C307.267 39.939 308.058 40.0127 308.905 40.0863C309.218 40.1048 309.531 40.1416 309.844 40.1785C310.286 40.2153 310.709 40.2522 311.114 40.3074C311.114 40.3074 311.132 40.3074 311.151 40.3074C311.666 40.3627 312.145 40.4179 312.587 40.4732C312.605 40.4732 312.624 40.4732 312.642 40.4732C314.556 40.7126 315.79 40.9152 315.882 40.9337C317.502 41.1731 318.532 41.3389 320.263 41.7257C320.355 41.7257 320.465 41.7625 320.557 41.7809C320.686 41.7994 320.797 41.8362 320.926 41.873C321.054 41.9099 321.165 41.9283 321.294 41.9651C321.975 42.1125 322.693 42.2783 323.447 42.444L323.779 42.5177L325.031 42.8309C325.031 42.8309 325.104 42.8309 325.141 42.8493H325.178C326.448 43.1624 328.049 43.6413 329.375 44.0466C329.393 44.0466 329.412 44.0466 329.43 44.065C329.559 44.1018 329.688 44.1386 329.798 44.1755C330.038 44.2492 330.258 44.3229 330.479 44.3965C330.535 44.4149 330.59 44.4334 330.663 44.4518C332.026 44.8939 332.836 45.1517 334.069 45.6306C334.179 45.6675 334.308 45.7227 334.419 45.7596C334.437 45.7596 334.455 45.7596 334.492 45.778C335.339 46.0911 336.204 46.4227 337.069 46.7726C337.419 46.92 337.75 47.0673 338.1 47.1963C338.505 47.362 338.892 47.5278 339.297 47.6936C339.72 47.8594 340.162 48.062 340.622 48.283C342.334 49.0567 343.972 49.8671 345.519 50.6776C345.555 50.696 345.592 50.7144 345.629 50.7328C354.318 55.2824 360.503 60.1636 363.927 63.2212C364.221 63.4791 364.442 63.6817 364.571 63.7922C365.473 64.6027 366.338 65.4131 367.222 66.242C367.479 66.4815 367.737 66.7209 368.013 66.9604C369.044 67.9182 370.664 69.5759 372.413 71.51C375.8 75.2307 378.8 79.0988 381.359 83.0774C381.764 83.6853 382.151 84.2931 382.5 84.8641C382.777 85.2877 383.071 85.7666 383.366 86.264C388.98 95.3816 392.128 103.91 393.877 110.817C394.024 111.388 394.171 111.941 394.282 112.456C394.3 112.53 394.318 112.641 394.337 112.714C395.92 119.014 396.73 124.908 397.043 130.268C397.043 130.36 397.043 130.452 397.043 130.544L397.116 130.636Z" fill="url(#paint2_radial_446_2868)"/>
<g style="mix-blend-mode:screen" opacity="0.2">
<path d="M461.287 79.5593C466.183 88.5296 470.012 97.2788 472.939 105.531C473.013 105.715 473.068 105.899 473.142 106.083C473.675 107.631 474.191 109.141 474.688 110.651C476.271 115.44 477.652 120.727 478.922 126.216C331.713 152.519 189.437 214.206 70.6131 302.195C64.6489 294.183 59.2922 285.765 54.6902 276.869C54.2115 275.985 53.7514 275.082 53.2912 274.179C53.2359 274.069 53.1807 273.958 53.1255 273.829C50.6772 269.022 48.3946 264.012 46.7747 259.683C46.6643 259.407 46.5722 259.112 46.4618 258.836C46.4066 258.707 46.3513 258.541 46.3145 258.394C167.992 170.275 312.016 107.87 461.287 79.5593ZM51.3399 109.27C51.1743 109.638 51.0086 110.007 50.8429 110.375C50.4747 111.222 50.1066 112.033 49.7384 112.88C38.1413 139.183 32.711 166.628 33.4289 194.092C144.282 110.946 276.212 51.1196 413.61 22.3116C412.506 21.3906 411.309 20.4328 410.057 19.4566C401.939 13.0282 392.901 7.06027 383.09 1.66336C377.991 -1.17325 373.37 -3.49411 370.48 -4.78345C369.744 -5.11502 369.026 -5.42813 368.289 -5.7597C365.823 -6.88327 363.393 -7.9516 360.889 -9.03836C360.558 -9.1857 359.951 -9.44357 359.122 -9.77512C350.047 -13.588 334.235 -19.1691 313.415 -22.853C224.541 4.03946 139.073 42.6651 60.82 91.2925C58.0957 96.0263 55.3897 100.76 53.015 105.77C52.4628 106.875 51.9106 108.017 51.3583 109.251L51.3399 109.27ZM196.358 379.926C196.671 379.981 196.984 380.055 197.297 380.11C198.954 380.441 200.592 380.791 202.323 381.104C204.752 381.565 207.182 381.952 209.612 382.32C209.723 382.32 209.815 382.357 209.925 382.375C212.723 382.799 215.503 383.167 218.301 383.481C218.43 383.481 218.559 383.517 218.687 383.517C220.859 383.757 223.032 383.978 225.185 384.144C225.866 384.217 226.456 384.254 227.081 384.291C294.565 343.989 367.351 311.331 442.879 287.699C444.646 285.305 446.45 282.781 448.346 279.982C448.696 279.466 449.082 278.932 449.414 278.434C449.598 278.158 449.782 277.863 449.966 277.569C450.15 277.311 450.297 277.071 450.481 276.795C450.868 276.206 451.236 275.616 451.604 275.008C451.991 274.4 452.377 273.774 452.782 273.13C453.684 271.674 454.605 270.201 455.47 268.727C456.685 266.701 457.845 264.454 459.041 262.299C366.393 289.062 277.335 329.014 196.358 379.926ZM89.6838 324.004C100.692 334.779 113.099 344.45 126.942 352.702C133.679 356.809 139.073 359.572 143.472 361.727L143.693 361.838C143.693 361.838 143.84 361.911 143.914 361.948C144.853 362.409 145.755 362.832 146.602 363.238C148.074 363.938 149.805 364.73 151.664 365.54C248.785 299.469 359.73 250.547 475.203 223.471C475.848 221.334 476.602 219.326 477.173 217.116C477.468 216.029 477.744 214.924 478.02 213.8C478.112 213.414 478.222 213.045 478.314 212.658C478.554 211.664 478.793 210.669 479.014 209.656C479.953 205.548 480.763 201.404 481.315 197.647C483.855 182.34 484.058 169.686 483.487 160.329C483.377 157.234 483.064 154.342 482.824 151.395C341.671 181.253 205.894 241.135 89.7023 324.004H89.6838ZM34.1836 207.022C34.4229 209.564 34.6254 212.106 34.9752 214.648C34.9752 214.758 35.012 214.887 35.0304 214.979C35.0304 215.071 35.0488 215.163 35.0672 215.256C35.2329 216.545 35.4354 217.89 35.6563 219.308C35.7851 220.155 35.9324 221.021 36.0797 221.887C36.1349 222.181 36.1717 222.458 36.2269 222.752C36.5951 224.907 37.0369 227.099 37.4971 229.346C154.996 141.246 295.412 78.5278 441.333 49.775C436.804 44.2676 431.558 38.6312 425.52 32.9212C284.588 62.595 149.123 123.085 34.1836 207.004V207.022Z" fill="#1A2F4B"/>
</g>
</g>
<g filter="url(#filter0_d_446_2868)">
<path d="M231.316 202.397C230.855 201.918 230.395 201.439 229.953 200.942C200.758 205.62 179.791 202.894 174.876 191.751C165.783 171.102 214.951 129.309 284.496 98.6034C354.06 67.8981 418.047 59.7199 427.159 80.3681C430.859 88.7858 424.913 100.685 411.843 113.928C407.572 118.257 402.51 122.733 396.822 127.264C396.877 127.909 396.951 128.572 396.988 129.253C421.305 109.931 434.08 91.5303 428.834 79.6313C419.317 58.0437 354.226 65.8167 283.742 96.9272C242.636 115.07 208.655 137.211 189.327 156.79C175.521 170.789 169.207 183.499 173.165 192.487C178.411 204.405 200.629 207.352 231.297 202.397H231.316Z" fill="#27BEFF"/>
</g>
<path d="M280.981 89.5975C280.981 89.5975 294.823 88.5292 301.763 81.7508C309.421 74.2725 309.605 48.9089 309.605 48.9089C309.605 48.9089 309.789 74.2725 317.447 81.7508C324.387 88.5292 338.229 89.5975 338.229 89.5975C338.229 89.5975 324.387 90.6659 317.447 97.4442C309.789 104.923 309.605 130.286 309.605 130.286C309.605 130.286 309.421 104.923 301.763 97.4442C294.823 90.6659 280.981 89.5975 280.981 89.5975Z" fill="#27BEFF"/>
<path d="M262.094 195.472C262.094 195.472 271.224 194.772 275.808 190.297C280.851 185.36 280.98 168.635 280.98 168.635C280.98 168.635 281.109 185.36 286.153 190.297C290.737 194.772 299.867 195.472 299.867 195.472C299.867 195.472 290.737 196.172 286.153 200.648C281.109 205.585 280.98 222.31 280.98 222.31C280.98 222.31 280.851 205.585 275.808 200.648C271.224 196.172 262.094 195.472 262.094 195.472Z" fill="#27BEFF"/>
<path d="M186.29 130.267C186.29 130.267 189.125 130.046 190.561 128.665C192.125 127.136 192.162 121.923 192.162 121.923C192.162 121.923 192.199 127.118 193.764 128.665C195.181 130.046 198.034 130.267 198.034 130.267C198.034 130.267 195.199 130.488 193.764 131.87C192.199 133.399 192.162 138.611 192.162 138.611C192.162 138.611 192.125 133.417 190.561 131.87C189.143 130.488 186.29 130.267 186.29 130.267Z" fill="#27BEFF"/>
<path d="M344.267 118.019C344.267 118.019 348.446 117.687 350.526 115.661C352.827 113.414 352.882 105.77 352.882 105.77C352.882 105.77 352.938 113.414 355.239 115.661C357.319 117.705 361.497 118.019 361.497 118.019C361.497 118.019 357.319 118.35 355.239 120.376C352.938 122.624 352.882 130.268 352.882 130.268C352.882 130.268 352.827 122.624 350.526 120.376C348.446 118.332 344.267 118.019 344.267 118.019Z" fill="#27BEFF"/>
<mask id="mask2_446_2868" style="mask-type:luminance" maskUnits="userSpaceOnUse" x="-39" y="554" width="184" height="183">
<path d="M114.628 583.956C114.078 583.419 113.542 582.895 113.009 582.395C108.115 577.726 101.916 572.739 94.1824 568.191C90.4747 565.903 85.315 563.188 78.7235 560.712C77.1277 560.09 75.321 559.457 73.5084 558.887C73.0737 558.744 72.628 558.613 72.1934 558.47C72.0267 558.411 71.8625 558.376 71.6848 558.329C71.1872 558.174 70.7032 558.032 70.2081 557.902C67.6513 557.18 65.1814 556.58 62.7871 556.116C62.0047 555.952 61.2247 555.814 60.4559 555.662C60.3547 555.639 60.2671 555.628 60.1548 555.617C59.602 555.525 59.0491 555.433 58.5099 555.353C54.0159 554.642 49.8505 554.359 46.0203 554.331C45.2915 554.328 44.5627 554.324 43.8475 554.333C43.5269 554.337 43.231 554.341 42.9104 554.345C42.6145 554.348 42.3185 554.352 42.0226 554.355C41.8882 554.369 41.7649 554.371 41.6416 554.372C41.4937 554.374 41.3457 554.376 41.2114 554.39C40.9537 554.405 40.6824 554.409 40.4248 554.424C35.5598 554.656 31.8737 555.182 28.8671 555.713C28.7821 555.726 28.6971 555.739 28.612 555.753C28.6477 555.74 28.6971 555.739 28.7217 555.739C28.4063 555.792 28.1044 555.858 27.8136 555.911C26.5765 556.123 25.1659 556.449 23.7468 556.812C22.9621 556.982 22.1909 557.164 21.532 557.357C19.7176 557.836 17.3234 558.557 15.5627 559.195C15.5627 559.195 15.5406 559.22 15.5159 559.22C14.659 559.527 13.8266 559.834 13.0079 560.152C13.0079 560.152 12.9969 560.165 12.9859 560.177C12.9748 560.19 12.9391 560.202 12.9144 560.203C12.4282 560.394 11.9529 560.572 11.5159 560.763C10.9004 561.017 10.3096 561.271 9.73237 561.538C7.9352 562.3 6.12365 563.162 4.28665 564.135C4.27561 564.147 4.26455 564.16 4.23989 564.16C2.78797 564.918 1.34119 565.726 -0.119978 566.633C-7.52112 571.081 -14.0013 576.666 -19.5546 583.326C-22.4741 586.707 -25.4873 590.966 -28.2398 595.95L-28.5532 596.497C-28.5532 596.497 -28.5532 596.497 -28.5643 596.509C-28.5753 596.522 -28.5864 596.534 -28.5974 596.547C-29.3218 597.889 -30.0326 599.243 -30.7501 600.771C-31.2392 601.764 -31.757 602.956 -32.1696 603.973C-32.1806 603.986 -32.1917 603.998 -32.2002 604.035C-32.2392 604.134 -32.2893 604.246 -32.3283 604.345C-33.0057 606.02 -33.3232 606.765 -33.7679 608.067C-33.8265 608.215 -33.874 608.352 -33.9215 608.488C-34.4299 609.889 -34.7574 610.893 -35.128 612.194C-35.3749 613.024 -35.6107 613.842 -35.844 614.684C-35.8635 614.734 -35.872 614.771 -35.8779 614.833C-36.173 615.911 -36.4299 617 -36.6842 618.114C-36.6927 618.152 -36.7012 618.189 -36.7207 618.238C-36.9411 619.204 -37.1368 620.169 -37.3189 621.147C-37.4443 621.84 -37.5586 622.52 -37.6618 623.188C-37.6965 623.448 -37.7559 623.708 -37.7905 623.968C-38.8519 630.845 -38.8801 636.499 -38.7159 640.09C-38.702 640.46 -38.6848 640.744 -38.6804 640.904C-38.6205 642.546 -38.5216 644.088 -38.3932 645.321C-38.352 645.715 -38.3194 646.147 -38.2621 646.579C-38.2596 646.603 -38.2544 646.652 -38.2519 646.677L-38.2416 646.776C-38.0258 648.847 -37.7092 651.411 -37.0639 654.762C-34.1364 670.418 -27.3387 685.064 -17.1272 697.755C-16.8421 698.122 -16.5459 698.476 -16.2471 698.855C-16.2063 698.892 -16.1765 698.941 -16.1331 699.002C-14.5465 700.958 -12.8638 702.888 -11.3567 704.438C-11.2614 704.523 -11.1635 704.633 -11.0656 704.743C-9.87413 705.988 -8.52443 707.329 -7.11435 708.658C-6.89394 708.878 -6.67353 709.097 -6.46673 709.304L-5.73149 709.962C-5.22773 710.413 -4.73759 710.851 -4.24744 711.29C-3.06291 712.35 -1.89715 713.348 -0.80716 714.211C0.16286 714.989 1.11669 715.731 2.06539 716.423C2.1607 716.508 2.28067 716.593 2.38703 716.666C2.70865 716.909 3.04389 717.164 3.36295 717.383C3.89728 717.771 4.418 718.148 4.91149 718.5C4.93872 718.524 4.97957 718.561 5.00681 718.585C5.04765 718.622 5.08849 718.658 5.14038 718.682C18.3096 728.004 33.1057 733.861 48.6022 735.895C48.9909 735.952 49.3906 735.997 49.7793 736.054C49.9545 736.077 50.1297 736.099 50.3049 736.122C50.8798 736.189 51.4411 736.244 51.9641 736.287C64.4353 737.604 76.0839 736.241 86.4156 733.14C104.326 728.009 118.056 718.064 127.01 705.77C127.01 705.77 127.033 705.745 127.044 705.733C127.132 705.633 127.231 705.52 127.306 705.408C127.754 704.847 128.174 704.262 128.628 703.639C128.802 703.415 128.963 703.178 129.123 702.942C129.361 702.618 129.588 702.307 129.79 701.995C129.79 701.995 129.801 701.983 129.812 701.97C130.081 701.585 130.327 701.223 130.551 700.887C130.562 700.875 130.573 700.862 130.584 700.85C131.556 699.394 132.147 698.424 132.188 698.349C132.983 697.092 133.479 696.284 134.232 694.855C134.287 694.793 134.326 694.693 134.368 694.619C134.431 694.519 134.47 694.42 134.52 694.308C134.571 694.197 134.623 694.109 134.673 693.998C134.973 693.439 135.281 692.842 135.612 692.221L135.756 691.948L136.276 690.892C136.276 690.892 136.32 690.842 136.328 690.805L136.35 690.78C136.881 689.712 137.488 688.309 137.984 687.143C137.995 687.13 138.006 687.118 138.003 687.093C138.054 686.981 138.104 686.87 138.143 686.77C138.232 686.559 138.31 686.361 138.388 686.162C138.408 686.113 138.427 686.063 138.458 686.001C138.948 684.785 139.244 684.066 139.63 682.913C139.669 682.813 139.705 682.69 139.744 682.59C139.755 682.578 139.766 682.565 139.775 682.528C140.052 681.747 140.326 680.941 140.586 680.123C140.687 679.789 140.777 679.467 140.892 679.144C141.012 678.76 141.121 678.388 141.242 678.004C141.373 677.608 141.489 677.174 141.602 676.716C142.057 675.044 142.441 673.397 142.77 671.813C142.778 671.776 142.787 671.738 142.795 671.701C144.646 662.802 144.749 655.381 144.544 651.038C144.53 650.668 144.513 650.384 144.508 650.223C144.451 649.076 144.371 647.953 144.288 646.806C144.266 646.473 144.243 646.14 144.232 645.795C144.143 644.462 143.889 642.268 143.509 639.803C142.791 635.046 141.733 630.454 140.327 626.089C140.121 625.412 139.904 624.748 139.691 624.133C139.544 623.666 139.367 623.15 139.176 622.621C135.805 612.785 131.39 605.012 127.334 599.258C127 598.781 126.68 598.316 126.365 597.9C126.322 597.838 126.251 597.753 126.208 597.692C122.501 592.453 118.63 588.006 114.856 584.249C114.788 584.188 114.72 584.127 114.652 584.066L114.628 583.956Z" fill="white"/>
</mask>
<g mask="url(#mask2_446_2868)">
<path d="M114.628 583.958C114.078 583.421 113.542 582.897 113.009 582.397C108.115 577.728 101.916 572.741 94.1824 568.193C90.4747 565.905 85.315 563.19 78.7235 560.714C77.1277 560.092 75.321 559.459 73.5084 558.889C73.0737 558.746 72.628 558.615 72.1934 558.472C72.0267 558.413 71.8625 558.378 71.6847 558.33C71.1872 558.176 70.7032 558.034 70.2081 557.904C67.6513 557.182 65.1814 556.582 62.7871 556.118C62.0047 555.954 61.2247 555.815 60.4559 555.664C60.3547 555.641 60.2671 555.63 60.1548 555.619C59.602 555.527 59.0491 555.434 58.5099 555.355C54.0159 554.644 49.8505 554.361 46.0203 554.333C45.2915 554.33 44.5627 554.326 43.8475 554.335C43.5269 554.339 43.231 554.343 42.9104 554.346C42.6145 554.35 42.3185 554.354 42.0226 554.357C41.8883 554.371 41.7649 554.373 41.6416 554.374C41.4937 554.376 41.3457 554.378 41.2114 554.392C40.9537 554.407 40.6824 554.411 40.4248 554.426C35.5598 554.658 31.8737 555.184 28.8671 555.715C28.7821 555.728 28.6971 555.741 28.612 555.755C28.6478 555.742 28.6971 555.741 28.7217 555.741C28.4063 555.794 28.1044 555.86 27.8136 555.913C26.5765 556.125 25.1659 556.451 23.7469 556.814C22.9621 556.984 22.1909 557.166 21.532 557.359C19.7176 557.838 17.3234 558.558 15.5627 559.197C15.5627 559.197 15.5406 559.222 15.5159 559.222C14.659 559.529 13.8267 559.836 13.008 560.154C13.008 560.154 12.9969 560.167 12.9859 560.179C12.9748 560.192 12.9391 560.204 12.9145 560.205C12.4282 560.396 11.9529 560.574 11.516 560.765C10.9005 561.019 10.3096 561.273 9.73238 561.54C7.93521 562.302 6.12366 563.164 4.28666 564.137C4.27562 564.149 4.26456 564.162 4.2399 564.162C2.78798 564.92 1.3412 565.728 -0.119965 566.635C-7.5211 571.083 -14.0013 576.668 -19.5546 583.328C-22.4741 586.709 -25.4873 590.968 -28.2398 595.952L-28.5532 596.499C-28.5532 596.499 -28.5532 596.499 -28.5642 596.511C-28.5753 596.524 -28.5863 596.536 -28.5974 596.549C-29.3218 597.891 -30.0326 599.245 -30.75 600.773C-31.2391 601.766 -31.757 602.958 -32.1696 603.975C-32.1806 603.987 -32.1917 604 -32.2001 604.037C-32.2392 604.136 -32.2893 604.248 -32.3283 604.347C-33.0057 606.022 -33.3232 606.767 -33.7679 608.069C-33.8264 608.217 -33.874 608.354 -33.9215 608.49C-34.4298 609.891 -34.7574 610.895 -35.128 612.196C-35.3749 613.026 -35.6107 613.844 -35.8439 614.686C-35.8635 614.736 -35.8719 614.773 -35.8778 614.835C-36.173 615.913 -36.4299 617.002 -36.6842 618.116C-36.6927 618.154 -36.7011 618.191 -36.7206 618.24C-36.941 619.206 -37.1368 620.171 -37.3189 621.149C-37.4443 621.842 -37.5586 622.522 -37.6618 623.19C-37.6965 623.45 -37.7558 623.71 -37.7905 623.969C-38.8519 630.847 -38.88 636.501 -38.7158 640.092C-38.702 640.462 -38.6848 640.746 -38.6804 640.906C-38.6205 642.548 -38.5216 644.09 -38.3931 645.323C-38.352 645.717 -38.3194 646.149 -38.2621 646.58C-38.2595 646.605 -38.2544 646.654 -38.2518 646.679L-38.2415 646.778C-38.0257 648.849 -37.7092 651.413 -37.0639 654.764C-34.1364 670.42 -27.3387 685.066 -17.1272 697.757C-16.8421 698.124 -16.5459 698.478 -16.2471 698.857C-16.2062 698.894 -16.1764 698.943 -16.133 699.004C-14.5465 700.96 -12.8638 702.89 -11.3566 704.44C-11.2613 704.525 -11.1634 704.635 -11.0656 704.745C-9.8741 705.99 -8.5244 707.331 -7.11432 708.66C-6.89391 708.879 -6.6735 709.099 -6.4667 709.306L-5.73146 709.964C-5.2277 710.415 -4.73756 710.853 -4.24741 711.292C-3.06288 712.352 -1.89712 713.35 -0.807131 714.213C0.162889 714.991 1.11672 715.733 2.06542 716.425C2.16073 716.51 2.2807 716.595 2.38705 716.668C2.70868 716.911 3.04392 717.166 3.36298 717.385C3.89731 717.773 4.41803 718.15 4.91152 718.502C4.93875 718.526 4.9796 718.563 5.00683 718.587C5.04768 718.624 5.08851 718.66 5.14041 718.684C18.3096 728.006 33.1057 733.863 48.6022 735.897C48.9909 735.954 49.3906 735.999 49.7793 736.056C49.9545 736.078 50.1297 736.101 50.3049 736.124C50.8798 736.191 51.4411 736.246 51.9641 736.289C64.4353 737.606 76.0839 736.243 86.4156 733.142C104.326 728.011 118.056 718.066 127.01 705.772C127.01 705.772 127.033 705.747 127.044 705.735C127.132 705.635 127.231 705.522 127.306 705.41C127.754 704.849 128.174 704.264 128.628 703.641C128.802 703.417 128.963 703.18 129.123 702.944C129.361 702.62 129.588 702.309 129.79 701.997C129.79 701.997 129.801 701.985 129.812 701.972C130.081 701.586 130.327 701.225 130.551 700.889C130.562 700.877 130.573 700.864 130.584 700.852C131.556 699.396 132.147 698.426 132.188 698.351C132.983 697.094 133.479 696.286 134.232 694.857C134.287 694.795 134.326 694.695 134.368 694.621C134.431 694.521 134.47 694.422 134.52 694.31C134.571 694.199 134.623 694.111 134.673 694C134.973 693.441 135.281 692.844 135.612 692.223L135.756 691.95L136.276 690.894C136.276 690.894 136.32 690.844 136.328 690.807L136.35 690.782C136.881 689.714 137.488 688.311 137.984 687.145C137.995 687.132 138.006 687.12 138.003 687.095C138.054 686.983 138.104 686.872 138.143 686.772C138.232 686.561 138.31 686.363 138.388 686.164C138.408 686.115 138.427 686.065 138.458 686.003C138.948 684.787 139.244 684.068 139.63 682.915C139.669 682.815 139.705 682.692 139.744 682.592C139.755 682.58 139.766 682.567 139.775 682.53C140.052 681.749 140.326 680.943 140.586 680.125C140.687 679.791 140.777 679.469 140.892 679.146C141.012 678.762 141.121 678.39 141.242 678.006C141.373 677.609 141.489 677.176 141.602 676.718C142.057 675.046 142.441 673.399 142.77 671.815C142.778 671.778 142.787 671.74 142.795 671.703C144.646 662.804 144.749 655.383 144.544 651.04C144.53 650.67 144.513 650.386 144.508 650.225C144.451 649.078 144.371 647.955 144.288 646.808C144.266 646.475 144.243 646.142 144.232 645.797C144.143 644.464 143.889 642.27 143.509 639.805C142.791 635.048 141.733 630.456 140.327 626.091C140.121 625.414 139.904 624.75 139.691 624.135C139.544 623.668 139.367 623.152 139.176 622.623C135.805 612.787 131.39 605.014 127.334 599.26C127 598.783 126.68 598.318 126.365 597.902C126.322 597.84 126.251 597.755 126.208 597.694C122.501 592.455 118.63 588.008 114.856 584.251C114.788 584.19 114.72 584.129 114.652 584.068L114.628 583.958Z" fill="url(#paint3_radial_446_2868)"/>
<g style="mix-blend-mode:screen" opacity="0.2">
<path d="M191.469 576.506C187.767 567.234 183.587 558.835 179.233 551.378C179.141 551.206 179.037 551.046 178.945 550.874C178.12 549.486 177.31 548.135 176.49 546.796C173.894 542.547 170.807 538.106 167.503 533.605C59.447 616.187 -71.8627 671.967 -208.555 694.384C-206.206 703.746 -203.191 712.964 -199.366 721.986C-198.999 722.897 -198.607 723.808 -198.215 724.719C-198.166 724.83 -198.118 724.94 -198.055 725.063C-195.966 729.913 -193.626 734.784 -191.393 738.753C-191.255 739.011 -191.092 739.269 -190.953 739.527C-190.891 739.65 -190.801 739.797 -190.714 739.92C-52.2095 715.65 80.6847 659.157 191.469 576.506ZM-77.1807 835.331C-77.5534 835.199 -77.9261 835.068 -78.2988 834.936C-79.1482 834.625 -79.9703 834.338 -80.8196 834.026C-107.289 824.474 -130.894 809.976 -150.815 791.288C-22.507 771.076 101.2 721.091 205.21 646.835C205.228 648.196 205.218 649.643 205.188 651.141C205.068 660.916 204.053 671.012 202.15 681.254C201.184 686.598 200.124 691.275 199.341 694.093C199.144 694.813 198.944 695.509 198.747 696.229C198.095 698.649 197.425 701.008 196.724 703.429C196.634 703.752 196.46 704.335 196.207 705.118C193.573 713.81 188.196 728.252 178.4 744.838C105.003 787.396 24.9593 819.865 -58.1549 840.804C-63.302 839.518 -68.438 838.219 -73.5795 836.512C-74.7307 836.155 -75.9092 835.773 -77.156 835.331L-77.1807 835.331ZM-190.507 557.442C-190.36 557.192 -190.226 556.931 -190.079 556.682C-189.328 555.336 -188.602 553.991 -187.793 552.608C-186.672 550.652 -185.497 548.745 -184.308 546.85C-184.242 546.775 -184.214 546.688 -184.161 546.601C-182.791 544.419 -181.392 542.287 -179.941 540.178C-179.863 540.091 -179.813 539.979 -179.736 539.891C-178.606 538.257 -177.463 536.634 -176.29 535.061C-175.935 534.55 -175.608 534.125 -175.259 533.676C-104.793 514.536 -36.8026 486.728 26.1496 451.076C28.9873 451.463 31.9426 451.909 35.1581 452.477C35.7507 452.581 36.3791 452.672 36.947 452.777C37.2625 452.835 37.5917 452.905 37.9208 452.975C38.2227 453.021 38.4887 453.08 38.8042 453.138C39.4736 453.266 40.1319 453.406 40.8038 453.559C41.4868 453.699 42.1835 453.851 42.9049 454.003C44.5259 454.355 46.1716 454.706 47.7841 455.095C50.0166 455.612 52.3795 456.314 54.6964 456.929C-20.8756 502.137 -104.062 536.166 -190.507 557.442ZM-213.244 666.975C-214.606 652.355 -214.308 637.517 -212.095 622.644C-211.086 615.345 -209.889 609.849 -208.839 605.432L-208.788 605.209C-208.788 605.209 -208.754 605.06 -208.737 604.986C-208.513 604.043 -208.284 603.149 -208.075 602.305C-207.708 600.841 -207.254 599.14 -206.736 597.34C-99.3438 575.142 3.65743 532.188 93.1941 471.68C95.1651 472.658 97.107 473.476 99.0884 474.553C100.071 475.073 101.056 475.618 102.055 476.175C102.397 476.369 102.736 476.538 103.078 476.732C103.959 477.228 104.84 477.725 105.724 478.246C109.333 480.331 112.891 482.527 116.008 484.642C128.88 493.06 138.379 501.308 144.97 507.897C147.197 510.022 149.151 512.152 151.191 514.267C44.1444 590.378 -81.9182 642.941 -213.233 666.962L-213.244 666.975ZM-159.943 782.206C-161.682 780.359 -163.444 778.537 -165.118 776.614C-165.2 776.541 -165.273 776.431 -165.33 776.357C-165.398 776.296 -165.456 776.223 -165.513 776.149C-166.369 775.182 -167.243 774.153 -168.161 773.063C-168.712 772.414 -169.265 771.741 -169.818 771.067C-170.003 770.834 -170.185 770.626 -170.371 770.393C-171.746 768.715 -173.105 766.962 -174.493 765.16C-38.5158 743.717 92.4397 689.883 201.536 609.801C202.893 616.527 203.914 623.826 204.513 631.713C97.7351 707.796 -28.5897 759.742 -159.929 782.218L-159.943 782.206Z" fill="#C4DBFB"/>
</g>
</g>
<g filter="url(#filter1_d_446_2868)">
<path d="M-39.3374 648.942C-39.2584 649.579 -39.1794 650.216 -39.0753 650.852C-60.3849 667.761 -71.1196 683.98 -65.7498 694.818C-55.7919 714.89 5.55657 709.128 71.0027 681.951C136.46 654.761 181.606 616.312 171.659 596.228C167.595 588.05 155.038 584.162 137.128 584.264C131.275 584.297 124.829 584.774 117.96 585.644C117.509 585.175 117.056 584.68 116.567 584.198C145.896 580.446 167.498 584 173.233 595.571C183.638 616.563 138.124 656.041 71.801 683.592C33.1228 699.658 -4.21343 708.158 -30.6952 708.313C-49.6207 708.415 -63.011 704.237 -67.3465 695.5C-73.0952 683.916 -61.7633 666.69 -39.3486 648.955L-39.3374 648.942Z" fill="#FEFEFC"/>
</g>
<path d="M74.1585 688.166C74.1585 688.166 83.1769 679.549 92.2736 679.327C102.31 679.082 121.01 695.609 121.01 695.609C121.01 695.609 102.529 678.834 101.604 668.77C100.765 659.649 108.217 649.629 108.217 649.629C108.217 649.629 99.1986 658.246 90.1019 658.468C80.0651 658.713 61.3658 642.186 61.3658 642.186C61.3658 642.186 79.8461 658.961 80.7714 669.025C81.6109 678.146 74.1585 688.166 74.1585 688.166Z" fill="#FEFEFC"/>
<path d="M-12.9062 634.739C-12.9062 634.739 -6.96133 629.053 -0.953866 628.906C5.6649 628.751 17.9998 639.644 17.9998 639.644C17.9998 639.644 5.81822 628.578 5.2008 621.942C4.64712 615.918 9.56597 609.313 9.56597 609.313C9.56597 609.313 3.62109 614.999 -2.38638 615.146C-9.00514 615.301 -21.3401 604.408 -21.3401 604.408C-21.3401 604.408 -9.15847 615.474 -8.54105 622.11C-7.98736 628.134 -12.9062 634.739 -12.9062 634.739Z" fill="#FEFEFC"/>
<path d="M93.4206 626.146C93.4206 626.146 96.1496 623.551 98.8721 623.481C101.888 623.407 107.523 628.388 107.523 628.388C107.523 628.388 101.954 623.333 101.676 620.309C101.415 617.566 103.671 614.548 103.671 614.548C103.671 614.548 100.942 617.143 98.2195 617.213C95.2036 617.287 89.5682 612.306 89.5682 612.306C89.5682 612.306 95.1379 617.361 95.416 620.385C95.677 623.128 93.4206 626.146 93.4206 626.146Z" fill="#FEFEFC"/>
<mask id="mask3_446_2868" style="mask-type:luminance" maskUnits="userSpaceOnUse" x="-649" y="77" width="1225" height="348">
<path d="M547.81 90.6744C498.663 66.5892 436.412 77.4577 396.898 117.046C385.464 128.487 375.658 142.193 362.131 150.621C325.371 173.542 278.019 149.432 236.583 159.595C166.398 176.798 136.268 283.824 64.6607 291.689C35.4437 294.899 6.14981 280.447 -21.324 271.73C-61.8062 258.879 -106.257 246.192 -145.111 263.97C-180.631 280.224 -206.59 320.249 -245.011 324.219C-275.854 327.408 -303.506 306.108 -331.47 291.813C-397.514 258.068 -477.103 263.63 -540.749 301.321C-587.471 328.993 -624.425 373.793 -648.75 424.789L575.384 423.283L547.81 90.6517L547.81 90.6744Z" fill="white"/>
</mask>
<g mask="url(#mask3_446_2868)">
<path d="M547.81 90.6744C498.663 66.5892 436.412 77.4577 396.898 117.046C385.464 128.487 375.658 142.193 362.131 150.621C325.371 173.542 278.019 149.432 236.583 159.595C166.398 176.798 136.268 283.824 64.6607 291.689C35.4437 294.899 6.14982 280.447 -21.324 271.73C-61.8062 258.879 -106.257 246.193 -145.111 263.97C-180.631 280.224 -206.59 320.249 -245.011 324.219C-275.854 327.408 -303.506 306.108 -331.47 291.813C-397.514 258.068 -477.103 263.63 -540.749 301.321C-587.471 328.993 -624.425 373.793 -648.75 424.789L575.384 423.283L547.81 90.6517L547.81 90.6744Z" fill="url(#paint4_linear_446_2868)"/>
</g>
<mask id="mask4_446_2868" style="mask-type:luminance" maskUnits="userSpaceOnUse" x="-673" y="419" width="1225" height="152">
<path d="M523.85 565.143C474.716 575.491 412.459 570.734 372.926 553.601C361.486 548.649 351.672 542.722 338.142 539.069C301.37 529.135 254.031 539.495 212.59 535.064C142.396 527.564 112.211 481.325 40.601 477.855C11.3826 476.439 -17.9035 482.648 -45.3726 486.383C-85.8477 491.889 -130.292 497.321 -169.155 489.605C-204.683 482.551 -230.662 465.243 -269.085 463.489C-299.929 462.08 -327.57 471.248 -355.526 477.39C-421.552 491.891 -501.143 489.408 -564.808 473.069C-611.543 461.073 -648.521 441.692 -672.872 419.65L551.251 421.568L523.85 565.153L523.85 565.143Z" fill="white"/>
</mask>
<g mask="url(#mask4_446_2868)">
<path d="M523.85 565.143C474.716 575.491 412.459 570.734 372.926 553.601C361.486 548.649 351.672 542.722 338.142 539.069C301.37 529.135 254.031 539.495 212.59 535.064C142.396 527.564 112.211 481.324 40.6009 477.855C11.3826 476.439 -17.9035 482.648 -45.3726 486.383C-85.8477 491.889 -130.292 497.321 -169.155 489.605C-204.683 482.551 -230.662 465.243 -269.085 463.489C-299.929 462.08 -327.57 471.248 -355.526 477.39C-421.552 491.891 -501.143 489.408 -564.808 473.069C-611.543 461.073 -648.521 441.692 -672.872 419.65L551.251 421.568L523.85 565.153L523.85 565.143Z" fill="url(#paint5_linear_446_2868)"/>
</g>
<defs>
<filter id="filter0_d_446_2868" x="162" y="57.4092" width="278" height="157.286" filterUnits="userSpaceOnUse" color-interpolation-filters="sRGB">
<feFlood flood-opacity="0" result="BackgroundImageFix"/>
<feColorMatrix in="SourceAlpha" type="matrix" values="0 0 0 0 0 0 0 0 0 0 0 0 0 0 0 0 0 0 127 0" result="hardAlpha"/>
<feOffset/>
<feGaussianBlur stdDeviation="5"/>
<feColorMatrix type="matrix" values="0 0 0 0 1 0 0 0 0 1 0 0 0 0 1 0 0 0 0.75 0"/>
<feBlend mode="normal" in2="BackgroundImageFix" result="effect1_dropShadow_446_2868"/>
<feBlend mode="normal" in="SourceGraphic" in2="effect1_dropShadow_446_2868" result="shape"/>
</filter>
<filter id="filter1_d_446_2868" x="-78.8276" y="572.765" width="263.542" height="145.55" filterUnits="userSpaceOnUse" color-interpolation-filters="sRGB">
<feFlood flood-opacity="0" result="BackgroundImageFix"/>
<feColorMatrix in="SourceAlpha" type="matrix" values="0 0 0 0 0 0 0 0 0 0 0 0 0 0 0 0 0 0 127 0" result="hardAlpha"/>
<feOffset/>
<feGaussianBlur stdDeviation="5"/>
<feColorMatrix type="matrix" values="0 0 0 0 1 0 0 0 0 1 0 0 0 0 1 0 0 0 0.75 0"/>
<feBlend mode="normal" in2="BackgroundImageFix" result="effect1_dropShadow_446_2868"/>
<feBlend mode="normal" in="SourceGraphic" in2="effect1_dropShadow_446_2868" result="shape"/>
</filter>
<linearGradient id="paint0_linear_446_2868" x1="46.9947" y1="95.4561" x2="46.9947" y2="-21.6543" gradientUnits="userSpaceOnUse">
<stop stop-color="#2A759F"/>
<stop offset="0.42" stop-color="#2E5382"/>
<stop offset="0.97" stop-color="#0F172A"/>
</linearGradient>
<linearGradient id="paint1_linear_446_2868" x1="24.7536" y1="84.4204" x2="61.72" y2="23.6547" gradientUnits="userSpaceOnUse">
<stop stop-color="#315D93"/>
<stop offset="0.98" stop-color="#1E293B"/>
</linearGradient>
<radialGradient id="paint2_radial_446_2868" cx="0" cy="0" r="1" gradientUnits="userSpaceOnUse" gradientTransform="translate(346.733 129.035) rotate(45.3978) scale(116.219 116.218)">
<stop offset="0.03" stop-color="#1D66D3"/>
<stop offset="0.59" stop-color="#008CDC"/>
<stop offset="1" stop-color="#0C4497"/>
</radialGradient>
<radialGradient id="paint3_radial_446_2868" cx="0" cy="0" r="1" gradientUnits="userSpaceOnUse" gradientTransform="translate(85.5788 619.175) rotate(-96.324) scale(110.72 109.541)">
<stop offset="0.03" stop-color="#109867"/>
<stop offset="0.59" stop-color="#34D399"/>
<stop offset="1" stop-color="#D1FAE5"/>
</radialGradient>
<linearGradient id="paint4_linear_446_2868" x1="-52.8095" y1="196.825" x2="-43.4847" y2="411.11" gradientUnits="userSpaceOnUse">
<stop stop-color="#98D6FA"/>
<stop offset="1" stop-color="#27B1FF"/>
</linearGradient>
<linearGradient id="paint5_linear_446_2868" x1="-80.6251" y1="519.065" x2="-80.2971" y2="419.893" gradientUnits="userSpaceOnUse">
<stop stop-color="#315D93"/>
<stop offset="1" stop-color="#27B1FF"/>
</linearGradient>
</defs>
</svg>
