<svg width="1440" height="674" viewBox="0 0 1440 674" fill="none" xmlns="http://www.w3.org/2000/svg">
<g clip-path="url(#clip0_193_3622)">
<mask id="mask0_193_3622" style="mask-type:luminance" maskUnits="userSpaceOnUse" x="-134" y="0" width="1673" height="474">
<path d="M1500.87 17.5107C1433.72 -15.3948 1348.67 -0.546128 1294.69 53.5402C1279.07 69.1707 1265.67 87.8959 1247.19 99.4103C1196.97 130.726 1132.27 97.7861 1075.66 111.67C979.774 135.174 938.61 281.395 840.78 292.139C800.863 296.525 760.841 276.781 723.306 264.871C667.999 247.315 607.269 229.982 554.186 254.269C505.659 276.476 470.194 331.159 417.702 336.582C375.564 340.939 337.785 311.839 299.581 292.31C209.35 246.207 100.614 253.805 13.6603 305.299C-50.1714 343.105 -100.659 404.311 -133.892 473.983L1538.54 471.925L1500.87 17.4797L1500.87 17.5107Z" fill="white"/>
</mask>
<g mask="url(#mask0_193_3622)">
<path d="M1500.87 17.5107C1433.72 -15.3948 1348.67 -0.546127 1294.69 53.5402C1279.07 69.1707 1265.67 87.8959 1247.19 99.4103C1196.97 130.726 1132.27 97.7861 1075.66 111.671C979.774 135.174 938.61 281.395 840.78 292.139C800.863 296.525 760.841 276.781 723.306 264.871C667.999 247.315 607.269 229.982 554.186 254.269C505.659 276.476 470.194 331.159 417.702 336.582C375.564 340.939 337.785 311.839 299.581 292.31C209.35 246.207 100.614 253.805 13.6603 305.299C-50.1714 343.105 -100.659 404.311 -133.892 473.983L1538.54 471.925L1500.87 17.4797L1500.87 17.5107Z" fill="url(#paint0_linear_193_3622)"/>
</g>
<mask id="mask1_193_3622" style="mask-type:luminance" maskUnits="userSpaceOnUse" x="-167" y="466" width="1673" height="208">
<path d="M1468.05 665.725C1400.92 679.956 1315.87 673.474 1261.87 649.996C1246.24 643.211 1232.84 635.085 1214.36 630.084C1164.13 616.48 1099.45 630.728 1042.84 624.678C946.949 614.438 905.74 551.021 807.912 546.311C767.997 544.389 727.984 552.928 690.455 558.072C635.157 565.655 574.437 573.138 521.349 562.581C472.817 552.927 437.337 529.2 384.846 526.822C342.71 524.911 304.943 537.508 266.747 545.955C176.538 565.896 67.8062 562.545 -19.1591 540.173C-82.999 523.749 -133.504 497.186 -166.757 466.962L1505.57 468.728L1468.05 665.738L1468.05 665.725Z" fill="white"/>
</mask>
<g mask="url(#mask1_193_3622)">
<path d="M1468.05 665.725C1400.92 679.956 1315.87 673.474 1261.87 649.996C1246.24 643.211 1232.84 635.085 1214.36 630.084C1164.13 616.48 1099.45 630.728 1042.84 624.678C946.949 614.438 905.74 551.021 807.912 546.311C767.997 544.389 727.984 552.928 690.455 558.072C635.157 565.655 574.437 573.138 521.349 562.581C472.817 552.927 437.337 529.2 384.847 526.822C342.71 524.911 304.943 537.508 266.747 545.955C176.538 565.896 67.8062 562.545 -19.1591 540.173C-82.999 523.749 -133.504 497.186 -166.757 466.962L1505.57 468.728L1468.05 665.738L1468.05 665.725Z" fill="url(#paint1_linear_193_3622)"/>
</g>
<mask id="mask2_193_3622" style="mask-type:luminance" maskUnits="userSpaceOnUse" x="1201" y="74" width="240" height="239">
<path d="M1440.03 186.863C1440.07 187.822 1440.12 188.758 1440.14 189.671C1440.44 198.118 1439.87 208.05 1437.45 219.054C1436.4 224.419 1434.46 231.497 1430.97 239.716C1430.15 241.725 1429.15 243.939 1428.07 246.108C1427.82 246.633 1427.55 247.159 1427.3 247.684C1427.21 247.889 1427.09 248.072 1426.98 248.277C1426.68 248.871 1426.38 249.442 1426.06 250.012C1424.47 253.003 1422.82 255.811 1421.11 258.437C1420.57 259.304 1420 260.149 1419.45 260.994C1419.38 261.108 1419.31 261.199 1419.22 261.314C1418.81 261.907 1418.4 262.501 1417.99 263.072C1414.61 267.866 1411.1 271.998 1407.63 275.606C1406.97 276.29 1406.31 276.975 1405.64 277.637C1405.35 277.934 1405.07 278.208 1404.78 278.505C1404.5 278.779 1404.23 279.053 1403.96 279.327C1403.82 279.441 1403.7 279.555 1403.59 279.669C1403.45 279.806 1403.32 279.943 1403.18 280.058C1402.93 280.286 1402.68 280.537 1402.43 280.765C1397.75 285.126 1393.85 288.14 1390.56 290.514C1390.47 290.582 1390.38 290.651 1390.29 290.719C1390.33 290.697 1390.38 290.651 1390.4 290.628C1390.06 290.879 1389.72 291.108 1389.4 291.336C1388.05 292.318 1386.43 293.368 1384.77 294.395C1383.88 294.989 1382.99 295.56 1382.19 296.016C1380.04 297.317 1377.12 298.961 1374.86 300.08C1374.86 300.08 1374.82 300.08 1374.8 300.103C1373.7 300.651 1372.63 301.176 1371.56 301.678C1371.56 301.678 1371.53 301.678 1371.51 301.678C1371.49 301.678 1371.44 301.701 1371.42 301.724C1370.78 302.021 1370.16 302.317 1369.57 302.569C1368.75 302.934 1367.95 303.276 1367.15 303.596C1364.73 304.646 1362.2 305.628 1359.53 306.541C1359.51 306.541 1359.49 306.541 1359.46 306.564C1357.36 307.294 1355.22 307.979 1352.96 308.596C1341.67 311.838 1330.05 313.276 1318.19 312.956C1312.07 312.888 1304.98 312.18 1297.38 310.628L1296.54 310.468C1296.54 310.468 1296.54 310.468 1296.51 310.468C1296.49 310.468 1296.47 310.468 1296.44 310.468C1294.41 310.034 1292.38 309.578 1290.17 308.984C1288.71 308.619 1287.02 308.116 1285.61 307.66C1285.58 307.66 1285.56 307.66 1285.52 307.637C1285.38 307.591 1285.22 307.546 1285.08 307.5C1282.75 306.747 1281.71 306.427 1279.97 305.765C1279.77 305.696 1279.58 305.628 1279.4 305.559C1277.51 304.874 1276.18 304.349 1274.52 303.619C1273.45 303.162 1272.4 302.705 1271.32 302.226C1271.26 302.203 1271.21 302.18 1271.14 302.135C1269.77 301.518 1268.43 300.856 1267.06 300.171C1267.01 300.148 1266.97 300.126 1266.9 300.103C1265.71 299.509 1264.55 298.893 1263.38 298.254C1262.56 297.797 1261.76 297.34 1260.99 296.884C1260.69 296.701 1260.37 296.541 1260.08 296.359C1252.09 291.655 1246.29 286.998 1242.78 283.87C1242.42 283.551 1242.14 283.299 1241.98 283.162C1240.36 281.747 1238.88 280.377 1237.74 279.236C1237.37 278.87 1236.96 278.482 1236.57 278.071C1236.55 278.048 1236.51 278.003 1236.48 277.98L1236.39 277.889C1234.48 275.971 1232.15 273.551 1229.32 270.172C1216.02 254.464 1207.28 235.972 1203.65 215.903C1203.54 215.333 1203.44 214.762 1203.33 214.168C1203.33 214.1 1203.31 214.031 1203.28 213.94C1202.74 210.835 1202.3 207.662 1202.1 204.968C1202.1 204.808 1202.08 204.625 1202.05 204.442C1201.87 202.296 1201.73 199.922 1201.67 197.502C1201.64 197.114 1201.62 196.726 1201.6 196.36V195.128C1201.6 194.283 1201.6 193.461 1201.6 192.639C1201.6 190.653 1201.64 188.735 1201.76 187C1201.85 185.447 1201.96 183.941 1202.12 182.479C1202.12 182.32 1202.14 182.137 1202.17 181.977C1202.21 181.475 1202.26 180.95 1202.33 180.47C1202.42 179.648 1202.51 178.849 1202.6 178.096C1202.6 178.05 1202.6 177.982 1202.6 177.936C1202.6 177.868 1202.6 177.799 1202.62 177.731C1205.13 157.685 1212.66 138.987 1224.73 122.8C1225.03 122.389 1225.35 121.978 1225.65 121.567C1225.78 121.385 1225.92 121.202 1226.06 121.019C1226.51 120.426 1226.97 119.855 1227.4 119.33C1237.44 106.568 1249.47 96.7961 1262.06 89.6958C1283.64 77.1846 1306.32 72.5728 1327.04 74.3764C1327.04 74.3764 1327.09 74.3764 1327.11 74.3764C1327.29 74.3764 1327.5 74.3764 1327.68 74.3993C1328.66 74.4449 1329.64 74.5363 1330.69 74.6276C1331.08 74.6504 1331.47 74.6961 1331.86 74.7417C1332.4 74.7874 1332.93 74.8331 1333.43 74.9016C1333.43 74.9016 1333.45 74.9016 1333.48 74.9016C1334.11 74.9701 1334.71 75.0385 1335.26 75.107C1335.28 75.107 1335.3 75.107 1335.32 75.107C1337.7 75.4038 1339.23 75.655 1339.34 75.6778C1341.35 75.9746 1342.63 76.1801 1344.77 76.6595C1344.88 76.6595 1345.02 76.7052 1345.13 76.728C1345.29 76.7508 1345.43 76.7965 1345.59 76.8421C1345.75 76.8878 1345.89 76.9106 1346.05 76.9563C1346.89 77.1389 1347.78 77.3444 1348.72 77.5499L1349.13 77.6412L1350.68 78.0293C1350.68 78.0293 1350.77 78.0293 1350.82 78.0522H1350.86C1352.44 78.4403 1354.42 79.0339 1356.06 79.5362C1356.09 79.5362 1356.11 79.5362 1356.13 79.559C1356.29 79.6047 1356.45 79.6503 1356.59 79.696C1356.89 79.7873 1357.16 79.8786 1357.43 79.97C1357.5 79.9928 1357.57 80.0156 1357.66 80.0385C1359.35 80.5864 1360.35 80.906 1361.88 81.4996C1362.02 81.5453 1362.18 81.6138 1362.32 81.6594C1362.34 81.6594 1362.36 81.6594 1362.41 81.6823C1363.46 82.0704 1364.53 82.4813 1365.6 82.9151C1366.03 83.0977 1366.45 83.2804 1366.88 83.4402C1367.38 83.6457 1367.86 83.8512 1368.36 84.0566C1368.89 84.2621 1369.43 84.5133 1370 84.7872C1372.13 85.7461 1374.16 86.7506 1376.07 87.7552C1376.12 87.778 1376.17 87.8008 1376.21 87.8237C1386.98 93.4628 1394.65 99.5129 1398.89 103.303C1399.26 103.622 1399.53 103.874 1399.69 104.011C1400.81 105.015 1401.88 106.02 1402.97 107.047C1403.29 107.344 1403.61 107.641 1403.96 107.937C1405.23 109.125 1407.24 111.179 1409.41 113.577C1413.61 118.188 1417.33 122.983 1420.5 127.914C1421 128.668 1421.48 129.421 1421.91 130.129C1422.25 130.654 1422.62 131.248 1422.98 131.864C1429.94 143.165 1433.85 153.736 1436.01 162.297C1436.2 163.005 1436.38 163.69 1436.51 164.329C1436.54 164.42 1436.56 164.557 1436.58 164.649C1438.55 172.457 1439.55 179.763 1439.94 186.406C1439.94 186.52 1439.94 186.635 1439.94 186.749L1440.03 186.863Z" fill="white"/>
</mask>
<g mask="url(#mask2_193_3622)">
<path d="M1440.03 186.863C1440.07 187.822 1440.12 188.758 1440.14 189.671C1440.44 198.118 1439.87 208.05 1437.45 219.054C1436.4 224.419 1434.46 231.497 1430.97 239.716C1430.15 241.725 1429.14 243.939 1428.07 246.108C1427.82 246.633 1427.55 247.159 1427.3 247.684C1427.21 247.889 1427.09 248.072 1426.98 248.277C1426.68 248.871 1426.38 249.442 1426.06 250.012C1424.47 253.003 1422.82 255.811 1421.11 258.437C1420.57 259.304 1420 260.149 1419.45 260.994C1419.38 261.108 1419.31 261.199 1419.22 261.314C1418.81 261.907 1418.4 262.501 1417.99 263.072C1414.61 267.866 1411.1 271.998 1407.63 275.606C1406.97 276.29 1406.31 276.975 1405.64 277.637C1405.35 277.934 1405.07 278.208 1404.78 278.505C1404.5 278.779 1404.23 279.053 1403.96 279.327C1403.82 279.441 1403.7 279.555 1403.59 279.669C1403.45 279.806 1403.32 279.943 1403.18 280.058C1402.93 280.286 1402.68 280.537 1402.43 280.765C1397.75 285.126 1393.85 288.14 1390.56 290.514C1390.47 290.582 1390.38 290.651 1390.29 290.719C1390.33 290.697 1390.38 290.651 1390.4 290.628C1390.06 290.879 1389.72 291.108 1389.4 291.336C1388.05 292.318 1386.43 293.368 1384.77 294.395C1383.88 294.989 1382.99 295.56 1382.19 296.016C1380.04 297.317 1377.12 298.961 1374.86 300.08C1374.86 300.08 1374.82 300.08 1374.8 300.103C1373.7 300.651 1372.63 301.176 1371.56 301.678C1371.56 301.678 1371.53 301.678 1371.51 301.678C1371.49 301.678 1371.44 301.701 1371.42 301.724C1370.78 302.021 1370.16 302.317 1369.57 302.569C1368.75 302.934 1367.95 303.276 1367.15 303.596C1364.73 304.646 1362.2 305.628 1359.53 306.541C1359.51 306.541 1359.49 306.541 1359.46 306.564C1357.36 307.294 1355.22 307.979 1352.96 308.596C1341.67 311.838 1330.05 313.276 1318.19 312.956C1312.07 312.888 1304.98 312.18 1297.38 310.628L1296.54 310.468C1296.54 310.468 1296.54 310.468 1296.51 310.468C1296.49 310.468 1296.47 310.468 1296.44 310.468C1294.41 310.034 1292.38 309.578 1290.17 308.984C1288.71 308.619 1287.02 308.116 1285.61 307.66C1285.58 307.66 1285.56 307.66 1285.51 307.637C1285.38 307.591 1285.22 307.546 1285.08 307.5C1282.75 306.747 1281.7 306.427 1279.97 305.765C1279.77 305.696 1279.58 305.628 1279.4 305.559C1277.51 304.874 1276.18 304.349 1274.52 303.619C1273.45 303.162 1272.4 302.705 1271.32 302.226C1271.25 302.203 1271.21 302.18 1271.14 302.135C1269.77 301.518 1268.43 300.856 1267.06 300.171C1267.01 300.148 1266.97 300.126 1266.9 300.103C1265.71 299.509 1264.55 298.893 1263.38 298.254C1262.56 297.797 1261.76 297.34 1260.99 296.884C1260.69 296.701 1260.37 296.541 1260.07 296.359C1252.09 291.655 1246.29 286.998 1242.78 283.87C1242.41 283.551 1242.14 283.299 1241.98 283.162C1240.36 281.747 1238.88 280.377 1237.74 279.236C1237.37 278.87 1236.96 278.482 1236.57 278.071C1236.55 278.048 1236.51 278.003 1236.48 277.98L1236.39 277.889C1234.47 275.971 1232.15 273.551 1229.32 270.172C1216.02 254.464 1207.28 235.972 1203.65 215.903C1203.54 215.333 1203.44 214.762 1203.33 214.168C1203.33 214.1 1203.31 214.031 1203.28 213.94C1202.74 210.835 1202.3 207.662 1202.1 204.968C1202.1 204.808 1202.08 204.625 1202.05 204.442C1201.87 202.296 1201.73 199.922 1201.66 197.502C1201.64 197.114 1201.62 196.726 1201.6 196.36V195.128C1201.6 194.283 1201.6 193.461 1201.6 192.639C1201.6 190.653 1201.64 188.735 1201.76 187C1201.85 185.447 1201.96 183.941 1202.12 182.479C1202.12 182.32 1202.14 182.137 1202.17 181.977C1202.21 181.475 1202.26 180.95 1202.33 180.47C1202.42 179.648 1202.51 178.849 1202.6 178.096C1202.6 178.05 1202.6 177.982 1202.6 177.936C1202.6 177.868 1202.6 177.799 1202.62 177.731C1205.13 157.685 1212.66 138.987 1224.73 122.8C1225.03 122.389 1225.35 121.978 1225.64 121.567C1225.78 121.385 1225.92 121.202 1226.06 121.019C1226.51 120.426 1226.97 119.855 1227.4 119.33C1237.44 106.568 1249.47 96.7961 1262.06 89.6958C1283.64 77.1846 1306.32 72.5728 1327.04 74.3764C1327.04 74.3764 1327.09 74.3764 1327.11 74.3764C1327.29 74.3764 1327.5 74.3764 1327.68 74.3993C1328.66 74.4449 1329.64 74.5363 1330.69 74.6276C1331.08 74.6504 1331.47 74.6961 1331.86 74.7417C1332.4 74.7874 1332.93 74.8331 1333.43 74.9016C1333.43 74.9016 1333.45 74.9016 1333.48 74.9016C1334.11 74.9701 1334.71 75.0385 1335.25 75.107C1335.28 75.107 1335.3 75.107 1335.32 75.107C1337.7 75.4038 1339.22 75.655 1339.34 75.6778C1341.35 75.9746 1342.62 76.1801 1344.77 76.6595C1344.88 76.6595 1345.02 76.7052 1345.13 76.728C1345.29 76.7508 1345.43 76.7965 1345.59 76.8421C1345.75 76.8878 1345.89 76.9106 1346.05 76.9563C1346.89 77.1389 1347.78 77.3444 1348.72 77.5499L1349.13 77.6412L1350.68 78.0293C1350.68 78.0293 1350.77 78.0293 1350.82 78.0522H1350.86C1352.44 78.4403 1354.42 79.0339 1356.06 79.5362C1356.09 79.5362 1356.11 79.5362 1356.13 79.559C1356.29 79.6047 1356.45 79.6503 1356.59 79.696C1356.88 79.7873 1357.16 79.8786 1357.43 79.97C1357.5 79.9928 1357.57 80.0156 1357.66 80.0385C1359.35 80.5864 1360.35 80.906 1361.88 81.4996C1362.02 81.5453 1362.18 81.6138 1362.32 81.6594C1362.34 81.6594 1362.36 81.6594 1362.41 81.6823C1363.46 82.0704 1364.53 82.4813 1365.6 82.9151C1366.03 83.0977 1366.44 83.2804 1366.88 83.4402C1367.38 83.6457 1367.86 83.8512 1368.36 84.0566C1368.89 84.2621 1369.43 84.5133 1370 84.7872C1372.13 85.7461 1374.16 86.7506 1376.07 87.7552C1376.12 87.778 1376.16 87.8008 1376.21 87.8237C1386.98 93.4628 1394.65 99.5129 1398.89 103.303C1399.26 103.622 1399.53 103.874 1399.69 104.011C1400.81 105.015 1401.88 106.02 1402.97 107.047C1403.29 107.344 1403.61 107.641 1403.96 107.937C1405.23 109.125 1407.24 111.179 1409.41 113.577C1413.61 118.188 1417.33 122.983 1420.5 127.914C1421 128.668 1421.48 129.421 1421.91 130.129C1422.25 130.654 1422.62 131.248 1422.98 131.864C1429.94 143.165 1433.84 153.736 1436.01 162.297C1436.19 163.005 1436.38 163.69 1436.51 164.329C1436.54 164.42 1436.56 164.557 1436.58 164.649C1438.54 172.457 1439.55 179.763 1439.94 186.406C1439.94 186.52 1439.94 186.635 1439.94 186.749L1440.03 186.863Z" fill="url(#paint2_radial_193_3622)"/>
<g style="mix-blend-mode:screen" opacity="0.2">
<path d="M1519.57 123.554C1525.64 134.672 1530.38 145.517 1534.01 155.745C1534.1 155.973 1534.17 156.202 1534.26 156.43C1534.92 158.348 1535.56 160.22 1536.18 162.092C1538.14 168.028 1539.85 174.58 1541.42 181.384C1358.96 213.986 1182.61 290.446 1035.33 399.508C1027.94 389.576 1021.3 379.143 1015.6 368.115C1015 367.02 1014.43 365.901 1013.86 364.782C1013.79 364.645 1013.73 364.508 1013.66 364.348C1010.62 358.39 1007.79 352.18 1005.79 346.815C1005.65 346.472 1005.53 346.107 1005.4 345.764C1005.33 345.604 1005.26 345.399 1005.21 345.216C1156.03 235.995 1334.55 158.645 1519.57 123.554ZM1011.44 160.38C1011.24 160.836 1011.03 161.293 1010.83 161.749C1010.37 162.8 1009.92 163.804 1009.46 164.854C995.084 197.457 988.354 231.474 989.243 265.515C1126.64 162.457 1290.17 88.3034 1460.47 52.5963C1459.1 51.4547 1457.62 50.2675 1456.07 49.0575C1446.01 41.0896 1434.8 33.6925 1422.64 27.0031C1416.32 23.4872 1410.59 20.6106 1407.01 19.0124C1406.1 18.6015 1405.21 18.2133 1404.3 17.8024C1401.24 16.4097 1398.23 15.0855 1395.13 13.7386C1394.71 13.5559 1393.96 13.2363 1392.93 12.8253C1381.69 8.0994 1362.09 1.1817 1336.28 -3.38443C1226.12 29.9483 1120.19 77.8241 1023.19 138.097C1019.82 143.964 1016.46 149.832 1013.52 156.042C1012.84 157.412 1012.15 158.827 1011.47 160.357L1011.44 160.38ZM1191.19 495.853C1191.58 495.921 1191.97 496.013 1192.36 496.081C1194.41 496.492 1196.44 496.926 1198.58 497.314C1201.6 497.885 1204.61 498.364 1207.62 498.821C1207.76 498.821 1207.87 498.866 1208.01 498.889C1211.48 499.414 1214.92 499.871 1218.39 500.259C1218.55 500.259 1218.71 500.305 1218.87 500.305C1221.56 500.602 1224.25 500.876 1226.92 501.081C1227.77 501.172 1228.5 501.218 1229.27 501.264C1312.92 451.31 1403.13 410.832 1496.75 381.54C1498.94 378.572 1501.18 375.444 1503.53 371.974C1503.96 371.335 1504.44 370.673 1504.85 370.056C1505.08 369.714 1505.31 369.348 1505.53 368.983C1505.76 368.663 1505.94 368.367 1506.17 368.024C1506.65 367.294 1507.11 366.563 1507.56 365.81C1508.04 365.056 1508.52 364.28 1509.02 363.481C1510.14 361.677 1511.28 359.851 1512.36 358.024C1513.86 355.513 1515.3 352.728 1516.78 350.056C1401.95 383.229 1291.56 432.749 1191.19 495.853ZM1058.97 426.539C1072.61 439.895 1087.99 451.881 1105.15 462.109C1113.5 467.2 1120.19 470.625 1125.64 473.296L1125.91 473.433C1125.91 473.433 1126.1 473.524 1126.19 473.57C1127.35 474.141 1128.47 474.666 1129.52 475.168C1131.34 476.036 1133.49 477.018 1135.79 478.022C1256.17 396.129 1393.69 335.491 1536.82 301.93C1537.61 299.281 1538.55 296.793 1539.26 294.053C1539.62 292.706 1539.96 291.336 1540.31 289.943C1540.42 289.464 1540.56 289.007 1540.67 288.528C1540.97 287.295 1541.26 286.062 1541.54 284.807C1542.7 279.715 1543.71 274.578 1544.39 269.921C1547.54 250.949 1547.79 235.264 1547.08 223.666C1546.95 219.831 1546.56 216.246 1546.26 212.593C1371.3 249.602 1203.01 323.824 1058.99 426.539H1058.97ZM990.179 281.542C990.476 284.692 990.727 287.843 991.16 290.994C991.16 291.131 991.206 291.29 991.229 291.405C991.229 291.519 991.251 291.633 991.274 291.747C991.479 293.345 991.73 295.012 992.004 296.77C992.164 297.82 992.346 298.893 992.529 299.966C992.597 300.331 992.643 300.674 992.712 301.039C993.168 303.71 993.716 306.427 994.286 309.212C1139.92 200.014 1313.97 122.275 1494.83 86.6367C1489.22 79.8104 1482.72 72.8242 1475.23 65.7467C1300.55 102.527 1132.64 177.503 990.179 281.519V281.542Z" fill="#1A2F4B"/>
</g>
</g>
<g filter="url(#filter0_d_193_3622)">
<path d="M1234.52 275.811C1233.95 275.217 1233.38 274.623 1232.83 274.007C1196.65 279.806 1170.66 276.427 1164.57 262.614C1153.29 237.021 1214.24 185.219 1300.44 147.16C1386.66 109.101 1465.97 98.9646 1477.26 124.558C1481.85 134.991 1474.48 149.74 1458.28 166.155C1452.99 171.52 1446.71 177.068 1439.66 182.684C1439.73 183.484 1439.82 184.305 1439.87 185.15C1470.01 161.201 1485.84 138.393 1479.34 123.644C1467.54 96.887 1386.87 106.521 1299.5 145.082C1248.55 167.571 1206.43 195.013 1182.48 219.282C1165.36 236.633 1157.54 252.386 1162.44 263.528C1168.95 278.299 1196.49 281.952 1234.5 275.811H1234.52Z" fill="#27BEFF"/>
</g>
<path d="M1296.08 135.997C1296.08 135.997 1313.24 134.673 1321.84 126.271C1331.33 117.002 1331.56 85.564 1331.56 85.564C1331.56 85.564 1331.79 117.002 1341.28 126.271C1349.88 134.673 1367.04 135.997 1367.04 135.997C1367.04 135.997 1349.88 137.321 1341.28 145.723C1331.79 154.992 1331.56 186.43 1331.56 186.43C1331.56 186.43 1331.33 154.992 1321.84 145.723C1313.24 137.321 1296.08 135.997 1296.08 135.997Z" fill="#27BEFF"/>
<path d="M1272.67 267.227C1272.67 267.227 1283.99 266.359 1289.67 260.812C1295.92 254.693 1296.08 233.963 1296.08 233.963C1296.08 233.963 1296.24 254.693 1302.49 260.812C1308.17 266.359 1319.49 267.227 1319.49 267.227C1319.49 267.227 1308.17 268.095 1302.49 273.642C1296.24 279.761 1296.08 300.491 1296.08 300.491C1296.08 300.491 1295.92 279.761 1289.67 273.642C1283.99 268.095 1272.67 267.227 1272.67 267.227Z" fill="#27BEFF"/>
<path d="M1178.71 186.407C1178.71 186.407 1182.23 186.133 1184.01 184.421C1185.94 182.526 1185.99 176.064 1185.99 176.064C1185.99 176.064 1186.04 182.503 1187.98 184.421C1189.73 186.133 1193.27 186.407 1193.27 186.407C1193.27 186.407 1189.75 186.681 1187.98 188.393C1186.04 190.288 1185.99 196.749 1185.99 196.749C1185.99 196.749 1185.94 190.311 1184.01 188.393C1182.25 186.681 1178.71 186.407 1178.71 186.407Z" fill="#27BEFF"/>
<path d="M1374.52 171.225C1374.52 171.225 1379.7 170.814 1382.28 168.303C1385.13 165.517 1385.2 156.042 1385.2 156.042C1385.2 156.042 1385.27 165.517 1388.12 168.303C1390.7 170.837 1395.88 171.225 1395.88 171.225C1395.88 171.225 1390.7 171.636 1388.12 174.147C1385.27 176.933 1385.2 186.407 1385.2 186.407C1385.2 186.407 1385.13 176.933 1382.28 174.147C1379.7 171.613 1374.52 171.225 1374.52 171.225Z" fill="#27BEFF"/>
<mask id="mask3_193_3622" style="mask-type:luminance" maskUnits="userSpaceOnUse" x="79" y="383" width="251" height="251">
<path d="M293.069 419.92C292.357 419.223 291.662 418.541 290.969 417.893C284.619 411.831 276.511 405.425 266.279 399.728C261.381 396.849 254.532 393.486 245.714 390.553C243.581 389.811 241.16 389.071 238.728 388.415C238.145 388.25 237.546 388.102 236.963 387.937C236.74 387.867 236.518 387.83 236.279 387.778C235.611 387.601 234.961 387.44 234.295 387.297C230.857 386.486 227.53 385.837 224.297 385.368C223.241 385.198 222.187 385.063 221.149 384.91C221.012 384.885 220.893 384.875 220.741 384.868C219.993 384.781 219.246 384.693 218.516 384.622C212.436 383.963 206.774 383.868 201.551 384.1C200.557 384.146 199.564 384.193 198.587 384.255C198.15 384.283 197.746 384.308 197.308 384.336C196.905 384.362 196.501 384.388 196.097 384.414C195.913 384.442 195.744 384.453 195.576 384.464C195.374 384.477 195.172 384.489 194.988 384.518C194.635 384.557 194.265 384.581 193.912 384.62C187.261 385.281 182.196 386.263 178.058 387.202C177.941 387.226 177.824 387.251 177.708 387.275C177.757 387.255 177.824 387.251 177.858 387.248C177.424 387.344 177.008 387.455 176.608 387.548C174.905 387.926 172.959 388.473 170.998 389.071C169.915 389.359 168.851 389.663 167.939 389.975C165.431 390.76 162.115 391.917 159.669 392.917C159.669 392.917 159.637 392.953 159.603 392.955C158.413 393.436 157.256 393.915 156.117 394.41C156.117 394.41 156.101 394.428 156.086 394.446C156.07 394.464 156.02 394.484 155.986 394.486C155.31 394.782 154.649 395.061 154.04 395.353C153.183 395.745 152.359 396.136 151.553 396.542C149.049 397.714 146.518 399.024 143.944 400.488C143.928 400.506 143.912 400.524 143.879 400.526C141.846 401.669 139.816 402.879 137.76 404.226C127.355 410.85 118.127 418.97 110.089 428.5C105.871 433.345 101.465 439.401 97.3635 446.433L96.8979 447.206C96.8979 447.206 96.8979 447.206 96.882 447.224C96.866 447.242 96.8501 447.26 96.8342 447.278C95.7526 449.17 94.6888 451.079 93.6039 453.225C92.8676 454.623 92.0783 456.294 91.4447 457.719C91.4288 457.737 91.4129 457.755 91.3987 457.806C91.3385 457.945 91.2624 458.102 91.2023 458.241C90.1617 460.587 89.6768 461.631 88.9797 463.449C88.8894 463.657 88.8151 463.848 88.7408 464.038C87.9498 465.997 87.4332 467.397 86.837 469.208C86.4425 470.365 86.064 471.503 85.6872 472.676C85.6571 472.745 85.6429 472.797 85.6306 472.882C85.153 474.381 84.7267 475.895 84.3023 477.441C84.2881 477.493 84.274 477.544 84.2439 477.614C83.8761 478.954 83.5419 480.293 83.2254 481.647C83.0062 482.607 82.8029 483.548 82.6156 484.472C82.5502 484.831 82.4511 485.192 82.3858 485.551C80.4593 495.062 80.0272 502.823 80.0012 507.739C79.9943 508.246 79.998 508.634 79.9928 508.854C79.9602 511.102 79.9878 513.21 80.0772 514.893C80.1058 515.432 80.1202 516.022 80.1683 516.61C80.1701 516.644 80.1737 516.711 80.1755 516.745L80.1826 516.879C80.3328 519.706 80.586 523.203 81.233 527.754C84.1361 549.031 92.3884 568.649 105.433 585.345C105.797 585.828 106.176 586.294 106.557 586.793C106.61 586.84 106.648 586.905 106.702 586.986C108.73 589.559 110.891 592.089 112.839 594.109C112.963 594.22 113.089 594.363 113.215 594.507C114.753 596.132 116.501 597.878 118.332 599.601C118.617 599.887 118.902 600.173 119.17 600.443L120.127 601.294C120.783 601.877 121.421 602.444 122.059 603.011C123.601 604.382 125.121 605.669 126.548 606.777C127.817 607.777 129.066 608.728 130.312 609.611C130.436 609.721 130.594 609.829 130.734 609.921C131.156 610.232 131.595 610.559 132.015 610.836C132.717 611.332 133.401 611.811 134.05 612.26C134.085 612.291 134.138 612.338 134.174 612.37C134.227 612.417 134.28 612.464 134.349 612.494C151.663 624.358 171.437 631.354 192.432 633.055C192.959 633.105 193.501 633.138 194.027 633.189C194.264 633.208 194.502 633.227 194.739 633.245C195.519 633.297 196.28 633.333 196.991 633.355C213.91 634.285 229.893 631.594 244.201 626.612C268.989 618.311 288.409 603.699 301.478 586.199C301.478 586.199 301.51 586.163 301.526 586.145C301.653 586.002 301.797 585.841 301.906 585.682C302.556 584.881 303.171 584.048 303.833 583.161C304.086 582.841 304.321 582.506 304.557 582.17C304.904 581.709 305.235 581.265 305.532 580.824C305.532 580.824 305.548 580.806 305.564 580.788C305.957 580.24 306.318 579.727 306.648 579.25C306.664 579.232 306.68 579.214 306.695 579.196C308.122 577.13 308.995 575.757 309.057 575.652C310.229 573.872 310.962 572.727 312.088 570.714C312.167 570.624 312.227 570.485 312.289 570.38C312.383 570.239 312.443 570.1 312.52 569.943C312.596 569.786 312.674 569.663 312.75 569.506C313.197 568.718 313.659 567.878 314.153 567.002L314.369 566.617L315.152 565.132C315.152 565.132 315.215 565.06 315.229 565.009L315.261 564.973C316.06 563.47 316.985 561.502 317.743 559.867C317.759 559.849 317.774 559.831 317.773 559.797C317.849 559.641 317.925 559.484 317.985 559.345C318.121 559.049 318.242 558.771 318.362 558.493C318.392 558.424 318.422 558.354 318.468 558.267C319.222 556.564 319.675 555.556 320.282 553.947C320.342 553.808 320.401 553.635 320.461 553.496C320.477 553.479 320.493 553.461 320.507 553.409C320.938 552.318 321.368 551.193 321.781 550.052C321.942 549.586 322.087 549.138 322.265 548.687C322.457 548.151 322.632 547.634 322.823 547.098C323.03 546.545 323.217 545.942 323.403 545.305C324.141 542.978 324.779 540.692 325.338 538.495C325.352 538.443 325.366 538.392 325.38 538.34C328.524 525.999 329.182 515.808 329.204 509.863C329.211 509.356 329.207 508.968 329.212 508.748C329.213 507.178 329.182 505.643 329.15 504.075C329.142 503.619 329.135 503.164 329.144 502.69C329.115 500.869 328.922 497.875 328.575 494.52C327.927 488.044 326.803 481.817 325.189 475.925C324.955 475.012 324.705 474.116 324.458 473.287C324.29 472.656 324.084 471.96 323.86 471.248C319.948 457.989 314.467 447.633 309.335 440.024C308.913 439.392 308.508 438.777 308.108 438.228C308.053 438.147 307.963 438.035 307.908 437.954C303.217 431.026 298.247 425.196 293.36 420.307C293.271 420.228 293.183 420.15 293.094 420.071L293.069 419.92Z" fill="white"/>
</mask>
<g mask="url(#mask3_193_3622)">
<path d="M293.069 419.92C292.357 419.223 291.662 418.541 290.969 417.893C284.619 411.831 276.511 405.425 266.279 399.728C261.381 396.849 254.532 393.486 245.714 390.553C243.581 389.811 241.16 389.071 238.728 388.415C238.145 388.25 237.546 388.102 236.963 387.937C236.74 387.867 236.518 387.83 236.279 387.778C235.611 387.601 234.961 387.44 234.295 387.297C230.858 386.486 227.53 385.837 224.297 385.368C223.241 385.199 222.187 385.063 221.149 384.91C221.012 384.885 220.893 384.875 220.741 384.868C219.993 384.781 219.246 384.693 218.516 384.622C212.436 383.963 206.774 383.868 201.551 384.1C200.557 384.146 199.564 384.193 198.587 384.255C198.15 384.283 197.746 384.308 197.308 384.336C196.905 384.362 196.501 384.388 196.097 384.414C195.913 384.442 195.744 384.453 195.576 384.464C195.374 384.477 195.172 384.489 194.988 384.518C194.635 384.557 194.265 384.581 193.913 384.62C187.261 385.281 182.196 386.263 178.058 387.202C177.941 387.226 177.824 387.251 177.708 387.275C177.757 387.255 177.824 387.251 177.858 387.248C177.424 387.344 177.008 387.455 176.608 387.548C174.905 387.926 172.959 388.473 170.998 389.071C169.915 389.359 168.851 389.663 167.939 389.975C165.431 390.76 162.115 391.917 159.669 392.917C159.669 392.917 159.637 392.953 159.603 392.955C158.413 393.436 157.256 393.915 156.117 394.41C156.117 394.41 156.101 394.428 156.086 394.446C156.07 394.464 156.02 394.484 155.986 394.486C155.31 394.782 154.649 395.061 154.04 395.353C153.183 395.745 152.359 396.136 151.553 396.541C149.049 397.714 146.518 399.024 143.944 400.488C143.928 400.506 143.912 400.524 143.879 400.526C141.846 401.669 139.816 402.879 137.76 404.226C127.355 410.85 118.127 418.97 110.089 428.5C105.871 433.345 101.465 439.401 97.3635 446.433L96.898 447.206C96.898 447.206 96.898 447.206 96.882 447.224C96.8661 447.242 96.8502 447.26 96.8342 447.278C95.7527 449.17 94.6889 451.079 93.6039 453.225C92.8676 454.623 92.0783 456.294 91.4448 457.719C91.4288 457.737 91.4129 457.755 91.3987 457.806C91.3386 457.945 91.2625 458.102 91.2023 458.241C90.1617 460.587 89.6768 461.631 88.9797 463.449C88.8895 463.657 88.8151 463.847 88.7408 464.038C87.9499 465.996 87.4332 467.397 86.8371 469.208C86.4426 470.365 86.064 471.503 85.6872 472.676C85.6571 472.745 85.643 472.797 85.6306 472.882C85.153 474.381 84.7268 475.894 84.3023 477.441C84.2882 477.493 84.274 477.544 84.244 477.614C83.8761 478.954 83.5419 480.293 83.2255 481.647C83.0062 482.607 82.803 483.548 82.6156 484.472C82.5502 484.831 82.4512 485.192 82.3858 485.55C80.4593 495.062 80.0272 502.823 80.0012 507.739C79.9944 508.246 79.9981 508.634 79.9929 508.854C79.9603 511.101 79.9879 513.21 80.0772 514.893C80.1058 515.432 80.1203 516.022 80.1684 516.61C80.1702 516.643 80.1737 516.711 80.1755 516.744L80.1827 516.879C80.3329 519.706 80.5861 523.202 81.2331 527.754C84.1361 549.031 92.3885 568.649 105.433 585.345C105.797 585.828 106.176 586.294 106.557 586.793C106.61 586.84 106.648 586.905 106.703 586.986C108.73 589.559 110.891 592.089 112.839 594.109C112.963 594.219 113.089 594.363 113.215 594.507C114.753 596.132 116.501 597.878 118.332 599.601C118.617 599.887 118.902 600.173 119.17 600.443L120.127 601.294C120.783 601.877 121.421 602.444 122.059 603.011C123.601 604.382 125.121 605.669 126.548 606.777C127.817 607.777 129.066 608.727 130.312 609.611C130.436 609.721 130.594 609.829 130.734 609.921C131.156 610.232 131.595 610.559 132.015 610.836C132.717 611.331 133.401 611.811 134.05 612.26C134.085 612.291 134.138 612.338 134.174 612.37C134.227 612.417 134.28 612.464 134.349 612.494C151.663 624.358 171.437 631.354 192.432 633.055C192.959 633.105 193.501 633.138 194.027 633.189C194.264 633.208 194.502 633.227 194.739 633.245C195.519 633.297 196.28 633.333 196.991 633.355C213.91 634.285 229.893 631.594 244.201 626.612C268.989 618.311 288.409 603.699 301.478 586.199C301.478 586.199 301.51 586.163 301.526 586.145C301.653 586.002 301.797 585.841 301.907 585.682C302.556 584.881 303.171 584.048 303.833 583.162C304.086 582.841 304.321 582.506 304.557 582.17C304.904 581.709 305.235 581.265 305.532 580.824C305.532 580.824 305.548 580.806 305.564 580.788C305.957 580.24 306.318 579.727 306.648 579.25C306.664 579.232 306.68 579.214 306.696 579.196C308.122 577.13 308.995 575.757 309.057 575.652C310.229 573.872 310.962 572.727 312.088 570.714C312.167 570.624 312.228 570.485 312.29 570.38C312.383 570.239 312.444 570.1 312.52 569.943C312.596 569.786 312.674 569.663 312.75 569.506C313.198 568.718 313.66 567.878 314.153 567.002L314.369 566.617L315.152 565.132C315.152 565.132 315.215 565.06 315.23 565.009L315.261 564.973C316.06 563.47 316.985 561.503 317.743 559.867C317.759 559.849 317.775 559.831 317.773 559.797C317.849 559.641 317.925 559.484 317.985 559.345C318.121 559.049 318.242 558.771 318.362 558.493C318.392 558.424 318.422 558.355 318.468 558.267C319.222 556.564 319.675 555.556 320.282 553.947C320.342 553.808 320.401 553.635 320.461 553.497C320.477 553.479 320.493 553.461 320.507 553.409C320.939 552.318 321.368 551.193 321.781 550.052C321.942 549.586 322.087 549.138 322.265 548.687C322.457 548.152 322.632 547.634 322.823 547.098C323.03 546.545 323.217 545.942 323.403 545.305C324.141 542.978 324.779 540.692 325.338 538.495C325.352 538.443 325.366 538.392 325.38 538.34C328.524 525.999 329.182 515.808 329.204 509.863C329.211 509.356 329.207 508.968 329.212 508.748C329.213 507.178 329.182 505.643 329.15 504.075C329.143 503.619 329.135 503.164 329.144 502.691C329.115 500.869 328.922 497.875 328.575 494.52C327.927 488.044 326.803 481.817 325.189 475.925C324.955 475.012 324.705 474.116 324.458 473.287C324.29 472.656 324.084 471.96 323.86 471.248C319.948 457.989 314.467 447.633 309.335 440.024C308.913 439.392 308.509 438.777 308.108 438.228C308.053 438.147 307.963 438.035 307.908 437.954C303.217 431.026 298.247 425.196 293.36 420.307C293.271 420.228 293.183 420.15 293.094 420.071L293.069 419.92Z" fill="url(#paint3_radial_193_3622)"/>
<g style="mix-blend-mode:screen" opacity="0.2">
<path d="M397.748 400.453C393.356 388.024 388.252 376.822 382.846 366.923C382.733 366.694 382.603 366.482 382.49 366.253C381.463 364.412 380.456 362.619 379.433 360.845C376.196 355.212 372.305 349.351 368.123 343.423C215.387 464.025 32.878 549.581 -154.638 589.855C-152.092 602.502 -148.63 614.906 -144.053 626.985C-143.617 628.206 -143.147 629.425 -142.677 630.644C-142.618 630.792 -142.56 630.94 -142.484 631.104C-139.978 637.594 -137.133 644.096 -134.371 649.371C-134.2 649.715 -133.996 650.056 -133.826 650.4C-133.75 650.563 -133.638 650.759 -133.528 650.921C56.5814 607.984 241.296 521.342 397.748 400.453ZM14.2998 773.526C13.8019 773.373 13.304 773.219 12.8062 773.065C11.6723 772.698 10.5738 772.363 9.43991 771.997C-25.906 760.782 -57.0126 742.597 -82.8148 718.42C93.1405 681.752 264.905 604.661 411.558 495.738C411.488 497.599 411.373 499.581 411.229 501.632C410.387 515.019 408.305 528.906 405.005 543.057C403.32 550.438 401.553 556.914 400.292 560.825C399.974 561.824 399.654 562.79 399.335 563.789C398.281 567.147 397.205 570.423 396.084 573.785C395.939 574.233 395.661 575.044 395.263 576.133C391.076 588.214 382.758 608.355 368.28 631.741C265.474 695.137 154.327 745.191 39.8028 779.681C32.8899 778.282 25.9929 776.865 19.117 774.89C17.5756 774.482 15.9988 774.043 14.3334 773.524L14.2998 773.526ZM-120.576 401.175C-120.359 400.823 -120.159 400.456 -119.941 400.105C-118.826 398.211 -117.744 396.319 -116.548 394.37C-114.887 391.614 -113.156 388.922 -111.407 386.245C-111.312 386.137 -111.267 386.016 -111.19 385.893C-109.175 382.811 -107.123 379.795 -105.003 376.807C-104.891 376.682 -104.815 376.525 -104.703 376.4C-103.054 374.084 -101.386 371.784 -99.6811 369.548C-99.1624 368.823 -98.688 368.219 -98.1816 367.579C-0.989669 336.439 93.4368 293.611 181.554 240.4C185.387 240.73 189.377 241.134 193.712 241.684C194.511 241.785 195.359 241.866 196.125 241.969C196.55 242.027 196.993 242.1 197.436 242.173C197.843 242.214 198.201 242.276 198.626 242.333C199.528 242.461 200.414 242.607 201.317 242.769C202.237 242.913 203.174 243.073 204.145 243.23C206.325 243.598 208.54 243.963 210.707 244.381C213.708 244.933 216.874 245.727 219.983 246.406C114.034 313.58 -1.49635 365.99 -120.576 401.175ZM-159.113 552.673C-159.951 532.761 -158.515 512.434 -154.472 491.923C-152.592 481.863 -150.582 474.258 -148.847 468.139L-148.762 467.83C-148.762 467.83 -148.705 467.624 -148.677 467.521C-148.307 466.215 -147.934 464.976 -147.591 463.806C-146.99 461.777 -146.254 459.417 -145.424 456.917C2.2154 419 145.323 352.985 271.332 263.892C273.945 265.092 276.53 266.075 279.151 267.41C280.451 268.053 281.754 268.729 283.074 269.421C283.526 269.663 283.976 269.87 284.427 270.111C285.592 270.729 286.756 271.347 287.922 271.998C292.686 274.597 297.375 277.353 301.468 280.029C318.394 290.646 330.745 301.267 339.253 309.822C342.135 312.575 344.647 315.351 347.275 318.103C196.361 429.779 21.2138 510.563 -159.097 552.655L-159.113 552.673ZM-94.6024 706.631C-96.8409 704.226 -99.1112 701.856 -101.254 699.343C-101.36 699.248 -101.453 699.102 -101.525 699.005C-101.614 698.927 -101.687 698.83 -101.759 698.733C-102.856 697.47 -103.975 696.124 -105.148 694.696C-105.852 693.847 -106.557 692.964 -107.263 692.08C-107.499 691.775 -107.733 691.503 -107.968 691.197C-109.723 688.997 -111.45 686.693 -113.213 684.325C73.2616 645.434 255.154 562.567 409.131 445.312C410.51 454.422 411.392 464.34 411.659 475.091C261.114 586.71 85.6525 666.669 -94.5846 706.647L-94.6024 706.631Z" fill="#C4DBFB"/>
</g>
</g>
<g filter="url(#filter1_d_193_3622)">
<path d="M80.5323 519.749C80.5947 520.604 80.6571 521.458 80.7532 522.311C50.9887 546.628 35.4671 569.281 41.9329 583.549C53.9247 609.974 136.673 597.942 226.389 556.697C316.122 515.434 379.359 460.369 367.383 433.926C362.488 423.161 345.898 418.779 321.849 420.157C313.99 420.607 305.304 421.698 296.023 423.349C295.451 422.746 294.877 422.109 294.253 421.492C333.882 414.392 362.636 417.697 369.542 432.931C382.071 460.567 318.267 517.048 227.349 558.858C174.326 583.241 123.624 597.308 88.0649 599.351C62.6526 600.799 44.9639 596.083 39.7427 584.581C32.8196 569.332 49.2118 545.276 80.5164 519.767L80.5323 519.749Z" fill="#FEFEFC"/>
</g>
<path d="M232.053 568.526C232.053 568.526 245.067 555.956 257.6 555.003C271.427 553.951 295.996 575.506 295.996 575.506C295.996 575.506 271.746 553.592 271.18 539.724C270.665 527.154 281.623 512.753 281.623 512.753C281.623 512.753 268.609 525.324 256.077 526.276C242.249 527.328 217.68 505.774 217.68 505.774C217.68 505.774 241.93 527.687 242.497 541.556C243.011 554.125 232.053 568.526 232.053 568.526Z" fill="#FEFEFC"/>
<path d="M113.752 495.069C113.752 495.069 122.331 486.774 130.607 486.144C139.725 485.46 155.932 499.666 155.932 499.666C155.932 499.666 139.948 485.209 139.565 476.065C139.226 467.764 146.458 458.269 146.458 458.269C146.458 458.269 137.879 466.565 129.603 467.195C120.485 467.878 104.278 453.672 104.278 453.672C104.278 453.672 120.262 468.129 120.645 477.273C120.984 485.574 113.752 495.069 113.752 495.069Z" fill="#FEFEFC"/>
<path d="M111.033 624.322C111.033 624.322 113.701 621.75 116.273 621.535C119.1 621.32 124.148 625.751 124.148 625.751C124.148 625.751 119.181 621.264 119.047 618.414C118.945 615.85 121.202 612.88 121.202 612.88C121.202 612.88 118.535 615.453 115.962 615.668C113.136 615.882 108.088 611.451 108.088 611.451C108.088 611.451 113.055 615.938 113.189 618.788C113.291 621.353 111.033 624.322 111.033 624.322Z" fill="#FEFEFC"/>
<path d="M259.421 482.771C259.421 482.771 263.358 478.985 267.109 478.694C271.264 478.378 278.669 484.875 278.669 484.875C278.669 484.875 271.36 478.271 271.19 474.103C271.023 470.325 274.34 465.985 274.34 465.985C274.34 465.985 270.403 469.772 266.652 470.063C262.497 470.379 255.092 463.882 255.092 463.882C255.092 463.882 262.401 470.486 262.571 474.654C262.738 478.432 259.421 482.771 259.421 482.771Z" fill="#FEFEFC"/>
</g>
<defs>
<filter id="filter0_d_193_3622" x="1151" y="98.4951" width="339.787" height="190.164" filterUnits="userSpaceOnUse" color-interpolation-filters="sRGB">
<feFlood flood-opacity="0" result="BackgroundImageFix"/>
<feColorMatrix in="SourceAlpha" type="matrix" values="0 0 0 0 0 0 0 0 0 0 0 0 0 0 0 0 0 0 127 0" result="hardAlpha"/>
<feOffset/>
<feGaussianBlur stdDeviation="5"/>
<feColorMatrix type="matrix" values="0 0 0 0 1 0 0 0 0 1 0 0 0 0 1 0 0 0 0.75 0"/>
<feBlend mode="normal" in2="BackgroundImageFix" result="effect1_dropShadow_193_3622"/>
<feBlend mode="normal" in="SourceGraphic" in2="effect1_dropShadow_193_3622" result="shape"/>
</filter>
<filter id="filter1_d_193_3622" x="28.1724" y="407.917" width="352.94" height="201.688" filterUnits="userSpaceOnUse" color-interpolation-filters="sRGB">
<feFlood flood-opacity="0" result="BackgroundImageFix"/>
<feColorMatrix in="SourceAlpha" type="matrix" values="0 0 0 0 0 0 0 0 0 0 0 0 0 0 0 0 0 0 127 0" result="hardAlpha"/>
<feOffset/>
<feGaussianBlur stdDeviation="5"/>
<feColorMatrix type="matrix" values="0 0 0 0 1 0 0 0 0 1 0 0 0 0 1 0 0 0 0.75 0"/>
<feBlend mode="normal" in2="BackgroundImageFix" result="effect1_dropShadow_193_3622"/>
<feBlend mode="normal" in="SourceGraphic" in2="effect1_dropShadow_193_3622" result="shape"/>
</filter>
<linearGradient id="paint0_linear_193_3622" x1="680.29" y1="162.535" x2="693.03" y2="455.294" gradientUnits="userSpaceOnUse">
<stop stop-color="#98D6FA"/>
<stop offset="1" stop-color="#27B1FF"/>
</linearGradient>
<linearGradient id="paint1_linear_193_3622" x1="642.275" y1="602.936" x2="642.657" y2="466.877" gradientUnits="userSpaceOnUse">
<stop stop-color="#315D93"/>
<stop offset="1" stop-color="#27B1FF"/>
</linearGradient>
<radialGradient id="paint2_radial_193_3622" cx="0" cy="0" r="1" gradientUnits="userSpaceOnUse" gradientTransform="translate(1377.58 184.878) rotate(45.3978) scale(144.052 144.051)">
<stop offset="0.03" stop-color="#1D66D3"/>
<stop offset="0.59" stop-color="#008CDC"/>
<stop offset="1" stop-color="#0C4497"/>
</radialGradient>
<radialGradient id="paint3_radial_193_3622" cx="0" cy="0" r="1" gradientUnits="userSpaceOnUse" gradientTransform="translate(250.995 470.289) rotate(-93.4203) scale(150.412 150.523)">
<stop offset="0.03" stop-color="#109867"/>
<stop offset="0.59" stop-color="#34D399"/>
<stop offset="1" stop-color="#D1FAE5"/>
</radialGradient>
<clipPath id="clip0_193_3622">
<rect width="1440" height="674" fill="white"/>
</clipPath>
</defs>
</svg>
