<svg width="109" height="108" viewBox="0 0 109 108" fill="none" xmlns="http://www.w3.org/2000/svg">
<g id="AIPractice">
<mask id="mask0_1795_2253" style="mask-type:alpha" maskUnits="userSpaceOnUse" x="0" y="0" width="109" height="108">
<rect id="Bounding box" x="0.5" width="108" height="108" fill="#D9D9D9"/>
</mask>
<g mask="url(#mask0_1795_2253)">
<path id="icon" d="M57.1634 38.2198L57.7237 38.5C59.9883 39.6673 61.8327 41.5117 63 43.7763L63.2801 44.3366C64.4008 46.5545 67.5759 46.5545 68.7198 44.3366L69 43.7763C70.1673 41.5117 72.0117 39.6673 74.2763 38.5L74.8366 38.2198C77.0545 37.0992 77.0545 33.9241 74.8366 32.7802L74.2763 32.5C72.0117 31.3327 70.1673 29.4883 69 27.2237L68.7198 26.6634C67.5992 24.4455 64.4241 24.4455 63.2801 26.6634L63 27.2237C61.8327 29.4883 59.9883 31.3327 57.7237 32.5L57.1634 32.7802C54.9455 33.9008 54.9455 37.0759 57.1634 38.2198Z" fill="white"/>
<path id="icon_2" d="M37.7179 56.6265L38.465 57C41.4844 58.5564 43.9436 61.0156 45.5 64.035L45.8735 64.7821C47.3677 67.7393 51.6012 67.7393 53.1264 64.7821L53.5 64.035C55.0564 61.0156 57.5156 58.5564 60.535 57L61.2821 56.6265C64.2393 55.1323 64.2393 50.8988 61.2821 49.3735L60.535 49C57.5156 47.4436 55.0564 44.9844 53.5 41.965L53.1264 41.2179C51.6323 38.2607 47.3988 38.2607 45.8735 41.2179L45.5 41.965C43.9436 44.9844 41.4844 47.4436 38.465 49L37.7179 49.3735C34.7607 50.8677 34.7607 55.1012 37.7179 56.6265Z" fill="white"/>
<path id="computer" d="M5.55864 99C4.12536 99 2.92393 98.5168 1.95436 97.5504C0.984787 96.5841 0.5 95.3866 0.5 93.9581C0.5 92.5376 0.984787 91.347 1.95436 90.3862C2.92393 89.4253 4.12536 88.9449 5.55864 88.9449H103.441C104.875 88.9449 106.076 89.4254 107.046 90.3863C108.015 91.3473 108.5 92.538 108.5 93.9586C108.5 95.3791 108.015 96.5744 107.046 97.5447C106.076 98.5149 104.875 99 103.441 99H5.55864ZM16.2244 84.1331C13.1842 84.1331 10.5937 83.0661 8.45264 80.9322C6.31169 78.7982 5.24122 76.2162 5.24122 73.1862V20.9469C5.24122 17.9169 6.31177 15.3349 8.45288 13.2009C10.5938 11.067 13.1844 10 16.2245 10H92.7758C95.8159 10 98.4065 11.067 100.547 13.2009C102.689 15.3349 103.759 17.9169 103.759 20.9469V73.1862C103.759 76.2162 102.689 78.7982 100.547 80.9322C98.4065 83.0661 95.8159 84.1331 92.7758 84.1331H16.2244ZM16.2244 73.1862H92.7757V20.9469H16.2244V73.1862Z" fill="white"/>
</g>
</g>
</svg>
