<svg width="40" height="40" viewBox="0 0 40 40" fill="none" xmlns="http://www.w3.org/2000/svg">
<g id="AIQuestions">
<mask id="mask0_3142_562" style="mask-type:alpha" maskUnits="userSpaceOnUse" x="0" y="0" width="40" height="40">
<rect id="Bounding box" width="40" height="40" fill="#D9D9D9"/>
</mask>
<g mask="url(#mask0_3142_562)">
<path id="icon" d="M30.3335 25.5957L30.5707 25.7143C31.5292 26.2084 32.3099 26.9891 32.804 27.9476L32.9226 28.1848C33.3969 29.1236 34.7409 29.1236 35.2251 28.1848L35.3437 27.9476C35.8378 26.9891 36.6185 26.2084 37.577 25.7143L37.8142 25.5957C38.753 25.1214 38.753 23.7774 37.8142 23.2932L37.577 23.1746C36.6185 22.6805 35.8378 21.8998 35.3437 20.9413L35.2251 20.7041C34.7508 19.7653 33.4068 19.7653 32.9226 20.7041L32.804 20.9413C32.3099 21.8998 31.5292 22.6805 30.5707 23.1746L30.3335 23.2932C29.3947 23.7675 29.3947 25.1115 30.3335 25.5957Z" fill="url(#paint0_radial_3142_562)"/>
<path id="icon_2" d="M22.4789 34.9642L22.8149 35.1322C24.1729 35.8322 25.2788 36.9382 25.9788 38.2961L26.1468 38.6321C26.8188 39.9621 28.7227 39.9621 29.4087 38.6321L29.5767 38.2961C30.2767 36.9382 31.3826 35.8322 32.7406 35.1322L33.0766 34.9642C34.4065 34.2923 34.4065 32.3883 33.0766 31.7023L32.7406 31.5343C31.3826 30.8344 30.2767 29.7284 29.5767 28.3704L29.4087 28.0345C28.7367 26.7045 26.8328 26.7045 26.1468 28.0345L25.9788 28.3704C25.2788 29.7284 24.1729 30.8344 22.8149 31.5343L22.4789 31.7023C21.149 32.3743 21.149 34.2783 22.4789 34.9642Z" fill="url(#paint1_radial_3142_562)"/>
<g id="Exclude">
<path d="M4.05941 35.1841C4.80083 35.9255 5.69212 36.2962 6.73327 36.2962H19.3691C19.0851 35.7283 18.8406 35.1289 18.6355 34.4979C18.4305 33.8669 18.2806 33.2043 18.186 32.5102H6.73327V17.5082V17.3662V6.00818H33.2353V17.5082C33.8979 17.6028 34.5447 17.7527 35.1757 17.9578C35.8067 18.1628 36.4219 18.4074 37.0213 18.6913V6.00818C37.0213 4.96702 36.6506 4.07573 35.9092 3.33431C35.1678 2.59288 34.2765 2.22217 33.2353 2.22217H6.73327C5.69212 2.22217 4.80083 2.59288 4.05941 3.33431C3.31798 4.07573 2.94727 4.96702 2.94727 6.00818V32.5102C2.94727 33.5514 3.31798 34.4427 4.05941 35.1841Z" fill="url(#paint2_radial_3142_562)"/>
<path d="M18.2333 28.7242H10.5193V24.9382H19.3691C19.1167 25.5377 18.8879 26.1529 18.6829 26.7839C18.4778 27.4149 18.3279 28.0617 18.2333 28.7242Z" fill="url(#paint3_radial_3142_562)"/>
<path d="M22.0666 21.1522H10.5193V17.3662H29.4493V17.5082C28.0296 17.729 26.6966 18.155 25.4504 18.786C24.2041 19.417 23.0762 20.2057 22.0666 21.1522Z" fill="url(#paint4_radial_3142_562)"/>
<path d="M29.4493 13.5802H10.5193V9.79418H29.4493V13.5802Z" fill="url(#paint5_radial_3142_562)"/>
</g>
</g>
</g>
<defs>
<radialGradient id="paint0_radial_3142_562" cx="0" cy="0" r="1" gradientUnits="userSpaceOnUse" gradientTransform="translate(32.5701 17.963) rotate(82.3355) scale(11.0244 12.9079)">
<stop stop-color="#4CE1EA"/>
<stop offset="0.672951" stop-color="#1FA1A9"/>
</radialGradient>
<radialGradient id="paint1_radial_3142_562" cx="0" cy="0" r="1" gradientUnits="userSpaceOnUse" gradientTransform="translate(25.6474 24.1512) rotate(82.3355) scale(15.6179 18.2862)">
<stop stop-color="#4CE1EA"/>
<stop offset="0.672951" stop-color="#1FA1A9"/>
</radialGradient>
<radialGradient id="paint2_radial_3142_562" cx="0" cy="0" r="1" gradientUnits="userSpaceOnUse" gradientTransform="translate(14.2199 -5.58647) rotate(82.3355) scale(42.2603 49.4802)">
<stop stop-color="#4CE1EA"/>
<stop offset="0.672951" stop-color="#1FA1A9"/>
</radialGradient>
<radialGradient id="paint3_radial_3142_562" cx="0" cy="0" r="1" gradientUnits="userSpaceOnUse" gradientTransform="translate(14.2199 -5.58647) rotate(82.3355) scale(42.2603 49.4802)">
<stop stop-color="#4CE1EA"/>
<stop offset="0.672951" stop-color="#1FA1A9"/>
</radialGradient>
<radialGradient id="paint4_radial_3142_562" cx="0" cy="0" r="1" gradientUnits="userSpaceOnUse" gradientTransform="translate(14.2199 -5.58647) rotate(82.3355) scale(42.2603 49.4802)">
<stop stop-color="#4CE1EA"/>
<stop offset="0.672951" stop-color="#1FA1A9"/>
</radialGradient>
<radialGradient id="paint5_radial_3142_562" cx="0" cy="0" r="1" gradientUnits="userSpaceOnUse" gradientTransform="translate(14.2199 -5.58647) rotate(82.3355) scale(42.2603 49.4802)">
<stop stop-color="#4CE1EA"/>
<stop offset="0.672951" stop-color="#1FA1A9"/>
</radialGradient>
</defs>
</svg>
