<svg width="109" height="108" viewBox="0 0 109 108" fill="none" xmlns="http://www.w3.org/2000/svg">
<g id="AIQuestions">
<mask id="mask0_1795_2258" style="mask-type:alpha" maskUnits="userSpaceOnUse" x="0" y="0" width="109" height="108">
<rect id="Bounding box" x="0.5" width="108" height="108" fill="#D9D9D9"/>
</mask>
<g mask="url(#mask0_1795_2258)">
<path id="icon" d="M82.4011 69.1084L83.0414 69.4286C85.6295 70.7626 87.7373 72.8705 89.0714 75.4586L89.3916 76.0989C90.6723 78.6337 94.301 78.6337 95.6084 76.0989L95.9286 75.4586C97.2626 72.8705 99.3705 70.7626 101.959 69.4286L102.599 69.1084C105.134 67.8277 105.134 64.199 102.599 62.8916L101.959 62.5714C99.3705 61.2374 97.2626 59.1295 95.9286 56.5414L95.6084 55.9011C94.3277 53.3663 90.699 53.3663 89.3916 55.9011L89.0714 56.5414C87.7373 59.1295 85.6295 61.2374 83.0414 62.5714L82.4011 62.8916C79.8663 64.1723 79.8663 67.801 82.4011 69.1084Z" fill="white"/>
<path id="icon_2" d="M61.1932 94.4036L62.1003 94.8571C65.7668 96.7471 68.7529 99.7332 70.6428 103.4L71.0964 104.307C72.9108 107.898 78.0514 107.898 79.9036 104.307L80.3571 103.4C82.2471 99.7332 85.2332 96.7471 88.8997 94.8571L89.8068 94.4036C93.3977 92.5892 93.3977 87.4486 89.8068 85.5964L88.8997 85.1429C85.2332 83.2529 82.2471 80.2668 80.3571 76.6003L79.9036 75.6932C78.0892 72.1023 72.9486 72.1023 71.0964 75.6932L70.6428 76.6003C68.7529 80.2668 65.7668 83.2529 62.1003 85.1429L61.1932 85.5964C57.6023 87.4108 57.6023 92.5514 61.1932 94.4036Z" fill="white"/>
<g id="Exclude">
<path d="M11.4598 94.9972C13.4617 96.9991 15.8681 98 18.6793 98H52.7959C52.0293 96.4667 51.3691 94.8482 50.8154 93.1445C50.2617 91.4408 49.857 89.6519 49.6015 87.7778H18.6793V47.2722V46.8889V16.2222H90.2348V47.2722C92.0237 47.5278 93.77 47.9324 95.4737 48.4861C97.1774 49.0398 98.8385 49.7 100.457 50.4667V16.2222C100.457 13.4111 99.4561 11.0046 97.4543 9.00278C95.4524 7.00093 93.0459 6 90.2348 6H18.6793C15.8681 6 13.4617 7.00093 11.4598 9.00278C9.45796 11.0046 8.45703 13.4111 8.45703 16.2222V87.7778C8.45703 90.5889 9.45796 92.9954 11.4598 94.9972Z" fill="white"/>
<path d="M49.7293 77.5556H28.9015V67.3333H52.7959C52.1144 68.9519 51.4968 70.613 50.9431 72.3167C50.3894 74.0204 49.9848 75.7667 49.7293 77.5556Z" fill="white"/>
<path d="M60.0793 57.1111H28.9015V46.8889H80.0126V47.2722C76.1793 47.8685 72.5802 49.0185 69.2154 50.7222C65.8505 52.4259 62.8052 54.5556 60.0793 57.1111Z" fill="white"/>
<path d="M80.0126 36.6667H28.9015V26.4444H80.0126V36.6667Z" fill="white"/>
</g>
</g>
</g>
</svg>
