<svg width="90" height="90" viewBox="0 0 90 90" fill="none" xmlns="http://www.w3.org/2000/svg">
<g clip-path="url(#clip0_2642_700)">
<g clip-path="url(#clip1_2642_700)">
<path d="M77 5H13C8.58172 5 5 8.58172 5 13V77C5 81.4183 8.58172 85 13 85H77C81.4183 85 85 81.4183 85 77V13C85 8.58172 81.4183 5 77 5Z" fill="#1B2A3D"/>
<g clip-path="url(#clip2_2642_700)">
<path d="M76.4667 5H13.5333C8.8205 5 5 8.8205 5 13.5333V76.4667C5 81.1795 8.8205 85 13.5333 85H76.4667C81.1795 85 85 81.1795 85 76.4667V13.5333C85 8.8205 81.1795 5 76.4667 5Z" fill="#1E293B"/>
<mask id="mask0_2642_700" style="mask-type:luminance" maskUnits="userSpaceOnUse" x="5" y="5" width="80" height="80">
<path d="M76.4667 5H13.5333C8.8205 5 5 8.8205 5 13.5333V76.4667C5 81.1795 8.8205 85 13.5333 85H76.4667C81.1795 85 85 81.1795 85 76.4667V13.5333C85 8.8205 81.1795 5 76.4667 5Z" fill="white"/>
</mask>
<g mask="url(#mask0_2642_700)">
<path d="M73.0265 42.2748H73.0051C72.8291 42.2748 72.6531 42.2748 72.4771 42.2694L72.5145 40.6694C72.6798 40.6694 72.8451 40.6748 73.0051 40.6748L73.0265 42.2748ZM73.5758 42.2694L73.5331 40.6694C73.7038 40.6694 73.8745 40.6588 74.0451 40.6534L74.1198 42.2534C73.9385 42.2641 73.7518 42.2694 73.5705 42.2748L73.5758 42.2694ZM71.9278 42.2534C71.7411 42.2428 71.5598 42.2321 71.3785 42.2214L71.4905 40.6268C71.6611 40.6374 71.8318 40.6481 72.0025 40.6588L71.9278 42.2588V42.2534ZM74.6745 42.2161L74.5571 40.6214C74.7278 40.6108 74.8985 40.5948 75.0691 40.5788L75.2185 42.1734C75.0371 42.1894 74.8558 42.2054 74.6691 42.2214L74.6745 42.2161ZM70.8291 42.1734C70.6478 42.1574 70.4611 42.1361 70.2798 42.1148L70.4665 40.5254C70.6371 40.5468 70.8025 40.5628 70.9731 40.5788L70.8238 42.1734H70.8291ZM75.7731 42.1094L75.5811 40.5201C75.7518 40.4988 75.9225 40.4774 76.0878 40.4508L76.3118 42.0348C76.1305 42.0614 75.9491 42.0828 75.7678 42.1041L75.7731 42.1094ZM69.7411 42.0454C69.5598 42.0188 69.3785 41.9921 69.1971 41.9601L69.4638 40.3814C69.6291 40.4081 69.7998 40.4348 69.9705 40.4614L69.7465 42.0454H69.7411ZM76.8665 41.9548L76.5998 40.3761C76.7705 40.3494 76.9358 40.3174 77.1065 40.2854L77.4105 41.8588C77.2291 41.8908 77.0531 41.9281 76.8718 41.9548H76.8665ZM68.6531 41.8641C68.4718 41.8321 68.2905 41.7948 68.1145 41.7521L68.4505 40.1894C68.6158 40.2268 68.7865 40.2588 68.9518 40.2908L68.6531 41.8641ZM77.9438 41.7468L77.6025 40.1841C77.7678 40.1468 77.9385 40.1094 78.1038 40.0668L78.4825 41.6241C78.3065 41.6668 78.1251 41.7094 77.9438 41.7468ZM67.5758 41.6348C67.3945 41.5921 67.2185 41.5441 67.0425 41.5014L67.4531 39.9548C67.6185 39.9974 67.7838 40.0401 67.9491 40.0828L67.5758 41.6401V41.6348ZM79.0105 41.4908L78.5945 39.9441C78.7598 39.9014 78.9251 39.8534 79.0851 39.8054L79.5385 41.3414C79.3625 41.3948 79.1865 41.4428 79.0051 41.4908H79.0105ZM66.5091 41.3521C66.3331 41.2988 66.1571 41.2454 65.9811 41.1921L66.4718 39.6668C66.6318 39.7201 66.7971 39.7681 66.9625 39.8161L66.5145 41.3521H66.5091ZM80.0665 41.1814L79.5758 39.6561C79.7411 39.6028 79.9011 39.5494 80.0611 39.4961L80.5838 41.0054C80.4131 41.0641 80.2371 41.1228 80.0611 41.1814H80.0665ZM65.4585 41.0214C65.2825 40.9628 65.1118 40.8988 64.9411 40.8348L65.4958 39.3361C65.6558 39.3948 65.8158 39.4534 65.9811 39.5121L65.4585 41.0268V41.0214ZM81.1065 40.8241L80.5465 39.3254C80.7065 39.2668 80.8665 39.2028 81.0211 39.1388L81.6185 40.6214C81.4478 40.6908 81.2771 40.7548 81.1065 40.8188V40.8241ZM64.4238 40.6374C64.2531 40.5681 64.0825 40.4988 63.9118 40.4241L64.5411 38.9521C64.7011 39.0214 64.8558 39.0854 65.0158 39.1494L64.4238 40.6374ZM82.1251 40.4134L81.4905 38.9414C81.6451 38.8721 81.8051 38.8028 81.9598 38.7334L82.6265 40.1894C82.4611 40.2641 82.2958 40.3388 82.1251 40.4134ZM63.4051 40.2001C63.2398 40.1254 63.0691 40.0454 62.9038 39.9654L63.6025 38.5254C63.7571 38.6001 63.9118 38.6748 64.0665 38.7441L63.4051 40.2001ZM83.1225 39.9548L82.4185 38.5148C82.5731 38.4401 82.7225 38.3654 82.8771 38.2854L83.6131 39.7094C83.4531 39.7948 83.2878 39.8748 83.1225 39.9548ZM62.4131 39.7201C62.2478 39.6348 62.0878 39.5494 61.9278 39.4641L62.6958 38.0614C62.8451 38.1414 62.9998 38.2214 63.1491 38.3014L62.4131 39.7254V39.7201ZM84.0985 39.4534L83.3305 38.0508C83.4798 37.9708 83.6291 37.8854 83.7731 37.8001L84.5731 39.1868C84.4131 39.2774 84.2531 39.3681 84.0931 39.4588L84.0985 39.4534ZM61.4478 39.1921C61.2878 39.1014 61.1331 39.0054 60.9731 38.9094L61.8051 37.5441C61.9491 37.6348 62.0985 37.7201 62.2478 37.8054L61.4478 39.1921ZM85.0478 38.9041L84.2158 37.5388C84.3598 37.4481 84.5038 37.3574 84.6478 37.2668L85.5118 38.6108C85.3571 38.7121 85.2025 38.8081 85.0478 38.9041ZM60.5038 38.6214C60.3491 38.5201 60.1945 38.4188 60.0451 38.3174L60.9411 36.9948C61.0851 37.0908 61.2238 37.1868 61.3678 37.2774L60.5038 38.6214ZM85.9705 38.3121L85.0691 36.9894C85.2131 36.8934 85.3518 36.7974 85.4905 36.6961L86.4185 37.9974C86.2691 38.1041 86.1198 38.2054 85.9705 38.3121ZM59.5918 38.0028C59.4425 37.8961 59.2931 37.7894 59.1491 37.6774L60.1091 36.3974C60.2478 36.4988 60.3865 36.6001 60.5251 36.7014L59.5971 38.0028H59.5918ZM86.8665 37.6721L85.9065 36.3921C86.0451 36.2908 86.1785 36.1841 86.3118 36.0828L87.2985 37.3414C87.1545 37.4534 87.0105 37.5654 86.8611 37.6774L86.8665 37.6721ZM58.7118 37.3414C58.5678 37.2294 58.4238 37.1121 58.2851 36.9948L59.3038 35.7628C59.4371 35.8694 59.5705 35.9814 59.7038 36.0828L58.7118 37.3414ZM87.7305 36.9894L86.7118 35.7574C86.8451 35.6508 86.9731 35.5388 87.1011 35.4268L88.1518 36.6374C88.0131 36.7601 87.8745 36.8774 87.7305 36.9948V36.9894ZM57.8638 36.6374C57.7251 36.5148 57.5865 36.3974 57.4531 36.2748L58.5305 35.0908C58.6585 35.2081 58.7865 35.3201 58.9145 35.4321L57.8691 36.6428L57.8638 36.6374ZM88.5625 36.2641L87.4851 35.0801C87.6131 34.9628 87.7358 34.8508 87.8585 34.7281L88.9625 35.8854C88.8291 36.0134 88.6958 36.1361 88.5625 36.2588V36.2641ZM57.0478 35.8961C56.9145 35.7681 56.7865 35.6401 56.6531 35.5121L57.7838 34.3814C57.9065 34.5041 58.0291 34.6214 58.1518 34.7388L57.0478 35.8961ZM89.3571 35.5068L88.2265 34.3761C88.3491 34.2534 88.4665 34.1308 88.5838 34.0081L89.7411 35.1121C89.6131 35.2454 89.4851 35.3734 89.3571 35.5068ZM56.2691 35.1174C56.1411 34.9841 56.0185 34.8508 55.8958 34.7174L57.0798 33.6401C57.1971 33.7681 57.3145 33.8908 57.4318 34.0134L56.2745 35.1174H56.2691ZM90.1198 34.7121L88.9358 33.6348C89.0531 33.5068 89.1651 33.3788 89.2771 33.2508L90.4878 34.3014C90.3651 34.4401 90.2478 34.5788 90.1198 34.7121ZM55.5331 34.3068C55.4105 34.1681 55.2931 34.0294 55.1758 33.8854L56.4078 32.8668C56.5145 33.0001 56.6265 33.1281 56.7385 33.2561L55.5331 34.3068ZM90.8451 33.8801L89.6131 32.8614C89.7198 32.7281 89.8318 32.5948 89.9331 32.4614L91.1918 33.4534C91.0798 33.5974 90.9625 33.7414 90.8451 33.8801ZM54.8345 33.4588C54.7225 33.3148 54.6105 33.1708 54.4985 33.0214L55.7785 32.0614C55.8798 32.2001 55.9865 32.3334 56.0878 32.4668L54.8345 33.4588ZM91.5278 33.0161L90.2478 32.0561C90.3491 31.9174 90.4505 31.7788 90.5518 31.6401L91.8531 32.5681C91.7465 32.7174 91.6398 32.8668 91.5278 33.0108V33.0161ZM54.1731 32.5841C54.0665 32.4348 53.9598 32.2854 53.8585 32.1308L55.1811 31.2348C55.2771 31.3734 55.3731 31.5174 55.4745 31.6561L54.1731 32.5894V32.5841ZM92.1678 32.1201L90.8451 31.2241C90.9411 31.0854 91.0371 30.9414 91.1278 30.7974L92.4718 31.6614C92.3705 31.8161 92.2691 31.9708 92.1678 32.1201ZM53.5545 31.6721C53.4531 31.5174 53.3571 31.3628 53.2611 31.2081L54.6265 30.3708C54.7171 30.5148 54.8078 30.6588 54.8985 30.8028L53.5545 31.6721ZM92.7651 31.1921L91.3998 30.3601C91.4905 30.2161 91.5758 30.0668 91.6611 29.9174L93.0478 30.7174C92.9571 30.8774 92.8611 31.0321 92.7651 31.1921ZM52.9838 30.7334C52.8931 30.5734 52.8025 30.4188 52.7171 30.2588L54.1198 29.4854C54.2051 29.6348 54.2851 29.7841 54.3705 29.9334L52.9838 30.7334ZM93.3198 30.2374L91.9171 29.4694C91.9971 29.3201 92.0771 29.1708 92.1571 29.0161L93.5811 29.7521C93.4958 29.9174 93.4105 30.0774 93.3198 30.2374ZM52.4558 29.7681C52.3705 29.6028 52.2905 29.4428 52.2105 29.2774L53.6505 28.5734C53.7251 28.7281 53.7998 28.8774 53.8798 29.0268L52.4611 29.7628L52.4558 29.7681ZM93.8211 29.2561L92.3811 28.5521C92.4558 28.3974 92.5305 28.2428 92.5998 28.0881L94.0558 28.7548C93.9811 28.9201 93.9011 29.0908 93.8211 29.2561ZM51.9705 28.7814C51.8958 28.6161 51.8211 28.4508 51.7465 28.2801L53.2131 27.6454C53.2825 27.8001 53.3518 27.9548 53.4211 28.1094L51.9651 28.7761L51.9705 28.7814ZM94.2798 28.2534L92.8078 27.6241C92.8771 27.4694 92.9411 27.3094 93.0051 27.1494L94.4931 27.7468C94.4238 27.9174 94.3545 28.0881 94.2798 28.2588V28.2534ZM51.5385 27.7734C51.4691 27.6028 51.4051 27.4321 51.3411 27.2614L52.8398 26.7014C52.8985 26.8614 52.9625 27.0214 53.0265 27.1761L51.5438 27.7734H51.5385ZM94.6905 27.2241L93.1918 26.6641C93.2505 26.5041 93.3091 26.3441 93.3678 26.1788L94.8825 26.7014C94.8238 26.8774 94.7598 27.0481 94.6958 27.2241H94.6905ZM51.1491 26.7388C51.0905 26.5681 51.0318 26.3921 50.9731 26.2161L52.4985 25.7254C52.5518 25.8908 52.6051 26.0508 52.6585 26.2108L51.1491 26.7334V26.7388ZM95.0478 26.1788L93.5225 25.6934C93.5758 25.5334 93.6238 25.3681 93.6718 25.2028L95.2078 25.6508C95.1545 25.8268 95.1011 26.0028 95.0478 26.1788ZM50.8131 25.6881C50.7598 25.5121 50.7118 25.3361 50.6638 25.1548L52.2105 24.7388C52.2531 24.9041 52.3011 25.0694 52.3491 25.2294L50.8131 25.6828V25.6881ZM95.3625 25.1174L93.8158 24.7068C93.8585 24.5414 93.9011 24.3761 93.9438 24.2108L95.5011 24.5894C95.4585 24.7654 95.4105 24.9468 95.3678 25.1228L95.3625 25.1174ZM50.5305 24.6214C50.4878 24.4454 50.4451 24.2641 50.4078 24.0828L51.9705 23.7414C52.0078 23.9068 52.0451 24.0721 52.0878 24.2374L50.5358 24.6161L50.5305 24.6214ZM95.6238 24.0454L94.0611 23.7094C94.0985 23.5441 94.1305 23.3734 94.1625 23.2081L95.7358 23.5068C95.7038 23.6881 95.6665 23.8641 95.6238 24.0454ZM50.2958 23.5494C50.2638 23.3681 50.2265 23.1921 50.1998 23.0108L51.7785 22.7441C51.8051 22.9148 51.8371 23.0801 51.8691 23.2508L50.2958 23.5548V23.5494ZM95.8265 22.9681L94.2478 22.7014C94.2745 22.5361 94.3011 22.3654 94.3278 22.1948L95.9118 22.4188C95.8851 22.6001 95.8585 22.7814 95.8265 22.9628V22.9681ZM50.1091 22.4668C50.0825 22.2854 50.0611 22.1041 50.0345 21.9228L51.6238 21.7308C51.6451 21.9014 51.6665 22.0721 51.6931 22.2374L50.1091 22.4668ZM95.9811 21.8801L94.3918 21.6934C94.4131 21.5228 94.4291 21.3521 94.4451 21.1868L96.0398 21.3361C96.0238 21.5174 96.0025 21.7041 95.9811 21.8854V21.8801ZM49.9811 21.3734C49.9651 21.1921 49.9491 21.0108 49.9331 20.8241L51.5278 20.7068C51.5385 20.8774 51.5545 21.0481 51.5705 21.2188L49.9758 21.3734H49.9811ZM96.0878 20.7868L94.4931 20.6748C94.5038 20.5041 94.5145 20.3334 94.5251 20.1628L96.1251 20.2374C96.1145 20.4188 96.1038 20.6054 96.0931 20.7868H96.0878ZM49.9011 20.2801C49.8905 20.0988 49.8851 19.9121 49.8798 19.7308L51.4798 19.6881C51.4798 19.8588 51.4905 20.0294 51.5011 20.2001L49.9011 20.2801ZM96.1358 19.6881L94.5358 19.6508C94.5358 19.4801 94.5411 19.3094 94.5411 19.1388V19.0588H96.1411V19.1388C96.1411 19.3201 96.1411 19.5068 96.1358 19.6881ZM49.8691 19.1761V19.1388C49.8691 18.9681 49.8691 18.7974 49.8745 18.6321L51.4745 18.6641C51.4745 18.8241 51.4745 18.9788 51.4745 19.1388L49.8745 19.1761H49.8691ZM94.5305 18.5521C94.5305 18.3814 94.5198 18.2108 94.5091 18.0401L96.1091 17.9601C96.1198 18.1414 96.1251 18.3281 96.1305 18.5094L94.5305 18.5521ZM51.4905 18.1521L49.8905 18.0774C49.9011 17.8961 49.9118 17.7094 49.9225 17.5281L51.5171 17.6348C51.5065 17.8054 51.4958 17.9761 51.4905 18.1468V18.1521ZM94.4771 17.5281C94.4665 17.3574 94.4505 17.1868 94.4345 17.0161L96.0291 16.8614C96.0451 17.0428 96.0611 17.2241 96.0771 17.4108L94.4825 17.5281H94.4771ZM51.5598 17.1281L49.9651 16.9788C49.9811 16.7974 50.0025 16.6161 50.0238 16.4348L51.6131 16.6161C51.5918 16.7868 51.5758 16.9574 51.5598 17.1281ZM94.3811 16.5094C94.3598 16.3388 94.3385 16.1681 94.3118 16.0028L95.8958 15.7734C95.9225 15.9548 95.9438 16.1361 95.9705 16.3174L94.3811 16.5148V16.5094ZM51.6825 16.1148L50.0985 15.8908C50.1251 15.7094 50.1518 15.5281 50.1838 15.3468L51.7625 15.6081C51.7358 15.7788 51.7091 15.9441 51.6825 16.1148ZM94.2371 15.4961C94.2105 15.3254 94.1785 15.1601 94.1465 14.9894L95.7145 14.6801C95.7518 14.8614 95.7838 15.0374 95.8158 15.2188L94.2371 15.4908V15.4961ZM51.8531 15.1014L50.2798 14.8028C50.3118 14.6214 50.3491 14.4454 50.3865 14.2641L51.9491 14.6001C51.9118 14.7654 51.8798 14.9361 51.8478 15.1014H51.8531ZM94.0451 14.4881C94.0078 14.3228 93.9705 14.1574 93.9278 13.9921L95.4798 13.6081C95.5225 13.7841 95.5651 13.9654 95.6025 14.1468L94.0398 14.4881H94.0451ZM52.0718 14.0988L50.5145 13.7254C50.5571 13.5494 50.5998 13.3681 50.6478 13.1921L52.1945 13.6028C52.1518 13.7681 52.1091 13.9334 52.0665 14.0988H52.0718ZM93.8051 13.4908C93.7625 13.3254 93.7145 13.1601 93.6665 13.0001L95.2025 12.5468C95.2558 12.7228 95.3038 12.8988 95.3518 13.0748L93.8051 13.4908ZM52.3385 13.1068L50.8025 12.6588C50.8558 12.4828 50.9091 12.3068 50.9625 12.1308L52.4878 12.6161C52.4345 12.7761 52.3865 12.9414 52.3385 13.1068ZM93.5171 12.5094C93.4638 12.3441 93.4105 12.1841 93.3518 12.0241L94.8611 11.4961C94.9198 11.6668 94.9785 11.8428 95.0371 12.0188L93.5171 12.5094ZM52.6478 12.1254L51.1331 11.6081C51.1918 11.4321 51.2558 11.2614 51.3198 11.0854L52.8185 11.6454C52.7598 11.8054 52.7011 11.9654 52.6478 12.1308V12.1254ZM93.1758 11.5388C93.1171 11.3788 93.0531 11.2188 92.9891 11.0641L94.4718 10.4614C94.5411 10.6321 94.6051 10.8028 94.6745 10.9734L93.1758 11.5388ZM53.0051 11.1601L51.5171 10.5681C51.5865 10.3974 51.6558 10.2268 51.7305 10.0561L53.2025 10.6854C53.1331 10.8454 53.0691 11.0001 53.0051 11.1601ZM92.7918 10.5894C92.7225 10.4348 92.6531 10.2801 92.5838 10.1254L94.0345 9.45343C94.1091 9.61876 94.1838 9.78943 94.2585 9.95476L92.7918 10.5894ZM53.4051 10.2161L51.9491 9.55476C52.0238 9.38943 52.1038 9.21876 52.1838 9.05343L53.6238 9.7521C53.5491 9.90676 53.4745 10.0614 53.4051 10.2161ZM92.3598 9.66143C92.2851 9.50676 92.2105 9.35743 92.1305 9.20809L93.5491 8.46676C93.6345 8.6321 93.7145 8.7921 93.7998 8.95743L92.3598 9.66143ZM53.8531 9.29343L52.4291 8.56276C52.5145 8.39743 52.5998 8.23743 52.6851 8.07743L54.0878 8.84543C54.0078 8.99476 53.9278 9.14943 53.8478 9.29876L53.8531 9.29343ZM91.8905 8.7601C91.8051 8.61076 91.7251 8.46143 91.6398 8.3121L93.0211 7.50676C93.1118 7.66676 93.2025 7.82143 93.2931 7.98143L91.8958 8.75476L91.8905 8.7601ZM54.3438 8.3921L52.9571 7.5921C53.0478 7.4321 53.1438 7.27209 53.2398 7.11743L54.6051 7.94943C54.5145 8.09343 54.4291 8.24276 54.3438 8.3921ZM91.3731 7.87476C91.2825 7.73076 91.1918 7.58676 91.1011 7.44276L92.4451 6.57343C92.5465 6.7281 92.6425 6.88276 92.7385 7.03743L91.3731 7.87476ZM54.8771 7.51743L53.5331 6.65343C53.6345 6.49876 53.7358 6.3441 53.8371 6.19476L55.1651 7.09076C55.0691 7.23476 54.9731 7.37343 54.8825 7.51743H54.8771ZM90.8185 7.0161C90.7225 6.87743 90.6265 6.73343 90.5251 6.59476L91.8265 5.66143C91.9331 5.81076 92.0398 5.9601 92.1411 6.10943L90.8185 7.01076V7.0161ZM55.4478 6.6641L54.1465 5.73609C54.2531 5.58676 54.3598 5.43743 54.4718 5.29343L55.7518 6.2481C55.6505 6.38676 55.5491 6.52543 55.4478 6.6641ZM90.2211 6.18409C90.1198 6.04543 90.0131 5.9121 89.9065 5.77876L91.1598 4.78676C91.2718 4.93076 91.3838 5.07476 91.4958 5.2241L90.2211 6.18943V6.18409ZM56.0611 5.84276L54.8025 4.85609C54.9145 4.7121 55.0318 4.5681 55.1491 4.42943L56.3865 5.4481C56.2798 5.58143 56.1678 5.71476 56.0665 5.84809L56.0611 5.84276ZM89.5811 5.37876C89.4691 5.24543 89.3625 5.11743 89.2505 4.98943L90.4558 3.93876C90.5785 4.07743 90.6958 4.21609 90.8131 4.35476L89.5811 5.37876ZM56.7118 5.05876L55.5011 4.01343C55.6238 3.87476 55.7411 3.73609 55.8638 3.60276L57.0478 4.68009C56.9305 4.80809 56.8185 4.9361 56.7065 5.0641L56.7118 5.05876ZM88.9091 4.6161C88.7918 4.4881 88.6745 4.36543 88.5571 4.24276L89.7145 3.13876C89.8425 3.2721 89.9651 3.40543 90.0931 3.53876L88.9091 4.6161ZM57.3998 4.30143L56.2425 3.19743C56.3705 3.0641 56.4985 2.93076 56.6265 2.80276L57.7571 3.93343C57.6345 4.0561 57.5171 4.17876 57.3998 4.30143ZM88.1998 3.87476C88.0771 3.7521 87.9545 3.63476 87.8318 3.51743L88.9358 2.35476C89.0691 2.48276 89.2025 2.61076 89.3305 2.73876L88.1998 3.87476ZM58.1251 3.57076L57.0211 2.41343C57.1545 2.28543 57.2878 2.16276 57.4211 2.04009L58.4985 3.22409C58.3705 3.34143 58.2478 3.45343 58.1251 3.5761V3.57076ZM87.4585 3.16543C87.3305 3.05343 87.2025 2.9361 87.0745 2.82409L88.1198 1.61343C88.2585 1.73076 88.3971 1.85343 88.5305 1.97609L87.4585 3.1601V3.16543ZM58.8825 2.87743L57.8318 1.67209C57.9705 1.54943 58.1091 1.4321 58.2531 1.31476L59.2771 2.54676C59.1438 2.65343 59.0158 2.76543 58.8878 2.87743H58.8825ZM86.6798 2.49343C86.5465 2.38676 86.4131 2.28009 86.2798 2.17343L87.2665 0.914762C87.4105 1.02676 87.5545 1.14409 87.6985 1.26143L86.6798 2.49343ZM59.6665 2.22676L58.6745 0.973428C58.8185 0.861428 58.9625 0.749428 59.1118 0.637428L60.0718 1.91743C59.9331 2.01876 59.7998 2.12543 59.6665 2.23209V2.22676ZM85.8745 1.86409C85.7358 1.76276 85.5971 1.66143 85.4585 1.56009L86.3865 0.253428C86.5358 0.360095 86.6851 0.466762 86.8291 0.578762L85.8745 1.86409ZM60.4878 1.61343L59.5545 0.312095C59.7038 0.205428 59.8531 0.0987616 60.0078 -0.00257182L60.9091 1.3201C60.7705 1.4161 60.6265 1.51209 60.4878 1.61343ZM85.0371 1.2721C84.8931 1.1761 84.7545 1.08009 84.6105 0.989428L85.4745 -0.359905C85.6291 -0.258572 85.7838 -0.157238 85.9331 -0.0559049L85.0371 1.2721ZM61.3305 1.03743L60.4611 -0.306572C60.6158 -0.407905 60.7705 -0.503905 60.9251 -0.599905L61.7625 0.765428C61.6185 0.856094 61.4745 0.946761 61.3305 1.03743ZM84.1731 0.717428C84.0291 0.626761 83.8798 0.541428 83.7305 0.456095L84.5305 -0.930572C84.6905 -0.839905 84.8505 -0.743905 85.0051 -0.647905L84.1731 0.717428ZM62.2051 0.504095L61.3998 -0.877239C61.5598 -0.967906 61.7198 -1.05857 61.8798 -1.14924L62.6531 0.253428C62.5038 0.333428 62.3545 0.418761 62.2105 0.504095H62.2051ZM83.2825 0.210762C83.1331 0.130762 82.9785 0.0507612 82.8291 -0.0292387L83.5598 -1.45324C83.7251 -1.36791 83.8851 -1.28257 84.0451 -1.19724L83.2825 0.210762ZM63.0958 0.0134277L62.3598 -1.40524C62.5198 -1.49057 62.6851 -1.57057 62.8505 -1.65057L63.5545 -0.215905C63.3998 -0.141238 63.2505 -0.066572 63.0958 0.0134277ZM82.3651 -0.258572C82.2105 -0.333238 82.0558 -0.407905 81.9011 -0.477239L82.5625 -1.93324C82.7278 -1.85857 82.8985 -1.77857 83.0638 -1.69857L82.3651 -0.258572ZM64.0131 -0.434572L63.3465 -1.89057C63.5118 -1.96524 63.6771 -2.03991 63.8478 -2.11457L64.4825 -0.647905C64.3278 -0.578572 64.1731 -0.509238 64.0185 -0.439905L64.0131 -0.434572ZM81.4318 -0.685238C81.2771 -0.754572 81.1171 -0.818572 80.9571 -0.882572L81.5491 -2.37057C81.7198 -2.30124 81.8905 -2.23191 82.0611 -2.16257L81.4318 -0.690572V-0.685238ZM64.9518 -0.839905L64.3545 -2.32257C64.5251 -2.39191 64.6958 -2.45591 64.8665 -2.51991L65.4318 -1.02124C65.2718 -0.962572 65.1118 -0.898572 64.9518 -0.834572V-0.839905ZM80.4771 -1.06391C80.3171 -1.12257 80.1571 -1.18124 79.9918 -1.23457L80.5091 -2.74924C80.6851 -2.69057 80.8558 -2.62657 81.0318 -2.56257L80.4771 -1.06391ZM65.9065 -1.20257L65.3785 -2.71191C65.5491 -2.77057 65.7251 -2.82924 65.9011 -2.88791L66.3918 -1.36257C66.2318 -1.30924 66.0665 -1.25591 65.9065 -1.19724V-1.20257ZM79.5011 -1.39991C79.3411 -1.45324 79.1758 -1.50124 79.0105 -1.54924L79.4585 -3.08524C79.6345 -3.03191 79.8105 -2.97857 79.9865 -2.92524L79.5011 -1.39991ZM66.8825 -1.51724L66.4291 -3.05324C66.6051 -3.10657 66.7811 -3.15457 66.9625 -3.20257L67.3785 -1.65591C67.2131 -1.61324 67.0478 -1.56524 66.8878 -1.51724H66.8825ZM78.5198 -1.68257C78.3545 -1.72524 78.1891 -1.76791 78.0238 -1.80524L78.3971 -3.36257C78.5785 -3.31991 78.7545 -3.27724 78.9305 -3.22924L78.5198 -1.68257ZM67.8691 -1.77857L67.4905 -3.33057C67.6665 -3.37324 67.8478 -3.41591 68.0238 -3.45324L68.3651 -1.89057C68.1998 -1.85324 68.0291 -1.81591 67.8638 -1.77324L67.8691 -1.77857ZM77.5225 -1.91724C77.3571 -1.95457 77.1865 -1.98657 77.0211 -2.01857L77.3145 -3.59191C77.4958 -3.55991 77.6771 -3.52257 77.8531 -3.48524L77.5171 -1.92257L77.5225 -1.91724ZM68.8718 -1.99724L68.5678 -3.57057C68.7491 -3.60257 68.9251 -3.63991 69.1065 -3.66657L69.3731 -2.08791C69.2025 -2.06124 69.0371 -2.02924 68.8665 -1.99724H68.8718ZM76.5145 -2.10924C76.3491 -2.13591 76.1785 -2.16257 76.0078 -2.18391L76.2265 -3.76791C76.4078 -3.74124 76.5891 -3.71457 76.7705 -3.68257L76.5091 -2.10391L76.5145 -2.10924ZM69.8798 -2.16791L69.6505 -3.75191C69.8318 -3.77857 70.0131 -3.7999 70.1945 -3.82657L70.3865 -2.23724C70.2158 -2.21591 70.0451 -2.19457 69.8798 -2.16791ZM75.5011 -2.24791C75.3305 -2.26924 75.1651 -2.28524 74.9945 -2.30124L75.1385 -3.89591C75.3198 -3.87991 75.5065 -3.85857 75.6878 -3.83724L75.5011 -2.24791ZM70.8985 -2.29057L70.7438 -3.88524C70.9251 -3.90124 71.1065 -3.91724 71.2931 -3.93324L71.4105 -2.33857C71.2398 -2.32791 71.0691 -2.31191 70.8985 -2.29591V-2.29057ZM74.4825 -2.34391C74.3118 -2.35457 74.1411 -2.36524 73.9705 -2.37057L74.0398 -3.97057C74.2211 -3.95991 74.4078 -3.95457 74.5891 -3.93857L74.4825 -2.34391ZM71.9225 -2.36524L71.8425 -3.96524C72.0238 -3.97591 72.2105 -3.98124 72.3918 -3.98657L72.4345 -2.38657C72.2638 -2.38657 72.0931 -2.37591 71.9225 -2.36524ZM73.4585 -2.38657C73.3091 -2.38657 73.1545 -2.38657 73.0051 -2.38657H72.9465V-3.98657H73.0051C73.1705 -3.98657 73.3305 -3.98657 73.4958 -3.98657L73.4638 -2.38657H73.4585Z" fill="#315D93"/>
<path d="M73.0051 39.5975C61.7251 39.5975 52.5464 30.4188 52.5464 19.1388C52.5464 7.85884 61.7251 -1.31982 73.0051 -1.31982C84.2851 -1.31982 93.4637 7.85884 93.4637 19.1388C93.4637 30.4188 84.2851 39.5975 73.0051 39.5975ZM73.0051 -1.05316C61.8691 -1.05316 52.8131 8.00284 52.8131 19.1388C52.8131 30.2748 61.8691 39.3308 73.0051 39.3308C84.1411 39.3308 93.1971 30.2748 93.1971 19.1388C93.1971 8.00284 84.1411 -1.05316 73.0051 -1.05316Z" fill="#315D93"/>
<path d="M13.037 40.1041C19.2521 40.1041 24.2904 35.0658 24.2904 28.8507C24.2904 22.6357 19.2521 17.5974 13.037 17.5974C6.82198 17.5974 1.78369 22.6357 1.78369 28.8507C1.78369 35.0658 6.82198 40.1041 13.037 40.1041Z" fill="#2C3D5B"/>
<path opacity="0.37" d="M18.4026 18.9626C19.0906 19.336 19.7306 19.7733 20.3119 20.2693C19.9279 20.4026 19.5919 20.5413 19.3252 20.7013C17.2879 21.9173 16.3492 27.0693 8.89325 27.5706C5.58658 27.7946 3.35725 29.016 1.86924 30.232C1.76258 29.4 1.75191 28.552 1.84258 27.7093C3.42124 26.3386 5.77325 25 8.81325 25.1653C14.8666 25.4853 13.7999 20.696 16.7492 19.56C17.3039 19.3466 17.8532 19.144 18.4026 18.9626Z" fill="#1E293B"/>
<path opacity="0.37" d="M23.4799 24.6748C23.7199 25.2721 23.9119 25.8961 24.0399 26.5255C23.2666 26.7388 22.5839 26.9735 22.1039 27.2561C19.8533 28.5948 18.8133 34.2855 10.5839 34.8401C8.15194 35.0055 6.24794 35.6561 4.75994 36.4721C4.21594 35.8855 3.74127 35.2401 3.33594 34.5575C5.0586 33.2135 7.46394 32.0295 10.4933 32.1895C17.1813 32.5468 15.9919 27.2561 19.2559 26.0028C20.6799 25.4588 22.0933 24.9735 23.4746 24.6748H23.4799Z" fill="#1E293B"/>
<path d="M69.0689 75.8161C76.1087 75.8161 81.8156 70.1092 81.8156 63.0694C81.8156 56.0296 76.1087 50.3228 69.0689 50.3228C62.0291 50.3228 56.3223 56.0296 56.3223 63.0694C56.3223 70.1092 62.0291 75.8161 69.0689 75.8161Z" fill="#2C3D5B"/>
<path opacity="0.37" d="M81.7198 61.4801C81.8265 62.3601 81.8478 63.2347 81.7785 64.0987C81.4052 63.8321 81.0532 63.6134 80.7332 63.4747C78.2692 62.3974 72.9038 64.9361 67.5172 58.4027C65.1278 55.5067 62.5358 54.2587 60.4238 53.6934C61.1225 53.0481 61.8905 52.4774 62.7278 52.0081C65.0318 52.5574 67.8158 53.8374 69.6718 56.7494C73.3732 62.5361 77.0798 58.3867 80.0718 60.3547C80.6318 60.7227 81.1865 61.0961 81.7145 61.4801H81.7198Z" fill="#1E293B"/>
<path opacity="0.37" d="M79.8102 69.928C79.4209 70.5467 78.9729 71.128 78.4769 71.6667C77.7729 71.096 77.1009 70.6214 76.5302 70.3654C73.8155 69.176 67.8849 71.976 61.9382 64.76C60.1782 62.6267 58.3222 61.3094 56.5889 60.4774C56.7702 59.592 57.0475 58.728 57.4155 57.9014C59.7889 58.6 62.4715 60.0347 64.3222 62.9307C68.4075 69.3254 72.4982 64.7387 75.8049 66.9147C77.2449 67.864 78.6262 68.8507 79.8102 69.9227V69.928Z" fill="#1E293B"/>
<path d="M81.7677 64.7547C84.2691 65.6827 86.8344 66.4721 88.9304 68.2321C89.3464 68.6001 89.6984 69.3787 89.2931 69.9281C88.1784 71.4267 83.5917 70.5521 81.9117 70.3814C71.5811 68.6694 61.5704 65.6187 52.1197 61.0801C50.9464 60.4721 49.7837 59.8587 48.6691 59.0107C48.2211 58.6534 47.6984 58.2321 47.4424 57.6507C46.5037 54.6801 52.4717 56.0774 53.8797 56.3281C55.1597 56.5894 56.4184 56.9094 57.6717 57.2667L57.5757 57.7201C55.0637 57.4001 52.4611 57.0054 49.9544 57.0907C49.5384 57.1227 49.1171 57.1441 48.7544 57.2881C48.6691 57.3201 48.6424 57.3787 48.7171 57.2881C48.7651 57.2294 48.7917 57.1174 48.7864 57.0534C49.8264 58.0987 51.4584 58.7654 52.8984 59.4534C55.2237 60.4774 57.6184 61.4001 60.0344 62.2481C64.8717 63.9547 69.7891 65.4801 74.7491 66.7921C77.2237 67.4747 79.7197 68.0561 82.2157 68.5681C84.1304 68.8881 86.1624 69.4054 88.0611 69.1227C88.1624 69.1014 88.1731 69.0587 88.1251 69.1387C88.0877 69.1867 88.0877 69.2667 88.0824 69.3147C87.9011 68.9627 87.1491 68.3814 86.5891 68.0081C84.9944 66.9467 83.2877 66.0614 81.5757 65.1761L81.7571 64.7494L81.7677 64.7547Z" fill="#475569"/>
<path d="M72.9572 23.6987L70.2159 47.0694H17.2239L14.6426 23.6987H72.9572Z" fill="#F1F5F9"/>
<path d="M63.8746 23.6987V47.0694H17.2239L14.6426 23.6987H63.8746Z" fill="#FB7200"/>
<path d="M51.6934 67.6613H38.1787L41.752 47.064H49.3094L51.6934 67.6613Z" fill="#F1F5F9"/>
<path d="M51.6934 67.6613H38.1787L41.752 47.064H49.3094L51.6934 67.6613Z" fill="url(#paint0_linear_2642_700)"/>
<path d="M21.5493 67.6614H69.8853L76.9627 97.7147H11.0693L21.5493 67.6614Z" fill="#F1F5F9"/>
<path d="M21.5493 67.6614H69.8853L76.9627 97.7147H11.0693L21.5493 67.6614Z" fill="url(#paint1_linear_2642_700)"/>
<path d="M71.7521 33.9707L58.1841 47.0694H70.2161L71.7521 33.9707Z" fill="url(#paint2_linear_2642_700)"/>
<path d="M49.8694 64.7282L48.3174 51.0269V64.7282H49.8694Z" fill="#F1F5F9"/>
<path d="M47.3734 71.0588H25.0374L18.04 91.6562L27.1494 73.4375L47.3734 71.0588Z" fill="#2C3D5B"/>
<path d="M40.2531 38.2748H37.3251L36.1411 30.6748L39.8744 28.5415L40.2531 38.2748Z" fill="#FED7AA"/>
<path d="M50.008 38.2748H47.3413V28.6748L51.0746 30.8081L50.008 38.2748Z" fill="#FED7AA"/>
<path d="M27.0747 86.2747H19.0747L16.9414 56.9414H27.0747V86.2747Z" fill="#F1F5F9"/>
<path d="M27.0747 56.9414V86.2747H19.0747L18.4561 77.7414L18.3014 75.6081L17.9867 71.3414L17.7947 68.6747L17.5227 64.9414L17.3307 62.2747L16.9414 56.9414H27.0747Z" fill="url(#paint3_linear_2642_700)"/>
<path d="M19.6079 50.5413C19.3092 51.2933 19.4852 52.04 19.9065 52.728C20.1412 53.1333 20.4559 53.512 20.8079 53.864C21.9919 55.0533 23.5332 55.8747 23.5332 55.8747L18.1039 56.3227C18.1039 56.3227 17.4905 55.8853 16.8399 55.0853C16.4025 54.552 15.9492 53.864 15.6505 53.032C15.1865 51.7787 15.0745 50.2107 15.8745 48.408C16.2479 47.5707 16.6905 46.9147 17.1865 46.3973C20.3065 43.1333 25.3252 45.5707 25.3252 45.5707L24.0399 49.0267C24.0399 49.0267 22.0079 48.3333 20.5999 49.272C20.2479 49.5067 19.9385 49.848 19.7039 50.3227C19.6719 50.392 19.6399 50.4667 19.6079 50.5413Z" fill="#F1F5F9"/>
<path d="M31.2345 52.6747C31.1545 53.0747 31.0265 53.4854 30.8239 53.8961C30.6799 54.2001 30.4985 54.5094 30.2745 54.8081C29.8532 55.3734 29.3892 55.7841 28.9359 56.0881C28.4559 56.4187 27.9812 56.6161 27.5865 56.7387C26.9625 56.9361 26.5252 56.9361 26.5145 56.9361L24.2905 55.8747C24.2905 55.8747 25.1225 55.5121 26.0132 54.9041C26.1785 54.7867 26.3439 54.6694 26.5092 54.5361C26.9572 54.1841 27.3785 53.7734 27.6879 53.3201C27.8319 53.1121 27.9492 52.8987 28.0292 52.6747C28.2212 52.1627 28.2372 51.6081 27.9759 51.0267L30.8079 48.9414C30.8079 48.9414 31.6399 50.6694 31.2345 52.6747Z" fill="#F1F5F9"/>
<path d="M27.6077 55.8748H16.4077V59.0748H27.6077V55.8748Z" fill="#64748B"/>
<path d="M20.5998 49.2721C20.2478 49.5068 19.9385 49.8481 19.7038 50.3228L15.8745 48.4081C16.2478 47.5708 16.6905 46.9148 17.1865 46.3975L20.5998 49.2721Z" fill="#CBD5E1"/>
<path d="M20.8077 53.864L16.8397 55.0854C16.4024 54.552 15.9491 53.864 15.6504 53.032L19.9064 52.728C20.1411 53.1334 20.4557 53.512 20.8077 53.864Z" fill="#CBD5E1"/>
<path d="M31.2347 52.6748C31.1547 53.0748 31.0267 53.4855 30.824 53.8961L27.688 53.3201C27.832 53.1121 27.9493 52.8988 28.0293 52.6748H31.2347Z" fill="#CBD5E1"/>
<path d="M28.9358 56.0881C28.4558 56.4188 27.9812 56.6161 27.5865 56.7388L26.0132 54.9041C26.1785 54.7868 26.3439 54.6695 26.5092 54.5361L28.9358 56.0881Z" fill="#CBD5E1"/>
<path d="M27.0746 62.2747V63.8747L17.5226 64.9413L17.3306 62.2747H27.0746Z" fill="#CBD5E1"/>
<path d="M27.0744 68.6748V70.2748L17.9864 71.3415L17.7944 68.6748H27.0744Z" fill="#CBD5E1"/>
<path d="M27.0746 75.6082V76.6748L18.4559 77.7415L18.3013 75.6082H27.0746Z" fill="#CBD5E1"/>
<path d="M53.7413 39.8748H33.4746V41.4748H53.7413V39.8748Z" fill="#FED7AA"/>
<path d="M35.0746 39.8748H33.4746V43.0748H35.0746V39.8748Z" fill="#FED7AA"/>
<path d="M53.7411 39.8748H52.1411V43.0748H53.7411V39.8748Z" fill="#FED7AA"/>
<path d="M19.048 23.6987H18.5146V37.5601H19.048V23.6987Z" fill="#2C3D5B"/>
<path d="M21.1813 23.6987H20.6479V34.0081H21.1813V23.6987Z" fill="#2C3D5B"/>
<path d="M23.8478 23.6987H23.3145V31.3414H23.8478V23.6987Z" fill="#2C3D5B"/>
<path d="M27.5812 23.6987H27.0479V32.4081H27.5812V23.6987Z" fill="#2C3D5B"/>
<path d="M55.3146 23.6987H54.7812V34.0081H55.3146V23.6987Z" fill="#2C3D5B"/>
<path d="M57.9811 23.6987H57.4478V31.3414H57.9811V23.6987Z" fill="#2C3D5B"/>
<path d="M61.7145 23.6987H61.1812V32.4081H61.7145V23.6987Z" fill="#2C3D5B"/>
<path d="M43.5812 23.6987H43.0479V34.0081H43.5812V23.6987Z" fill="#2C3D5B"/>
<path d="M46.2477 23.6987H45.7144V31.3414H46.2477V23.6987Z" fill="#2C3D5B"/>
<path d="M49.9811 23.6987H49.4478V32.4081H49.9811V23.6987Z" fill="#2C3D5B"/>
<path d="M73.6507 55.6082H15.1653C11.8752 55.6082 9.20801 58.2753 9.20801 61.5655V85.3842C9.20801 88.6743 11.8752 91.3415 15.1653 91.3415H73.6507C76.9408 91.3415 79.608 88.6743 79.608 85.3842V61.5655C79.608 58.2753 76.9408 55.6082 73.6507 55.6082Z" fill="url(#paint4_radial_2642_700)"/>
<path d="M44.9463 66.0081H21.469C21.0301 66.0081 20.6743 66.3638 20.6743 66.8027V68.9467C20.6743 69.3856 21.0301 69.7414 21.469 69.7414H44.9463C45.3852 69.7414 45.741 69.3856 45.741 68.9467V66.8027C45.741 66.3638 45.3852 66.0081 44.9463 66.0081Z" fill="white"/>
<path d="M44.9517 70.0081H21.469C20.8824 70.0081 20.4077 69.5334 20.4077 68.9468V66.7974C20.4077 66.2108 20.8824 65.7361 21.469 65.7361H44.9517C45.5384 65.7361 46.0131 66.2108 46.0131 66.7974V68.9468C46.0131 69.5334 45.5384 70.0081 44.9517 70.0081ZM21.469 66.2748C21.181 66.2748 20.941 66.5094 20.941 66.8028V68.9521C20.941 69.2401 21.1757 69.4801 21.469 69.4801H44.9517C45.2397 69.4801 45.4797 69.2454 45.4797 68.9521V66.8028C45.4797 66.5148 45.2451 66.2748 44.9517 66.2748H21.469Z" fill="#315D93"/>
<path d="M44.9463 71.8748H21.469C21.0301 71.8748 20.6743 72.2305 20.6743 72.6694V74.8134C20.6743 75.2523 21.0301 75.6081 21.469 75.6081H44.9463C45.3852 75.6081 45.741 75.2523 45.741 74.8134V72.6694C45.741 72.2305 45.3852 71.8748 44.9463 71.8748Z" fill="white"/>
<path d="M44.9517 75.8748H21.469C20.8824 75.8748 20.4077 75.4001 20.4077 74.8134V72.6641C20.4077 72.0775 20.8824 71.6028 21.469 71.6028H44.9517C45.5384 71.6028 46.0131 72.0775 46.0131 72.6641V74.8134C46.0131 75.4001 45.5384 75.8748 44.9517 75.8748ZM21.469 72.1415C21.181 72.1415 20.941 72.3761 20.941 72.6694V74.8188C20.941 75.1068 21.1757 75.3468 21.469 75.3468H44.9517C45.2397 75.3468 45.4797 75.1121 45.4797 74.8188V72.6694C45.4797 72.3814 45.2451 72.1415 44.9517 72.1415H21.469Z" fill="#315D93"/>
<path d="M44.9463 77.7415H21.469C21.0301 77.7415 20.6743 78.0972 20.6743 78.5361V80.6801C20.6743 81.119 21.0301 81.4748 21.469 81.4748H44.9463C45.3852 81.4748 45.741 81.119 45.741 80.6801V78.5361C45.741 78.0972 45.3852 77.7415 44.9463 77.7415Z" fill="white"/>
<path d="M44.9517 81.7415H21.469C20.8824 81.7415 20.4077 81.2668 20.4077 80.6801V78.5308C20.4077 77.9441 20.8824 77.4695 21.469 77.4695H44.9517C45.5384 77.4695 46.0131 77.9441 46.0131 78.5308V80.6801C46.0131 81.2668 45.5384 81.7415 44.9517 81.7415ZM21.469 78.0081C21.181 78.0081 20.941 78.2428 20.941 78.5361V80.6855C20.941 80.9735 21.1757 81.2135 21.469 81.2135H44.9517C45.2397 81.2135 45.4797 80.9788 45.4797 80.6855V78.5361C45.4797 78.2481 45.2451 78.0081 44.9517 78.0081H21.469Z" fill="#315D93"/>
<path d="M44.9463 83.6082H21.469C21.0301 83.6082 20.6743 83.9639 20.6743 84.4028V86.5468C20.6743 86.9857 21.0301 87.3415 21.469 87.3415H44.9463C45.3852 87.3415 45.741 86.9857 45.741 86.5468V84.4028C45.741 83.9639 45.3852 83.6082 44.9463 83.6082Z" fill="white"/>
<path d="M44.9517 87.6082H21.469C20.8824 87.6082 20.4077 87.1335 20.4077 86.5468V84.3975C20.4077 83.8108 20.8824 83.3362 21.469 83.3362H44.9517C45.5384 83.3362 46.0131 83.8108 46.0131 84.3975V86.5468C46.0131 87.1335 45.5384 87.6082 44.9517 87.6082ZM21.469 83.8748C21.181 83.8748 20.941 84.1095 20.941 84.4028V86.5522C20.941 86.8402 21.1757 87.0802 21.469 87.0802H44.9517C45.2397 87.0802 45.4797 86.8455 45.4797 86.5522V84.4028C45.4797 84.1148 45.2451 83.8748 44.9517 83.8748H21.469Z" fill="#315D93"/>
<path d="M61.2081 88.9413C54.4454 88.9413 48.9414 83.4373 48.9414 76.6746C48.9414 69.912 54.4454 64.408 61.2081 64.408C67.9707 64.408 73.4747 69.912 73.4747 76.6746C73.4747 83.4373 67.9707 88.9413 61.2081 88.9413ZM61.2081 67.608C56.2107 67.608 52.1414 71.6773 52.1414 76.6746C52.1414 81.672 56.2107 85.7413 61.2081 85.7413C66.2054 85.7413 70.2747 81.672 70.2747 76.6746C70.2747 71.6773 66.2054 67.608 61.2081 67.608Z" fill="white"/>
<path d="M61.2081 89.208C54.2961 89.208 48.6748 83.5867 48.6748 76.6747C48.6748 69.7627 54.2961 64.1414 61.2081 64.1414C68.1201 64.1414 73.7415 69.7627 73.7415 76.6747C73.7415 83.5867 68.1201 89.208 61.2081 89.208ZM61.2081 64.6747C54.5895 64.6747 49.2081 70.056 49.2081 76.6747C49.2081 83.2934 54.5895 88.6747 61.2081 88.6747C67.8268 88.6747 73.2081 83.2934 73.2081 76.6747C73.2081 70.056 67.8268 64.6747 61.2081 64.6747ZM61.2081 86.008C56.0615 86.008 51.8748 81.8214 51.8748 76.6747C51.8748 71.528 56.0615 67.3414 61.2081 67.3414C66.3548 67.3414 70.5415 71.528 70.5415 76.6747C70.5415 81.8214 66.3548 86.008 61.2081 86.008ZM61.2081 67.8747C56.3548 67.8747 52.4081 71.8214 52.4081 76.6747C52.4081 81.528 56.3548 85.4747 61.2081 85.4747C66.0615 85.4747 70.0081 81.528 70.0081 76.6747C70.0081 71.8214 66.0615 67.8747 61.2081 67.8747Z" fill="#315D93"/>
<path d="M24.9892 13.1494H17.0532V18.1201H24.9892V13.1494Z" fill="#5BC3FE"/>
<path d="M34.8452 13.1494H26.9092V18.1201H34.8452V13.1494Z" fill="#5BC3FE"/>
<path d="M44.7011 13.1494H36.7651V18.1201H44.7011V13.1494Z" fill="#5BC3FE"/>
<path d="M55.2188 18.2534H47.0161V13.0161H55.2188V18.2534ZM47.2828 17.9868H54.9521V13.2828H47.2828V17.9868Z" fill="#5BC3FE"/>
<path d="M65.6079 18.2534H57.4053V13.0161L59.6613 13.0268L65.6079 15.5441V18.2534ZM57.6719 17.9868H65.3413V15.7254L59.5813 13.2828H57.6719V17.9868Z" fill="#5BC3FE"/>
<path d="M71.4744 19.7413H14.1411V11.208L61.2611 11.2187L71.4744 15.576V19.7413ZM14.4078 19.4747H71.2078V15.752L61.1811 11.4747H14.4078V19.4747Z" fill="#5BC3FE"/>
</g>
</g>
</g>
</g>
<defs>
<linearGradient id="paint0_linear_2642_700" x1="44.7494" y1="64.9146" x2="50.1627" y2="44.1786" gradientUnits="userSpaceOnUse">
<stop stop-color="#1D2E43" stop-opacity="0"/>
<stop offset="1" stop-color="#1E293B"/>
</linearGradient>
<linearGradient id="paint1_linear_2642_700" x1="62.9467" y1="114.248" x2="1.66133" y2="28.1734" gradientUnits="userSpaceOnUse">
<stop offset="0.27" stop-color="white" stop-opacity="0"/>
<stop offset="0.67" stop-color="#F7AB00"/>
<stop offset="1" stop-color="#004794"/>
</linearGradient>
<linearGradient id="paint2_linear_2642_700" x1="58.0507" y1="54.6747" x2="75.1067" y2="33.5814" gradientUnits="userSpaceOnUse">
<stop offset="0.27" stop-color="white" stop-opacity="0"/>
<stop offset="0.67" stop-color="#F7AB00"/>
<stop offset="1" stop-color="#004794"/>
</linearGradient>
<linearGradient id="paint3_linear_2642_700" x1="21.7467" y1="63.7841" x2="27.0481" y2="94.9894" gradientUnits="userSpaceOnUse">
<stop offset="0.27" stop-color="white" stop-opacity="0"/>
<stop offset="0.67" stop-color="#F7AB00"/>
<stop offset="1" stop-color="#004794"/>
</linearGradient>
<radialGradient id="paint4_radial_2642_700" cx="0" cy="0" r="1" gradientUnits="userSpaceOnUse" gradientTransform="translate(46.9467 98.0988) scale(49.1573 49.1573)">
<stop stop-color="#36F6FF" stop-opacity="0"/>
<stop offset="0.38" stop-color="#37F6FF" stop-opacity="0"/>
<stop offset="0.51" stop-color="#3CF6FF" stop-opacity="0.03"/>
<stop offset="0.61" stop-color="#46F6FF" stop-opacity="0.08"/>
<stop offset="0.68" stop-color="#53F7FF" stop-opacity="0.15"/>
<stop offset="0.75" stop-color="#64F8FF" stop-opacity="0.23"/>
<stop offset="0.81" stop-color="#7AF9FF" stop-opacity="0.34"/>
<stop offset="0.86" stop-color="#93FAFF" stop-opacity="0.47"/>
<stop offset="0.91" stop-color="#B1FBFF" stop-opacity="0.61"/>
<stop offset="0.95" stop-color="#D3FDFF" stop-opacity="0.78"/>
<stop offset="0.99" stop-color="#F7FEFF" stop-opacity="0.96"/>
<stop offset="1" stop-color="white"/>
</radialGradient>
<clipPath id="clip0_2642_700">
<rect width="80" height="80" fill="white" transform="translate(5 5)"/>
</clipPath>
<clipPath id="clip1_2642_700">
<rect width="80" height="80" fill="white" transform="translate(5 5)"/>
</clipPath>
<clipPath id="clip2_2642_700">
<rect width="80" height="80" fill="white" transform="translate(5 5)"/>
</clipPath>
</defs>
</svg>
