<svg width="90" height="90" viewBox="0 0 90 90" fill="none" xmlns="http://www.w3.org/2000/svg">
<g clip-path="url(#clip0_2642_1660)">
<g clip-path="url(#clip1_2642_1660)">
<path d="M77 5H13C8.58172 5 5 8.58172 5 13V77C5 81.4183 8.58172 85 13 85H77C81.4183 85 85 81.4183 85 77V13C85 8.58172 81.4183 5 77 5Z" fill="#1B2A3D"/>
<mask id="mask0_2642_1660" style="mask-type:luminance" maskUnits="userSpaceOnUse" x="5" y="5" width="80" height="80">
<path d="M77 5H13C8.58172 5 5 8.58172 5 13V77C5 81.4183 8.58172 85 13 85H77C81.4183 85 85 81.4183 85 77V13C85 8.58172 81.4183 5 77 5Z" fill="white"/>
</mask>
<g mask="url(#mask0_2642_1660)">
<path d="M44.685 9.765L3.89502 -5V7.295L44.685 21.39L85.47 7.295V-5L44.685 9.765Z" fill="#0F172A"/>
<path d="M44.895 30.765L4.10498 16V28.295L44.895 42.39L85.685 28.295V16L44.895 30.765Z" fill="#0F172A"/>
<path d="M45.1049 51.765L4.31494 37V49.295L45.1049 63.39L85.8949 49.295V37L45.1049 51.765Z" fill="#0F172A"/>
<path d="M45.3148 72.765L4.52979 58V70.295L45.3148 84.39L86.1048 70.295V58L45.3148 72.765Z" fill="#0F172A"/>
<path d="M77 5H13C8.58172 5 5 8.58172 5 13V77C5 81.4183 8.58172 85 13 85H77C81.4183 85 85 81.4183 85 77V13C85 8.58172 81.4183 5 77 5Z" fill="url(#paint0_linear_2642_1660)"/>
<path d="M45.0001 64.5349H44.7651L44.7751 63.0349H45.0001H45.2651L45.2801 64.5349H45.0001ZM44.2451 64.5249C44.0751 64.5249 43.9001 64.5149 43.7301 64.5049L43.8001 63.0049C43.9601 63.0099 44.1251 63.0199 44.2901 63.0249L44.2451 64.5249ZM45.7901 64.5249L45.7451 63.0249C45.9051 63.0249 46.0701 63.0149 46.2301 63.0049L46.3051 64.5049C46.1351 64.5149 45.9601 64.5199 45.7901 64.5249ZM43.2151 64.4799C43.0451 64.4699 42.8701 64.4549 42.7001 64.4399L42.8251 62.9449C42.9851 62.9599 43.1501 62.9699 43.3101 62.9799L43.2101 64.4749L43.2151 64.4799ZM46.8201 64.4799L46.7251 62.9849C46.8851 62.9749 47.0451 62.9599 47.2051 62.9499L47.3351 64.4449C47.1651 64.4599 46.9901 64.4749 46.8151 64.4849L46.8201 64.4799ZM42.1901 64.3949C42.0201 64.3749 41.8451 64.3549 41.6751 64.3349L41.8651 62.8449C42.0251 62.8649 42.1851 62.8849 42.3451 62.8999L42.1851 64.3899L42.1901 64.3949ZM47.8501 64.3949L47.6901 62.9049C47.8501 62.8899 48.0101 62.8699 48.1701 62.8499L48.3601 64.3399C48.1901 64.3599 48.0201 64.3799 47.8451 64.3999L47.8501 64.3949ZM41.1651 64.2699C40.9951 64.2449 40.8251 64.2199 40.6551 64.1899L40.9001 62.7099C41.0601 62.7349 41.2201 62.7599 41.3801 62.7849L41.1651 64.2699ZM48.8751 64.2649L48.6551 62.7799C48.8151 62.7549 48.9751 62.7299 49.1351 62.7049L49.3801 64.1849C49.2101 64.2149 49.0401 64.2399 48.8701 64.2649H48.8751ZM40.1451 64.1049C39.9751 64.0749 39.8051 64.0399 39.6351 64.0049L39.9401 62.5349C40.1001 62.5649 40.2551 62.5999 40.4151 62.6299L40.1451 64.1049ZM49.8901 64.0949L49.6151 62.6199C49.7751 62.5899 49.9351 62.5599 50.0951 62.5249L50.4001 63.9949C50.2301 64.0299 50.0651 64.0649 49.8951 64.0949H49.8901ZM39.1301 63.8949C38.9601 63.8549 38.7951 63.8149 38.6301 63.7749L38.9901 62.3199C39.1451 62.3599 39.3051 62.3949 39.4651 62.4299L39.1301 63.8949ZM50.9001 63.8849L50.5651 62.4249C50.7251 62.3899 50.8801 62.3499 51.0401 62.3099L51.4051 63.7649C51.2401 63.8049 51.0701 63.8449 50.9051 63.8849H50.9001ZM38.1251 63.6449C37.9601 63.5999 37.7951 63.5549 37.6301 63.5099L38.0451 62.0699C38.2001 62.1149 38.3601 62.1599 38.5151 62.1999L38.1251 63.6499V63.6449ZM51.9001 63.6349L51.5051 62.1899C51.6651 62.1449 51.8201 62.1049 51.9751 62.0599L52.3901 63.4999C52.2251 63.5449 52.0601 63.5949 51.8951 63.6399L51.9001 63.6349ZM37.1351 63.3599C36.9701 63.3099 36.8051 63.2549 36.6401 63.1999L37.1101 61.7749C37.2651 61.8249 37.4201 61.8749 37.5751 61.9249L37.1301 63.3599H37.1351ZM52.8901 63.3449L52.4401 61.9149C52.5951 61.8649 52.7501 61.8149 52.9051 61.7649L53.3801 63.1899C53.2201 63.2449 53.0551 63.2949 52.8901 63.3499V63.3449ZM36.1501 63.0299C35.9851 62.9699 35.8251 62.9149 35.6651 62.8499L36.1951 61.4449C36.3451 61.4999 36.5001 61.5599 36.6551 61.6099L36.1551 63.0249L36.1501 63.0299ZM53.8701 63.0149L53.3651 61.5999C53.5201 61.5449 53.6701 61.4899 53.8201 61.4299L54.3501 62.8349C54.1901 62.8949 54.0301 62.9549 53.8651 63.0149H53.8701ZM35.1851 62.6649C35.0251 62.5999 34.8651 62.5349 34.7051 62.4699L35.2851 61.0849C35.4351 61.1499 35.5851 61.2099 35.7351 61.2699L35.1801 62.6649H35.1851ZM54.8351 62.6499L54.2751 61.2549C54.4251 61.1949 54.5751 61.1349 54.7251 61.0699L55.3101 62.4499C55.1501 62.5149 54.9951 62.5799 54.8351 62.6449V62.6499ZM34.2301 62.2599C34.0751 62.1899 33.9151 62.1149 33.7601 62.0449L34.4001 60.6899C34.5451 60.7599 34.6951 60.8249 34.8451 60.8949L34.2351 62.2649L34.2301 62.2599ZM55.7851 62.2499L55.1701 60.8799C55.3201 60.8149 55.4651 60.7449 55.6101 60.6749L56.2501 62.0299C56.0951 62.1049 55.9401 62.1749 55.7851 62.2449V62.2499ZM33.2951 61.8199C33.1401 61.7449 32.9851 61.6649 32.8351 61.5849L33.5251 60.2549C33.6701 60.3299 33.8151 60.4049 33.9601 60.4749L33.2951 61.8199ZM56.7151 61.8099L56.0501 60.4649C56.1951 60.3949 56.3401 60.3199 56.4851 60.2449L57.1751 61.5749C57.0251 61.6549 56.8701 61.7299 56.7151 61.8049V61.8099ZM32.3751 61.3449C32.2251 61.2599 32.0751 61.1799 31.9251 61.0949L32.6701 59.7899C32.8101 59.8699 32.9551 59.9499 33.0951 60.0249L32.3801 61.3399L32.3751 61.3449ZM57.6251 61.3349L56.9051 60.0199C57.0501 59.9399 57.1901 59.8649 57.3301 59.7849L58.0751 61.0899C57.9251 61.1749 57.7751 61.2599 57.6251 61.3399V61.3349ZM31.4751 60.8299C31.3251 60.7399 31.1801 60.6549 31.0351 60.5599L31.8251 59.2849C31.9651 59.3699 32.1001 59.4549 32.2401 59.5399L31.4751 60.8299ZM58.5201 60.8249L57.7501 59.5349C57.8901 59.4499 58.0301 59.3649 58.1651 59.2799L58.9551 60.5549C58.8101 60.6449 58.6651 60.7349 58.5151 60.8199L58.5201 60.8249ZM30.6001 60.2849C30.4551 60.1899 30.3151 60.0949 30.1701 59.9999L31.0101 58.7549C31.1451 58.8449 31.2801 58.9349 31.4201 59.0249L30.6001 60.2849ZM59.3951 60.2849L58.5801 59.0249C58.7151 58.9349 58.8501 58.8499 58.9851 58.7549L59.8301 59.9949C59.6851 60.0899 59.5451 60.1849 59.4001 60.2799L59.3951 60.2849ZM29.7451 59.7099C29.6051 59.6099 29.4651 59.5099 29.3251 59.4099L30.2151 58.1999C30.3451 58.2949 30.4751 58.3899 30.6101 58.4849L29.7451 59.7099ZM60.2501 59.7099L59.3851 58.4849C59.5151 58.3899 59.6501 58.2949 59.7801 58.1999L60.6701 59.4049C60.5301 59.5049 60.3901 59.6099 60.2501 59.7049V59.7099ZM28.9151 59.0999C28.7801 58.9949 28.6401 58.8899 28.5051 58.7799L29.4451 57.6099C29.5701 57.7099 29.7001 57.8099 29.8251 57.9099L28.9151 59.0999ZM61.0801 59.0999L60.1701 57.9099C60.3001 57.8099 60.4251 57.7099 60.5551 57.6099L61.4901 58.7849C61.3551 58.8899 61.2201 58.9999 61.0851 59.0999H61.0801ZM28.1101 58.4599C27.9801 58.3499 27.8451 58.2399 27.7151 58.1249L28.6951 56.9899C28.8201 57.0949 28.9401 57.1999 29.0651 57.3049L28.1051 58.4599H28.1101ZM61.8901 58.4599L60.9301 57.3099C61.0551 57.2049 61.1801 57.0999 61.3001 56.9949L62.2801 58.1299C62.1501 58.2399 62.0201 58.3549 61.8851 58.4649L61.8901 58.4599ZM27.3301 57.7849C27.2051 57.6699 27.0751 57.5549 26.9501 57.4399L27.9701 56.3399C28.0901 56.4499 28.2101 56.5599 28.3301 56.6699L27.3251 57.7849H27.3301ZM62.6701 57.7849L61.6651 56.6699C61.7851 56.5599 61.9051 56.4499 62.0251 56.3399L63.0451 57.4399C62.9201 57.5549 62.7951 57.6699 62.6651 57.7849H62.6701ZM26.5751 57.0799C26.4501 56.9599 26.3301 56.8399 26.2101 56.7149L27.2751 55.6599C27.3901 55.7749 27.5051 55.8899 27.6201 55.9999L26.5751 57.0749V57.0799ZM63.4251 57.0799L62.3801 56.0049C62.4951 55.8899 62.6101 55.7799 62.7251 55.6599L63.7901 56.7149C63.6701 56.8349 63.5451 56.9599 63.4251 57.0749V57.0799ZM25.8501 56.3499C25.7301 56.2249 25.6151 56.0999 25.5001 55.9749L26.6051 54.9599C26.7151 55.0799 26.8251 55.1999 26.9401 55.3149L25.8551 56.3499H25.8501ZM64.1501 56.3499L63.0651 55.3149C63.1751 55.1949 63.2901 55.0799 63.4001 54.9599L64.5051 55.9749C64.3901 56.0999 64.2701 56.2249 64.1551 56.3499H64.1501ZM25.1551 55.5899C25.0401 55.4599 24.9301 55.3299 24.8151 55.1999L25.9601 54.2299C26.0651 54.3549 26.1701 54.4749 26.2801 54.5949L25.1551 55.5899ZM64.8501 55.5899L63.7251 54.5949C63.8301 54.4749 63.9401 54.3499 64.0451 54.2299L65.1901 55.1999C65.0801 55.3299 64.9651 55.4599 64.8501 55.5899ZM24.4901 54.8049C24.3801 54.6699 24.2751 54.5399 24.1701 54.4049L25.3501 53.4799C25.4501 53.6049 25.5501 53.7349 25.6551 53.8599L24.4901 54.8049ZM65.5201 54.8049L64.3551 53.8599C64.4551 53.7349 64.5601 53.6049 64.6601 53.4799L65.8401 54.4049C65.7351 54.5399 65.6251 54.6749 65.5201 54.8099V54.8049ZM23.8551 53.9949C23.7501 53.8599 23.6501 53.7199 23.5501 53.5799L24.7651 52.6999C24.8601 52.8299 24.9551 52.9599 25.0551 53.0899L23.8551 53.9899V53.9949ZM66.1551 53.9949L64.9601 53.0899C65.0551 52.9599 65.1551 52.8299 65.2501 52.6999L66.4651 53.5749C66.3651 53.7149 66.2601 53.8549 66.1551 53.9899V53.9949ZM23.2501 53.1599C23.1551 53.0199 23.0551 52.8799 22.9601 52.7349L24.2101 51.8999C24.3001 52.0349 24.3901 52.1699 24.4851 52.3049L23.2501 53.1599ZM66.7601 53.1599L65.5301 52.3049C65.6251 52.1699 65.7151 52.0349 65.8051 51.8999L67.0551 52.7299C66.9601 52.8749 66.8651 53.0149 66.7651 53.1549L66.7601 53.1599ZM22.6801 52.3049C22.5901 52.1599 22.4951 52.0149 22.4051 51.8649L23.6851 51.0849C23.7701 51.2249 23.8551 51.3599 23.9401 51.4949L22.6751 52.2999L22.6801 52.3049ZM67.3351 52.2999L66.0701 51.4899C66.1551 51.3549 66.2451 51.2149 66.3251 51.0799L67.6051 51.8599C67.5151 52.0049 67.4251 52.1549 67.3301 52.2999H67.3351ZM22.1451 51.4299C22.0601 51.2799 21.9751 51.1349 21.8901 50.9849L23.2001 50.2499C23.2801 50.3899 23.3601 50.5349 23.4401 50.6749L22.1451 51.4299ZM67.8751 51.4199L66.5801 50.6649C66.6601 50.5249 66.7401 50.3849 66.8201 50.2399L68.1301 50.9699C68.0451 51.1199 67.9601 51.2699 67.8751 51.4199ZM21.6451 50.5349C21.5651 50.3849 21.4851 50.2299 21.4101 50.0799L22.7451 49.3999C22.8201 49.5449 22.8951 49.6899 22.9701 49.8299L21.6451 50.5349ZM68.3801 50.5199L67.0551 49.8149C67.1301 49.6699 67.2051 49.5249 67.2801 49.3799L68.6151 50.0599C68.5351 50.2149 68.4601 50.3649 68.3751 50.5199H68.3801ZM21.1801 49.6199C21.1051 49.4649 21.0301 49.3099 20.9601 49.1549L22.3201 48.5249C22.3901 48.6699 22.4551 48.8199 22.5251 48.9649L21.1751 49.6199H21.1801ZM68.8451 49.5999L67.4951 48.9449C67.5651 48.7999 67.6351 48.6499 67.7001 48.5049L69.0651 49.1299C68.9951 49.2849 68.9201 49.4449 68.8451 49.5999ZM20.7501 48.6849C20.6801 48.5249 20.6151 48.3699 20.5501 48.2099L21.9351 47.6399C21.9951 47.7899 22.0601 47.9349 22.1251 48.0849L20.7501 48.6849ZM69.2801 48.6549L67.9051 48.0549C67.9701 47.9049 68.0351 47.7549 68.0951 47.6049L69.4801 48.1749C69.4151 48.3349 69.3451 48.4949 69.2801 48.6499V48.6549ZM20.3601 47.7299C20.3001 47.5699 20.2351 47.4099 20.1751 47.2449L21.5851 46.7249C21.6401 46.8749 21.7001 47.0299 21.7601 47.1799L20.3651 47.7249L20.3601 47.7299ZM69.6751 47.6999L68.2751 47.1599C68.3351 47.0099 68.3901 46.8549 68.4501 46.6999L69.8601 47.2149C69.8001 47.3749 69.7401 47.5399 69.6751 47.6999ZM20.0001 46.7649C19.9451 46.6049 19.8901 46.4399 19.8351 46.2749L21.2601 45.8099C21.3101 45.9649 21.3601 46.1199 21.4151 46.2699L20.0001 46.7599V46.7649ZM70.0301 46.7299L68.6101 46.2399C68.6651 46.0849 68.7151 45.9299 68.7651 45.7749L70.1951 46.2349C70.1401 46.3999 70.0851 46.5649 70.0301 46.7249V46.7299ZM19.6851 45.7849C19.6351 45.6199 19.5851 45.4549 19.5401 45.2899L20.9851 44.8849C21.0301 45.0399 21.0751 45.1949 21.1201 45.3499L19.6851 45.7849ZM70.3501 45.7449L68.9151 45.3099C68.9601 45.1549 69.0051 44.9999 69.0501 44.8449L70.4951 45.2449C70.4501 45.4099 70.4001 45.5749 70.3501 45.7399V45.7449ZM19.4051 44.7899C19.3601 44.6249 19.3201 44.4549 19.2801 44.2899L20.7401 43.9399C20.7801 44.0999 20.8151 44.2549 20.8601 44.4099L19.4101 44.7849L19.4051 44.7899ZM70.6301 44.7499L69.1801 44.3749C69.2201 44.2199 69.2601 44.0599 69.2951 43.9049L70.7551 44.2499C70.7151 44.4149 70.6751 44.5849 70.6301 44.7499ZM19.1651 43.7899C19.1301 43.6199 19.0951 43.4549 19.0601 43.2849L20.5301 42.9949C20.5601 43.1549 20.5951 43.3149 20.6301 43.4699L19.1651 43.7899ZM70.8651 43.7499L69.4001 43.4349C69.4351 43.2749 69.4651 43.1149 69.5001 42.9549L70.9701 43.2449C70.9351 43.4149 70.9001 43.5799 70.8651 43.7499ZM18.9651 42.7799C18.9351 42.6099 18.9051 42.4399 18.8801 42.2699L20.3601 42.0349C20.3851 42.1949 20.4101 42.3549 20.4401 42.5149L18.9651 42.7799ZM71.0651 42.7399L69.5851 42.4799C69.6151 42.3199 69.6401 42.1599 69.6651 41.9999L71.1451 42.2299C71.1201 42.3999 71.0901 42.5699 71.0601 42.7399H71.0651ZM18.8051 41.7599C18.7801 41.5899 18.7601 41.4199 18.7401 41.2499L20.2301 41.0699C20.2501 41.2299 20.2701 41.3949 20.2901 41.5549L18.8051 41.7599ZM71.2251 41.7199L69.7401 41.5149C69.7601 41.3549 69.7801 41.1949 69.8001 41.0349L71.2901 41.2099C71.2701 41.3799 71.2501 41.5549 71.2251 41.7249V41.7199ZM18.6851 40.7349C18.6701 40.5649 18.6551 40.3949 18.6401 40.2199L20.1351 40.0999C20.1501 40.2599 20.1601 40.4249 20.1801 40.5849L18.6851 40.7299V40.7349ZM71.3451 40.6949L69.8501 40.5499C69.8651 40.3899 69.8801 40.2249 69.8901 40.0649L71.3851 40.1799C71.3701 40.3499 71.3551 40.5249 71.3401 40.6949H71.3451ZM18.6051 39.7099C18.5951 39.5399 18.5851 39.3699 18.5801 39.1949L20.0801 39.1349C20.0851 39.2999 20.0951 39.4599 20.1051 39.6249L18.6051 39.7149V39.7099ZM71.4251 39.6699L69.9251 39.5799C69.9351 39.4199 69.9401 39.2549 69.9501 39.0949L71.4501 39.1499C71.4451 39.3249 71.4351 39.4949 71.4251 39.6649V39.6699ZM18.5651 38.6799C18.5651 38.5099 18.5601 38.3349 18.5601 38.1649H20.0601C20.0601 38.3249 20.0601 38.4899 20.0651 38.6499L18.5651 38.6799ZM71.4651 38.6349L69.9651 38.6049C69.9651 38.4449 69.9651 38.2799 69.9651 38.1199V38.0349H71.4651V38.1149C71.4651 38.2949 71.4651 38.4649 71.4651 38.6349ZM20.0601 37.6749L18.5601 37.6499C18.5601 37.4799 18.5701 37.3049 18.5751 37.1349L20.0751 37.1899C20.0701 37.3499 20.0651 37.5149 20.0601 37.6749ZM69.9601 37.5499C69.9601 37.3849 69.9501 37.2249 69.9451 37.0649L71.4451 37.0049C71.4501 37.1749 71.4601 37.3449 71.4601 37.5199L69.9601 37.5549V37.5499ZM20.0951 36.6999L18.5951 36.6149C18.6051 36.4449 18.6151 36.2699 18.6301 36.0999L20.1251 36.2149C20.1151 36.3749 20.1001 36.5399 20.0951 36.6999ZM69.9201 36.5749C69.9101 36.4099 69.9001 36.2499 69.8851 36.0899L71.3801 35.9699C71.3951 36.1399 71.4051 36.3099 71.4151 36.4849L69.9201 36.5749ZM20.1651 35.7299L18.6701 35.5849C18.6851 35.4149 18.7051 35.2399 18.7251 35.0699L20.2151 35.2449C20.1951 35.4049 20.1801 35.5649 20.1651 35.7299ZM69.8401 35.6049C69.8251 35.4449 69.8051 35.2799 69.7851 35.1199L71.2751 34.9399C71.2951 35.1099 71.3151 35.2799 71.3301 35.4499L69.8401 35.5999V35.6049ZM20.2751 34.7599L18.7901 34.5599C18.8151 34.3899 18.8401 34.2199 18.8651 34.0499L20.3451 34.2799C20.3201 34.4399 20.2951 34.5999 20.2751 34.7599ZM69.7251 34.6349C69.7001 34.4749 69.6801 34.3149 69.6551 34.1549L71.1351 33.9199C71.1601 34.0899 71.1901 34.2599 71.2101 34.4299L69.7251 34.6399V34.6349ZM20.4251 33.7949L18.9451 33.5349C18.9751 33.3649 19.0051 33.1949 19.0401 33.0299L20.5151 33.3149C20.4851 33.4749 20.4551 33.6349 20.4251 33.7949ZM69.5701 33.6699C69.5401 33.5099 69.5101 33.3499 69.4801 33.1899L70.9501 32.8949C70.9851 33.0649 71.0151 33.2349 71.0451 33.3999L69.5701 33.6649V33.6699ZM20.6101 32.8349L19.1451 32.5199C19.1801 32.3499 19.2201 32.1849 19.2601 32.0149L20.7201 32.3599C20.6851 32.5199 20.6451 32.6749 20.6151 32.8349H20.6101ZM69.3801 32.7149C69.3451 32.5549 69.3101 32.3999 69.2701 32.2399L70.7301 31.8899C70.7701 32.0549 70.8101 32.2249 70.8451 32.3899L69.3801 32.7149ZM20.8351 31.8899L19.3801 31.5199C19.4251 31.3549 19.4651 31.1849 19.5151 31.0199L20.9601 31.4199C20.9151 31.5749 20.8751 31.7299 20.8351 31.8899ZM69.1551 31.7699C69.1151 31.6149 69.0701 31.4549 69.0251 31.2999L70.4701 30.8899C70.5151 31.0549 70.5601 31.2199 70.6051 31.3899L69.1551 31.7699ZM21.1001 30.9499L19.6601 30.5199C19.7101 30.3549 19.7601 30.1899 19.8151 30.0249L21.2451 30.4849C21.1951 30.6399 21.1501 30.7949 21.1001 30.9499ZM68.8951 30.8299C68.8501 30.6749 68.8001 30.5199 68.7501 30.3649L70.1751 29.8999C70.2301 30.0649 70.2801 30.2249 70.3301 30.3899L68.8951 30.8299ZM21.4001 30.0199L19.9801 29.5349C20.0351 29.3699 20.0951 29.2099 20.1551 29.0449L21.5651 29.5599C21.5101 29.7149 21.4551 29.8649 21.4001 30.0199ZM68.5951 29.9049C68.5401 29.7499 68.4851 29.5999 68.4301 29.4449L69.8351 28.9249C69.8951 29.0849 69.9501 29.2449 70.0101 29.4099L68.5951 29.9049ZM21.7351 29.1049L20.3351 28.5649C20.3951 28.4049 20.4601 28.2449 20.5251 28.0849L21.9151 28.6549C21.8551 28.8049 21.7951 28.9549 21.7351 29.1099V29.1049ZM68.2551 28.9949C68.1951 28.8449 68.1351 28.6949 68.0751 28.5449L69.4601 27.9699C69.5251 28.1299 69.5901 28.2849 69.6501 28.4449L68.2551 28.9949ZM22.1051 28.2049L20.7301 27.6099C20.8001 27.4499 20.8701 27.2949 20.9401 27.1349L22.3051 27.7599C22.2401 27.9099 22.1701 28.0549 22.1051 28.2049ZM67.8851 28.0999C67.8201 27.9499 67.7551 27.8049 67.6851 27.6549L69.0451 27.0249C69.1151 27.1799 69.1851 27.3349 69.2551 27.4949L67.8801 28.0999H67.8851ZM22.5101 27.3149L21.1551 26.6649C21.2301 26.5099 21.3051 26.3549 21.3851 26.1999L22.7251 26.8799C22.6501 27.0249 22.5801 27.1699 22.5101 27.3149ZM67.4751 27.2199C67.4051 27.0749 67.3301 26.9299 67.2601 26.7849L68.5951 26.1049C68.6751 26.2549 68.7501 26.4099 68.8251 26.5649L67.4751 27.2199ZM22.9501 26.4449L21.6251 25.7449C21.7051 25.5949 21.7901 25.4399 21.8701 25.2899L23.1801 26.0199C23.1001 26.1599 23.0251 26.3049 22.9501 26.4499V26.4449ZM67.0351 26.3549C66.9601 26.2099 66.8801 26.0699 66.8001 25.9299L68.1101 25.1949C68.1951 25.3449 68.2751 25.4949 68.3601 25.6499L67.0351 26.3549ZM23.4251 25.5949L22.1301 24.8399C22.2151 24.6899 22.3051 24.5449 22.3951 24.3949L23.6801 25.1749C23.5951 25.3149 23.5101 25.4549 23.4301 25.5949H23.4251ZM66.5651 25.5099C66.4851 25.3699 66.4001 25.2299 66.3151 25.0949L67.5951 24.3099C67.6851 24.4549 67.7751 24.6049 67.8601 24.7499L66.5651 25.5099ZM23.9351 24.7599L22.6701 23.9549C22.7601 23.8099 22.8551 23.6649 22.9501 23.5199L24.2001 24.3449C24.1101 24.4799 24.0201 24.6149 23.9351 24.7549V24.7599ZM66.0601 24.6799C65.9751 24.5449 65.8851 24.4099 65.7951 24.2749L67.0451 23.4399C67.1401 23.5849 67.2351 23.7249 67.3251 23.8699L66.0601 24.6799ZM24.4751 23.9449L23.2401 23.0899C23.3401 22.9499 23.4351 22.8099 23.5351 22.6699L24.7551 23.5449C24.6601 23.6749 24.5651 23.8099 24.4751 23.9449ZM65.5201 23.8699C65.4251 23.7349 65.3351 23.6049 65.2401 23.4749L66.4551 22.5949C66.5551 22.7349 66.6551 22.8749 66.7551 23.0149L65.5251 23.8749L65.5201 23.8699ZM25.0451 23.1549L23.8451 22.2549C23.9501 22.1149 24.0551 21.9799 24.1601 21.8449L25.3451 22.7649C25.2451 22.8949 25.1451 23.0249 25.0501 23.1499L25.0451 23.1549ZM64.9501 23.0849C64.8501 22.9549 64.7551 22.8249 64.6551 22.6999L65.8351 21.7699C65.9401 21.9049 66.0451 22.0399 66.1501 22.1799L64.9551 23.0849H64.9501ZM25.6451 22.3849L24.4801 21.4399C24.5901 21.3049 24.7001 21.1749 24.8101 21.0449L25.9551 22.0149C25.8501 22.1399 25.7451 22.2649 25.6451 22.3899V22.3849ZM64.3501 22.3199C64.2451 22.1949 64.1451 22.0699 64.0401 21.9449L65.1851 20.9749C65.2951 21.1049 65.4051 21.2349 65.5151 21.3699L64.3551 22.3199H64.3501ZM26.2751 21.6449L25.1501 20.6549C25.2651 20.5249 25.3801 20.3999 25.4951 20.2699L26.6051 21.2799C26.4951 21.3999 26.3851 21.5199 26.2801 21.6449H26.2751ZM63.7201 21.5799C63.6151 21.4599 63.5051 21.3399 63.3951 21.2199L64.5001 20.2049C64.6151 20.3299 64.7301 20.4599 64.8451 20.5899L63.7201 21.5849V21.5799ZM26.9301 20.9249L25.8451 19.8899C25.9651 19.7649 26.0851 19.6399 26.2051 19.5199L27.2701 20.5749C27.1551 20.6899 27.0451 20.8049 26.9301 20.9249ZM63.0601 20.8649C62.9501 20.7499 62.8351 20.6299 62.7201 20.5149L63.7851 19.4549C63.9051 19.5749 64.0251 19.6999 64.1451 19.8249L63.0601 20.8599V20.8649ZM27.6151 20.2349L26.5701 19.1599C26.6951 19.0399 26.8201 18.9199 26.9451 18.8049L27.9701 19.8999C27.8501 20.0099 27.7351 20.1249 27.6201 20.2349H27.6151ZM62.3751 20.1749C62.2601 20.0599 62.1401 19.9499 62.0201 19.8399L63.0401 18.7399C63.1651 18.8549 63.2901 18.9749 63.4151 19.0949L62.3701 20.1749H62.3751ZM28.3251 19.5699L27.3201 18.4549C27.4501 18.3399 27.5751 18.2249 27.7051 18.1149L28.6851 19.2499C28.5601 19.3549 28.4401 19.4649 28.3201 19.5699H28.3251ZM61.6601 19.5149C61.5401 19.4049 61.4151 19.2999 61.2951 19.1949L62.2751 18.0599C62.4051 18.1699 62.5351 18.2849 62.6601 18.3999L61.6601 19.5199V19.5149ZM29.0601 18.9349L28.1001 17.7849C28.2301 17.6749 28.3651 17.5649 28.5001 17.4599L29.4351 18.6299C29.3101 18.7299 29.1851 18.8349 29.0601 18.9349ZM60.9201 18.8799C60.7951 18.7749 60.6701 18.6749 60.5401 18.5749L61.4751 17.3999C61.6101 17.5049 61.7451 17.6149 61.8751 17.7249L60.9201 18.8799ZM29.8151 18.3299L28.9001 17.1399C29.0351 17.0349 29.1751 16.9299 29.3101 16.8299L30.2001 18.0349C30.0701 18.1299 29.9401 18.2299 29.8101 18.3299H29.8151ZM60.1551 18.2749C60.0251 18.1749 59.8951 18.0799 59.7651 17.9849L60.6501 16.7749C60.7901 16.8749 60.9251 16.9799 61.0651 17.0849L60.1551 18.2749ZM30.5951 17.7499L29.7251 16.5249C29.8651 16.4249 30.0051 16.3299 30.1501 16.2299L30.9951 17.4699C30.8601 17.5599 30.7301 17.6549 30.5951 17.7449V17.7499ZM59.3701 17.6999C59.2351 17.6049 59.1051 17.5149 58.9701 17.4249L59.8101 16.1799C59.9501 16.2749 60.0951 16.3749 60.2351 16.4699L59.3751 17.6999H59.3701ZM31.4001 17.2049L30.5801 15.9499C30.7251 15.8549 30.8701 15.7649 31.0151 15.6749L31.8101 16.9449C31.6701 17.0299 31.5351 17.1199 31.4001 17.2049ZM58.5601 17.1549C58.4251 17.0649 58.2851 16.9799 58.1501 16.8949L58.9401 15.6199C59.0851 15.7099 59.2301 15.8049 59.3751 15.8949L58.5601 17.1549ZM32.2251 16.6899L31.4551 15.4049C31.6001 15.3149 31.7501 15.2299 31.9001 15.1449L32.6451 16.4449C32.5051 16.5249 32.3651 16.6049 32.2251 16.6899ZM57.7351 16.6399C57.5951 16.5549 57.4551 16.4749 57.3151 16.3949L58.0551 15.0899C58.2051 15.1749 58.3551 15.2599 58.5051 15.3499L57.7401 16.6399H57.7351ZM33.0701 16.2049L32.3501 14.8899C32.5001 14.8099 32.6501 14.7249 32.8051 14.6499L33.5001 15.9799C33.3551 16.0549 33.2151 16.1299 33.0701 16.2099V16.2049ZM56.8901 16.1549C56.7451 16.0799 56.6051 15.9999 56.4601 15.9249L57.1501 14.5899C57.3051 14.6699 57.4551 14.7499 57.6051 14.8299L56.8951 16.1499L56.8901 16.1549ZM33.9301 15.7549L33.2601 14.4099C33.4151 14.3349 33.5701 14.2599 33.7251 14.1849L34.3651 15.5399C34.2201 15.6099 34.0751 15.6799 33.9301 15.7499V15.7549ZM56.0201 15.7099C55.8751 15.6399 55.7301 15.5699 55.5801 15.4999L56.2151 14.1399C56.3701 14.2149 56.5251 14.2899 56.6801 14.3649L56.0151 15.7099H56.0201ZM34.8051 15.3399L34.1901 13.9699C34.3451 13.8999 34.5051 13.8299 34.6601 13.7649L35.2501 15.1449C35.1001 15.2099 34.9501 15.2749 34.8051 15.3399ZM55.1351 15.2949C54.9851 15.2299 54.8351 15.1649 54.6851 15.0999L55.2651 13.7149C55.4251 13.7799 55.5851 13.8499 55.7401 13.9199L55.1301 15.2899L55.1351 15.2949ZM35.7001 14.9599L35.1401 13.5699C35.3001 13.5049 35.4601 13.4449 35.6201 13.3799L36.1501 14.7849C36.0001 14.8399 35.8501 14.8999 35.7001 14.9599ZM54.2351 14.9149C54.0851 14.8549 53.9351 14.7949 53.7801 14.7399L54.3051 13.3349C54.4651 13.3949 54.6301 13.4599 54.7901 13.5199L54.2351 14.9149ZM36.6101 14.6149L36.1051 13.2049C36.2651 13.1449 36.4301 13.0899 36.5951 13.0349L37.0751 14.4549C36.9201 14.5049 36.7701 14.5599 36.6151 14.6149H36.6101ZM53.3201 14.5749C53.1651 14.5199 53.0151 14.4699 52.8601 14.4149L53.3301 12.9899C53.4951 13.0449 53.6601 13.0999 53.8201 13.1599L53.3201 14.5749ZM37.5301 14.3049L37.0801 12.8749C37.2451 12.8249 37.4101 12.7749 37.5751 12.7249L37.9951 14.1649C37.8401 14.2099 37.6851 14.2599 37.5301 14.3049ZM52.3901 14.2699C52.2351 14.2199 52.0801 14.1749 51.9251 14.1299L52.3401 12.6899C52.5051 12.7399 52.6701 12.7849 52.8351 12.8399L52.3901 14.2749V14.2699ZM38.4601 14.0349L38.0651 12.5849C38.2301 12.5399 38.3951 12.4949 38.5651 12.4549L38.9301 13.9099C38.7701 13.9499 38.6151 13.9899 38.4601 14.0349ZM51.4551 14.0049C51.3001 13.9649 51.1401 13.9249 50.9851 13.8849L51.3401 12.4299C51.5051 12.4699 51.6751 12.5149 51.8401 12.5599L51.4551 14.0099V14.0049ZM39.4051 13.7999L39.0701 12.3399C39.2351 12.2999 39.4051 12.2649 39.5751 12.2299L39.8801 13.6999C39.7201 13.7349 39.5651 13.7699 39.4051 13.8049V13.7999ZM50.5101 13.7699C50.3501 13.7349 50.1951 13.6999 50.0351 13.6699L50.3351 12.1999C50.5051 12.2349 50.6701 12.2699 50.8401 12.3099L50.5101 13.7749V13.7699ZM40.3601 13.5999L40.0801 12.1249C40.2501 12.0949 40.4201 12.0649 40.5901 12.0349L40.8401 13.5149C40.6801 13.5399 40.5201 13.5699 40.3601 13.5999ZM49.5601 13.5749C49.4001 13.5449 49.2401 13.5199 49.0801 13.4899L49.3251 12.0099C49.4951 12.0399 49.6651 12.0649 49.8351 12.0999L49.5651 13.5749H49.5601ZM41.3201 13.4349L41.1001 11.9499C41.2701 11.9249 41.4401 11.8999 41.6101 11.8799L41.8001 13.3699C41.6401 13.3899 41.4751 13.4149 41.3151 13.4349H41.3201ZM48.6001 13.4149C48.4401 13.3899 48.2801 13.3699 48.1151 13.3499L48.3001 11.8599C48.4701 11.8799 48.6401 11.9049 48.8101 11.9299L48.6001 13.4149ZM42.2851 13.3099L42.1201 11.8199C42.2901 11.7999 42.4601 11.7849 42.6351 11.7699L42.7701 13.2649C42.6101 13.2799 42.4451 13.2949 42.2851 13.3149V13.3099ZM47.6301 13.2949C47.4701 13.2799 47.3051 13.2649 47.1451 13.2499L47.2701 11.7549C47.4401 11.7699 47.6151 11.7849 47.7851 11.8049L47.6301 13.2949ZM43.2551 13.2199L43.1501 11.7249C43.3201 11.7149 43.4951 11.7049 43.6651 11.6949L43.7401 13.1949C43.5751 13.2049 43.4151 13.2149 43.2551 13.2249V13.2199ZM46.6601 13.2099C46.5001 13.1999 46.3351 13.1899 46.1751 13.1849L46.2451 11.6849C46.4151 11.6949 46.5901 11.6999 46.7601 11.7149L46.6601 13.2099ZM44.2251 13.1699L44.1801 11.6699C44.3501 11.6649 44.5251 11.6599 44.6951 11.6599L44.7151 13.1599C44.5501 13.1599 44.3901 13.1649 44.2301 13.1699H44.2251ZM45.6851 13.1699C45.5251 13.1699 45.3601 13.1649 45.2001 13.1599L45.2101 11.6599C45.3851 11.6599 45.5551 11.6599 45.7251 11.6699L45.6851 13.1699Z" fill="#06A5FF"/>
<path d="M81.0349 80.9551H14.9649C14.4549 80.9551 14.0449 80.5451 14.0449 80.0351V58.8751C14.0449 58.3651 14.4549 57.9551 14.9649 57.9551H40.3399C40.4999 57.9551 40.6549 57.9951 40.7949 58.0751L45.6499 60.8351C45.7899 60.9151 45.9449 60.9551 46.1049 60.9551H81.0399C81.5499 60.9551 81.9599 61.3651 81.9599 61.8751V80.0351C81.9599 80.5451 81.5499 80.9551 81.0399 80.9551H81.0349Z" fill="#0F172A"/>
<path d="M45 61.6001C32.03 61.6001 21.48 51.0501 21.48 38.0801C21.48 25.1101 32.03 14.5601 45 14.5601C57.97 14.5601 68.52 25.1101 68.52 38.0801C68.52 51.0501 57.97 61.6001 45 61.6001ZM45 14.8151C32.17 14.8151 21.73 25.2551 21.73 38.0851C21.73 50.9151 32.17 61.3551 45 61.3551C57.83 61.3551 68.27 50.9151 68.27 38.0851C68.27 25.2551 57.83 14.8151 45 14.8151Z" fill="#5BC3FE"/>
<path d="M78.0349 77.9551H11.9649C11.4549 77.9551 11.0449 77.5451 11.0449 77.0351V55.8751C11.0449 55.3651 11.4549 54.9551 11.9649 54.9551H37.3399C37.4999 54.9551 37.6549 54.9951 37.7949 55.0751L42.6499 57.8351C42.7899 57.9151 42.9449 57.9551 43.1049 57.9551H78.0399C78.5499 57.9551 78.9599 58.3651 78.9599 58.8751V77.0351C78.9599 77.5451 78.5499 77.9551 78.0399 77.9551H78.0349Z" fill="#2C3D5B"/>
<path d="M78.0349 78.2051H11.9649C11.3199 78.2051 10.7949 77.6801 10.7949 77.0351V55.8751C10.7949 55.2301 11.3199 54.7051 11.9649 54.7051H37.3399C37.5399 54.7051 37.7399 54.7601 37.9199 54.8601L42.7749 57.6201C42.8749 57.6751 42.9899 57.7051 43.1049 57.7051H78.0399C78.6849 57.7051 79.2099 58.2301 79.2099 58.8751V77.0351C79.2099 77.6801 78.6849 78.2051 78.0399 78.2051H78.0349ZM11.9649 55.2051C11.5949 55.2051 11.2949 55.5051 11.2949 55.8751V77.0351C11.2949 77.4051 11.5949 77.7051 11.9649 77.7051H78.0349C78.4049 77.7051 78.7049 77.4051 78.7049 77.0351V58.8751C78.7049 58.5051 78.4049 58.2051 78.0349 58.2051H43.0999C42.8999 58.2051 42.6999 58.1501 42.5199 58.0501L37.6649 55.2901C37.5649 55.2351 37.4499 55.2051 37.3349 55.2051H11.9649Z" fill="#6ABEEB"/>
<path d="M17.14 64.22H19.09C19.235 64.22 19.355 64.34 19.355 64.485V66.76C19.355 66.905 19.475 67.025 19.62 67.025H21.795C21.94 67.025 22.06 66.905 22.06 66.76V64.485C22.06 64.34 22.18 64.22 22.325 64.22H24.285C24.43 64.22 24.55 64.34 24.55 64.485V71.975C24.55 72.12 24.43 72.24 24.285 72.24H22.325C22.18 72.24 22.06 72.12 22.06 71.975V69.26C22.06 69.115 21.94 68.995 21.795 68.995H19.62C19.475 68.995 19.355 69.115 19.355 69.26V71.975C19.355 72.12 19.235 72.24 19.09 72.24H17.14C16.995 72.24 16.875 72.12 16.875 71.975V64.485C16.875 64.34 16.995 64.22 17.14 64.22Z" fill="#FB7200"/>
<path d="M25.8848 68.2351C25.8848 66.9251 26.2498 65.9051 26.9798 65.1751C27.7098 64.4451 28.7248 64.0801 30.0298 64.0801C31.3348 64.0801 32.3948 64.4401 33.1148 65.1551C33.8348 65.8701 34.1998 66.8751 34.1998 68.1651C34.1998 69.1051 34.0398 69.8701 33.7248 70.4701C33.4098 71.0701 32.9548 71.5351 32.3548 71.8701C31.7598 72.2051 31.0148 72.3701 30.1248 72.3701C29.2348 72.3701 28.4698 72.2251 27.8798 71.9401C27.2898 71.6551 26.8048 71.1951 26.4398 70.5701C26.0698 69.9451 25.8848 69.1651 25.8848 68.2301V68.2351ZM28.3648 68.2451C28.3648 69.0551 28.5148 69.6351 28.8148 69.9901C29.1148 70.3451 29.5248 70.5201 30.0448 70.5201C30.5648 70.5201 30.9898 70.3451 31.2798 70.0001C31.5698 69.6551 31.7198 69.0301 31.7198 68.1351C31.7198 67.3801 31.5698 66.8301 31.2648 66.4801C30.9598 66.1301 30.5448 65.9601 30.0248 65.9601C29.5048 65.9601 29.1248 66.1351 28.8198 66.4901C28.5148 66.8451 28.3648 67.4301 28.3648 68.2451Z" fill="#FB7200"/>
<path d="M35.8002 64.22H37.7502C37.8952 64.22 38.0152 64.34 38.0152 64.485V70C38.0152 70.145 38.1352 70.265 38.2802 70.265H41.6152C41.7602 70.265 41.8802 70.385 41.8802 70.53V71.975C41.8802 72.12 41.7602 72.24 41.6152 72.24H35.8002C35.6552 72.24 35.5352 72.12 35.5352 71.975V64.485C35.5352 64.34 35.6552 64.22 35.8002 64.22Z" fill="#FB7200"/>
<path d="M43.04 64.485C43.04 64.34 43.16 64.22 43.305 64.22H46.72C47.445 64.22 48.03 64.32 48.48 64.515C48.925 64.71 49.295 64.995 49.59 65.365C49.88 65.735 50.095 66.16 50.225 66.65C50.355 67.14 50.42 67.655 50.42 68.205C50.42 69.06 50.325 69.725 50.125 70.2C49.93 70.67 49.66 71.07 49.315 71.385C48.97 71.705 48.595 71.915 48.2 72.025C47.655 72.17 47.165 72.245 46.725 72.245H43.31C43.165 72.245 43.045 72.125 43.045 71.98V64.49L43.04 64.485ZM45.52 66.035V70.42H46.125C46.645 70.42 47.01 70.36 47.23 70.25C47.45 70.135 47.62 69.935 47.745 69.65C47.87 69.365 47.93 68.9 47.93 68.255C47.93 67.405 47.79 66.825 47.515 66.51C47.24 66.195 46.78 66.04 46.135 66.04H45.515L45.52 66.035Z" fill="#FB7200"/>
<path d="M58.945 64.22H60.885C61.03 64.22 61.15 64.34 61.15 64.485V69C61.15 69.625 61.02 70.2 60.765 70.735C60.68 70.91 60.57 71.07 60.445 71.215C60.065 71.655 59.665 71.955 59.24 72.11C58.76 72.29 58.18 72.38 57.505 72.38C57.115 72.38 56.69 72.355 56.225 72.3C55.76 72.245 55.38 72.135 55.07 71.975C54.76 71.815 54.475 71.58 54.22 71.285C53.965 70.985 53.785 70.68 53.69 70.36C53.535 69.85 53.46 69.4 53.46 69.005V64.49C53.46 64.345 53.58 64.225 53.725 64.225H55.665C55.81 64.225 55.93 64.345 55.93 64.49V69.115C55.93 69.555 56.05 69.895 56.295 70.14C56.54 70.385 56.875 70.51 57.305 70.51C57.735 70.51 58.065 70.39 58.31 70.145C58.555 69.905 58.675 69.56 58.675 69.115V64.49C58.675 64.345 58.795 64.225 58.94 64.225L58.945 64.22Z" fill="#FB7200"/>
<path d="M62.7852 64.485C62.7852 64.34 62.9052 64.22 63.0502 64.22H66.9052C67.8002 64.22 68.4752 64.435 68.9202 64.86C69.3652 65.285 69.5902 65.895 69.5902 66.68C69.5902 67.465 69.3452 68.125 68.8602 68.58C68.3752 69.035 67.6302 69.265 66.6302 69.265H65.5402C65.3952 69.265 65.2752 69.385 65.2752 69.53V71.975C65.2752 72.12 65.1552 72.24 65.0102 72.24H63.0502C62.9052 72.24 62.7852 72.12 62.7852 71.975V64.485ZM65.2752 67.64H65.8802C66.3602 67.64 66.6952 67.555 66.8852 67.39C67.0802 67.225 67.1752 67.01 67.1752 66.755C67.1752 66.5 67.0902 66.29 66.9252 66.115C66.7552 65.94 66.4402 65.85 65.9802 65.85H65.2752V67.64Z" fill="#FB7200"/>
<path d="M71.0101 64.22H72.8601C73.0051 64.22 73.1251 64.34 73.1251 64.485V66.03C73.1251 66.03 73.1251 66.05 73.1251 66.065L72.6951 69.485C72.6801 69.62 72.5651 69.715 72.4301 69.715H71.4301C71.2951 69.715 71.1851 69.615 71.1651 69.48L70.7451 66.06C70.7451 66.06 70.7451 66.04 70.7451 66.03V64.485C70.7451 64.34 70.8651 64.22 71.0101 64.22ZM71.0901 70.275H72.7801C72.9251 70.275 73.0451 70.395 73.0451 70.54V71.975C73.0451 72.12 72.9251 72.24 72.7801 72.24H71.0901C70.9451 72.24 70.8251 72.12 70.8251 71.975V70.54C70.8251 70.395 70.9451 70.275 71.0901 70.275Z" fill="#FB7200"/>
<path d="M15.8951 56.2051H12.7051V58.2051H15.8951V56.2051Z" fill="#06A5FF"/>
<path d="M20.1202 56.2051H16.9302V58.2051H20.1202V56.2051Z" fill="#06A5FF"/>
<path d="M24.3448 56.2051H21.1548V58.2051H24.3448V56.2051Z" fill="#06A5FF"/>
<path d="M28.5699 56.2051H25.3799V58.2051H28.5699V56.2051Z" fill="#06A5FF"/>
<path d="M32.795 56.2051H29.605V58.2051H32.795V56.2051Z" fill="#06A5FF"/>
<path d="M37.2051 58.2051H34.0151V56.2051H34.8451L37.2051 57.2051V58.2051Z" fill="#06A5FF"/>
<path d="M78.2051 57.2051H73.1701C72.9151 57.2051 72.7051 57.4151 72.7051 57.6701V58.7401C72.7051 58.9951 72.9151 59.2051 73.1701 59.2051H77.7401C77.9951 59.2051 78.2051 59.4151 78.2051 59.6701V63.2401C78.2051 63.4951 78.4151 63.7051 78.6701 63.7051H79.2401C79.4951 63.7051 79.7051 63.4951 79.7051 63.2401V57.6701C79.7051 57.4151 79.4951 57.2051 79.2401 57.2051H78.2051Z" fill="#06A5FF"/>
<path d="M11.7051 78.7051H16.7401C16.9951 78.7051 17.2051 78.4951 17.2051 78.2401V77.1701C17.2051 76.9151 16.9951 76.7051 16.7401 76.7051H12.1701C11.9151 76.7051 11.7051 76.4951 11.7051 76.2401V72.6701C11.7051 72.4151 11.4951 72.2051 11.2401 72.2051H10.6701C10.4151 72.2051 10.2051 72.4151 10.2051 72.6701V78.2401C10.2051 78.4951 10.4151 78.7051 10.6701 78.7051H11.7051Z" fill="#06A5FF"/>
<path d="M63.8951 47.5498H26.1051C25.0351 47.5498 24.1001 47.0298 23.6551 46.1948C23.2901 45.5048 23.3401 44.7348 23.7851 44.0798L42.6801 16.3548C43.1651 15.6398 44.0351 15.2148 45.0001 15.2148C45.9651 15.2148 46.8351 15.6398 47.3201 16.3548L66.2151 44.0798C66.6601 44.7348 66.7101 45.5048 66.3451 46.1948C65.9051 47.0298 64.9651 47.5498 63.8951 47.5498ZM45.0001 15.5898C44.1601 15.5898 43.4101 15.9548 42.9901 16.5648L24.0951 44.2898C23.7301 44.8248 23.6901 45.4548 23.9851 46.0148C24.3601 46.7248 25.1751 47.1698 26.1001 47.1698H63.8951C64.8251 47.1698 65.6351 46.7248 66.0101 46.0148C66.3051 45.4548 66.2651 44.8248 65.9001 44.2898L47.0051 16.5648C46.5901 15.9548 45.8351 15.5898 44.9951 15.5898H45.0001Z" fill="#FB923C"/>
<path d="M68.095 50.6299H21.905C20.6 50.6299 19.435 50.0499 18.78 49.0849C18.13 48.1149 18.13 46.9599 18.78 45.9899L41.875 11.6949C42.525 10.7249 43.695 10.1499 45 10.1499C46.305 10.1499 47.47 10.7299 48.125 11.6949L71.22 45.9949C71.87 46.9649 71.87 48.1199 71.22 49.0899C70.57 50.0599 69.4 50.6349 68.095 50.6349V50.6299ZM42.835 12.1699L19.74 46.4649C19.29 47.1349 19.29 47.9399 19.74 48.6099C20.19 49.2799 21 49.6799 21.905 49.6799H68.09C68.995 49.6799 69.805 49.2799 70.255 48.6099C70.705 47.9399 70.705 47.1349 70.255 46.4649L47.165 12.1699C46.715 11.4999 45.905 11.0999 45 11.0999C44.095 11.0999 43.285 11.4999 42.835 12.1699Z" fill="#FB7200"/>
<path d="M49.3252 13.48L51.0852 14.115L54.9552 19.335L54.8252 21.65L49.3252 13.48Z" fill="#FB7200"/>
<path d="M20.0599 44.095L19.3999 42.795L23.4299 37.355H24.9349L20.0599 44.095Z" fill="#FB7200"/>
<path d="M51.1851 50.6299L52.7451 51.5799H62.7001L64.1251 50.6299H51.1851Z" fill="#FB7200"/>
<path d="M42.8001 23.2849H46.8351C47.4751 23.2849 47.9901 23.8049 47.9901 24.4399V28.0849C47.9901 28.1349 47.9901 28.1799 47.9801 28.2299L46.8901 36.9349C46.8201 37.5149 46.3251 37.9499 45.7451 37.9499H43.8651C43.2801 37.9499 42.7901 37.5149 42.7151 36.9349L41.6501 28.2299C41.6451 28.1849 41.6401 28.1349 41.6401 28.0899V24.4449C41.6401 23.8049 42.1601 23.2899 42.7951 23.2899L42.8001 23.2849ZM43.0201 39.4349H46.6301C47.2701 39.4349 47.7851 39.9549 47.7851 40.5899V43.5149C47.7851 44.1549 47.2651 44.6699 46.6301 44.6699H43.0201C42.3801 44.6699 41.8651 44.1499 41.8651 43.5149V40.5899C41.8651 39.9499 42.3851 39.4349 43.0201 39.4349Z" fill="#FB7200"/>
<path d="M73.5001 75.0801H13.3301V63.4001L15.6451 61.3301H76.0801V72.9351L73.5001 75.0801ZM13.5801 74.8301H73.4101L75.8301 72.8201V61.5801H15.7401L13.5801 63.5101V74.8301Z" fill="#315D93"/>
</g>
</g>
</g>
<defs>
<linearGradient id="paint0_linear_2642_1660" x1="45" y1="75.34" x2="45" y2="4.05" gradientUnits="userSpaceOnUse">
<stop stop-color="#1D2E43" stop-opacity="0"/>
<stop offset="1" stop-color="#0E1B30"/>
</linearGradient>
<clipPath id="clip0_2642_1660">
<rect width="80" height="80" fill="white" transform="translate(5 5)"/>
</clipPath>
<clipPath id="clip1_2642_1660">
<rect width="80" height="80" fill="white" transform="translate(5 5)"/>
</clipPath>
</defs>
</svg>
