<svg width="40" height="40" viewBox="0 0 40 40" fill="none" xmlns="http://www.w3.org/2000/svg">
<g id="article">
<mask id="mask0_3142_586" style="mask-type:alpha" maskUnits="userSpaceOnUse" x="0" y="0" width="40" height="40">
<rect id="Bounding box" width="40" height="40" fill="#D9D9D9"/>
</mask>
<g mask="url(#mask0_3142_586)">
<path id="article_2" d="M9.86076 25.411L15.7302 24.216C16.0628 24.1483 16.3187 23.979 16.4979 23.7082C16.6771 23.4374 16.7328 23.1357 16.6651 22.8031C16.5974 22.4705 16.4281 22.2146 16.1573 22.0354C15.8865 21.8562 15.5848 21.8005 15.2522 21.8682L9.38276 23.0632C9.05016 23.1309 8.79426 23.3002 8.61507 23.571C8.43588 23.8418 8.38015 24.1435 8.44786 24.4761C8.51558 24.8087 8.68484 25.0646 8.95565 25.2438C9.22645 25.423 9.52815 25.4787 9.86076 25.411ZM8.68966 19.6589L18.0808 17.7469C18.4134 17.6792 18.6693 17.51 18.8485 17.2391C19.0277 16.9683 19.0834 16.6666 19.0157 16.334C18.948 16.0014 18.7787 15.7455 18.5079 15.5663C18.2371 15.3872 17.9354 15.3314 17.6028 15.3991L8.21166 17.3111C7.87906 17.3789 7.62316 17.5481 7.44397 17.8189C7.26479 18.0897 7.20905 18.3914 7.27677 18.724C7.34448 19.0566 7.51374 19.3125 7.78455 19.4917C8.05535 19.6709 8.35706 19.7266 8.68966 19.6589ZM7.30346 12.8503L16.6946 10.9383C17.0272 10.8706 17.2831 10.7014 17.4623 10.4306C17.6415 10.1598 17.6972 9.85806 17.6295 9.52545C17.5618 9.19285 17.3925 8.93695 17.1217 8.75777C16.8509 8.57858 16.5492 8.52284 16.2166 8.59056L6.82547 10.5026C6.49286 10.5703 6.23697 10.7395 6.05778 11.0103C5.87859 11.2811 5.82286 11.5828 5.89057 11.9154C5.95829 12.2481 6.12755 12.5039 6.39835 12.6831C6.66916 12.8623 6.97086 12.9181 7.30346 12.8503ZM7.29507 30.8236C6.64943 30.955 6.04992 30.8377 5.49654 30.4715C4.94315 30.1053 4.60074 29.5994 4.46929 28.9538L0.477999 9.34976C0.346549 8.70412 0.463908 8.10461 0.830075 7.55123C1.19624 6.99784 1.70215 6.65543 2.34779 6.52398L18.7823 3.17799C19.4279 3.04654 20.0275 3.1639 20.5808 3.53006C21.1342 3.89623 21.4766 4.40213 21.6081 5.04778L25.5994 24.6518C25.7308 25.2974 25.6135 25.897 25.2473 26.4503C24.8811 27.0037 24.3752 27.3461 23.7296 27.4776L7.29507 30.8236ZM6.81708 28.4758L23.2516 25.1298L19.2603 5.52577L2.82579 8.87176L6.81708 28.4758Z" fill="url(#paint0_radial_3142_586)"/>
<path id="article (Stroke)" fill-rule="evenodd" clip-rule="evenodd" d="M2.44739 7.01393C1.93273 7.11871 1.54049 7.38346 1.24691 7.82714C0.953337 8.27081 0.86302 8.73535 0.967804 9.25001L4.95909 28.854C5.06388 29.3687 5.32863 29.7609 5.7723 30.0545C6.21598 30.3481 6.68051 30.4384 7.19518 30.3336L23.6297 26.9876C24.1444 26.8829 24.5366 26.6181 24.8302 26.1744C25.1237 25.7307 25.2141 25.2662 25.1093 24.7516L21.118 5.14753C21.0132 4.63286 20.7485 4.24062 20.3048 3.94704C19.8611 3.65347 19.3966 3.56315 18.8819 3.66793L2.44739 7.01393ZM0.41295 7.27531C0.851709 6.61222 1.47128 6.19214 2.24789 6.03403L18.6824 2.68804C19.459 2.52992 20.1935 2.67432 20.8566 3.11308C21.5197 3.55184 21.9398 4.17141 22.0979 4.94802L26.0892 24.552C26.2473 25.3287 26.1029 26.0632 25.6641 26.7262C25.2254 27.3893 24.6058 27.8094 23.8292 27.9675L7.39468 31.3135C6.61806 31.4716 5.88357 31.3272 5.22048 30.8885C4.55739 30.4497 4.13731 29.8302 3.9792 29.0535L-0.0120937 9.44951C-0.170209 8.6729 -0.0258093 7.93841 0.41295 7.27531ZM2.23594 8.48157L19.6504 4.93607L23.8411 25.52L6.42673 29.0655L2.23594 8.48157ZM3.41534 9.26196L7.20713 27.8861L22.6617 24.7396L18.87 6.11547L3.41534 9.26196ZM5.64065 10.7344C5.89663 10.3476 6.26958 10.1054 6.72557 10.0126L16.1167 8.10061C16.5727 8.00777 17.0106 8.08481 17.3975 8.34078C17.7843 8.59676 18.0265 8.96971 18.1193 9.4257C18.2122 9.88169 18.1351 10.3196 17.8791 10.7065C17.6232 11.0933 17.2502 11.3355 16.7942 11.4283L7.40307 13.3403C6.94708 13.4331 6.50915 13.3561 6.1223 13.1001C5.73544 12.8441 5.49332 12.4712 5.40048 12.0152C5.30764 11.5592 5.38468 11.1213 5.64065 10.7344ZM6.92507 10.9925C6.71586 11.0351 6.57702 11.1315 6.47462 11.2862C6.37222 11.441 6.33778 11.6065 6.38038 11.8157C6.42297 12.0249 6.51936 12.1638 6.67412 12.2662C6.82888 12.3686 6.99435 12.403 7.20357 12.3604L16.5947 10.4484C16.8039 10.4058 16.9428 10.3094 17.0452 10.1547C17.1476 9.9999 17.182 9.83442 17.1394 9.6252C17.0968 9.41599 17.0004 9.27715 16.8457 9.17475C16.6909 9.07235 16.5254 9.03791 16.3162 9.08051L6.92507 10.9925ZM7.02685 17.543C7.28283 17.1562 7.65578 16.914 8.11177 16.8212L17.5029 14.9092C17.9589 14.8164 18.3968 14.8934 18.7837 15.1494C19.1705 15.4053 19.4127 15.7783 19.5055 16.2343C19.5983 16.6903 19.5213 17.1282 19.2653 17.5151C19.0094 17.9019 18.6364 18.144 18.1804 18.2369L8.78927 20.1489C8.33328 20.2417 7.89535 20.1647 7.50849 19.9087C7.12164 19.6527 6.87951 19.2798 6.78668 18.8238C6.69384 18.3678 6.77087 17.9299 7.02685 17.543ZM8.31127 17.8011C8.10205 17.8437 7.96321 17.9401 7.86081 18.0948C7.75841 18.2496 7.72398 18.4151 7.76657 18.6243C7.80917 18.8335 7.90556 18.9723 8.06032 19.0747C8.21507 19.1771 8.38055 19.2116 8.58977 19.169L17.9809 17.257C18.1901 17.2144 18.329 17.118 18.4314 16.9632C18.5338 16.8085 18.5682 16.643 18.5256 16.4338C18.483 16.2246 18.3866 16.0857 18.2319 15.9833C18.0771 15.8809 17.9116 15.8465 17.7024 15.8891L8.31127 17.8011ZM8.19795 23.2951C8.45392 22.9082 8.82688 22.6661 9.28286 22.5733L15.1523 21.3783C15.6083 21.2854 16.0463 21.3625 16.4331 21.6184C16.82 21.8744 17.0621 22.2474 17.1549 22.7034C17.2478 23.1593 17.1707 23.5973 16.9148 23.9841C16.6588 24.371 16.2858 24.6131 15.8298 24.706L9.96037 25.901C9.50438 25.9938 9.06644 25.9168 8.67959 25.6608C8.29274 25.4048 8.05061 25.0318 7.95777 24.5759C7.86494 24.1199 7.94197 23.6819 8.19795 23.2951ZM9.48237 23.5532C9.27315 23.5958 9.13431 23.6922 9.03191 23.8469C8.92951 24.0017 8.89507 24.1671 8.93767 24.3764C8.98027 24.5856 9.07666 24.7244 9.23141 24.8268C9.38617 24.9292 9.55165 24.9637 9.76086 24.9211L15.6303 23.7261C15.8395 23.6835 15.9784 23.5871 16.0808 23.4323C16.1832 23.2776 16.2176 23.1121 16.175 22.9029C16.1324 22.6936 16.036 22.5548 15.8813 22.4524C15.7265 22.35 15.5611 22.3156 15.3518 22.3582L9.48237 23.5532Z" fill="url(#paint1_radial_3142_586)"/>
<g id="Group 1500">
<path id="Vector 817" d="M14.5566 32.3499L19.9475 10.7864L38.2766 15.6382L32.3466 37.2018L14.5566 32.3499Z" fill="#C8FCFF"/>
<path id="Vector 817 (Stroke)" fill-rule="evenodd" clip-rule="evenodd" d="M19.5847 10.1732L38.8918 15.2839L32.6957 37.8153L13.9521 32.7035L19.5847 10.1732ZM20.3089 11.3994L15.1597 31.9963L31.9961 36.588L37.6599 15.9923L20.3089 11.3994Z" fill="black"/>
<path id="article_3" d="M15.258 33.7821C14.6199 33.6179 14.1321 33.2502 13.7946 32.6789C13.4571 32.1075 13.3704 31.5028 13.5346 30.8647L18.5192 11.4895C18.6834 10.8514 19.0512 10.3635 19.6225 10.026C20.1938 9.68854 20.7985 9.60187 21.4366 9.76604L37.6793 13.9448C38.3175 14.109 38.8053 14.4767 39.1428 15.048C39.4803 15.6194 39.5669 16.2241 39.4028 16.8622L34.4181 36.2374C34.2539 36.8756 33.8862 37.3634 33.3149 37.7009C32.7435 38.0384 32.1388 38.125 31.5007 37.9609L15.258 33.7821ZM15.8549 31.4617L32.0977 35.6405L37.0824 16.2652L20.8396 12.0864L15.8549 31.4617Z" fill="url(#paint2_radial_3142_586)"/>
<path id="article (Stroke)_2" fill-rule="evenodd" clip-rule="evenodd" d="M21.3123 10.2503C20.8036 10.1194 20.3351 10.186 19.8771 10.4566C19.419 10.7272 19.1346 11.1054 19.0038 11.6141L14.0191 30.9894C13.8882 31.498 13.9547 31.9665 14.2253 32.4246C14.4959 32.8826 14.8742 33.167 15.3828 33.2979L31.6256 37.4767C32.1342 37.6075 32.6028 37.541 33.0608 37.2704C33.5189 36.9998 33.8033 36.6216 33.9341 36.1129L38.9188 16.7376C39.0497 16.229 38.9831 15.7605 38.7125 15.3024C38.442 14.8443 38.0637 14.56 37.555 14.4291L21.3123 10.2503ZM19.3684 9.59559C20.053 9.19118 20.7939 9.08438 21.5615 9.28185L37.8042 13.4606C38.5718 13.6581 39.1691 14.1092 39.5735 14.7938C39.9779 15.4784 40.0847 16.2192 39.8873 16.9868L34.9026 36.3621C34.7051 37.1296 34.254 37.727 33.5694 38.1314C32.8849 38.5358 32.144 38.6426 31.3764 38.4451L15.1337 34.2664C14.3661 34.0689 13.7688 33.6178 13.3643 32.9332C12.9599 32.2486 12.8531 31.5077 13.0506 30.7402L18.0353 11.3649C18.2328 10.5974 18.6839 10 19.3684 9.59559ZM20.4803 11.4777L37.6915 15.9056L32.4576 36.2493L15.2464 31.8214L20.4803 11.4777ZM21.1996 12.6953L16.464 31.1021L31.7383 35.0317L36.4738 16.6249L21.1996 12.6953Z" fill="url(#paint3_radial_3142_586)"/>
</g>
<path id="task" d="M24.3366 25.464L23.1131 23.3595C23.0257 23.2092 22.9205 23.086 22.7976 22.9899C22.6747 22.8937 22.5389 22.826 22.3904 22.7867C22.2418 22.7473 22.0854 22.7377 21.9211 22.7578C21.7568 22.7779 21.5995 22.8317 21.4491 22.9191C21.1485 23.0938 20.9549 23.3447 20.8684 23.6715C20.7819 23.9984 20.826 24.3121 21.0008 24.6127L22.85 27.8367C22.9374 27.987 23.0439 28.1053 23.1695 28.1915C23.295 28.2777 23.437 28.3418 23.5955 28.3838C23.754 28.4257 23.9091 28.4403 24.0609 28.4275C24.2126 28.4146 24.3637 28.3645 24.514 28.2771L30.8649 24.5848C31.1655 24.41 31.3604 24.1542 31.4495 23.8175C31.5387 23.4807 31.4958 23.162 31.3211 22.8614C31.1463 22.5608 30.8905 22.3659 30.5537 22.2767C30.217 22.1876 29.8983 22.2304 29.5977 22.4052L24.3366 25.464Z" fill="url(#paint4_radial_3142_586)"/>
<path id="task (Stroke)" fill-rule="evenodd" clip-rule="evenodd" d="M29.3463 21.973C29.7618 21.7314 30.2169 21.6704 30.6816 21.7934C31.1463 21.9164 31.5117 22.1946 31.7532 22.6101C31.9948 23.0256 32.0558 23.4807 31.9328 23.9454C31.8098 24.4101 31.5316 24.7755 31.1161 25.0171L24.7652 28.7094C24.56 28.8287 24.3382 28.9058 24.1029 28.9257C23.8898 28.9437 23.6771 28.9226 23.4675 28.8671C23.2578 28.8116 23.0626 28.7247 22.8863 28.6037C22.6916 28.47 22.537 28.2932 22.4177 28.088L22.4162 28.0855L20.5677 24.8627C20.329 24.4514 20.2636 24.0021 20.385 23.5436C20.5065 23.0845 20.7861 22.7261 21.1978 22.4868C21.4036 22.3671 21.6254 22.2903 21.8603 22.2615C22.0828 22.2343 22.3036 22.2465 22.5182 22.3033C22.7333 22.3602 22.9301 22.4588 23.1055 22.596C23.284 22.7355 23.4296 22.9092 23.5453 23.1082L24.5175 24.7804L29.3463 21.973ZM30.4257 22.7601C30.2169 22.7048 30.0347 22.7295 29.8489 22.8375L24.1556 26.1475L22.6808 23.6108C22.6217 23.5092 22.557 23.4364 22.4895 23.3837C22.4191 23.3286 22.3444 23.2917 22.2623 23.27C22.1799 23.2482 22.0878 23.2411 21.9817 23.2541C21.888 23.2656 21.7952 23.2962 21.7004 23.3513C21.5107 23.4616 21.4032 23.6048 21.3517 23.7995C21.3002 23.9941 21.3227 24.1718 21.433 24.3614L21.4345 24.364L23.2829 27.5865C23.3381 27.6812 23.3962 27.7407 23.4524 27.7793C23.5273 27.8307 23.6161 27.872 23.7234 27.9004C23.8307 27.9288 23.9283 27.9369 24.0187 27.9292C24.0869 27.9235 24.1672 27.9003 24.2626 27.8449L30.6135 24.1525C30.7993 24.0445 30.9108 23.8984 30.9661 23.6895C31.0214 23.4807 30.9967 23.2985 30.8887 23.1127C30.7807 22.927 30.6345 22.8154 30.4257 22.7601Z" fill="url(#paint5_radial_3142_586)"/>
</g>
</g>
<defs>
<radialGradient id="paint0_radial_3142_586" cx="0" cy="0" r="1" gradientUnits="userSpaceOnUse" gradientTransform="translate(5.85665 0.0101072) rotate(71.8177) scale(30.689 31.3814)">
<stop stop-color="#4CE1EA"/>
<stop offset="0.672951" stop-color="#1FA1A9"/>
</radialGradient>
<radialGradient id="paint1_radial_3142_586" cx="0" cy="0" r="1" gradientUnits="userSpaceOnUse" gradientTransform="translate(5.54526 -0.670651) rotate(71.7792) scale(31.9291 32.8341)">
<stop stop-color="#4CE1EA"/>
<stop offset="0.672951" stop-color="#1FA1A9"/>
</radialGradient>
<radialGradient id="paint2_radial_3142_586" cx="0" cy="0" r="1" gradientUnits="userSpaceOnUse" gradientTransform="translate(27.441 5.44283) rotate(97.7532) scale(30.689 31.3814)">
<stop stop-color="#4CE1EA"/>
<stop offset="0.672951" stop-color="#1FA1A9"/>
</radialGradient>
<radialGradient id="paint3_radial_3142_586" cx="0" cy="0" r="1" gradientUnits="userSpaceOnUse" gradientTransform="translate(27.4591 4.69456) rotate(97.7148) scale(31.9291 32.8341)">
<stop stop-color="#4CE1EA"/>
<stop offset="0.672951" stop-color="#1FA1A9"/>
</radialGradient>
<radialGradient id="paint4_radial_3142_586" cx="0" cy="0" r="1" gradientUnits="userSpaceOnUse" gradientTransform="translate(25.5815 19.1389) rotate(94.6343) scale(9.59667 14.8049)">
<stop stop-color="#4CE1EA"/>
<stop offset="0.672951" stop-color="#1FA1A9"/>
</radialGradient>
<radialGradient id="paint5_radial_3142_586" cx="0" cy="0" r="1" gradientUnits="userSpaceOnUse" gradientTransform="translate(25.6045 18.3908) rotate(94.9236) scale(10.8358 16.2615)">
<stop stop-color="#4CE1EA"/>
<stop offset="0.672951" stop-color="#1FA1A9"/>
</radialGradient>
</defs>
</svg>
