<svg width="109" height="108" viewBox="0 0 109 108" fill="none" xmlns="http://www.w3.org/2000/svg">
<g id="AssessMana">
<mask id="mask0_1984_262" style="mask-type:alpha" maskUnits="userSpaceOnUse" x="0" y="0" width="109" height="108">
<rect id="Bounding box" x="0.5" width="108" height="108" fill="#D9D9D9"/>
</mask>
<g mask="url(#mask0_1984_262)">
<path id="add_notes" d="M17.9444 101C15.0722 101 12.6134 99.9773 10.5681 97.932C8.52269 95.8866 7.5 93.4278 7.5 90.5556V17.4444C7.5 14.5722 8.52269 12.1134 10.5681 10.0681C12.6134 8.02269 15.0722 7 17.9444 7H91.0556C93.9278 7 96.3866 8.02269 98.432 10.0681C100.477 12.1134 101.5 14.5722 101.5 17.4444V52.4333C99.8463 51.65 98.1491 50.9755 96.4083 50.4097C94.6676 49.844 92.8833 49.4306 91.0556 49.1694V17.4444H17.9444V90.5556H49.5389C49.8 92.4704 50.2134 94.2982 50.7792 96.0389C51.3449 97.7796 52.0194 99.4333 52.8028 101H17.9444ZM17.9444 90.5556V17.4444V49.1694V48.7778V90.5556ZM28.3889 80.1111H49.6694C49.9306 78.2833 50.344 76.4991 50.9097 74.7583C51.4755 73.0176 52.1065 71.3204 52.8028 69.6667H28.3889V80.1111ZM28.3889 59.2222H60.2444C63.0296 56.6111 66.1412 54.4352 69.5792 52.6944C73.0171 50.9537 76.6944 49.7787 80.6111 49.1694V48.7778H28.3889V59.2222ZM28.3889 38.3333H80.6111V27.8889H28.3889V38.3333Z" fill="white"/>
<path id="folder_managed" d="M79.1546 106L77.701 98.8C76.732 98.4 75.8234 97.98 74.9755 97.54C74.1276 97.1 73.2594 96.56 72.3711 95.92L65.3454 98.08L60.5 89.92L66.0722 85.12C65.9107 84.16 65.8299 83.12 65.8299 82C65.8299 80.88 65.9107 79.84 66.0722 78.88L60.5 74.08L65.3454 65.92L72.3711 68.08C73.2594 67.44 74.1276 66.9 74.9755 66.46C75.8234 66.02 76.732 65.6 77.701 65.2L79.1546 58H88.8454L90.299 65.2C91.268 65.6 92.1765 66.02 93.0245 66.46C93.8724 66.9 94.7405 67.44 95.6289 68.08L102.655 65.92L107.5 74.08L101.928 78.88C102.089 79.84 102.17 80.88 102.17 82C102.17 83.12 102.089 84.16 101.928 85.12L107.5 89.92L102.655 98.08L95.6289 95.92C94.7405 96.56 93.8724 97.1 93.0245 97.54C92.1765 97.98 91.268 98.4 90.299 98.8L88.8454 106H79.1546ZM84 91.6C86.6649 91.6 88.9463 90.66 90.8441 88.78C92.7418 86.9 93.6907 84.64 93.6907 82C93.6907 79.36 92.7418 77.1 90.8441 75.22C88.9463 73.34 86.6649 72.4 84 72.4C81.335 72.4 79.0537 73.34 77.1559 75.22C75.2582 77.1 74.3093 79.36 74.3093 82C74.3093 84.64 75.2582 86.9 77.1559 88.78C79.0537 90.66 81.335 91.6 84 91.6Z" fill="white"/>
</g>
</g>
</svg>
