<svg width="34" height="34" viewBox="0 0 34 34" fill="none" xmlns="http://www.w3.org/2000/svg">
<g id="Group 1509">
<circle id="Ellipse 88" cx="17" cy="17" r="16.625" stroke="#00C4D0" stroke-width="0.75"/>
<g id="Group 1508">
<path id="Vector" d="M18.8026 19.0635C18.3954 19.0606 17.9981 18.9372 17.6608 18.7088C17.3236 18.4803 17.0615 18.1571 16.9076 17.7798C16.7537 17.4025 16.7149 16.988 16.7961 16.5887C16.8773 16.1894 17.0748 15.823 17.3637 15.5359C17.6527 15.2487 18.0202 15.0536 18.4198 14.9751C18.8194 14.8967 19.2333 14.9384 19.6093 15.095C19.9853 15.2515 20.3065 15.516 20.5325 15.8551C20.7584 16.1941 20.879 16.5925 20.879 17C20.8769 17.5491 20.657 18.0749 20.2677 18.4618C19.8783 18.8487 19.3513 19.0651 18.8026 19.0635ZM18.8026 15.3952C18.4855 15.399 18.1766 15.4965 17.9148 15.6756C17.653 15.8547 17.45 16.1073 17.3314 16.4016C17.2127 16.6959 17.1838 17.0188 17.2482 17.3295C17.3126 17.6402 17.4674 17.925 17.6932 18.1478C17.919 18.3707 18.2056 18.5217 18.517 18.5818C18.8284 18.642 19.1506 18.6086 19.4431 18.4859C19.7355 18.3631 19.9852 18.1566 20.1605 17.8921C20.3359 17.6277 20.4291 17.3173 20.4285 17C20.4273 16.7876 20.3842 16.5775 20.3018 16.3817C20.2195 16.186 20.0993 16.0083 19.9484 15.859C19.7974 15.7097 19.6185 15.5916 19.4219 15.5115C19.2253 15.4314 19.0149 15.3908 18.8026 15.392V15.3952Z" fill="#00C4D0"/>
<path id="Vector_2" d="M22.4029 20.9142C22.1084 20.9157 21.8162 20.8618 21.5416 20.7554C21.2571 20.6436 20.9977 20.4762 20.7785 20.2631C20.5593 20.05 20.3846 19.7955 20.2646 19.5142C20.1446 19.2368 20.0811 18.9382 20.0779 18.6359C20.0746 18.3337 20.1316 18.0338 20.2456 17.7538C20.2681 17.6983 20.3117 17.6539 20.3669 17.6306C20.4221 17.6072 20.4843 17.6067 20.5398 17.6292C20.5954 17.6518 20.6397 17.6954 20.663 17.7507C20.6864 17.8059 20.6869 17.8681 20.6643 17.9237C20.5728 18.1483 20.5269 18.3889 20.5294 18.6315C20.5318 18.874 20.5826 19.1137 20.6786 19.3364C20.7756 19.5628 20.9165 19.7676 21.0932 19.939C21.27 20.1104 21.479 20.2449 21.7081 20.3348C22.1688 20.5184 22.6833 20.5129 23.1401 20.3195C23.5968 20.1261 23.9588 19.7603 24.1478 19.3015C24.5571 18.2904 24.5428 17.0205 24.5428 17.0078C24.5428 13.1983 21.4147 10.0983 17.5632 10.0983C16.0325 10.0938 14.543 10.5938 13.3248 11.521C12.1065 12.4483 11.2273 13.7512 10.8231 15.2284C10.8168 15.2585 10.8046 15.2869 10.787 15.312C10.7694 15.3371 10.7469 15.3584 10.7208 15.3745C10.6947 15.3906 10.6657 15.4012 10.6353 15.4056C10.605 15.4101 10.5741 15.4084 10.5445 15.4005C10.5149 15.3926 10.4872 15.3787 10.4632 15.3597C10.4391 15.3408 10.4191 15.3171 10.4045 15.2901C10.3899 15.2632 10.3809 15.2336 10.3782 15.203C10.3754 15.1725 10.3789 15.1417 10.3884 15.1126C10.8182 13.5394 11.7538 12.1517 13.0506 11.1639C14.3475 10.176 15.9333 9.64313 17.5632 9.64749C21.6574 9.64749 24.987 12.9475 24.987 17.0046C24.987 17.057 25.0028 18.3729 24.5603 19.4697C24.3842 19.8973 24.0851 20.2629 23.701 20.5201C23.3169 20.7773 22.8651 20.9144 22.4029 20.9142Z" fill="#00C4D0"/>
<path id="Vector_3" d="M22.7122 17.2234C22.6825 17.2237 22.6531 17.218 22.6255 17.2067C22.598 17.1955 22.573 17.1789 22.5519 17.158C22.5308 17.137 22.5141 17.1121 22.5027 17.0847C22.4913 17.0572 22.4854 17.0278 22.4854 16.9981C22.4778 15.8636 22.0211 14.7784 21.2153 13.9804C20.4095 13.1824 19.3203 12.7367 18.1866 12.7409C16.1038 12.7409 14.4065 14.133 13.9623 16.2044C13.9499 16.2629 13.9148 16.3141 13.8646 16.3467C13.8145 16.3793 13.7535 16.3906 13.695 16.3782C13.6365 16.3658 13.5854 16.3306 13.5528 16.2805C13.5202 16.2303 13.5089 16.1693 13.5213 16.1107C14.0099 13.825 15.8849 12.2901 18.1866 12.2901C19.4414 12.2834 20.6476 12.7755 21.54 13.6583C22.4323 14.5411 22.9379 15.7424 22.9454 16.9981C22.9454 17.0283 22.9394 17.0583 22.9275 17.0862C22.9157 17.1141 22.8984 17.1393 22.8767 17.1603C22.8549 17.1813 22.8291 17.1978 22.8009 17.2086C22.7726 17.2195 22.7425 17.2245 22.7122 17.2234Z" fill="#00C4D0"/>
<path id="Vector_4" d="M17.0422 27.0004C16.4606 26.9973 15.8929 26.8219 15.4108 26.4962C14.9288 26.1706 14.5539 25.7094 14.3335 25.1708C14.1131 24.6323 14.057 24.0404 14.1724 23.47C14.2878 22.8996 14.5694 22.3761 14.9818 21.9657C15.3942 21.5553 15.9188 21.2762 16.4895 21.1639C17.0601 21.0515 17.6513 21.1107 18.1883 21.3342C18.7254 21.5576 19.1843 21.9352 19.5071 22.4193C19.8299 22.9034 20.0022 23.4724 20.0022 24.0544C19.9992 24.8376 19.6859 25.5876 19.131 26.1399C18.5761 26.6922 17.8248 27.0017 17.0422 27.0004ZM17.0422 21.5592C16.5497 21.5623 16.0691 21.7113 15.6611 21.9874C15.2531 22.2634 14.936 22.6542 14.7497 23.1105C14.5634 23.5667 14.5163 24.0679 14.6143 24.5508C14.7123 25.0338 14.951 25.477 15.3004 25.8243C15.6497 26.1717 16.0941 26.4078 16.5773 26.5028C17.0606 26.5978 17.5612 26.5475 18.0159 26.3581C18.4707 26.1688 18.8592 25.849 19.1325 25.439C19.4058 25.029 19.5517 24.5472 19.5517 24.0544C19.5475 23.3917 19.281 22.7578 18.8107 22.2913C18.3403 21.8248 17.7044 21.5638 17.0422 21.5655V21.5592Z" fill="#00C4D0"/>
<path id="Vector_5" d="M15.3625 18.2688C15.2626 18.2687 15.1629 18.2607 15.0643 18.245C14.8214 18.2073 14.5885 18.1216 14.3791 17.993C14.1697 17.8644 13.9879 17.6954 13.8444 17.4958C13.702 17.2999 13.5998 17.0777 13.5437 16.842C13.4876 16.6063 13.4787 16.3619 13.5176 16.1228C13.5271 16.0636 13.5597 16.0107 13.6081 15.9755C13.6566 15.9404 13.7171 15.926 13.7762 15.9355C13.8353 15.9449 13.8882 15.9775 13.9233 16.026C13.9584 16.0746 13.9728 16.135 13.9634 16.1942C13.934 16.3746 13.9406 16.5591 13.9828 16.737C14.025 16.9149 14.102 17.0827 14.2092 17.2307C14.3751 17.4537 14.6023 17.6235 14.8631 17.7192C15.1239 17.8149 15.4069 17.8324 15.6775 17.7696C15.9481 17.7068 16.1945 17.5663 16.3865 17.3654C16.5785 17.1645 16.7077 16.9119 16.7584 16.6386C16.7681 16.5795 16.8008 16.5266 16.8495 16.4916C16.8981 16.4567 16.9586 16.4424 17.0178 16.4521C17.0769 16.4618 17.1297 16.4946 17.1647 16.5433C17.1996 16.5919 17.2138 16.6525 17.2041 16.7117C17.1309 17.1473 16.9057 17.5428 16.5685 17.828C16.2313 18.1131 15.8039 18.2693 15.3625 18.2688Z" fill="#00C4D0"/>
<path id="Vector_6" d="M25.3006 21.0969C25.0456 21.0963 24.7966 21.0196 24.5855 20.8765C24.3744 20.7334 24.2108 20.5305 24.1157 20.2937C24.0543 20.1395 24.0244 19.9745 24.0276 19.8085C24.0309 19.6425 24.0673 19.4788 24.1347 19.3271C24.1597 19.2739 24.2044 19.2327 24.2594 19.2121C24.3143 19.1915 24.3752 19.1932 24.4289 19.2167C24.4826 19.2403 24.525 19.2839 24.5471 19.3383C24.5692 19.3927 24.5692 19.4536 24.5471 19.508C24.5039 19.6052 24.4807 19.7101 24.4788 19.8164C24.4768 19.9227 24.4963 20.0284 24.536 20.1271C24.5752 20.2277 24.6341 20.3194 24.7093 20.3968C24.7845 20.4742 24.8745 20.5358 24.9738 20.5778C25.1727 20.6635 25.3972 20.668 25.5993 20.5903C25.8015 20.5126 25.9653 20.3589 26.0557 20.162C26.4139 19.1463 26.5973 18.0771 26.5982 17.0001C26.5982 11.7318 22.2708 7.4445 16.952 7.4445C14.8028 7.43736 12.7129 8.14973 11.015 9.46824C9.317 10.7867 8.10853 12.6356 7.58185 14.7207C7.48989 15.1038 7.47508 15.5014 7.53826 15.8903C7.60144 16.2792 7.74137 16.6516 7.94987 16.9858C8.26813 17.4971 8.72995 17.9031 9.2776 18.1532C9.82525 18.4032 10.4344 18.4862 11.0289 18.3917C11.6234 18.2971 12.1769 18.0294 12.6201 17.6218C13.0634 17.2142 13.3767 16.6849 13.5209 16.1001C13.5348 16.0418 13.5712 15.9914 13.6223 15.96C13.6733 15.9285 13.7347 15.9187 13.7929 15.9326C13.8512 15.9465 13.9016 15.983 13.933 16.034C13.9643 16.0851 13.9742 16.1465 13.9603 16.2048C13.7956 16.8764 13.4365 17.4844 12.9281 17.9528C12.4197 18.4211 11.7844 18.729 11.102 18.8378C10.4195 18.9466 9.72016 18.8515 9.09146 18.5644C8.46276 18.2773 7.93267 17.811 7.56758 17.2239C7.32771 16.8396 7.16673 16.4113 7.09401 15.9641C7.02129 15.5169 7.0383 15.0597 7.14404 14.6191C7.69485 12.4361 8.95957 10.5002 10.7369 9.11959C12.5142 7.73892 14.702 6.99283 16.952 7.00005C22.5199 7.00005 27.0503 11.4889 27.0503 17.0001C27.0485 18.1319 26.8548 19.2552 26.4776 20.3223C26.4782 20.327 26.4782 20.3318 26.4776 20.3366C26.3777 20.5649 26.2128 20.7588 26.0035 20.894C25.7942 21.0292 25.5497 21.0998 25.3006 21.0969Z" fill="#00C4D0"/>
</g>
</g>
</svg>
