<svg width="40" height="40" viewBox="0 0 40 40" fill="none" xmlns="http://www.w3.org/2000/svg">
<g id="award_star">
<mask id="mask0_3142_605" style="mask-type:alpha" maskUnits="userSpaceOnUse" x="0" y="0" width="40" height="40">
<rect id="Bounding box" width="40" height="40" fill="#D9D9D9"/>
</mask>
<g mask="url(#mask0_3142_605)">
<g id="analytics">
<mask id="mask1_3142_605" style="mask-type:alpha" maskUnits="userSpaceOnUse" x="-1" y="-1" width="41" height="42">
<rect id="Bounding box_2" x="-0.925781" y="-0.397217" width="40.9258" height="40.9258" fill="#D9D9D9"/>
</mask>
<g mask="url(#mask1_3142_605)">
<path id="analytics_2" d="M12.4444 19C11.9093 19 11.4606 19.181 11.0986 19.5431C10.7366 19.9051 10.5556 20.3537 10.5556 20.8889V26.5556C10.5556 27.0907 10.7366 27.5394 11.0986 27.9014C11.4606 28.2634 11.9093 28.4444 12.4444 28.4444C12.9796 28.4444 13.4282 28.2634 13.7903 27.9014C14.1523 27.5394 14.3333 27.0907 14.3333 26.5556V20.8889C14.3333 20.3537 14.1523 19.9051 13.7903 19.5431C13.4282 19.181 12.9796 19 12.4444 19ZM27.5556 9.55556C27.0204 9.55556 26.5718 9.73657 26.2097 10.0986C25.8477 10.4606 25.6667 10.9093 25.6667 11.4444V26.5556C25.6667 27.0907 25.8477 27.5394 26.2097 27.9014C26.5718 28.2634 27.0204 28.4444 27.5556 28.4444C28.0907 28.4444 28.5394 28.2634 28.9014 27.9014C29.2634 27.5394 29.4444 27.0907 29.4444 26.5556V11.4444C29.4444 10.9093 29.2634 10.4606 28.9014 10.0986C28.5394 9.73657 28.0907 9.55556 27.5556 9.55556ZM20 22.7778C19.4648 22.7778 19.0162 22.9588 18.6542 23.3208C18.2921 23.6829 18.1111 24.1315 18.1111 24.6667V26.5556C18.1111 27.0907 18.2921 27.5394 18.6542 27.9014C19.0162 28.2634 19.4648 28.4444 20 28.4444C20.5352 28.4444 20.9838 28.2634 21.3458 27.9014C21.7079 27.5394 21.8889 27.0907 21.8889 26.5556V24.6667C21.8889 24.1315 21.7079 23.6829 21.3458 23.3208C20.9838 22.9588 20.5352 22.7778 20 22.7778ZM6.77778 36C5.73889 36 4.84954 35.6301 4.10972 34.8903C3.36991 34.1505 3 33.2611 3 32.2222V5.77778C3 4.73889 3.36991 3.84954 4.10972 3.10972C4.84954 2.36991 5.73889 2 6.77778 2H33.2222C34.2611 2 35.1505 2.36991 35.8903 3.10972C36.6301 3.84954 37 4.73889 37 5.77778V32.2222C37 33.2611 36.6301 34.1505 35.8903 34.8903C35.1505 35.6301 34.2611 36 33.2222 36H6.77778ZM6.77778 32.2222H33.2222V5.77778H6.77778V32.2222ZM20 19C20.5352 19 20.9838 18.819 21.3458 18.4569C21.7079 18.0949 21.8889 17.6463 21.8889 17.1111C21.8889 16.5759 21.7079 16.1273 21.3458 15.7653C20.9838 15.4032 20.5352 15.2222 20 15.2222C19.4648 15.2222 19.0162 15.4032 18.6542 15.7653C18.2921 16.1273 18.1111 16.5759 18.1111 17.1111C18.1111 17.6463 18.2921 18.0949 18.6542 18.4569C19.0162 18.819 19.4648 19 20 19Z" fill="url(#paint0_radial_3142_605)"/>
</g>
</g>
</g>
</g>
<defs>
<radialGradient id="paint0_radial_3142_605" cx="0" cy="0" r="1" gradientUnits="userSpaceOnUse" gradientTransform="translate(14.2481 -5.79166) rotate(82.3355) scale(42.1684 49.3726)">
<stop stop-color="#4CE1EA"/>
<stop offset="0.672951" stop-color="#1FA1A9"/>
</radialGradient>
</defs>
</svg>
