<svg width="77" height="121" viewBox="0 0 77 121" fill="none" xmlns="http://www.w3.org/2000/svg">
<mask id="mask0_2289_298" style="mask-type:alpha" maskUnits="userSpaceOnUse" x="0" y="0" width="77" height="121">
<rect width="77" height="121" rx="8" fill="url(#paint0_radial_2289_298)"/>
</mask>
<g mask="url(#mask0_2289_298)">
<rect width="77" height="121" rx="8" fill="url(#paint1_radial_2289_298)"/>
<g filter="url(#filter0_d_2289_298)">
<path d="M14.0942 19.0533C14.2428 18.2786 15.3517 18.2786 15.5004 19.0533L15.5137 19.1231C15.5637 19.3835 15.7745 19.5829 16.0373 19.6184C16.7501 19.7145 16.7501 20.7454 16.0373 20.8415C15.7745 20.877 15.5637 21.0764 15.5137 21.3368L15.5004 21.4066C15.3517 22.1813 14.2428 22.1813 14.0942 21.4066L14.0808 21.3368C14.0308 21.0764 13.82 20.877 13.5572 20.8415C12.8444 20.7454 12.8444 19.7145 13.5572 19.6184C13.82 19.5829 14.0308 19.3835 14.0808 19.1231L14.0942 19.0533Z" fill="white"/>
</g>
<g filter="url(#filter1_d_2289_298)">
<path d="M24.1527 31.5892C24.2625 31.0271 25.0666 31.0271 25.1764 31.5892L25.1872 31.6445C25.2236 31.8312 25.3751 31.9738 25.5637 31.9988C26.0766 32.0668 26.0766 32.8089 25.5637 32.8769C25.3751 32.9019 25.2236 33.0445 25.1872 33.2312L25.1764 33.2865C25.0666 33.8486 24.2625 33.8486 24.1527 33.2865L24.1419 33.2312C24.1055 33.0445 23.954 32.9019 23.7654 32.8769C23.2525 32.8089 23.2525 32.0668 23.7654 31.9988C23.954 31.9738 24.1055 31.8312 24.1419 31.6445L24.1527 31.5892Z" fill="white"/>
</g>
<g filter="url(#filter2_d_2289_298)">
<path d="M12.7231 49.0904C12.8328 48.5283 13.6369 48.5283 13.7467 49.0904L13.7575 49.1458C13.7939 49.3324 13.9455 49.475 14.134 49.5C14.647 49.568 14.647 50.3102 14.134 50.3782C13.9455 50.4032 13.7939 50.5457 13.7575 50.7324L13.7467 50.7878C13.6369 51.3498 12.8328 51.3498 12.7231 50.7878L12.7122 50.7324C12.6758 50.5457 12.5243 50.4032 12.3357 50.3782C11.8228 50.3102 11.8228 49.568 12.3357 49.5C12.5243 49.475 12.6758 49.3324 12.7122 49.1458L12.7231 49.0904Z" fill="white"/>
</g>
<mask id="mask1_2289_298" style="mask-type:luminance" maskUnits="userSpaceOnUse" x="20" y="58" width="56" height="57">
<path d="M75.8049 87.9181C75.8168 87.6962 75.8257 87.4795 75.8331 87.2642C75.9041 85.3008 75.7702 82.9946 75.2091 80.4411C74.9633 79.1955 74.5185 77.5499 73.7102 75.643C73.52 75.1738 73.2876 74.6624 73.0396 74.1599C72.9796 74.0367 72.9182 73.9149 72.859 73.7939C72.8346 73.7472 72.8101 73.7004 72.7864 73.6536C72.7154 73.5171 72.6466 73.3827 72.5755 73.2521C72.2069 72.5588 71.8235 71.9056 71.4282 71.2946C71.3016 71.095 71.1714 70.8946 71.0411 70.6986C71.0241 70.6741 71.0078 70.6503 70.9907 70.6258C70.896 70.4856 70.8005 70.3497 70.7058 70.2168C69.9234 69.1034 69.1099 68.1422 68.3068 67.3071C68.1558 67.1468 67.9996 66.9894 67.8449 66.8328C67.7783 66.7637 67.711 66.6984 67.6458 66.6309C67.5807 66.567 67.5193 66.5039 67.4541 66.4401C67.4245 66.4119 67.3964 66.3859 67.3683 66.3577C67.3364 66.328 67.3046 66.2961 67.275 66.2664C67.2187 66.2122 67.1573 66.158 67.0981 66.1024C66.0159 65.0899 65.1107 64.3877 64.3475 63.8369C64.3268 63.8221 64.3046 63.805 64.2839 63.7901C64.2935 63.7976 64.3024 63.805 64.312 63.8124C64.2336 63.7567 64.1558 63.7003 64.0811 63.6461C63.768 63.416 63.392 63.1755 63.0085 62.9365C62.7998 62.7999 62.5948 62.6678 62.4105 62.5572C61.9116 62.2566 61.2336 61.8721 60.7117 61.6138C60.7058 61.6115 60.7006 61.6078 60.6969 61.6063C60.4438 61.4794 60.1921 61.354 59.9486 61.2404C59.9464 61.2404 59.9427 61.2367 59.9412 61.2367C59.9338 61.233 59.9264 61.2307 59.919 61.227C59.7717 61.158 59.6244 61.089 59.4926 61.0311C59.3009 60.945 59.1181 60.8685 58.9338 60.792C58.3735 60.5493 57.7843 60.3192 57.1699 60.1069C57.164 60.1069 57.1588 60.1032 57.1529 60.101C56.6688 59.9347 56.1699 59.7744 55.6459 59.6304C53.0271 58.8792 50.338 58.5437 47.5867 58.6164C46.1714 58.6298 44.5245 58.796 42.7629 59.156L42.5674 59.1954H42.56C42.5549 59.1954 42.5489 59.1976 42.5415 59.1991C42.0686 59.2978 41.5971 59.4062 41.0885 59.5428C40.7495 59.6289 40.3602 59.7447 40.0286 59.8493C40.0212 59.8516 40.0153 59.8531 40.0079 59.8553C39.9746 59.8664 39.939 59.8775 39.9072 59.8872H39.9035C39.3617 60.0609 39.1196 60.1373 38.7207 60.291C38.674 60.3081 38.6274 60.3244 38.5882 60.3393H38.586C38.1448 60.4981 37.8391 60.6191 37.452 60.7891C37.204 60.8937 36.9583 61.0021 36.7103 61.1142C36.6955 61.1216 36.6807 61.1276 36.6674 61.135C36.3506 61.279 36.036 61.4319 35.7229 61.5907C35.7118 61.5967 35.6985 61.6019 35.6874 61.6093C35.4135 61.7474 35.1433 61.8914 34.8717 62.0406C34.68 62.1467 34.4971 62.2514 34.3151 62.3583C34.244 62.3991 34.1737 62.4384 34.1048 62.48C32.2551 63.5726 30.9087 64.6542 30.0989 65.3786C30.0131 65.4536 29.9502 65.5115 29.9169 65.5412C29.5408 65.8715 29.1996 66.1892 28.9354 66.4505C28.8495 66.5344 28.7585 66.6264 28.6637 66.7192C28.6563 66.7266 28.6489 66.734 28.6415 66.7415L28.6193 66.7637C28.1759 67.2084 27.6356 67.7703 26.982 68.5586C23.8976 72.2047 21.8769 76.5003 21.0316 81.1626C21.0057 81.2955 20.9813 81.4298 20.9569 81.5657C20.9531 81.5827 20.9517 81.5991 20.9472 81.6176C20.8221 82.3384 20.72 83.0762 20.6734 83.702C20.6697 83.7413 20.6674 83.7844 20.6637 83.8237C20.6208 84.324 20.5912 84.8733 20.5727 85.4352C20.5668 85.525 20.5594 85.6163 20.5557 85.7024L20.5594 85.9867C20.5557 86.1812 20.5557 86.3734 20.5557 86.5635C20.5557 87.0229 20.5653 87.4691 20.5912 87.8706C20.6119 88.2314 20.6415 88.5788 20.6734 88.9202C20.6771 88.9596 20.6808 88.9989 20.6845 89.0383C20.6956 89.1563 20.7067 89.2758 20.72 89.3916C20.7407 89.5861 20.7629 89.7687 20.7851 89.9446C20.7851 89.9579 20.7888 89.9691 20.7888 89.9817C20.7903 89.9965 20.7925 90.0136 20.794 90.0285C21.3773 94.6826 23.1204 99.0257 25.9161 102.783C25.9872 102.88 26.0575 102.975 26.13 103.071C26.1619 103.114 26.1937 103.155 26.2248 103.198C26.3306 103.336 26.4335 103.467 26.5357 103.59C28.8636 106.556 31.6482 108.825 34.5667 110.472C39.5697 113.377 44.825 114.447 49.6266 114.03H49.6414C49.6844 114.028 49.7288 114.024 49.7739 114.023C49.999 114.009 50.2299 113.993 50.4705 113.972C50.5615 113.965 50.6511 113.958 50.7421 113.948C50.8687 113.937 50.9901 113.923 51.107 113.912H51.1166C51.2639 113.897 51.4038 113.88 51.5304 113.865C51.5363 113.865 51.5437 113.865 51.5489 113.864C52.0981 113.796 52.4519 113.739 52.4801 113.733C52.9457 113.666 53.2402 113.614 53.7377 113.505C53.7658 113.5 53.7954 113.494 53.8213 113.491H53.825C53.8605 113.483 53.8961 113.474 53.9331 113.466C53.9686 113.459 54.0019 113.449 54.0389 113.442C54.2343 113.399 54.4394 113.354 54.6555 113.301L54.7502 113.281L55.1114 113.189C55.1203 113.188 55.1322 113.184 55.1411 113.182H55.1522C55.5171 113.094 55.979 112.956 56.3587 112.836C56.3646 112.834 56.372 112.832 56.3772 112.83C56.4127 112.819 56.4519 112.808 56.4852 112.797C56.5563 112.774 56.6192 112.754 56.6807 112.735C56.6977 112.729 56.714 112.724 56.731 112.718C57.124 112.591 57.3527 112.515 57.7088 112.378C57.7406 112.367 57.7776 112.353 57.8072 112.342C57.8131 112.34 57.8205 112.336 57.8257 112.335C58.0678 112.244 58.3157 112.148 58.5674 112.045C58.6681 112.005 58.765 111.963 58.8635 111.922C58.9767 111.874 59.0907 111.827 59.2062 111.777C59.3276 111.726 59.4556 111.668 59.5896 111.607C60.0833 111.383 60.5504 111.153 60.9974 110.919C61.0085 110.913 61.0196 110.908 61.0308 110.902C63.5282 109.593 65.3053 108.186 66.2883 107.31C66.3742 107.234 66.4371 107.177 66.4711 107.148C66.7302 106.912 66.9774 106.683 67.2313 106.443C67.3061 106.374 67.3801 106.305 67.4571 106.236C67.7517 105.962 68.2173 105.486 68.7198 104.925C69.6925 103.855 70.5526 102.739 71.2905 101.597C71.406 101.42 71.5178 101.246 71.6184 101.082C71.6984 100.959 71.7798 100.822 71.8642 100.68C73.477 98.0541 74.3801 95.5978 74.8849 93.6107C74.9278 93.4482 74.9671 93.2893 75.0018 93.1379C75.0078 93.1156 75.0137 93.0852 75.0189 93.0614C75.4756 91.248 75.708 89.5482 75.7975 88.0057C75.7975 87.9798 75.8012 87.9538 75.8012 87.9271L75.8027 87.9159L75.8049 87.9181Z" fill="white"/>
</mask>
<g mask="url(#mask1_2289_298)">
<path d="M75.8049 87.9181C75.8168 87.6962 75.8257 87.4795 75.8331 87.2642C75.9041 85.3008 75.7702 82.9946 75.2091 80.4411C74.9633 79.1955 74.5185 77.5499 73.7102 75.643C73.52 75.1738 73.2876 74.6624 73.0396 74.1599C72.9796 74.0367 72.9182 73.9149 72.859 73.7939C72.8346 73.7472 72.8101 73.7004 72.7864 73.6536C72.7154 73.5171 72.6466 73.3827 72.5755 73.2521C72.2069 72.5588 71.8235 71.9056 71.4282 71.2946C71.3016 71.095 71.1714 70.8946 71.0411 70.6986C71.0241 70.6741 71.0078 70.6503 70.9907 70.6258C70.896 70.4856 70.8005 70.3497 70.7058 70.2168C69.9234 69.1034 69.1099 68.1422 68.3068 67.3071C68.1558 67.1468 67.9996 66.9894 67.8449 66.8328C67.7783 66.7637 67.711 66.6984 67.6458 66.6309C67.5807 66.567 67.5193 66.5039 67.4541 66.4401C67.4245 66.4119 67.3964 66.3859 67.3683 66.3577C67.3364 66.328 67.3046 66.2961 67.275 66.2664C67.2187 66.2122 67.1573 66.158 67.0981 66.1024C66.0159 65.0899 65.1107 64.3877 64.3475 63.8369C64.3268 63.8221 64.3046 63.805 64.2839 63.7901C64.2935 63.7976 64.3024 63.805 64.312 63.8124C64.2336 63.7567 64.1558 63.7003 64.0811 63.6461C63.768 63.416 63.392 63.1755 63.0085 62.9365C62.7998 62.7999 62.5948 62.6678 62.4105 62.5572C61.9116 62.2566 61.2336 61.8721 60.7117 61.6138C60.7058 61.6115 60.7006 61.6078 60.6969 61.6063C60.4438 61.4794 60.1921 61.354 59.9486 61.2404C59.9464 61.2404 59.9427 61.2367 59.9412 61.2367C59.9338 61.233 59.9264 61.2307 59.919 61.227C59.7717 61.158 59.6244 61.089 59.4926 61.0311C59.3009 60.945 59.1181 60.8685 58.9338 60.792C58.3735 60.5493 57.7843 60.3192 57.1699 60.1069C57.164 60.1069 57.1588 60.1032 57.1529 60.101C56.6688 59.9347 56.1699 59.7744 55.6459 59.6304C53.0271 58.8792 50.338 58.5437 47.5867 58.6164C46.1714 58.6298 44.5245 58.796 42.7629 59.156L42.5674 59.1954H42.56C42.5549 59.1954 42.5489 59.1976 42.5415 59.1991C42.0686 59.2978 41.5971 59.4062 41.0885 59.5428C40.7495 59.6289 40.3602 59.7447 40.0286 59.8493C40.0212 59.8516 40.0153 59.8531 40.0079 59.8553C39.9746 59.8664 39.939 59.8775 39.9072 59.8872H39.9035C39.3617 60.0609 39.1196 60.1373 38.7207 60.291C38.674 60.3081 38.6274 60.3244 38.5882 60.3393H38.586C38.1448 60.4981 37.8391 60.6191 37.452 60.7891C37.204 60.8937 36.9583 61.0021 36.7103 61.1142C36.6955 61.1216 36.6807 61.1276 36.6674 61.135C36.3506 61.279 36.036 61.4319 35.7229 61.5907C35.7118 61.5967 35.6985 61.6019 35.6874 61.6093C35.4135 61.7474 35.1433 61.8914 34.8717 62.0406C34.68 62.1467 34.4971 62.2514 34.3151 62.3583C34.244 62.3991 34.1737 62.4384 34.1048 62.48C32.2551 63.5726 30.9087 64.6542 30.0989 65.3786C30.0131 65.4536 29.9502 65.5115 29.9169 65.5412C29.5408 65.8715 29.1996 66.1892 28.9354 66.4505C28.8495 66.5344 28.7585 66.6264 28.6637 66.7192C28.6563 66.7266 28.6489 66.734 28.6415 66.7415L28.6193 66.7637C28.1759 67.2084 27.6356 67.7703 26.982 68.5586C23.8976 72.2047 21.8769 76.5003 21.0316 81.1626C21.0057 81.2955 20.9813 81.4298 20.9569 81.5657C20.9531 81.5827 20.9517 81.5991 20.9472 81.6176C20.8221 82.3384 20.72 83.0762 20.6734 83.702C20.6697 83.7413 20.6674 83.7844 20.6637 83.8237C20.6208 84.324 20.5912 84.8733 20.5727 85.4352C20.5668 85.525 20.5594 85.6163 20.5557 85.7024L20.5594 85.9867C20.5557 86.1812 20.5557 86.3734 20.5557 86.5635C20.5557 87.0229 20.5653 87.4691 20.5912 87.8706C20.6119 88.2314 20.6415 88.5788 20.6734 88.9202C20.6771 88.9596 20.6808 88.9989 20.6845 89.0383C20.6956 89.1563 20.7067 89.2758 20.72 89.3916C20.7407 89.5861 20.7629 89.7687 20.7851 89.9446C20.7851 89.9579 20.7888 89.9691 20.7888 89.9817C20.7903 89.9965 20.7925 90.0136 20.794 90.0285C21.3773 94.6826 23.1204 99.0257 25.9161 102.783C25.9872 102.88 26.0575 102.975 26.13 103.071C26.1619 103.114 26.1937 103.155 26.2248 103.198C26.3306 103.336 26.4335 103.467 26.5357 103.59C28.8636 106.556 31.6482 108.825 34.5667 110.472C39.5697 113.377 44.825 114.447 49.6266 114.03H49.6414C49.6844 114.028 49.7288 114.024 49.7739 114.023C49.999 114.009 50.2299 113.993 50.4705 113.972C50.5615 113.965 50.6511 113.958 50.7421 113.948C50.8687 113.937 50.9901 113.923 51.107 113.912H51.1166C51.2639 113.897 51.4038 113.88 51.5304 113.865C51.5363 113.865 51.5437 113.865 51.5489 113.864C52.0981 113.796 52.4519 113.739 52.4801 113.733C52.9457 113.666 53.2402 113.614 53.7377 113.505C53.7658 113.5 53.7954 113.494 53.8213 113.491H53.825C53.8605 113.483 53.8961 113.474 53.9331 113.466C53.9686 113.459 54.0019 113.449 54.0389 113.442C54.2343 113.399 54.4394 113.354 54.6555 113.301L54.7502 113.281L55.1114 113.189C55.1203 113.188 55.1322 113.184 55.1411 113.182H55.1522C55.5171 113.094 55.979 112.956 56.3587 112.836C56.3646 112.834 56.372 112.832 56.3772 112.83C56.4127 112.819 56.4519 112.808 56.4852 112.797C56.5563 112.774 56.6192 112.754 56.6807 112.735C56.6977 112.729 56.714 112.724 56.731 112.718C57.124 112.591 57.3527 112.515 57.7088 112.378C57.7406 112.367 57.7776 112.353 57.8072 112.342C57.8131 112.34 57.8205 112.336 57.8257 112.335C58.0678 112.244 58.3157 112.148 58.5674 112.045C58.6681 112.005 58.765 111.963 58.8635 111.922C58.9767 111.874 59.0907 111.827 59.2062 111.777C59.3276 111.726 59.4556 111.668 59.5896 111.607C60.0833 111.383 60.5504 111.153 60.9974 110.919C61.0085 110.913 61.0196 110.908 61.0308 110.902C63.5282 109.593 65.3053 108.186 66.2883 107.31C66.3742 107.234 66.4371 107.177 66.4711 107.148C66.7302 106.912 66.9774 106.683 67.2313 106.443C67.3061 106.374 67.3801 106.305 67.4571 106.236C67.7517 105.962 68.2173 105.486 68.7198 104.925C69.6925 103.855 70.5526 102.739 71.2905 101.597C71.406 101.42 71.5178 101.246 71.6184 101.082C71.6984 100.959 71.7798 100.822 71.8642 100.68C73.477 98.0541 74.3801 95.5978 74.8849 93.6107C74.9278 93.4482 74.9671 93.2893 75.0018 93.1379C75.0078 93.1156 75.0137 93.0852 75.0189 93.0614C75.4756 91.248 75.708 89.5482 75.7975 88.0057C75.7975 87.9798 75.8012 87.9538 75.8012 87.9271L75.8027 87.9159L75.8049 87.9181Z" fill="url(#paint2_radial_2289_298)"/>
<g opacity="0.1">
<path d="M-26.801 118.777C-27.2369 122.972 -25.8491 126.385 -22.7951 128.818C-21.2806 127.305 -19.8913 125.792 -18.5819 124.309C-14.7507 119.971 -11.2548 115.6 -6.00236 111.227C0.0938435 106.153 8.40544 101.376 16.5246 98.1511C20.4135 96.6064 23.1293 96.2308 26.7029 95.1552C31.3313 93.762 36.885 91.302 41.6474 89.384C50.6429 85.7624 59.7769 81.8512 68.4615 77.0939C78.0662 71.8326 86.6095 65.826 94.6813 59.6755C94.1172 59.1507 93.4836 58.6652 92.7834 58.2206C84.0558 64.2272 75.0899 70.3124 65.2454 75.5812C55.2869 80.91 45.4712 82.4228 35.9524 85.0824C28.264 87.2306 20.1041 89.8843 12.2041 93.9112C-1.95574 101.128 -12.9942 111.54 -26.801 118.776V118.777ZM62.4771 73.9793C50.6 78.6334 41.09 79.0187 29.9864 82.1096C22.6778 84.1434 14.6971 87.1541 7.39286 91.2857C-0.876545 95.9606 -7.67445 101.706 -16.0238 106.29C-18.5434 107.672 -21.1644 108.914 -23.7736 109.98C-22.4679 107.593 -20.7418 105.063 -18.5789 102.408C-14.5671 97.4845 -9.4065 92.5728 -3.47387 87.8749C-1.70852 88.2594 0.945803 87.9721 3.76371 87.3167C14.2996 84.8642 26.2566 78.0485 37.6104 73.6089C47.7406 69.6496 57.215 67.6565 67.0396 64.6963C73.8767 62.6364 81.4437 59.8083 88.1409 56.1734C89.0684 56.4495 89.9344 56.7709 90.7353 57.1316C90.3652 57.4456 90.0077 57.7611 89.6517 58.0691C82.5258 64.2739 72.3253 70.1216 62.4778 73.9808V73.9786L62.4771 73.9793ZM79.0588 54.8736C70.7117 57.8561 62.3638 60.8394 54.0145 63.8219C41.2173 68.3943 28.113 73.0522 16.7296 75.0267C16.1893 75.1202 15.6534 75.2078 15.1167 75.2939C31.5993 65.705 50.3705 58.3386 66.6865 55.7888C71.2831 55.0718 75.4163 54.7786 79.0588 54.8721V54.8744V54.8736ZM50.8198 115.531C44.204 119.089 37.3128 122.264 30.4335 124.903C31.8695 122.731 33.1544 120.577 34.6393 118.403C37.999 113.476 43.1862 107.753 51.161 103.323C56.6407 100.278 62.4941 98.3745 68.067 96.593C73.5259 94.8464 78.9848 93.1006 84.4437 91.354C82.3911 93.4123 80.158 95.4559 77.7797 97.4652C73.2853 98.3166 67.9863 100.008 63.349 102.814C56.8768 106.733 53.9286 111.337 50.8198 115.53V115.531ZM96.2238 75.3592C95.4992 75.9813 94.7597 76.5973 93.9907 77.2045C85.8567 83.6223 74.7531 88.6988 64.3786 93.3441C48.3631 100.516 32.3084 107.704 16.2914 114.063C12.9354 115.394 9.495 116.732 6.27887 118.536C3.06201 120.342 0.0597954 122.762 -0.43169 124.505C-1.10378 126.892 2.94135 127.064 2.97688 129.176C2.99391 130.142 2.22781 131.3 1.08052 132.559C-4.80325 133.239 -9.8321 133.166 -13.9328 132.426C-11.314 130.05 -8.59895 127.69 -5.62264 125.39C4.28924 117.733 16.8369 110.961 29.1981 105.077C37.3728 101.184 45.5822 97.6434 53.6954 93.635C61.4097 89.8249 68.0722 87.2788 74.0751 81.9336C78.1336 78.318 80.3963 74.7929 84.0914 71.1794C87.3526 67.9891 91.7427 64.7712 96.5739 61.9788C98.6413 65.4096 98.5961 69.9598 96.2253 75.3555L96.2238 75.3592Z" fill="#1E293B"/>
</g>
</g>
<path d="M75.833 87.2648C75.8256 87.4793 75.8167 87.696 75.8049 87.9187L75.8034 87.9298C75.8034 87.9558 75.7997 87.9818 75.7997 88.0078C75.7693 88.5311 75.7227 89.073 75.6561 89.6304C73.9448 90.3059 72.1727 90.9747 70.3467 91.6331C65.1972 93.4896 59.6139 95.2644 53.7368 96.884C46.6984 98.8236 39.8783 100.364 33.5489 101.491C30.8879 101.964 28.3128 102.363 25.8442 102.685C24.7569 101.212 23.8324 99.6491 23.0752 98.0131C24.9538 97.8631 26.9538 97.6449 29.0567 97.3613C35.9397 96.4327 43.916 94.7945 52.2883 92.4875C59.4082 90.5256 65.9988 88.3032 71.6857 86.0199C73.1076 85.4491 74.4733 84.8739 75.776 84.2986C75.8544 85.3556 75.8663 86.3473 75.833 87.2648Z" fill="url(#paint3_radial_2289_298)"/>
<g filter="url(#filter3_di_2289_298)">
<path d="M75.6561 89.6302C73.9448 90.3057 72.1728 90.9745 70.3467 91.6329C65.1972 93.4894 59.614 95.2642 53.7369 96.8838C46.6984 98.8234 39.8783 100.364 33.5489 101.49C30.8879 101.964 28.3128 102.363 25.8443 102.685C9.7903 104.783 -1.76555 103.69 -3.15785 99.464C-4.65895 94.9101 5.20852 87.8695 21.0064 81.2958C20.9894 81.3849 20.9731 81.4747 20.9568 81.566C20.9531 81.5831 20.9516 81.5994 20.9479 81.618C20.8421 82.2289 20.7525 82.8517 20.6992 83.4076C11.2078 87.845 5.61045 92.2394 6.56899 95.1484C7.4587 97.8496 13.7696 98.7581 23.0752 98.0129C24.9538 97.8629 26.9538 97.6447 29.0567 97.3611C35.9397 96.4325 43.916 94.7943 52.2883 92.4873C59.4082 90.5254 65.9989 88.303 71.6857 86.0197C73.1076 85.4489 74.4733 84.8736 75.776 84.2984C86.5303 79.5485 93.038 74.7518 92.001 71.6045C90.9462 68.4038 82.283 67.7216 70.0455 69.322C69.6199 68.7712 69.1891 68.262 68.7583 67.7899C87.3393 64.7451 101.087 65.3359 102.717 70.2862C104.308 75.1118 93.1283 82.7329 75.6561 89.6302Z" fill="#839FCD"/>
</g>
<rect x="4.91016" y="5.82788" width="67.1797" height="109.344" rx="7" stroke="white" stroke-width="2"/>
<path d="M59.1331 23.4878C58.6709 23.4846 58.2201 23.3431 57.8374 23.0811C57.4547 22.8192 57.1572 22.4486 56.9826 22.016C56.808 21.5833 56.7639 21.1081 56.856 20.6503C56.9482 20.1924 57.1723 19.7723 57.5002 19.4431C57.8282 19.1138 58.2452 18.8901 58.6987 18.8001C59.1522 18.7102 59.6219 18.758 60.0486 18.9375C60.4752 19.1171 60.8398 19.4203 61.0962 19.809C61.3526 20.1978 61.4895 20.6546 61.4895 21.1218C61.4871 21.7514 61.2376 22.3543 60.7957 22.798C60.3539 23.2416 59.7558 23.4898 59.1331 23.4878ZM59.1331 19.2818C58.7732 19.2861 58.4227 19.398 58.1256 19.6033C57.8285 19.8087 57.5981 20.0983 57.4635 20.4358C57.3289 20.7732 57.296 21.1434 57.3691 21.4997C57.4422 21.856 57.6179 22.1824 57.8741 22.4379C58.1304 22.6934 58.4556 22.8666 58.809 22.9356C59.1624 23.0045 59.528 22.9663 59.8599 22.8255C60.1918 22.6848 60.4751 22.448 60.6741 22.1448C60.8731 21.8416 60.9789 21.4857 60.9783 21.1218C60.9768 20.8783 60.928 20.6374 60.8345 20.4129C60.741 20.1885 60.6047 19.9848 60.4334 19.8136C60.262 19.6424 60.059 19.507 59.8359 19.4151C59.6128 19.3233 59.374 19.2767 59.1331 19.2781V19.2818Z" fill="white"/>
<path d="M63.2189 25.6111C62.8847 25.6128 62.5531 25.5511 62.2414 25.4291C61.9186 25.3008 61.6242 25.1089 61.3754 24.8646C61.1266 24.6203 60.9284 24.3283 60.7923 24.0058C60.6561 23.6877 60.5841 23.3454 60.5803 22.9988C60.5766 22.6523 60.6413 22.3084 60.7707 21.9874C60.7962 21.9237 60.8457 21.8729 60.9084 21.8461C60.971 21.8193 61.0416 21.8187 61.1046 21.8446C61.1676 21.8704 61.2179 21.9205 61.2444 21.9838C61.2709 22.0471 61.2714 22.1185 61.2459 22.1822C61.142 22.4397 61.0899 22.7156 61.0927 22.9937C61.0955 23.2718 61.1531 23.5466 61.2621 23.802C61.3721 24.0615 61.532 24.2964 61.7326 24.4929C61.9332 24.6894 62.1704 24.8437 62.4304 24.9468C62.9533 25.1573 63.5371 25.151 64.0554 24.9292C64.5737 24.7074 64.9846 24.288 65.1991 23.7619C65.6635 22.6026 65.6473 21.1466 65.6473 21.132C65.6473 16.764 62.0974 13.2095 57.7266 13.2095C55.9896 13.2044 54.2992 13.7777 52.9167 14.8409C51.5342 15.9041 50.5365 17.398 50.0777 19.0918C50.0706 19.1262 50.0567 19.1588 50.0367 19.1876C50.0168 19.2164 49.9912 19.2408 49.9616 19.2592C49.9321 19.2777 49.8991 19.2899 49.8647 19.295C49.8303 19.3001 49.7952 19.2981 49.7616 19.289C49.728 19.28 49.6966 19.2641 49.6693 19.2424C49.6419 19.2206 49.6193 19.1935 49.6027 19.1626C49.5861 19.1317 49.576 19.0977 49.5728 19.0627C49.5697 19.0276 49.5736 18.9924 49.5844 18.9589C50.0722 17.1552 51.1339 15.564 52.6056 14.4313C54.0773 13.2987 55.877 12.6877 57.7266 12.6927C62.3728 12.6927 66.1513 16.4765 66.1513 21.1284C66.1513 21.1885 66.1693 22.6972 65.6671 23.9549C65.4673 24.4451 65.1279 24.8643 64.692 25.1592C64.2561 25.4541 63.7434 25.6114 63.2189 25.6111Z" fill="white"/>
<path d="M63.5705 21.3791C63.5368 21.3793 63.5033 21.3728 63.4721 21.3599C63.4409 21.347 63.4125 21.328 63.3886 21.304C63.3646 21.28 63.3456 21.2514 63.3327 21.22C63.3197 21.1885 63.3131 21.1547 63.3131 21.1206C63.3045 19.8199 62.7862 18.5756 61.8717 17.6606C60.9572 16.7456 59.7212 16.2345 58.4346 16.2394C56.071 16.2394 54.1448 17.8355 53.6408 20.2106C53.6267 20.2777 53.5868 20.3364 53.5299 20.3738C53.4731 20.4112 53.4038 20.4242 53.3375 20.4099C53.2711 20.3957 53.213 20.3554 53.1761 20.2979C53.1391 20.2403 53.1263 20.1703 53.1403 20.1033C53.6948 17.4824 55.8226 15.7225 58.4346 15.7225C59.8587 15.7147 61.2275 16.279 62.2402 17.2913C63.2529 18.3035 63.8265 19.6809 63.8351 21.1206C63.8351 21.1554 63.8282 21.1897 63.8148 21.2217C63.8014 21.2536 63.7818 21.2826 63.7571 21.3067C63.7324 21.3308 63.7031 21.3496 63.6711 21.3621C63.639 21.3745 63.6048 21.3803 63.5705 21.3791Z" fill="white"/>
<path d="M57.1356 32.5886C56.4756 32.585 55.8314 32.3838 55.2843 32.0105C54.7372 31.6371 54.3118 31.1083 54.0617 30.4908C53.8116 29.8732 53.748 29.1946 53.8789 28.5406C54.0099 27.8865 54.3295 27.2863 54.7974 26.8157C55.2654 26.3451 55.8608 26.0252 56.5084 25.8964C57.156 25.7675 57.8268 25.8354 58.4363 26.0916C59.0458 26.3478 59.5665 26.7808 59.9328 27.3359C60.2992 27.891 60.4947 28.5433 60.4947 29.2107C60.4914 30.1087 60.1358 30.9686 59.5061 31.6019C58.8763 32.2352 58.0238 32.59 57.1356 32.5886ZM57.1356 26.3496C56.5767 26.3532 56.0313 26.524 55.5684 26.8406C55.1054 27.1571 54.7455 27.6052 54.534 28.1283C54.3226 28.6514 54.2691 29.2261 54.3803 29.7799C54.4915 30.3337 54.7625 30.8418 55.1589 31.2401C55.5554 31.6384 56.0597 31.9091 56.6081 32.018C57.1566 32.1269 57.7246 32.0692 58.2407 31.8521C58.7567 31.6351 59.1976 31.2684 59.5078 30.7983C59.8179 30.3282 59.9834 29.7757 59.9835 29.2107C59.9787 28.4509 59.6763 27.7239 59.1426 27.189C58.6088 26.6542 57.8871 26.3549 57.1356 26.3569V26.3496Z" fill="white"/>
<path d="M55.23 22.5778C55.1166 22.5777 55.0035 22.5686 54.8915 22.5505C54.616 22.5073 54.3517 22.4091 54.114 22.2616C53.8764 22.1141 53.6701 21.9203 53.5072 21.6915C53.3456 21.4669 53.2296 21.2121 53.1659 20.9419C53.1023 20.6717 53.0922 20.3914 53.1364 20.1172C53.1471 20.0494 53.1841 19.9886 53.2391 19.9484C53.2941 19.9081 53.3627 19.8916 53.4298 19.9024C53.4969 19.9133 53.5569 19.9506 53.5968 20.0063C53.6366 20.0619 53.653 20.1313 53.6422 20.1991C53.6089 20.406 53.6164 20.6175 53.6643 20.8215C53.7121 21.0255 53.7995 21.2179 53.9212 21.3876C54.1094 21.6433 54.3673 21.8379 54.6632 21.9477C54.9592 22.0574 55.2804 22.0775 55.5875 22.0055C55.8945 21.9334 56.1742 21.7723 56.392 21.542C56.6099 21.3117 56.7566 21.0221 56.8141 20.7087C56.8251 20.6409 56.8623 20.5802 56.9175 20.5401C56.9727 20.5 57.0414 20.4837 57.1084 20.4948C57.1755 20.5059 57.2355 20.5435 57.2752 20.5993C57.3148 20.6551 57.3309 20.7246 57.32 20.7924C57.2369 21.2919 56.9813 21.7455 56.5986 22.0724C56.2159 22.3993 55.731 22.5784 55.23 22.5778Z" fill="white"/>
<path d="M66.5076 25.8196C66.2182 25.8189 65.9356 25.7309 65.696 25.5668C65.4564 25.4028 65.2708 25.1701 65.1628 24.8986C65.0932 24.7217 65.0593 24.5326 65.063 24.3422C65.0667 24.1519 65.108 23.9642 65.1845 23.7902C65.2128 23.7293 65.2636 23.6821 65.326 23.6584C65.3883 23.6348 65.4573 23.6367 65.5183 23.6638C65.5793 23.6908 65.6274 23.7408 65.6525 23.8032C65.6776 23.8656 65.6776 23.9354 65.6525 23.9977C65.6035 24.1091 65.5771 24.2294 65.5749 24.3513C65.5727 24.4733 65.5948 24.5944 65.6399 24.7075C65.6843 24.8229 65.7512 24.928 65.8366 25.0168C65.9219 25.1056 66.024 25.1762 66.1367 25.2244C66.3624 25.3226 66.6172 25.3277 66.8466 25.2387C67.076 25.1496 67.2618 24.9733 67.3644 24.7476C67.771 23.583 67.9791 22.3571 67.9801 21.1221C67.9801 15.0815 63.0693 10.1657 57.0333 10.1657C54.5943 10.1575 52.2226 10.9743 50.2957 12.4861C48.3689 13.9979 46.9974 16.1178 46.3998 18.5086C46.2954 18.9478 46.2786 19.4037 46.3503 19.8496C46.422 20.2955 46.5808 20.7225 46.8174 21.1057C47.1786 21.692 47.7027 22.1576 48.3241 22.4443C48.9456 22.731 49.6369 22.8261 50.3116 22.7177C50.9863 22.6094 51.6144 22.3023 52.1174 21.835C52.6203 21.3676 52.9759 20.7607 53.1396 20.0902C53.1553 20.0233 53.1967 19.9655 53.2546 19.9295C53.3125 19.8935 53.3822 19.8822 53.4483 19.8982C53.5144 19.9141 53.5716 19.9559 53.6072 20.0145C53.6428 20.073 53.654 20.1434 53.6382 20.2103C53.4513 20.9803 53.0438 21.6775 52.4668 22.2145C51.8899 22.7515 51.169 23.1045 50.3945 23.2292C49.62 23.354 48.8264 23.2449 48.1129 22.9158C47.3994 22.5866 46.7979 22.0519 46.3836 21.3787C46.1113 20.9381 45.9287 20.4471 45.8461 19.9343C45.7636 19.4215 45.7829 18.8973 45.9029 18.3921C46.528 15.8891 47.9632 13.6694 49.9802 12.0863C51.9972 10.5033 54.4799 9.64778 57.0333 9.65607C63.3519 9.65607 68.4931 14.803 68.4931 21.1221C68.4911 22.4199 68.2714 23.7079 67.8433 24.9314C67.844 24.9368 67.844 24.9423 67.8433 24.9478C67.7299 25.2096 67.5427 25.4319 67.3052 25.5869C67.0677 25.7419 66.7903 25.8228 66.5076 25.8196Z" fill="white"/>
</g>
<defs>
<filter id="filter0_d_2289_298" x="5.02246" y="10.4722" width="19.5493" height="19.5154" filterUnits="userSpaceOnUse" color-interpolation-filters="sRGB">
<feFlood flood-opacity="0" result="BackgroundImageFix"/>
<feColorMatrix in="SourceAlpha" type="matrix" values="0 0 0 0 0 0 0 0 0 0 0 0 0 0 0 0 0 0 127 0" result="hardAlpha"/>
<feOffset/>
<feGaussianBlur stdDeviation="4"/>
<feComposite in2="hardAlpha" operator="out"/>
<feColorMatrix type="matrix" values="0 0 0 0 1 0 0 0 0 1 0 0 0 0 1 0 0 0 0.9 0"/>
<feBlend mode="normal" in2="BackgroundImageFix" result="effect1_dropShadow_2289_298"/>
<feBlend mode="normal" in="SourceGraphic" in2="effect1_dropShadow_2289_298" result="shape"/>
</filter>
<filter id="filter1_d_2289_298" x="15.3809" y="23.1677" width="18.5674" height="18.5403" filterUnits="userSpaceOnUse" color-interpolation-filters="sRGB">
<feFlood flood-opacity="0" result="BackgroundImageFix"/>
<feColorMatrix in="SourceAlpha" type="matrix" values="0 0 0 0 0 0 0 0 0 0 0 0 0 0 0 0 0 0 127 0" result="hardAlpha"/>
<feOffset/>
<feGaussianBlur stdDeviation="4"/>
<feComposite in2="hardAlpha" operator="out"/>
<feColorMatrix type="matrix" values="0 0 0 0 1 0 0 0 0 1 0 0 0 0 1 0 0 0 0.9 0"/>
<feBlend mode="normal" in2="BackgroundImageFix" result="effect1_dropShadow_2289_298"/>
<feBlend mode="normal" in="SourceGraphic" in2="effect1_dropShadow_2289_298" result="shape"/>
</filter>
<filter id="filter2_d_2289_298" x="3.95117" y="40.6689" width="18.5674" height="18.5403" filterUnits="userSpaceOnUse" color-interpolation-filters="sRGB">
<feFlood flood-opacity="0" result="BackgroundImageFix"/>
<feColorMatrix in="SourceAlpha" type="matrix" values="0 0 0 0 0 0 0 0 0 0 0 0 0 0 0 0 0 0 127 0" result="hardAlpha"/>
<feOffset/>
<feGaussianBlur stdDeviation="4"/>
<feComposite in2="hardAlpha" operator="out"/>
<feColorMatrix type="matrix" values="0 0 0 0 1 0 0 0 0 1 0 0 0 0 1 0 0 0 0.9 0"/>
<feBlend mode="normal" in2="BackgroundImageFix" result="effect1_dropShadow_2289_298"/>
<feBlend mode="normal" in="SourceGraphic" in2="effect1_dropShadow_2289_298" result="shape"/>
</filter>
<filter id="filter3_di_2289_298" x="-43.3081" y="25.9275" width="186.176" height="117.794" filterUnits="userSpaceOnUse" color-interpolation-filters="sRGB">
<feFlood flood-opacity="0" result="BackgroundImageFix"/>
<feColorMatrix in="SourceAlpha" type="matrix" values="0 0 0 0 0 0 0 0 0 0 0 0 0 0 0 0 0 0 127 0" result="hardAlpha"/>
<feOffset/>
<feGaussianBlur stdDeviation="20"/>
<feComposite in2="hardAlpha" operator="out"/>
<feColorMatrix type="matrix" values="0 0 0 0 1 0 0 0 0 1 0 0 0 0 1 0 0 0 0.75 0"/>
<feBlend mode="normal" in2="BackgroundImageFix" result="effect1_dropShadow_2289_298"/>
<feBlend mode="normal" in="SourceGraphic" in2="effect1_dropShadow_2289_298" result="shape"/>
<feColorMatrix in="SourceAlpha" type="matrix" values="0 0 0 0 0 0 0 0 0 0 0 0 0 0 0 0 0 0 127 0" result="hardAlpha"/>
<feOffset/>
<feGaussianBlur stdDeviation="35"/>
<feComposite in2="hardAlpha" operator="arithmetic" k2="-1" k3="1"/>
<feColorMatrix type="matrix" values="0 0 0 0 1 0 0 0 0 1 0 0 0 0 1 0 0 0 0.8 0"/>
<feBlend mode="normal" in2="shape" result="effect2_innerShadow_2289_298"/>
</filter>
<radialGradient id="paint0_radial_2289_298" cx="0" cy="0" r="1" gradientUnits="userSpaceOnUse" gradientTransform="translate(38.5 121) rotate(-90) scale(107.101 130.648)">
<stop offset="0.181452" stop-color="#0C52BA"/>
<stop offset="0.558891" stop-color="#1D44A8"/>
<stop offset="0.721944" stop-color="#202F65"/>
<stop offset="1" stop-color="#101625"/>
</radialGradient>
<radialGradient id="paint1_radial_2289_298" cx="0" cy="0" r="1" gradientUnits="userSpaceOnUse" gradientTransform="translate(38.5 121) rotate(-90) scale(107.101 130.648)">
<stop offset="0.181452" stop-color="#0C52BA"/>
<stop offset="0.558891" stop-color="#1D44A8"/>
<stop offset="0.721944" stop-color="#202F65"/>
<stop offset="1" stop-color="#101625"/>
</radialGradient>
<radialGradient id="paint2_radial_2289_298" cx="0" cy="0" r="1" gradientUnits="userSpaceOnUse" gradientTransform="translate(51.9475 89.9853) rotate(-45.461) scale(30.7783 30.777)">
<stop stop-color="#072B69"/>
<stop offset="0.73" stop-color="#0D7AFF"/>
<stop offset="0.96" stop-color="#06A5FF"/>
</radialGradient>
<radialGradient id="paint3_radial_2289_298" cx="0" cy="0" r="1" gradientUnits="userSpaceOnUse" gradientTransform="translate(49.5792 91.8127) scale(20.4315 20.4893)">
<stop stop-color="#2C3D5B"/>
<stop offset="0.73" stop-color="#315D93"/>
<stop offset="0.96" stop-color="#06A5FF"/>
</radialGradient>
</defs>
</svg>
