<svg xmlns="http://www.w3.org/2000/svg" xmlns:xlink="http://www.w3.org/1999/xlink" width="256" height="401" viewBox="23 14 256 401" fill="none">
<g filter="url(#filter0_d_2188_997)">
<g>
<rect x="23" y="14" width="256" height="401" rx="16" fill="url(#paint1_radial_2188_997)"/>
<g filter="url(#filter1_d_2188_997)">
<path d="M71.2125 70.1014C71.4206 69.0201 72.9683 69.0201 73.1764 70.1014L74.7187 78.1137C74.7999 78.5356 75.1416 78.8585 75.5674 78.9158L84.0191 80.0523C85.1747 80.2077 85.1747 81.8791 84.0191 82.0345L75.5674 83.1711C75.1416 83.2283 74.7999 83.5512 74.7187 83.9731L73.1764 91.9854C72.9683 93.0667 71.4206 93.0667 71.2125 91.9854L69.6702 83.9731C69.589 83.5512 69.2473 83.2283 68.8215 83.1711L60.3698 82.0345C59.2141 81.8791 59.2141 80.2077 60.3698 80.0523L68.8215 78.9158C69.2473 78.8585 69.589 78.5356 69.6702 78.1137L71.2125 70.1014Z" fill="white"/>
</g>
<g filter="url(#filter2_d_2188_997)">
<path d="M104.019 115.01C104.23 113.933 105.77 113.933 105.981 115.01L106.802 119.201C106.885 119.622 107.227 119.944 107.653 120L111.499 120.509C112.657 120.662 112.657 122.338 111.499 122.491L107.653 123C107.227 123.056 106.885 123.378 106.802 123.799L105.981 127.99C105.77 129.067 104.23 129.067 104.019 127.99L103.198 123.799C103.115 123.378 102.773 123.056 102.347 123L98.5013 122.491C97.3427 122.338 97.3427 120.662 98.5013 120.509L102.347 120C102.773 119.944 103.115 119.622 103.198 119.201L104.019 115.01Z" fill="white"/>
</g>
<g filter="url(#filter3_d_2188_997)">
<path d="M66.0186 173.01C66.2296 171.933 67.7704 171.933 67.9814 173.01L68.8022 177.201C68.8847 177.622 69.2269 177.944 69.6525 178L73.4987 178.509C74.6573 178.662 74.6573 180.338 73.4987 180.491L69.6525 181C69.2269 181.056 68.8847 181.378 68.8022 181.799L67.9814 185.99C67.7704 187.067 66.2296 187.067 66.0186 185.99L65.1978 181.799C65.1153 181.378 64.7731 181.056 64.3475 181L60.5013 180.491C59.3427 180.338 59.3427 178.662 60.5013 178.509L64.3475 178C64.7731 177.944 65.1153 177.622 65.1978 177.201L66.0186 173.01Z" fill="white"/>
</g>
<mask id="mask1_2188_997" style="mask-type:luminance" maskUnits="userSpaceOnUse" x="91" y="208" width="185" height="185">
<path d="M275.025 305.365C275.064 304.629 275.094 303.911 275.119 303.198C275.355 296.691 274.909 289.048 273.044 280.585C272.227 276.458 270.748 271.004 268.061 264.684C267.428 263.129 266.656 261.435 265.831 259.769C265.632 259.361 265.428 258.957 265.231 258.556C265.15 258.401 265.068 258.246 264.99 258.091C264.753 257.639 264.524 257.194 264.288 256.761C263.063 254.463 261.788 252.298 260.474 250.274C260.053 249.612 259.62 248.948 259.187 248.298C259.13 248.217 259.076 248.138 259.019 248.057C258.704 247.592 258.387 247.142 258.072 246.702C255.471 243.012 252.766 239.826 250.096 237.059C249.594 236.527 249.075 236.006 248.561 235.487C248.339 235.258 248.115 235.042 247.899 234.818C247.682 234.606 247.478 234.397 247.261 234.185C247.163 234.092 247.069 234.006 246.976 233.912C246.87 233.814 246.764 233.708 246.666 233.61C246.479 233.43 246.274 233.251 246.078 233.066C242.48 229.711 239.47 227.384 236.933 225.558C236.864 225.509 236.79 225.453 236.721 225.403C236.753 225.428 236.783 225.453 236.815 225.477C236.554 225.293 236.296 225.106 236.047 224.926C235.006 224.164 233.756 223.367 232.481 222.574C231.787 222.122 231.106 221.684 230.493 221.317C228.834 220.321 226.58 219.047 224.845 218.191C224.825 218.183 224.808 218.171 224.796 218.166C223.954 217.745 223.118 217.33 222.308 216.953C222.3 216.953 222.288 216.941 222.283 216.941C222.259 216.929 222.234 216.921 222.209 216.909C221.72 216.68 221.23 216.452 220.792 216.26C220.155 215.974 219.547 215.721 218.934 215.468C217.071 214.663 215.112 213.901 213.07 213.197C213.05 213.197 213.033 213.185 213.013 213.177C211.404 212.626 209.745 212.095 208.003 211.618C199.296 209.128 190.356 208.016 181.208 208.257C176.503 208.302 171.028 208.853 165.171 210.046L164.521 210.176H164.497C164.479 210.176 164.46 210.184 164.435 210.188C162.863 210.516 161.295 210.875 159.604 211.327C158.477 211.613 157.183 211.997 156.08 212.343C156.056 212.351 156.036 212.356 156.011 212.363C155.901 212.4 155.783 212.437 155.677 212.469H155.664C153.863 213.044 153.058 213.298 151.732 213.807C151.577 213.864 151.422 213.918 151.291 213.967H151.284C149.817 214.493 148.801 214.894 147.514 215.458C146.69 215.805 145.873 216.164 145.048 216.535C144.999 216.56 144.95 216.579 144.905 216.604C143.852 217.081 142.806 217.588 141.765 218.114C141.728 218.134 141.684 218.151 141.647 218.176C140.737 218.634 139.838 219.111 138.935 219.605C138.298 219.957 137.69 220.304 137.085 220.658C136.848 220.793 136.615 220.924 136.386 221.062C130.236 224.683 125.76 228.267 123.067 230.668C122.782 230.916 122.573 231.108 122.462 231.206C121.212 232.301 120.077 233.354 119.199 234.22C118.913 234.498 118.611 234.803 118.296 235.11C118.271 235.135 118.247 235.16 118.222 235.184L118.148 235.258C116.674 236.732 114.878 238.594 112.705 241.206C102.45 253.29 95.7319 267.525 92.9215 282.977C92.8354 283.417 92.7542 283.862 92.673 284.312C92.6607 284.369 92.6558 284.423 92.641 284.485C92.2251 286.873 91.8855 289.318 91.7305 291.392C91.7182 291.523 91.7108 291.665 91.6985 291.796C91.5557 293.454 91.4573 295.274 91.3958 297.136C91.3761 297.434 91.3515 297.736 91.3392 298.022L91.3515 298.964C91.3392 299.608 91.3392 300.246 91.3392 300.875C91.3392 302.398 91.3712 303.876 91.4573 305.207C91.5262 306.403 91.6246 307.554 91.7305 308.686C91.7428 308.816 91.7551 308.946 91.7674 309.077C91.8043 309.468 91.8412 309.864 91.8855 310.248C91.9544 310.892 92.0282 311.497 92.1021 312.08C92.1021 312.125 92.1144 312.162 92.1144 312.203C92.1193 312.253 92.1267 312.309 92.1316 312.358C94.0708 327.783 99.8662 342.176 109.161 354.628C109.397 354.95 109.631 355.265 109.872 355.583C109.978 355.725 110.084 355.861 110.187 356.003C110.539 356.461 110.881 356.894 111.221 357.302C118.96 367.132 128.218 374.652 137.921 380.111C154.555 389.737 172.027 393.282 187.991 391.902H188.04C188.183 391.894 188.33 391.882 188.48 391.877C189.229 391.833 189.996 391.779 190.796 391.71C191.099 391.685 191.397 391.661 191.699 391.629C192.12 391.592 192.524 391.547 192.912 391.511H192.944C193.434 391.461 193.899 391.405 194.32 391.356C194.34 391.356 194.364 391.356 194.382 391.351C196.208 391.127 197.384 390.935 197.477 390.918C199.025 390.694 200.005 390.522 201.659 390.162C201.752 390.143 201.85 390.126 201.937 390.113H201.949C202.067 390.089 202.185 390.057 202.308 390.032C202.426 390.007 202.537 389.976 202.66 389.951C203.31 389.808 203.991 389.661 204.71 389.486L205.025 389.417L206.226 389.115C206.255 389.11 206.295 389.097 206.324 389.09H206.361C207.575 388.8 209.11 388.342 210.373 387.944C210.392 387.939 210.417 387.931 210.434 387.924C210.552 387.887 210.683 387.85 210.793 387.813C211.03 387.739 211.239 387.671 211.443 387.609C211.5 387.589 211.554 387.572 211.61 387.552C212.917 387.132 213.678 386.878 214.861 386.426C214.967 386.389 215.09 386.345 215.188 386.308C215.208 386.3 215.233 386.288 215.25 386.283C216.055 385.981 216.879 385.663 217.716 385.324C218.051 385.188 218.373 385.051 218.7 384.915C219.077 384.755 219.456 384.6 219.84 384.433C220.243 384.266 220.669 384.074 221.114 383.87C222.756 383.127 224.309 382.367 225.795 381.592C225.832 381.572 225.869 381.555 225.906 381.535C234.209 377.196 240.117 372.534 243.385 369.632C243.671 369.378 243.88 369.191 243.993 369.093C244.855 368.313 245.676 367.553 246.521 366.758C246.769 366.53 247.015 366.301 247.271 366.072C248.251 365.162 249.799 363.585 251.469 361.728C254.703 358.18 257.563 354.481 260.016 350.697C260.4 350.109 260.772 349.534 261.106 348.99C261.372 348.582 261.643 348.129 261.923 347.659C267.286 338.956 270.288 330.816 271.966 324.23C272.109 323.692 272.239 323.165 272.355 322.663C272.375 322.589 272.394 322.489 272.412 322.41C273.93 316.4 274.703 310.767 275 305.655C275 305.569 275.013 305.483 275.013 305.394L275.018 305.357L275.025 305.365Z" fill="white"/>
</mask>
<g mask="url(#mask1_2188_997)">
<path d="M275.025 305.365C275.065 304.629 275.094 303.911 275.119 303.198C275.355 296.691 274.909 289.048 273.044 280.586C272.227 276.458 270.748 271.004 268.061 264.684C267.428 263.13 266.656 261.435 265.831 259.769C265.632 259.361 265.428 258.957 265.231 258.556C265.15 258.401 265.068 258.247 264.99 258.092C264.753 257.639 264.525 257.194 264.288 256.761C263.063 254.463 261.788 252.298 260.474 250.274C260.053 249.612 259.62 248.948 259.187 248.298C259.13 248.217 259.076 248.138 259.02 248.057C258.705 247.592 258.387 247.142 258.072 246.702C255.471 243.012 252.766 239.826 250.096 237.059C249.594 236.527 249.075 236.006 248.561 235.487C248.339 235.258 248.115 235.042 247.899 234.818C247.682 234.606 247.478 234.397 247.261 234.186C247.163 234.092 247.069 234.006 246.976 233.912C246.87 233.814 246.764 233.708 246.666 233.61C246.479 233.43 246.275 233.251 246.078 233.066C242.48 229.711 239.47 227.384 236.933 225.558C236.864 225.509 236.79 225.453 236.721 225.403C236.753 225.428 236.783 225.453 236.815 225.477C236.554 225.293 236.296 225.106 236.047 224.926C235.006 224.164 233.756 223.367 232.481 222.574C231.787 222.122 231.106 221.684 230.493 221.317C228.834 220.321 226.58 219.047 224.845 218.191C224.825 218.183 224.808 218.171 224.796 218.166C223.954 217.746 223.118 217.33 222.308 216.953C222.301 216.953 222.288 216.941 222.283 216.941C222.259 216.929 222.234 216.921 222.209 216.909C221.72 216.68 221.23 216.452 220.792 216.26C220.155 215.974 219.547 215.721 218.934 215.468C217.071 214.663 215.112 213.901 213.07 213.197C213.05 213.197 213.033 213.185 213.013 213.177C211.404 212.626 209.745 212.095 208.003 211.618C199.296 209.128 190.356 208.016 181.209 208.257C176.503 208.302 171.028 208.853 165.171 210.046L164.521 210.176H164.497C164.479 210.176 164.46 210.184 164.435 210.188C162.863 210.516 161.295 210.875 159.604 211.327C158.477 211.613 157.183 211.997 156.08 212.343C156.056 212.351 156.036 212.356 156.011 212.363C155.901 212.4 155.783 212.437 155.677 212.469H155.664C153.863 213.045 153.058 213.298 151.732 213.807C151.577 213.864 151.422 213.918 151.291 213.967H151.284C149.817 214.493 148.801 214.894 147.514 215.458C146.69 215.805 145.873 216.164 145.048 216.535C144.999 216.56 144.95 216.58 144.905 216.604C143.852 217.081 142.806 217.588 141.765 218.115C141.728 218.134 141.684 218.151 141.647 218.176C140.737 218.634 139.839 219.111 138.935 219.605C138.298 219.957 137.69 220.304 137.085 220.658C136.849 220.793 136.615 220.924 136.386 221.062C130.236 224.683 125.76 228.267 123.068 230.668C122.782 230.916 122.573 231.108 122.462 231.207C121.212 232.301 120.078 233.354 119.199 234.22C118.914 234.498 118.611 234.803 118.296 235.11C118.271 235.135 118.247 235.16 118.222 235.184L118.148 235.258C116.674 236.732 114.878 238.594 112.705 241.206C102.45 253.29 95.7319 267.526 92.9216 282.977C92.8355 283.417 92.7543 283.862 92.673 284.312C92.6607 284.369 92.6558 284.423 92.6411 284.485C92.2252 286.873 91.8856 289.318 91.7305 291.392C91.7182 291.523 91.7108 291.665 91.6985 291.796C91.5558 293.454 91.4574 295.274 91.3958 297.136C91.3762 297.434 91.3515 297.736 91.3392 298.022L91.3515 298.964C91.3392 299.608 91.3392 300.246 91.3392 300.875C91.3392 302.398 91.3712 303.877 91.4574 305.207C91.5263 306.403 91.6247 307.554 91.7305 308.686C91.7428 308.816 91.7551 308.947 91.7674 309.077C91.8044 309.468 91.8413 309.864 91.8856 310.248C91.9545 310.892 92.0283 311.498 92.1021 312.081C92.1021 312.125 92.1144 312.162 92.1144 312.204C92.1193 312.253 92.1267 312.309 92.1316 312.359C94.0708 327.783 99.8662 342.176 109.161 354.628C109.397 354.95 109.631 355.265 109.872 355.583C109.978 355.725 110.084 355.861 110.187 356.003C110.539 356.461 110.881 356.894 111.221 357.302C118.96 367.132 128.218 374.652 137.921 380.111C154.555 389.737 172.027 393.282 187.991 391.902H188.04C188.183 391.894 188.33 391.882 188.48 391.877C189.229 391.833 189.996 391.779 190.796 391.71C191.099 391.685 191.397 391.661 191.699 391.629C192.12 391.592 192.524 391.547 192.913 391.511H192.945C193.434 391.461 193.899 391.405 194.32 391.356C194.34 391.356 194.364 391.356 194.382 391.351C196.208 391.127 197.384 390.935 197.478 390.918C199.025 390.694 200.005 390.522 201.659 390.163C201.752 390.143 201.851 390.126 201.937 390.113H201.949C202.067 390.089 202.185 390.057 202.308 390.032C202.426 390.008 202.537 389.976 202.66 389.951C203.31 389.808 203.992 389.661 204.71 389.486L205.025 389.417L206.226 389.115C206.256 389.11 206.295 389.097 206.324 389.09H206.361C207.575 388.8 209.11 388.342 210.373 387.944C210.392 387.939 210.417 387.931 210.434 387.924C210.552 387.887 210.683 387.85 210.793 387.813C211.03 387.739 211.239 387.671 211.443 387.609C211.5 387.589 211.554 387.572 211.61 387.553C212.917 387.132 213.678 386.878 214.861 386.426C214.967 386.389 215.09 386.345 215.189 386.308C215.208 386.3 215.233 386.288 215.25 386.283C216.055 385.981 216.879 385.663 217.716 385.324C218.051 385.188 218.373 385.051 218.7 384.915C219.077 384.756 219.456 384.601 219.84 384.433C220.243 384.266 220.669 384.074 221.114 383.87C222.756 383.127 224.309 382.367 225.795 381.592C225.832 381.572 225.869 381.555 225.906 381.535C234.209 377.196 240.117 372.534 243.385 369.632C243.671 369.378 243.88 369.191 243.993 369.093C244.855 368.313 245.677 367.553 246.521 366.758C246.769 366.53 247.015 366.301 247.271 366.072C248.251 365.162 249.799 363.585 251.47 361.728C254.703 358.18 257.563 354.481 260.016 350.697C260.4 350.109 260.772 349.534 261.106 348.99C261.372 348.582 261.643 348.129 261.923 347.659C267.286 338.956 270.288 330.816 271.966 324.23C272.109 323.692 272.239 323.165 272.355 322.663C272.375 322.59 272.394 322.489 272.412 322.41C273.93 316.4 274.703 310.767 275.001 305.655C275.001 305.569 275.013 305.483 275.013 305.394L275.018 305.357L275.025 305.365Z" fill="url(#paint2_radial_2188_997)"/>
<g opacity="0.1">
<path d="M-66.1062 407.633C-67.5557 421.535 -62.9415 432.845 -52.7879 440.909C-47.7529 435.896 -43.1338 430.882 -38.7805 425.967C-26.0429 411.589 -14.4201 397.105 3.04237 382.613C23.3103 365.796 50.9436 349.967 77.9372 339.278C90.8667 334.159 99.8957 332.914 111.777 329.35C127.165 324.732 145.629 316.58 161.462 310.223C191.37 298.221 221.737 285.259 250.611 269.493C282.543 252.057 310.947 232.151 337.783 211.768C335.908 210.029 333.801 208.42 331.473 206.946C302.457 226.852 272.648 247.019 239.918 264.48C206.809 282.14 174.175 287.154 142.528 295.968C116.967 303.087 89.838 311.881 63.5729 325.227C16.4961 349.145 -20.2032 383.648 -66.1062 407.628V407.633ZM230.714 259.171C191.227 274.595 159.609 275.872 122.693 286.116C98.3946 292.856 71.8612 302.833 47.5771 316.526C20.084 332.019 -2.51678 351.059 -30.2757 366.249C-38.6525 370.83 -47.3665 374.945 -56.0412 378.48C-51.7002 370.569 -45.9614 362.183 -38.7706 353.386C-25.4326 337.069 -8.27528 320.791 11.4488 305.222C17.318 306.496 26.1428 305.544 35.5114 303.372C70.5397 295.244 110.293 272.657 148.041 257.944C181.72 244.822 213.22 238.217 245.883 228.407C268.614 221.581 293.772 212.208 316.038 200.162C319.122 201.077 322.001 202.142 324.664 203.337C323.433 204.378 322.245 205.423 321.061 206.444C297.37 227.007 263.456 246.387 230.717 259.176V259.169L230.714 259.171ZM285.843 195.854C258.092 205.738 230.338 215.625 202.579 225.509C160.033 240.663 116.465 256.099 78.6188 262.642C76.8224 262.952 75.0407 263.243 73.2565 263.528C128.056 231.75 190.464 207.337 244.709 198.887C259.991 196.511 273.733 195.539 285.843 195.849V195.857V195.854ZM191.958 396.876C169.962 408.666 147.051 419.19 124.18 427.935C128.954 420.737 133.226 413.599 138.163 406.393C149.333 390.064 166.578 371.1 193.092 356.417C211.31 346.328 230.771 340.018 249.299 334.114C267.448 328.326 285.597 322.54 303.746 316.752C296.922 323.573 289.498 330.346 281.591 337.005C266.648 339.827 249.031 345.43 233.613 354.732C212.095 367.718 202.293 382.977 191.958 396.871V396.876ZM342.911 263.745C340.502 265.806 338.044 267.848 335.487 269.86C308.444 291.129 271.528 307.953 237.036 323.347C183.79 347.115 130.413 370.935 77.162 392.01C66.0043 396.423 54.5661 400.856 43.8735 406.834C33.1785 412.819 23.1971 420.841 21.563 426.617C19.3286 434.528 32.7773 435.096 32.8954 442.097C32.952 445.298 30.405 449.135 26.5906 453.308C7.02901 455.561 -9.69028 455.32 -23.3236 452.867C-14.617 444.993 -5.59044 437.17 4.30481 429.549C37.2586 404.172 78.9757 381.732 120.073 362.23C147.251 349.329 174.544 337.595 201.518 324.311C227.166 311.684 249.316 303.247 269.274 285.532C282.767 273.55 290.29 261.868 302.575 249.892C313.417 239.319 328.013 228.655 344.075 219.401C350.949 230.771 350.798 245.851 342.916 263.732L342.911 263.745Z" fill="#1E293B"/>
</g>
</g>
<path d="M275.119 303.2C275.094 303.911 275.064 304.629 275.025 305.367L275.02 305.404C275.02 305.49 275.008 305.576 275.008 305.662C274.907 307.397 274.752 309.193 274.53 311.04C268.841 313.279 262.949 315.495 256.878 317.677C239.758 323.829 221.196 329.711 201.656 335.079C178.255 341.507 155.581 346.611 134.538 350.345C125.691 351.915 117.129 353.236 108.922 354.304C105.307 349.42 102.234 344.242 99.716 338.82C105.962 338.324 112.611 337.6 119.603 336.661C142.486 333.583 169.005 328.154 196.84 320.508C220.511 314.007 242.423 306.642 261.33 299.075C266.058 297.183 270.598 295.276 274.929 293.37C275.19 296.873 275.229 300.16 275.119 303.2Z" fill="url(#paint3_radial_2188_997)"/>
<g filter="url(#filter4_di_2188_997)">
<path d="M274.53 311.04C268.841 313.278 262.949 315.495 256.878 317.677C239.758 323.829 221.196 329.711 201.656 335.079C178.255 341.507 155.581 346.611 134.538 350.345C125.691 351.915 117.129 353.236 108.922 354.303C55.5479 361.258 17.1285 357.634 12.4996 343.63C7.50887 328.538 40.315 305.205 92.8378 283.419C92.7812 283.715 92.7271 284.012 92.673 284.315C92.6607 284.371 92.6557 284.425 92.6434 284.487C92.2915 286.512 91.9938 288.575 91.8166 290.418C60.2605 305.124 41.6513 319.687 44.8381 329.327C47.7961 338.279 68.7777 341.29 99.716 338.82C105.962 338.323 112.611 337.6 119.603 336.661C142.486 333.583 169.005 328.154 196.84 320.508C220.511 314.007 242.423 306.641 261.33 299.075C266.058 297.183 270.598 295.276 274.929 293.37C310.683 277.629 332.32 261.732 328.872 251.302C325.365 240.695 296.563 238.434 255.877 243.738C254.462 241.912 253.03 240.225 251.597 238.66C313.373 228.569 359.079 230.527 364.501 246.933C369.789 262.925 332.62 288.182 274.53 311.04Z" fill="#839FCD"/>
</g>
<rect x="37" y="31" width="228" height="367" rx="15" stroke="white" stroke-width="2"/>
<path d="M219.599 91.8402C218.062 91.8294 216.564 91.3605 215.291 90.4924C214.019 89.6243 213.03 88.396 212.449 86.9623C211.869 85.5286 211.722 83.9538 212.028 82.4364C212.335 80.9189 213.08 79.5269 214.17 78.4357C215.26 77.3445 216.647 76.6031 218.155 76.3049C219.662 76.0068 221.224 76.1652 222.643 76.7602C224.061 77.3553 225.273 78.3603 226.126 79.6485C226.978 80.9368 227.433 82.4506 227.433 83.9991C227.425 86.0856 226.596 88.0836 225.127 89.5539C223.658 91.0243 221.669 91.8466 219.599 91.8402ZM219.599 77.9011C218.402 77.9154 217.237 78.2862 216.249 78.9667C215.261 79.6473 214.496 80.6071 214.048 81.7255C213.6 82.8438 213.491 84.0706 213.734 85.2513C213.977 86.4321 214.561 87.514 215.413 88.3608C216.265 89.2075 217.347 89.7814 218.521 90.01C219.696 90.2385 220.912 90.1117 222.015 89.6453C223.119 89.179 224.061 88.394 224.722 87.3893C225.384 86.3845 225.736 85.2049 225.734 83.9991C225.729 83.192 225.566 82.3937 225.256 81.6498C224.945 80.9059 224.492 80.231 223.922 79.6636C223.352 79.0963 222.677 78.6475 221.936 78.3431C221.194 78.0386 220.4 77.8843 219.599 77.8891V77.9011Z" fill="white"/>
<path d="M233.183 98.8762C232.072 98.8819 230.969 98.6773 229.933 98.273C228.86 97.848 227.881 97.2122 227.054 96.4024C226.227 95.5926 225.568 94.6252 225.115 93.5563C224.662 92.5022 224.423 91.3677 224.411 90.2191C224.398 89.0706 224.613 87.931 225.043 86.8673C225.128 86.6561 225.293 86.4876 225.501 86.3988C225.709 86.31 225.944 86.3082 226.153 86.3938C226.363 86.4794 226.53 86.6454 226.618 86.8552C226.706 87.065 226.708 87.3015 226.623 87.5127C226.278 88.3662 226.105 89.2805 226.114 90.2022C226.123 91.1239 226.315 92.0345 226.677 92.8808C227.043 93.741 227.575 94.5193 228.241 95.1706C228.908 95.8219 229.697 96.3332 230.561 96.6747C232.3 97.3725 234.241 97.3516 235.964 96.6166C237.687 95.8815 239.053 94.4916 239.766 92.7481C241.31 88.906 241.257 84.0807 241.257 84.0324C241.257 69.5566 229.454 57.7769 214.923 57.7769C209.148 57.7598 203.528 59.6597 198.931 63.1832C194.335 66.7067 191.018 71.6577 189.493 77.271C189.469 77.3851 189.423 77.4931 189.356 77.5885C189.29 77.684 189.205 77.7647 189.107 77.8259C189.008 77.8871 188.899 77.9274 188.784 77.9444C188.67 77.9614 188.553 77.9547 188.442 77.9247C188.33 77.8947 188.226 77.842 188.135 77.77C188.044 77.6979 187.969 77.6079 187.914 77.5055C187.858 77.4031 187.825 77.2904 187.814 77.1744C187.804 77.0584 187.817 76.9415 187.853 76.8307C189.474 70.8529 193.004 65.5796 197.897 61.826C202.79 58.0724 208.773 56.0474 214.923 56.0639C230.37 56.0639 242.932 68.6036 242.932 84.0204C242.932 84.2194 242.992 89.2196 241.322 93.3875C240.658 95.0123 239.53 96.4015 238.08 97.3787C236.631 98.356 234.927 98.8772 233.183 98.8762Z" fill="white"/>
<path d="M234.35 84.8519C234.238 84.8527 234.127 84.8312 234.023 84.7885C233.919 84.7458 233.825 84.6828 233.745 84.6032C233.666 84.5236 233.602 84.4289 233.559 84.3246C233.516 84.2203 233.494 84.1084 233.494 83.9954C233.466 79.6847 231.742 75.5612 228.702 72.5288C225.662 69.4964 221.552 67.8026 217.275 67.8187C209.417 67.8187 203.013 73.1084 201.337 80.9796C201.29 81.202 201.158 81.3965 200.968 81.5204C200.779 81.6442 200.549 81.6873 200.328 81.6401C200.108 81.5929 199.915 81.4593 199.792 81.2687C199.669 81.0781 199.626 80.8461 199.673 80.6238C201.516 71.9383 208.591 66.1057 217.275 66.1057C222.009 66.0801 226.56 67.9501 229.927 71.3047C233.294 74.6594 235.201 79.2241 235.23 83.9954C235.23 84.1105 235.207 84.2244 235.162 84.3303C235.118 84.4363 235.052 84.532 234.97 84.612C234.888 84.6919 234.791 84.7544 234.684 84.7956C234.578 84.8368 234.464 84.856 234.35 84.8519Z" fill="white"/>
<path d="M212.957 122C210.763 121.988 208.621 121.321 206.802 120.084C204.983 118.847 203.569 117.094 202.737 115.048C201.906 113.001 201.694 110.752 202.129 108.585C202.565 106.417 203.627 104.428 205.183 102.868C206.739 101.309 208.719 100.249 210.872 99.8216C213.025 99.3945 215.255 99.6197 217.281 100.469C219.308 101.318 221.039 102.753 222.257 104.592C223.475 106.432 224.125 108.594 224.125 110.805C224.114 113.781 222.932 116.631 220.838 118.73C218.744 120.829 215.91 122.005 212.957 122ZM212.957 101.324C211.099 101.336 209.286 101.902 207.746 102.951C206.207 104 205.01 105.485 204.308 107.218C203.605 108.952 203.427 110.857 203.797 112.692C204.166 114.527 205.067 116.211 206.385 117.531C207.703 118.851 209.38 119.748 211.203 120.109C213.027 120.47 214.915 120.279 216.631 119.559C218.347 118.84 219.812 117.625 220.844 116.067C221.875 114.509 222.425 112.678 222.425 110.805C222.409 108.287 221.404 105.878 219.629 104.106C217.855 102.333 215.456 101.341 212.957 101.348V101.324Z" fill="white"/>
<path d="M206.62 88.8242C206.243 88.8238 205.867 88.7936 205.495 88.7337C204.578 88.5905 203.7 88.265 202.91 87.7762C202.119 87.2875 201.434 86.6452 200.892 85.8868C200.355 85.1424 199.969 84.298 199.758 83.4025C199.546 82.507 199.512 81.5781 199.659 80.6695C199.695 80.4447 199.818 80.2435 200.001 80.11C200.184 79.9765 200.412 79.9218 200.635 79.9578C200.858 79.9938 201.057 80.1176 201.19 80.3019C201.322 80.4863 201.377 80.7162 201.341 80.9409C201.23 81.6266 201.255 82.3277 201.414 83.0037C201.573 83.6796 201.864 84.3172 202.269 84.8795C202.894 85.727 203.752 86.3721 204.736 86.7359C205.719 87.0996 206.787 87.1661 207.808 86.9273C208.829 86.6885 209.759 86.1547 210.483 85.3914C211.208 84.628 211.695 83.6683 211.887 82.6298C211.923 82.405 212.047 82.2041 212.23 82.0712C212.414 81.9382 212.642 81.8843 212.865 81.921C213.088 81.9578 213.287 82.0824 213.419 82.2673C213.551 82.4523 213.605 82.6825 213.568 82.9072C213.292 84.5626 212.442 86.0656 211.17 87.1491C209.898 88.2325 208.285 88.826 206.62 88.8242Z" fill="white"/>
<path d="M244.116 99.5668C243.154 99.5647 242.214 99.273 241.418 98.7293C240.621 98.1855 240.004 97.4144 239.645 96.5148C239.413 95.9286 239.301 95.3017 239.313 94.6709C239.325 94.0401 239.463 93.4181 239.717 92.8416C239.811 92.6398 239.98 92.483 240.187 92.4047C240.395 92.3265 240.624 92.3328 240.827 92.4224C241.03 92.512 241.19 92.6777 241.273 92.8844C241.356 93.0912 241.356 93.3225 241.273 93.5292C241.11 93.8984 241.022 94.2969 241.015 94.701C241.008 95.1051 241.081 95.5066 241.231 95.8815C241.379 96.2638 241.601 96.6123 241.885 96.9065C242.168 97.2007 242.508 97.4347 242.883 97.5945C243.633 97.92 244.48 97.9369 245.243 97.6417C246.005 97.3464 246.623 96.7623 246.965 96.0142C248.316 92.1547 249.008 88.0921 249.011 83.9992C249.011 63.9804 232.684 47.689 212.617 47.689C204.508 47.6619 196.623 50.3689 190.217 55.3791C183.81 60.3893 179.251 67.4149 177.264 75.3379C176.917 76.7936 176.861 78.3044 177.099 79.7821C177.338 81.2599 177.866 82.675 178.652 83.945C179.853 85.8878 181.595 87.4308 183.662 88.381C185.728 89.3311 188.026 89.6464 190.269 89.2872C192.512 88.928 194.601 87.9104 196.273 86.3616C197.945 84.8128 199.127 82.8016 199.671 80.5793C199.724 80.3578 199.861 80.1663 200.054 80.0469C200.246 79.9276 200.478 79.8902 200.698 79.943C200.918 79.9958 201.108 80.1344 201.226 80.3284C201.345 80.5224 201.382 80.7559 201.329 80.9774C200.708 83.5294 199.353 85.8398 197.435 87.6195C195.517 89.3992 193.12 90.569 190.545 90.9824C187.97 91.3957 185.331 91.0344 182.959 89.9435C180.587 88.8526 178.587 87.0807 177.21 84.8497C176.305 83.3894 175.697 81.7621 175.423 80.0627C175.149 78.3634 175.213 76.626 175.612 74.9519C177.69 66.6568 182.462 59.3006 189.168 54.0542C195.873 48.8078 204.128 45.9727 212.617 46.0002C233.624 46.0002 250.717 63.0575 250.717 83.9992C250.71 88.3001 249.98 92.5687 248.557 96.6234C248.559 96.6414 248.559 96.6596 248.557 96.6777C248.179 97.5454 247.557 98.282 246.768 98.7958C245.978 99.3095 245.056 99.5777 244.116 99.5668Z" fill="white"/>
</g>
</g>
<defs>
<filter id="filter2_d_2188_997" x="89.6324" y="106.203" width="30.7353" height="30.595" filterUnits="userSpaceOnUse" color-interpolation-filters="sRGB">
<feFlood flood-opacity="0" result="BackgroundImageFix"/>
<feColorMatrix in="SourceAlpha" type="matrix" values="0 0 0 0 0 0 0 0 0 0 0 0 0 0 0 0 0 0 127 0" result="hardAlpha"/>
<feOffset/>
<feGaussianBlur stdDeviation="4"/>
<feComposite in2="hardAlpha" operator="out"/>
<feColorMatrix type="matrix" values="0 0 0 0 1 0 0 0 0 1 0 0 0 0 1 0 0 0 0.9 0"/>
<feBlend mode="normal" in2="BackgroundImageFix" result="effect1_dropShadow_2188_997"/>
<feBlend mode="normal" in="SourceGraphic" in2="effect1_dropShadow_2188_997" result="shape"/>
</filter>
<filter id="filter3_d_2188_997" x="51.6323" y="164.203" width="30.7354" height="30.595" filterUnits="userSpaceOnUse" color-interpolation-filters="sRGB">
<feFlood flood-opacity="0" result="BackgroundImageFix"/>
<feColorMatrix in="SourceAlpha" type="matrix" values="0 0 0 0 0 0 0 0 0 0 0 0 0 0 0 0 0 0 127 0" result="hardAlpha"/>
<feOffset/>
<feGaussianBlur stdDeviation="4"/>
<feComposite in2="hardAlpha" operator="out"/>
<feColorMatrix type="matrix" values="0 0 0 0 1 0 0 0 0 1 0 0 0 0 1 0 0 0 0.9 0"/>
<feBlend mode="normal" in2="BackgroundImageFix" result="effect1_dropShadow_2188_997"/>
<feBlend mode="normal" in="SourceGraphic" in2="effect1_dropShadow_2188_997" result="shape"/>
</filter>
<filter id="filter4_di_2188_997" x="-28" y="192.488" width="433" height="205.252" filterUnits="userSpaceOnUse" color-interpolation-filters="sRGB">
<feFlood flood-opacity="0" result="BackgroundImageFix"/>
<feColorMatrix in="SourceAlpha" type="matrix" values="0 0 0 0 0 0 0 0 0 0 0 0 0 0 0 0 0 0 127 0" result="hardAlpha"/>
<feOffset/>
<feGaussianBlur stdDeviation="20"/>
<feComposite in2="hardAlpha" operator="out"/>
<feColorMatrix type="matrix" values="0 0 0 0 1 0 0 0 0 1 0 0 0 0 1 0 0 0 0.75 0"/>
<feBlend mode="normal" in2="BackgroundImageFix" result="effect1_dropShadow_2188_997"/>
<feBlend mode="normal" in="SourceGraphic" in2="effect1_dropShadow_2188_997" result="shape"/>
<feColorMatrix in="SourceAlpha" type="matrix" values="0 0 0 0 0 0 0 0 0 0 0 0 0 0 0 0 0 0 127 0" result="hardAlpha"/>
<feOffset/>
<feGaussianBlur stdDeviation="35"/>
<feComposite in2="hardAlpha" operator="arithmetic" k2="-1" k3="1"/>
<feColorMatrix type="matrix" values="0 0 0 0 1 0 0 0 0 1 0 0 0 0 1 0 0 0 0.8 0"/>
<feBlend mode="normal" in2="shape" result="effect2_innerShadow_2188_997"/>
</filter>
<radialGradient id="paint0_radial_2188_997" cx="0" cy="0" r="1" gradientUnits="userSpaceOnUse" gradientTransform="translate(151 415) rotate(-90) scale(354.939 434.362)">
<stop offset="0.181452" stop-color="#0C52BA"/>
<stop offset="0.558891" stop-color="#1D44A8"/>
<stop offset="0.721944" stop-color="#202F65"/>
<stop offset="1" stop-color="#101625"/>
</radialGradient>
<radialGradient id="paint1_radial_2188_997" cx="0" cy="0" r="1" gradientUnits="userSpaceOnUse" gradientTransform="translate(151 415) rotate(-90) scale(354.939 434.362)">
<stop offset="0.181452" stop-color="#0C52BA"/>
<stop offset="0.558891" stop-color="#1D44A8"/>
<stop offset="0.721944" stop-color="#202F65"/>
<stop offset="1" stop-color="#101625"/>
</radialGradient>
<radialGradient id="paint2_radial_2188_997" cx="0" cy="0" r="1" gradientUnits="userSpaceOnUse" gradientTransform="translate(195.707 312.215) rotate(-45.3693) scale(102.162 102.162)">
<stop stop-color="#072B69"/>
<stop offset="0.73" stop-color="#0D7AFF"/>
<stop offset="0.96" stop-color="#06A5FF"/>
</radialGradient>
<radialGradient id="paint3_radial_2188_997" cx="0" cy="0" r="1" gradientUnits="userSpaceOnUse" gradientTransform="translate(187.833 318.272) scale(67.928 67.9026)">
<stop stop-color="#2C3D5B"/>
<stop offset="0.73" stop-color="#315D93"/>
<stop offset="0.96" stop-color="#06A5FF"/>
</radialGradient>
</defs>
</svg>
