<svg width="466" height="426" viewBox="0 0 466 426" fill="none" xmlns="http://www.w3.org/2000/svg">
<path d="M256.75 210.971C256.75 258.73 214.351 297.484 162 297.484C109.649 297.484 67.25 258.73 67.25 210.971C67.25 163.212 109.649 124.458 162 124.458C214.351 124.458 256.75 163.212 256.75 210.971Z" stroke="white" stroke-opacity="0.5" stroke-width="0.5"/>
<path d="M372.75 204.578C372.75 295.211 292.295 368.721 193 368.721C93.705 368.721 13.25 295.211 13.25 204.578C13.25 113.945 93.705 40.4351 193 40.4351C292.295 40.4351 372.75 113.945 372.75 204.578Z" stroke="white" stroke-opacity="0.5" stroke-width="0.5"/>
<path d="M465.75 212.798C465.75 330.164 361.566 425.345 233 425.345C104.434 425.345 0.25 330.164 0.25 212.798C0.25 95.4317 104.434 0.25 233 0.25C361.566 0.25 465.75 95.4317 465.75 212.798Z" stroke="white" stroke-opacity="0.5" stroke-width="0.5"/>
</svg>
