<svg width="1440" height="498" viewBox="0 0 1440 498" fill="none" xmlns="http://www.w3.org/2000/svg">
<rect width="1440" height="498" fill="url(#paint0_radial_1940_753)"/>
<g opacity="0.9" clip-path="url(#clip0_1940_753)">
<g style="mix-blend-mode:screen">
<path d="M923.903 426.741C923.903 428.082 925.508 429.174 927.479 429.174C929.451 429.174 931.055 428.082 931.055 426.741C931.055 425.4 929.451 424.309 927.479 424.309C925.508 424.309 923.903 425.4 923.903 426.741Z" fill="#85A5F8"/>
</g>
<g style="mix-blend-mode:color-dodge">
<path d="M925.691 426.742C925.691 427.428 926.517 427.958 927.479 427.958C928.442 427.958 929.267 427.397 929.267 426.742C929.267 426.087 928.442 425.525 927.479 425.525C926.517 425.525 925.691 426.087 925.691 426.742Z" fill="#85A5F8"/>
</g>
<g style="mix-blend-mode:screen">
<path d="M1304.61 83.8772C1304.61 86.5907 1307.82 88.7739 1311.81 88.7739C1315.8 88.7739 1319.01 86.5907 1319.01 83.8772C1319.01 81.1637 1315.8 78.9805 1311.81 78.9805C1307.82 78.9805 1304.61 81.1637 1304.61 83.8772Z" fill="#85A5F8"/>
</g>
<g style="mix-blend-mode:color-dodge">
<path d="M1308.19 83.8781C1308.19 85.2192 1309.8 86.3109 1311.77 86.3109C1313.74 86.3109 1315.34 85.2192 1315.34 83.8781C1315.34 82.5369 1313.74 81.4453 1311.77 81.4453C1309.8 81.4453 1308.19 82.5369 1308.19 83.8781Z" fill="#85A5F8"/>
</g>
<g style="mix-blend-mode:screen">
<path d="M1128.93 46.887C1128.93 49.6004 1132.14 51.7837 1136.13 51.7837C1140.12 51.7837 1143.33 49.6004 1143.33 46.887C1143.33 44.1735 1140.12 41.9902 1136.13 41.9902C1132.14 41.9902 1128.93 44.1735 1128.93 46.887Z" fill="#85A5F8"/>
</g>
<g style="mix-blend-mode:color-dodge">
<path d="M1132.51 46.8878C1132.51 48.229 1134.11 49.3206 1136.08 49.3206C1138.05 49.3206 1139.66 48.229 1139.66 46.8878C1139.66 45.5467 1138.05 44.4551 1136.08 44.4551C1134.11 44.4551 1132.51 45.5467 1132.51 46.8878Z" fill="#85A5F8"/>
</g>
<g style="mix-blend-mode:screen">
<path d="M815.842 241.384C817.691 241.384 819.189 240.364 819.189 239.107C819.189 237.849 817.691 236.83 815.842 236.83C813.994 236.83 812.496 237.849 812.496 239.107C812.496 240.364 813.994 241.384 815.842 241.384Z" fill="#85A5F8"/>
</g>
<g style="mix-blend-mode:color-dodge">
<path d="M814.192 239.107C814.192 239.731 814.925 240.261 815.888 240.261C816.851 240.261 817.585 239.762 817.585 239.107C817.585 238.452 816.851 237.953 815.888 237.953C814.925 237.953 814.192 238.452 814.192 239.107Z" fill="#85A5F8"/>
</g>
<g style="mix-blend-mode:screen">
<path d="M464.748 105.617C465.66 105.617 466.399 105.114 466.399 104.494C466.399 103.874 465.66 103.371 464.748 103.371C463.837 103.371 463.098 103.874 463.098 104.494C463.098 105.114 463.837 105.617 464.748 105.617Z" fill="#85A5F8"/>
</g>
<g style="mix-blend-mode:color-dodge">
<path d="M463.923 104.493C463.923 104.805 464.29 105.054 464.748 105.054C465.207 105.054 465.573 104.805 465.573 104.493C465.573 104.181 465.207 103.932 464.748 103.932C464.29 103.932 463.923 104.181 463.923 104.493Z" fill="#85A5F8"/>
</g>
<g style="mix-blend-mode:screen">
<path d="M255.137 83.5019C258.809 83.5019 261.785 81.4772 261.785 78.9795C261.785 76.4818 258.809 74.457 255.137 74.457C251.466 74.457 248.489 76.4818 248.489 78.9795C248.489 81.4772 251.466 83.5019 255.137 83.5019Z" fill="#85A5F8"/>
</g>
<g style="mix-blend-mode:color-dodge">
<path d="M251.79 78.9799C251.79 80.2275 253.257 81.2568 255.137 81.2568C257.017 81.2568 258.438 80.2587 258.438 78.9799C258.438 77.7012 256.971 76.7031 255.137 76.7031C253.303 76.7031 251.79 77.7012 251.79 78.9799Z" fill="#85A5F8"/>
</g>
<g style="mix-blend-mode:screen">
<path d="M0 201.616C0 204.111 2.98004 206.139 6.64778 206.139C10.3155 206.139 13.2956 204.111 13.2956 201.616C13.2956 199.121 10.3155 197.094 6.64778 197.094C2.98004 197.094 0 199.121 0 201.616Z" fill="#85A5F8"/>
</g>
<g style="mix-blend-mode:color-dodge">
<path d="M3.34668 201.617C3.34668 202.864 4.81378 203.893 6.69349 203.893C8.57321 203.893 9.99446 202.895 9.99446 201.617C9.99446 200.338 8.52736 199.34 6.69349 199.34C4.85962 199.34 3.34668 200.338 3.34668 201.617Z" fill="#85A5F8"/>
</g>
<g style="mix-blend-mode:color-dodge">
<path d="M658.038 304.884C658.038 305.757 659.047 306.443 660.33 306.443C661.614 306.443 662.623 305.757 662.623 304.884C662.623 304.01 661.614 303.324 660.33 303.324C659.047 303.324 658.038 304.01 658.038 304.884Z" fill="#85A5F8"/>
</g>
<g style="mix-blend-mode:color-dodge">
<path d="M426.191 6.58987C426.191 7.71268 427.521 8.58598 429.126 8.58598C430.73 8.58598 432.06 7.68149 432.06 6.58987C432.06 5.49824 430.73 4.59375 429.126 4.59375C427.521 4.59375 426.191 5.49824 426.191 6.58987Z" fill="#85A5F8"/>
</g>
<g style="mix-blend-mode:color-dodge">
<path d="M1428.13 383.451C1428.13 385.697 1430.79 387.506 1434.09 387.506C1437.39 387.506 1440.05 385.697 1440.05 383.451C1440.05 381.205 1437.39 379.396 1434.09 379.396C1430.79 379.396 1428.13 381.205 1428.13 383.451Z" fill="#85A5F8"/>
</g>
<g style="mix-blend-mode:color-dodge">
<path d="M1324.47 432.636C1324.47 434.538 1326.76 436.098 1329.56 436.098C1332.35 436.098 1334.64 434.538 1334.64 432.636C1334.64 430.733 1332.35 429.174 1329.56 429.174C1326.76 429.174 1324.47 430.733 1324.47 432.636Z" fill="#85A5F8"/>
</g>
<g style="mix-blend-mode:color-dodge">
<path d="M835.603 377.461C835.603 378.428 836.749 379.208 838.17 379.208C839.591 379.208 840.737 378.428 840.737 377.461C840.737 376.495 839.591 375.715 838.17 375.715C836.749 375.715 835.603 376.495 835.603 377.461Z" fill="#85A5F8"/>
</g>
<g style="mix-blend-mode:color-dodge">
<path d="M1250.2 424.809C1250.2 425.776 1251.34 426.556 1252.76 426.556C1254.18 426.556 1255.33 425.776 1255.33 424.809C1255.33 423.842 1254.18 423.062 1252.76 423.062C1251.34 423.062 1250.2 423.842 1250.2 424.809Z" fill="#85A5F8"/>
</g>
<g style="mix-blend-mode:color-dodge">
<path d="M487.843 251.586C487.843 252.709 489.173 253.582 490.777 253.582C492.382 253.582 493.712 252.678 493.712 251.586C493.712 250.494 492.382 249.59 490.777 249.59C489.173 249.59 487.843 250.494 487.843 251.586Z" fill="#85A5F8"/>
</g>
<g style="mix-blend-mode:color-dodge">
<path d="M429.125 343.652C429.125 344.775 430.455 345.648 432.06 345.648C433.664 345.648 434.994 344.744 434.994 343.652C434.994 342.561 433.664 341.656 432.06 341.656C430.455 341.656 429.125 342.561 429.125 343.652Z" fill="#85A5F8"/>
</g>
<g style="mix-blend-mode:color-dodge">
<path d="M493.678 170.053C493.678 171.176 495.007 172.049 496.612 172.049C498.217 172.049 499.546 171.144 499.546 170.053C499.546 168.961 498.217 168.057 496.612 168.057C495.007 168.057 493.678 168.961 493.678 170.053Z" fill="#85A5F8"/>
</g>
<g style="mix-blend-mode:color-dodge">
<path d="M380.392 297.969C380.392 298.437 380.942 298.842 381.676 298.842C382.409 298.842 382.959 298.468 382.959 297.969C382.959 297.47 382.409 297.096 381.676 297.096C380.942 297.096 380.392 297.47 380.392 297.969Z" fill="#85A5F8"/>
</g>
<g style="mix-blend-mode:color-dodge">
<path d="M249.412 425.537C249.412 426.005 249.962 426.411 250.695 426.411C251.429 426.411 251.979 426.036 251.979 425.537C251.979 425.038 251.429 424.664 250.695 424.664C249.962 424.664 249.412 425.038 249.412 425.537Z" fill="#85A5F8"/>
</g>
<g style="mix-blend-mode:color-dodge">
<path d="M269.804 296.367C269.804 296.835 270.354 297.241 271.087 297.241C271.821 297.241 272.371 296.866 272.371 296.367C272.371 295.868 271.821 295.494 271.087 295.494C270.354 295.494 269.804 295.868 269.804 296.367Z" fill="#85A5F8"/>
</g>
<g style="mix-blend-mode:color-dodge">
<path d="M1217.73 286.203C1216.08 286.203 1214.8 287.108 1214.8 288.199C1214.8 289.291 1216.13 290.195 1217.73 290.195C1219.34 290.195 1220.67 289.291 1220.67 288.199C1220.67 287.108 1219.34 286.203 1217.73 286.203Z" fill="#85A5F8"/>
</g>
<g style="mix-blend-mode:color-dodge">
<path d="M1139.06 338.756C1137.41 338.756 1136.13 339.66 1136.13 340.752C1136.13 341.844 1137.46 342.748 1139.06 342.748C1140.67 342.748 1142 341.844 1142 340.752C1142 339.66 1140.67 338.756 1139.06 338.756Z" fill="#85A5F8"/>
</g>
<g style="mix-blend-mode:color-dodge">
<path d="M1305.53 177.944C1305.53 179.847 1307.82 181.406 1310.62 181.406C1313.42 181.406 1315.71 179.847 1315.71 177.944C1315.71 176.042 1313.42 174.482 1310.62 174.482C1307.82 174.482 1305.53 176.042 1305.53 177.944Z" fill="#85A5F8"/>
</g>
<g style="mix-blend-mode:color-dodge">
<path d="M1432.99 286.452C1432.99 287.419 1434.13 288.198 1435.55 288.198C1436.97 288.198 1438.12 287.419 1438.12 286.452C1438.12 285.485 1436.97 284.705 1435.55 284.705C1434.13 284.705 1432.99 285.485 1432.99 286.452Z" fill="#85A5F8"/>
</g>
<g style="mix-blend-mode:color-dodge">
<path d="M1345.56 158.139C1343.91 158.139 1342.62 159.043 1342.62 160.135C1342.62 161.226 1343.95 162.131 1345.56 162.131C1347.16 162.131 1348.49 161.226 1348.49 160.135C1348.49 159.043 1347.16 158.139 1345.56 158.139Z" fill="#85A5F8"/>
</g>
<g style="mix-blend-mode:color-dodge">
<path d="M1285.18 148.844C1283.52 148.844 1282.24 149.748 1282.24 150.84C1282.24 151.931 1283.57 152.836 1285.18 152.836C1286.78 152.836 1288.11 151.931 1288.11 150.84C1288.11 149.748 1286.78 148.844 1285.18 148.844Z" fill="#85A5F8"/>
</g>
<g style="mix-blend-mode:color-dodge">
<path d="M1037.05 351.201C1036.37 351.201 1035.77 351.575 1035.77 352.074C1035.77 352.574 1036.32 352.948 1037.05 352.948C1037.79 352.948 1038.34 352.574 1038.34 352.074C1038.34 351.575 1037.79 351.201 1037.05 351.201Z" fill="#85A5F8"/>
</g>
<g style="mix-blend-mode:color-dodge">
<path d="M1070.98 341.906C1070.29 341.906 1069.7 342.281 1069.7 342.78C1069.7 343.279 1070.25 343.653 1070.98 343.653C1071.71 343.653 1072.26 343.279 1072.26 342.78C1072.26 342.281 1071.71 341.906 1070.98 341.906Z" fill="#85A5F8"/>
</g>
<g style="mix-blend-mode:color-dodge">
<path d="M1062.59 232.807C1061.9 232.807 1061.31 233.181 1061.31 233.68C1061.31 234.179 1061.86 234.553 1062.59 234.553C1063.32 234.553 1063.87 234.179 1063.87 233.68C1063.87 233.181 1063.32 232.807 1062.59 232.807Z" fill="#85A5F8"/>
</g>
<g style="mix-blend-mode:color-dodge">
<path d="M975.435 88.3379C975.435 89.4607 976.765 90.334 978.369 90.334C979.974 90.334 981.303 89.4295 981.303 88.3379C981.303 87.2463 979.974 86.3418 978.369 86.3418C976.765 86.3418 975.435 87.2463 975.435 88.3379Z" fill="#85A5F8"/>
</g>
<g style="mix-blend-mode:color-dodge">
<path d="M993.728 157.733C993.728 158.201 994.278 158.606 995.012 158.606C995.745 158.606 996.295 158.232 996.295 157.733C996.295 157.234 995.745 156.859 995.012 156.859C994.278 156.859 993.728 157.234 993.728 157.733Z" fill="#85A5F8"/>
</g>
<g style="mix-blend-mode:color-dodge">
<path d="M980.065 134.653C980.065 135.12 980.616 135.526 981.349 135.526C982.083 135.526 982.633 135.152 982.633 134.653C982.633 134.154 982.083 133.779 981.349 133.779C980.616 133.779 980.065 134.154 980.065 134.653Z" fill="#85A5F8"/>
</g>
<g style="mix-blend-mode:color-dodge">
<path d="M945.084 124.922C945.084 125.39 945.635 125.795 946.368 125.795C947.102 125.795 947.652 125.421 947.652 124.922C947.652 124.423 947.102 124.049 946.368 124.049C945.635 124.049 945.084 124.423 945.084 124.922Z" fill="#85A5F8"/>
</g>
<g style="mix-blend-mode:color-dodge">
<path d="M757.434 93.4825C759.054 93.4825 760.368 92.5888 760.368 91.4864C760.368 90.3839 759.054 89.4902 757.434 89.4902C755.813 89.4902 754.5 90.3839 754.5 91.4864C754.5 92.5888 755.813 93.4825 757.434 93.4825Z" fill="#85A5F8"/>
</g>
<g style="mix-blend-mode:color-dodge">
<path d="M796.954 33.0704C798.574 33.0704 799.888 32.1767 799.888 31.0742C799.888 29.9718 798.574 29.0781 796.954 29.0781C795.333 29.0781 794.02 29.9718 794.02 31.0742C794.02 32.1767 795.333 33.0704 796.954 33.0704Z" fill="#85A5F8"/>
</g>
<g style="mix-blend-mode:color-dodge">
<path d="M1318.83 353.634C1318.83 354.289 1319.61 354.82 1320.57 354.82C1321.53 354.82 1322.31 354.289 1322.31 353.634C1322.31 352.979 1321.53 352.449 1320.57 352.449C1319.61 352.449 1318.83 352.979 1318.83 353.634Z" fill="#85A5F8"/>
</g>
</g>
<defs>
<radialGradient id="paint0_radial_1940_753" cx="0" cy="0" r="1" gradientUnits="userSpaceOnUse" gradientTransform="translate(720 498) rotate(-90) scale(440.797 1020.25)">
<stop offset="0.181452" stop-color="#0C52BA"/>
<stop offset="0.558891" stop-color="#1D44A8"/>
<stop offset="0.721944" stop-color="#202F65"/>
<stop offset="1" stop-color="#101625"/>
</radialGradient>
<clipPath id="clip0_1940_753">
<rect width="1440" height="498" fill="white"/>
</clipPath>
</defs>
</svg>
