<svg width="1440" height="845" viewBox="0 0 1440 845" fill="none" xmlns="http://www.w3.org/2000/svg">
<g style="mix-blend-mode:screen">
<path d="M924.977 791.509C924.977 794.022 927.022 796.067 929.536 796.067C932.05 796.067 934.095 794.022 934.095 791.509C934.095 788.996 932.05 786.951 929.536 786.951C927.022 786.951 924.977 788.996 924.977 791.509Z" fill="#6579AD"/>
</g>
<g style="mix-blend-mode:color-dodge">
<path d="M927.256 791.509C927.256 792.795 928.309 793.788 929.536 793.788C930.764 793.788 931.816 792.736 931.816 791.509C931.816 790.282 930.764 789.23 929.536 789.23C928.309 789.23 927.256 790.282 927.256 791.509Z" fill="#6579AD"/>
</g>
<g style="mix-blend-mode:screen">
<path d="M1410.38 149.154C1410.38 154.238 1414.48 158.328 1419.56 158.328C1424.65 158.328 1428.74 154.238 1428.74 149.154C1428.74 144.071 1424.65 139.98 1419.56 139.98C1414.48 139.98 1410.38 144.071 1410.38 149.154Z" fill="#6579AD"/>
</g>
<g style="mix-blend-mode:color-dodge">
<path d="M1414.94 149.154C1414.94 151.667 1416.99 153.712 1419.5 153.712C1422.02 153.712 1424.06 151.667 1424.06 149.154C1424.06 146.642 1422.02 144.597 1419.5 144.597C1416.99 144.597 1414.94 146.642 1414.94 149.154Z" fill="#6579AD"/>
</g>
<g style="mix-blend-mode:screen">
<path d="M1186.39 79.8537C1186.39 84.9373 1190.48 89.0277 1195.56 89.0277C1200.65 89.0277 1204.74 84.9373 1204.74 79.8537C1204.74 74.77 1200.65 70.6797 1195.56 70.6797C1190.48 70.6797 1186.39 74.77 1186.39 79.8537Z" fill="#6579AD"/>
</g>
<g style="mix-blend-mode:color-dodge">
<path d="M1190.95 79.8537C1190.95 82.3663 1192.99 84.4115 1195.5 84.4115C1198.02 84.4115 1200.06 82.3663 1200.06 79.8537C1200.06 77.3411 1198.02 75.2959 1195.5 75.2959C1192.99 75.2959 1190.95 77.3411 1190.95 79.8537Z" fill="#6579AD"/>
</g>
<g style="mix-blend-mode:screen">
<path d="M787.199 444.241C789.556 444.241 791.466 442.331 791.466 439.976C791.466 437.62 789.556 435.71 787.199 435.71C784.843 435.71 782.932 437.62 782.932 439.976C782.932 442.331 784.843 444.241 787.199 444.241Z" fill="#6579AD"/>
</g>
<g style="mix-blend-mode:color-dodge">
<path d="M785.095 439.976C785.095 441.144 786.03 442.138 787.258 442.138C788.485 442.138 789.42 441.203 789.42 439.976C789.42 438.748 788.485 437.813 787.258 437.813C786.03 437.813 785.095 438.748 785.095 439.976Z" fill="#6579AD"/>
</g>
<g style="mix-blend-mode:screen">
<path d="M339.554 189.883C340.716 189.883 341.658 188.941 341.658 187.779C341.658 186.618 340.716 185.676 339.554 185.676C338.392 185.676 337.45 186.618 337.45 187.779C337.45 188.941 338.392 189.883 339.554 189.883Z" fill="#6579AD"/>
</g>
<g style="mix-blend-mode:color-dodge">
<path d="M338.502 187.779C338.502 188.364 338.97 188.831 339.554 188.831C340.139 188.831 340.606 188.364 340.606 187.779C340.606 187.195 340.139 186.728 339.554 186.728C338.97 186.728 338.502 187.195 338.502 187.779Z" fill="#6579AD"/>
</g>
<g style="mix-blend-mode:screen">
<path d="M66.4759 378.564C71.157 378.564 74.9518 374.77 74.9518 370.091C74.9518 365.412 71.157 361.618 66.4759 361.618C61.7948 361.618 58 365.412 58 370.091C58 374.77 61.7948 378.564 66.4759 378.564Z" fill="#6579AD"/>
</g>
<g style="mix-blend-mode:color-dodge">
<path d="M62.2085 370.091C62.2085 372.428 64.0791 374.356 66.4757 374.356C68.8723 374.356 70.6844 372.487 70.6844 370.091C70.6844 367.695 68.8139 365.825 66.4757 365.825C64.1375 365.825 62.2085 367.695 62.2085 370.091Z" fill="#6579AD"/>
</g>
<g style="mix-blend-mode:color-dodge">
<path d="M534.091 841.177C534.091 842.93 535.494 844.332 537.247 844.332C539.001 844.332 540.404 842.93 540.404 841.177C540.404 839.424 539.001 838.021 537.247 838.021C535.494 838.021 534.091 839.424 534.091 841.177Z" fill="#6579AD"/>
</g>
<g style="mix-blend-mode:color-dodge">
<path d="M585.999 563.211C585.999 564.847 587.285 566.133 588.921 566.133C590.558 566.133 591.844 564.847 591.844 563.211C591.844 561.575 590.558 560.29 588.921 560.29C587.285 560.29 585.999 561.575 585.999 563.211Z" fill="#6579AD"/>
</g>
<g style="mix-blend-mode:color-dodge">
<path d="M290.394 4.35788C290.394 6.46147 292.089 8.09759 294.135 8.09759C296.181 8.09759 297.876 6.40303 297.876 4.35788C297.876 2.31272 296.181 0.618164 294.135 0.618164C292.089 0.618164 290.394 2.31272 290.394 4.35788Z" fill="#6579AD"/>
</g>
<g style="mix-blend-mode:color-dodge">
<path d="M1435.69 802.553C1435.69 806.118 1438.62 809.04 1442.18 809.04C1445.75 809.04 1448.67 806.118 1448.67 802.553C1448.67 798.989 1445.75 796.067 1442.18 796.067C1438.62 796.067 1435.69 798.989 1435.69 802.553Z" fill="#6579AD"/>
</g>
<g style="mix-blend-mode:color-dodge">
<path d="M812.393 699.185C812.393 700.997 813.855 702.458 815.667 702.458C817.479 702.458 818.94 700.997 818.94 699.185C818.94 697.374 817.479 695.913 815.667 695.913C813.855 695.913 812.393 697.374 812.393 699.185Z" fill="#6579AD"/>
</g>
<g style="mix-blend-mode:color-dodge">
<path d="M1341 787.89C1341 789.702 1342.46 791.163 1344.27 791.163C1346.09 791.163 1347.55 789.702 1347.55 787.89C1347.55 786.079 1346.09 784.618 1344.27 784.618C1342.46 784.618 1341 786.079 1341 787.89Z" fill="#6579AD"/>
</g>
<g style="mix-blend-mode:color-dodge">
<path d="M369 463.358C369 465.461 370.695 467.098 372.741 467.098C374.787 467.098 376.482 465.403 376.482 463.358C376.482 461.313 374.787 459.618 372.741 459.618C370.695 459.618 369 461.313 369 463.358Z" fill="#6579AD"/>
</g>
<g style="mix-blend-mode:color-dodge">
<path d="M294.135 635.843C294.135 637.947 295.83 639.583 297.876 639.583C299.922 639.583 301.617 637.888 301.617 635.843C301.617 633.798 299.922 632.104 297.876 632.104C295.83 632.104 294.135 633.798 294.135 635.843Z" fill="#6579AD"/>
</g>
<g style="mix-blend-mode:color-dodge">
<path d="M330 373.358C330 375.461 331.695 377.098 333.741 377.098C335.787 377.098 337.482 375.403 337.482 373.358C337.482 371.313 335.787 369.618 333.741 369.618C331.695 369.618 330 371.313 330 373.358Z" fill="#6579AD"/>
</g>
<g style="mix-blend-mode:color-dodge">
<path d="M232 550.254C232 551.131 232.701 551.89 233.637 551.89C234.572 551.89 235.273 551.189 235.273 550.254C235.273 549.319 234.572 548.618 233.637 548.618C232.701 548.618 232 549.319 232 550.254Z" fill="#6579AD"/>
</g>
<g style="mix-blend-mode:color-dodge">
<path d="M65 789.254C65 790.131 65.7014 790.89 66.6367 790.89C67.572 790.89 68.2734 790.189 68.2734 789.254C68.2734 788.319 67.572 787.618 66.6367 787.618C65.7014 787.618 65 788.319 65 789.254Z" fill="#6579AD"/>
</g>
<g style="mix-blend-mode:color-dodge">
<path d="M91 547.254C91 548.131 91.7014 548.89 92.6367 548.89C93.572 548.89 94.2735 548.189 94.2735 547.254C94.2735 546.319 93.572 545.618 92.6367 545.618C91.7014 545.618 91 546.319 91 547.254Z" fill="#6579AD"/>
</g>
<g style="mix-blend-mode:color-dodge">
<path d="M1299.61 528.21C1297.51 528.21 1295.87 529.905 1295.87 531.95C1295.87 533.995 1297.57 535.689 1299.61 535.689C1301.66 535.689 1303.35 533.995 1303.35 531.95C1303.35 529.905 1301.66 528.21 1299.61 528.21Z" fill="#6579AD"/>
</g>
<g style="mix-blend-mode:color-dodge">
<path d="M1199.3 626.67C1197.2 626.67 1195.56 628.364 1195.56 630.41C1195.56 632.455 1197.26 634.149 1199.3 634.149C1201.35 634.149 1203.05 632.455 1203.05 630.41C1203.05 628.364 1201.35 626.67 1199.3 626.67Z" fill="#6579AD"/>
</g>
<g style="mix-blend-mode:color-dodge">
<path d="M1411.55 325.389C1411.55 328.954 1414.48 331.875 1418.04 331.875C1421.61 331.875 1424.53 328.954 1424.53 325.389C1424.53 321.825 1421.61 318.903 1418.04 318.903C1414.48 318.903 1411.55 321.825 1411.55 325.389Z" fill="#6579AD"/>
</g>
<g style="mix-blend-mode:color-dodge">
<path d="M1385.6 270.871C1383.49 270.871 1381.86 272.566 1381.86 274.611C1381.86 276.656 1383.55 278.351 1385.6 278.351C1387.64 278.351 1389.34 276.656 1389.34 274.611C1389.34 272.566 1387.64 270.871 1385.6 270.871Z" fill="#6579AD"/>
</g>
<g style="mix-blend-mode:color-dodge">
<path d="M1069.24 649.984C1068.37 649.984 1067.61 650.686 1067.61 651.621C1067.61 652.555 1068.31 653.257 1069.24 653.257C1070.18 653.257 1070.88 652.555 1070.88 651.621C1070.88 650.686 1070.18 649.984 1069.24 649.984Z" fill="#6579AD"/>
</g>
<g style="mix-blend-mode:color-dodge">
<path d="M1112.5 632.571C1111.62 632.571 1110.86 633.272 1110.86 634.207C1110.86 635.142 1111.56 635.844 1112.5 635.844C1113.43 635.844 1114.14 635.142 1114.14 634.207C1114.14 633.272 1113.43 632.571 1112.5 632.571Z" fill="#6579AD"/>
</g>
<g style="mix-blend-mode:color-dodge">
<path d="M1101.8 428.173C1100.92 428.173 1100.17 428.874 1100.17 429.809C1100.17 430.744 1100.87 431.445 1101.8 431.445C1102.74 431.445 1103.44 430.744 1103.44 429.809C1103.44 428.874 1102.74 428.173 1101.8 428.173Z" fill="#6579AD"/>
</g>
<g style="mix-blend-mode:color-dodge">
<path d="M990.68 157.511C990.68 159.615 992.375 161.251 994.421 161.251C996.467 161.251 998.162 159.556 998.162 157.511C998.162 155.466 996.467 153.771 994.421 153.771C992.375 153.771 990.68 155.466 990.68 157.511Z" fill="#6579AD"/>
</g>
<g style="mix-blend-mode:color-dodge">
<path d="M1014 287.524C1014 288.4 1014.7 289.16 1015.64 289.16C1016.57 289.16 1017.28 288.459 1017.28 287.524C1017.28 286.589 1016.57 285.888 1015.64 285.888C1014.7 285.888 1014 286.589 1014 287.524Z" fill="#6579AD"/>
</g>
<g style="mix-blend-mode:color-dodge">
<path d="M996.583 244.284C996.583 245.16 997.285 245.92 998.22 245.92C999.155 245.92 999.857 245.219 999.857 244.284C999.857 243.349 999.155 242.647 998.22 242.647C997.285 242.647 996.583 243.349 996.583 244.284Z" fill="#6579AD"/>
</g>
<g style="mix-blend-mode:color-dodge">
<path d="M951.983 226.053C951.983 226.93 952.684 227.689 953.62 227.689C954.555 227.689 955.256 226.988 955.256 226.053C955.256 225.118 954.555 224.417 953.62 224.417C952.684 224.417 951.983 225.118 951.983 226.053Z" fill="#6579AD"/>
</g>
<g style="mix-blend-mode:color-dodge">
<path d="M712.728 167.152C714.795 167.152 716.469 165.478 716.469 163.413C716.469 161.347 714.795 159.673 712.728 159.673C710.662 159.673 708.987 161.347 708.987 163.413C708.987 165.478 710.662 167.152 712.728 167.152Z" fill="#6579AD"/>
</g>
<g style="mix-blend-mode:color-dodge">
<path d="M763.116 53.9677C765.182 53.9677 766.857 52.2934 766.857 50.228C766.857 48.1626 765.182 46.4883 763.116 46.4883C761.05 46.4883 759.375 48.1626 759.375 50.228C759.375 52.2934 761.05 53.9677 763.116 53.9677Z" fill="#6579AD"/>
</g>
<g style="mix-blend-mode:color-dodge">
<path d="M1428.5 654.542C1428.5 655.769 1429.5 656.762 1430.73 656.762C1431.95 656.762 1432.95 655.769 1432.95 654.542C1432.95 653.315 1431.95 652.321 1430.73 652.321C1429.5 652.321 1428.5 653.315 1428.5 654.542Z" fill="#6579AD"/>
</g>
</svg>
