<svg width="108" height="108" viewBox="0 0 108 108" fill="none" xmlns="http://www.w3.org/2000/svg">
<g id="Artboard 1 copy 1">
<g clip-path="url(#clip0_1940_367)">
<g id="Group">
<g id="Layer 1">
<path id="Vector" d="M107.667 0H-0.333008V108H107.667V0Z" fill="url(#paint0_radial_1940_367)"/>
<g id="Group_2" opacity="0.31">
<path id="Vector_2" d="M99.9701 74.2301C99.5201 74.2301 99.1501 74.9701 99.1501 75.8801C99.1501 74.9701 98.7801 74.2301 98.3301 74.2301C98.7801 74.2301 99.1501 73.4901 99.1501 72.5801C99.1501 73.4901 99.5201 74.2301 99.9701 74.2301Z" fill="#7DAAEA"/>
<path id="Vector_3" d="M79.2601 7.56992C78.8101 7.56992 78.4401 8.30992 78.4401 9.21992C78.4401 8.30992 78.0701 7.56992 77.6201 7.56992C78.0701 7.56992 78.4401 6.82992 78.4401 5.91992C78.4401 6.82992 78.8101 7.56992 79.2601 7.56992Z" fill="#7DAAEA"/>
<path id="Vector_4" d="M59.64 35.5309C59.19 35.5309 58.82 36.2709 58.82 37.1809C58.82 36.2709 58.45 35.5309 58 35.5309C58.45 35.5309 58.82 34.7909 58.82 33.8809C58.82 34.7909 59.19 35.5309 59.64 35.5309Z" fill="#D7E7FF"/>
<path id="Vector_5" d="M9.80016 88.4898C9.35016 88.4898 8.98016 89.2298 8.98016 90.1398C8.98016 89.2298 8.61016 88.4898 8.16016 88.4898C8.61016 88.4898 8.98016 87.7498 8.98016 86.8398C8.98016 87.7498 9.35016 88.4898 9.80016 88.4898Z" fill="#D7E7FF"/>
<path id="Vector_6" d="M62.0605 19.1503C62.2207 19.1503 62.3505 19.0205 62.3505 18.8603C62.3505 18.7002 62.2207 18.5703 62.0605 18.5703C61.9003 18.5703 61.7705 18.7002 61.7705 18.8603C61.7705 19.0205 61.9003 19.1503 62.0605 19.1503Z" fill="#7DAAEA"/>
<path id="Vector_7" d="M6.4902 9.11906C6.65036 9.11906 6.7802 8.98923 6.7802 8.82906C6.7802 8.6689 6.65036 8.53906 6.4902 8.53906C6.33003 8.53906 6.2002 8.6689 6.2002 8.82906C6.2002 8.98923 6.33003 9.11906 6.4902 9.11906Z" fill="#D7E7FF"/>
<path id="Vector_8" d="M99.9707 46.4902C100.131 46.4902 100.261 46.3603 100.261 46.2002C100.261 46.04 100.131 45.9102 99.9707 45.9102C99.8105 45.9102 99.6807 46.04 99.6807 46.2002C99.6807 46.3603 99.8105 46.4902 99.9707 46.4902Z" fill="#D7E7FF"/>
<path id="Vector_9" d="M30.6298 8.83C30.79 8.83 30.9198 8.70016 30.9198 8.54C30.9198 8.37984 30.79 8.25 30.6298 8.25C30.4697 8.25 30.3398 8.37984 30.3398 8.54C30.3398 8.70016 30.4697 8.83 30.6298 8.83Z" fill="#D7E7FF"/>
<path id="Vector_10" d="M35.6406 29.4198C35.8007 29.4198 35.9306 29.29 35.9306 29.1298C35.9306 28.9697 35.8007 28.8398 35.6406 28.8398C35.4804 28.8398 35.3506 28.9697 35.3506 29.1298C35.3506 29.29 35.4804 29.4198 35.6406 29.4198Z" fill="#D7E7FF"/>
<path id="Vector_11" d="M8.97066 40.6503C9.13083 40.6503 9.26066 40.5205 9.26066 40.3603C9.26066 40.2002 9.13083 40.0703 8.97066 40.0703C8.8105 40.0703 8.68066 40.2002 8.68066 40.3603C8.68066 40.5205 8.8105 40.6503 8.97066 40.6503Z" fill="#7DAAEA"/>
<path id="Vector_12" d="M6.4902 65.9198C6.65036 65.9198 6.7802 65.79 6.7802 65.6298C6.7802 65.4697 6.65036 65.3398 6.4902 65.3398C6.33003 65.3398 6.2002 65.4697 6.2002 65.6298C6.2002 65.79 6.33003 65.9198 6.4902 65.9198Z" fill="#7DAAEA"/>
<path id="Vector_13" d="M95.2207 93.6308C95.3808 93.6308 95.5107 93.5009 95.5107 93.3408C95.5107 93.1806 95.3808 93.0508 95.2207 93.0508C95.0605 93.0508 94.9307 93.1806 94.9307 93.3408C94.9307 93.5009 95.0605 93.6308 95.2207 93.6308Z" fill="#D7E7FF"/>
<path id="Vector_14" d="M19.7201 20.4605C19.2701 20.4605 18.9001 21.2005 18.9001 22.1105C18.9001 21.2005 18.5301 20.4605 18.0801 20.4605C18.5301 20.4605 18.9001 19.7205 18.9001 18.8105C18.9001 19.7205 19.2701 20.4605 19.7201 20.4605Z" fill="#D7E7FF"/>
</g>
<path id="Vector_15" d="M42.2404 71.4494H95.5104V46.6294H18.9004V22.1094H73.2504" stroke="white" stroke-width="2" stroke-miterlimit="10" stroke-linejoin="round" stroke-dasharray="5 5"/>
<g id="Group_3">
<path id="Vector_16" d="M6.49044 88.7812C6.49044 88.7812 -2.16956 93.5713 -2.98956 98.7213C-3.80956 103.871 2.44044 124.101 3.52044 123.561C4.60044 123.021 12.3404 107.141 12.3404 107.141L6.48044 88.7812H6.49044Z" fill="#FB7200"/>
<path id="Vector_17" d="M42.7309 88.7812C42.7309 88.7812 51.3909 93.5713 52.2109 98.7213C53.0309 103.871 46.7809 124.101 45.7009 123.561C44.6209 123.021 36.8809 107.141 36.8809 107.141L42.7409 88.7812H42.7309Z" fill="#FB7200"/>
<path id="Vector_18" d="M44.5807 80.2105C43.0607 93.7405 38.7807 107.781 38.7807 107.781H11.2207C11.2207 107.781 4.5307 89.3005 5.3207 69.2405C5.4307 66.2905 5.9607 63.5405 6.7807 61.0005C11.5107 46.2805 25.9507 38.5605 25.9507 38.5605C25.9507 38.5605 38.8807 47.9405 43.4607 60.9805C44.2307 63.1705 44.7607 65.4605 44.9607 67.8205C45.2807 71.5805 45.0707 75.8705 44.5807 80.2105Z" fill="white"/>
<path id="Vector_19" d="M43.4603 60.9805V61.0005C43.4603 61.0005 37.2403 63.9705 25.1703 63.9805C13.2303 64.0005 6.78027 61.0005 6.78027 61.0005C9.69027 51.9405 16.2703 45.5405 20.9103 41.9505C20.9103 41.9505 20.9203 41.9505 20.9303 41.9405C23.8203 39.7005 25.9503 38.5605 25.9503 38.5605C25.9503 38.5605 36.9403 46.5305 42.2403 58.0005H42.2503C42.7003 58.9805 43.1003 59.9705 43.4603 60.9805Z" fill="#FB7200"/>
<g id="Vector_20" style="mix-blend-mode:color-dodge" opacity="0.68">
<path d="M42.2407 58.0005C41.8107 57.5205 35.0507 48.6605 29.3607 45.2405C25.4307 42.8805 21.2307 41.8505 20.9307 41.9405C23.8207 39.7005 25.9507 38.5605 25.9507 38.5605C25.9507 38.5605 36.9407 46.5305 42.2407 58.0005Z" fill="#26375A"/>
</g>
<path id="Vector_21" d="M25.1209 92.4996C31.3065 92.4996 36.3209 87.4852 36.3209 81.2996C36.3209 75.114 31.3065 70.0996 25.1209 70.0996C18.9353 70.0996 13.9209 75.114 13.9209 81.2996C13.9209 87.4852 18.9353 92.4996 25.1209 92.4996Z" fill="#BED1FF"/>
<path id="Vector_22" d="M25.1805 90.9098C31.3661 90.9098 36.3805 85.8954 36.3805 79.7098C36.3805 73.5242 31.3661 68.5098 25.1805 68.5098C18.9949 68.5098 13.9805 73.5242 13.9805 79.7098C13.9805 85.8954 18.9949 90.9098 25.1805 90.9098Z" fill="#0075FF"/>
<path id="Vector_23" d="M25.1805 87.9098C29.7092 87.9098 33.3805 84.2385 33.3805 79.7098C33.3805 75.181 29.7092 71.5098 25.1805 71.5098C20.6517 71.5098 16.9805 75.181 16.9805 79.7098C16.9805 84.2385 20.6517 87.9098 25.1805 87.9098Z" fill="url(#paint1_radial_1940_367)"/>
<path id="Vector_24" style="mix-blend-mode:color-dodge" opacity="0.8" d="M33.3905 79.71C33.3905 81.86 32.5605 83.81 31.2005 85.27C29.7005 86.9 27.5605 87.91 25.1805 87.91C20.6505 87.91 16.9805 84.24 16.9805 79.71C16.9805 78.09 17.4505 76.59 18.2605 75.32C19.7105 73.02 22.2705 71.5 25.1805 71.5C29.7105 71.5 33.3905 75.18 33.3905 79.71Z" fill="url(#paint2_radial_1940_367)"/>
<path id="Vector_25" d="M44.5806 80.2109C43.0606 93.7409 38.7806 107.781 38.7806 107.781H23.6006L44.5806 80.2109Z" fill="#BED1FF"/>
<path id="Vector_26" d="M29.0601 72.4805L17.0801 80.9905C17.0801 80.9905 17.0601 82.6505 18.2601 84.1205L29.7501 72.9005L29.0601 72.4805Z" fill="white"/>
<path id="Vector_27" d="M30.3907 73.3711L20.2607 86.2811C20.2607 86.2811 22.0007 87.7911 23.0307 87.7011L30.9307 73.8711L30.3807 73.3811L30.3907 73.3711Z" fill="white"/>
<g id="Vector_28" style="mix-blend-mode:overlay">
<path d="M31.2007 85.27C31.3407 84.84 33.2007 78.93 28.9207 75.32C24.4807 71.56 18.2607 75.32 18.2607 75.32C19.7107 73.02 22.2707 71.5 25.1807 71.5C29.7107 71.5 33.3907 75.18 33.3907 79.71C33.3907 81.86 32.5607 83.81 31.2007 85.27Z" fill="white"/>
</g>
</g>
<g id="Group_4">
<path id="Vector_29" d="M82.3801 25.2209C87.2101 26.5609 92.2801 27.5409 96.5001 27.8609C93.9301 31.3709 89.5901 33.6809 84.6601 33.6809C76.9101 33.6809 70.6101 27.9909 70.3701 20.8809C73.9001 22.5209 78.1501 24.0409 82.3801 25.2209Z" fill="url(#paint3_linear_1940_367)"/>
<path id="Vector_30" d="M98.9506 20.4602C98.9506 22.7502 98.3206 24.9002 97.2106 26.7802C93.3606 26.5402 88.3506 25.6902 82.6906 24.1202C77.8206 22.7602 73.6406 21.1902 70.3906 19.6502C70.5706 16.9102 71.6506 14.3902 73.3606 12.3602C73.6606 12.0002 73.9706 11.6602 74.3106 11.3402C76.9106 8.81023 80.5806 7.24023 84.6606 7.24023C91.8706 7.24023 97.8406 12.1802 98.8106 18.6102C98.8806 19.0402 98.9206 19.4802 98.9306 19.9302C98.9506 20.1102 98.9506 20.2802 98.9506 20.4602Z" fill="url(#paint4_linear_1940_367)"/>
<g id="Group_5">
<path id="Vector_31" d="M106.121 25.6194C105.891 26.4494 105.121 27.0394 103.951 27.4194C102.771 27.8094 101.191 27.9794 99.341 27.9794C98.451 27.9794 97.501 27.9394 96.501 27.8594C96.761 27.5094 96.991 27.1494 97.211 26.7794C101.781 27.0694 104.691 26.5094 105.021 25.3094C105.361 24.0894 103.101 22.0694 98.931 19.9294C98.921 19.4794 98.881 19.0394 98.811 18.6094C103.571 20.9694 106.701 23.5194 106.121 25.6194Z" fill="#436ECB"/>
<path id="Vector_32" d="M97.2104 26.7804C96.9904 27.1504 96.7604 27.5104 96.5004 27.8604C92.2804 27.5404 87.2103 26.5604 82.3803 25.2204C78.1503 24.0404 73.9004 22.5204 70.3704 20.8804C70.3604 20.7404 70.3604 20.6004 70.3604 20.4604C70.3604 20.1904 70.3704 19.9204 70.3904 19.6504C73.6404 21.1904 77.8204 22.7604 82.6904 24.1204C88.3504 25.6904 93.3603 26.5404 97.2104 26.7804Z" fill="#436ECB"/>
<path id="Vector_33" d="M62.9506 13.5996C62.5806 14.9396 65.3606 17.2596 70.3906 19.6496C70.3706 19.9196 70.3606 20.1896 70.3606 20.4596C70.3606 20.5996 70.3606 20.7396 70.3706 20.8796C64.9506 18.3596 61.2206 15.5596 61.8506 13.2896C62.4506 11.1496 66.4906 10.8296 69.7706 10.9496C71.1706 10.9996 72.6906 11.1296 74.3106 11.3396C73.9706 11.6596 73.6606 11.9996 73.3606 12.3596C72.0806 12.2196 70.8706 12.1296 69.7306 12.0896C69.3406 12.0696 68.9706 12.0696 68.6206 12.0696C64.7806 12.0696 63.1606 12.8296 62.9506 13.5996Z" fill="#436ECB"/>
</g>
</g>
</g>
</g>
</g>
</g>
<defs>
<radialGradient id="paint0_radial_1940_367" cx="0" cy="0" r="1" gradientUnits="userSpaceOnUse" gradientTransform="translate(52.627 106.4) scale(107.95)">
<stop stop-color="#2F7FDD"/>
<stop offset="1" stop-color="#041E64"/>
</radialGradient>
<radialGradient id="paint1_radial_1940_367" cx="0" cy="0" r="1" gradientUnits="userSpaceOnUse" gradientTransform="translate(33.8405 73.3398) scale(19.29)">
<stop stop-color="#0E7DC9"/>
<stop offset="0.05" stop-color="#0E74BE"/>
<stop offset="0.23" stop-color="#10599C"/>
<stop offset="0.41" stop-color="#114382"/>
<stop offset="0.6" stop-color="#12346F"/>
<stop offset="0.79" stop-color="#122B63"/>
<stop offset="1" stop-color="#132860"/>
</radialGradient>
<radialGradient id="paint2_radial_1940_367" cx="0" cy="0" r="1" gradientUnits="userSpaceOnUse" gradientTransform="translate(25.1805 79.71) scale(8.2 8.2)">
<stop stop-color="#0E7DC9"/>
<stop offset="0.05" stop-color="#0E74BE"/>
<stop offset="0.23" stop-color="#10599C"/>
<stop offset="0.41" stop-color="#114382"/>
<stop offset="0.6" stop-color="#12346F"/>
<stop offset="0.79" stop-color="#122B63"/>
<stop offset="1" stop-color="#132860"/>
</radialGradient>
<linearGradient id="paint3_linear_1940_367" x1="80.3801" y1="31.5709" x2="83.9301" y2="23.2109" gradientUnits="userSpaceOnUse">
<stop stop-color="#2C6BC6"/>
<stop offset="1" stop-color="#3656D8"/>
</linearGradient>
<linearGradient id="paint4_linear_1940_367" x1="83.7006" y1="22.7002" x2="89.4806" y2="9.05024" gradientUnits="userSpaceOnUse">
<stop stop-color="#093F8E"/>
<stop offset="1" stop-color="#2547ED"/>
</linearGradient>
<clipPath id="clip0_1940_367">
<rect width="108" height="108" rx="16" fill="white"/>
</clipPath>
</defs>
</svg>
