<svg width="109" height="108" viewBox="0 0 109 108" fill="none" xmlns="http://www.w3.org/2000/svg">
<g id="Artboard 1 2">
<g clip-path="url(#clip0_1940_305)">
<g id="Group">
<g id="Layer 1">
<path id="Vector" d="M108.667 0H0.666992V108H108.667V0Z" fill="url(#paint0_radial_1940_305)"/>
<g id="Group_2" opacity="0.54">
<g id="Vector_2" style="mix-blend-mode:screen">
<path d="M35.9424 123.558C77.2466 116.572 106.995 88.8233 102.387 61.5794C97.7789 34.3355 60.5597 17.9133 19.2556 24.8994C-22.0486 31.8855 -51.7967 59.6343 -47.1888 86.8782C-42.5808 114.122 -5.36171 130.544 35.9424 123.558Z" stroke="#5B83D3" stroke-width="0.25" stroke-miterlimit="10"/>
</g>
<g id="Vector_3" style="mix-blend-mode:screen">
<path d="M33.7041 110.326C63.9266 105.214 85.6934 84.9087 82.3215 64.9727C78.9495 45.0367 51.7158 33.0193 21.4933 38.1311C-8.72927 43.2428 -30.496 63.548 -27.1241 83.484C-23.7522 103.42 3.48154 115.437 33.7041 110.326Z" stroke="#5B83D3" stroke-width="0.25" stroke-miterlimit="10"/>
</g>
<g id="Vector_4" style="mix-blend-mode:screen">
<path d="M31.9097 99.716C53.2561 96.1055 68.6307 81.7673 66.2498 67.6907C63.8689 53.614 44.6341 45.1295 23.2878 48.74C1.94138 52.3505 -13.4332 66.6887 -11.0523 80.7653C-8.67142 94.842 10.5633 103.326 31.9097 99.716Z" stroke="#5B83D3" stroke-width="0.25" stroke-miterlimit="10"/>
</g>
</g>
<g id="Group_3">
<path id="Vector_5" d="M16.9469 98.1698C12.8869 99.3498 8.62691 100.22 5.08691 100.5C7.24691 103.6 10.8869 105.63 15.0269 105.63C21.5369 105.63 26.8269 100.61 27.0269 94.3398C24.0669 95.7898 20.4969 97.1298 16.9369 98.1698H16.9469Z" fill="url(#paint1_linear_1940_305)"/>
<path id="Vector_6" d="M3.02637 93.9706C3.02637 95.9906 3.55637 97.8906 4.48637 99.5506C7.71637 99.3406 11.9264 98.5905 16.6864 97.2005C20.7764 96.0005 24.2864 94.6106 27.0164 93.2606C26.8664 90.8406 25.9564 88.6206 24.5264 86.8306C24.2764 86.5106 24.0164 86.2105 23.7264 85.9305C21.5464 83.7005 18.4564 82.3105 15.0364 82.3105C8.97637 82.3105 3.96637 86.6705 3.14637 92.3405C3.08637 92.7205 3.05637 93.1105 3.04637 93.5005C3.02637 93.6605 3.02637 93.8106 3.02637 93.9706Z" fill="url(#paint2_linear_1940_305)"/>
<g id="Group_4">
<path id="Vector_7" d="M-2.99316 98.522C-2.80316 99.252 -2.15316 99.772 -1.17316 100.112C-0.183165 100.452 1.14684 100.602 2.69684 100.602C3.44684 100.602 4.24683 100.562 5.08683 100.492C4.86684 100.182 4.67684 99.862 4.48684 99.542C0.646835 99.802 -1.79316 99.302 -2.07316 98.242C-2.36316 97.162 -0.463165 95.382 3.04684 93.492C3.04684 93.092 3.08684 92.702 3.14684 92.332C-0.853165 94.412 -3.48316 96.662 -2.99316 98.512V98.522Z" fill="#274A96"/>
<path id="Vector_8" d="M4.48656 99.542C4.66656 99.872 4.86656 100.182 5.08656 100.492C8.62656 100.212 12.8866 99.342 16.9466 98.162C20.4966 97.122 24.0666 95.782 27.0366 94.332C27.0366 94.212 27.0366 94.082 27.0366 93.962C27.0366 93.722 27.0366 93.482 27.0066 93.252C24.2766 94.612 20.7666 95.992 16.6766 97.192C11.9266 98.582 7.71656 99.332 4.47656 99.542H4.48656Z" fill="#274A96"/>
<path id="Vector_9" d="M33.2671 87.9212C33.5771 89.1012 31.2471 91.1512 27.0171 93.2612C27.0371 93.5012 27.0471 93.7412 27.0471 93.9712C27.0471 94.0912 27.0471 94.2212 27.0471 94.3412C31.5971 92.1212 34.7371 89.6512 34.2071 87.6412C33.7071 85.7512 30.3071 85.4712 27.5571 85.5812C26.3771 85.6212 25.1071 85.7412 23.7471 85.9212C24.0371 86.2012 24.2971 86.5012 24.5471 86.8212C25.6271 86.7012 26.6371 86.6212 27.5971 86.5812C27.9271 86.5612 28.2371 86.5612 28.5271 86.5612C31.7571 86.5612 33.1171 87.2312 33.2871 87.9112L33.2671 87.9212Z" fill="#274A96"/>
</g>
</g>
<g id="Group_5" opacity="0.31">
<path id="Vector_10" d="M100.637 74.2301C100.187 74.2301 99.8171 74.9701 99.8171 75.8801C99.8171 74.9701 99.4471 74.2301 98.9971 74.2301C99.4471 74.2301 99.8171 73.4901 99.8171 72.5801C99.8171 73.4901 100.187 74.2301 100.637 74.2301Z" fill="#7DAAEA"/>
<path id="Vector_11" d="M79.9271 7.56992C79.4771 7.56992 79.1071 8.30992 79.1071 9.21992C79.1071 8.30992 78.7371 7.56992 78.2871 7.56992C78.7371 7.56992 79.1071 6.82992 79.1071 5.91992C79.1071 6.82992 79.4771 7.56992 79.9271 7.56992Z" fill="#7DAAEA"/>
<path id="Vector_12" d="M60.307 35.5309C59.857 35.5309 59.487 36.2709 59.487 37.1809C59.487 36.2709 59.117 35.5309 58.667 35.5309C59.117 35.5309 59.487 34.7909 59.487 33.8809C59.487 34.7909 59.857 35.5309 60.307 35.5309Z" fill="#D7E7FF"/>
<path id="Vector_13" d="M10.4671 88.4898C10.0171 88.4898 9.64715 89.2298 9.64715 90.1398C9.64715 89.2298 9.27715 88.4898 8.82715 88.4898C9.27715 88.4898 9.64715 87.7498 9.64715 86.8398C9.64715 87.7498 10.0171 88.4898 10.4671 88.4898Z" fill="#D7E7FF"/>
<path id="Vector_14" d="M62.7275 19.1503C62.8877 19.1503 63.0175 19.0205 63.0175 18.8603C63.0175 18.7002 62.8877 18.5703 62.7275 18.5703C62.5673 18.5703 62.4375 18.7002 62.4375 18.8603C62.4375 19.0205 62.5673 19.1503 62.7275 19.1503Z" fill="#7DAAEA"/>
<path id="Vector_15" d="M7.15719 9.11906C7.31735 9.11906 7.44719 8.98923 7.44719 8.82906C7.44719 8.6689 7.31735 8.53906 7.15719 8.53906C6.99702 8.53906 6.86719 8.6689 6.86719 8.82906C6.86719 8.98923 6.99702 9.11906 7.15719 9.11906Z" fill="#D7E7FF"/>
<path id="Vector_16" d="M100.638 46.4902C100.798 46.4902 100.928 46.3603 100.928 46.2002C100.928 46.04 100.798 45.9102 100.638 45.9102C100.477 45.9102 100.348 46.04 100.348 46.2002C100.348 46.3603 100.477 46.4902 100.638 46.4902Z" fill="#D7E7FF"/>
<path id="Vector_17" d="M31.2968 8.83C31.457 8.83 31.5868 8.70016 31.5868 8.54C31.5868 8.37984 31.457 8.25 31.2968 8.25C31.1367 8.25 31.0068 8.37984 31.0068 8.54C31.0068 8.70016 31.1367 8.83 31.2968 8.83Z" fill="#D7E7FF"/>
<path id="Vector_18" d="M36.3076 29.4198C36.4677 29.4198 36.5976 29.29 36.5976 29.1298C36.5976 28.9697 36.4677 28.8398 36.3076 28.8398C36.1474 28.8398 36.0176 28.9697 36.0176 29.1298C36.0176 29.29 36.1474 29.4198 36.3076 29.4198Z" fill="#D7E7FF"/>
<path id="Vector_19" d="M9.63766 40.6503C9.79782 40.6503 9.92766 40.5205 9.92766 40.3603C9.92766 40.2002 9.79782 40.0703 9.63766 40.0703C9.47749 40.0703 9.34766 40.2002 9.34766 40.3603C9.34766 40.5205 9.47749 40.6503 9.63766 40.6503Z" fill="#7DAAEA"/>
<path id="Vector_20" d="M7.15719 65.9198C7.31735 65.9198 7.44719 65.79 7.44719 65.6298C7.44719 65.4697 7.31735 65.3398 7.15719 65.3398C6.99702 65.3398 6.86719 65.4697 6.86719 65.6298C6.86719 65.79 6.99702 65.9198 7.15719 65.9198Z" fill="#7DAAEA"/>
<path id="Vector_21" d="M95.8877 93.6308C96.0478 93.6308 96.1777 93.5009 96.1777 93.3408C96.1777 93.1806 96.0478 93.0508 95.8877 93.0508C95.7275 93.0508 95.5977 93.1806 95.5977 93.3408C95.5977 93.5009 95.7275 93.6308 95.8877 93.6308Z" fill="#D7E7FF"/>
<path id="Vector_22" d="M20.3871 20.4605C19.9371 20.4605 19.5671 21.2005 19.5671 22.1105C19.5671 21.2005 19.1971 20.4605 18.7471 20.4605C19.1971 20.4605 19.5671 19.7205 19.5671 18.8105C19.5671 19.7205 19.9371 20.4605 20.3871 20.4605Z" fill="#D7E7FF"/>
</g>
<g id="Group_6">
<path id="Vector_23" d="M81.4866 13.3009C86.3166 14.6409 91.3866 15.6209 95.6066 15.9409C93.0366 19.4509 88.6966 21.7609 83.7666 21.7609C76.0166 21.7609 69.7166 16.0709 69.4766 8.96094C73.0066 10.6009 77.2566 12.1209 81.4866 13.3009Z" fill="url(#paint3_linear_1940_305)"/>
<path id="Vector_24" d="M98.0571 8.54031C98.0571 10.8303 97.4271 12.9803 96.3171 14.8603C92.4671 14.6203 87.4571 13.7703 81.7971 12.2003C76.9271 10.8403 72.7471 9.27031 69.4971 7.73031C69.6771 4.99031 70.7571 2.47031 72.4671 0.440312C72.7671 0.0803123 73.0771 -0.259687 73.4171 -0.579688C76.0171 -3.10969 79.6871 -4.67969 83.7671 -4.67969C90.9771 -4.67969 96.9471 0.260313 97.9171 6.69031C97.9871 7.12031 98.0271 7.56031 98.0371 8.01031C98.0571 8.19031 98.0571 8.36031 98.0571 8.54031Z" fill="url(#paint4_linear_1940_305)"/>
<g id="Group_7">
<path id="Vector_25" d="M105.227 13.6995C104.997 14.5295 104.227 15.1195 103.057 15.4995C101.877 15.8895 100.297 16.0595 98.4474 16.0595C97.5574 16.0595 96.6074 16.0195 95.6074 15.9395C95.8674 15.5895 96.0974 15.2295 96.3174 14.8595C100.887 15.1495 103.797 14.5895 104.127 13.3895C104.467 12.1695 102.207 10.1495 98.0374 8.00945C98.0274 7.55945 97.9874 7.11945 97.9174 6.68945C102.677 9.04945 105.807 11.5995 105.227 13.6995Z" fill="#274A96"/>
<path id="Vector_26" d="M96.3168 14.8605C96.0968 15.2305 95.8668 15.5905 95.6068 15.9405C91.3868 15.6205 86.3168 14.6405 81.4868 13.3005C77.2568 12.1205 73.0068 10.6005 69.4768 8.96047C69.4668 8.82047 69.4668 8.68047 69.4668 8.54047C69.4668 8.27047 69.4768 8.00047 69.4968 7.73047C72.7468 9.27047 76.9268 10.8405 81.7968 12.2005C87.4568 13.7705 92.4668 14.6205 96.3168 14.8605Z" fill="#274A96"/>
<path id="Vector_27" d="M62.057 1.67966C61.687 3.01966 64.467 5.33966 69.497 7.72966C69.477 7.99966 69.467 8.26966 69.467 8.53966C69.467 8.67966 69.467 8.81966 69.477 8.95966C64.057 6.43966 60.327 3.63966 60.957 1.36966C61.557 -0.770343 65.597 -1.09034 68.877 -0.970343C70.277 -0.920343 71.797 -0.790343 73.417 -0.580343C73.077 -0.260343 72.767 0.0796571 72.467 0.439657C71.187 0.299657 69.977 0.209657 68.837 0.169657C68.447 0.149657 68.077 0.149657 67.727 0.149657C63.887 0.149657 62.267 0.909657 62.057 1.67966Z" fill="#274A96"/>
</g>
</g>
<g id="Group_8">
<path id="Vector_28" d="M92.3468 43.7495V114.129H16.0068V55.1895C16.0068 38.8895 19.9468 34.9395 24.8168 34.9395H83.5368C88.4068 34.9395 92.3468 38.8895 92.3468 43.7495Z" fill="#0075FF"/>
<path id="Vector_29" d="M28.3071 41.0686H80.0471C83.8971 41.0686 87.0271 44.1986 87.0271 48.0486V114.129H21.3271V48.0386C21.3271 44.1886 24.4571 41.0586 28.3071 41.0586V41.0686Z" fill="white"/>
<g id="Vector_30" style="mix-blend-mode:color-dodge">
<path d="M79.9268 34.9395C79.9268 34.9395 77.2868 36.3895 75.4868 36.8995C73.6768 37.4095 38.8968 36.8095 27.6268 36.8995C16.3468 36.9795 16.0068 50.7195 16.0068 50.7195V43.7495C16.0068 38.8895 19.9468 34.9395 24.8168 34.9395H79.9268Z" fill="#0842B7"/>
</g>
<path id="Vector_31" d="M87.0268 56.0195L45.9668 108.62L87.0268 108.52V56.0195Z" fill="#BED1FF"/>
<g id="Group_9">
<g id="Group_10">
<path id="Vector_32" d="M44.6364 48.5801H29.1964C26.9376 48.5801 25.1064 50.4112 25.1064 52.6701V67.2101C25.1064 69.4689 26.9376 71.3001 29.1964 71.3001H44.6364C46.8953 71.3001 48.7264 69.4689 48.7264 67.2101V52.6701C48.7264 50.4112 46.8953 48.5801 44.6364 48.5801Z" fill="#FB923C"/>
<path id="Vector_33" d="M27.5967 59.8007C27.5967 59.8007 34.3667 60.2107 35.4167 66.9807C35.4167 66.9807 35.0667 57.0207 43.8767 50.7207C43.8767 50.7207 44.5967 53.8707 46.9367 54.6407C46.9367 54.6407 38.2267 59.2907 35.6067 69.6907C35.6067 69.6907 34.0867 64.3007 28.4667 63.7907C28.4667 63.7907 28.8667 61.5607 27.5967 59.8007Z" fill="white"/>
<path id="Vector_34" d="M81.8462 48.5801H52.9062C52.2159 48.5801 51.6562 49.1397 51.6562 49.8301V53.2201C51.6562 53.9104 52.2159 54.4701 52.9062 54.4701H81.8462C82.5366 54.4701 83.0962 53.9104 83.0962 53.2201V49.8301C83.0962 49.1397 82.5366 48.5801 81.8462 48.5801Z" fill="#0075FF"/>
<path id="Vector_35" d="M81.8462 57.2598H52.9062C52.2159 57.2598 51.6562 57.8194 51.6562 58.5098V61.8998C51.6562 62.5901 52.2159 63.1498 52.9062 63.1498H81.8462C82.5366 63.1498 83.0962 62.5901 83.0962 61.8998V58.5098C83.0962 57.8194 82.5366 57.2598 81.8462 57.2598Z" fill="#0075FF"/>
<path id="Vector_36" d="M71.9762 65.4102H52.6862C52.1174 65.4102 51.6562 65.8713 51.6562 66.4402V70.2701C51.6562 70.839 52.1174 71.3002 52.6862 71.3002H71.9762C72.5451 71.3002 73.0062 70.839 73.0062 70.2701V66.4402C73.0062 65.8713 72.5451 65.4102 71.9762 65.4102Z" fill="#0075FF"/>
</g>
<g id="Group_11">
<path id="Vector_37" d="M44.6364 76.8398H29.1964C26.9376 76.8398 25.1064 78.671 25.1064 80.9298V95.4698C25.1064 97.7287 26.9376 99.5598 29.1964 99.5598H44.6364C46.8953 99.5598 48.7264 97.7287 48.7264 95.4698V80.9298C48.7264 78.671 46.8953 76.8398 44.6364 76.8398Z" fill="#FB923C"/>
<path id="Vector_38" d="M27.5967 88.0702C27.5967 88.0702 34.3667 88.4802 35.4167 95.2502C35.4167 95.2502 35.0667 85.2902 43.8767 78.9902C43.8767 78.9902 44.5967 82.1402 46.9367 82.9102C46.9367 82.9102 38.2267 87.5602 35.6067 97.9602C35.6067 97.9602 34.0867 92.5702 28.4667 92.0602C28.4667 92.0602 28.8667 89.8302 27.5967 88.0702Z" fill="white"/>
<path id="Vector_39" d="M81.8462 76.8398H52.9062C52.2159 76.8398 51.6562 77.3995 51.6562 78.0898V81.4799C51.6562 82.1702 52.2159 82.7299 52.9062 82.7299H81.8462C82.5366 82.7299 83.0962 82.1702 83.0962 81.4799V78.0898C83.0962 77.3995 82.5366 76.8398 81.8462 76.8398Z" fill="#0075FF"/>
<path id="Vector_40" d="M81.8462 85.5293H52.9062C52.2159 85.5293 51.6562 86.0889 51.6562 86.7793V90.1693C51.6562 90.8597 52.2159 91.4193 52.9062 91.4193H81.8462C82.5366 91.4193 83.0962 90.8597 83.0962 90.1693V86.7793C83.0962 86.0889 82.5366 85.5293 81.8462 85.5293Z" fill="#0075FF"/>
<path id="Vector_41" d="M71.9762 93.6699H52.6862C52.1174 93.6699 51.6562 94.1311 51.6562 94.6999V98.5299C51.6562 99.0988 52.1174 99.5599 52.6862 99.5599H71.9762C72.5451 99.5599 73.0062 99.0988 73.0062 98.5299V94.6999C73.0062 94.1311 72.5451 93.6699 71.9762 93.6699Z" fill="#0075FF"/>
</g>
<g id="Group_12">
<path id="Vector_42" d="M44.6364 105.67H29.1964C26.9376 105.67 25.1064 107.501 25.1064 109.76V124.3C25.1064 126.559 26.9376 128.39 29.1964 128.39H44.6364C46.8953 128.39 48.7264 126.559 48.7264 124.3V109.76C48.7264 107.501 46.8953 105.67 44.6364 105.67Z" fill="#FB923C"/>
<path id="Vector_43" d="M27.5967 116.9C27.5967 116.9 34.3667 117.31 35.4167 124.08C35.4167 124.08 35.0667 114.12 43.8767 107.82C43.8767 107.82 44.5967 110.97 46.9367 111.74C46.9367 111.74 38.2267 116.39 35.6067 126.79C35.6067 126.79 34.0867 121.4 28.4667 120.89C28.4667 120.89 28.8667 118.66 27.5967 116.9Z" fill="white"/>
<path id="Vector_44" d="M81.8462 105.67H52.9062C52.2159 105.67 51.6562 106.23 51.6562 106.92V110.31C51.6562 111 52.2159 111.56 52.9062 111.56H81.8462C82.5366 111.56 83.0962 111 83.0962 110.31V106.92C83.0962 106.23 82.5366 105.67 81.8462 105.67Z" fill="#0075FF"/>
</g>
</g>
</g>
</g>
</g>
</g>
</g>
<defs>
<radialGradient id="paint0_radial_1940_305" cx="0" cy="0" r="1" gradientUnits="userSpaceOnUse" gradientTransform="translate(53.627 106.4) scale(107.95)">
<stop stop-color="#2F7FDD"/>
<stop offset="1" stop-color="#041E64"/>
</radialGradient>
<linearGradient id="paint1_linear_1940_305" x1="18.7369" y1="103.74" x2="15.7069" y2="96.5698" gradientUnits="userSpaceOnUse">
<stop stop-color="#093F8E"/>
<stop offset="0.05" stop-color="#0A3B87"/>
<stop offset="0.27" stop-color="#0F2F6D"/>
<stop offset="0.51" stop-color="#13265A"/>
<stop offset="0.75" stop-color="#16214E"/>
<stop offset="1" stop-color="#17204B"/>
</linearGradient>
<linearGradient id="paint2_linear_1940_305" x1="15.8164" y1="95.8106" x2="10.8064" y2="83.9805" gradientUnits="userSpaceOnUse">
<stop stop-color="#093F8E"/>
<stop offset="0.05" stop-color="#0A3B87"/>
<stop offset="0.27" stop-color="#0F2F6D"/>
<stop offset="0.51" stop-color="#13265A"/>
<stop offset="0.75" stop-color="#16214E"/>
<stop offset="1" stop-color="#17204B"/>
</linearGradient>
<linearGradient id="paint3_linear_1940_305" x1="79.4866" y1="19.6609" x2="83.0366" y2="11.2909" gradientUnits="userSpaceOnUse">
<stop stop-color="#093F8E"/>
<stop offset="0.05" stop-color="#0A3B87"/>
<stop offset="0.27" stop-color="#0F2F6D"/>
<stop offset="0.51" stop-color="#13265A"/>
<stop offset="0.75" stop-color="#16214E"/>
<stop offset="1" stop-color="#17204B"/>
</linearGradient>
<linearGradient id="paint4_linear_1940_305" x1="82.8171" y1="10.7803" x2="88.5971" y2="-2.86969" gradientUnits="userSpaceOnUse">
<stop stop-color="#093F8E"/>
<stop offset="0.05" stop-color="#0A3B87"/>
<stop offset="0.27" stop-color="#0F2F6D"/>
<stop offset="0.51" stop-color="#13265A"/>
<stop offset="0.75" stop-color="#16214E"/>
<stop offset="1" stop-color="#17204B"/>
</linearGradient>
<clipPath id="clip0_1940_305">
<rect x="0.666992" width="108" height="108" rx="16" fill="white"/>
</clipPath>
</defs>
</svg>
