<svg width="390" height="1637" viewBox="0 0 390 1637" fill="none" xmlns="http://www.w3.org/2000/svg">
<g clip-path="url(#clip0_446_2658)">
<path fill-rule="evenodd" clip-rule="evenodd" d="M390 0H0V1393V1399H0.0905488C3.26144 1503.92 89.3117 1588 195 1588C300.688 1588 386.739 1503.92 389.909 1399H390V1393V0Z" fill="url(#paint0_linear_446_2658)"/>
<path d="M339.949 3C339.949 171.939 273.167 347.643 186.125 296.004C61.5419 222.093 11.9933 259.576 19.7895 405.286C27.5856 550.996 133.439 540.438 203.522 501.828C244.608 479.193 372 417.957 372 592.175C372 1009.74 65.8731 604.318 49.0682 881.484C42.6447 987.427 49.0681 1138.06 186.125 1122.2C252.839 1114.48 297.043 1216.66 286.07 1333.92C275.096 1451.18 235.41 1489.96 167.494 1493.85C99.5774 1497.74 129.255 1495.47 123.737 1493.85" stroke="#06A5FF" stroke-opacity="0.3" stroke-width="6" stroke-linecap="round" stroke-linejoin="round" stroke-dasharray="8 12"/>
<g filter="url(#filter0_d_446_2658)">
<path d="M160.726 687.291C160.843 686.086 162.6 686.086 162.717 687.291L164.665 707.431C164.705 707.846 164.999 708.193 165.402 708.301L179.833 712.162C180.822 712.427 180.822 713.83 179.833 714.094L165.402 717.956C164.999 718.064 164.705 718.41 164.665 718.826L162.717 738.966C162.6 740.171 160.843 740.171 160.726 738.966L158.778 718.826C158.738 718.41 158.444 718.064 158.041 717.956L143.61 714.094C142.621 713.83 142.621 712.427 143.61 712.162L158.041 708.301C158.444 708.193 158.738 707.846 158.778 707.431L160.726 687.291Z" fill="white"/>
</g>
<path d="M324.502 754C294.719 754 266.719 742.4 245.661 721.343C224.6 700.286 213 672.285 213 642.502C213 612.719 224.6 584.719 245.657 563.657C266.719 542.6 294.719 531 324.502 531C354.285 531 382.286 542.6 403.343 563.657C424.405 584.719 436 612.715 436 642.498C436 672.281 424.4 700.281 403.343 721.339C382.281 742.4 354.285 753.996 324.502 753.996V754ZM324.502 539.567C297.007 539.567 271.161 550.275 251.718 569.714C232.275 589.156 221.571 615.002 221.571 642.498C221.571 669.993 232.28 695.84 251.718 715.282C271.161 734.725 297.007 745.429 324.502 745.429C351.998 745.429 377.844 734.72 397.286 715.282C416.729 695.84 427.433 669.993 427.433 642.498C427.433 615.002 416.725 589.156 397.286 569.714C377.844 550.271 351.998 539.567 324.502 539.567Z" fill="url(#paint1_linear_446_2658)"/>
<mask id="mask0_446_2658" style="mask-type:luminance" maskUnits="userSpaceOnUse" x="251" y="1391" width="84" height="83">
<path d="M251.9 1434.59C251.883 1434.26 251.869 1433.94 251.858 1433.62C251.752 1430.7 251.953 1427.27 252.791 1423.47C253.159 1421.62 253.825 1419.17 255.034 1416.34C255.318 1415.64 255.666 1414.88 256.037 1414.13C256.126 1413.95 256.218 1413.77 256.307 1413.59C256.343 1413.52 256.38 1413.45 256.416 1413.38C256.522 1413.17 256.625 1412.97 256.731 1412.78C257.282 1411.75 257.856 1410.78 258.447 1409.87C258.636 1409.57 258.831 1409.27 259.026 1408.98C259.051 1408.95 259.076 1408.91 259.102 1408.87C259.244 1408.67 259.386 1408.46 259.528 1408.27C260.698 1406.61 261.915 1405.18 263.116 1403.94C263.342 1403.7 263.576 1403.47 263.807 1403.23C263.907 1403.13 264.008 1403.03 264.105 1402.93C264.203 1402.84 264.295 1402.74 264.392 1402.65C264.437 1402.61 264.478 1402.57 264.52 1402.53C264.568 1402.48 264.615 1402.43 264.66 1402.39C264.743 1402.31 264.835 1402.23 264.924 1402.15C266.543 1400.64 267.897 1399.6 269.039 1398.78C269.07 1398.75 269.103 1398.73 269.134 1398.71C269.12 1398.72 269.106 1398.73 269.092 1398.74C269.209 1398.66 269.326 1398.57 269.438 1398.49C269.906 1398.15 270.468 1397.79 271.042 1397.44C271.354 1397.23 271.661 1397.04 271.937 1396.87C272.683 1396.43 273.697 1395.85 274.477 1395.47C274.486 1395.47 274.494 1395.46 274.5 1395.46C274.879 1395.27 275.255 1395.09 275.62 1394.92C275.622 1394.92 275.628 1394.91 275.631 1394.91C275.642 1394.91 275.653 1394.9 275.664 1394.9C275.884 1394.8 276.104 1394.69 276.302 1394.61C276.589 1394.48 276.862 1394.36 277.138 1394.25C277.977 1393.89 278.857 1393.55 279.776 1393.23C279.785 1393.23 279.793 1393.23 279.801 1393.22C280.526 1392.98 281.272 1392.74 282.055 1392.52C285.972 1391.41 289.995 1390.91 294.11 1391.01C296.228 1391.03 298.69 1391.28 301.326 1391.82L301.618 1391.88C301.618 1391.88 301.627 1391.88 301.63 1391.88C301.638 1391.88 301.646 1391.88 301.657 1391.88C302.365 1392.03 303.07 1392.19 303.83 1392.39C304.338 1392.52 304.92 1392.69 305.416 1392.85C305.427 1392.85 305.435 1392.85 305.446 1392.86C305.496 1392.87 305.549 1392.89 305.597 1392.9H305.602C306.413 1393.16 306.775 1393.28 307.371 1393.5C307.441 1393.53 307.511 1393.55 307.569 1393.58C307.569 1393.58 307.569 1393.58 307.572 1393.58C308.232 1393.81 308.689 1393.99 309.269 1394.25C309.639 1394.4 310.007 1394.56 310.378 1394.73C310.4 1394.74 310.422 1394.75 310.442 1394.76C310.915 1394.97 311.386 1395.2 311.854 1395.44C311.871 1395.45 311.89 1395.45 311.907 1395.46C312.317 1395.67 312.721 1395.88 313.127 1396.11C313.414 1396.26 313.687 1396.42 313.96 1396.58C314.066 1396.64 314.172 1396.7 314.275 1396.76C317.042 1398.38 319.056 1399.99 320.268 1401.07C320.396 1401.18 320.491 1401.27 320.541 1401.31C321.104 1401.8 321.613 1402.28 322.009 1402.67C322.137 1402.79 322.274 1402.93 322.416 1403.07C322.427 1403.08 322.438 1403.09 322.449 1403.1L322.483 1403.13C323.146 1403.79 323.954 1404.63 324.932 1405.8C329.545 1411.22 332.568 1417.61 333.833 1424.55C333.872 1424.74 333.908 1424.94 333.944 1425.15C333.95 1425.17 333.953 1425.2 333.958 1425.23C334.145 1426.3 334.298 1427.39 334.368 1428.33C334.373 1428.38 334.376 1428.45 334.382 1428.51C334.446 1429.25 334.49 1430.07 334.518 1430.9C334.526 1431.04 334.538 1431.17 334.543 1431.3L334.538 1431.72C334.543 1432.01 334.543 1432.3 334.543 1432.58C334.543 1433.26 334.529 1433.93 334.49 1434.53C334.46 1435.06 334.415 1435.58 334.368 1436.09C334.362 1436.15 334.356 1436.2 334.351 1436.26C334.334 1436.44 334.317 1436.62 334.298 1436.79C334.267 1437.08 334.234 1437.35 334.2 1437.61C334.2 1437.63 334.195 1437.65 334.195 1437.67C334.192 1437.69 334.189 1437.71 334.187 1437.73C333.315 1444.66 330.707 1451.12 326.525 1456.71C326.419 1456.85 326.313 1456.99 326.205 1457.13C326.157 1457.2 326.11 1457.26 326.063 1457.32C325.904 1457.53 325.751 1457.72 325.597 1457.91C322.115 1462.32 317.95 1465.69 313.584 1468.14C306.101 1472.46 298.239 1474.05 291.057 1473.43C291.048 1473.43 291.04 1473.43 291.034 1473.43C290.97 1473.43 290.904 1473.43 290.837 1473.42C290.5 1473.4 290.154 1473.38 289.795 1473.35C289.658 1473.34 289.524 1473.33 289.388 1473.31C289.198 1473.3 289.017 1473.28 288.842 1473.26C288.836 1473.26 288.831 1473.26 288.828 1473.26C288.608 1473.24 288.399 1473.21 288.209 1473.19C288.201 1473.19 288.19 1473.19 288.182 1473.19C287.36 1473.09 286.83 1473 286.789 1472.99C286.092 1472.89 285.652 1472.81 284.908 1472.65C284.866 1472.65 284.822 1472.64 284.783 1472.63C284.783 1472.63 284.78 1472.63 284.777 1472.63C284.724 1472.62 284.671 1472.61 284.616 1472.6C284.563 1472.58 284.512 1472.57 284.457 1472.56C284.164 1472.5 283.858 1472.43 283.535 1472.35L283.392 1472.32L282.852 1472.18C282.838 1472.18 282.821 1472.18 282.807 1472.17H282.791C282.245 1472.04 281.554 1471.84 280.985 1471.66C280.977 1471.66 280.966 1471.65 280.958 1471.65C280.905 1471.63 280.846 1471.62 280.796 1471.6C280.69 1471.57 280.595 1471.54 280.503 1471.51C280.478 1471.5 280.453 1471.49 280.428 1471.48C279.84 1471.3 279.498 1471.18 278.966 1470.98C278.918 1470.96 278.862 1470.94 278.818 1470.93C278.81 1470.92 278.798 1470.92 278.79 1470.91C278.428 1470.78 278.057 1470.64 277.681 1470.48C277.531 1470.42 277.386 1470.36 277.238 1470.3C277.068 1470.23 276.898 1470.16 276.726 1470.08C276.545 1470.01 276.352 1469.92 276.152 1469.83C275.413 1469.5 274.714 1469.16 274.046 1468.81C274.029 1468.8 274.012 1468.79 273.995 1468.78C270.259 1466.84 267.602 1464.74 266.131 1463.44C266.002 1463.33 265.908 1463.24 265.858 1463.2C265.47 1462.85 265.1 1462.51 264.721 1462.15C264.609 1462.05 264.498 1461.95 264.384 1461.84C263.944 1461.44 263.247 1460.73 262.495 1459.89C261.041 1458.3 259.753 1456.64 258.65 1454.94C258.477 1454.68 258.31 1454.42 258.16 1454.18C258.04 1453.99 257.917 1453.79 257.792 1453.58C255.379 1449.67 254.028 1446.02 253.273 1443.07C253.209 1442.82 253.151 1442.59 253.098 1442.36C253.089 1442.33 253.081 1442.28 253.073 1442.25C252.39 1439.55 252.042 1437.02 251.908 1434.73C251.908 1434.69 251.903 1434.65 251.903 1434.61L251.9 1434.59Z" fill="white"/>
</mask>
<g mask="url(#mask0_446_2658)">
<path d="M251.9 1434.59C251.883 1434.26 251.869 1433.94 251.858 1433.62C251.752 1430.7 251.953 1427.27 252.791 1423.47C253.159 1421.62 253.825 1419.17 255.034 1416.34C255.318 1415.64 255.666 1414.88 256.037 1414.13C256.126 1413.95 256.218 1413.77 256.307 1413.59C256.343 1413.52 256.38 1413.45 256.416 1413.38C256.522 1413.18 256.625 1412.98 256.731 1412.78C257.282 1411.75 257.856 1410.78 258.447 1409.87C258.636 1409.57 258.831 1409.28 259.026 1408.98C259.051 1408.95 259.076 1408.91 259.102 1408.88C259.244 1408.67 259.386 1408.46 259.528 1408.27C260.698 1406.61 261.915 1405.18 263.116 1403.94C263.342 1403.7 263.576 1403.47 263.807 1403.23C263.907 1403.13 264.008 1403.03 264.105 1402.93C264.203 1402.84 264.295 1402.74 264.392 1402.65C264.437 1402.61 264.478 1402.57 264.52 1402.53C264.568 1402.48 264.615 1402.44 264.66 1402.39C264.743 1402.31 264.835 1402.23 264.924 1402.15C266.543 1400.64 267.897 1399.6 269.039 1398.78C269.07 1398.75 269.103 1398.73 269.134 1398.71C269.12 1398.72 269.106 1398.73 269.092 1398.74C269.209 1398.66 269.326 1398.57 269.438 1398.49C269.906 1398.15 270.468 1397.79 271.042 1397.44C271.354 1397.24 271.661 1397.04 271.937 1396.87C272.683 1396.43 273.697 1395.85 274.477 1395.47C274.486 1395.47 274.494 1395.47 274.5 1395.46C274.879 1395.27 275.255 1395.09 275.62 1394.92C275.622 1394.92 275.628 1394.91 275.631 1394.91C275.642 1394.91 275.653 1394.9 275.664 1394.9C275.884 1394.8 276.104 1394.69 276.302 1394.61C276.589 1394.48 276.862 1394.37 277.138 1394.25C277.977 1393.89 278.857 1393.55 279.776 1393.23C279.785 1393.23 279.793 1393.23 279.801 1393.22C280.526 1392.98 281.272 1392.74 282.055 1392.52C285.972 1391.41 289.995 1390.91 294.11 1391.02C296.228 1391.03 298.69 1391.28 301.326 1391.82L301.618 1391.88C301.618 1391.88 301.627 1391.88 301.63 1391.88C301.638 1391.88 301.646 1391.88 301.657 1391.88C302.365 1392.03 303.07 1392.19 303.83 1392.39C304.338 1392.52 304.92 1392.69 305.416 1392.85C305.427 1392.85 305.435 1392.85 305.446 1392.86C305.496 1392.87 305.549 1392.89 305.597 1392.9H305.602C306.413 1393.16 306.775 1393.28 307.371 1393.5C307.441 1393.53 307.511 1393.55 307.569 1393.58C307.569 1393.58 307.569 1393.58 307.572 1393.58C308.232 1393.81 308.689 1393.99 309.269 1394.25C309.639 1394.4 310.007 1394.56 310.378 1394.73C310.4 1394.74 310.422 1394.75 310.442 1394.76C310.915 1394.97 311.386 1395.2 311.854 1395.44C311.871 1395.45 311.89 1395.45 311.907 1395.47C312.317 1395.67 312.721 1395.89 313.127 1396.11C313.414 1396.27 313.687 1396.42 313.96 1396.58C314.066 1396.64 314.172 1396.7 314.275 1396.76C317.042 1398.39 319.056 1399.99 320.268 1401.07C320.396 1401.18 320.491 1401.27 320.541 1401.31C321.104 1401.81 321.613 1402.28 322.009 1402.67C322.137 1402.79 322.274 1402.93 322.416 1403.07C322.427 1403.08 322.438 1403.09 322.449 1403.1L322.483 1403.13C323.146 1403.79 323.954 1404.63 324.932 1405.8C329.545 1411.23 332.568 1417.61 333.833 1424.55C333.872 1424.75 333.908 1424.95 333.944 1425.15C333.95 1425.17 333.953 1425.2 333.958 1425.23C334.145 1426.3 334.298 1427.4 334.368 1428.33C334.373 1428.38 334.376 1428.45 334.382 1428.51C334.446 1429.25 334.49 1430.07 334.518 1430.9C334.526 1431.04 334.538 1431.17 334.543 1431.3L334.538 1431.72C334.543 1432.01 334.543 1432.3 334.543 1432.58C334.543 1433.27 334.529 1433.93 334.49 1434.53C334.46 1435.06 334.415 1435.58 334.368 1436.09C334.362 1436.15 334.356 1436.2 334.351 1436.26C334.334 1436.44 334.317 1436.62 334.298 1436.79C334.267 1437.08 334.234 1437.35 334.2 1437.61C334.2 1437.63 334.195 1437.65 334.195 1437.67C334.192 1437.69 334.189 1437.71 334.187 1437.74C333.315 1444.66 330.707 1451.12 326.525 1456.71C326.419 1456.85 326.313 1456.99 326.205 1457.13C326.157 1457.2 326.11 1457.26 326.063 1457.32C325.904 1457.53 325.751 1457.72 325.597 1457.91C322.115 1462.32 317.95 1465.69 313.584 1468.14C306.101 1472.46 298.239 1474.05 291.057 1473.44C291.048 1473.44 291.04 1473.44 291.034 1473.44C290.97 1473.43 290.904 1473.43 290.837 1473.42C290.5 1473.4 290.154 1473.38 289.795 1473.35C289.658 1473.34 289.524 1473.33 289.388 1473.31C289.198 1473.3 289.017 1473.28 288.842 1473.26C288.836 1473.26 288.831 1473.26 288.828 1473.26C288.608 1473.24 288.399 1473.21 288.209 1473.19C288.201 1473.19 288.19 1473.19 288.182 1473.19C287.36 1473.09 286.83 1473 286.789 1472.99C286.092 1472.89 285.652 1472.82 284.908 1472.65C284.866 1472.65 284.822 1472.64 284.783 1472.63C284.783 1472.63 284.78 1472.63 284.777 1472.63C284.724 1472.62 284.671 1472.61 284.616 1472.6C284.563 1472.59 284.512 1472.57 284.457 1472.56C284.164 1472.5 283.858 1472.43 283.535 1472.35L283.392 1472.32L282.852 1472.19C282.838 1472.18 282.821 1472.18 282.807 1472.17H282.791C282.245 1472.04 281.554 1471.84 280.985 1471.66C280.977 1471.66 280.966 1471.65 280.958 1471.65C280.905 1471.64 280.846 1471.62 280.796 1471.6C280.69 1471.57 280.595 1471.54 280.503 1471.51C280.478 1471.5 280.453 1471.49 280.428 1471.49C279.84 1471.3 279.498 1471.18 278.966 1470.98C278.918 1470.96 278.862 1470.94 278.818 1470.93C278.81 1470.92 278.798 1470.92 278.79 1470.92C278.428 1470.78 278.057 1470.64 277.681 1470.49C277.531 1470.42 277.386 1470.36 277.238 1470.3C277.068 1470.23 276.898 1470.16 276.726 1470.09C276.545 1470.01 276.352 1469.92 276.152 1469.83C275.413 1469.5 274.714 1469.16 274.046 1468.81C274.029 1468.8 274.012 1468.79 273.995 1468.79C270.259 1466.84 267.602 1464.75 266.131 1463.44C266.002 1463.33 265.908 1463.25 265.858 1463.2C265.47 1462.85 265.1 1462.51 264.721 1462.15C264.609 1462.05 264.498 1461.95 264.384 1461.85C263.944 1461.44 263.247 1460.73 262.495 1459.9C261.041 1458.3 259.753 1456.64 258.65 1454.95C258.477 1454.68 258.31 1454.42 258.16 1454.18C258.04 1454 257.917 1453.79 257.792 1453.58C255.379 1449.68 254.028 1446.02 253.273 1443.07C253.209 1442.82 253.151 1442.59 253.098 1442.36C253.089 1442.33 253.081 1442.29 253.073 1442.25C252.39 1439.55 252.042 1437.02 251.908 1434.73C251.908 1434.69 251.903 1434.65 251.903 1434.61L251.9 1434.59Z" fill="url(#paint2_radial_446_2658)"/>
<path d="M405.386 1480.49C406.037 1486.73 403.962 1491.81 399.393 1495.42C397.128 1493.17 395.05 1490.92 393.091 1488.72C387.36 1482.27 382.131 1475.77 374.274 1469.26C365.156 1461.71 352.722 1454.61 340.578 1449.81C334.761 1447.52 330.699 1446.96 325.353 1445.36C318.429 1443.29 310.122 1439.63 302.998 1436.77C289.542 1431.39 275.879 1425.57 262.888 1418.49C248.521 1410.67 235.741 1401.73 223.667 1392.59C224.511 1391.81 225.458 1391.08 226.506 1390.42C239.561 1399.36 252.973 1408.41 267.699 1416.24C282.596 1424.17 297.278 1426.42 311.517 1430.38C323.018 1433.57 335.223 1437.52 347.041 1443.51C368.221 1454.24 384.733 1469.73 405.386 1480.49V1480.49Z" fill="#FED09E"/>
<path d="M271.84 1413.86C289.606 1420.78 303.831 1421.36 320.441 1425.95C331.373 1428.98 343.311 1433.46 354.238 1439.6C366.608 1446.56 376.777 1455.1 389.266 1461.92C393.036 1463.97 396.955 1465.82 400.859 1467.41C398.906 1463.86 396.323 1460.09 393.089 1456.15C387.088 1448.82 379.368 1441.52 370.494 1434.53C367.853 1435.1 363.883 1434.67 359.668 1433.7C343.908 1430.05 326.022 1419.91 309.038 1413.31C293.885 1407.42 279.713 1404.46 265.017 1400.05C254.79 1396.99 243.47 1392.78 233.452 1387.38C232.064 1387.79 230.769 1388.27 229.571 1388.8C230.125 1389.27 230.66 1389.74 231.192 1390.2C241.851 1399.43 257.11 1408.12 271.84 1413.86V1413.86Z" fill="#FFA776"/>
<path d="M247.036 1385.45C259.522 1389.88 272.009 1394.32 284.499 1398.76C303.641 1405.56 323.243 1412.48 340.271 1415.42C341.079 1415.56 341.882 1415.69 342.684 1415.82C318.028 1401.56 289.948 1390.6 265.543 1386.81C258.667 1385.74 252.485 1385.3 247.036 1385.44V1385.45Z" fill="#FED09E"/>
<path d="M289.278 1475.66C299.174 1480.96 309.482 1485.68 319.773 1489.6C317.625 1486.37 315.703 1483.17 313.482 1479.94C308.456 1472.61 300.698 1464.1 288.768 1457.51C280.572 1452.98 271.815 1450.15 263.48 1447.5C255.314 1444.9 247.148 1442.3 238.982 1439.71C242.053 1442.77 245.393 1445.81 248.951 1448.79C255.673 1450.06 263.599 1452.58 270.536 1456.75C280.218 1462.58 284.628 1469.43 289.278 1475.66Z" fill="#FED09E"/>
<path d="M221.361 1415.92C222.445 1416.84 223.551 1417.76 224.701 1418.66C236.868 1428.21 253.478 1435.76 268.996 1442.67C292.952 1453.33 316.967 1464.02 340.927 1473.48C345.947 1475.46 351.093 1477.45 355.904 1480.14C360.716 1482.82 365.207 1486.42 365.942 1489.01C366.948 1492.56 360.897 1492.82 360.844 1495.96C360.819 1497.4 361.964 1499.12 363.68 1500.99C372.481 1502 380.003 1501.9 386.138 1500.8C382.221 1497.26 378.159 1493.75 373.707 1490.33C358.88 1478.94 340.111 1468.87 321.62 1460.12C309.392 1454.33 297.112 1449.06 284.976 1443.1C273.436 1437.43 263.471 1433.65 254.492 1425.7C248.421 1420.32 245.036 1415.08 239.509 1409.7C234.63 1404.96 228.064 1400.17 220.837 1396.02C217.745 1401.12 217.811 1407.89 221.358 1415.91L221.361 1415.92Z" fill="#FFA776"/>
</g>
<g filter="url(#filter1_d_446_2658)">
<mask id="mask1_446_2658" style="mask-type:luminance" maskUnits="userSpaceOnUse" x="201" y="1391" width="190" height="88">
<path d="M238.914 1449.39C243.087 1445.39 247.874 1442.1 252.822 1439.08C252.925 1439.53 253.039 1439.98 253.162 1440.44C245.202 1445.78 240.859 1450.33 241.931 1452.9C244.174 1458.29 269.234 1453.02 297.904 1441.14C326.575 1429.27 347.996 1415.27 345.754 1409.89C344.681 1407.31 338.401 1407.17 329.013 1409.02C328.776 1408.62 328.531 1408.22 328.28 1407.82C333.908 1406.46 339.611 1405.4 345.386 1405.27C353.942 1405.21 355.193 1408.78 349.27 1414.61C343.257 1420.34 335.986 1424.61 328.781 1428.73C319.075 1434.13 308.987 1438.84 298.721 1443.1C288.454 1447.35 277.987 1451.16 267.3 1454.2C259.293 1456.39 251.128 1458.51 242.812 1458.72C234.25 1458.8 233.008 1455.23 238.917 1449.39L238.914 1449.39ZM324.288 1402.54C324.834 1403.15 325.36 1403.78 325.867 1404.42C352.788 1396.44 372.689 1394.6 375.313 1400.89C379.06 1409.89 346.144 1432.08 301.788 1450.46C257.435 1468.83 218.44 1476.44 214.69 1467.45C212.066 1461.15 227.422 1448.38 252.092 1434.98C252.053 1434.68 252.019 1434.37 251.989 1434.08C251.936 1433.58 251.891 1433.07 251.855 1432.55C219.039 1449.57 197.994 1466.39 201.351 1474.45C205.808 1485.14 251.585 1476.34 303.593 1454.79C355.602 1433.24 394.152 1407.1 389.694 1396.41C386.337 1388.35 359.533 1391.35 324.282 1402.54L324.288 1402.54ZM221.362 1463.95C224.756 1472.09 260.361 1465.08 300.885 1448.29C341.41 1431.49 371.513 1411.28 368.12 1403.14C365.863 1397.72 349.359 1399.01 326.636 1405.42C327.16 1406.13 327.659 1406.85 328.13 1407.58C334.039 1406.14 340.034 1405.01 346.124 1404.91C354.755 1404.89 356.555 1408.66 350.303 1414.93C344.233 1420.83 336.872 1425.21 329.575 1429.42C319.755 1434.95 309.539 1439.76 299.136 1444.09C288.716 1448.38 278.093 1452.21 267.236 1455.25C259.093 1457.44 250.788 1459.55 242.307 1459.67C233.682 1459.68 231.871 1455.91 238.14 1449.66C242.514 1445.42 247.553 1441.97 252.758 1438.81C252.56 1437.93 252.398 1437.07 252.267 1436.24C231.67 1447.77 219.1 1458.53 221.36 1463.95L221.362 1463.95Z" fill="white"/>
</mask>
<g mask="url(#mask1_446_2658)">
<path d="M345.387 1405.27C337.068 1405.46 328.894 1407.57 320.881 1409.74C310.183 1412.77 299.708 1416.56 289.43 1420.79C279.169 1425.07 269.087 1429.8 259.386 1435.22C252.187 1439.35 244.921 1443.64 238.918 1449.38C233.009 1455.22 234.251 1458.79 242.812 1458.71C251.129 1458.51 259.297 1456.38 267.301 1454.2C277.988 1451.15 288.455 1447.34 298.721 1443.09C308.988 1438.83 319.076 1434.12 328.782 1428.72C335.987 1424.61 343.258 1420.33 349.27 1414.6C355.193 1408.77 353.942 1405.21 345.387 1405.26V1405.27ZM297.908 1441.14C269.237 1453.02 244.178 1458.29 241.935 1452.9C239.692 1447.52 261.113 1433.52 289.784 1421.64C318.455 1409.76 343.515 1404.5 345.757 1409.88C348 1415.27 326.579 1429.26 297.908 1441.14ZM287.455 1416.06C235.446 1437.61 196.897 1463.75 201.354 1474.45C205.812 1485.15 251.588 1476.35 303.597 1454.8C355.606 1433.25 394.155 1407.11 389.698 1396.41C385.24 1385.71 339.464 1394.51 287.455 1416.06ZM301.789 1450.46C257.436 1468.84 218.441 1476.44 214.691 1467.45C210.944 1458.45 243.86 1436.26 288.216 1417.88C332.568 1399.51 371.564 1391.9 375.314 1400.89C379.061 1409.89 346.145 1432.08 301.789 1450.46ZM288.597 1418.8C248.072 1435.59 217.97 1455.8 221.363 1463.95C224.756 1472.09 260.361 1465.08 300.886 1448.28C341.411 1431.49 371.514 1411.28 368.12 1403.14C364.727 1394.99 329.122 1402.01 288.597 1418.8ZM350.304 1414.92C344.233 1420.83 336.873 1425.21 329.576 1429.42C319.756 1434.95 309.539 1439.76 299.137 1444.09C288.717 1448.38 278.094 1452.21 267.237 1455.25C259.094 1457.43 250.789 1459.55 242.308 1459.67C233.683 1459.67 231.872 1455.91 238.14 1449.66C244.219 1443.76 251.585 1439.4 258.888 1435.2C268.716 1429.69 278.938 1424.91 289.344 1420.6C299.752 1416.28 310.364 1412.44 321.213 1409.38C329.348 1407.18 337.647 1405.05 346.125 1404.91C354.756 1404.89 356.556 1408.66 350.304 1414.93V1414.92Z" fill="#FEFEFC"/>
</g>
</g>
<mask id="mask2_446_2658" style="mask-type:luminance" maskUnits="userSpaceOnUse" x="41" y="1468" width="141" height="141">
<path d="M62.9229 1488.71C63.3308 1488.31 63.7285 1487.93 64.1249 1487.56C67.7584 1484.13 72.3829 1480.49 78.1924 1477.25C80.9751 1475.61 84.8587 1473.69 89.844 1472C91.0504 1471.57 92.4179 1471.14 93.7915 1470.76C94.1207 1470.66 94.4587 1470.58 94.7879 1470.48C94.914 1470.44 95.0388 1470.42 95.1737 1470.39C95.5509 1470.29 95.9179 1470.19 96.2936 1470.11C98.2331 1469.64 100.109 1469.26 101.93 1468.98C102.525 1468.88 103.119 1468.79 103.703 1468.7C103.78 1468.69 103.847 1468.68 103.933 1468.68C104.354 1468.62 104.775 1468.57 105.185 1468.53C108.608 1468.13 111.789 1468.04 114.719 1468.15C115.277 1468.17 115.835 1468.19 116.382 1468.22C116.628 1468.23 116.854 1468.24 117.1 1468.26C117.326 1468.27 117.553 1468.28 117.779 1468.29C117.883 1468.31 117.977 1468.31 118.071 1468.32C118.185 1468.33 118.298 1468.33 118.401 1468.35C118.599 1468.37 118.806 1468.38 119.004 1468.4C122.733 1468.74 125.566 1469.26 127.88 1469.76C127.945 1469.78 128.011 1469.79 128.076 1469.8C128.049 1469.79 128.011 1469.79 127.992 1469.79C128.235 1469.84 128.467 1469.9 128.691 1469.95C129.643 1470.15 130.73 1470.45 131.825 1470.78C132.43 1470.93 133.024 1471.1 133.533 1471.27C134.933 1471.69 136.783 1472.32 138.146 1472.87C138.146 1472.87 138.163 1472.89 138.182 1472.89C138.845 1473.16 139.49 1473.42 140.124 1473.69C140.124 1473.69 140.133 1473.7 140.141 1473.71C140.15 1473.72 140.178 1473.73 140.197 1473.73C140.573 1473.9 140.941 1474.05 141.28 1474.21C141.757 1474.42 142.216 1474.64 142.664 1474.86C144.058 1475.51 145.465 1476.23 146.894 1477.04C146.903 1477.05 146.911 1477.06 146.93 1477.06C148.06 1477.69 149.186 1478.36 150.326 1479.1C156.097 1482.76 161.19 1487.26 165.6 1492.57C167.915 1495.26 170.324 1498.63 172.55 1502.55L172.803 1502.99C172.803 1502.99 172.803 1502.99 172.811 1503C172.82 1503.01 172.829 1503.02 172.838 1503.03C173.424 1504.08 174.001 1505.15 174.586 1506.34C174.984 1507.12 175.409 1508.06 175.749 1508.85C175.758 1508.86 175.767 1508.87 175.774 1508.9C175.807 1508.98 175.848 1509.07 175.88 1509.14C176.438 1510.45 176.699 1511.04 177.071 1512.05C177.119 1512.17 177.159 1512.27 177.198 1512.38C177.621 1513.47 177.896 1514.26 178.211 1515.27C178.42 1515.92 178.62 1516.55 178.818 1517.21C178.834 1517.25 178.842 1517.27 178.848 1517.32C179.1 1518.16 179.322 1519.01 179.544 1519.87C179.551 1519.9 179.558 1519.93 179.574 1519.97C179.766 1520.72 179.939 1521.47 180.102 1522.22C180.215 1522.76 180.318 1523.29 180.413 1523.81C180.446 1524.01 180.498 1524.21 180.531 1524.41C181.508 1529.73 181.665 1534.08 181.625 1536.84C181.624 1537.12 181.617 1537.34 181.618 1537.46C181.611 1538.72 181.572 1539.9 181.504 1540.85C181.482 1541.15 181.467 1541.48 181.434 1541.81C181.432 1541.83 181.429 1541.87 181.428 1541.89L181.423 1541.96C181.307 1543.55 181.126 1545.51 180.713 1548.07C178.848 1560.01 173.996 1571.05 166.486 1580.48C166.276 1580.75 166.058 1581.02 165.838 1581.3C165.808 1581.33 165.786 1581.36 165.755 1581.41C164.587 1582.86 163.346 1584.29 162.229 1585.43C162.159 1585.5 162.086 1585.58 162.014 1585.66C161.132 1586.58 160.131 1587.57 159.084 1588.54C158.92 1588.7 158.757 1588.87 158.604 1589.02L158.057 1589.5C157.682 1589.83 157.318 1590.15 156.953 1590.47C156.072 1591.25 155.204 1591.98 154.39 1592.61C153.666 1593.17 152.954 1593.71 152.245 1594.22C152.174 1594.28 152.084 1594.34 152.004 1594.39C151.764 1594.57 151.514 1594.75 151.275 1594.91C150.875 1595.19 150.485 1595.47 150.116 1595.72C150.096 1595.74 150.066 1595.77 150.045 1595.78C150.015 1595.81 149.985 1595.84 149.945 1595.85C140.09 1602.6 128.907 1606.62 117.096 1607.68C116.8 1607.71 116.495 1607.74 116.199 1607.77C116.065 1607.78 115.932 1607.79 115.798 1607.8C115.36 1607.84 114.932 1607.86 114.533 1607.88C105.02 1608.49 96.0722 1607.06 88.0908 1604.34C74.2604 1599.82 63.5142 1591.72 56.3667 1581.98C56.3667 1581.98 56.3492 1581.96 56.3405 1581.95C56.2704 1581.87 56.1917 1581.78 56.1318 1581.69C55.7757 1581.25 55.4398 1580.78 55.0777 1580.29C54.939 1580.11 54.8105 1579.92 54.6819 1579.74C54.4921 1579.48 54.311 1579.23 54.1489 1578.99C54.1489 1578.99 54.1401 1578.98 54.1314 1578.97C53.9167 1578.66 53.7195 1578.38 53.5398 1578.11C53.531 1578.1 53.5223 1578.09 53.5135 1578.08C52.7349 1576.93 52.2599 1576.16 52.2262 1576.11C51.5876 1575.11 51.1886 1574.48 50.5785 1573.35C50.5348 1573.3 50.5025 1573.23 50.4689 1573.17C50.4177 1573.09 50.3855 1573.01 50.3444 1572.92C50.3034 1572.84 50.261 1572.77 50.22 1572.68C49.9772 1572.24 49.727 1571.77 49.4593 1571.28L49.3422 1571.07L48.9192 1570.24C48.9192 1570.24 48.8842 1570.2 48.8768 1570.17L48.8593 1570.15C48.4275 1569.31 47.9294 1568.21 47.522 1567.3C47.5132 1567.29 47.5045 1567.28 47.5058 1567.26C47.4648 1567.17 47.4238 1567.09 47.3915 1567.01C47.3183 1566.84 47.2538 1566.69 47.1892 1566.53C47.1731 1566.49 47.157 1566.46 47.1321 1566.41C46.7275 1565.46 46.4841 1564.89 46.161 1563.99C46.1287 1563.92 46.0978 1563.82 46.0656 1563.74C46.0568 1563.73 46.0481 1563.72 46.0407 1563.69C45.8103 1563.08 45.5812 1562.46 45.3622 1561.82C45.2769 1561.56 45.2004 1561.31 45.105 1561.06C45.0036 1560.76 44.9109 1560.47 44.8095 1560.17C44.6993 1559.86 44.6007 1559.52 44.5034 1559.17C44.1148 1557.86 43.7814 1556.59 43.4917 1555.36C43.4844 1555.33 43.477 1555.3 43.4696 1555.27C41.8399 1548.37 41.5828 1542.66 41.636 1539.32C41.6377 1539.04 41.6441 1538.82 41.6436 1538.7C41.6604 1537.82 41.6946 1536.96 41.7302 1536.08C41.7394 1535.82 41.7485 1535.57 41.7489 1535.3C41.7853 1534.28 41.9266 1532.6 42.1585 1530.72C42.5938 1527.08 43.294 1523.59 44.265 1520.27C44.4066 1519.76 44.557 1519.26 44.7047 1518.79C44.8063 1518.44 44.9296 1518.05 45.063 1517.65C47.4068 1510.19 50.5993 1504.36 53.5657 1500.06C53.8097 1499.71 54.0435 1499.36 54.2745 1499.05C54.3063 1499 54.3583 1498.94 54.3901 1498.89C57.1011 1494.99 59.9569 1491.69 62.7553 1488.93C62.806 1488.88 62.8566 1488.84 62.9073 1488.79L62.9229 1488.71Z" fill="white"/>
</mask>
<g mask="url(#mask2_446_2658)">
<path d="M62.9234 1488.7C63.3312 1488.31 63.729 1487.92 64.1253 1487.56C67.7589 1484.13 72.3834 1480.49 78.1929 1477.24C80.9756 1475.6 84.8592 1473.68 89.8445 1471.99C91.0508 1471.57 92.4184 1471.14 93.7919 1470.76C94.1212 1470.66 94.4591 1470.58 94.7884 1470.48C94.9145 1470.44 95.0393 1470.42 95.1742 1470.39C95.5513 1470.29 95.9183 1470.19 96.2941 1470.11C98.2335 1469.64 100.109 1469.25 101.931 1468.97C102.526 1468.87 103.119 1468.79 103.704 1468.7C103.781 1468.69 103.848 1468.68 103.933 1468.68C104.354 1468.62 104.775 1468.57 105.186 1468.53C108.608 1468.12 111.789 1468.04 114.72 1468.14C115.278 1468.17 115.835 1468.19 116.383 1468.22C116.628 1468.23 116.855 1468.24 117.1 1468.26C117.327 1468.27 117.553 1468.28 117.78 1468.29C117.883 1468.31 117.977 1468.31 118.072 1468.32C118.185 1468.32 118.298 1468.33 118.402 1468.35C118.599 1468.37 118.807 1468.38 119.004 1468.4C122.733 1468.73 125.567 1469.26 127.881 1469.76C127.946 1469.78 128.011 1469.79 128.077 1469.8C128.049 1469.79 128.011 1469.79 127.992 1469.79C128.235 1469.84 128.468 1469.9 128.692 1469.95C129.643 1470.15 130.731 1470.45 131.826 1470.77C132.43 1470.93 133.025 1471.09 133.534 1471.26C134.934 1471.69 136.783 1472.32 138.146 1472.87C138.146 1472.87 138.164 1472.89 138.183 1472.89C138.846 1473.16 139.49 1473.42 140.124 1473.69C140.124 1473.69 140.133 1473.7 140.142 1473.71C140.151 1473.72 140.178 1473.73 140.197 1473.73C140.574 1473.89 140.942 1474.05 141.281 1474.21C141.758 1474.42 142.216 1474.64 142.664 1474.86C144.058 1475.51 145.465 1476.23 146.894 1477.03C146.903 1477.04 146.912 1477.05 146.931 1477.06C148.06 1477.69 149.187 1478.35 150.327 1479.1C156.097 1482.76 161.191 1487.26 165.6 1492.56C167.916 1495.26 170.324 1498.63 172.55 1502.55L172.803 1502.98C172.803 1502.98 172.803 1502.98 172.812 1502.99C172.821 1503 172.829 1503.01 172.838 1503.02C173.425 1504.08 174.001 1505.14 174.587 1506.34C174.985 1507.12 175.41 1508.05 175.75 1508.85C175.759 1508.86 175.767 1508.87 175.775 1508.9C175.807 1508.98 175.848 1509.06 175.88 1509.14C176.439 1510.45 176.7 1511.03 177.071 1512.05C177.12 1512.17 177.159 1512.27 177.199 1512.38C177.622 1513.47 177.896 1514.25 178.211 1515.27C178.42 1515.91 178.62 1516.55 178.819 1517.21C178.835 1517.24 178.842 1517.27 178.848 1517.32C179.1 1518.16 179.323 1519.01 179.544 1519.87C179.551 1519.9 179.559 1519.93 179.575 1519.97C179.767 1520.72 179.94 1521.46 180.102 1522.22C180.215 1522.76 180.319 1523.29 180.414 1523.8C180.447 1524 180.498 1524.21 180.531 1524.41C181.508 1529.73 181.665 1534.08 181.626 1536.83C181.624 1537.12 181.618 1537.34 181.618 1537.46C181.612 1538.72 181.573 1539.9 181.504 1540.85C181.482 1541.15 181.468 1541.48 181.434 1541.81C181.433 1541.83 181.43 1541.87 181.429 1541.89L181.423 1541.96C181.307 1543.55 181.127 1545.51 180.713 1548.06C178.848 1560.01 173.997 1571.05 166.486 1580.48C166.277 1580.75 166.058 1581.02 165.839 1581.3C165.808 1581.32 165.787 1581.36 165.755 1581.41C164.588 1582.86 163.346 1584.29 162.23 1585.43C162.159 1585.49 162.087 1585.58 162.014 1585.66C161.132 1586.58 160.132 1587.56 159.084 1588.54C158.921 1588.7 158.757 1588.86 158.604 1589.02L158.057 1589.5C157.683 1589.83 157.318 1590.15 156.953 1590.47C156.072 1591.25 155.204 1591.98 154.39 1592.61C153.667 1593.17 152.955 1593.71 152.245 1594.21C152.174 1594.28 152.084 1594.34 152.005 1594.39C151.764 1594.57 151.514 1594.75 151.275 1594.91C150.875 1595.19 150.486 1595.46 150.117 1595.72C150.096 1595.74 150.066 1595.76 150.046 1595.78C150.015 1595.81 149.985 1595.83 149.946 1595.85C140.091 1602.59 128.907 1606.62 117.096 1607.68C116.8 1607.71 116.496 1607.73 116.199 1607.77C116.066 1607.78 115.932 1607.79 115.799 1607.8C115.36 1607.83 114.932 1607.86 114.533 1607.87C105.02 1608.48 96.0726 1607.06 88.0912 1604.34C74.2609 1599.81 63.5147 1591.72 56.3672 1581.98C56.3672 1581.98 56.3497 1581.96 56.3409 1581.95C56.2709 1581.87 56.1921 1581.78 56.1322 1581.69C55.7761 1581.24 55.4402 1580.78 55.0781 1580.29C54.9394 1580.11 54.8109 1579.92 54.6824 1579.73C54.4925 1579.48 54.3115 1579.23 54.1493 1578.99C54.1493 1578.99 54.1406 1578.98 54.1318 1578.97C53.9171 1578.66 53.7199 1578.37 53.5402 1578.11C53.5315 1578.1 53.5227 1578.09 53.514 1578.08C52.7353 1576.93 52.2603 1576.16 52.2267 1576.1C51.5881 1575.11 51.1891 1574.47 50.579 1573.35C50.5352 1573.3 50.5029 1573.22 50.4693 1573.16C50.4182 1573.09 50.3859 1573.01 50.3449 1572.92C50.3039 1572.83 50.2615 1572.76 50.2205 1572.68C49.9776 1572.24 49.7274 1571.77 49.4597 1571.28L49.3427 1571.07L48.9197 1570.24C48.9197 1570.24 48.8846 1570.2 48.8773 1570.17L48.8598 1570.15C48.428 1569.31 47.9298 1568.21 47.5224 1567.3C47.5137 1567.29 47.5049 1567.28 47.5063 1567.26C47.4653 1567.17 47.4243 1567.08 47.392 1567.01C47.3187 1566.84 47.2542 1566.69 47.1897 1566.53C47.1736 1566.49 47.1574 1566.45 47.1325 1566.41C46.7279 1565.45 46.4846 1564.89 46.1614 1563.99C46.1292 1563.91 46.0983 1563.82 46.066 1563.74C46.0573 1563.73 46.0485 1563.72 46.0412 1563.69C45.8107 1563.08 45.5816 1562.45 45.3627 1561.82C45.2774 1561.56 45.2008 1561.31 45.1054 1561.05C45.004 1560.75 44.9114 1560.46 44.81 1560.17C44.6998 1559.86 44.6011 1559.52 44.5039 1559.16C44.1152 1557.86 43.7818 1556.58 43.4922 1555.35C43.4848 1555.33 43.4775 1555.3 43.4701 1555.27C41.8403 1548.37 41.5833 1542.66 41.6365 1539.32C41.6382 1539.04 41.6446 1538.82 41.6441 1538.7C41.6608 1537.82 41.6951 1536.96 41.7307 1536.08C41.7398 1535.82 41.7489 1535.57 41.7493 1535.3C41.7858 1534.28 41.9271 1532.6 42.159 1530.72C42.5943 1527.08 43.2945 1523.58 44.2654 1520.27C44.4071 1519.76 44.5575 1519.26 44.7052 1518.79C44.8068 1518.44 44.9301 1518.04 45.0635 1517.64C47.4072 1510.19 50.5997 1504.35 53.5662 1500.06C53.8101 1499.7 54.044 1499.36 54.275 1499.05C54.3068 1499 54.3588 1498.94 54.3906 1498.89C57.1016 1494.98 59.9574 1491.69 62.7558 1488.92C62.8065 1488.88 62.8571 1488.83 62.9077 1488.79L62.9234 1488.7Z" fill="url(#paint3_radial_446_2658)"/>
<g style="mix-blend-mode:screen" opacity="0.2">
<path d="M4.1634 1478.74C6.76984 1471.74 9.76276 1465.43 12.9113 1459.85C12.9776 1459.72 13.0527 1459.6 13.119 1459.47C13.7165 1458.44 14.3024 1457.42 14.8971 1456.42C16.7794 1453.25 19.0318 1449.94 21.4482 1446.59C105.987 1513.45 207.652 1560.49 312.631 1582.11C311.06 1589.22 308.977 1596.19 306.271 1602.99C306.012 1603.68 305.734 1604.37 305.456 1605.05C305.422 1605.14 305.387 1605.22 305.343 1605.31C303.862 1608.97 302.191 1612.63 300.58 1615.6C300.48 1615.79 300.362 1615.99 300.262 1616.18C300.218 1616.27 300.153 1616.38 300.089 1616.48C193.681 1593.38 90.7885 1545.74 4.1634 1478.74ZM215.625 1686.02C215.907 1685.93 216.188 1685.84 216.47 1685.75C217.112 1685.54 217.733 1685.35 218.374 1685.14C238.37 1678.66 256.059 1668.3 270.832 1654.6C172.313 1634.95 76.5957 1592.6 -4.65218 1532.26C-4.63338 1533.3 -4.59105 1534.41 -4.53257 1535.56C-4.20685 1543.07 -3.18965 1550.85 -1.49021 1558.77C-0.624532 1562.9 0.297203 1566.53 0.963085 1568.71C1.13106 1569.27 1.30041 1569.81 1.46838 1570.37C2.024 1572.25 2.59249 1574.08 3.1859 1575.96C3.2625 1576.21 3.4097 1576.66 3.62148 1577.27C5.84228 1584.03 10.2965 1595.28 18.1778 1608.33C75.2771 1643.35 137.213 1670.85 201.219 1689.61C205.121 1688.79 209.014 1687.95 212.902 1686.81C213.773 1686.57 214.664 1686.32 215.606 1686.02L215.625 1686.02ZM295.563 1476.45C295.445 1476.25 295.336 1476.04 295.218 1475.85C294.612 1474.79 294.025 1473.74 293.374 1472.65C292.471 1471.11 291.527 1469.61 290.573 1468.12C290.521 1468.06 290.497 1467.99 290.455 1467.92C289.356 1466.2 288.236 1464.52 287.077 1462.86C287.015 1462.79 286.974 1462.7 286.913 1462.63C286.011 1461.34 285.099 1460.06 284.165 1458.81C283.881 1458.41 283.621 1458.07 283.344 1457.72C229.045 1440.75 176.43 1417.22 127.477 1387.83C125.318 1388.03 123.07 1388.28 120.627 1388.61C120.177 1388.67 119.699 1388.72 119.267 1388.79C119.028 1388.82 118.778 1388.86 118.528 1388.91C118.299 1388.93 118.097 1388.97 117.857 1389C117.349 1389.08 116.849 1389.17 116.339 1389.26C115.821 1389.35 115.292 1389.44 114.745 1389.54C113.514 1389.75 112.265 1389.97 111.043 1390.22C109.349 1390.54 107.561 1391 105.805 1391.4C164.629 1428.53 229.004 1457.33 295.563 1476.45ZM315.557 1561.23C316.248 1550.05 315.665 1538.66 313.619 1527.18C312.673 1521.54 311.626 1517.29 310.718 1513.86L310.674 1513.69C310.674 1513.69 310.645 1513.57 310.63 1513.52C310.436 1512.79 310.24 1512.09 310.06 1511.44C309.745 1510.3 309.357 1508.98 308.918 1507.59C226.332 1487.08 146.604 1450.8 76.7431 1401.47C75.2606 1402.16 73.7964 1402.73 72.3083 1403.49C71.57 1403.86 70.8304 1404.24 70.0806 1404.64C69.8239 1404.78 69.5686 1404.89 69.3119 1405.03C68.6506 1405.38 67.9893 1405.74 67.3266 1406.11C64.6191 1407.59 61.9527 1409.16 59.6219 1410.68C49.9887 1416.73 42.928 1422.75 38.0498 1427.59C36.3993 1429.15 34.9567 1430.72 33.4486 1432.28C117.062 1494.14 214.64 1538.55 315.548 1561.22L315.557 1561.23ZM277.59 1647.93C278.875 1646.57 280.177 1645.23 281.41 1643.81C281.471 1643.75 281.524 1643.67 281.566 1643.62C281.617 1643.57 281.659 1643.52 281.7 1643.46C282.331 1642.75 282.975 1641.99 283.65 1641.18C284.055 1640.7 284.462 1640.2 284.868 1639.7C285.004 1639.53 285.138 1639.37 285.274 1639.2C286.285 1637.96 287.281 1636.66 288.299 1635.32C183.89 1614.47 82.5422 1568.93 -2.73163 1503.96C-3.60747 1509.08 -4.21259 1514.65 -4.48152 1520.68C78.9249 1582.51 176.689 1626.45 277.579 1647.94L277.59 1647.93Z" fill="#C4DBFB"/>
</g>
</g>
<g filter="url(#filter2_d_446_2658)">
<path d="M181.614 1543.59C181.57 1544.07 181.525 1544.55 181.461 1545.03C198.01 1558.55 206.529 1571.21 202.717 1579.26C195.648 1594.19 149.026 1587.85 98.7894 1565.13C48.5444 1542.39 13.4231 1511.76 20.4831 1496.83C23.3683 1490.75 32.7913 1488.2 46.3645 1488.85C50.8003 1489.06 55.6961 1489.63 60.9217 1490.51C61.2518 1490.16 61.5833 1489.8 61.9425 1489.45C39.6296 1485.67 23.3454 1487.68 19.2746 1496.28C11.8888 1511.88 47.3143 1543.31 98.2235 1566.35C127.913 1579.78 156.406 1587.43 176.476 1588.39C190.819 1589.07 200.866 1586.33 203.943 1579.83C208.024 1571.22 199.029 1557.78 181.623 1543.6L181.614 1543.59Z" fill="white"/>
</g>
<path d="M95.8891 1571.41C95.8891 1571.41 88.742 1564.44 81.737 1563.97C74.008 1563.46 60.0176 1575.65 60.0176 1575.65C60.0176 1575.65 73.8334 1563.26 74.3029 1555.49C74.729 1548.45 68.7531 1540.45 68.7531 1540.45C68.7531 1540.45 75.9002 1547.42 82.9053 1547.89C90.6343 1548.4 104.625 1536.21 104.625 1536.21C104.625 1536.21 90.8088 1548.6 90.3393 1556.37C89.9132 1563.41 95.8891 1571.41 95.8891 1571.41Z" fill="white"/>
<path d="M162.381 1530.28C162.381 1530.28 157.67 1525.69 153.044 1525.38C147.947 1525.04 138.718 1533.08 138.718 1533.08C138.718 1533.08 147.825 1524.9 148.14 1519.78C148.421 1515.13 144.477 1509.86 144.477 1509.86C144.477 1509.86 149.188 1514.46 153.814 1514.77C158.911 1515.1 168.14 1507.06 168.14 1507.06C168.14 1507.06 159.033 1515.24 158.718 1520.36C158.437 1525.01 162.381 1530.28 162.381 1530.28Z" fill="white"/>
<path d="M164.027 1602.87C164.027 1602.87 162.562 1601.44 161.124 1601.34C159.545 1601.23 156.67 1603.74 156.67 1603.74C156.67 1603.74 159.5 1601.2 159.606 1599.6C159.692 1598.17 158.46 1596.52 158.46 1596.52C158.46 1596.52 159.925 1597.94 161.363 1598.05C162.943 1598.16 165.818 1595.65 165.818 1595.65C165.818 1595.65 162.988 1598.19 162.881 1599.78C162.796 1601.22 164.027 1602.87 164.027 1602.87Z" fill="white"/>
<path d="M80.7857 1523.42C80.7857 1523.42 78.6233 1521.32 76.5267 1521.17C74.2042 1521.02 69.9879 1524.69 69.9879 1524.69C69.9879 1524.69 74.1519 1520.96 74.293 1518.62C74.4277 1516.51 72.6187 1514.1 72.6187 1514.1C72.6187 1514.1 74.7811 1516.2 76.8777 1516.34C79.2002 1516.49 83.4165 1512.82 83.4165 1512.82C83.4165 1512.82 79.2526 1516.55 79.1114 1518.89C78.9767 1521 80.7857 1523.42 80.7857 1523.42Z" fill="white"/>
</g>
<defs>
<filter id="filter0_d_446_2658" x="134.869" y="678.388" width="53.7061" height="69.4814" filterUnits="userSpaceOnUse" color-interpolation-filters="sRGB">
<feFlood flood-opacity="0" result="BackgroundImageFix"/>
<feColorMatrix in="SourceAlpha" type="matrix" values="0 0 0 0 0 0 0 0 0 0 0 0 0 0 0 0 0 0 127 0" result="hardAlpha"/>
<feOffset/>
<feGaussianBlur stdDeviation="4"/>
<feComposite in2="hardAlpha" operator="out"/>
<feColorMatrix type="matrix" values="0 0 0 0 1 0 0 0 0 1 0 0 0 0 1 0 0 0 0.9 0"/>
<feBlend mode="normal" in2="BackgroundImageFix" result="effect1_dropShadow_446_2658"/>
<feBlend mode="normal" in="SourceGraphic" in2="effect1_dropShadow_446_2658" result="shape"/>
</filter>
<filter id="filter1_d_446_2658" x="161.003" y="1351.86" width="269.042" height="167.141" filterUnits="userSpaceOnUse" color-interpolation-filters="sRGB">
<feFlood flood-opacity="0" result="BackgroundImageFix"/>
<feColorMatrix in="SourceAlpha" type="matrix" values="0 0 0 0 0 0 0 0 0 0 0 0 0 0 0 0 0 0 127 0" result="hardAlpha"/>
<feOffset/>
<feGaussianBlur stdDeviation="20"/>
<feColorMatrix type="matrix" values="0 0 0 0 1 0 0 0 0 1 0 0 0 0 1 0 0 0 0.75 0"/>
<feBlend mode="normal" in2="BackgroundImageFix" result="effect1_dropShadow_446_2658"/>
<feBlend mode="normal" in="SourceGraphic" in2="effect1_dropShadow_446_2658" result="shape"/>
</filter>
<filter id="filter2_d_446_2658" x="8.30078" y="1477.62" width="206.616" height="120.868" filterUnits="userSpaceOnUse" color-interpolation-filters="sRGB">
<feFlood flood-opacity="0" result="BackgroundImageFix"/>
<feColorMatrix in="SourceAlpha" type="matrix" values="0 0 0 0 0 0 0 0 0 0 0 0 0 0 0 0 0 0 127 0" result="hardAlpha"/>
<feOffset/>
<feGaussianBlur stdDeviation="5"/>
<feColorMatrix type="matrix" values="0 0 0 0 1 0 0 0 0 1 0 0 0 0 1 0 0 0 0.75 0"/>
<feBlend mode="normal" in2="BackgroundImageFix" result="effect1_dropShadow_446_2658"/>
<feBlend mode="normal" in="SourceGraphic" in2="effect1_dropShadow_446_2658" result="shape"/>
</filter>
<linearGradient id="paint0_linear_446_2658" x1="199.149" y1="265.561" x2="296.127" y2="-429.155" gradientUnits="userSpaceOnUse">
<stop stop-color="#0F172A"/>
<stop offset="1" stop-color="#315D93"/>
</linearGradient>
<linearGradient id="paint1_linear_446_2658" x1="298.703" y1="544.253" x2="350.13" y2="740.1" gradientUnits="userSpaceOnUse">
<stop stop-color="#5BA6FE"/>
<stop offset="1" stop-color="#365A6F" stop-opacity="0"/>
</linearGradient>
<radialGradient id="paint2_radial_446_2658" cx="0" cy="0" r="1" gradientUnits="userSpaceOnUse" gradientTransform="translate(289.637 1439.71) rotate(-134.702) scale(45.9072 45.9088)">
<stop stop-color="#E05B41"/>
<stop offset="0.73" stop-color="#E05B41"/>
<stop offset="0.99" stop-color="#F58466"/>
</radialGradient>
<radialGradient id="paint3_radial_446_2658" cx="0" cy="0" r="1" gradientUnits="userSpaceOnUse" gradientTransform="translate(85.9995 1516.73) rotate(-85.455) scale(84.4953 84.3643)">
<stop offset="0.03" stop-color="#27B1FF"/>
<stop offset="0.59" stop-color="#5BC3FE"/>
<stop offset="1" stop-color="#D0EEFF"/>
</radialGradient>
<clipPath id="clip0_446_2658">
<rect width="390" height="1637" fill="white" transform="translate(0 0.000976562)"/>
</clipPath>
</defs>
</svg>
