<svg width="109" height="108" viewBox="0 0 109 108" fill="none" xmlns="http://www.w3.org/2000/svg">
<g id="Artboard 1 copy 1">
<g clip-path="url(#clip0_1940_411)">
<g id="Group">
<g id="Layer 1">
<path id="Vector" d="M108.001 0H0.000976562V108H108.001V0Z" fill="url(#paint0_radial_1940_411)"/>
<g id="Group_2" opacity="0.54">
<g id="Vector_2" style="mix-blend-mode:screen">
<path d="M93.4776 137.308C134.782 130.322 164.53 102.573 159.922 75.3294C155.314 48.0855 118.095 31.6633 76.7907 38.6494C35.4866 45.6355 5.73842 73.3843 10.3464 100.628C14.9543 127.872 52.1734 144.294 93.4776 137.308Z" stroke="#5B83D3" stroke-width="0.25" stroke-miterlimit="10"/>
</g>
<g id="Vector_3" style="mix-blend-mode:screen">
<path d="M91.2393 124.076C121.462 118.964 143.229 98.6587 139.857 78.7227C136.485 58.7867 109.251 46.7693 79.0284 51.8811C48.8059 56.9928 27.0391 77.298 30.4111 97.234C33.783 117.17 61.0167 129.187 91.2393 124.076Z" stroke="#5B83D3" stroke-width="0.25" stroke-miterlimit="10"/>
</g>
<g id="Vector_4" style="mix-blend-mode:screen">
<path d="M89.4449 113.466C110.791 109.856 126.166 95.5173 123.785 81.4407C121.404 67.364 102.169 58.8795 80.8229 62.49C59.4765 66.1005 44.102 80.4387 46.4828 94.5153C48.8637 108.592 68.0985 117.076 89.4449 113.466Z" stroke="#5B83D3" stroke-width="0.25" stroke-miterlimit="10"/>
</g>
</g>
<g id="Group_3" opacity="0.31">
<path id="Vector_5" d="M100.304 74.2301C99.8541 74.2301 99.4841 74.9701 99.4841 75.8801C99.4841 74.9701 99.1141 74.2301 98.6641 74.2301C99.1141 74.2301 99.4841 73.4901 99.4841 72.5801C99.4841 73.4901 99.8541 74.2301 100.304 74.2301Z" fill="#7DAAEA"/>
<path id="Vector_6" d="M79.5941 7.56992C79.1441 7.56992 78.7741 8.30992 78.7741 9.21992C78.7741 8.30992 78.4041 7.56992 77.9541 7.56992C78.4041 7.56992 78.7741 6.82992 78.7741 5.91992C78.7741 6.82992 79.1441 7.56992 79.5941 7.56992Z" fill="#7DAAEA"/>
<path id="Vector_7" d="M59.974 35.5309C59.524 35.5309 59.154 36.2709 59.154 37.1809C59.154 36.2709 58.784 35.5309 58.334 35.5309C58.784 35.5309 59.154 34.7909 59.154 33.8809C59.154 34.7909 59.524 35.5309 59.974 35.5309Z" fill="#D7E7FF"/>
<path id="Vector_8" d="M10.1341 88.4898C9.68414 88.4898 9.31414 89.2298 9.31414 90.1398C9.31414 89.2298 8.94414 88.4898 8.49414 88.4898C8.94414 88.4898 9.31414 87.7498 9.31414 86.8398C9.31414 87.7498 9.68414 88.4898 10.1341 88.4898Z" fill="#D7E7FF"/>
<path id="Vector_9" d="M62.3945 19.1503C62.5547 19.1503 62.6845 19.0205 62.6845 18.8603C62.6845 18.7002 62.5547 18.5703 62.3945 18.5703C62.2343 18.5703 62.1045 18.7002 62.1045 18.8603C62.1045 19.0205 62.2343 19.1503 62.3945 19.1503Z" fill="#7DAAEA"/>
<path id="Vector_10" d="M6.82418 9.11906C6.98434 9.11906 7.11418 8.98923 7.11418 8.82906C7.11418 8.6689 6.98434 8.53906 6.82418 8.53906C6.66402 8.53906 6.53418 8.6689 6.53418 8.82906C6.53418 8.98923 6.66402 9.11906 6.82418 9.11906Z" fill="#D7E7FF"/>
<path id="Vector_11" d="M100.305 46.4902C100.465 46.4902 100.595 46.3603 100.595 46.2002C100.595 46.04 100.465 45.9102 100.305 45.9102C100.144 45.9102 100.015 46.04 100.015 46.2002C100.015 46.3603 100.144 46.4902 100.305 46.4902Z" fill="#D7E7FF"/>
<path id="Vector_12" d="M30.9638 8.83C31.124 8.83 31.2538 8.70016 31.2538 8.54C31.2538 8.37984 31.124 8.25 30.9638 8.25C30.8037 8.25 30.6738 8.37984 30.6738 8.54C30.6738 8.70016 30.8037 8.83 30.9638 8.83Z" fill="#D7E7FF"/>
<path id="Vector_13" d="M35.9746 29.4198C36.1347 29.4198 36.2646 29.29 36.2646 29.1298C36.2646 28.9697 36.1347 28.8398 35.9746 28.8398C35.8144 28.8398 35.6846 28.9697 35.6846 29.1298C35.6846 29.29 35.8144 29.4198 35.9746 29.4198Z" fill="#D7E7FF"/>
<path id="Vector_14" d="M9.30465 40.6503C9.46481 40.6503 9.59465 40.5205 9.59465 40.3603C9.59465 40.2002 9.46481 40.0703 9.30465 40.0703C9.14449 40.0703 9.01465 40.2002 9.01465 40.3603C9.01465 40.5205 9.14449 40.6503 9.30465 40.6503Z" fill="#7DAAEA"/>
<path id="Vector_15" d="M6.82418 65.9198C6.98434 65.9198 7.11418 65.79 7.11418 65.6298C7.11418 65.4697 6.98434 65.3398 6.82418 65.3398C6.66402 65.3398 6.53418 65.4697 6.53418 65.6298C6.53418 65.79 6.66402 65.9198 6.82418 65.9198Z" fill="#7DAAEA"/>
<path id="Vector_16" d="M95.5546 93.6308C95.7148 93.6308 95.8447 93.5009 95.8447 93.3408C95.8447 93.1806 95.7148 93.0508 95.5546 93.0508C95.3945 93.0508 95.2646 93.1806 95.2646 93.3408C95.2646 93.5009 95.3945 93.6308 95.5546 93.6308Z" fill="#D7E7FF"/>
<path id="Vector_17" d="M20.0541 20.4605C19.6041 20.4605 19.2341 21.2005 19.2341 22.1105C19.2341 21.2005 18.8641 20.4605 18.4141 20.4605C18.8641 20.4605 19.2341 19.7205 19.2341 18.8105C19.2341 19.7205 19.6041 20.4605 20.0541 20.4605Z" fill="#D7E7FF"/>
</g>
<g id="Group_4">
<path id="Vector_18" d="M80.6018 36.9806C85.4318 38.3206 90.5018 39.3006 94.7218 39.6206C92.1518 43.1306 87.8118 45.4406 82.8818 45.4406C75.1318 45.4406 68.8318 39.7506 68.5918 32.6406C72.1218 34.2806 76.3718 35.8006 80.6018 36.9806Z" fill="url(#paint1_linear_1940_411)"/>
<path id="Vector_19" d="M97.1723 32.22C97.1723 34.51 96.5423 36.66 95.4323 38.54C91.5823 38.3 86.5723 37.45 80.9123 35.88C76.0423 34.52 71.8623 32.95 68.6123 31.41C68.7923 28.67 69.8723 26.15 71.5823 24.12C71.8823 23.76 72.1923 23.42 72.5323 23.1C75.1323 20.57 78.8023 19 82.8823 19C90.0923 19 96.0623 23.94 97.0323 30.37C97.1023 30.8 97.1423 31.24 97.1523 31.69C97.1723 31.87 97.1723 32.04 97.1723 32.22Z" fill="url(#paint2_linear_1940_411)"/>
<g id="Group_5">
<path id="Vector_20" d="M104.343 37.3791C104.113 38.2091 103.343 38.7991 102.173 39.1791C100.993 39.5691 99.4127 39.7391 97.5627 39.7391C96.6727 39.7391 95.7227 39.6991 94.7227 39.6191C94.9827 39.2691 95.2127 38.9091 95.4327 38.5391C100.003 38.8291 102.913 38.2691 103.243 37.0691C103.583 35.8491 101.323 33.8291 97.1527 31.6891C97.1427 31.2391 97.1027 30.7991 97.0327 30.3691C101.793 32.7291 104.923 35.2791 104.343 37.3791Z" fill="#436ECB"/>
<path id="Vector_21" d="M95.432 38.5402C95.212 38.9102 94.982 39.2702 94.722 39.6202C90.502 39.3002 85.432 38.3202 80.602 36.9802C76.372 35.8002 72.122 34.2802 68.592 32.6402C68.582 32.5002 68.582 32.3602 68.582 32.2202C68.582 31.9502 68.592 31.6802 68.612 31.4102C71.862 32.9502 76.042 34.5202 80.912 35.8802C86.572 37.4502 91.582 38.3002 95.432 38.5402Z" fill="#436ECB"/>
<path id="Vector_22" d="M61.1722 25.3593C60.8022 26.6993 63.5822 29.0193 68.6122 31.4093C68.5922 31.6793 68.5822 31.9493 68.5822 32.2193C68.5822 32.3593 68.5822 32.4993 68.5922 32.6393C63.1722 30.1193 59.4422 27.3193 60.0722 25.0493C60.6722 22.9093 64.7122 22.5893 67.9922 22.7093C69.3922 22.7593 70.9122 22.8893 72.5322 23.0993C72.1922 23.4193 71.8822 23.7593 71.5822 24.1193C70.3022 23.9793 69.0923 23.8893 67.9523 23.8493C67.5623 23.8293 67.1922 23.8293 66.8422 23.8293C63.0022 23.8293 61.3822 24.5893 61.1722 25.3593Z" fill="#436ECB"/>
</g>
</g>
<g id="Group_6">
<path id="Vector_23" d="M26.0918 81.0139C30.2772 81.226 34.5926 81.1005 38.0941 80.5917C36.6376 83.9244 33.5181 86.601 29.4956 87.5005C23.1724 88.9144 16.994 85.4214 15.501 79.6641C18.6803 80.3581 22.4253 80.8229 26.0918 81.0139Z" fill="url(#paint3_linear_1940_411)"/>
<path id="Vector_24" d="M38.7426 74.1068C39.1604 75.9752 39.0386 77.8443 38.476 79.5808C35.291 80.0874 31.0482 80.3079 26.1437 80.0596C21.9221 79.8385 18.2252 79.3202 15.2925 78.6567C14.9395 76.3882 15.3609 74.1351 16.3857 72.1668C16.5648 71.8184 16.7557 71.4844 16.9747 71.1613C18.6345 68.6227 21.3424 66.6721 24.6713 65.9277C30.554 64.6122 36.3263 67.5536 38.2908 72.6229C38.4264 72.961 38.5393 73.3127 38.6296 73.678C38.6787 73.8212 38.7098 73.9599 38.7426 74.1068Z" fill="url(#paint4_linear_1940_411)"/>
<g id="Group_7">
<path id="Vector_25" d="M45.5333 77.0093C45.497 77.7284 44.9764 78.3503 44.0912 78.8738C43.1995 79.4073 41.9414 79.8343 40.432 80.1718C39.7058 80.3342 38.9234 80.4749 38.0929 80.5921C38.2412 80.2591 38.3632 79.9234 38.4752 79.5813C42.2568 78.9842 44.5289 77.9963 44.5792 76.957C44.634 75.8996 42.4215 74.6638 38.6288 73.6786C38.5385 73.3132 38.4256 72.9615 38.29 72.6235C42.6043 73.6805 45.6234 75.19 45.5333 77.0093Z" fill="#258AC2"/>
<path id="Vector_26" d="M38.4746 79.5808C38.3626 79.9228 38.2406 80.2585 38.0923 80.5915C34.5908 81.1003 30.2754 81.2258 26.09 81.0137C22.4235 80.8227 18.6785 80.3579 15.4992 79.6638C15.4655 79.5514 15.4399 79.4372 15.4144 79.323C15.3651 79.1027 15.324 78.8806 15.2911 78.6566C18.2237 79.3202 21.9207 79.8385 26.1423 80.0596C31.0468 80.3079 35.2895 80.0874 38.4746 79.5808Z" fill="#258AC2"/>
<path id="Vector_27" d="M8.11731 75.078C8.05991 76.2388 10.7514 77.6245 15.2915 78.6568C15.3244 78.8807 15.3655 79.1028 15.4148 79.3231C15.4403 79.4374 15.4659 79.5516 15.4996 79.664C10.6176 78.5968 7.06339 76.9928 7.16325 75.0257C7.26236 73.1702 10.5002 72.172 13.1983 71.6715C14.3497 71.4569 15.6136 71.2856 16.9737 71.1614C16.7546 71.4845 16.5638 71.8185 16.3847 72.1669C15.3148 72.2862 14.3111 72.4336 13.3737 72.6089C13.0518 72.6638 12.7499 72.7313 12.4644 72.7951C9.33128 73.4957 8.14817 74.4114 8.11731 75.078Z" fill="#258AC2"/>
</g>
</g>
<circle id="Ellipse 10" cx="26.0029" cy="20" r="9" fill="url(#paint5_radial_1940_411)"/>
<circle id="Ellipse 11" cx="96.5029" cy="88.5" r="25.5" fill="url(#paint6_linear_1940_411)"/>
<g id="Vector 3" style="mix-blend-mode:color-dodge">
<path d="M75.0026 102C72.836 93.5 71.9026 74.3 85.5026 65.5C77.5025 68.8333 64.2024 80.8 75.0026 102Z" fill="#F5380E"/>
</g>
</g>
</g>
<ellipse id="Ellipse 12" opacity="0.8" cx="88.502" cy="70" rx="3.5" ry="3" fill="white"/>
<circle id="Ellipse 13" opacity="0.8" cx="83.502" cy="75.5" r="1.5" fill="white"/>
<circle id="Ellipse 14" cx="29.502" cy="18.5" r="1.5" fill="white" fill-opacity="0.8"/>
</g>
</g>
<defs>
<radialGradient id="paint0_radial_1940_411" cx="0" cy="0" r="1" gradientUnits="userSpaceOnUse" gradientTransform="translate(52.961 106.4) scale(107.95)">
<stop stop-color="#2F7FDD"/>
<stop offset="1" stop-color="#041E64"/>
</radialGradient>
<linearGradient id="paint1_linear_1940_411" x1="78.6018" y1="43.3306" x2="82.1518" y2="34.9706" gradientUnits="userSpaceOnUse">
<stop stop-color="#2C6BC6"/>
<stop offset="1" stop-color="#3656D8"/>
</linearGradient>
<linearGradient id="paint2_linear_1940_411" x1="81.9223" y1="34.46" x2="87.7023" y2="20.81" gradientUnits="userSpaceOnUse">
<stop stop-color="#093F8E"/>
<stop offset="1" stop-color="#2547ED"/>
</linearGradient>
<linearGradient id="paint3_linear_1940_411" x1="25.6186" y1="86.5598" x2="26.9898" y2="79.0911" gradientUnits="userSpaceOnUse">
<stop stop-color="#2C6BC6"/>
<stop offset="0.578125" stop-color="#193CCD"/>
</linearGradient>
<linearGradient id="paint4_linear_1940_411" x1="26.7087" y1="78.7168" x2="28.9342" y2="66.5251" gradientUnits="userSpaceOnUse">
<stop stop-color="#0655C9"/>
<stop offset="1" stop-color="#25A5ED"/>
</linearGradient>
<radialGradient id="paint5_radial_1940_411" cx="0" cy="0" r="1" gradientUnits="userSpaceOnUse" gradientTransform="translate(29.0029 15.5) rotate(102.529) scale(13.8293)">
<stop stop-color="#FB923C"/>
<stop offset="1" stop-color="#CD4308"/>
</radialGradient>
<linearGradient id="paint6_linear_1940_411" x1="109.503" y1="111.5" x2="74.5029" y2="78.5" gradientUnits="userSpaceOnUse">
<stop stop-color="#FF512A"/>
<stop offset="1" stop-color="#FB7200"/>
</linearGradient>
<clipPath id="clip0_1940_411">
<rect x="0.333984" width="108" height="108" rx="16" fill="white"/>
</clipPath>
</defs>
</svg>
