<svg width="120" height="120" viewBox="0 0 120 120" fill="none" xmlns="http://www.w3.org/2000/svg">
<g clip-path="url(#clip0_2572_1706)">
<path d="M119.63 0H-0.370499V120H119.63V0Z" fill="url(#paint0_radial_2572_1706)"/>
<path d="M46.9333 79.3889H106.122V51.8111H21V24.5667H81.3889" stroke="#5BC3FE" stroke-width="3" stroke-miterlimit="10" stroke-linejoin="round" stroke-dasharray="5 5"/>
<path d="M7.21111 98.6445C7.21111 98.6445 -2.41111 103.967 -3.32222 109.689C-4.23333 115.411 2.71111 137.889 3.91111 137.289C5.11111 136.689 13.7111 119.045 13.7111 119.045L7.2 98.6445H7.21111Z" fill="#FB7200"/>
<path d="M47.4778 98.6445C47.4778 98.6445 57.1 103.967 58.0111 109.689C58.9222 115.411 51.9778 137.889 50.7778 137.289C49.5778 136.689 40.9778 119.045 40.9778 119.045L47.4889 98.6445H47.4778Z" fill="#FB7200"/>
<path d="M49.5333 89.1223C47.8444 104.156 43.0889 119.756 43.0889 119.756H12.4667C12.4667 119.756 5.03334 99.2223 5.91112 76.9334C6.03334 73.6556 6.62223 70.6 7.53334 67.7778C12.7889 51.4223 28.8333 42.8445 28.8333 42.8445C28.8333 42.8445 43.2 53.2667 48.2889 67.7556C49.1444 70.1889 49.7333 72.7334 49.9556 75.3556C50.3111 79.5334 50.0778 84.3 49.5333 89.1223Z" fill="white"/>
<path d="M48.2889 67.7556V67.7778C48.2889 67.7778 41.3778 71.0778 27.9667 71.0889C14.7 71.1111 7.53333 67.7778 7.53333 67.7778C10.7667 57.7111 18.0778 50.6 23.2333 46.6111C23.2333 46.6111 23.2444 46.6111 23.2556 46.6C26.4667 44.1111 28.8333 42.8445 28.8333 42.8445C28.8333 42.8445 41.0444 51.7 46.9333 64.4445H46.9444C47.4444 65.5334 47.8889 66.6334 48.2889 67.7556Z" fill="#FB7200"/>
<g style="mix-blend-mode:color-dodge" opacity="0.68">
<path d="M46.9333 64.4445C46.4556 63.9111 38.9444 54.0667 32.6222 50.2667C28.2556 47.6445 23.5889 46.5 23.2556 46.6C26.4667 44.1111 28.8333 42.8445 28.8333 42.8445C28.8333 42.8445 41.0444 51.7 46.9333 64.4445Z" fill="#26375A"/>
</g>
<path d="M27.9111 102.778C34.784 102.778 40.3556 97.2062 40.3556 90.3334C40.3556 83.4605 34.784 77.8889 27.9111 77.8889C21.0382 77.8889 15.4667 83.4605 15.4667 90.3334C15.4667 97.2062 21.0382 102.778 27.9111 102.778Z" fill="#BED1FF"/>
<path d="M27.9778 101.011C34.8507 101.011 40.4222 95.4396 40.4222 88.5668C40.4222 81.6939 34.8507 76.1223 27.9778 76.1223C21.1049 76.1223 15.5333 81.6939 15.5333 88.5668C15.5333 95.4396 21.1049 101.011 27.9778 101.011Z" fill="#0075FF"/>
<path d="M27.9778 97.6778C33.0097 97.6778 37.0889 93.5986 37.0889 88.5667C37.0889 83.5347 33.0097 79.4556 27.9778 79.4556C22.9459 79.4556 18.8667 83.5347 18.8667 88.5667C18.8667 93.5986 22.9459 97.6778 27.9778 97.6778Z" fill="url(#paint1_radial_2572_1706)"/>
<path style="mix-blend-mode:color-dodge" opacity="0.8" d="M37.1 88.5668C37.1 90.9557 36.1778 93.1224 34.6667 94.7446C33 96.5557 30.6222 97.6779 27.9778 97.6779C22.9444 97.6779 18.8667 93.6001 18.8667 88.5668C18.8667 86.7668 19.3889 85.1001 20.2889 83.689C21.9 81.1335 24.7444 79.4446 27.9778 79.4446C33.0111 79.4446 37.1 83.5335 37.1 88.5668Z" fill="url(#paint2_radial_2572_1706)"/>
<path d="M49.5333 89.1223C47.8445 104.156 43.0889 119.756 43.0889 119.756H26.2222L49.5333 89.1223Z" fill="#BED1FF"/>
<path d="M32.2889 80.5334L18.9778 89.989C18.9778 89.989 18.9556 91.8334 20.2889 93.4668L33.0556 81.0001L32.2889 80.5334Z" fill="white"/>
<path d="M33.7667 81.5222L22.5111 95.8667C22.5111 95.8667 24.4444 97.5444 25.5889 97.4444L34.3667 82.0778L33.7556 81.5333L33.7667 81.5222Z" fill="white"/>
<g style="mix-blend-mode:overlay">
<path d="M34.6667 94.7446C34.8222 94.2668 36.8889 87.7001 32.1333 83.689C27.2 79.5112 20.2889 83.689 20.2889 83.689C21.9 81.1335 24.7445 79.4446 27.9778 79.4446C33.0111 79.4446 37.1 83.5335 37.1 88.5668C37.1 90.9557 36.1778 93.1224 34.6667 94.7446Z" fill="white"/>
</g>
<path d="M91.5333 28.0222C96.9 29.5111 102.533 30.6 107.222 30.9555C104.367 34.8555 99.5444 37.4222 94.0667 37.4222C85.4556 37.4222 78.4556 31.1 78.1889 23.2C82.1111 25.0222 86.8333 26.7111 91.5333 28.0222Z" fill="url(#paint3_linear_2572_1706)"/>
<path d="M109.944 22.7333C109.944 25.2778 109.244 27.6667 108.011 29.7555C103.733 29.4889 98.1667 28.5444 91.8778 26.8C86.4667 25.2889 81.8222 23.5444 78.2111 21.8333C78.4111 18.7889 79.6111 15.9889 81.5111 13.7333C81.8444 13.3333 82.1889 12.9555 82.5667 12.6C85.4555 9.78888 89.5333 8.04443 94.0667 8.04443C102.078 8.04443 108.711 13.5333 109.789 20.6778C109.867 21.1555 109.911 21.6444 109.922 22.1444C109.944 22.3444 109.944 22.5333 109.944 22.7333Z" fill="url(#paint4_linear_2572_1706)"/>
<path d="M117.911 28.4666C117.656 29.3888 116.8 30.0444 115.5 30.4666C114.189 30.9 112.433 31.0888 110.378 31.0888C109.389 31.0888 108.333 31.0444 107.222 30.9555C107.511 30.5666 107.767 30.1666 108.011 29.7555C113.089 30.0777 116.322 29.4555 116.689 28.1222C117.067 26.7666 114.556 24.5222 109.922 22.1444C109.911 21.6444 109.867 21.1555 109.789 20.6777C115.078 23.3 118.556 26.1333 117.911 28.4666Z" fill="#436ECB"/>
<path d="M108.011 29.7555C107.767 30.1666 107.511 30.5666 107.222 30.9555C102.533 30.5999 96.9 29.511 91.5333 28.0221C86.8333 26.711 82.1111 25.0221 78.1889 23.1999C78.1778 23.0444 78.1778 22.8888 78.1778 22.7333C78.1778 22.4333 78.1889 22.1333 78.2111 21.8333C81.8222 23.5444 86.4667 25.2888 91.8778 26.7999C98.1667 28.5444 103.733 29.4888 108.011 29.7555Z" fill="#436ECB"/>
<path d="M69.9444 15.1111C69.5333 16.5999 72.6222 19.1777 78.2111 21.8333C78.1889 22.1333 78.1778 22.4333 78.1778 22.7333C78.1778 22.8888 78.1778 23.0444 78.1889 23.1999C72.1667 20.3999 68.0222 17.2888 68.7222 14.7666C69.3889 12.3888 73.8778 12.0333 77.5222 12.1666C79.0778 12.2222 80.7667 12.3666 82.5667 12.5999C82.1889 12.9555 81.8444 13.3333 81.5111 13.7333C80.0889 13.5777 78.7444 13.4777 77.4778 13.4333C77.0444 13.4111 76.6333 13.4111 76.2444 13.4111C71.9778 13.4111 70.1778 14.2555 69.9444 15.1111Z" fill="#436ECB"/>
</g>
<defs>
<radialGradient id="paint0_radial_2572_1706" cx="0" cy="0" r="1" gradientUnits="userSpaceOnUse" gradientTransform="translate(58.4739 118.222) scale(119.944)">
<stop stop-color="#2F7FDD"/>
<stop offset="1" stop-color="#041E64"/>
</radialGradient>
<radialGradient id="paint1_radial_2572_1706" cx="0" cy="0" r="1" gradientUnits="userSpaceOnUse" gradientTransform="translate(37.6 81.4889) scale(21.4333)">
<stop stop-color="#0E7DC9"/>
<stop offset="0.05" stop-color="#0E74BE"/>
<stop offset="0.23" stop-color="#10599C"/>
<stop offset="0.41" stop-color="#114382"/>
<stop offset="0.6" stop-color="#12346F"/>
<stop offset="0.79" stop-color="#122B63"/>
<stop offset="1" stop-color="#132860"/>
</radialGradient>
<radialGradient id="paint2_radial_2572_1706" cx="0" cy="0" r="1" gradientUnits="userSpaceOnUse" gradientTransform="translate(27.9778 88.5668) scale(9.11111 9.11111)">
<stop stop-color="#0E7DC9"/>
<stop offset="0.05" stop-color="#0E74BE"/>
<stop offset="0.23" stop-color="#10599C"/>
<stop offset="0.41" stop-color="#114382"/>
<stop offset="0.6" stop-color="#12346F"/>
<stop offset="0.79" stop-color="#122B63"/>
<stop offset="1" stop-color="#132860"/>
</radialGradient>
<linearGradient id="paint3_linear_2572_1706" x1="89.3111" y1="35.0777" x2="93.2556" y2="25.7888" gradientUnits="userSpaceOnUse">
<stop stop-color="#2C6BC6"/>
<stop offset="1" stop-color="#3656D8"/>
</linearGradient>
<linearGradient id="paint4_linear_2572_1706" x1="93" y1="25.2222" x2="99.4222" y2="10.0555" gradientUnits="userSpaceOnUse">
<stop stop-color="#093F8E"/>
<stop offset="1" stop-color="#2547ED"/>
</linearGradient>
<clipPath id="clip0_2572_1706">
<rect width="120" height="120" rx="16" fill="white"/>
</clipPath>
</defs>
</svg>
