<svg width="1440" height="2106" viewBox="0 0 1440 2106" fill="none" xmlns="http://www.w3.org/2000/svg">
<g clip-path="url(#clip0_609_2502)">
<path fill-rule="evenodd" clip-rule="evenodd" d="M1440 0H0V1530.85V1545H0.21824C9.72081 1852.79 328.34 2100 720 2100C1111.66 2100 1430.28 1852.79 1439.78 1545H1440V1530.85V0Z" fill="url(#paint0_linear_609_2502)"/>
<mask id="mask0_609_2502" style="mask-type:alpha" maskUnits="userSpaceOnUse" x="0" y="961" width="1440" height="1139">
<path d="M1440 1530.85C1440 1845.18 1117.65 2100 720 2100C322.355 2100 0 1845.18 0 1530.85C0 1216.51 322.355 961.695 720 961.695C1117.65 961.695 1440 1216.51 1440 1530.85Z" fill="url(#paint1_linear_609_2502)"/>
</mask>
<g mask="url(#mask0_609_2502)">
<mask id="mask1_609_2502" style="mask-type:luminance" maskUnits="userSpaceOnUse" x="-70" y="1630" width="1679" height="473">
<path d="M-32.5293 1647.48C34.8543 1614.46 120.249 1629.22 174.486 1683.29C190.181 1698.92 203.646 1717.64 222.208 1729.14C272.651 1760.43 337.573 1727.38 394.417 1741.2C490.699 1764.61 532.137 1910.92 630.36 1921.55C670.437 1925.89 710.601 1906.08 748.274 1894.11C803.785 1876.47 864.74 1859.05 918.051 1883.29C966.786 1905.46 1002.43 1960.15 1055.13 1965.51C1097.44 1969.82 1135.35 1940.65 1173.69 1921.05C1264.23 1874.8 1373.4 1882.27 1460.74 1933.7C1524.85 1971.47 1575.58 2032.67 1609 2102.36H-70L-32.5293 1647.45V1647.48Z" fill="white"/>
</mask>
<g mask="url(#mask1_609_2502)">
<path d="M-32.5293 1647.48C34.8542 1614.46 120.249 1629.22 174.486 1683.29C190.181 1698.92 203.646 1717.64 222.208 1729.14C272.651 1760.43 337.573 1727.38 394.417 1741.2C490.699 1764.61 532.137 1910.92 630.36 1921.55C670.437 1925.89 710.601 1906.08 748.274 1894.11C803.785 1876.47 864.74 1859.05 918.051 1883.29C966.786 1905.46 1002.43 1960.15 1055.13 1965.51C1097.44 1969.82 1135.35 1940.65 1173.69 1921.05C1264.23 1874.8 1373.4 1882.27 1460.74 1933.7C1524.85 1971.47 1575.58 2032.67 1609 2102.36H-70L-32.5293 1647.45V1647.48Z" fill="url(#paint2_linear_609_2502)"/>
</g>
<g opacity="0.2">
<mask id="mask2_609_2502" style="mask-type:luminance" maskUnits="userSpaceOnUse" x="987" y="1635" width="260" height="259">
<path d="M1116.11 1635.74C1187.37 1636.22 1245.54 1694.39 1246.04 1765.66C1246.53 1836.93 1189.17 1894.32 1117.91 1893.83C1046.65 1893.35 988.481 1835.18 987.984 1763.91C987.488 1692.64 1044.85 1635.25 1116.11 1635.74Z" fill="white"/>
</mask>
<g mask="url(#mask2_609_2502)">
<path d="M1116.11 1635.74C1187.37 1636.22 1245.54 1694.39 1246.04 1765.66C1246.53 1836.93 1189.17 1894.32 1117.91 1893.83C1046.65 1893.35 988.481 1835.18 987.984 1763.91C987.488 1692.64 1044.85 1635.25 1116.11 1635.74Z" fill="url(#paint3_linear_609_2502)"/>
<path opacity="0.3" d="M1196.32 1841.03C1205.6 1840.03 1214.94 1839.07 1224.26 1838C1229.2 1830.69 1233.39 1822.83 1236.75 1814.54C1207.88 1815.66 1178.92 1816.06 1151.25 1823.69C1132.52 1828.87 1114.93 1837.25 1097.9 1846.42C1090.52 1850.39 1081.46 1854.03 1074.97 1859.37C1071.78 1862.01 1064.44 1871.51 1073.57 1871.3C1083.61 1871.05 1092.25 1864.9 1101.22 1861.22C1111.15 1857.14 1121.44 1853.96 1131.88 1851.36C1153 1846.11 1174.67 1843.36 1196.31 1841.02L1196.32 1841.03ZM1130.68 1804.61C1097.96 1819.77 1075.82 1850.71 1046.85 1872.13C1042.22 1869.07 1037.8 1865.72 1033.62 1862.11C1044.43 1855.95 1054.69 1848.83 1064.21 1840.84C1094.62 1815.29 1117.62 1781.04 1151.24 1759.85C1175.28 1744.7 1203.32 1737.19 1231.07 1730.75C1234.16 1730.04 1237.28 1729.34 1240.41 1728.7C1243.97 1740.43 1245.95 1752.84 1246.04 1765.67C1246.09 1773.16 1245.49 1780.5 1244.32 1787.64C1234.67 1788.6 1225 1789.4 1215.32 1790.03C1186.52 1791.9 1156.73 1792.54 1130.68 1804.61ZM1165 1702.18C1151.84 1706.65 1138.37 1711.29 1127.76 1720.21C1113.94 1731.82 1106.57 1749.35 1094.4 1762.69C1077.89 1780.76 1053.99 1789.77 1032.47 1801.51C1021.81 1807.32 1011.2 1814.53 1002.76 1823.3C993.441 1805.48 988.096 1785.29 987.947 1763.92C987.892 1755.97 988.559 1748.17 989.888 1740.62C1009.8 1728.32 1027.85 1712.45 1046.27 1697.81C1076.43 1673.84 1110.44 1652.13 1146.71 1639.62C1174.74 1646.61 1199.26 1662.71 1216.93 1684.54C1199.61 1690.42 1182.3 1696.3 1165 1702.17L1165 1702.18ZM1016.73 1699.03C1011.92 1700.96 1007.04 1702.76 1002.12 1704.39C1010.31 1688.56 1021.71 1674.7 1035.49 1663.65C1038.21 1673.68 1037.22 1684.33 1030.06 1691.34C1026.37 1694.94 1021.53 1697.1 1016.74 1699.03L1016.73 1699.03ZM1079.54 1887.78C1100.06 1874.04 1124.71 1866.47 1149.57 1866.35C1164.1 1866.28 1178.67 1868.66 1193.17 1869.98C1172.06 1885.16 1146.07 1894.01 1117.9 1893.82C1104.56 1893.73 1091.68 1891.63 1079.54 1887.78Z" fill="url(#paint4_linear_609_2502)"/>
</g>
<path d="M1246.27 1761.62C1246.24 1760.73 1246.19 1759.85 1246.15 1758.97C1278.04 1735.9 1295.1 1713.6 1288.96 1698.47C1277.6 1670.47 1191.23 1677.43 1096.42 1713.99C1001.6 1750.55 933.696 1803.09 945.036 1831.09C949.663 1842.5 966.718 1848.09 991.731 1848.26C999.896 1848.31 1008.95 1847.75 1018.66 1846.66C1019.23 1847.33 1019.82 1848.01 1020.41 1848.69C978.984 1853.4 949.292 1848.12 942.739 1831.97C930.884 1802.7 999.401 1748.76 1095.49 1711.71C1151.51 1690.11 1204.72 1678.94 1241.71 1679.19C1268.16 1679.37 1286.3 1685.38 1291.25 1697.59C1297.79 1713.74 1279.82 1737.42 1246.26 1761.62L1246.27 1761.62Z" fill="#789BF5"/>
</g>
</g>
<mask id="mask3_609_2502" style="mask-type:luminance" maskUnits="userSpaceOnUse" x="906" y="1747" width="166" height="166">
<path d="M906.539 1834.96C906.506 1834.3 906.478 1833.66 906.456 1833.02C906.245 1827.2 906.645 1820.35 908.318 1812.78C909.052 1809.08 910.38 1804.2 912.792 1798.54C913.359 1797.15 914.053 1795.63 914.793 1794.14C914.971 1793.78 915.154 1793.42 915.332 1793.06C915.404 1792.92 915.476 1792.78 915.549 1792.64C915.76 1792.23 915.965 1791.84 916.177 1791.45C917.277 1789.39 918.422 1787.45 919.6 1785.64C919.978 1785.05 920.367 1784.45 920.756 1783.87C920.806 1783.8 920.856 1783.73 920.906 1783.66C921.19 1783.24 921.473 1782.84 921.757 1782.44C924.091 1779.14 926.52 1776.29 928.915 1773.81C929.365 1773.33 929.832 1772.87 930.293 1772.4C930.493 1772.2 930.693 1772 930.888 1771.8C931.083 1771.61 931.266 1771.43 931.46 1771.24C931.549 1771.15 931.633 1771.08 931.716 1770.99C931.811 1770.9 931.905 1770.81 931.994 1770.72C932.161 1770.56 932.344 1770.4 932.522 1770.23C935.751 1767.23 938.452 1765.15 940.731 1763.51C940.792 1763.47 940.859 1763.42 940.92 1763.37C940.892 1763.4 940.864 1763.42 940.836 1763.44C941.07 1763.27 941.303 1763.11 941.526 1762.95C942.459 1762.26 943.582 1761.55 944.727 1760.84C945.349 1760.44 945.961 1760.04 946.511 1759.72C948 1758.82 950.023 1757.68 951.58 1756.92C951.596 1756.92 951.613 1756.91 951.624 1756.9C952.38 1756.52 953.13 1756.15 953.858 1755.81C953.864 1755.81 953.875 1755.8 953.881 1755.8C953.903 1755.79 953.925 1755.79 953.947 1755.78C954.386 1755.57 954.825 1755.37 955.22 1755.19C955.792 1754.94 956.337 1754.71 956.887 1754.48C958.56 1753.76 960.316 1753.08 962.15 1752.45C962.167 1752.45 962.184 1752.44 962.201 1752.43C963.646 1751.94 965.135 1751.46 966.697 1751.04C974.511 1748.81 982.536 1747.81 990.745 1748.03C994.969 1748.07 999.882 1748.56 1005.14 1749.63L1005.72 1749.75C1005.72 1749.75 1005.74 1749.75 1005.75 1749.75C1005.76 1749.75 1005.78 1749.75 1005.8 1749.76C1007.21 1750.05 1008.62 1750.37 1010.14 1750.78C1011.15 1751.03 1012.31 1751.38 1013.3 1751.69C1013.32 1751.69 1013.34 1751.7 1013.36 1751.7C1013.46 1751.74 1013.57 1751.77 1013.66 1751.8H1013.67C1015.29 1752.31 1016.01 1752.54 1017.2 1752.99C1017.34 1753.04 1017.48 1753.09 1017.59 1753.14C1017.59 1753.14 1017.59 1753.14 1017.6 1753.14C1018.92 1753.61 1019.83 1753.97 1020.99 1754.47C1021.72 1754.78 1022.46 1755.1 1023.2 1755.44C1023.24 1755.46 1023.29 1755.48 1023.32 1755.5C1024.27 1755.92 1025.21 1756.38 1026.14 1756.85C1026.18 1756.87 1026.21 1756.88 1026.25 1756.91C1027.07 1757.32 1027.87 1757.74 1028.68 1758.19C1029.26 1758.5 1029.8 1758.81 1030.34 1759.13C1030.56 1759.25 1030.77 1759.37 1030.97 1759.49C1036.49 1762.73 1040.51 1765.94 1042.93 1768.09C1043.18 1768.31 1043.37 1768.48 1043.47 1768.57C1044.59 1769.55 1045.61 1770.49 1046.4 1771.27C1046.66 1771.52 1046.93 1771.79 1047.21 1772.07C1047.23 1772.09 1047.26 1772.11 1047.28 1772.13L1047.35 1772.2C1048.67 1773.52 1050.28 1775.19 1052.23 1777.53C1061.43 1788.34 1067.46 1801.09 1069.99 1814.92C1070.07 1815.32 1070.14 1815.72 1070.21 1816.12C1070.22 1816.17 1070.23 1816.22 1070.24 1816.28C1070.61 1818.41 1070.92 1820.6 1071.06 1822.46C1071.07 1822.58 1071.07 1822.7 1071.08 1822.82C1071.21 1824.31 1071.3 1825.93 1071.36 1827.6C1071.37 1827.87 1071.39 1828.14 1071.41 1828.4L1071.39 1829.24C1071.41 1829.81 1071.41 1830.38 1071.41 1830.95C1071.41 1832.31 1071.38 1833.64 1071.3 1834.83C1071.24 1835.9 1071.15 1836.93 1071.06 1837.94C1071.04 1838.06 1071.03 1838.18 1071.02 1838.29C1070.99 1838.64 1070.96 1839 1070.92 1839.34C1070.86 1839.92 1070.79 1840.46 1070.72 1840.98C1070.72 1841.02 1070.71 1841.05 1070.71 1841.09C1070.7 1841.14 1070.7 1841.19 1070.69 1841.23C1068.95 1855.04 1063.75 1867.92 1055.41 1879.08C1055.2 1879.36 1054.99 1879.65 1054.77 1879.93C1054.68 1880.06 1054.58 1880.18 1054.49 1880.31C1054.17 1880.72 1053.86 1881.1 1053.56 1881.47C1046.61 1890.27 1038.3 1897 1029.59 1901.89C1014.67 1910.51 998.982 1913.68 984.654 1912.45C984.637 1912.45 984.621 1912.45 984.609 1912.45C984.482 1912.44 984.348 1912.43 984.215 1912.43C983.542 1912.39 982.853 1912.34 982.136 1912.28C981.864 1912.25 981.597 1912.23 981.325 1912.2C980.947 1912.17 980.586 1912.13 980.235 1912.1C980.224 1912.1 980.213 1912.1 980.208 1912.1C979.769 1912.05 979.352 1912 978.974 1911.96C978.957 1911.96 978.935 1911.96 978.918 1911.95C977.279 1911.76 976.223 1911.58 976.139 1911.57C974.75 1911.37 973.872 1911.21 972.388 1910.89C972.305 1910.87 972.216 1910.86 972.138 1910.85C972.138 1910.85 972.132 1910.85 972.127 1910.85C972.021 1910.82 971.915 1910.8 971.804 1910.77C971.699 1910.75 971.599 1910.72 971.488 1910.7C970.904 1910.57 970.293 1910.44 969.648 1910.29L969.364 1910.23L968.286 1909.95C968.258 1909.95 968.225 1909.94 968.197 1909.93H968.164C967.075 1909.67 965.696 1909.26 964.563 1908.91C964.546 1908.9 964.524 1908.9 964.507 1908.89C964.401 1908.86 964.285 1908.82 964.185 1908.79C963.973 1908.72 963.784 1908.66 963.601 1908.61C963.551 1908.59 963.501 1908.57 963.451 1908.56C962.278 1908.18 961.595 1907.95 960.533 1907.55C960.439 1907.52 960.328 1907.48 960.239 1907.44C960.222 1907.44 960.2 1907.43 960.183 1907.42C959.461 1907.15 958.721 1906.87 957.971 1906.56C957.671 1906.44 957.382 1906.32 957.087 1906.2C956.748 1906.05 956.409 1905.91 956.065 1905.76C955.703 1905.61 955.32 1905.44 954.92 1905.26C953.447 1904.6 952.052 1903.91 950.718 1903.22C950.685 1903.2 950.651 1903.19 950.618 1903.17C943.165 1899.29 937.863 1895.11 934.929 1892.51C934.673 1892.29 934.484 1892.12 934.384 1892.03C933.611 1891.33 932.872 1890.65 932.116 1889.94C931.894 1889.74 931.672 1889.53 931.444 1889.33C930.566 1888.51 929.176 1887.1 927.676 1885.44C924.774 1882.26 922.207 1878.95 920.006 1875.56C919.661 1875.04 919.328 1874.52 919.028 1874.03C918.789 1873.67 918.544 1873.26 918.294 1872.84C913.481 1865.05 910.786 1857.76 909.279 1851.86C909.152 1851.38 909.035 1850.91 908.929 1850.46C908.913 1850.4 908.896 1850.31 908.879 1850.24C907.518 1844.85 906.823 1839.81 906.556 1835.23C906.556 1835.16 906.545 1835.08 906.545 1835L906.539 1834.96Z" fill="white"/>
</mask>
<g mask="url(#mask3_609_2502)">
<path d="M906.54 1834.96C906.507 1834.3 906.479 1833.66 906.456 1833.02C906.245 1827.2 906.645 1820.35 908.318 1812.78C909.052 1809.08 910.38 1804.2 912.792 1798.54C913.359 1797.15 914.054 1795.63 914.793 1794.14C914.971 1793.78 915.154 1793.42 915.332 1793.06C915.405 1792.92 915.477 1792.78 915.549 1792.64C915.76 1792.23 915.966 1791.84 916.177 1791.45C917.277 1789.39 918.422 1787.45 919.601 1785.64C919.979 1785.05 920.368 1784.45 920.757 1783.87C920.807 1783.8 920.857 1783.73 920.907 1783.66C921.19 1783.24 921.474 1782.84 921.757 1782.44C924.091 1779.14 926.52 1776.29 928.915 1773.81C929.366 1773.33 929.833 1772.87 930.294 1772.4C930.494 1772.2 930.694 1772 930.888 1771.8C931.083 1771.61 931.266 1771.43 931.461 1771.24C931.55 1771.15 931.633 1771.08 931.717 1770.99C931.811 1770.9 931.906 1770.81 931.994 1770.72C932.161 1770.56 932.345 1770.4 932.522 1770.23C935.752 1767.23 938.453 1765.15 940.731 1763.51C940.792 1763.47 940.859 1763.42 940.92 1763.37C940.892 1763.4 940.865 1763.42 940.837 1763.44C941.07 1763.27 941.304 1763.11 941.526 1762.95C942.46 1762.26 943.582 1761.55 944.727 1760.84C945.35 1760.44 945.961 1760.04 946.511 1759.72C948.001 1758.82 950.024 1757.68 951.58 1756.92C951.597 1756.92 951.613 1756.91 951.625 1756.9C952.38 1756.52 953.131 1756.15 953.859 1755.81C953.864 1755.81 953.875 1755.8 953.881 1755.8C953.903 1755.79 953.925 1755.79 953.948 1755.78C954.387 1755.57 954.826 1755.37 955.22 1755.19C955.793 1754.94 956.338 1754.71 956.888 1754.48C958.561 1753.76 960.317 1753.08 962.151 1752.45C962.168 1752.45 962.184 1752.44 962.201 1752.43C963.646 1751.94 965.135 1751.46 966.697 1751.04C974.511 1748.81 982.537 1747.81 990.746 1748.03C994.97 1748.07 999.883 1748.56 1005.14 1749.63L1005.72 1749.75C1005.72 1749.75 1005.74 1749.75 1005.75 1749.75C1005.76 1749.75 1005.78 1749.75 1005.8 1749.76C1007.21 1750.05 1008.62 1750.37 1010.14 1750.78C1011.15 1751.03 1012.31 1751.38 1013.3 1751.69C1013.32 1751.69 1013.34 1751.7 1013.36 1751.7C1013.46 1751.74 1013.57 1751.77 1013.66 1751.8H1013.67C1015.29 1752.31 1016.01 1752.54 1017.2 1752.99C1017.34 1753.04 1017.48 1753.09 1017.6 1753.14C1017.6 1753.14 1017.6 1753.14 1017.6 1753.14C1018.92 1753.61 1019.83 1753.97 1020.99 1754.47C1021.72 1754.78 1022.46 1755.1 1023.2 1755.44C1023.24 1755.46 1023.29 1755.48 1023.33 1755.5C1024.27 1755.92 1025.21 1756.38 1026.14 1756.85C1026.18 1756.87 1026.22 1756.88 1026.25 1756.91C1027.07 1757.32 1027.87 1757.74 1028.68 1758.19C1029.26 1758.5 1029.8 1758.81 1030.34 1759.13C1030.56 1759.25 1030.77 1759.37 1030.97 1759.49C1036.49 1762.73 1040.51 1765.94 1042.93 1768.09C1043.18 1768.31 1043.37 1768.48 1043.47 1768.57C1044.6 1769.55 1045.61 1770.49 1046.4 1771.27C1046.66 1771.52 1046.93 1771.79 1047.21 1772.07C1047.23 1772.09 1047.26 1772.11 1047.28 1772.13L1047.35 1772.2C1048.67 1773.52 1050.28 1775.19 1052.23 1777.53C1061.44 1788.34 1067.47 1801.09 1069.99 1814.92C1070.07 1815.32 1070.14 1815.72 1070.21 1816.12C1070.22 1816.17 1070.23 1816.22 1070.24 1816.28C1070.61 1818.41 1070.92 1820.6 1071.06 1822.46C1071.07 1822.58 1071.07 1822.7 1071.08 1822.82C1071.21 1824.31 1071.3 1825.93 1071.36 1827.6C1071.37 1827.87 1071.39 1828.14 1071.41 1828.4L1071.39 1829.24C1071.41 1829.81 1071.41 1830.38 1071.41 1830.95C1071.41 1832.31 1071.38 1833.64 1071.3 1834.83C1071.24 1835.9 1071.15 1836.93 1071.06 1837.94C1071.04 1838.06 1071.03 1838.18 1071.02 1838.29C1070.99 1838.64 1070.96 1839 1070.92 1839.34C1070.86 1839.92 1070.79 1840.46 1070.72 1840.98C1070.72 1841.02 1070.71 1841.05 1070.71 1841.09C1070.71 1841.14 1070.7 1841.19 1070.69 1841.23C1068.95 1855.04 1063.75 1867.92 1055.41 1879.08C1055.2 1879.36 1054.99 1879.65 1054.77 1879.93C1054.68 1880.06 1054.58 1880.18 1054.49 1880.31C1054.17 1880.72 1053.87 1881.1 1053.56 1881.47C1046.61 1890.27 1038.3 1897 1029.59 1901.89C1014.67 1910.51 998.982 1913.68 984.654 1912.45C984.638 1912.45 984.621 1912.45 984.61 1912.45C984.482 1912.44 984.349 1912.43 984.215 1912.43C983.543 1912.39 982.854 1912.34 982.137 1912.28C981.864 1912.25 981.598 1912.23 981.325 1912.2C980.947 1912.17 980.586 1912.13 980.236 1912.1C980.225 1912.1 980.214 1912.1 980.208 1912.1C979.769 1912.05 979.352 1912 978.974 1911.96C978.958 1911.96 978.935 1911.96 978.919 1911.95C977.279 1911.76 976.223 1911.58 976.14 1911.57C974.75 1911.37 973.872 1911.21 972.388 1910.89C972.305 1910.87 972.216 1910.86 972.138 1910.85C972.138 1910.85 972.133 1910.85 972.127 1910.85C972.022 1910.82 971.916 1910.8 971.805 1910.77C971.699 1910.75 971.599 1910.72 971.488 1910.7C970.904 1910.57 970.293 1910.44 969.648 1910.29L969.365 1910.23L968.287 1909.95C968.259 1909.95 968.226 1909.94 968.198 1909.93H968.164C967.075 1909.67 965.697 1909.26 964.563 1908.91C964.546 1908.9 964.524 1908.9 964.507 1908.89C964.402 1908.86 964.285 1908.82 964.185 1908.79C963.974 1908.72 963.785 1908.66 963.602 1908.61C963.552 1908.59 963.502 1908.57 963.452 1908.56C962.279 1908.18 961.595 1907.95 960.534 1907.55C960.439 1907.52 960.328 1907.48 960.239 1907.44C960.222 1907.44 960.2 1907.43 960.184 1907.42C959.461 1907.15 958.722 1906.87 957.972 1906.56C957.671 1906.44 957.382 1906.32 957.088 1906.2C956.749 1906.05 956.41 1905.91 956.065 1905.76C955.704 1905.61 955.32 1905.44 954.92 1905.26C953.447 1904.6 952.052 1903.91 950.719 1903.22C950.685 1903.2 950.652 1903.19 950.619 1903.17C943.166 1899.29 937.864 1895.11 934.929 1892.51C934.673 1892.29 934.484 1892.12 934.384 1892.03C933.612 1891.33 932.873 1890.65 932.117 1889.94C931.894 1889.74 931.672 1889.53 931.444 1889.33C930.566 1888.51 929.177 1887.1 927.676 1885.44C924.775 1882.26 922.207 1878.95 920.006 1875.56C919.662 1875.04 919.328 1874.52 919.028 1874.03C918.789 1873.67 918.545 1873.26 918.295 1872.84C913.482 1865.05 910.786 1857.76 909.28 1851.86C909.152 1851.38 909.035 1850.91 908.93 1850.46C908.913 1850.4 908.896 1850.31 908.88 1850.24C907.518 1844.85 906.823 1839.81 906.557 1835.23C906.557 1835.16 906.545 1835.08 906.545 1835L906.54 1834.96Z" fill="url(#paint5_radial_609_2502)"/>
<path d="M1212.73 1926.52C1214.03 1938.97 1209.89 1949.1 1200.77 1956.32C1196.26 1951.83 1192.11 1947.34 1188.2 1942.94C1176.77 1930.07 1166.34 1917.1 1150.67 1904.12C1132.47 1889.07 1107.67 1874.9 1083.44 1865.33C1071.84 1860.74 1063.74 1859.63 1053.07 1856.44C1039.26 1852.3 1022.69 1845 1008.47 1839.31C981.631 1828.57 954.376 1816.96 928.46 1802.85C899.798 1787.24 874.305 1769.41 850.217 1751.16C851.901 1749.61 853.791 1748.17 855.881 1746.85C881.924 1764.67 908.68 1782.73 938.058 1798.36C967.775 1814.17 997.065 1818.66 1025.47 1826.55C1048.41 1832.92 1072.76 1840.8 1096.34 1852.75C1138.59 1874.16 1171.53 1905.05 1212.73 1926.52V1926.52Z" fill="#FED09E"/>
<path d="M946.318 1793.6C981.76 1807.41 1010.14 1808.56 1043.27 1817.73C1065.08 1823.76 1088.9 1832.7 1110.69 1844.95C1135.37 1858.83 1155.66 1875.87 1180.57 1889.47C1188.09 1893.57 1195.91 1897.26 1203.7 1900.42C1199.8 1893.34 1194.65 1885.83 1188.2 1877.96C1176.23 1863.35 1160.83 1848.77 1143.12 1834.84C1137.86 1835.98 1129.94 1835.12 1121.53 1833.18C1090.09 1825.9 1054.41 1805.68 1020.53 1792.51C990.296 1780.76 962.024 1774.84 932.707 1766.06C912.304 1759.95 889.723 1751.56 869.737 1740.77C866.969 1741.59 864.385 1742.55 861.995 1743.62C863.101 1744.55 864.168 1745.48 865.23 1746.4C886.494 1764.81 916.934 1782.16 946.318 1793.61V1793.6Z" fill="#FFA776"/>
<path d="M896.836 1736.92C921.746 1745.77 946.656 1754.62 971.572 1763.47C1009.76 1777.03 1048.86 1790.85 1082.83 1796.71C1084.44 1796.99 1086.05 1797.25 1087.65 1797.51C1038.46 1769.05 982.443 1747.2 933.757 1739.63C920.04 1737.5 907.707 1736.63 896.836 1736.91V1736.92Z" fill="#FED09E"/>
<path d="M981.105 1916.89C1000.85 1927.45 1021.41 1936.87 1041.94 1944.7C1037.66 1938.26 1033.82 1931.87 1029.39 1925.42C1019.36 1910.8 1003.89 1893.82 980.088 1880.67C963.737 1871.64 946.269 1865.99 929.64 1860.7C913.35 1855.52 897.06 1850.34 880.771 1845.16C886.895 1851.27 893.559 1857.33 900.656 1863.29C914.067 1865.82 929.879 1870.84 943.718 1879.16C963.031 1890.79 971.829 1904.45 981.105 1916.89Z" fill="#FED09E"/>
<path d="M845.617 1797.7C847.779 1799.55 849.986 1801.38 852.281 1803.18C876.552 1822.22 909.687 1837.28 940.644 1851.07C988.435 1872.35 1036.34 1893.67 1084.14 1912.54C1094.16 1916.49 1104.42 1920.46 1114.02 1925.82C1123.62 1931.17 1132.58 1938.36 1134.04 1943.53C1136.05 1950.61 1123.98 1951.12 1123.87 1957.39C1123.82 1960.25 1126.11 1963.69 1129.53 1967.42C1147.09 1969.44 1162.09 1969.22 1174.33 1967.03C1166.52 1959.98 1158.41 1952.98 1149.53 1946.15C1119.95 1923.43 1082.51 1903.34 1045.62 1885.88C1021.23 1874.33 996.733 1863.82 972.523 1851.93C949.503 1840.63 929.623 1833.07 911.71 1817.21C899.6 1806.48 892.847 1796.03 881.821 1785.3C872.089 1775.84 858.989 1766.29 844.572 1758C838.403 1768.18 838.537 1781.68 845.612 1797.69L845.617 1797.7Z" fill="#FFA776"/>
</g>
<g filter="url(#filter0_d_609_2502)">
<mask id="mask4_609_2502" style="mask-type:luminance" maskUnits="userSpaceOnUse" x="805" y="1749" width="378" height="175">
<path d="M880.635 1864.48C888.96 1856.51 898.509 1849.94 908.379 1843.91C908.585 1844.81 908.813 1845.72 909.057 1846.63C893.179 1857.29 884.514 1866.35 886.654 1871.49C891.128 1882.23 941.12 1871.73 998.315 1848.03C1055.51 1824.34 1098.24 1796.42 1093.77 1785.68C1091.63 1780.54 1079.1 1780.27 1060.37 1783.95C1059.9 1783.14 1059.41 1782.35 1058.91 1781.55C1070.14 1778.84 1081.52 1776.73 1093.04 1776.47C1110.1 1776.35 1112.6 1783.46 1100.78 1795.09C1088.79 1806.52 1074.28 1815.05 1059.91 1823.26C1040.55 1834.04 1020.42 1843.44 999.944 1851.93C979.463 1860.41 958.583 1868.01 937.263 1874.08C921.29 1878.45 905 1882.69 888.41 1883.1C871.331 1883.25 868.852 1876.12 880.64 1864.49L880.635 1864.48ZM1050.95 1771.02C1052.04 1772.24 1053.09 1773.49 1054.1 1774.76C1107.8 1758.85 1147.5 1755.18 1152.74 1767.74C1160.21 1785.68 1094.55 1829.94 1006.06 1866.61C917.583 1903.27 839.791 1918.45 832.31 1900.5C827.075 1887.94 857.709 1862.47 906.923 1835.74C906.845 1835.13 906.779 1834.53 906.718 1833.94C906.612 1832.95 906.523 1831.93 906.451 1830.89C840.986 1864.84 799.002 1898.4 805.699 1914.47C814.592 1935.81 905.912 1918.25 1009.66 1875.27C1113.42 1832.27 1190.32 1780.12 1181.43 1758.79C1174.73 1742.71 1121.26 1748.71 1050.94 1771.02L1050.95 1771.02ZM845.621 1893.53C852.39 1909.77 923.419 1895.78 1004.26 1862.28C1085.11 1828.78 1145.16 1788.46 1138.39 1772.22C1133.89 1761.41 1100.96 1763.99 1055.63 1776.77C1056.68 1778.18 1057.67 1779.61 1058.61 1781.08C1070.4 1778.2 1082.36 1775.96 1094.51 1775.76C1111.73 1775.72 1115.32 1783.23 1102.85 1795.73C1090.74 1807.51 1076.05 1816.25 1061.5 1824.65C1041.9 1835.68 1021.52 1845.27 1000.77 1853.91C979.986 1862.47 958.794 1870.11 937.135 1876.18C920.89 1880.54 904.322 1884.75 887.404 1885C870.197 1885 866.585 1877.5 879.09 1865.02C887.816 1856.56 897.87 1849.68 908.251 1843.37C907.857 1841.62 907.535 1839.9 907.273 1838.24C866.185 1861.26 841.108 1882.72 845.615 1893.53L845.621 1893.53Z" fill="white"/>
</mask>
<g mask="url(#mask4_609_2502)">
<path d="M1093.04 1776.47C1076.44 1776.84 1060.13 1781.05 1044.15 1785.39C1022.81 1791.43 1001.91 1798.99 981.409 1807.43C960.94 1815.96 940.826 1825.4 921.474 1836.22C907.113 1844.45 892.618 1853.01 880.641 1864.47C868.853 1876.11 871.332 1883.23 888.411 1883.08C905.001 1882.67 921.296 1878.44 937.264 1874.07C958.583 1867.99 979.464 1860.4 999.944 1851.91C1020.42 1843.42 1040.55 1834.03 1059.91 1823.24C1074.29 1815.04 1088.79 1806.51 1100.78 1795.08C1112.6 1783.45 1110.1 1776.34 1093.04 1776.45V1776.47ZM998.321 1848.03C941.126 1871.72 891.134 1882.23 886.66 1871.49C882.186 1860.75 924.92 1832.83 982.115 1809.13C1039.31 1785.43 1089.3 1774.93 1093.78 1785.67C1098.25 1796.41 1055.52 1824.33 998.321 1848.03ZM977.469 1798C873.716 1840.99 796.813 1893.14 805.706 1914.47C814.598 1935.82 905.918 1918.26 1009.67 1875.27C1113.42 1832.28 1190.33 1780.13 1181.43 1758.79C1172.54 1737.45 1081.22 1755.01 977.469 1798ZM1006.06 1866.61C917.584 1903.27 839.791 1918.45 832.311 1900.5C824.835 1882.56 890.501 1838.3 978.986 1801.63C1067.47 1764.97 1145.26 1749.79 1152.74 1767.74C1160.21 1785.68 1094.55 1829.94 1006.06 1866.61ZM979.747 1803.45C898.904 1836.95 838.852 1877.28 845.621 1893.52C852.391 1909.76 923.419 1895.78 1004.26 1862.28C1085.11 1828.78 1145.16 1788.45 1138.39 1772.21C1131.62 1755.97 1060.59 1769.95 979.747 1803.45ZM1102.85 1795.72C1090.74 1807.51 1076.05 1816.25 1061.5 1824.65C1041.91 1835.67 1021.53 1845.26 1000.77 1853.91C979.986 1862.47 958.794 1870.11 937.136 1876.17C920.89 1880.53 904.323 1884.75 887.405 1884.99C870.198 1885 866.585 1877.49 879.09 1865.01C891.217 1853.26 905.912 1844.55 920.479 1836.18C940.087 1825.19 960.478 1815.65 981.237 1807.04C1002 1798.44 1023.17 1790.77 1044.81 1784.66C1061.04 1780.27 1077.6 1776.03 1094.51 1775.76C1111.73 1775.72 1115.32 1783.23 1102.85 1795.73V1795.72Z" fill="#FEFEFC"/>
</g>
</g>
<path d="M1137.48 0C1137.48 235.813 944.701 481.069 693.438 408.989C333.805 305.82 190.774 358.141 213.279 561.53C235.784 764.919 541.35 750.181 743.656 696.288C862.259 664.693 1230 579.216 1230 822.399C1230 1405.26 346.308 839.348 297.797 1226.23C279.255 1374.11 297.797 1584.37 693.438 1562.23C886.02 1551.46 1013.62 1694.09 981.946 1857.77C950.27 2021.44 835.709 2075.57 639.655 2081C443.602 2086.43 529.271 2083.26 513.344 2081" stroke="#06A5FF" stroke-opacity="0.3" stroke-width="6" stroke-linecap="round" stroke-linejoin="round" stroke-dasharray="8 12"/>
<path d="M1397 1647C1348.12 1647 1302.17 1627.96 1267.61 1593.4C1233.04 1558.84 1214 1512.88 1214 1464C1214 1415.12 1233.04 1369.17 1267.6 1334.6C1302.17 1300.04 1348.12 1281 1397 1281C1445.88 1281 1491.84 1300.04 1526.4 1334.6C1560.97 1369.17 1580 1415.12 1580 1464C1580 1512.88 1560.96 1558.83 1526.4 1593.39C1491.83 1627.96 1445.88 1646.99 1397 1646.99V1647ZM1397 1295.06C1351.88 1295.06 1309.46 1312.64 1277.55 1344.54C1245.64 1376.45 1228.07 1418.87 1228.07 1464C1228.07 1509.12 1245.64 1551.54 1277.55 1583.45C1309.46 1615.36 1351.88 1632.93 1397 1632.93C1442.13 1632.93 1484.55 1615.36 1516.46 1583.45C1548.37 1551.54 1565.94 1509.12 1565.94 1464C1565.94 1418.87 1548.36 1376.45 1516.46 1344.54C1484.55 1312.63 1442.13 1295.06 1397 1295.06Z" fill="url(#paint6_linear_609_2502)"/>
<g filter="url(#filter1_d_609_2502)">
<path d="M1152.91 1784.29C1153.03 1783.08 1154.79 1783.08 1154.9 1784.29L1155.91 1794.67C1155.95 1795.08 1156.24 1795.43 1156.64 1795.54L1165.2 1797.83C1166.19 1798.09 1166.19 1799.49 1165.2 1799.76L1156.64 1802.05C1156.24 1802.16 1155.95 1802.5 1155.91 1802.92L1154.9 1813.3C1154.79 1814.5 1153.03 1814.5 1152.91 1813.3L1151.91 1802.92C1151.87 1802.5 1151.57 1802.16 1151.17 1802.05L1142.61 1799.76C1141.62 1799.49 1141.62 1798.09 1142.61 1797.83L1151.17 1795.54C1151.57 1795.43 1151.87 1795.08 1151.91 1794.67L1152.91 1784.29Z" fill="white"/>
</g>
<g filter="url(#filter2_d_609_2502)">
<path d="M160.726 1640.29C160.843 1639.08 162.6 1639.08 162.717 1640.29L164.665 1660.43C164.705 1660.84 164.999 1661.19 165.402 1661.3L179.833 1665.16C180.822 1665.42 180.822 1666.83 179.833 1667.09L165.402 1670.95C164.999 1671.06 164.705 1671.41 164.665 1671.82L162.717 1691.96C162.6 1693.17 160.843 1693.17 160.726 1691.96L158.778 1671.82C158.738 1671.41 158.444 1671.06 158.041 1670.95L143.61 1667.09C142.621 1666.83 142.621 1665.42 143.61 1665.16L158.041 1661.3C158.444 1661.19 158.738 1660.84 158.778 1660.43L160.726 1640.29Z" fill="white"/>
</g>
<mask id="mask5_609_2502" style="mask-type:luminance" maskUnits="userSpaceOnUse" x="144" y="1814" width="250" height="250">
<path d="M180.591 1850.1C181.305 1849.4 182.001 1848.72 182.696 1848.08C189.06 1842.02 197.184 1835.62 207.429 1829.93C212.334 1827.05 219.191 1823.7 228.018 1820.77C230.153 1820.03 232.575 1819.29 235.01 1818.64C235.593 1818.47 236.192 1818.33 236.776 1818.16C236.999 1818.09 237.221 1818.06 237.46 1818C238.128 1817.83 238.779 1817.67 239.446 1817.52C242.885 1816.72 246.214 1816.07 249.449 1815.6C250.506 1815.43 251.56 1815.3 252.599 1815.15C252.735 1815.12 252.854 1815.11 253.007 1815.11C253.755 1815.02 254.502 1814.93 255.233 1814.86C261.315 1814.21 266.978 1814.12 272.201 1814.35C273.195 1814.4 274.189 1814.45 275.165 1814.51C275.602 1814.54 276.006 1814.57 276.444 1814.59C276.848 1814.62 277.252 1814.65 277.655 1814.67C277.84 1814.7 278.008 1814.71 278.176 1814.72C278.378 1814.74 278.58 1814.75 278.764 1814.78C279.117 1814.82 279.487 1814.84 279.84 1814.88C286.491 1815.55 291.554 1816.53 295.69 1817.47C295.807 1817.5 295.924 1817.52 296.041 1817.55C295.991 1817.53 295.924 1817.52 295.89 1817.52C296.324 1817.62 296.74 1817.73 297.14 1817.82C298.842 1818.2 300.788 1818.75 302.748 1819.35C303.829 1819.64 304.893 1819.94 305.805 1820.26C308.312 1821.04 311.626 1822.2 314.07 1823.2C314.07 1823.2 314.102 1823.24 314.135 1823.24C315.325 1823.73 316.48 1824.21 317.618 1824.7C317.618 1824.7 317.634 1824.72 317.65 1824.74C317.666 1824.75 317.715 1824.77 317.749 1824.78C318.425 1825.07 319.085 1825.35 319.694 1825.65C320.551 1826.04 321.373 1826.43 322.178 1826.84C324.681 1828.01 327.209 1829.32 329.78 1830.79C329.795 1830.81 329.811 1830.83 329.845 1830.83C331.876 1831.97 333.903 1833.18 335.957 1834.53C346.348 1841.17 355.559 1849.29 363.578 1858.83C367.785 1863.68 372.179 1869.74 376.265 1876.77L376.729 1877.55C376.729 1877.55 376.729 1877.55 376.745 1877.57C376.761 1877.58 376.777 1877.6 376.793 1877.62C377.87 1879.51 378.93 1881.42 380.01 1883.57C380.744 1884.97 381.529 1886.64 382.16 1888.07C382.176 1888.08 382.192 1888.1 382.206 1888.15C382.265 1888.29 382.341 1888.45 382.401 1888.59C383.437 1890.93 383.919 1891.98 384.613 1893.8C384.702 1894.01 384.776 1894.2 384.85 1894.39C385.637 1896.35 386.15 1897.75 386.743 1899.56C387.135 1900.72 387.511 1901.85 387.885 1903.03C387.915 1903.1 387.929 1903.15 387.941 1903.23C388.416 1904.73 388.838 1906.25 389.26 1907.79C389.274 1907.85 389.288 1907.9 389.318 1907.97C389.682 1909.31 390.014 1910.65 390.327 1912C390.544 1912.96 390.746 1913.9 390.931 1914.83C390.996 1915.19 391.094 1915.55 391.158 1915.91C393.064 1925.42 393.479 1933.18 393.494 1938.1C393.5 1938.6 393.495 1938.99 393.5 1939.21C393.528 1941.46 393.495 1943.57 393.402 1945.25C393.373 1945.79 393.357 1946.38 393.307 1946.97C393.306 1947 393.302 1947.07 393.3 1947.1L393.292 1947.24C393.136 1950.06 392.875 1953.56 392.218 1958.11C389.267 1979.39 380.97 1999 367.887 2015.69C367.522 2016.17 367.142 2016.63 366.759 2017.13C366.706 2017.18 366.669 2017.25 366.614 2017.33C364.58 2019.9 362.413 2022.43 360.461 2024.44C360.336 2024.55 360.21 2024.7 360.084 2024.84C358.542 2026.47 356.79 2028.21 354.955 2029.93C354.669 2030.22 354.383 2030.5 354.115 2030.77L353.156 2031.62C352.498 2032.21 351.859 2032.77 351.22 2033.34C349.674 2034.71 348.151 2035.99 346.722 2037.1C345.45 2038.1 344.199 2039.05 342.951 2039.93C342.826 2040.04 342.668 2040.15 342.528 2040.24C342.106 2040.55 341.665 2040.88 341.245 2041.16C340.542 2041.65 339.856 2042.13 339.207 2042.58C339.171 2042.61 339.118 2042.66 339.082 2042.69C339.029 2042.74 338.976 2042.78 338.907 2042.81C321.564 2054.66 301.772 2061.64 280.77 2063.33C280.243 2063.38 279.701 2063.41 279.175 2063.46C278.937 2063.48 278.7 2063.5 278.462 2063.52C277.683 2063.57 276.921 2063.6 276.21 2063.62C259.287 2064.54 243.307 2061.84 229.008 2056.84C204.235 2048.52 184.845 2033.89 171.813 2016.38C171.813 2016.38 171.781 2016.34 171.765 2016.33C171.638 2016.18 171.495 2016.02 171.385 2015.86C170.737 2015.06 170.125 2014.23 169.464 2013.34C169.212 2013.02 168.977 2012.68 168.742 2012.35C168.396 2011.89 168.066 2011.44 167.77 2011C167.77 2011 167.754 2010.98 167.738 2010.97C167.346 2010.42 166.986 2009.9 166.658 2009.43C166.642 2009.41 166.626 2009.39 166.61 2009.37C165.187 2007.3 164.318 2005.93 164.256 2005.83C163.088 2004.04 162.357 2002.9 161.236 2000.89C161.156 2000.8 161.096 2000.66 161.035 2000.55C160.941 2000.41 160.881 2000.27 160.806 2000.11C160.73 1999.96 160.652 1999.83 160.576 1999.68C160.13 1998.89 159.67 1998.05 159.178 1997.17L158.963 1996.79L158.184 1995.3C158.184 1995.3 158.12 1995.23 158.106 1995.18L158.074 1995.14C157.279 1993.64 156.358 1991.67 155.604 1990.03C155.588 1990.02 155.572 1990 155.574 1989.96C155.498 1989.81 155.423 1989.65 155.363 1989.51C155.227 1989.22 155.107 1988.94 154.988 1988.66C154.958 1988.59 154.928 1988.52 154.882 1988.43C154.132 1986.73 153.681 1985.72 153.077 1984.11C153.018 1983.97 152.96 1983.8 152.9 1983.66C152.884 1983.64 152.868 1983.62 152.854 1983.57C152.424 1982.48 151.997 1981.36 151.587 1980.21C151.427 1979.75 151.283 1979.3 151.105 1978.85C150.915 1978.31 150.741 1977.8 150.551 1977.26C150.346 1976.71 150.159 1976.1 149.975 1975.47C149.243 1973.14 148.609 1970.85 148.055 1968.65C148.041 1968.6 148.027 1968.55 148.013 1968.5C144.896 1956.15 144.261 1945.96 144.252 1940.02C144.246 1939.51 144.251 1939.12 144.246 1938.9C144.248 1937.33 144.283 1935.8 144.319 1934.23C144.327 1933.77 144.335 1933.32 144.328 1932.85C144.361 1931.02 144.56 1928.03 144.915 1924.68C145.577 1918.2 146.716 1911.97 148.342 1906.08C148.578 1905.17 148.831 1904.27 149.079 1903.44C149.249 1902.81 149.457 1902.12 149.682 1901.41C153.624 1888.15 159.129 1877.8 164.279 1870.19C164.702 1869.56 165.108 1868.95 165.509 1868.4C165.565 1868.32 165.655 1868.2 165.71 1868.12C170.417 1861.2 175.401 1855.37 180.299 1850.49C180.388 1850.41 180.477 1850.33 180.565 1850.25L180.591 1850.1Z" fill="white"/>
</mask>
<g mask="url(#mask5_609_2502)">
<path d="M180.591 1850.1C181.305 1849.4 182.001 1848.72 182.696 1848.08C189.06 1842.02 197.184 1835.62 207.429 1829.93C212.334 1827.05 219.191 1823.7 228.018 1820.77C230.153 1820.03 232.575 1819.29 235.01 1818.64C235.593 1818.47 236.192 1818.33 236.776 1818.16C236.999 1818.09 237.221 1818.06 237.46 1818C238.128 1817.83 238.779 1817.67 239.446 1817.52C242.885 1816.72 246.214 1816.07 249.449 1815.6C250.506 1815.43 251.56 1815.3 252.599 1815.15C252.735 1815.12 252.854 1815.11 253.007 1815.11C253.754 1815.02 254.502 1814.93 255.233 1814.86C261.315 1814.21 266.978 1814.12 272.201 1814.35C273.195 1814.4 274.189 1814.45 275.165 1814.51C275.602 1814.54 276.006 1814.57 276.444 1814.59C276.848 1814.62 277.251 1814.65 277.655 1814.67C277.84 1814.7 278.008 1814.71 278.176 1814.72C278.378 1814.74 278.58 1814.75 278.764 1814.78C279.117 1814.82 279.487 1814.84 279.839 1814.88C286.491 1815.55 291.554 1816.53 295.69 1817.47C295.807 1817.5 295.924 1817.52 296.041 1817.55C295.991 1817.53 295.924 1817.52 295.89 1817.52C296.324 1817.62 296.74 1817.73 297.14 1817.82C298.842 1818.2 300.788 1818.75 302.748 1819.35C303.829 1819.64 304.893 1819.94 305.805 1820.26C308.312 1821.04 311.626 1822.2 314.07 1823.2C314.07 1823.2 314.102 1823.24 314.135 1823.24C315.325 1823.73 316.48 1824.21 317.618 1824.7C317.618 1824.7 317.634 1824.72 317.65 1824.74C317.666 1824.75 317.715 1824.77 317.749 1824.78C318.425 1825.07 319.085 1825.35 319.694 1825.65C320.551 1826.04 321.373 1826.43 322.178 1826.84C324.681 1828.01 327.209 1829.32 329.78 1830.79C329.795 1830.81 329.811 1830.83 329.845 1830.83C331.876 1831.97 333.903 1833.18 335.957 1834.53C346.348 1841.17 355.559 1849.29 363.578 1858.83C367.785 1863.68 372.179 1869.74 376.265 1876.77L376.729 1877.55C376.729 1877.55 376.729 1877.55 376.745 1877.57C376.761 1877.58 376.777 1877.6 376.793 1877.62C377.87 1879.51 378.93 1881.42 380.01 1883.57C380.744 1884.97 381.529 1886.64 382.16 1888.07C382.176 1888.08 382.192 1888.1 382.206 1888.15C382.265 1888.29 382.341 1888.45 382.401 1888.59C383.437 1890.93 383.919 1891.98 384.612 1893.8C384.702 1894.01 384.776 1894.2 384.85 1894.39C385.637 1896.35 386.15 1897.75 386.743 1899.56C387.135 1900.72 387.511 1901.85 387.885 1903.03C387.915 1903.1 387.929 1903.15 387.941 1903.23C388.415 1904.73 388.838 1906.25 389.26 1907.79C389.274 1907.85 389.288 1907.9 389.317 1907.97C389.682 1909.31 390.014 1910.65 390.327 1912C390.544 1912.96 390.746 1913.9 390.931 1914.83C390.995 1915.19 391.094 1915.55 391.158 1915.91C393.064 1925.42 393.479 1933.18 393.494 1938.1C393.5 1938.6 393.495 1938.99 393.5 1939.21C393.528 1941.46 393.495 1943.57 393.402 1945.25C393.372 1945.79 393.357 1946.38 393.307 1946.97C393.305 1947 393.302 1947.07 393.3 1947.1L393.292 1947.24C393.136 1950.06 392.875 1953.56 392.218 1958.11C389.267 1979.39 380.97 1999 367.887 2015.69C367.522 2016.17 367.142 2016.63 366.759 2017.13C366.706 2017.18 366.669 2017.25 366.614 2017.33C364.58 2019.9 362.413 2022.43 360.46 2024.44C360.336 2024.55 360.21 2024.7 360.084 2024.84C358.541 2026.47 356.79 2028.21 354.955 2029.93C354.669 2030.22 354.383 2030.5 354.115 2030.77L353.155 2031.62C352.498 2032.21 351.859 2032.77 351.22 2033.34C349.674 2034.71 348.151 2035.99 346.721 2037.1C345.45 2038.1 344.198 2039.05 342.951 2039.93C342.826 2040.04 342.668 2040.15 342.528 2040.24C342.105 2040.55 341.665 2040.88 341.245 2041.16C340.542 2041.65 339.856 2042.13 339.207 2042.58C339.171 2042.61 339.118 2042.66 339.082 2042.69C339.029 2042.74 338.976 2042.78 338.907 2042.81C321.564 2054.66 301.772 2061.64 280.77 2063.33C280.243 2063.38 279.701 2063.41 279.175 2063.46C278.937 2063.48 278.7 2063.5 278.462 2063.52C277.683 2063.57 276.921 2063.6 276.21 2063.62C259.287 2064.54 243.307 2061.84 229.008 2056.84C204.235 2048.52 184.845 2033.89 171.813 2016.38C171.813 2016.38 171.781 2016.34 171.765 2016.33C171.638 2016.18 171.495 2016.02 171.385 2015.86C170.737 2015.06 170.124 2014.23 169.464 2013.34C169.212 2013.02 168.977 2012.68 168.742 2012.35C168.396 2011.89 168.066 2011.44 167.77 2011C167.77 2011 167.754 2010.98 167.738 2010.97C167.346 2010.42 166.986 2009.9 166.658 2009.43C166.642 2009.41 166.626 2009.39 166.61 2009.37C165.187 2007.3 164.318 2005.93 164.256 2005.83C163.088 2004.04 162.357 2002.9 161.236 2000.89C161.156 2000.8 161.096 2000.66 161.035 2000.55C160.941 2000.41 160.881 2000.27 160.805 2000.11C160.73 1999.96 160.652 1999.83 160.576 1999.68C160.13 1998.89 159.67 1998.05 159.178 1997.17L158.963 1996.79L158.184 1995.3C158.184 1995.3 158.12 1995.23 158.106 1995.18L158.074 1995.14C157.279 1993.64 156.358 1991.67 155.604 1990.03C155.588 1990.02 155.572 1990 155.574 1989.96C155.498 1989.81 155.422 1989.65 155.363 1989.51C155.227 1989.22 155.107 1988.94 154.988 1988.66C154.958 1988.59 154.928 1988.52 154.882 1988.43C154.132 1986.73 153.681 1985.72 153.077 1984.11C153.017 1983.97 152.959 1983.8 152.9 1983.66C152.884 1983.64 152.868 1983.62 152.854 1983.57C152.424 1982.48 151.997 1981.36 151.587 1980.21C151.427 1979.75 151.283 1979.3 151.105 1978.85C150.915 1978.31 150.741 1977.8 150.551 1977.26C150.346 1976.71 150.159 1976.1 149.975 1975.47C149.243 1973.14 148.609 1970.85 148.055 1968.65C148.041 1968.6 148.027 1968.55 148.013 1968.5C144.896 1956.15 144.261 1945.96 144.252 1940.02C144.246 1939.51 144.251 1939.12 144.246 1938.9C144.248 1937.33 144.283 1935.8 144.319 1934.23C144.327 1933.77 144.335 1933.32 144.328 1932.85C144.361 1931.02 144.56 1928.03 144.915 1924.68C145.577 1918.2 146.716 1911.97 148.342 1906.08C148.578 1905.17 148.831 1904.27 149.079 1903.44C149.249 1902.81 149.456 1902.12 149.682 1901.41C153.624 1888.15 159.129 1877.8 164.278 1870.19C164.702 1869.56 165.108 1868.95 165.509 1868.4C165.565 1868.32 165.655 1868.2 165.71 1868.12C170.417 1861.2 175.401 1855.37 180.299 1850.49C180.388 1850.41 180.477 1850.33 180.565 1850.25L180.591 1850.1Z" fill="url(#paint7_radial_609_2502)"/>
<g style="mix-blend-mode:screen" opacity="0.2">
<path d="M75.9032 1830.49C80.3239 1818.06 85.4536 1806.86 90.8828 1796.97C90.9968 1796.74 91.1267 1796.53 91.2407 1796.3C92.2716 1794.46 93.2829 1792.67 94.3101 1790.89C97.5607 1785.26 101.466 1779.41 105.662 1773.48C258.169 1894.21 440.535 1979.91 628.01 2020.34C625.435 2032.98 621.944 2045.39 617.34 2057.46C616.901 2058.68 616.428 2059.9 615.956 2061.12C615.897 2061.27 615.838 2061.42 615.761 2061.58C613.24 2068.07 610.38 2074.57 607.606 2079.84C607.435 2080.18 607.23 2080.52 607.059 2080.87C606.982 2081.03 606.87 2081.23 606.76 2081.39C416.697 2038.3 232.127 1951.5 75.9032 1830.49ZM458.623 2203.87C459.121 2203.72 459.619 2203.57 460.118 2203.41C461.253 2203.05 462.352 2202.71 463.487 2202.35C498.867 2191.16 530.022 2173 555.884 2148.85C379.965 2112.04 208.328 2034.8 61.8789 1925.76C61.9448 1927.62 62.0546 1929.6 62.1944 1931.66C63.0071 1945.04 65.0588 1958.93 68.3288 1973.09C69.9976 1980.47 71.7503 1986.95 73.0031 1990.86C73.3193 1991.86 73.6375 1992.82 73.9537 1993.82C75.0007 1997.18 76.0692 2000.46 77.1836 2003.82C77.3277 2004.27 77.6037 2005.08 77.9994 2006.17C82.161 2018.25 90.4365 2038.4 104.866 2061.8C207.558 2125.28 318.623 2175.42 433.099 2210.01C440.017 2208.61 446.919 2207.2 453.801 2205.23C455.344 2204.83 456.922 2204.39 458.589 2203.87L458.623 2203.87ZM594.357 1831.63C594.14 1831.28 593.941 1830.91 593.724 1830.56C592.613 1828.67 591.535 1826.77 590.343 1824.82C588.688 1822.07 586.962 1819.37 585.219 1816.69C585.124 1816.59 585.08 1816.47 585.002 1816.34C582.994 1813.26 580.948 1810.24 578.834 1807.25C578.722 1807.13 578.647 1806.97 578.535 1806.84C576.89 1804.53 575.227 1802.22 573.527 1799.99C573.01 1799.26 572.536 1798.66 572.031 1798.02C474.884 1766.8 380.528 1723.89 292.507 1670.61C288.671 1670.94 284.68 1671.34 280.343 1671.88C279.543 1671.98 278.694 1672.07 277.928 1672.17C277.503 1672.22 277.06 1672.3 276.617 1672.37C276.209 1672.41 275.851 1672.47 275.426 1672.53C274.523 1672.66 273.637 1672.8 272.733 1672.96C271.813 1673.11 270.875 1673.27 269.904 1673.42C267.721 1673.79 265.506 1674.15 263.337 1674.57C260.334 1675.12 257.166 1675.91 254.054 1676.58C359.881 1743.85 475.325 1796.35 594.357 1831.63ZM632.568 1983.16C633.451 1963.25 632.06 1942.92 628.061 1922.41C626.203 1912.35 624.208 1904.74 622.487 1898.62L622.402 1898.31C622.402 1898.31 622.346 1898.1 622.318 1898C621.951 1896.69 621.581 1895.45 621.24 1894.29C620.643 1892.25 619.913 1889.9 619.088 1887.39C471.495 1849.36 328.497 1783.22 202.654 1694.03C200.037 1695.23 197.449 1696.21 194.825 1697.54C193.523 1698.18 192.218 1698.86 190.897 1699.55C190.444 1699.79 189.993 1700 189.541 1700.24C188.375 1700.85 187.209 1701.47 186.042 1702.12C181.27 1704.72 176.574 1707.47 172.474 1710.14C155.52 1720.74 143.143 1731.36 134.613 1739.9C131.724 1742.65 129.206 1745.43 126.571 1748.18C277.276 1859.98 452.289 1940.9 632.552 1983.14L632.568 1983.16ZM567.7 2137.07C569.945 2134.66 572.221 2132.3 574.37 2129.78C574.477 2129.69 574.569 2129.54 574.642 2129.45C574.731 2129.37 574.804 2129.27 574.877 2129.18C575.977 2127.91 577.099 2126.57 578.275 2125.14C578.981 2124.29 579.689 2123.41 580.396 2122.53C580.633 2122.22 580.867 2121.95 581.104 2121.64C582.864 2119.45 584.596 2117.14 586.366 2114.78C399.929 2075.73 218.174 1992.72 64.4174 1875.34C63.0179 1884.45 62.1141 1894.36 61.8229 1905.11C212.159 2016.86 387.488 2096.96 567.683 2137.08L567.7 2137.07Z" fill="#C4DBFB"/>
</g>
</g>
<g filter="url(#filter3_d_609_2502)">
<path d="M393.022 1950.1C392.957 1950.96 392.893 1951.81 392.795 1952.67C422.53 1977 438.014 1999.66 431.512 2013.92C419.451 2040.33 336.661 2028.24 246.962 1986.93C157.246 1945.6 94.0783 1890.49 106.123 1864.07C111.046 1853.31 127.66 1848.94 151.725 1850.34C159.59 1850.79 168.281 1851.89 177.565 1853.55C178.139 1852.95 178.715 1852.31 179.341 1851.69C139.696 1844.56 110.91 1847.84 103.965 1863.07C91.3641 1890.69 155.095 1947.21 245.997 1989.09C299.009 2013.51 349.722 2027.61 385.306 2029.68C410.737 2031.15 428.45 2026.45 433.701 2014.96C440.664 1999.72 424.312 1975.65 393.038 1950.12L393.022 1950.1Z" fill="white"/>
</g>
<path d="M241.354 1998.81C241.354 1998.81 228.371 1986.22 215.844 1985.26C202.022 1984.2 177.411 2005.74 177.411 2005.74C177.411 2005.74 201.704 1983.84 202.301 1969.97C202.843 1957.4 191.92 1942.98 191.92 1942.98C191.92 1942.98 204.903 1955.57 217.43 1956.53C231.252 1957.59 255.862 1936.05 255.862 1936.05C255.862 1936.05 231.57 1957.95 230.973 1971.82C230.431 1984.39 241.354 1998.81 241.354 1998.81Z" fill="white"/>
<path d="M359.679 1925.34C359.679 1925.34 351.12 1917.04 342.847 1916.4C333.733 1915.71 317.498 1929.91 317.498 1929.91C317.498 1929.91 333.51 1915.46 333.914 1906.31C334.271 1898.01 327.061 1888.51 327.061 1888.51C327.061 1888.51 335.62 1896.81 343.893 1897.45C353.007 1898.14 369.242 1883.95 369.242 1883.95C369.242 1883.95 353.23 1898.39 352.826 1907.54C352.469 1915.84 359.679 1925.34 359.679 1925.34Z" fill="white"/>
<path d="M362.428 2054.58C362.428 2054.58 359.767 2052.01 357.195 2051.79C354.37 2051.58 349.313 2056 349.313 2056C349.313 2056 354.289 2051.52 354.429 2048.67C354.537 2046.1 352.287 2043.13 352.287 2043.13C352.287 2043.13 354.948 2045.71 357.519 2045.92C360.344 2046.14 365.401 2041.71 365.401 2041.71C365.401 2041.71 360.425 2046.2 360.285 2049.05C360.177 2051.61 362.428 2054.58 362.428 2054.58Z" fill="white"/>
<path d="M214.033 1913.04C214.033 1913.04 210.106 1909.25 206.356 1908.95C202.203 1908.63 194.786 1915.12 194.786 1915.12C194.786 1915.12 202.107 1908.52 202.287 1904.36C202.462 1900.58 199.155 1896.23 199.155 1896.23C199.155 1896.23 203.083 1900.03 206.833 1900.32C210.986 1900.64 218.403 1894.15 218.403 1894.15C218.403 1894.15 211.081 1900.75 210.902 1904.91C210.727 1908.69 214.033 1913.04 214.033 1913.04Z" fill="white"/>
</g>
<defs>
<filter id="filter0_d_609_2502" x="765.006" y="1709.71" width="457.121" height="253.838" filterUnits="userSpaceOnUse" color-interpolation-filters="sRGB">
<feFlood flood-opacity="0" result="BackgroundImageFix"/>
<feColorMatrix in="SourceAlpha" type="matrix" values="0 0 0 0 0 0 0 0 0 0 0 0 0 0 0 0 0 0 127 0" result="hardAlpha"/>
<feOffset/>
<feGaussianBlur stdDeviation="20"/>
<feColorMatrix type="matrix" values="0 0 0 0 1 0 0 0 0 1 0 0 0 0 1 0 0 0 0.75 0"/>
<feBlend mode="normal" in2="BackgroundImageFix" result="effect1_dropShadow_609_2502"/>
<feBlend mode="normal" in="SourceGraphic" in2="effect1_dropShadow_609_2502" result="shape"/>
</filter>
<filter id="filter1_d_609_2502" x="1133.87" y="1775.39" width="40.0767" height="46.8145" filterUnits="userSpaceOnUse" color-interpolation-filters="sRGB">
<feFlood flood-opacity="0" result="BackgroundImageFix"/>
<feColorMatrix in="SourceAlpha" type="matrix" values="0 0 0 0 0 0 0 0 0 0 0 0 0 0 0 0 0 0 127 0" result="hardAlpha"/>
<feOffset/>
<feGaussianBlur stdDeviation="4"/>
<feComposite in2="hardAlpha" operator="out"/>
<feColorMatrix type="matrix" values="0 0 0 0 1 0 0 0 0 1 0 0 0 0 1 0 0 0 1 0"/>
<feBlend mode="normal" in2="BackgroundImageFix" result="effect1_dropShadow_609_2502"/>
<feBlend mode="normal" in="SourceGraphic" in2="effect1_dropShadow_609_2502" result="shape"/>
</filter>
<filter id="filter2_d_609_2502" x="134.869" y="1631.39" width="53.7061" height="69.4819" filterUnits="userSpaceOnUse" color-interpolation-filters="sRGB">
<feFlood flood-opacity="0" result="BackgroundImageFix"/>
<feColorMatrix in="SourceAlpha" type="matrix" values="0 0 0 0 0 0 0 0 0 0 0 0 0 0 0 0 0 0 127 0" result="hardAlpha"/>
<feOffset/>
<feGaussianBlur stdDeviation="4"/>
<feComposite in2="hardAlpha" operator="out"/>
<feColorMatrix type="matrix" values="0 0 0 0 1 0 0 0 0 1 0 0 0 0 1 0 0 0 0.9 0"/>
<feBlend mode="normal" in2="BackgroundImageFix" result="effect1_dropShadow_609_2502"/>
<feBlend mode="normal" in="SourceGraphic" in2="effect1_dropShadow_609_2502" result="shape"/>
</filter>
<filter id="filter3_d_609_2502" x="92.376" y="1838.09" width="352.914" height="201.856" filterUnits="userSpaceOnUse" color-interpolation-filters="sRGB">
<feFlood flood-opacity="0" result="BackgroundImageFix"/>
<feColorMatrix in="SourceAlpha" type="matrix" values="0 0 0 0 0 0 0 0 0 0 0 0 0 0 0 0 0 0 127 0" result="hardAlpha"/>
<feOffset/>
<feGaussianBlur stdDeviation="5"/>
<feColorMatrix type="matrix" values="0 0 0 0 1 0 0 0 0 1 0 0 0 0 1 0 0 0 0.75 0"/>
<feBlend mode="normal" in2="BackgroundImageFix" result="effect1_dropShadow_609_2502"/>
<feBlend mode="normal" in="SourceGraphic" in2="effect1_dropShadow_609_2502" result="shape"/>
</filter>
<linearGradient id="paint0_linear_609_2502" x1="735.319" y1="351.182" x2="782.029" y2="-583.09" gradientUnits="userSpaceOnUse">
<stop stop-color="#0F172A"/>
<stop offset="1" stop-color="#315D93"/>
</linearGradient>
<linearGradient id="paint1_linear_609_2502" x1="735.319" y1="1152.05" x2="749.068" y2="644.738" gradientUnits="userSpaceOnUse">
<stop stop-color="#0F172A"/>
<stop offset="1" stop-color="#315D93"/>
</linearGradient>
<linearGradient id="paint2_linear_609_2502" x1="794.201" y1="1851.42" x2="704.839" y2="2159.8" gradientUnits="userSpaceOnUse">
<stop stop-color="#375B99"/>
<stop offset="1" stop-color="#295F7D" stop-opacity="0"/>
</linearGradient>
<linearGradient id="paint3_linear_609_2502" x1="1117.92" y1="1895.48" x2="1120.1" y2="1573.92" gradientUnits="userSpaceOnUse">
<stop stop-color="#196691"/>
<stop offset="0.42" stop-color="#315D93"/>
<stop offset="0.97" stop-color="#0F172A"/>
</linearGradient>
<linearGradient id="paint4_linear_609_2502" x1="1056.63" y1="1864.77" x2="1158.01" y2="1699.25" gradientUnits="userSpaceOnUse">
<stop stop-color="#315D93"/>
<stop offset="0.98" stop-color="#1E293B"/>
</linearGradient>
<radialGradient id="paint5_radial_609_2502" cx="0" cy="0" r="1" gradientUnits="userSpaceOnUse" gradientTransform="translate(981.821 1845.17) rotate(-134.702) scale(91.5806 91.5837)">
<stop stop-color="#E05B41"/>
<stop offset="0.73" stop-color="#E05B41"/>
<stop offset="0.99" stop-color="#F58466"/>
</radialGradient>
<linearGradient id="paint6_linear_609_2502" x1="1354.66" y1="1302.75" x2="1439.07" y2="1624.19" gradientUnits="userSpaceOnUse">
<stop stop-color="#5BA6FE"/>
<stop offset="1" stop-color="#365A6F" stop-opacity="0"/>
</linearGradient>
<radialGradient id="paint7_radial_609_2502" cx="0" cy="0" r="1" gradientUnits="userSpaceOnUse" gradientTransform="translate(222.56 1900.51) rotate(-86.4528) scale(150.432 150.531)">
<stop offset="0.03" stop-color="#27B1FF"/>
<stop offset="0.59" stop-color="#5BC3FE"/>
<stop offset="1" stop-color="#D0EEFF"/>
</radialGradient>
<clipPath id="clip0_609_2502">
<rect width="1440" height="2106" fill="white"/>
</clipPath>
</defs>
</svg>
