<svg width="744" height="1624" viewBox="0 0 744 1624" fill="none" xmlns="http://www.w3.org/2000/svg">
<g clip-path="url(#clip0_455_3271)">
<path fill-rule="evenodd" clip-rule="evenodd" d="M744 0H0V1202V1216H0.258573C7.62006 1414.96 171.238 1574 372 1574C572.763 1574 736.38 1414.96 743.741 1216H744V1202V0Z" fill="url(#paint0_linear_455_3271)"/>
<path d="M650.987 3C650.987 177.71 521.774 359.416 353.361 306.013C112.312 229.577 16.4432 268.341 31.5275 419.028C46.6117 569.716 251.422 558.796 387.021 518.868C466.516 495.46 713 432.132 713 612.301C713 1044.13 120.692 624.859 88.1772 911.492C75.7487 1021.05 88.1771 1176.83 353.361 1160.43C482.442 1152.45 567.97 1258.12 546.738 1379.39C525.507 1500.65 448.72 1540.76 317.313 1544.78C185.905 1548.8 243.326 1546.45 232.651 1544.78" stroke="#06A5FF" stroke-opacity="0.3" stroke-width="6" stroke-linecap="round" stroke-linejoin="round" stroke-dasharray="8 12"/>
<g filter="url(#filter0_d_455_3271)">
<path d="M160.726 687.29C160.843 686.085 162.6 686.085 162.717 687.29L164.665 707.43C164.705 707.845 164.999 708.192 165.402 708.3L179.833 712.161C180.822 712.426 180.822 713.829 179.833 714.093L165.402 717.955C164.999 718.063 164.705 718.409 164.665 718.825L162.717 738.965C162.6 740.17 160.843 740.17 160.726 738.965L158.778 718.825C158.738 718.409 158.444 718.063 158.041 717.955L143.61 714.093C142.621 713.829 142.621 712.426 143.61 712.161L158.041 708.3C158.444 708.192 158.738 707.845 158.778 707.43L160.726 687.29Z" fill="white"/>
</g>
<path d="M632.502 677C602.719 677 574.719 665.4 553.661 644.343C532.6 623.286 521 595.285 521 565.502C521 535.719 532.6 507.719 553.657 486.657C574.719 465.6 602.719 454 632.502 454C662.285 454 690.286 465.6 711.343 486.657C732.405 507.719 744 535.715 744 565.498C744 595.281 732.4 623.281 711.343 644.339C690.281 665.4 662.285 676.996 632.502 676.996V677ZM632.502 462.567C605.007 462.567 579.161 473.275 559.718 492.714C540.275 512.156 529.571 538.002 529.571 565.498C529.571 592.993 540.28 618.84 559.718 638.282C579.161 657.725 605.007 668.429 632.502 668.429C659.998 668.429 685.844 657.72 705.286 638.282C724.729 618.84 735.433 592.993 735.433 565.498C735.433 538.002 724.725 512.156 705.286 492.714C685.844 473.271 659.998 462.567 632.502 462.567Z" fill="url(#paint1_linear_455_3271)"/>
<mask id="mask0_455_3271" style="mask-type:luminance" maskUnits="userSpaceOnUse" x="508" y="1398" width="80" height="79">
<path d="M508.586 1439.61C508.57 1439.3 508.557 1438.99 508.546 1438.68C508.445 1435.9 508.637 1432.62 509.437 1429C509.788 1427.23 510.424 1424.89 511.578 1422.18C511.849 1421.52 512.182 1420.79 512.535 1420.08C512.62 1419.9 512.708 1419.73 512.793 1419.56C512.828 1419.49 512.862 1419.43 512.897 1419.36C512.998 1419.17 513.096 1418.98 513.197 1418.79C513.724 1417.81 514.272 1416.88 514.836 1416.01C515.017 1415.73 515.203 1415.44 515.389 1415.17C515.413 1415.13 515.437 1415.1 515.461 1415.06C515.596 1414.86 515.732 1414.67 515.868 1414.48C516.984 1412.9 518.147 1411.54 519.293 1410.35C519.508 1410.12 519.732 1409.9 519.952 1409.68C520.048 1409.58 520.144 1409.49 520.237 1409.39C520.33 1409.3 520.418 1409.21 520.511 1409.12C520.553 1409.08 520.593 1409.04 520.633 1409C520.678 1408.96 520.724 1408.92 520.766 1408.87C520.846 1408.8 520.934 1408.72 521.019 1408.64C522.564 1407.2 523.856 1406.21 524.947 1405.42C524.976 1405.4 525.008 1405.38 525.037 1405.36C525.024 1405.37 525.011 1405.38 524.997 1405.39C525.109 1405.31 525.221 1405.23 525.327 1405.15C525.774 1404.83 526.311 1404.48 526.859 1404.14C527.157 1403.95 527.449 1403.76 527.712 1403.61C528.425 1403.18 529.393 1402.63 530.138 1402.27C530.146 1402.27 530.154 1402.26 530.159 1402.26C530.521 1402.08 530.88 1401.9 531.228 1401.74C531.231 1401.74 531.236 1401.73 531.239 1401.73C531.249 1401.73 531.26 1401.73 531.271 1401.72C531.481 1401.62 531.691 1401.52 531.88 1401.44C532.154 1401.32 532.414 1401.21 532.678 1401.1C533.478 1400.76 534.318 1400.43 535.196 1400.13C535.204 1400.13 535.212 1400.12 535.22 1400.12C535.911 1399.89 536.624 1399.66 537.371 1399.45C541.11 1398.39 544.951 1397.91 548.879 1398.01C550.9 1398.03 553.251 1398.27 555.766 1398.78L556.046 1398.84C556.046 1398.84 556.054 1398.84 556.056 1398.84C556.064 1398.84 556.072 1398.84 556.083 1398.84C556.758 1398.98 557.431 1399.14 558.157 1399.33C558.641 1399.45 559.197 1399.62 559.67 1399.76C559.681 1399.77 559.689 1399.77 559.7 1399.77C559.747 1399.79 559.798 1399.8 559.843 1399.82H559.848C560.622 1400.06 560.968 1400.17 561.537 1400.39C561.604 1400.41 561.67 1400.44 561.726 1400.46C561.726 1400.46 561.726 1400.46 561.729 1400.46C562.359 1400.68 562.795 1400.86 563.348 1401.1C563.702 1401.25 564.053 1401.4 564.407 1401.56C564.428 1401.57 564.449 1401.58 564.468 1401.59C564.92 1401.79 565.369 1402.01 565.816 1402.24C565.832 1402.24 565.851 1402.25 565.867 1402.26C566.258 1402.46 566.643 1402.66 567.031 1402.87C567.305 1403.03 567.566 1403.17 567.827 1403.33C567.928 1403.38 568.029 1403.44 568.127 1403.5C570.768 1405.05 572.691 1406.58 573.847 1407.61C573.97 1407.72 574.06 1407.8 574.108 1407.84C574.645 1408.31 575.132 1408.76 575.51 1409.14C575.632 1409.25 575.762 1409.38 575.898 1409.52C575.909 1409.53 575.919 1409.54 575.93 1409.55L575.962 1409.58C576.595 1410.21 577.366 1411.01 578.299 1412.13C582.703 1417.31 585.589 1423.4 586.796 1430.02C586.833 1430.21 586.868 1430.4 586.902 1430.6C586.908 1430.62 586.91 1430.64 586.916 1430.67C587.094 1431.69 587.24 1432.74 587.307 1433.63C587.312 1433.69 587.315 1433.75 587.32 1433.8C587.381 1434.51 587.424 1435.29 587.45 1436.09C587.458 1436.22 587.469 1436.35 587.474 1436.47L587.469 1436.87C587.474 1437.15 587.474 1437.42 587.474 1437.69C587.474 1438.34 587.461 1438.98 587.424 1439.55C587.394 1440.06 587.352 1440.55 587.307 1441.04C587.301 1441.09 587.296 1441.15 587.291 1441.21C587.275 1441.37 587.259 1441.54 587.24 1441.71C587.211 1441.98 587.179 1442.24 587.147 1442.49C587.147 1442.51 587.142 1442.53 587.142 1442.54C587.139 1442.57 587.136 1442.59 587.134 1442.61C586.301 1449.22 583.812 1455.38 579.82 1460.72C579.719 1460.86 579.618 1460.99 579.515 1461.13C579.469 1461.19 579.424 1461.25 579.379 1461.31C579.227 1461.5 579.081 1461.69 578.935 1461.87C575.611 1466.08 571.635 1469.3 567.468 1471.64C560.324 1475.76 552.82 1477.28 545.964 1476.69C545.956 1476.69 545.948 1476.69 545.943 1476.69C545.881 1476.69 545.818 1476.68 545.754 1476.68C545.432 1476.66 545.102 1476.64 544.759 1476.61C544.629 1476.6 544.501 1476.59 544.371 1476.57C544.19 1476.56 544.017 1476.54 543.85 1476.52C543.844 1476.52 543.839 1476.52 543.836 1476.52C543.626 1476.5 543.427 1476.48 543.246 1476.46C543.238 1476.46 543.227 1476.46 543.219 1476.45C542.435 1476.36 541.93 1476.27 541.89 1476.27C541.225 1476.17 540.805 1476.1 540.095 1475.94C540.055 1475.94 540.012 1475.93 539.975 1475.92C539.975 1475.92 539.972 1475.92 539.97 1475.92C539.919 1475.91 539.868 1475.9 539.815 1475.89C539.765 1475.88 539.717 1475.86 539.664 1475.85C539.384 1475.79 539.092 1475.73 538.783 1475.65L538.648 1475.63L538.132 1475.5C538.119 1475.49 538.103 1475.49 538.089 1475.48H538.073C537.552 1475.36 536.893 1475.16 536.35 1474.99C536.342 1474.99 536.332 1474.99 536.324 1474.99C536.273 1474.97 536.217 1474.95 536.169 1474.94C536.068 1474.91 535.978 1474.88 535.89 1474.85C535.866 1474.84 535.842 1474.83 535.818 1474.83C535.257 1474.65 534.93 1474.54 534.422 1474.34C534.377 1474.33 534.324 1474.31 534.281 1474.29C534.273 1474.29 534.263 1474.29 534.255 1474.28C533.909 1474.15 533.555 1474.02 533.196 1473.87C533.052 1473.81 532.914 1473.76 532.773 1473.7C532.611 1473.63 532.449 1473.56 532.284 1473.49C532.111 1473.42 531.928 1473.34 531.736 1473.25C531.031 1472.93 530.364 1472.6 529.726 1472.27C529.71 1472.27 529.694 1472.26 529.678 1472.25C526.111 1470.39 523.574 1468.39 522.17 1467.15C522.048 1467.04 521.958 1466.96 521.91 1466.92C521.54 1466.59 521.186 1466.26 520.825 1465.92C520.718 1465.82 520.612 1465.72 520.503 1465.63C520.083 1465.24 519.418 1464.56 518.7 1463.76C517.312 1462.24 516.083 1460.66 515.03 1459.04C514.865 1458.79 514.705 1458.54 514.562 1458.31C514.447 1458.13 514.33 1457.94 514.211 1457.74C511.908 1454.01 510.618 1450.52 509.897 1447.7C509.836 1447.47 509.78 1447.24 509.73 1447.03C509.722 1447 509.714 1446.95 509.706 1446.92C509.054 1444.35 508.722 1441.93 508.594 1439.74C508.594 1439.7 508.589 1439.67 508.589 1439.63L508.586 1439.61Z" fill="white"/>
</mask>
<g mask="url(#mask0_455_3271)">
<path d="M508.586 1439.61C508.57 1439.3 508.557 1438.99 508.546 1438.68C508.445 1435.9 508.637 1432.62 509.437 1429C509.788 1427.23 510.424 1424.89 511.578 1422.19C511.849 1421.52 512.182 1420.79 512.535 1420.08C512.62 1419.9 512.708 1419.73 512.793 1419.56C512.828 1419.49 512.862 1419.43 512.897 1419.36C512.998 1419.17 513.096 1418.98 513.197 1418.79C513.724 1417.81 514.272 1416.88 514.836 1416.01C515.017 1415.73 515.203 1415.44 515.389 1415.17C515.413 1415.13 515.437 1415.1 515.461 1415.06C515.596 1414.86 515.732 1414.67 515.868 1414.48C516.984 1412.9 518.147 1411.54 519.293 1410.35C519.508 1410.12 519.732 1409.9 519.952 1409.68C520.048 1409.58 520.144 1409.49 520.237 1409.39C520.33 1409.3 520.418 1409.21 520.511 1409.12C520.553 1409.08 520.593 1409.04 520.633 1409C520.678 1408.96 520.724 1408.92 520.766 1408.87C520.846 1408.8 520.934 1408.72 521.019 1408.64C522.564 1407.2 523.856 1406.21 524.947 1405.42C524.976 1405.4 525.008 1405.38 525.037 1405.36C525.024 1405.37 525.011 1405.38 524.997 1405.39C525.109 1405.31 525.221 1405.23 525.327 1405.15C525.774 1404.83 526.311 1404.49 526.859 1404.15C527.157 1403.95 527.449 1403.76 527.712 1403.61C528.425 1403.18 529.393 1402.63 530.138 1402.27C530.146 1402.27 530.154 1402.26 530.159 1402.26C530.521 1402.08 530.88 1401.9 531.228 1401.74C531.231 1401.74 531.236 1401.74 531.239 1401.74C531.249 1401.73 531.26 1401.73 531.271 1401.72C531.481 1401.62 531.691 1401.53 531.88 1401.44C532.154 1401.32 532.414 1401.21 532.678 1401.1C533.478 1400.76 534.318 1400.43 535.196 1400.13C535.204 1400.13 535.212 1400.13 535.22 1400.12C535.911 1399.89 536.624 1399.66 537.371 1399.45C541.11 1398.39 544.951 1397.91 548.879 1398.01C550.9 1398.03 553.251 1398.27 555.766 1398.78L556.046 1398.84C556.046 1398.84 556.054 1398.84 556.056 1398.84C556.064 1398.84 556.072 1398.84 556.083 1398.84C556.758 1398.98 557.431 1399.14 558.157 1399.33C558.641 1399.45 559.197 1399.62 559.67 1399.76C559.681 1399.77 559.689 1399.77 559.7 1399.77C559.747 1399.79 559.798 1399.8 559.843 1399.82H559.848C560.622 1400.06 560.968 1400.17 561.537 1400.39C561.604 1400.41 561.67 1400.44 561.726 1400.46C561.726 1400.46 561.726 1400.46 561.729 1400.46C562.359 1400.69 562.795 1400.86 563.348 1401.1C563.702 1401.25 564.053 1401.4 564.407 1401.56C564.428 1401.57 564.449 1401.58 564.468 1401.59C564.92 1401.79 565.369 1402.01 565.816 1402.24C565.832 1402.24 565.851 1402.25 565.867 1402.26C566.258 1402.46 566.643 1402.66 567.031 1402.88C567.305 1403.03 567.566 1403.18 567.827 1403.33C567.928 1403.38 568.029 1403.44 568.127 1403.5C570.768 1405.05 572.691 1406.59 573.847 1407.61C573.97 1407.72 574.06 1407.8 574.108 1407.84C574.645 1408.31 575.132 1408.76 575.51 1409.14C575.632 1409.26 575.762 1409.39 575.898 1409.52C575.909 1409.53 575.919 1409.54 575.93 1409.55L575.962 1409.58C576.595 1410.21 577.366 1411.01 578.299 1412.13C582.703 1417.31 585.589 1423.41 586.796 1430.02C586.833 1430.21 586.868 1430.4 586.902 1430.6C586.908 1430.62 586.91 1430.64 586.916 1430.67C587.094 1431.69 587.24 1432.74 587.307 1433.63C587.312 1433.69 587.315 1433.75 587.32 1433.8C587.381 1434.51 587.424 1435.29 587.45 1436.09C587.458 1436.22 587.469 1436.35 587.474 1436.47L587.469 1436.87C587.474 1437.15 587.474 1437.42 587.474 1437.69C587.474 1438.35 587.461 1438.98 587.424 1439.55C587.394 1440.06 587.352 1440.55 587.307 1441.04C587.301 1441.1 587.296 1441.15 587.291 1441.21C587.275 1441.37 587.259 1441.54 587.24 1441.71C587.211 1441.98 587.179 1442.24 587.147 1442.49C587.147 1442.51 587.142 1442.53 587.142 1442.55C587.139 1442.57 587.136 1442.59 587.134 1442.61C586.301 1449.22 583.812 1455.39 579.82 1460.72C579.719 1460.86 579.618 1460.99 579.515 1461.13C579.469 1461.19 579.424 1461.25 579.379 1461.31C579.227 1461.51 579.081 1461.69 578.935 1461.87C575.611 1466.08 571.635 1469.3 567.468 1471.64C560.324 1475.76 552.82 1477.28 545.964 1476.69C545.956 1476.69 545.948 1476.69 545.943 1476.69C545.881 1476.69 545.818 1476.68 545.754 1476.68C545.432 1476.66 545.102 1476.64 544.759 1476.61C544.629 1476.6 544.501 1476.59 544.371 1476.57C544.19 1476.56 544.017 1476.54 543.85 1476.52C543.844 1476.52 543.839 1476.52 543.836 1476.52C543.626 1476.5 543.427 1476.48 543.246 1476.46C543.238 1476.46 543.227 1476.46 543.219 1476.45C542.435 1476.36 541.93 1476.28 541.89 1476.27C541.225 1476.17 540.805 1476.1 540.095 1475.94C540.055 1475.94 540.012 1475.93 539.975 1475.92C539.975 1475.92 539.972 1475.92 539.97 1475.92C539.919 1475.91 539.868 1475.9 539.815 1475.89C539.765 1475.88 539.717 1475.86 539.664 1475.85C539.384 1475.79 539.092 1475.73 538.783 1475.66L538.648 1475.63L538.132 1475.5C538.119 1475.49 538.103 1475.49 538.089 1475.49H538.073C537.552 1475.36 536.893 1475.16 536.35 1475C536.342 1474.99 536.332 1474.99 536.324 1474.99C536.273 1474.97 536.217 1474.96 536.169 1474.94C536.068 1474.91 535.978 1474.88 535.89 1474.85C535.866 1474.84 535.842 1474.84 535.818 1474.83C535.257 1474.65 534.93 1474.54 534.422 1474.35C534.377 1474.33 534.324 1474.31 534.281 1474.29C534.273 1474.29 534.263 1474.29 534.255 1474.28C533.909 1474.15 533.555 1474.02 533.196 1473.87C533.052 1473.82 532.914 1473.76 532.773 1473.7C532.611 1473.63 532.449 1473.56 532.284 1473.49C532.111 1473.42 531.928 1473.34 531.736 1473.25C531.031 1472.93 530.364 1472.61 529.726 1472.27C529.71 1472.27 529.694 1472.26 529.678 1472.25C526.111 1470.39 523.574 1468.39 522.17 1467.15C522.048 1467.04 521.958 1466.96 521.91 1466.92C521.54 1466.59 521.186 1466.26 520.825 1465.92C520.718 1465.82 520.612 1465.72 520.503 1465.63C520.083 1465.24 519.418 1464.56 518.7 1463.76C517.312 1462.25 516.083 1460.66 515.03 1459.04C514.865 1458.79 514.705 1458.54 514.562 1458.31C514.447 1458.13 514.33 1457.94 514.211 1457.74C511.908 1454.01 510.618 1450.52 509.897 1447.7C509.836 1447.47 509.78 1447.24 509.73 1447.03C509.722 1447 509.714 1446.96 509.706 1446.92C509.054 1444.35 508.722 1441.93 508.594 1439.74C508.594 1439.71 508.589 1439.67 508.589 1439.63L508.586 1439.61Z" fill="url(#paint2_radial_455_3271)"/>
<path d="M655.097 1483.42C655.72 1489.38 653.738 1494.22 649.377 1497.68C647.215 1495.53 645.231 1493.38 643.362 1491.28C637.891 1485.12 632.9 1478.91 625.4 1472.71C616.696 1465.5 604.827 1458.72 593.235 1454.14C587.682 1451.95 583.805 1451.41 578.701 1449.89C572.093 1447.91 564.162 1444.42 557.362 1441.69C544.517 1436.55 531.476 1431 519.075 1424.25C505.361 1416.78 493.162 1408.25 481.636 1399.51C482.442 1398.77 483.346 1398.08 484.346 1397.45C496.808 1405.98 509.61 1414.62 523.668 1422.1C537.888 1429.66 551.903 1431.81 565.495 1435.59C576.473 1438.64 588.123 1442.4 599.405 1448.12C619.621 1458.37 635.383 1473.15 655.097 1483.42V1483.42Z" fill="#FED09E"/>
<path d="M527.62 1419.82C544.579 1426.43 558.157 1426.98 574.013 1431.37C584.448 1434.25 595.844 1438.53 606.274 1444.39C618.081 1451.03 627.788 1459.19 639.71 1465.7C643.308 1467.66 647.05 1469.42 650.776 1470.94C648.912 1467.55 646.446 1463.95 643.359 1460.19C637.631 1453.2 630.261 1446.22 621.791 1439.55C619.27 1440.1 615.481 1439.69 611.457 1438.76C596.413 1435.28 579.339 1425.6 563.128 1419.3C548.663 1413.68 535.135 1410.85 521.107 1406.64C511.344 1403.72 500.539 1399.7 490.976 1394.54C489.652 1394.94 488.415 1395.39 487.271 1395.9C487.801 1396.35 488.311 1396.8 488.819 1397.24C498.994 1406.04 513.56 1414.35 527.62 1419.83V1419.82Z" fill="#FFA776"/>
<path d="M503.943 1392.7C515.862 1396.93 527.782 1401.17 539.704 1405.4C557.976 1411.89 576.688 1418.51 592.942 1421.31C593.713 1421.44 594.479 1421.57 595.245 1421.69C571.709 1408.08 544.905 1397.62 521.609 1394C515.046 1392.98 509.145 1392.56 503.943 1392.7V1392.7Z" fill="#FED09E"/>
<path d="M544.265 1478.82C553.711 1483.87 563.551 1488.38 573.375 1492.12C571.325 1489.04 569.49 1485.98 567.37 1482.89C562.573 1475.9 555.166 1467.77 543.779 1461.48C535.955 1457.16 527.596 1454.46 519.639 1451.93C511.845 1449.45 504.05 1446.97 496.255 1444.49C499.186 1447.41 502.375 1450.31 505.771 1453.17C512.188 1454.38 519.754 1456.78 526.376 1460.76C535.617 1466.33 539.827 1472.86 544.265 1478.82Z" fill="#FED09E"/>
<path d="M479.435 1421.78C480.469 1422.67 481.525 1423.54 482.623 1424.4C494.237 1433.52 510.092 1440.72 524.905 1447.32C547.773 1457.5 570.697 1467.7 593.568 1476.73C598.36 1478.62 603.272 1480.52 607.865 1483.08C612.457 1485.65 616.744 1489.09 617.446 1491.56C618.406 1494.95 612.63 1495.19 612.58 1498.19C612.556 1499.56 613.649 1501.21 615.287 1502.99C623.688 1503.96 630.868 1503.86 636.724 1502.81C632.985 1499.43 629.108 1496.08 624.858 1492.82C610.705 1481.94 592.788 1472.33 575.138 1463.98C563.466 1458.45 551.743 1453.42 540.159 1447.73C529.144 1442.32 519.631 1438.71 511.06 1431.12C505.265 1425.98 502.034 1420.98 496.758 1415.85C492.101 1411.32 485.833 1406.75 478.935 1402.79C475.983 1407.66 476.047 1414.12 479.432 1421.78L479.435 1421.78Z" fill="#FFA776"/>
</g>
<g filter="url(#filter1_d_455_3271)">
<mask id="mask1_455_3271" style="mask-type:luminance" maskUnits="userSpaceOnUse" x="460" y="1398" width="181" height="85">
<path d="M496.191 1453.73C500.175 1449.92 504.744 1446.78 509.467 1443.9C509.565 1444.32 509.674 1444.76 509.791 1445.2C502.193 1450.29 498.047 1454.63 499.071 1457.09C501.212 1462.23 525.133 1457.2 552.501 1445.87C579.869 1434.53 600.317 1421.17 598.176 1416.03C597.152 1413.57 591.158 1413.44 582.196 1415.2C581.97 1414.82 581.736 1414.43 581.496 1414.06C586.868 1412.76 592.312 1411.75 597.825 1411.62C605.992 1411.57 607.186 1414.97 601.532 1420.53C595.793 1426 588.852 1430.09 581.975 1434.01C572.71 1439.17 563.08 1443.67 553.28 1447.73C543.48 1451.79 533.489 1455.42 523.288 1458.33C515.645 1460.42 507.85 1462.45 499.912 1462.64C491.739 1462.72 490.553 1459.31 496.194 1453.74L496.191 1453.73ZM577.685 1409.02C578.207 1409.6 578.709 1410.2 579.193 1410.81C604.891 1403.19 623.887 1401.44 626.392 1407.44C629.969 1416.03 598.548 1437.21 556.208 1454.75C513.871 1472.3 476.647 1479.56 473.068 1470.97C470.563 1464.96 485.221 1452.77 508.77 1439.98C508.733 1439.69 508.701 1439.4 508.672 1439.12C508.621 1438.65 508.579 1438.16 508.544 1437.66C477.219 1453.91 457.13 1469.97 460.335 1477.66C464.59 1487.87 508.286 1479.47 557.932 1458.9C607.577 1438.32 644.375 1413.37 640.12 1403.16C636.915 1395.47 611.329 1398.34 577.68 1409.01L577.685 1409.02ZM479.437 1467.63C482.676 1475.41 516.663 1468.71 555.347 1452.68C594.03 1436.65 622.765 1417.36 619.526 1409.59C617.371 1404.42 601.617 1405.65 579.927 1411.77C580.427 1412.44 580.903 1413.13 581.353 1413.83C586.993 1412.45 592.716 1411.38 598.53 1411.28C606.769 1411.26 608.486 1414.86 602.519 1420.84C596.724 1426.48 589.698 1430.66 582.733 1434.68C573.359 1439.96 563.607 1444.54 553.676 1448.68C543.73 1452.78 533.59 1456.43 523.227 1459.33C515.453 1461.42 507.526 1463.44 499.43 1463.55C491.197 1463.56 489.468 1459.97 495.452 1453.99C499.627 1449.95 504.438 1446.66 509.406 1443.64C509.217 1442.8 509.063 1441.98 508.938 1441.18C489.277 1452.2 477.278 1462.47 479.434 1467.64L479.437 1467.63Z" fill="white"/>
</mask>
<g mask="url(#mask1_455_3271)">
<path d="M597.825 1411.62C589.884 1411.8 582.082 1413.82 574.433 1415.89C564.221 1418.78 554.222 1422.4 544.412 1426.44C534.617 1430.52 524.993 1435.04 515.733 1440.21C508.861 1444.15 501.925 1448.25 496.194 1453.73C490.554 1459.3 491.74 1462.71 499.912 1462.64C507.85 1462.44 515.648 1460.41 523.288 1458.32C533.489 1455.42 543.481 1451.78 553.281 1447.72C563.08 1443.66 572.71 1439.17 581.975 1434.01C588.853 1430.08 595.794 1426 601.533 1420.53C607.186 1414.97 605.992 1411.56 597.825 1411.62V1411.62ZM552.504 1445.86C525.136 1457.2 501.215 1462.23 499.074 1457.09C496.934 1451.95 517.382 1438.59 544.749 1427.25C572.117 1415.91 596.038 1410.89 598.179 1416.03C600.32 1421.17 579.872 1434.53 552.504 1445.86ZM542.526 1421.92C492.881 1442.5 456.083 1467.45 460.338 1477.66C464.593 1487.87 508.289 1479.47 557.935 1458.9C607.58 1438.33 644.378 1413.38 640.123 1403.17C635.868 1392.95 592.172 1401.35 542.526 1421.92ZM556.209 1454.76C513.871 1472.3 476.648 1479.56 473.068 1470.97C469.491 1462.39 500.912 1441.21 543.252 1423.66C585.59 1406.12 622.813 1398.86 626.393 1407.45C629.969 1416.03 598.549 1437.21 556.209 1454.76ZM543.616 1424.54C504.933 1440.57 476.198 1459.86 479.437 1467.63C482.677 1475.4 516.664 1468.71 555.347 1452.68C594.03 1436.65 622.765 1417.36 619.526 1409.59C616.287 1401.81 582.3 1408.51 543.616 1424.54ZM602.519 1420.84C596.724 1426.47 589.698 1430.66 582.733 1434.68C573.359 1439.95 563.607 1444.54 553.677 1448.68C543.731 1452.77 533.591 1456.43 523.227 1459.33C515.454 1461.42 507.526 1463.43 499.431 1463.55C491.197 1463.55 489.469 1459.96 495.452 1453.99C501.255 1448.37 508.286 1444.2 515.257 1440.19C524.639 1434.94 534.396 1430.37 544.329 1426.25C554.265 1422.14 564.394 1418.47 574.75 1415.54C582.515 1413.44 590.438 1411.42 598.53 1411.28C606.769 1411.26 608.487 1414.86 602.519 1420.84V1420.84Z" fill="#FEFEFC"/>
</g>
</g>
<mask id="mask2_455_3271" style="mask-type:luminance" maskUnits="userSpaceOnUse" x="91" y="1418" width="171" height="171">
<path d="M115.277 1441.27C115.759 1440.8 116.23 1440.35 116.7 1439.92C121.003 1435.87 126.505 1431.62 133.461 1427.89C136.79 1426 141.448 1423.81 147.454 1421.95C148.907 1421.47 150.556 1421.01 152.213 1420.6C152.611 1420.49 153.019 1420.4 153.416 1420.3C153.568 1420.25 153.719 1420.23 153.882 1420.2C154.337 1420.09 154.78 1419.99 155.235 1419.9C157.577 1419.4 159.846 1419.01 162.052 1418.75C162.772 1418.65 163.491 1418.57 164.199 1418.48C164.292 1418.47 164.373 1418.46 164.477 1418.46C164.987 1418.41 165.497 1418.37 165.995 1418.33C170.144 1417.98 174.01 1418 177.578 1418.25C178.257 1418.29 178.936 1418.34 179.603 1418.4C179.902 1418.43 180.178 1418.45 180.477 1418.48C180.753 1418.5 181.029 1418.53 181.305 1418.55C181.431 1418.57 181.546 1418.58 181.66 1418.59C181.798 1418.6 181.936 1418.62 182.062 1418.64C182.303 1418.67 182.556 1418.69 182.797 1418.73C187.344 1419.29 190.808 1420.04 193.639 1420.75C193.719 1420.77 193.799 1420.79 193.879 1420.81C193.845 1420.79 193.799 1420.79 193.776 1420.78C194.072 1420.86 194.357 1420.94 194.631 1421.01C195.796 1421.3 197.128 1421.7 198.471 1422.14C199.211 1422.36 199.94 1422.58 200.565 1422.81C202.282 1423.39 204.553 1424.23 206.229 1424.96C206.229 1424.96 206.251 1424.98 206.274 1424.98C207.089 1425.33 207.882 1425.68 208.662 1426.04C208.662 1426.04 208.673 1426.05 208.684 1426.06C208.695 1426.07 208.729 1426.09 208.752 1426.09C209.216 1426.3 209.668 1426.51 210.086 1426.71C210.674 1427 211.238 1427.28 211.791 1427.57C213.508 1428.41 215.243 1429.35 217.009 1430.39C217.02 1430.4 217.031 1430.42 217.054 1430.42C218.449 1431.23 219.841 1432.09 221.253 1433.05C228.395 1437.75 234.742 1443.45 240.284 1450.1C243.191 1453.49 246.233 1457.7 249.073 1462.58L249.395 1463.11C249.395 1463.11 249.395 1463.11 249.406 1463.13C249.417 1463.14 249.428 1463.15 249.439 1463.16C250.188 1464.48 250.925 1465.8 251.678 1467.29C252.188 1468.25 252.737 1469.41 253.177 1470.4C253.188 1470.41 253.199 1470.42 253.209 1470.46C253.251 1470.55 253.304 1470.66 253.346 1470.76C254.069 1472.38 254.406 1473.1 254.892 1474.36C254.955 1474.5 255.007 1474.63 255.059 1474.76C255.61 1476.12 255.97 1477.08 256.387 1478.33C256.663 1479.13 256.928 1479.91 257.192 1480.72C257.213 1480.77 257.222 1480.8 257.231 1480.86C257.566 1481.9 257.865 1482.94 258.164 1484C258.174 1484.04 258.184 1484.07 258.204 1484.12C258.463 1485.05 258.699 1485.97 258.922 1486.9C259.077 1487.56 259.221 1488.21 259.354 1488.84C259.401 1489.09 259.471 1489.34 259.517 1489.58C260.885 1496.12 261.223 1501.44 261.268 1504.8C261.276 1505.15 261.275 1505.41 261.28 1505.56C261.315 1507.1 261.307 1508.54 261.256 1509.69C261.239 1510.06 261.232 1510.47 261.203 1510.87C261.202 1510.89 261.2 1510.94 261.199 1510.96L261.195 1511.05C261.108 1512.98 260.954 1515.37 260.537 1518.47C258.672 1532.98 253.145 1546.27 244.328 1557.48C244.083 1557.81 243.826 1558.12 243.569 1558.45C243.533 1558.49 243.508 1558.53 243.471 1558.58C242.1 1560.31 240.638 1562.01 239.319 1563.36C239.235 1563.43 239.15 1563.53 239.065 1563.62C238.023 1564.71 236.839 1565.88 235.598 1567.03C235.405 1567.22 235.212 1567.41 235.031 1567.59L234.382 1568.16C233.937 1568.54 233.504 1568.92 233.072 1569.3C232.026 1570.21 230.995 1571.07 230.027 1571.8C229.166 1572.47 228.318 1573.1 227.472 1573.68C227.388 1573.75 227.281 1573.82 227.186 1573.89C226.899 1574.09 226.601 1574.31 226.316 1574.49C225.839 1574.82 225.375 1575.14 224.934 1575.43C224.91 1575.45 224.874 1575.48 224.85 1575.51C224.814 1575.54 224.778 1575.57 224.731 1575.59C212.973 1583.42 199.507 1587.89 185.179 1588.71C184.82 1588.74 184.449 1588.75 184.09 1588.78C183.928 1588.79 183.766 1588.8 183.604 1588.81C183.072 1588.83 182.552 1588.84 182.067 1588.84C170.518 1589.21 159.588 1587.11 149.789 1583.47C132.816 1577.39 119.473 1567.07 110.451 1554.89C110.451 1554.89 110.429 1554.87 110.418 1554.85C110.331 1554.75 110.232 1554.64 110.156 1554.53C109.708 1553.97 109.284 1553.39 108.827 1552.77C108.652 1552.55 108.489 1552.32 108.327 1552.08C108.087 1551.76 107.859 1551.45 107.653 1551.15C107.653 1551.15 107.642 1551.14 107.631 1551.12C107.36 1550.74 107.11 1550.38 106.883 1550.05C106.872 1550.04 106.861 1550.03 106.85 1550.02C105.864 1548.58 105.26 1547.63 105.217 1547.55C104.407 1546.32 103.9 1545.52 103.121 1544.12C103.066 1544.06 103.024 1543.97 102.981 1543.89C102.916 1543.8 102.874 1543.7 102.821 1543.59C102.768 1543.48 102.715 1543.4 102.662 1543.29C102.352 1542.74 102.031 1542.16 101.689 1541.55L101.54 1541.29L100.997 1540.26C100.997 1540.26 100.953 1540.21 100.943 1540.17L100.921 1540.15C100.368 1539.1 99.7251 1537.74 99.1988 1536.61C99.1878 1536.6 99.1769 1536.59 99.1779 1536.56C99.1251 1536.46 99.0722 1536.35 99.0304 1536.25C98.9357 1536.05 98.852 1535.86 98.7683 1535.66C98.7473 1535.62 98.7264 1535.57 98.6945 1535.51C98.1703 1534.33 97.8553 1533.63 97.432 1532.52C97.3901 1532.43 97.3493 1532.31 97.3075 1532.21C97.2965 1532.2 97.2855 1532.19 97.2756 1532.15C96.9747 1531.4 96.6749 1530.62 96.387 1529.83C96.2745 1529.51 96.173 1529.2 96.0485 1528.89C95.915 1528.52 95.7926 1528.16 95.6591 1527.79C95.5147 1527.41 95.3833 1527 95.253 1526.56C94.7364 1524.96 94.2878 1523.38 93.8941 1521.87C93.8841 1521.83 93.8742 1521.8 93.8642 1521.76C91.6491 1513.27 91.1437 1506.29 91.0959 1502.22C91.0884 1501.87 91.0888 1501.61 91.0841 1501.45C91.0747 1500.38 91.0873 1499.33 91.1009 1498.26C91.1034 1497.95 91.1059 1497.64 91.0974 1497.31C91.1073 1496.07 91.2224 1494.02 91.4409 1491.73C91.8476 1487.31 92.5811 1483.07 93.6503 1479.06C93.8052 1478.44 93.9711 1477.83 94.135 1477.27C94.2466 1476.84 94.3834 1476.37 94.5321 1475.89C97.1309 1466.88 100.817 1459.88 104.28 1454.76C104.564 1454.34 104.837 1453.92 105.108 1453.55C105.145 1453.5 105.206 1453.42 105.243 1453.37C108.408 1448.7 111.77 1444.8 115.08 1441.53C115.14 1441.48 115.2 1441.43 115.26 1441.37L115.277 1441.27Z" fill="white"/>
</mask>
<g mask="url(#mask2_455_3271)">
<path d="M115.277 1441.27C115.76 1440.8 116.23 1440.35 116.7 1439.92C121.003 1435.87 126.505 1431.62 133.461 1427.89C136.79 1426 141.449 1423.81 147.455 1421.95C148.907 1421.47 150.556 1421.01 152.214 1420.6C152.611 1420.49 153.019 1420.4 153.416 1420.3C153.568 1420.25 153.719 1420.23 153.882 1420.2C154.338 1420.09 154.781 1419.99 155.235 1419.9C157.578 1419.4 159.847 1419.01 162.052 1418.75C162.772 1418.65 163.491 1418.57 164.199 1418.48C164.293 1418.47 164.374 1418.46 164.478 1418.46C164.988 1418.41 165.498 1418.37 165.996 1418.33C170.144 1417.98 174.011 1418 177.578 1418.25C178.257 1418.29 178.936 1418.34 179.603 1418.4C179.902 1418.43 180.178 1418.45 180.477 1418.48C180.753 1418.5 181.029 1418.53 181.305 1418.55C181.431 1418.57 181.546 1418.58 181.661 1418.59C181.799 1418.6 181.937 1418.62 182.063 1418.64C182.304 1418.67 182.557 1418.69 182.798 1418.73C187.344 1419.29 190.808 1420.04 193.639 1420.75C193.719 1420.77 193.799 1420.79 193.879 1420.81C193.845 1420.79 193.799 1420.79 193.776 1420.78C194.073 1420.86 194.358 1420.94 194.632 1421.01C195.796 1421.3 197.129 1421.7 198.471 1422.14C199.212 1422.36 199.941 1422.58 200.565 1422.81C202.282 1423.39 204.553 1424.23 206.229 1424.96C206.229 1424.96 206.251 1424.98 206.274 1424.98C207.09 1425.33 207.882 1425.68 208.663 1426.04C208.663 1426.04 208.674 1426.05 208.685 1426.06C208.696 1426.07 208.729 1426.09 208.752 1426.09C209.216 1426.3 209.669 1426.51 210.087 1426.71C210.674 1427 211.239 1427.28 211.791 1427.57C213.508 1428.41 215.244 1429.35 217.009 1430.39C217.02 1430.4 217.031 1430.42 217.054 1430.42C218.449 1431.23 219.842 1432.09 221.253 1433.05C228.395 1437.75 234.742 1443.45 240.284 1450.1C243.191 1453.49 246.234 1457.7 249.073 1462.58L249.396 1463.11C249.396 1463.11 249.396 1463.11 249.407 1463.13C249.418 1463.14 249.428 1463.15 249.439 1463.16C250.189 1464.48 250.926 1465.8 251.678 1467.29C252.189 1468.25 252.737 1469.41 253.178 1470.4C253.189 1470.41 253.2 1470.42 253.21 1470.46C253.251 1470.55 253.304 1470.66 253.346 1470.76C254.07 1472.38 254.407 1473.1 254.893 1474.36C254.955 1474.5 255.007 1474.63 255.059 1474.76C255.61 1476.11 255.971 1477.08 256.388 1478.33C256.663 1479.13 256.928 1479.91 257.192 1480.72C257.213 1480.77 257.223 1480.8 257.232 1480.86C257.566 1481.9 257.866 1482.94 258.164 1484C258.174 1484.04 258.184 1484.07 258.205 1484.12C258.463 1485.05 258.699 1485.97 258.923 1486.9C259.078 1487.56 259.222 1488.21 259.355 1488.84C259.401 1489.09 259.471 1489.34 259.518 1489.58C260.886 1496.12 261.224 1501.44 261.268 1504.8C261.276 1505.15 261.276 1505.41 261.28 1505.56C261.315 1507.1 261.308 1508.54 261.256 1509.69C261.239 1510.06 261.233 1510.47 261.203 1510.87C261.202 1510.89 261.2 1510.94 261.199 1510.96L261.195 1511.05C261.108 1512.98 260.954 1515.37 260.538 1518.47C258.672 1532.98 253.145 1546.27 244.329 1557.48C244.083 1557.81 243.827 1558.12 243.569 1558.45C243.533 1558.49 243.508 1558.53 243.471 1558.58C242.1 1560.31 240.639 1562.01 239.319 1563.36C239.235 1563.43 239.15 1563.53 239.065 1563.62C238.023 1564.71 236.84 1565.88 235.599 1567.03C235.405 1567.22 235.212 1567.41 235.031 1567.59L234.382 1568.16C233.937 1568.54 233.505 1568.92 233.072 1569.3C232.027 1570.21 230.995 1571.07 230.027 1571.8C229.166 1572.47 228.318 1573.1 227.472 1573.68C227.388 1573.75 227.281 1573.82 227.186 1573.89C226.9 1574.09 226.601 1574.31 226.316 1574.49C225.84 1574.82 225.375 1575.14 224.935 1575.43C224.91 1575.45 224.874 1575.48 224.85 1575.51C224.814 1575.54 224.778 1575.57 224.731 1575.59C212.973 1583.42 199.508 1587.89 185.179 1588.71C184.82 1588.74 184.45 1588.75 184.091 1588.78C183.929 1588.79 183.767 1588.8 183.605 1588.81C183.073 1588.83 182.553 1588.84 182.068 1588.84C170.519 1589.21 159.588 1587.11 149.79 1583.47C132.816 1577.39 119.473 1567.07 110.452 1554.89C110.452 1554.89 110.43 1554.87 110.419 1554.85C110.331 1554.75 110.232 1554.64 110.156 1554.53C109.708 1553.97 109.284 1553.39 108.827 1552.77C108.652 1552.55 108.49 1552.32 108.327 1552.08C108.087 1551.76 107.859 1551.45 107.653 1551.15C107.653 1551.15 107.642 1551.14 107.631 1551.12C107.36 1550.74 107.11 1550.38 106.883 1550.05C106.872 1550.04 106.861 1550.03 106.85 1550.02C105.864 1548.58 105.261 1547.63 105.218 1547.55C104.408 1546.32 103.901 1545.52 103.121 1544.13C103.066 1544.06 103.024 1543.97 102.981 1543.89C102.916 1543.8 102.874 1543.7 102.822 1543.59C102.769 1543.48 102.715 1543.4 102.662 1543.29C102.352 1542.74 102.032 1542.16 101.69 1541.55L101.54 1541.29L100.998 1540.26C100.998 1540.26 100.954 1540.21 100.944 1540.17L100.922 1540.15C100.368 1539.1 99.7254 1537.74 99.1991 1536.61C99.1882 1536.6 99.1772 1536.59 99.1782 1536.56C99.1254 1536.46 99.0725 1536.35 99.0307 1536.25C98.936 1536.05 98.8523 1535.86 98.7686 1535.66C98.7477 1535.62 98.7267 1535.57 98.6948 1535.51C98.1706 1534.33 97.8556 1533.63 97.4323 1532.52C97.3905 1532.43 97.3496 1532.31 97.3078 1532.21C97.2968 1532.2 97.2858 1532.19 97.2759 1532.15C96.975 1531.4 96.6752 1530.62 96.3874 1529.83C96.2749 1529.51 96.1733 1529.2 96.0488 1528.89C95.9154 1528.52 95.7929 1528.16 95.6595 1527.79C95.515 1527.41 95.3837 1527 95.2533 1526.56C94.7368 1524.96 94.2881 1523.38 93.8944 1521.87C93.8845 1521.83 93.8745 1521.8 93.8646 1521.76C91.6494 1513.27 91.144 1506.29 91.0962 1502.22C91.0888 1501.87 91.0892 1501.61 91.0844 1501.46C91.0751 1500.38 91.0877 1499.33 91.1013 1498.26C91.1038 1497.95 91.1062 1497.64 91.0977 1497.31C91.1076 1496.07 91.2227 1494.02 91.4412 1491.73C91.848 1487.31 92.5815 1483.07 93.6506 1479.07C93.8056 1478.44 93.9715 1477.83 94.1354 1477.27C94.247 1476.84 94.3838 1476.37 94.5325 1475.89C97.1313 1466.88 100.817 1459.88 104.28 1454.76C104.565 1454.34 104.837 1453.92 105.108 1453.55C105.145 1453.5 105.206 1453.42 105.243 1453.37C108.408 1448.7 111.77 1444.8 115.081 1441.53C115.141 1441.48 115.201 1441.43 115.261 1441.37L115.277 1441.27Z" fill="url(#paint3_radial_455_3271)"/>
<g style="mix-blend-mode:screen" opacity="0.2">
<path d="M43.7815 1425.08C46.7112 1416.66 50.1333 1409.08 53.769 1402.41C53.8452 1402.25 53.9324 1402.11 54.0086 1401.96C54.6992 1400.71 55.3768 1399.5 56.0653 1398.31C58.2442 1394.51 60.8681 1390.57 63.69 1386.59C168.614 1471.47 293.668 1532.88 421.892 1563.44C420.223 1572.04 417.928 1580.46 414.871 1588.64C414.58 1589.47 414.266 1590.29 413.951 1591.12C413.912 1591.22 413.873 1591.32 413.822 1591.43C412.147 1595.82 410.241 1600.22 408.384 1603.78C408.27 1604.01 408.133 1604.24 408.018 1604.47C407.967 1604.58 407.892 1604.71 407.818 1604.82C277.809 1572.41 151.244 1510.21 43.7815 1425.08ZM307.583 1686.21C307.922 1686.11 308.261 1686.02 308.6 1685.92C309.372 1685.69 310.12 1685.48 310.892 1685.24C334.958 1678.15 356.091 1666.23 373.571 1650.13C253.259 1622.22 135.586 1566.77 34.879 1489.96C34.937 1491.24 35.0258 1492.59 35.1356 1494C35.7841 1503.16 37.2817 1512.68 39.6125 1522.4C40.8031 1527.47 42.0447 1531.93 42.9271 1534.62C43.1499 1535.31 43.3738 1535.97 43.5966 1536.66C44.3347 1538.97 45.0869 1541.23 45.8709 1543.55C45.9724 1543.85 46.1664 1544.41 46.4442 1545.16C49.3689 1553.49 55.1577 1567.38 65.1691 1583.6C135.695 1628.58 211.842 1664.58 290.208 1690C294.919 1689.16 299.619 1688.3 304.302 1687.06C305.352 1686.81 306.426 1686.53 307.56 1686.21L307.583 1686.21ZM397.602 1433.96C397.452 1433.71 397.313 1433.46 397.163 1433.22C396.391 1431.9 395.643 1430.59 394.815 1429.24C393.666 1427.33 392.47 1425.47 391.261 1423.61C391.195 1423.53 391.165 1423.45 391.111 1423.36C389.719 1421.23 388.302 1419.13 386.838 1417.06C386.761 1416.97 386.708 1416.86 386.631 1416.77C385.492 1415.16 384.341 1413.56 383.165 1412.01C382.807 1411.51 382.48 1411.08 382.131 1410.64C315.614 1387.79 250.922 1356.99 190.479 1319.21C187.864 1319.37 185.142 1319.58 182.186 1319.89C181.642 1319.95 181.063 1319.99 180.541 1320.05C180.251 1320.08 179.949 1320.12 179.647 1320.16C179.369 1320.19 179.125 1320.22 178.835 1320.25C178.22 1320.33 177.617 1320.41 177.001 1320.51C176.374 1320.59 175.735 1320.69 175.073 1320.78C173.587 1320.99 172.077 1321.21 170.6 1321.46C168.555 1321.79 166.398 1322.28 164.279 1322.69C236.971 1370.31 316.123 1407.99 397.602 1433.96ZM424.742 1538.1C425.205 1524.51 424.113 1510.6 421.24 1496.52C419.901 1489.61 418.487 1484.38 417.269 1480.17L417.209 1479.96C417.209 1479.96 417.169 1479.82 417.15 1479.75C416.89 1478.85 416.628 1478 416.388 1477.19C415.966 1475.8 415.451 1474.17 414.871 1472.45C313.881 1444.15 215.83 1396.73 129.324 1333.81C127.546 1334.59 125.787 1335.22 124.006 1336.09C123.122 1336.5 122.236 1336.95 121.339 1337.4C121.032 1337.55 120.726 1337.69 120.419 1337.85C119.627 1338.25 118.836 1338.65 118.044 1339.08C114.806 1340.78 111.62 1342.59 108.841 1344.35C97.3453 1351.33 88.9732 1358.39 83.212 1364.09C81.26 1365.93 79.5609 1367.79 77.7819 1369.62C181.413 1448.38 301.416 1506.41 424.731 1538.09L424.742 1538.1ZM381.553 1642.26C383.068 1640.65 384.604 1639.07 386.053 1637.39C386.126 1637.33 386.188 1637.23 386.237 1637.16C386.297 1637.11 386.346 1637.05 386.395 1636.98C387.137 1636.13 387.893 1635.23 388.686 1634.28C389.162 1633.71 389.638 1633.12 390.115 1632.52C390.274 1632.32 390.433 1632.14 390.592 1631.93C391.778 1630.46 392.943 1628.91 394.134 1627.32C266.629 1597.73 142.01 1538.16 36.2577 1455.55C35.3665 1461.75 34.8192 1468.51 34.6959 1475.85C138.075 1554.56 258.288 1612.04 381.541 1642.27L381.553 1642.26Z" fill="#C4DBFB"/>
</g>
</g>
<g filter="url(#filter2_d_455_3271)">
<path d="M260.752 1512.95C260.714 1513.53 260.676 1514.11 260.615 1514.68C281.021 1531.68 291.717 1547.32 287.39 1556.91C279.366 1574.67 222.937 1565.16 161.603 1535.7C100.258 1506.22 56.8846 1467.79 64.8983 1450.02C68.174 1442.79 79.4509 1440.08 95.839 1441.4C101.195 1441.83 107.117 1442.72 113.447 1443.99C113.834 1443.59 114.222 1443.16 114.643 1442.75C87.6119 1437.29 68.0437 1439.07 63.4228 1449.31C55.0388 1467.88 98.805 1507.28 160.961 1537.15C197.209 1554.57 231.821 1564.94 256.053 1566.9C273.371 1568.3 285.394 1565.38 288.888 1557.65C293.521 1547.4 282.224 1530.79 260.763 1512.96L260.752 1512.95Z" fill="white"/>
</g>
<path d="M157.588 1544.81C157.588 1544.81 148.617 1535.96 140.041 1535.1C130.578 1534.16 113.895 1548.56 113.895 1548.56C113.895 1548.56 130.358 1533.9 130.668 1524.39C130.95 1515.76 123.376 1505.69 123.376 1505.69C123.376 1505.69 132.347 1514.54 140.923 1515.39C150.386 1516.34 167.069 1501.93 167.069 1501.93C167.069 1501.93 150.606 1516.59 150.295 1526.11C150.013 1534.74 157.588 1544.81 157.588 1544.81Z" fill="white"/>
<path d="M238.38 1494.48C238.38 1494.48 232.466 1488.64 226.802 1488.07C220.563 1487.46 209.557 1496.95 209.557 1496.95C209.557 1496.95 220.409 1487.28 220.62 1481C220.806 1475.31 215.807 1468.67 215.807 1468.67C215.807 1468.67 221.72 1474.51 227.384 1475.07C233.624 1475.69 244.629 1466.2 244.629 1466.2C244.629 1466.2 233.778 1475.87 233.566 1482.14C233.381 1487.84 238.38 1494.48 238.38 1494.48Z" fill="white"/>
<path d="M240.121 1582.57C240.121 1582.57 238.283 1580.76 236.522 1580.57C234.588 1580.38 231.16 1583.34 231.16 1583.34C231.16 1583.34 234.532 1580.34 234.608 1578.38C234.664 1576.62 233.103 1574.54 233.103 1574.54C233.103 1574.54 234.942 1576.35 236.702 1576.54C238.636 1576.74 242.064 1573.78 242.064 1573.78C242.064 1573.78 238.692 1576.78 238.616 1578.73C238.561 1580.49 240.121 1582.57 240.121 1582.57Z" fill="white"/>
<path d="M138.786 1485.86C138.786 1485.86 136.073 1483.19 133.506 1482.93C130.662 1482.65 125.634 1486.99 125.634 1486.99C125.634 1486.99 130.596 1482.57 130.69 1479.71C130.782 1477.12 128.49 1474.09 128.49 1474.09C128.49 1474.09 131.204 1476.75 133.771 1477.01C136.614 1477.3 141.642 1472.95 141.642 1472.95C141.642 1472.95 136.68 1477.37 136.587 1480.23C136.494 1482.82 138.786 1485.86 138.786 1485.86Z" fill="white"/>
</g>
<defs>
<filter id="filter0_d_455_3271" x="134.869" y="678.387" width="53.7061" height="69.4814" filterUnits="userSpaceOnUse" color-interpolation-filters="sRGB">
<feFlood flood-opacity="0" result="BackgroundImageFix"/>
<feColorMatrix in="SourceAlpha" type="matrix" values="0 0 0 0 0 0 0 0 0 0 0 0 0 0 0 0 0 0 127 0" result="hardAlpha"/>
<feOffset/>
<feGaussianBlur stdDeviation="4"/>
<feComposite in2="hardAlpha" operator="out"/>
<feColorMatrix type="matrix" values="0 0 0 0 1 0 0 0 0 1 0 0 0 0 1 0 0 0 0.9 0"/>
<feBlend mode="normal" in2="BackgroundImageFix" result="effect1_dropShadow_455_3271"/>
<feBlend mode="normal" in="SourceGraphic" in2="effect1_dropShadow_455_3271" result="shape"/>
</filter>
<filter id="filter1_d_455_3271" x="420.003" y="1358.82" width="260.452" height="163.181" filterUnits="userSpaceOnUse" color-interpolation-filters="sRGB">
<feFlood flood-opacity="0" result="BackgroundImageFix"/>
<feColorMatrix in="SourceAlpha" type="matrix" values="0 0 0 0 0 0 0 0 0 0 0 0 0 0 0 0 0 0 127 0" result="hardAlpha"/>
<feOffset/>
<feGaussianBlur stdDeviation="20"/>
<feColorMatrix type="matrix" values="0 0 0 0 1 0 0 0 0 1 0 0 0 0 1 0 0 0 0.75 0"/>
<feBlend mode="normal" in2="BackgroundImageFix" result="effect1_dropShadow_455_3271"/>
<feBlend mode="normal" in="SourceGraphic" in2="effect1_dropShadow_455_3271" result="shape"/>
</filter>
<filter id="filter2_d_455_3271" x="52.3936" y="1429.73" width="247.523" height="147.511" filterUnits="userSpaceOnUse" color-interpolation-filters="sRGB">
<feFlood flood-opacity="0" result="BackgroundImageFix"/>
<feColorMatrix in="SourceAlpha" type="matrix" values="0 0 0 0 0 0 0 0 0 0 0 0 0 0 0 0 0 0 127 0" result="hardAlpha"/>
<feOffset/>
<feGaussianBlur stdDeviation="5"/>
<feColorMatrix type="matrix" values="0 0 0 0 1 0 0 0 0 1 0 0 0 0 1 0 0 0 0.75 0"/>
<feBlend mode="normal" in2="BackgroundImageFix" result="effect1_dropShadow_455_3271"/>
<feBlend mode="normal" in="SourceGraphic" in2="effect1_dropShadow_455_3271" result="shape"/>
</filter>
<linearGradient id="paint0_linear_455_3271" x1="379.915" y1="263.22" x2="430.564" y2="-435.116" gradientUnits="userSpaceOnUse">
<stop stop-color="#0F172A"/>
<stop offset="1" stop-color="#315D93"/>
</linearGradient>
<linearGradient id="paint1_linear_455_3271" x1="606.703" y1="467.253" x2="658.13" y2="663.1" gradientUnits="userSpaceOnUse">
<stop stop-color="#5BA6FE"/>
<stop offset="1" stop-color="#365A6F" stop-opacity="0"/>
</linearGradient>
<radialGradient id="paint2_radial_455_3271" cx="0" cy="0" r="1" gradientUnits="userSpaceOnUse" gradientTransform="translate(544.608 1444.5) rotate(-134.702) scale(43.8212 43.8227)">
<stop stop-color="#E05B41"/>
<stop offset="0.73" stop-color="#E05B41"/>
<stop offset="0.99" stop-color="#F58466"/>
</radialGradient>
<radialGradient id="paint3_radial_455_3271" cx="0" cy="0" r="1" gradientUnits="userSpaceOnUse" gradientTransform="translate(144.288 1476.41) rotate(-87.0421) scale(102.71 102.966)">
<stop offset="0.03" stop-color="#27B1FF"/>
<stop offset="0.59" stop-color="#5BC3FE"/>
<stop offset="1" stop-color="#D0EEFF"/>
</radialGradient>
<clipPath id="clip0_455_3271">
<rect width="744" height="1624" fill="white"/>
</clipPath>
</defs>
</svg>
