<svg width="109" height="108" viewBox="0 0 109 108" fill="none" xmlns="http://www.w3.org/2000/svg">
<g clip-path="url(#clip0_2363_1549)">
<path d="M108.167 0H0.166504V108H108.167V0Z" fill="url(#paint0_radial_2363_1549)"/>
<g opacity="0.54">
<g style="mix-blend-mode:screen">
<path d="M93.6431 137.308C134.947 130.322 164.695 102.573 160.087 75.3294C155.48 48.0855 118.26 31.6633 76.9563 38.6494C35.6521 45.6355 5.90394 73.3843 10.5119 100.628C15.1199 127.872 52.339 144.294 93.6431 137.308Z" stroke="#98D6FA" stroke-miterlimit="10"/>
</g>
<g style="mix-blend-mode:screen">
<path d="M91.4053 124.076C121.628 118.964 143.395 98.6592 140.023 78.7232C136.651 58.7872 109.417 46.7698 79.1945 51.8815C48.9719 56.9933 27.2052 77.2985 30.5771 97.2345C33.949 117.171 61.1827 129.188 91.4053 124.076Z" stroke="#98D6FA" stroke-miterlimit="10"/>
</g>
<g style="mix-blend-mode:screen">
<path d="M89.6109 113.467C110.957 109.857 126.332 95.5183 123.951 81.4417C121.57 67.365 102.335 58.8805 80.9889 62.491C59.6426 66.1015 44.268 80.4397 46.6489 94.5163C49.0297 108.593 68.2645 117.077 89.6109 113.467Z" stroke="#98D6FA" stroke-miterlimit="10"/>
</g>
</g>
<g opacity="0.31">
<path d="M100.47 74.2301C100.02 74.2301 99.6501 74.9701 99.6501 75.8801C99.6501 74.9701 99.2801 74.2301 98.8301 74.2301C99.2801 74.2301 99.6501 73.4901 99.6501 72.5801C99.6501 73.4901 100.02 74.2301 100.47 74.2301Z" fill="#7DAAEA"/>
<path d="M79.7601 7.56992C79.3101 7.56992 78.9401 8.30992 78.9401 9.21992C78.9401 8.30992 78.5701 7.56992 78.1201 7.56992C78.5701 7.56992 78.9401 6.82992 78.9401 5.91992C78.9401 6.82992 79.3101 7.56992 79.7601 7.56992Z" fill="#7DAAEA"/>
<path d="M60.14 35.5299C59.69 35.5299 59.32 36.2699 59.32 37.1799C59.32 36.2699 58.95 35.5299 58.5 35.5299C58.95 35.5299 59.32 34.7899 59.32 33.8799C59.32 34.7899 59.69 35.5299 60.14 35.5299Z" fill="#D7E7FF"/>
<path d="M10.3002 88.4898C9.85016 88.4898 9.48016 89.2298 9.48016 90.1398C9.48016 89.2298 9.11016 88.4898 8.66016 88.4898C9.11016 88.4898 9.48016 87.7498 9.48016 86.8398C9.48016 87.7498 9.85016 88.4898 10.3002 88.4898Z" fill="#D7E7FF"/>
<path d="M62.56 19.1498C62.7202 19.1498 62.85 19.02 62.85 18.8598C62.85 18.6997 62.7202 18.5698 62.56 18.5698C62.3999 18.5698 62.27 18.6997 62.27 18.8598C62.27 19.02 62.3999 19.1498 62.56 19.1498Z" fill="#7DAAEA"/>
<path d="M6.9902 9.12004C7.15036 9.12004 7.2802 8.9902 7.2802 8.83004C7.2802 8.66988 7.15036 8.54004 6.9902 8.54004C6.83003 8.54004 6.7002 8.66988 6.7002 8.83004C6.7002 8.9902 6.83003 9.12004 6.9902 9.12004Z" fill="#D7E7FF"/>
<path d="M100.47 46.4902C100.63 46.4902 100.76 46.3603 100.76 46.2002C100.76 46.04 100.63 45.9102 100.47 45.9102C100.31 45.9102 100.18 46.04 100.18 46.2002C100.18 46.3603 100.31 46.4902 100.47 46.4902Z" fill="#D7E7FF"/>
<path d="M31.1303 8.83C31.2905 8.83 31.4203 8.70016 31.4203 8.54C31.4203 8.37984 31.2905 8.25 31.1303 8.25C30.9702 8.25 30.8403 8.37984 30.8403 8.54C30.8403 8.70016 30.9702 8.83 31.1303 8.83Z" fill="#D7E7FF"/>
<path d="M36.1401 29.4198C36.3003 29.4198 36.4301 29.29 36.4301 29.1298C36.4301 28.9697 36.3003 28.8398 36.1401 28.8398C35.9799 28.8398 35.8501 28.9697 35.8501 29.1298C35.8501 29.29 35.9799 29.4198 36.1401 29.4198Z" fill="#D7E7FF"/>
<path d="M9.47018 40.6498C9.63034 40.6498 9.76018 40.52 9.76018 40.3598C9.76018 40.1997 9.63034 40.0698 9.47018 40.0698C9.31001 40.0698 9.18018 40.1997 9.18018 40.3598C9.18018 40.52 9.31001 40.6498 9.47018 40.6498Z" fill="#7DAAEA"/>
<path d="M6.9902 65.9198C7.15036 65.9198 7.2802 65.79 7.2802 65.6298C7.2802 65.4697 7.15036 65.3398 6.9902 65.3398C6.83003 65.3398 6.7002 65.4697 6.7002 65.6298C6.7002 65.79 6.83003 65.9198 6.9902 65.9198Z" fill="#7DAAEA"/>
<path d="M95.7202 93.6298C95.8803 93.6298 96.0102 93.5 96.0102 93.3398C96.0102 93.1796 95.8803 93.0498 95.7202 93.0498C95.56 93.0498 95.4302 93.1796 95.4302 93.3398C95.4302 93.5 95.56 93.6298 95.7202 93.6298Z" fill="#D7E7FF"/>
<path d="M20.2201 20.4601C19.7701 20.4601 19.4001 21.2001 19.4001 22.1101C19.4001 21.2001 19.0301 20.4601 18.5801 20.4601C19.0301 20.4601 19.4001 19.7201 19.4001 18.8101C19.4001 19.7201 19.7701 20.4601 20.2201 20.4601Z" fill="#D7E7FF"/>
</g>
<path d="M80.7678 36.9801C85.5978 38.3201 90.6678 39.3001 94.8878 39.6201C92.3178 43.1301 87.9778 45.4401 83.0478 45.4401C75.2978 45.4401 68.9978 39.7501 68.7578 32.6401C72.2878 34.2801 76.5378 35.8001 80.7678 36.9801Z" fill="url(#paint1_linear_2363_1549)"/>
<path d="M97.3378 32.22C97.3378 34.51 96.7078 36.66 95.5978 38.54C91.7478 38.3 86.7378 37.45 81.0778 35.88C76.2078 34.52 72.0278 32.95 68.7778 31.41C68.9578 28.67 70.0378 26.15 71.7478 24.12C72.0478 23.76 72.3578 23.42 72.6978 23.1C75.2978 20.57 78.9678 19 83.0478 19C90.2578 19 96.2278 23.94 97.1978 30.37C97.2678 30.8 97.3078 31.24 97.3178 31.69C97.3378 31.87 97.3378 32.04 97.3378 32.22Z" fill="url(#paint2_linear_2363_1549)"/>
<path d="M104.508 37.3796C104.278 38.2096 103.508 38.7996 102.338 39.1796C101.158 39.5696 99.5777 39.7396 97.7277 39.7396C96.8377 39.7396 95.8877 39.6996 94.8877 39.6196C95.1477 39.2696 95.3777 38.9096 95.5977 38.5396C100.168 38.8296 103.078 38.2696 103.408 37.0696C103.748 35.8496 101.488 33.8296 97.3177 31.6896C97.3077 31.2396 97.2677 30.7996 97.1977 30.3696C101.958 32.7296 105.088 35.2796 104.508 37.3796Z" fill="#436ECB"/>
<path d="M95.5976 38.5397C95.3776 38.9097 95.1476 39.2697 94.8876 39.6197C90.6676 39.2997 85.5976 38.3197 80.7676 36.9797C76.5376 35.7997 72.2876 34.2797 68.7576 32.6397C68.7476 32.4997 68.7476 32.3597 68.7476 32.2197C68.7476 31.9497 68.7576 31.6797 68.7776 31.4097C72.0276 32.9497 76.2076 34.5197 81.0776 35.8797C86.7376 37.4497 91.7476 38.2997 95.5976 38.5397Z" fill="#436ECB"/>
<path d="M61.3378 25.3598C60.9678 26.6998 63.7478 29.0198 68.7778 31.4098C68.7578 31.6798 68.7478 31.9498 68.7478 32.2198C68.7478 32.3598 68.7478 32.4998 68.7578 32.6398C63.3378 30.1198 59.6078 27.3198 60.2378 25.0498C60.8378 22.9098 64.8778 22.5898 68.1578 22.7098C69.5578 22.7598 71.0778 22.8898 72.6978 23.0998C72.3578 23.4198 72.0478 23.7598 71.7478 24.1198C70.4678 23.9798 69.2578 23.8898 68.1178 23.8498C67.7278 23.8298 67.3578 23.8298 67.0078 23.8298C63.1678 23.8298 61.5478 24.5898 61.3378 25.3598Z" fill="#436ECB"/>
<path d="M26.2574 81.0134C30.4427 81.2255 34.7581 81.1 38.2596 80.5912C36.8032 83.9239 33.6836 86.6005 29.6612 87.5C23.3379 88.914 17.1595 85.4209 15.6665 79.6636C18.8459 80.3576 22.5908 80.8224 26.2574 81.0134Z" fill="url(#paint3_linear_2363_1549)"/>
<path d="M38.9086 74.1058C39.3264 75.9742 39.2047 77.8434 38.642 79.5798C35.457 80.0864 31.2142 80.307 26.3097 80.0586C22.0881 79.8375 18.3912 79.3192 15.4585 78.6557C15.1055 76.3872 15.5269 74.1341 16.5517 72.1658C16.7308 71.8174 16.9217 71.4834 17.1407 71.1603C18.8005 68.6217 21.5084 66.6711 24.8373 65.9267C30.72 64.6113 36.4923 67.5526 38.4568 72.6219C38.5924 72.96 38.7053 73.3117 38.7956 73.677C38.8448 73.8202 38.8758 73.9589 38.9086 74.1058Z" fill="url(#paint4_linear_2363_1549)"/>
<path d="M45.6983 77.0078C45.6621 77.727 45.1415 78.3488 44.2562 78.8723C43.3646 79.4058 42.1065 79.8328 40.597 80.1703C39.8709 80.3327 39.0885 80.4734 38.258 80.5906C38.4062 80.2576 38.5282 79.9219 38.6402 79.5799C42.4218 78.9827 44.6939 77.9949 44.7442 76.9556C44.7991 75.8981 42.5866 74.6623 38.7938 73.6771C38.7035 73.3118 38.5906 72.9601 38.4551 72.622C42.7694 73.6791 45.7884 75.1886 45.6983 77.0078Z" fill="#258AC2"/>
<path d="M38.6401 79.5793C38.5281 79.9213 38.4061 80.257 38.2578 80.59C34.7563 81.0989 30.4409 81.2243 26.2556 81.0122C22.589 80.8212 18.8441 80.3564 15.6647 79.6624C15.631 79.55 15.6055 79.4358 15.5799 79.3215C15.5307 79.1012 15.4895 78.8791 15.4566 78.6552C18.3893 79.3187 22.0862 79.837 26.3078 80.0581C31.2123 80.3065 35.4551 80.0859 38.6401 79.5793Z" fill="#258AC2"/>
<path d="M8.28284 75.077C8.22544 76.2378 10.9169 77.6235 15.457 78.6558C15.4899 78.8797 15.531 79.1019 15.5803 79.3222C15.6059 79.4364 15.6314 79.5506 15.6651 79.663C10.7831 78.5958 7.22892 76.9918 7.32878 75.0247C7.42788 73.1692 10.6658 72.1711 13.3638 71.6705C14.5152 71.4559 15.7791 71.2846 17.1392 71.1604C16.9202 71.4835 16.7293 71.8175 16.5502 72.166C15.4803 72.2853 14.4766 72.4326 13.5392 72.608C13.2173 72.6628 12.9155 72.7303 12.6299 72.7942C9.4968 73.4948 8.31369 74.4104 8.28284 75.077Z" fill="#258AC2"/>
<circle cx="26.1685" cy="20" r="9" fill="url(#paint5_radial_2363_1549)"/>
<circle cx="96.6685" cy="88.5" r="25.5" fill="url(#paint6_linear_2363_1549)"/>
<g style="mix-blend-mode:color-dodge">
<path d="M75.1687 102C73.002 93.5 72.0687 74.3 85.6687 65.5C77.6686 68.8333 64.3684 80.8 75.1687 102Z" fill="#F5380E"/>
</g>
<ellipse opacity="0.8" cx="88.668" cy="70" rx="3.5" ry="3" fill="white"/>
<circle opacity="0.8" cx="83.668" cy="75.5" r="1.5" fill="white"/>
<circle cx="29.668" cy="18.5" r="1.5" fill="white" fill-opacity="0.8"/>
</g>
<defs>
<radialGradient id="paint0_radial_2363_1549" cx="0" cy="0" r="1" gradientUnits="userSpaceOnUse" gradientTransform="translate(53.1265 106.4) scale(107.95)">
<stop stop-color="#2F7FDD"/>
<stop offset="1" stop-color="#041E64"/>
</radialGradient>
<linearGradient id="paint1_linear_2363_1549" x1="78.7678" y1="43.3301" x2="82.3178" y2="34.9701" gradientUnits="userSpaceOnUse">
<stop stop-color="#2C6BC6"/>
<stop offset="1" stop-color="#3656D8"/>
</linearGradient>
<linearGradient id="paint2_linear_2363_1549" x1="82.0878" y1="34.46" x2="87.8678" y2="20.81" gradientUnits="userSpaceOnUse">
<stop stop-color="#093F8E"/>
<stop offset="1" stop-color="#2547ED"/>
</linearGradient>
<linearGradient id="paint3_linear_2363_1549" x1="25.7841" y1="86.5593" x2="27.1553" y2="79.0906" gradientUnits="userSpaceOnUse">
<stop stop-color="#2C6BC6"/>
<stop offset="0.578125" stop-color="#193CCD"/>
</linearGradient>
<linearGradient id="paint4_linear_2363_1549" x1="26.8747" y1="78.7158" x2="29.1002" y2="66.5241" gradientUnits="userSpaceOnUse">
<stop stop-color="#0655C9"/>
<stop offset="1" stop-color="#25A5ED"/>
</linearGradient>
<radialGradient id="paint5_radial_2363_1549" cx="0" cy="0" r="1" gradientUnits="userSpaceOnUse" gradientTransform="translate(29.1685 15.5) rotate(102.529) scale(13.8293)">
<stop stop-color="#FB923C"/>
<stop offset="1" stop-color="#CD4308"/>
</radialGradient>
<linearGradient id="paint6_linear_2363_1549" x1="109.668" y1="111.5" x2="74.6685" y2="78.5" gradientUnits="userSpaceOnUse">
<stop stop-color="#FF512A"/>
<stop offset="1" stop-color="#FB7200"/>
</linearGradient>
<clipPath id="clip0_2363_1549">
<rect x="0.5" width="108" height="108" rx="16" fill="white"/>
</clipPath>
</defs>
</svg>
