<svg width="793" height="430" viewBox="0 0 793 430" fill="none" xmlns="http://www.w3.org/2000/svg">
<path d="M775.536 215C775.536 273.841 732.454 327.323 662.331 366.153C592.243 404.964 495.349 429 388.268 429C281.188 429 184.294 404.964 114.206 366.153C44.0828 327.323 1 273.841 1 215C1 156.159 44.0828 102.677 114.206 63.8469C184.294 25.0362 281.188 1 388.268 1C495.349 1 592.243 25.0362 662.331 63.8469C732.454 102.677 775.536 156.159 775.536 215Z" stroke="#B6E5FF" stroke-width="2"/>
<path d="M701.873 215C701.873 262.648 667.035 305.997 610.243 337.491C553.485 368.966 475.007 388.465 388.269 388.465C301.53 388.465 223.052 368.966 166.295 337.491C109.503 305.997 74.6641 262.648 74.6641 215C74.6641 167.352 109.503 124.003 166.295 92.5093C223.052 61.0342 301.53 41.5352 388.269 41.5352C475.007 41.5352 553.485 61.0342 610.243 92.5093C667.035 124.003 701.873 167.352 701.873 215Z" stroke="#B6E5FF" stroke-width="2"/>
<path d="M596.493 215C596.493 246.462 573.45 275.158 535.728 296.046C498.04 316.915 445.907 329.853 388.268 329.853C330.629 329.853 278.496 316.915 240.808 296.046C203.086 275.158 180.043 246.462 180.043 215C180.043 183.538 203.086 154.842 240.808 133.954C278.496 113.085 330.629 100.146 388.268 100.146C445.907 100.146 498.04 113.085 535.728 133.954C573.45 154.842 596.493 183.538 596.493 215Z" stroke="#B6E5FF" stroke-width="2"/>
<ellipse cx="197.564" cy="77.2356" rx="11.5246" ry="11.5032" fill="#B6E5FF"/>
<ellipse cx="775.438" cy="192.269" rx="17.5612" ry="17.5287" fill="#B6E5FF"/>
</svg>
