<svg width="1440" height="1026" viewBox="0 0 1440 1026" fill="none" xmlns="http://www.w3.org/2000/svg">
<path d="M658.502 351.5C658.502 448.082 594.152 535.684 489.763 599.194C385.391 662.693 241.14 702 81.7509 702C-77.6381 702 -221.89 662.693 -326.261 599.194C-430.65 535.684 -495 448.082 -495 351.5C-495 254.918 -430.65 167.316 -326.261 103.806C-221.89 40.3074 -77.6381 1 81.7509 1C241.14 1 385.391 40.3074 489.763 103.806C594.152 167.316 658.502 254.918 658.502 351.5Z" stroke="#B6E5FF" stroke-width="2"/>
<path d="M548.887 351.501C548.887 429.784 496.806 500.819 412.253 552.335C327.717 603.842 210.869 635.731 81.7494 635.731C-47.3706 635.731 -164.219 603.842 -248.754 552.335C-333.307 500.819 -385.389 429.784 -385.389 351.501C-385.389 273.219 -333.307 202.184 -248.754 150.667C-164.219 99.1612 -47.3706 67.2715 81.7494 67.2715C210.869 67.2715 327.717 99.1612 412.253 150.667C496.806 202.184 548.887 273.219 548.887 351.501Z" stroke="#B6E5FF" stroke-width="2"/>
<path d="M392.082 351.499C392.082 403.32 357.552 450.399 301.375 484.575C245.216 518.741 167.57 539.906 81.7508 539.906C-4.06834 539.906 -81.7148 518.741 -137.874 484.575C-194.05 450.399 -228.58 403.32 -228.58 351.499C-228.58 299.678 -194.05 252.599 -137.874 218.422C-81.7148 184.256 -4.06834 163.092 81.7508 163.092C167.57 163.092 245.216 184.256 301.375 218.422C357.552 252.599 392.082 299.678 392.082 351.499Z" stroke="#B6E5FF" stroke-width="2"/>
<ellipse cx="657.869" cy="314.335" rx="26.1315" ry="28.6573" fill="#B6E5FF"/>
<path d="M2072 670C2072 767.727 1993.25 856.468 1865.33 920.837C1737.46 985.176 1560.75 1025 1365.5 1025C1170.25 1025 993.537 985.176 865.671 920.837C737.748 856.468 659 767.727 659 670C659 572.273 737.748 483.532 865.671 419.163C993.537 354.824 1170.25 315 1365.5 315C1560.75 315 1737.46 354.824 1865.33 419.163C1993.25 483.532 2072 572.273 2072 670Z" stroke="#B6E5FF" stroke-width="2"/>
<path d="M1937.77 670.001C1937.77 749.194 1874.05 821.155 1770.41 873.378C1666.84 925.571 1523.68 957.882 1365.5 957.882C1207.32 957.882 1064.16 925.571 960.586 873.378C856.953 821.155 793.229 749.194 793.229 670.001C793.229 590.807 856.953 518.846 960.586 466.624C1064.16 414.43 1207.32 382.119 1365.5 382.119C1523.68 382.119 1666.84 414.43 1770.41 466.624C1874.05 518.846 1937.77 590.807 1937.77 670.001Z" stroke="#B6E5FF" stroke-width="2"/>
<path d="M1745.75 670C1745.75 722.393 1703.52 770.092 1634.63 804.752C1565.81 839.383 1470.66 860.832 1365.5 860.832C1260.34 860.832 1165.19 839.383 1096.37 804.752C1027.48 770.092 985.252 722.393 985.252 670C985.252 617.606 1027.48 569.908 1096.37 535.248C1165.19 500.617 1260.34 479.168 1365.5 479.168C1470.66 479.168 1565.81 500.617 1634.63 535.248C1703.52 569.908 1745.75 617.606 1745.75 670Z" stroke="#B6E5FF" stroke-width="2"/>
<ellipse cx="1018" cy="441.887" rx="21" ry="19.0471" fill="#B6E5FF"/>
</svg>
