<svg width="1445" height="785" viewBox="0 0 1445 785" fill="none" xmlns="http://www.w3.org/2000/svg">
<path d="M1414 392.5C1414 500.357 1335.18 598.214 1207.29 669.165C1079.44 740.097 902.734 784 707.5 784C512.266 784 335.565 740.097 207.707 669.165C79.8152 598.214 1 500.357 1 392.5C1 284.643 79.8152 186.786 207.707 115.835C335.565 44.9034 512.266 1 707.5 1C902.734 1 1079.44 44.9034 1207.29 115.835C1335.18 186.786 1414 284.643 1414 392.5Z" stroke="#B6E5FF" stroke-width="2"/>
<path d="M1279.77 392.5C1279.77 479.923 1215.98 559.28 1112.38 616.839C1008.81 674.379 865.666 710 707.499 710C549.332 710 406.188 674.379 302.621 616.839C199.021 559.28 135.229 479.923 135.229 392.5C135.229 305.077 199.021 225.72 302.621 168.161C406.188 110.621 549.332 75 707.499 75C865.666 75 1008.81 110.621 1112.38 168.161C1215.98 225.72 1279.77 305.077 1279.77 392.5Z" stroke="#B6E5FF" stroke-width="2"/>
<path d="M1087.75 392.5C1087.75 450.375 1045.45 502.983 976.599 541.179C907.781 579.356 812.642 603 707.5 603C602.358 603 507.22 579.356 438.402 541.179C369.55 502.983 327.252 450.375 327.252 392.5C327.252 334.625 369.55 282.017 438.402 243.821C507.22 205.644 602.358 182 707.5 182C812.642 182 907.781 205.644 976.599 243.821C1045.45 282.017 1087.75 334.625 1087.75 392.5Z" stroke="#B6E5FF" stroke-width="2"/>
<circle cx="360" cy="141" r="21" fill="#B6E5FF"/>
<circle cx="1413" cy="351" r="32" fill="#B6E5FF"/>
</svg>
