<svg width="336" height="250" viewBox="96 76 336 250" fill="none" xmlns="http://www.w3.org/2000/svg">
<mask id="mask0_2886_1464" style="mask-type:luminance" maskUnits="userSpaceOnUse" x="140" y="76" width="250" height="250">
<path d="M354.524 111.566C353.822 110.872 353.138 110.194 352.455 109.549C346.196 103.517 338.187 97.1501 328.046 91.5037C323.193 88.6486 316.399 85.3197 307.63 82.4305C305.509 81.6991 303.101 80.9705 300.68 80.3272C300.1 80.1647 299.504 80.0201 298.924 79.8576C298.702 79.7885 298.481 79.7531 298.243 79.702C297.578 79.5284 296.931 79.3704 296.267 79.2305C292.845 78.4368 289.53 77.8045 286.306 77.3515C285.253 77.1877 284.202 77.0576 283.167 76.9095C283.031 76.8851 282.913 76.8764 282.761 76.87C282.015 76.7863 281.269 76.7026 280.541 76.6347C274.475 76.006 268.82 75.9398 263.599 76.198C262.605 76.2495 261.612 76.301 260.636 76.3682C260.198 76.3983 259.794 76.4261 259.357 76.4563C258.953 76.4841 258.549 76.5119 258.145 76.5397C257.96 76.5693 257.792 76.5808 257.624 76.5924C257.422 76.6063 257.22 76.6202 257.035 76.6498C256.683 76.691 256.312 76.7164 255.96 76.7576C249.304 77.452 244.23 78.4594 240.083 79.4199C239.966 79.4448 239.849 79.4697 239.731 79.4947C239.781 79.4744 239.849 79.4697 239.882 79.4674C239.447 79.5648 239.03 79.678 238.629 79.7731C236.922 80.1605 234.97 80.7168 233.002 81.3247C231.917 81.6188 230.849 81.9286 229.933 82.2447C227.416 83.0423 224.087 84.2165 221.628 85.2294C221.628 85.2294 221.596 85.2653 221.562 85.2677C220.366 85.755 219.204 86.24 218.059 86.7406C218.059 86.7406 218.043 86.7586 218.027 86.7766C218.011 86.7946 217.961 86.8149 217.927 86.8172C217.247 87.1171 216.583 87.3991 215.97 87.6944C215.108 88.0912 214.279 88.4857 213.469 88.8959C210.95 90.0817 208.402 91.4045 205.81 92.8822C205.794 92.9002 205.778 92.9182 205.744 92.9205C203.697 94.0739 201.652 95.2946 199.578 96.6523C189.089 103.331 179.753 111.499 171.587 121.072C167.304 125.94 162.815 132.02 158.617 139.075L158.141 139.85C158.141 139.85 158.141 139.85 158.125 139.868C158.109 139.886 158.093 139.904 158.076 139.922C156.969 141.821 155.879 143.735 154.764 145.887C154.009 147.289 153.196 148.965 152.543 150.394C152.527 150.412 152.511 150.43 152.496 150.481C152.434 150.621 152.355 150.778 152.293 150.917C151.22 153.269 150.721 154.316 149.999 156.137C149.905 156.346 149.828 156.537 149.752 156.728C148.933 158.691 148.397 160.095 147.776 161.909C147.365 163.068 146.971 164.209 146.578 165.383C146.547 165.453 146.532 165.505 146.518 165.59C146.02 167.092 145.572 168.608 145.126 170.157C145.111 170.209 145.096 170.261 145.065 170.33C144.679 171.673 144.326 173.013 143.99 174.37C143.758 175.331 143.541 176.274 143.341 177.198C143.27 177.558 143.166 177.919 143.096 178.278C141.036 187.802 140.493 195.568 140.397 200.485C140.383 200.992 140.381 201.38 140.373 201.6C140.309 203.849 140.306 205.958 140.371 207.641C140.392 208.179 140.398 208.769 140.438 209.357C140.439 209.391 140.442 209.458 140.443 209.492L140.448 209.627C140.558 212.454 140.761 215.95 141.343 220.499C143.94 241.767 151.906 261.349 164.701 277.983C165.057 278.465 165.43 278.929 165.803 279.426C165.856 279.473 165.892 279.538 165.946 279.619C167.935 282.182 170.058 284.702 171.975 286.713C172.098 286.822 172.221 286.966 172.345 287.109C173.859 288.726 175.58 290.464 177.385 292.179C177.666 292.463 177.947 292.747 178.21 293.016L179.154 293.862C179.801 294.442 180.431 295.006 181.06 295.57C182.581 296.934 184.082 298.214 185.492 299.315C186.745 300.309 187.98 301.253 189.212 302.13C189.334 302.24 189.49 302.347 189.629 302.439C190.046 302.747 190.48 303.072 190.896 303.347C191.59 303.839 192.267 304.316 192.908 304.761C192.943 304.792 192.996 304.839 193.031 304.871C193.083 304.918 193.136 304.965 193.204 304.994C210.333 316.774 229.99 323.672 250.942 325.266C251.467 325.315 252.008 325.345 252.533 325.393C252.77 325.411 253.007 325.428 253.244 325.446C254.022 325.493 254.783 325.525 255.492 325.544C272.383 326.389 288.39 323.617 302.756 318.561C327.64 310.132 347.25 295.418 360.557 277.848C360.557 277.848 360.589 277.812 360.606 277.794C360.735 277.65 360.881 277.488 360.992 277.328C361.653 276.523 362.279 275.687 362.953 274.797C363.21 274.476 363.45 274.139 363.69 273.801C364.044 273.338 364.381 272.893 364.684 272.451C364.684 272.451 364.7 272.433 364.717 272.415C365.117 271.864 365.485 271.349 365.821 270.871C365.837 270.853 365.853 270.835 365.869 270.817C367.325 268.742 368.216 267.365 368.279 267.259C369.476 265.473 370.224 264.324 371.378 262.304C371.459 262.214 371.521 262.075 371.584 261.969C371.68 261.828 371.742 261.689 371.82 261.531C371.898 261.374 371.978 261.251 372.056 261.093C372.515 260.302 372.988 259.46 373.494 258.581L373.715 258.195L374.518 256.705C374.518 256.705 374.583 256.633 374.598 256.582L374.63 256.546C375.449 255.038 376.402 253.066 377.182 251.426C377.198 251.408 377.214 251.39 377.213 251.356C377.291 251.199 377.37 251.042 377.432 250.903C377.572 250.606 377.696 250.328 377.82 250.049C377.851 249.979 377.882 249.91 377.93 249.822C378.707 248.115 379.174 247.104 379.803 245.492C379.865 245.352 379.926 245.179 379.988 245.04C380.005 245.022 380.021 245.004 380.036 244.953C380.482 243.859 380.928 242.731 381.356 241.588C381.524 241.121 381.675 240.672 381.86 240.22C382.058 239.684 382.241 239.165 382.439 238.628C382.654 238.073 382.85 237.469 383.045 236.832C383.815 234.501 384.485 232.21 385.075 230.01C385.09 229.958 385.104 229.906 385.119 229.855C388.436 217.494 389.239 207.298 389.345 201.351C389.359 200.844 389.361 200.455 389.369 200.236C389.393 198.665 389.384 197.13 389.374 195.561C389.373 195.106 389.372 194.65 389.387 194.177C389.384 192.354 389.234 189.361 388.935 186.007C388.38 179.532 387.345 173.309 385.818 167.424C385.597 166.511 385.359 165.616 385.125 164.789C384.965 164.159 384.77 163.463 384.556 162.753C380.836 149.51 375.508 139.178 370.489 131.593C370.076 130.964 369.681 130.35 369.288 129.803C369.235 129.722 369.146 129.61 369.092 129.53C364.504 122.623 359.622 116.817 354.809 111.952C354.722 111.873 354.634 111.795 354.547 111.717L354.524 111.566Z" fill="white"/>
</mask>
<g mask="url(#mask0_2886_1464)">
<path d="M354.524 111.567C353.822 110.872 353.138 110.194 352.455 109.549C346.196 103.517 338.187 97.1504 328.046 91.504C323.193 88.6489 316.398 85.32 307.63 82.4308C305.509 81.6993 303.101 80.9708 300.68 80.3275C300.1 80.1649 299.504 80.0204 298.924 79.8578C298.702 79.7887 298.481 79.7533 298.243 79.7022C297.578 79.5286 296.931 79.3707 296.267 79.2308C292.845 78.4371 289.53 77.8047 286.306 77.3517C285.253 77.1879 284.202 77.0578 283.167 76.9097C283.031 76.8853 282.913 76.8766 282.76 76.8702C282.015 76.7865 281.269 76.7029 280.541 76.6349C274.475 76.0063 268.82 75.94 263.599 76.1982C262.605 76.2497 261.612 76.3013 260.635 76.3685C260.198 76.3986 259.794 76.4264 259.356 76.4565C258.953 76.4843 258.549 76.5121 258.145 76.5399C257.96 76.5695 257.792 76.5811 257.624 76.5927C257.422 76.6066 257.22 76.6205 257.035 76.65C256.683 76.6912 256.312 76.7167 255.959 76.7578C249.304 77.4522 244.23 78.4596 240.083 79.4201C239.966 79.445 239.848 79.47 239.731 79.4949C239.781 79.4746 239.848 79.47 239.882 79.4676C239.447 79.5651 239.03 79.6782 238.628 79.7733C236.922 80.1608 234.97 80.717 233.002 81.325C231.917 81.619 230.849 81.9288 229.933 82.245C227.416 83.0426 224.086 84.2167 221.628 85.2296C221.628 85.2296 221.596 85.2656 221.562 85.2679C220.366 85.7552 219.204 86.2402 218.059 86.7408C218.059 86.7408 218.043 86.7588 218.027 86.7768C218.01 86.7948 217.961 86.8151 217.927 86.8174C217.247 87.1174 216.583 87.3993 215.97 87.6946C215.108 88.0914 214.279 88.4859 213.468 88.8961C210.95 90.0819 208.402 91.4047 205.81 92.8824C205.794 92.9004 205.778 92.9184 205.744 92.9207C203.697 94.0741 201.652 95.2948 199.578 96.6525C189.088 103.331 179.753 111.499 171.587 121.072C167.304 125.94 162.815 132.02 158.617 139.075L158.141 139.85C158.141 139.85 158.141 139.85 158.125 139.868C158.109 139.886 158.092 139.904 158.076 139.922C156.969 141.821 155.879 143.735 154.764 145.888C154.009 147.289 153.196 148.965 152.543 150.394C152.527 150.412 152.511 150.43 152.496 150.481C152.434 150.621 152.355 150.778 152.293 150.917C151.22 153.269 150.721 154.316 149.998 156.137C149.905 156.346 149.828 156.537 149.751 156.728C148.933 158.691 148.397 160.095 147.776 161.909C147.365 163.068 146.971 164.209 146.578 165.384C146.546 165.453 146.532 165.505 146.518 165.59C146.02 167.092 145.572 168.608 145.126 170.157C145.111 170.209 145.096 170.261 145.065 170.33C144.679 171.673 144.326 173.014 143.99 174.37C143.758 175.331 143.541 176.274 143.341 177.199C143.27 177.558 143.166 177.919 143.096 178.279C141.036 187.802 140.493 195.568 140.397 200.485C140.383 200.992 140.381 201.38 140.373 201.6C140.308 203.849 140.306 205.958 140.371 207.641C140.392 208.18 140.398 208.77 140.438 209.358C140.439 209.391 140.442 209.459 140.443 209.492L140.448 209.627C140.558 212.454 140.761 215.95 141.343 220.499C143.94 241.767 151.906 261.349 164.701 277.984C165.057 278.465 165.43 278.929 165.803 279.426C165.856 279.473 165.892 279.538 165.946 279.619C167.935 282.182 170.058 284.702 171.975 286.713C172.098 286.823 172.221 286.966 172.345 287.109C173.859 288.726 175.58 290.464 177.385 292.179C177.666 292.463 177.947 292.748 178.21 293.016L179.154 293.862C179.801 294.442 180.431 295.006 181.06 295.571C182.581 296.934 184.082 298.214 185.492 299.315C186.745 300.309 187.98 301.253 189.212 302.13C189.334 302.24 189.49 302.347 189.629 302.439C190.046 302.748 190.48 303.072 190.896 303.347C191.59 303.839 192.267 304.316 192.908 304.761C192.943 304.792 192.996 304.839 193.031 304.871C193.083 304.918 193.136 304.965 193.204 304.994C210.333 316.774 229.99 323.672 250.942 325.267C251.467 325.315 252.008 325.345 252.533 325.393C252.77 325.411 253.007 325.428 253.244 325.446C254.022 325.493 254.783 325.525 255.492 325.544C272.383 326.389 288.39 323.617 302.756 318.561C327.639 310.132 347.25 295.418 360.557 277.848C360.557 277.848 360.589 277.812 360.605 277.794C360.735 277.65 360.88 277.488 360.992 277.328C361.653 276.524 362.279 275.688 362.953 274.797C363.21 274.476 363.45 274.139 363.69 273.802C364.044 273.339 364.381 272.894 364.684 272.451C364.684 272.451 364.7 272.433 364.716 272.415C365.117 271.864 365.485 271.35 365.821 270.871C365.837 270.853 365.853 270.835 365.869 270.817C367.324 268.742 368.216 267.365 368.279 267.259C369.476 265.473 370.224 264.324 371.378 262.305C371.458 262.215 371.521 262.075 371.584 261.97C371.68 261.828 371.742 261.689 371.82 261.532C371.898 261.374 371.978 261.251 372.056 261.094C372.515 260.303 372.988 259.46 373.494 258.582L373.715 258.195L374.518 256.706C374.518 256.706 374.583 256.634 374.598 256.582L374.63 256.546C375.449 255.038 376.402 253.066 377.182 251.426C377.198 251.408 377.214 251.39 377.213 251.357C377.291 251.199 377.37 251.042 377.432 250.903C377.572 250.606 377.696 250.328 377.82 250.049C377.851 249.98 377.882 249.91 377.93 249.822C378.707 248.115 379.174 247.104 379.803 245.492C379.865 245.353 379.926 245.18 379.988 245.04C380.004 245.022 380.021 245.004 380.036 244.953C380.482 243.859 380.928 242.732 381.356 241.588C381.524 241.121 381.675 240.672 381.86 240.221C382.058 239.684 382.241 239.165 382.439 238.628C382.654 238.074 382.85 237.47 383.045 236.832C383.815 234.501 384.485 232.21 385.075 230.01C385.09 229.958 385.104 229.907 385.119 229.855C388.436 217.494 389.238 207.298 389.345 201.351C389.359 200.844 389.361 200.456 389.369 200.236C389.393 198.665 389.384 197.13 389.373 195.561C389.373 195.106 389.372 194.65 389.387 194.177C389.384 192.355 389.234 189.361 388.935 186.007C388.38 179.532 387.345 173.309 385.818 167.424C385.597 166.512 385.359 165.617 385.125 164.789C384.965 164.159 384.77 163.464 384.556 162.753C380.836 149.51 375.508 139.179 370.488 131.594C370.076 130.964 369.681 130.35 369.288 129.803C369.235 129.722 369.146 129.61 369.092 129.53C364.504 122.624 359.622 116.818 354.809 111.952C354.722 111.874 354.634 111.795 354.547 111.717L354.524 111.567Z" fill="url(#paint0_radial_2886_1464)"/>
<g style="mix-blend-mode:screen" opacity="0.2">
<path d="M459.145 91.1918C454.937 78.7853 450.002 67.6092 444.746 57.7366C444.636 57.5081 444.509 57.2976 444.399 57.0691C443.401 55.2326 442.421 53.4454 441.425 51.6762C438.273 46.0593 434.472 40.2174 430.381 34.3111C276.177 155.685 92.7478 242.163 -95.0352 283.383C-92.6732 296.017 -89.3935 308.404 -84.9968 320.46C-84.5786 321.679 -84.1267 322.895 -83.6748 324.112C-83.6185 324.26 -83.5622 324.408 -83.4884 324.571C-81.0787 331.048 -78.3315 337.536 -75.6487 342.797C-75.4836 343.14 -75.2849 343.481 -75.1199 343.823C-75.0461 343.987 -74.9374 344.182 -74.8299 344.343C115.581 300.447 301.227 212.872 459.145 91.1918ZM71.0103 466.204C70.5155 466.053 70.0206 465.902 69.5258 465.75C68.3989 465.389 67.307 465.06 66.1802 464.699C31.0518 453.663 0.255035 435.634 -25.1606 411.587C151.029 374.031 323.611 296.073 471.575 186.409C471.479 188.27 471.337 190.252 471.163 192.304C470.132 205.695 467.856 219.594 464.359 233.761C462.572 241.151 460.716 247.636 459.401 251.554C459.069 252.554 458.736 253.521 458.404 254.522C457.303 257.886 456.183 261.166 455.015 264.535C454.864 264.983 454.575 265.796 454.162 266.886C449.81 278.989 441.219 299.172 426.432 322.632C322.891 386.547 211.212 437.163 96.384 472.23C89.5023 470.866 82.6368 469.484 75.8002 467.544C74.2672 467.144 72.6992 466.712 71.0439 466.202L71.0103 466.204ZM-58.3418 94.5287C-58.1195 94.1762 -57.9146 93.808 -57.6922 93.4555C-56.5519 91.556 -55.4453 89.6589 -54.2229 87.7032C-52.5261 84.9392 -50.7594 82.2379 -48.9752 79.5522C-48.8782 79.4444 -48.8323 79.3232 -48.7528 79.1997C-46.6978 76.1076 -44.6065 73.0804 -42.4466 70.0823C-42.3335 69.9565 -42.2553 69.7994 -42.1421 69.6735C-40.4619 67.3491 -38.7643 65.0404 -37.0304 62.7965C-36.5022 62.0689 -36.0199 61.4624 -35.5053 60.82C61.9713 29.1892 156.853 -14.116 245.584 -67.7717C249.407 -67.4616 253.384 -67.0779 257.704 -66.5491C258.5 -66.4522 259.346 -66.3755 260.109 -66.2763C260.533 -66.2211 260.974 -66.1503 261.415 -66.0795C261.821 -66.0401 262.177 -65.9803 262.601 -65.9251C263.5 -65.8015 264.382 -65.6599 265.282 -65.5027C266.197 -65.3634 267.131 -65.2085 268.098 -65.0559C270.27 -64.6996 272.476 -64.3456 274.633 -63.9377C277.621 -63.4015 280.771 -62.6236 283.865 -61.9599C177.133 5.74934 61.0446 58.7425 -58.3418 94.5287ZM-98.9731 246.223C-99.5266 226.315 -97.8037 205.98 -93.4749 185.449C-91.4546 175.379 -89.3391 167.764 -87.5199 161.637L-87.4308 161.327C-87.4308 161.327 -87.3713 161.121 -87.3416 161.017C-86.954 159.709 -86.5638 158.468 -86.2046 157.297C-85.5753 155.264 -84.8071 152.902 -83.9433 150.397C63.9952 111.735 207.809 44.9969 334.881 -44.7332C337.473 -43.5459 340.04 -42.5761 342.637 -41.2543C343.926 -40.6181 345.217 -39.9482 346.525 -39.2626C346.973 -39.0237 347.419 -38.8184 347.867 -38.5794C349.02 -37.9675 350.173 -37.3556 351.328 -36.7101C356.048 -34.135 360.69 -31.4028 364.738 -28.7477C381.485 -18.2161 393.664 -7.6567 402.037 0.854816C404.875 3.59322 407.343 6.3571 409.928 9.09606C257.67 121.535 81.6584 203.203 -98.9569 246.205L-98.9731 246.223ZM-36.761 399.858C-38.9616 397.463 -41.1945 395.105 -43.2981 392.603C-43.4029 392.509 -43.4929 392.363 -43.564 392.267C-43.6514 392.188 -43.7226 392.092 -43.7938 391.996C-44.8711 390.738 -45.9685 389.397 -47.1197 387.976C-47.8101 387.13 -48.5018 386.25 -49.1935 385.371C-49.4246 385.066 -49.6543 384.795 -49.8853 384.491C-51.6059 382.299 -53.2967 380.005 -55.0238 377.645C131.7 337.813 314.476 254.028 469.871 135.994C471.118 145.097 471.857 155.011 471.971 165.761C320.082 278.14 143.768 358.986 -36.7436 399.874L-36.761 399.858Z" fill="#C4DBFB"/>
</g>
</g>
<g filter="url(#filter0_d_2886_1464)">
<path d="M141.306 212.473C141.356 213.327 141.406 214.18 141.49 215.031C111.538 239.467 95.7763 262.169 102.004 276.388C113.556 302.719 196.034 290.288 285.859 248.645C375.701 206.983 439.385 151.67 427.85 125.321C423.134 114.593 406.695 110.299 382.754 111.797C374.931 112.285 366.276 113.418 357.021 115.114C356.46 114.514 355.898 113.881 355.287 113.268C394.805 105.978 423.359 109.135 430.011 124.315C442.079 151.854 377.812 208.585 286.783 250.798C233.696 275.416 183.064 289.72 147.665 291.939C122.368 293.512 104.841 288.891 99.8112 277.429C93.1422 262.233 109.789 238.126 141.29 212.491L141.306 212.473Z" fill="#FEFEFC"/>
</g>
<path d="M291.886 260.801C291.886 260.801 305.1 248.149 317.665 247.132C331.529 246.008 355.829 267.464 355.829 267.464C355.829 267.464 331.854 245.648 331.484 231.766C331.148 219.185 342.328 204.711 342.328 204.711C342.328 204.711 329.114 217.362 316.549 218.379C302.685 219.503 278.385 198.048 278.385 198.048C278.385 198.048 302.361 219.864 302.73 233.745C303.066 246.327 291.886 260.801 291.886 260.801Z" fill="#FEFEFC"/>
<path d="M173.733 187.29C173.733 187.29 182.444 178.941 190.742 178.268C199.884 177.538 215.914 191.678 215.914 191.678C215.914 191.678 200.111 177.285 199.857 168.133C199.636 159.824 207.014 150.281 207.014 150.281C207.014 150.281 198.304 158.63 190.006 159.302C180.864 160.033 164.834 145.893 164.834 145.893C164.834 145.893 180.637 160.286 180.89 169.438C181.111 177.747 173.733 187.29 173.733 187.29Z" fill="#FEFEFC"/>
<path d="M171.213 316.471C171.213 316.471 173.921 313.882 176.501 313.654C179.334 313.425 184.328 317.835 184.328 317.835C184.328 317.835 179.417 313.368 179.323 310.516C179.257 307.948 181.561 304.964 181.561 304.964C181.561 304.964 178.853 307.553 176.273 307.782C173.439 308.011 168.446 303.6 168.446 303.6C168.446 303.6 173.357 308.067 173.451 310.92C173.517 313.487 171.213 316.471 171.213 316.471Z" fill="#FEFEFC"/>
<path d="M319.559 174.936C319.559 174.936 323.556 171.124 327.317 170.815C331.483 170.477 338.806 176.944 338.806 176.944C338.806 176.944 331.58 170.369 331.469 166.198C331.356 162.416 334.74 158.055 334.74 158.055C334.74 158.055 330.742 161.866 326.982 162.175C322.816 162.513 315.492 156.046 315.492 156.046C315.492 156.046 322.718 162.621 322.829 166.792C322.942 170.574 319.559 174.936 319.559 174.936Z" fill="#FEFEFC"/>
<defs>
<filter id="filter0_d_2886_1464" x="88.3549" y="99.5173" width="353.112" height="202.72" filterUnits="userSpaceOnUse" color-interpolation-filters="sRGB">
<feFlood flood-opacity="0" result="BackgroundImageFix"/>
<feColorMatrix in="SourceAlpha" type="matrix" values="0 0 0 0 0 0 0 0 0 0 0 0 0 0 0 0 0 0 127 0" result="hardAlpha"/>
<feOffset/>
<feGaussianBlur stdDeviation="5"/>
<feColorMatrix type="matrix" values="0 0 0 0 1 0 0 0 0 1 0 0 0 0 1 0 0 0 0.75 0"/>
<feBlend mode="normal" in2="BackgroundImageFix" result="effect1_dropShadow_2886_1464"/>
<feBlend mode="normal" in="SourceGraphic" in2="effect1_dropShadow_2886_1464" result="shape"/>
</filter>
<radialGradient id="paint0_radial_2886_1464" cx="0" cy="0" r="1" gradientUnits="userSpaceOnUse" gradientTransform="translate(311.77 162.161) rotate(-92.6035) scale(150.295 150.535)">
<stop offset="0.03" stop-color="#27B1FF"/>
<stop offset="0.59" stop-color="#5BC3FE"/>
<stop offset="1" stop-color="#D0EEFF"/>
</radialGradient>
</defs>
</svg>
