<svg width="303" height="303" viewBox="0 0 303 303" fill="none" xmlns="http://www.w3.org/2000/svg">
<g clip-path="url(#clip0_2886_1480)">
<path d="M301.675 20.7747C301.339 20.7747 301.004 20.651 300.739 20.3861L282.63 2.26117C282.118 1.74887 282.118 0.900923 282.63 0.388621C283.143 -0.123681 283.991 -0.123681 284.503 0.388621L302.611 18.5135C303.124 19.0258 303.124 19.8738 302.611 20.3861C302.346 20.651 302.011 20.7747 301.675 20.7747Z" fill="#5BC3FE"/>
<path d="M301.675 46.4251C301.339 46.4251 301.004 46.3015 300.739 46.0365L256.943 2.26117C256.431 1.74887 256.431 0.900923 256.943 0.388621C257.456 -0.123681 258.304 -0.123681 258.816 0.388621L302.611 44.1639C303.124 44.6762 303.124 45.5242 302.611 46.0365C302.346 46.3015 302.011 46.4251 301.675 46.4251Z" fill="#5BC3FE"/>
<path d="M301.675 72.0755C301.339 72.0755 301.004 71.9519 300.739 71.6869L231.291 2.26117C230.779 1.74887 230.779 0.900923 231.291 0.388621C231.804 -0.123681 232.652 -0.123681 233.164 0.388621L302.611 69.8143C303.124 70.3266 303.124 71.1746 302.611 71.6869C302.346 71.9519 302.011 72.0755 301.675 72.0755Z" fill="#5BC3FE"/>
<path d="M301.675 97.726C301.339 97.726 301.004 97.6023 300.739 97.3373L205.639 2.26117C205.127 1.74887 205.127 0.900923 205.639 0.388621C206.152 -0.123681 207 -0.123681 207.512 0.388621L302.611 95.4648C303.124 95.9771 303.124 96.825 302.611 97.3373C302.346 97.6023 302.011 97.726 301.675 97.726Z" fill="#5BC3FE"/>
<path d="M301.675 123.376C301.339 123.376 301.004 123.253 300.739 122.988L179.987 2.26117C179.475 1.74887 179.475 0.900923 179.987 0.388621C180.5 -0.123681 181.348 -0.123681 181.86 0.388621L302.611 121.115C303.124 121.627 303.124 122.475 302.611 122.988C302.346 123.253 302.011 123.376 301.675 123.376Z" fill="#5BC3FE"/>
<path d="M301.675 149.044C301.339 149.044 301.004 148.921 300.739 148.656L154.335 2.26117C153.823 1.74887 153.823 0.900923 154.335 0.388621C154.848 -0.123681 155.696 -0.123681 156.208 0.388621L302.611 146.783C303.124 147.296 303.124 148.144 302.611 148.656C302.346 148.921 302.011 149.044 301.675 149.044Z" fill="#5BC3FE"/>
<path d="M301.675 174.713C301.339 174.713 301.004 174.589 300.739 174.324L128.684 2.26117C128.171 1.74887 128.171 0.900923 128.684 0.388621C129.196 -0.123681 130.044 -0.123681 130.556 0.388621L302.611 172.451C303.124 172.964 303.124 173.812 302.611 174.324C302.346 174.589 302.011 174.713 301.675 174.713Z" fill="#5BC3FE"/>
<path d="M301.675 200.363C301.339 200.363 301.004 200.239 300.739 199.974L103.014 2.26117C102.502 1.74887 102.502 0.900923 103.014 0.388621C103.526 -0.123681 104.374 -0.123681 104.887 0.388621L302.611 198.102C303.124 198.614 303.124 199.462 302.611 199.974C302.346 200.239 302.011 200.363 301.675 200.363Z" fill="#5BC3FE"/>
<path d="M301.675 226.013C301.339 226.013 301.004 225.89 300.739 225.625L77.3621 2.26117C76.8498 1.74887 76.8498 0.900923 77.3621 0.388621C77.8744 -0.123681 78.7224 -0.123681 79.2347 0.388621L302.611 223.752C303.124 224.264 303.124 225.112 302.611 225.625C302.346 225.89 302.011 226.013 301.675 226.013Z" fill="#5BC3FE"/>
<path d="M301.675 251.681C301.339 251.681 301.004 251.558 300.739 251.293L51.7102 2.26117C51.1978 1.74887 51.1978 0.900923 51.7102 0.388621C52.2225 -0.123681 53.0705 -0.123681 53.5828 0.388621L302.611 249.42C303.124 249.933 303.124 250.781 302.611 251.293C302.346 251.558 302.011 251.681 301.675 251.681Z" fill="#5BC3FE"/>
<path d="M301.675 277.332C301.339 277.332 301.004 277.208 300.739 276.943L26.0406 2.26117C25.5283 1.74887 25.5283 0.900923 26.0406 0.388621C26.553 -0.123681 27.401 -0.123681 27.9133 0.388621L302.611 275.071C303.124 275.583 303.124 276.431 302.611 276.943C302.346 277.208 302.011 277.332 301.675 277.332Z" fill="#5BC3FE"/>
<path d="M301.675 302.982C301.269 302.982 300.898 302.806 300.65 302.505L0.388665 2.27886C0.141333 2.03154 0 1.6959 0 1.34258C0 0.60063 0.600665 0 1.325 0C1.73133 0 2.10233 0.194321 2.34966 0.494636L302.611 300.721C302.859 300.968 303 301.304 303 301.657C303 302.382 302.399 302.982 301.675 302.982Z" fill="#5BC3FE"/>
<path d="M276.023 303C275.687 303 275.352 302.876 275.087 302.611L0.388643 27.9294C-0.123688 27.4171 -0.123688 26.5691 0.388643 26.0568C0.900975 25.5445 1.74897 25.5445 2.2613 26.0568L276.959 300.739C277.472 301.251 277.472 302.099 276.959 302.611C276.694 302.876 276.359 303 276.023 303Z" fill="#5BC3FE"/>
<path d="M250.371 303C250.035 303 249.7 302.876 249.435 302.611L0.388643 53.5798C-0.123688 53.0675 -0.123688 52.2195 0.388643 51.7072C0.900975 51.1949 1.74897 51.1949 2.2613 51.7072L251.307 300.739C251.82 301.251 251.82 302.099 251.307 302.611C251.042 302.876 250.707 303 250.371 303Z" fill="#5BC3FE"/>
<path d="M224.719 303C224.384 303 224.048 302.876 223.783 302.611L0.388643 79.2302C-0.123688 78.7179 -0.123688 77.8699 0.388643 77.3576C0.900975 76.8453 1.74897 76.8453 2.2613 77.3576L225.656 300.721C226.168 301.233 226.168 302.081 225.656 302.594C225.391 302.859 225.055 302.982 224.719 302.982V303Z" fill="#5BC3FE"/>
<path d="M199.05 303C198.714 303 198.378 302.876 198.113 302.611L0.388643 104.881C-0.123688 104.368 -0.123688 103.52 0.388643 103.008C0.900975 102.496 1.74897 102.496 2.2613 103.008L199.986 300.721C200.498 301.233 200.498 302.081 199.986 302.594C199.721 302.859 199.385 302.982 199.05 302.982V303Z" fill="#5BC3FE"/>
<path d="M173.38 303C173.044 303 172.709 302.876 172.444 302.611L0.388643 130.549C-0.123688 130.036 -0.123688 129.188 0.388643 128.676C0.900975 128.164 1.74897 128.164 2.2613 128.676L174.316 300.739C174.829 301.251 174.829 302.099 174.316 302.611C174.051 302.876 173.716 303 173.38 303Z" fill="#5BC3FE"/>
<path d="M147.728 303C147.392 303 147.057 302.876 146.792 302.611L0.388643 156.199C-0.123688 155.687 -0.123688 154.839 0.388643 154.327C0.900975 153.814 1.74897 153.814 2.2613 154.327L148.664 300.739C149.177 301.251 149.177 302.099 148.664 302.611C148.399 302.876 148.064 303 147.728 303Z" fill="#5BC3FE"/>
<path d="M122.076 303C121.741 303 121.405 302.876 121.14 302.611L0.388643 181.85C-0.123688 181.337 -0.123688 180.489 0.388643 179.977C0.900975 179.465 1.74897 179.465 2.2613 179.977L123.013 300.739C123.525 301.251 123.525 302.099 123.013 302.611C122.748 302.876 122.412 303 122.076 303Z" fill="#5BC3FE"/>
<path d="M96.4243 303C96.0887 303 95.753 302.876 95.488 302.611L0.388643 207.518C-0.123688 207.005 -0.123688 206.157 0.388643 205.645C0.900975 205.133 1.74897 205.133 2.2613 205.645L97.3607 300.739C97.873 301.251 97.873 302.099 97.3607 302.611C97.0957 302.876 96.76 303 96.4243 303Z" fill="#5BC3FE"/>
<path d="M70.7724 303C70.4368 303 70.1011 302.876 69.8361 302.611L0.388643 233.186C-0.123688 232.673 -0.123688 231.825 0.388643 231.313C0.900975 230.801 1.74897 230.801 2.2613 231.313L71.7087 300.739C72.2211 301.251 72.2211 302.099 71.7087 302.611C71.4437 302.876 71.1081 303 70.7724 303Z" fill="#5BC3FE"/>
<path d="M45.1205 303C44.7848 303 44.4492 302.876 44.1842 302.611L0.388643 258.836C-0.123688 258.324 -0.123688 257.476 0.388643 256.964C0.900975 256.451 1.74897 256.451 2.2613 256.964L46.0568 300.739C46.5692 301.251 46.5692 302.099 46.0568 302.611C45.7918 302.876 45.4562 303 45.1205 303Z" fill="#5BC3FE"/>
<path d="M19.4509 303C19.1153 303 18.7796 302.876 18.5146 302.611L0.388643 284.487C-0.123688 283.974 -0.123688 283.126 0.388643 282.614C0.900975 282.102 1.74897 282.102 2.2613 282.614L20.3872 300.739C20.8996 301.251 20.8996 302.099 20.3872 302.611C20.1222 302.876 19.7866 303 19.4509 303Z" fill="#5BC3FE"/>
</g>
<defs>
<clipPath id="clip0_2886_1480">
<rect width="303" height="303" fill="white"/>
</clipPath>
</defs>
</svg>
