<svg width="200" height="199" viewBox="0 0 200 199" fill="none" xmlns="http://www.w3.org/2000/svg">
<g opacity="0.7">
<mask id="mask0_2349_217" style="mask-type:luminance" maskUnits="userSpaceOnUse" x="0" y="0" width="200" height="199">
<path d="M99.5024 6.10352e-05C154.454 6.10352e-05 199.002 44.5475 199.002 99.4995C199.002 154.452 154.454 198.999 99.5024 198.999C44.5504 198.999 0.00292969 154.452 0.00292969 99.4995C0.00292969 44.5475 44.5504 6.10352e-05 99.5024 6.10352e-05Z" fill="white"/>
</mask>
<g mask="url(#mask0_2349_217)">
<path d="M99.5024 6.10352e-05C154.454 6.10352e-05 199.002 44.5475 199.002 99.4995C199.002 154.452 154.454 198.999 99.5024 198.999C44.5504 198.999 0.00292969 154.452 0.00292969 99.4995C0.00292969 44.5475 44.5504 6.10352e-05 99.5024 6.10352e-05Z" fill="url(#paint0_linear_2349_217)"/>
<path opacity="0.3" d="M160.263 157.868C167.418 157.053 174.628 156.265 181.82 155.385C185.666 149.722 188.947 143.642 191.579 137.229C169.308 138.248 146.973 138.702 125.601 144.736C111.125 148.823 97.5196 155.385 84.3407 162.539C78.6224 165.644 71.616 168.499 66.5835 172.651C64.109 174.699 58.4 182.067 65.4436 181.854C73.1822 181.613 79.8829 176.821 86.8152 173.939C94.4983 170.741 102.45 168.23 110.513 166.172C126.824 162.011 143.553 159.778 160.254 157.859L160.263 157.868ZM109.837 130.13C84.526 141.993 67.2879 165.968 44.8319 182.632C41.2823 180.297 37.8903 177.739 34.6837 174.977C43.0525 170.167 51.0043 164.625 58.3908 158.415C81.9774 138.554 99.8921 112.02 125.935 95.5051C144.554 83.6979 166.213 77.7572 187.649 72.6506C190.031 72.0853 192.441 71.5292 194.86 71.0195C197.547 80.0463 199.002 89.6015 199.002 99.4995C199.002 105.273 198.502 110.936 197.557 116.45C190.115 117.238 182.654 117.905 175.184 118.443C152.969 120.037 129.994 120.686 109.837 130.13ZM136.852 50.9639C126.685 54.4764 116.268 58.1279 108.039 65.0603C97.3249 74.0871 91.5418 87.646 82.0886 97.9889C69.2619 112.011 50.7819 119.082 34.1276 128.248C25.8699 132.79 17.6494 138.406 11.097 145.209C4.00711 131.52 -0.00585938 115.978 -0.00585938 99.4995C-0.00585938 93.3642 0.550211 87.3494 1.61601 81.52C17.0377 71.9277 31.0414 59.6015 45.3231 48.2114C68.7059 29.5737 95.0543 12.6507 123.09 2.81748C144.665 8.06308 163.488 20.343 176.991 37.0899C163.609 41.7146 150.226 46.3392 136.852 50.9546V50.9639ZM22.5335 49.3049C18.8171 50.8249 15.0451 52.2336 11.2453 53.5218C17.6401 41.2697 26.5094 30.519 37.1952 21.9278C39.2342 29.6479 38.4186 37.8684 32.8579 43.3087C29.9941 46.1075 26.2499 47.7943 22.5428 49.3049H22.5335ZM69.957 194.532C85.8514 183.828 104.906 177.859 124.072 177.637C135.277 177.507 146.5 179.268 157.677 180.213C141.319 192.03 121.227 198.99 99.5029 198.99C89.2156 198.99 79.299 197.433 69.957 194.532Z" fill="url(#paint1_linear_2349_217)"/>
</g>
</g>
<defs>
<linearGradient id="paint0_linear_2349_217" x1="99.5024" y1="200.269" x2="99.5024" y2="-47.6829" gradientUnits="userSpaceOnUse">
<stop stop-color="#06A5FF"/>
<stop offset="0.42" stop-color="#315D93"/>
<stop offset="0.97" stop-color="#0F172A"/>
</linearGradient>
<linearGradient id="paint1_linear_2349_217" x1="52.413" y1="176.904" x2="130.68" y2="48.2484" gradientUnits="userSpaceOnUse">
<stop stop-color="#315D93"/>
<stop offset="0.98" stop-color="#1E293B"/>
</linearGradient>
</defs>
</svg>
