<svg width="2048" height="1440" viewBox="0 0 2048 1440" fill="none" xmlns="http://www.w3.org/2000/svg">
<g filter="url(#filter0_f_2886_1371)">
<ellipse cx="1676" cy="842.5" rx="342" ry="312.5" fill="#24455E"/>
</g>
<g filter="url(#filter1_f_2886_1371)">
<circle cx="429.5" cy="429.5" r="429.5" fill="#0A3E8C"/>
</g>
<g clip-path="url(#clip0_2886_1371)">
<g style="mix-blend-mode:screen">
<path d="M1265.98 1149.89C1265.98 1152.4 1268.02 1154.45 1270.54 1154.45C1273.05 1154.45 1275.1 1152.4 1275.1 1149.89C1275.1 1147.38 1273.05 1145.33 1270.54 1145.33C1268.02 1145.33 1265.98 1147.38 1265.98 1149.89Z" fill="#6579AD"/>
</g>
<g style="mix-blend-mode:color-dodge">
<path d="M1268.26 1149.89C1268.26 1151.18 1269.31 1152.17 1270.54 1152.17C1271.76 1152.17 1272.82 1151.12 1272.82 1149.89C1272.82 1148.66 1271.76 1147.61 1270.54 1147.61C1269.31 1147.61 1268.26 1148.66 1268.26 1149.89Z" fill="#6579AD"/>
</g>
<g style="mix-blend-mode:screen">
<path d="M1751.38 507.537C1751.38 512.62 1755.48 516.711 1760.56 516.711C1765.65 516.711 1769.74 512.62 1769.74 507.537C1769.74 502.453 1765.65 498.363 1760.56 498.363C1755.48 498.363 1751.38 502.453 1751.38 507.537Z" fill="#6579AD"/>
</g>
<g style="mix-blend-mode:color-dodge">
<path d="M1755.94 507.537C1755.94 510.049 1757.99 512.095 1760.5 512.095C1763.02 512.095 1765.06 510.049 1765.06 507.537C1765.06 505.024 1763.02 502.979 1760.5 502.979C1757.99 502.979 1755.94 505.024 1755.94 507.537Z" fill="#6579AD"/>
</g>
<g style="mix-blend-mode:screen">
<path d="M1527.39 438.235C1527.39 443.319 1531.48 447.409 1536.56 447.409C1541.65 447.409 1545.74 443.319 1545.74 438.235C1545.74 433.152 1541.65 429.061 1536.56 429.061C1531.48 429.061 1527.39 433.152 1527.39 438.235Z" fill="#6579AD"/>
</g>
<g style="mix-blend-mode:color-dodge">
<path d="M1531.95 438.235C1531.95 440.748 1533.99 442.793 1536.5 442.793C1539.02 442.793 1541.06 440.748 1541.06 438.235C1541.06 435.723 1539.02 433.677 1536.5 433.677C1533.99 433.677 1531.95 435.723 1531.95 438.235Z" fill="#6579AD"/>
</g>
<g style="mix-blend-mode:screen">
<path d="M1128.2 802.624C1130.56 802.624 1132.47 800.714 1132.47 798.358C1132.47 796.002 1130.56 794.092 1128.2 794.092C1125.84 794.092 1123.93 796.002 1123.93 798.358C1123.93 800.714 1125.84 802.624 1128.2 802.624Z" fill="#6579AD"/>
</g>
<g style="mix-blend-mode:color-dodge">
<path d="M1126.09 798.358C1126.09 799.526 1127.03 800.52 1128.26 800.52C1129.49 800.52 1130.42 799.585 1130.42 798.358C1130.42 797.131 1129.49 796.196 1128.26 796.196C1127.03 796.196 1126.09 797.131 1126.09 798.358Z" fill="#6579AD"/>
</g>
<g style="mix-blend-mode:screen">
<path d="M680.554 548.265C681.716 548.265 682.659 547.323 682.659 546.161C682.659 544.999 681.716 544.057 680.554 544.057C679.392 544.057 678.45 544.999 678.45 546.161C678.45 547.323 679.392 548.265 680.554 548.265Z" fill="#6579AD"/>
</g>
<g style="mix-blend-mode:color-dodge">
<path d="M679.502 546.161C679.502 546.745 679.97 547.213 680.554 547.213C681.139 547.213 681.606 546.745 681.606 546.161C681.606 545.577 681.139 545.109 680.554 545.109C679.97 545.109 679.502 545.577 679.502 546.161Z" fill="#6579AD"/>
</g>
<g style="mix-blend-mode:screen">
<path d="M407.476 736.946C412.157 736.946 415.952 733.152 415.952 728.473C415.952 723.793 412.157 720 407.476 720C402.795 720 399 723.793 399 728.473C399 733.152 402.795 736.946 407.476 736.946Z" fill="#6579AD"/>
</g>
<g style="mix-blend-mode:color-dodge">
<path d="M403.209 728.473C403.209 730.81 405.079 732.738 407.476 732.738C409.873 732.738 411.685 730.869 411.685 728.473C411.685 726.077 409.814 724.207 407.476 724.207C405.138 724.207 403.209 726.077 403.209 728.473Z" fill="#6579AD"/>
</g>
<g style="mix-blend-mode:screen">
<path d="M88 728.121C88 732.796 91.7995 736.594 96.4759 736.594C101.152 736.594 104.952 732.796 104.952 728.121C104.952 723.447 101.152 719.649 96.4759 719.649C91.7995 719.649 88 723.447 88 728.121Z" fill="#6579AD"/>
</g>
<g style="mix-blend-mode:color-dodge">
<path d="M92.2672 728.122C92.2672 730.459 94.1378 732.387 96.5344 732.387C98.931 732.387 100.743 730.517 100.743 728.122C100.743 725.726 98.8726 723.856 96.5344 723.856C94.1962 723.856 92.2672 725.726 92.2672 728.122Z" fill="#6579AD"/>
</g>
<g style="mix-blend-mode:color-dodge">
<path d="M875.091 1199.56C875.091 1201.31 876.494 1202.71 878.248 1202.71C880.001 1202.71 881.404 1201.31 881.404 1199.56C881.404 1197.81 880.001 1196.4 878.248 1196.4C876.494 1196.4 875.091 1197.81 875.091 1199.56Z" fill="#6579AD"/>
</g>
<g style="mix-blend-mode:color-dodge">
<path d="M926.999 921.593C926.999 923.229 928.285 924.515 929.921 924.515C931.558 924.515 932.844 923.229 932.844 921.593C932.844 919.957 931.558 918.671 929.921 918.671C928.285 918.671 926.999 919.957 926.999 921.593Z" fill="#6579AD"/>
</g>
<g style="mix-blend-mode:color-dodge">
<path d="M631.394 362.74C631.394 364.843 633.089 366.479 635.135 366.479C637.181 366.479 638.876 364.785 638.876 362.74C638.876 360.695 637.181 359 635.135 359C633.089 359 631.394 360.695 631.394 362.74Z" fill="#6579AD"/>
</g>
<g style="mix-blend-mode:color-dodge">
<path d="M1908.86 1068.79C1908.86 1072.99 1912.25 1076.38 1916.46 1076.38C1920.67 1076.38 1924.06 1072.99 1924.06 1068.79C1924.06 1064.58 1920.67 1061.19 1916.46 1061.19C1912.25 1061.19 1908.86 1064.58 1908.86 1068.79Z" fill="#6579AD"/>
</g>
<g style="mix-blend-mode:color-dodge">
<path d="M1776.69 1160.93C1776.69 1164.5 1779.62 1167.42 1783.18 1167.42C1786.75 1167.42 1789.67 1164.5 1789.67 1160.93C1789.67 1157.37 1786.75 1154.45 1783.18 1154.45C1779.62 1154.45 1776.69 1157.37 1776.69 1160.93Z" fill="#6579AD"/>
</g>
<g style="mix-blend-mode:color-dodge">
<path d="M1153.39 1057.57C1153.39 1059.38 1154.85 1060.84 1156.67 1060.84C1158.48 1060.84 1159.94 1059.38 1159.94 1057.57C1159.94 1055.76 1158.48 1054.29 1156.67 1054.29C1154.85 1054.29 1153.39 1055.76 1153.39 1057.57Z" fill="#6579AD"/>
</g>
<g style="mix-blend-mode:color-dodge">
<path d="M1682 1146.27C1682 1148.08 1683.46 1149.54 1685.27 1149.54C1687.09 1149.54 1688.55 1148.08 1688.55 1146.27C1688.55 1144.46 1687.09 1143 1685.27 1143C1683.46 1143 1682 1144.46 1682 1146.27Z" fill="#6579AD"/>
</g>
<g style="mix-blend-mode:color-dodge">
<path d="M710 821.74C710 823.843 711.695 825.479 713.741 825.479C715.787 825.479 717.482 823.785 717.482 821.74C717.482 819.695 715.787 818 713.741 818C711.695 818 710 819.695 710 821.74Z" fill="#6579AD"/>
</g>
<g style="mix-blend-mode:color-dodge">
<path d="M635.135 994.225C635.135 996.329 636.83 997.965 638.876 997.965C640.922 997.965 642.617 996.27 642.617 994.225C642.617 992.18 640.922 990.486 638.876 990.486C636.83 990.486 635.135 992.18 635.135 994.225Z" fill="#6579AD"/>
</g>
<g style="mix-blend-mode:color-dodge">
<path d="M671 731.74C671 733.843 672.695 735.479 674.741 735.479C676.787 735.479 678.482 733.785 678.482 731.74C678.482 729.695 676.787 728 674.741 728C672.695 728 671 729.695 671 731.74Z" fill="#6579AD"/>
</g>
<g style="mix-blend-mode:color-dodge">
<path d="M573 908.636C573 909.513 573.701 910.272 574.637 910.272C575.572 910.272 576.273 909.571 576.273 908.636C576.273 907.701 575.572 907 574.637 907C573.701 907 573 907.701 573 908.636Z" fill="#6579AD"/>
</g>
<g style="mix-blend-mode:color-dodge">
<path d="M406 1147.64C406 1148.51 406.701 1149.27 407.637 1149.27C408.572 1149.27 409.273 1148.57 409.273 1147.64C409.273 1146.7 408.572 1146 407.637 1146C406.701 1146 406 1146.7 406 1147.64Z" fill="#6579AD"/>
</g>
<g style="mix-blend-mode:color-dodge">
<path d="M432 905.636C432 906.513 432.701 907.272 433.637 907.272C434.572 907.272 435.273 906.571 435.273 905.636C435.273 904.701 434.572 904 433.637 904C432.701 904 432 904.701 432 905.636Z" fill="#6579AD"/>
</g>
<g style="mix-blend-mode:color-dodge">
<path d="M1640.61 886.592C1638.51 886.592 1636.87 888.286 1636.87 890.332C1636.87 892.377 1638.57 894.071 1640.61 894.071C1642.66 894.071 1644.35 892.377 1644.35 890.332C1644.35 888.286 1642.66 886.592 1640.61 886.592Z" fill="#6579AD"/>
</g>
<g style="mix-blend-mode:color-dodge">
<path d="M1540.3 985.051C1538.2 985.051 1536.56 986.746 1536.56 988.791C1536.56 990.836 1538.26 992.531 1540.3 992.531C1542.35 992.531 1544.05 990.836 1544.05 988.791C1544.05 986.746 1542.35 985.051 1540.3 985.051Z" fill="#6579AD"/>
</g>
<g style="mix-blend-mode:color-dodge">
<path d="M1752.55 683.771C1752.55 687.335 1755.48 690.257 1759.04 690.257C1762.61 690.257 1765.53 687.335 1765.53 683.771C1765.53 680.206 1762.61 677.285 1759.04 677.285C1755.48 677.285 1752.55 680.206 1752.55 683.771Z" fill="#6579AD"/>
</g>
<g style="mix-blend-mode:color-dodge">
<path d="M1915.06 887.059C1915.06 888.871 1916.52 890.331 1918.33 890.331C1920.14 890.331 1921.6 888.871 1921.6 887.059C1921.6 885.248 1920.14 883.787 1918.33 883.787C1916.52 883.787 1915.06 885.248 1915.06 887.059Z" fill="#6579AD"/>
</g>
<g style="mix-blend-mode:color-dodge">
<path d="M1803.58 646.666C1801.48 646.666 1799.84 648.36 1799.84 650.405C1799.84 652.451 1801.54 654.145 1803.58 654.145C1805.63 654.145 1807.32 652.451 1807.32 650.405C1807.32 648.36 1805.63 646.666 1803.58 646.666Z" fill="#6579AD"/>
</g>
<g style="mix-blend-mode:color-dodge">
<path d="M1726.6 629.253C1724.49 629.253 1722.86 630.947 1722.86 632.992C1722.86 635.038 1724.55 636.732 1726.6 636.732C1728.64 636.732 1730.34 635.038 1730.34 632.992C1730.34 630.947 1728.64 629.253 1726.6 629.253Z" fill="#6579AD"/>
</g>
<g style="mix-blend-mode:color-dodge">
<path d="M1410.24 1008.37C1409.37 1008.37 1408.61 1009.07 1408.61 1010C1408.61 1010.94 1409.31 1011.64 1410.24 1011.64C1411.18 1011.64 1411.88 1010.94 1411.88 1010C1411.88 1009.07 1411.18 1008.37 1410.24 1008.37Z" fill="#6579AD"/>
</g>
<g style="mix-blend-mode:color-dodge">
<path d="M1453.5 990.953C1452.62 990.953 1451.86 991.654 1451.86 992.589C1451.86 993.524 1452.56 994.225 1453.5 994.225C1454.43 994.225 1455.14 993.524 1455.14 992.589C1455.14 991.654 1454.43 990.953 1453.5 990.953Z" fill="#6579AD"/>
</g>
<g style="mix-blend-mode:color-dodge">
<path d="M1442.8 786.554C1441.93 786.554 1441.17 787.256 1441.17 788.191C1441.17 789.125 1441.87 789.827 1442.8 789.827C1443.74 789.827 1444.44 789.125 1444.44 788.191C1444.44 787.256 1443.74 786.554 1442.8 786.554Z" fill="#6579AD"/>
</g>
<g style="mix-blend-mode:color-dodge">
<path d="M1331.68 515.893C1331.68 517.996 1333.37 519.632 1335.42 519.632C1337.47 519.632 1339.16 517.938 1339.16 515.893C1339.16 513.847 1337.47 512.153 1335.42 512.153C1333.37 512.153 1331.68 513.847 1331.68 515.893Z" fill="#6579AD"/>
</g>
<g style="mix-blend-mode:color-dodge">
<path d="M1355 645.906C1355 646.783 1355.7 647.542 1356.64 647.542C1357.58 647.542 1358.28 646.841 1358.28 645.906C1358.28 644.971 1357.58 644.27 1356.64 644.27C1355.7 644.27 1355 644.971 1355 645.906Z" fill="#6579AD"/>
</g>
<g style="mix-blend-mode:color-dodge">
<path d="M1337.58 602.666C1337.58 603.542 1338.29 604.302 1339.22 604.302C1340.16 604.302 1340.86 603.601 1340.86 602.666C1340.86 601.731 1340.16 601.03 1339.22 601.03C1338.29 601.03 1337.58 601.731 1337.58 602.666Z" fill="#6579AD"/>
</g>
<g style="mix-blend-mode:color-dodge">
<path d="M1292.98 584.434C1292.98 585.311 1293.68 586.071 1294.62 586.071C1295.55 586.071 1296.26 585.369 1296.26 584.434C1296.26 583.5 1295.55 582.798 1294.62 582.798C1293.68 582.798 1292.98 583.5 1292.98 584.434Z" fill="#6579AD"/>
</g>
<g style="mix-blend-mode:color-dodge">
<path d="M1053.73 525.534C1055.79 525.534 1057.47 523.86 1057.47 521.794C1057.47 519.729 1055.79 518.055 1053.73 518.055C1051.66 518.055 1049.99 519.729 1049.99 521.794C1049.99 523.86 1051.66 525.534 1053.73 525.534Z" fill="#6579AD"/>
</g>
<g style="mix-blend-mode:color-dodge">
<path d="M1104.12 412.349C1106.18 412.349 1107.86 410.675 1107.86 408.61C1107.86 406.544 1106.18 404.87 1104.12 404.87C1102.05 404.87 1100.37 406.544 1100.37 408.61C1100.37 410.675 1102.05 412.349 1104.12 412.349Z" fill="#6579AD"/>
</g>
<g style="mix-blend-mode:color-dodge">
<path d="M1769.5 1012.92C1769.5 1014.15 1770.5 1015.14 1771.73 1015.14C1772.95 1015.14 1773.95 1014.15 1773.95 1012.92C1773.95 1011.7 1772.95 1010.7 1771.73 1010.7C1770.5 1010.7 1769.5 1011.7 1769.5 1012.92Z" fill="#6579AD"/>
</g>
<g filter="url(#filter2_d_2886_1371)">
<path d="M456.513 1004.14C456.693 1003.01 458.307 1003.01 458.487 1004.14L460.919 1019.25C460.988 1019.68 461.322 1020.01 461.748 1020.08L476.864 1022.51C477.985 1022.69 477.985 1024.31 476.864 1024.49L461.748 1026.92C461.322 1026.99 460.988 1027.32 460.919 1027.75L458.487 1042.86C458.307 1043.99 456.693 1043.99 456.513 1042.86L454.081 1027.75C454.012 1027.32 453.678 1026.99 453.252 1026.92L438.136 1024.49C437.015 1024.31 437.015 1022.69 438.136 1022.51L453.252 1020.08C453.678 1020.01 454.012 1019.68 454.081 1019.25L456.513 1004.14Z" fill="white"/>
</g>
<g filter="url(#filter3_d_2886_1371)">
<path d="M732.013 431.136C732.193 430.015 733.807 430.015 733.987 431.136L734.548 434.623C734.617 435.049 734.951 435.383 735.377 435.452L738.864 436.013C739.985 436.193 739.985 437.807 738.864 437.987L735.377 438.548C734.951 438.617 734.617 438.951 734.548 439.377L733.987 442.864C733.807 443.985 732.193 443.985 732.013 442.864L731.452 439.377C731.383 438.951 731.049 438.617 730.623 438.548L727.136 437.987C726.015 437.807 726.015 436.193 727.136 436.013L730.623 435.452C731.049 435.383 731.383 435.049 731.452 434.623L732.013 431.136Z" fill="white"/>
</g>
<g filter="url(#filter4_d_2886_1371)">
<path d="M1535.51 734.136C1535.69 733.015 1537.31 733.015 1537.49 734.136L1538.81 742.361C1538.88 742.787 1539.21 743.121 1539.64 743.189L1547.86 744.513C1548.99 744.693 1548.99 746.307 1547.86 746.487L1539.64 747.811C1539.21 747.879 1538.88 748.213 1538.81 748.639L1537.49 756.864C1537.31 757.985 1535.69 757.985 1535.51 756.864L1534.19 748.639C1534.12 748.213 1533.79 747.879 1533.36 747.811L1525.14 746.487C1524.01 746.307 1524.01 744.693 1525.14 744.513L1533.36 743.189C1533.79 743.121 1534.12 742.787 1534.19 742.361L1535.51 734.136Z" fill="white"/>
</g>
</g>
<defs>
<filter id="filter0_f_2886_1371" x="834" y="30" width="1684" height="1625" filterUnits="userSpaceOnUse" color-interpolation-filters="sRGB">
<feFlood flood-opacity="0" result="BackgroundImageFix"/>
<feBlend mode="normal" in="SourceGraphic" in2="BackgroundImageFix" result="shape"/>
<feGaussianBlur stdDeviation="250" result="effect1_foregroundBlur_2886_1371"/>
</filter>
<filter id="filter1_f_2886_1371" x="-500" y="-500" width="1859" height="1859" filterUnits="userSpaceOnUse" color-interpolation-filters="sRGB">
<feFlood flood-opacity="0" result="BackgroundImageFix"/>
<feBlend mode="normal" in="SourceGraphic" in2="BackgroundImageFix" result="shape"/>
<feGaussianBlur stdDeviation="250" result="effect1_foregroundBlur_2886_1371"/>
</filter>
<filter id="filter2_d_2886_1371" x="429.295" y="995.295" width="56.4094" height="56.4092" filterUnits="userSpaceOnUse" color-interpolation-filters="sRGB">
<feFlood flood-opacity="0" result="BackgroundImageFix"/>
<feColorMatrix in="SourceAlpha" type="matrix" values="0 0 0 0 0 0 0 0 0 0 0 0 0 0 0 0 0 0 127 0" result="hardAlpha"/>
<feOffset/>
<feGaussianBlur stdDeviation="4"/>
<feComposite in2="hardAlpha" operator="out"/>
<feColorMatrix type="matrix" values="0 0 0 0 1 0 0 0 0 1 0 0 0 0 1 0 0 0 0.9 0"/>
<feBlend mode="normal" in2="BackgroundImageFix" result="effect1_dropShadow_2886_1371"/>
<feBlend mode="normal" in="SourceGraphic" in2="effect1_dropShadow_2886_1371" result="shape"/>
</filter>
<filter id="filter3_d_2886_1371" x="718.295" y="422.295" width="29.4094" height="29.4092" filterUnits="userSpaceOnUse" color-interpolation-filters="sRGB">
<feFlood flood-opacity="0" result="BackgroundImageFix"/>
<feColorMatrix in="SourceAlpha" type="matrix" values="0 0 0 0 0 0 0 0 0 0 0 0 0 0 0 0 0 0 127 0" result="hardAlpha"/>
<feOffset/>
<feGaussianBlur stdDeviation="4"/>
<feComposite in2="hardAlpha" operator="out"/>
<feColorMatrix type="matrix" values="0 0 0 0 1 0 0 0 0 1 0 0 0 0 1 0 0 0 1 0"/>
<feBlend mode="normal" in2="BackgroundImageFix" result="effect1_dropShadow_2886_1371"/>
<feBlend mode="normal" in="SourceGraphic" in2="effect1_dropShadow_2886_1371" result="shape"/>
</filter>
<filter id="filter4_d_2886_1371" x="1516.3" y="725.295" width="40.4094" height="40.4092" filterUnits="userSpaceOnUse" color-interpolation-filters="sRGB">
<feFlood flood-opacity="0" result="BackgroundImageFix"/>
<feColorMatrix in="SourceAlpha" type="matrix" values="0 0 0 0 0 0 0 0 0 0 0 0 0 0 0 0 0 0 127 0" result="hardAlpha"/>
<feOffset/>
<feGaussianBlur stdDeviation="4"/>
<feComposite in2="hardAlpha" operator="out"/>
<feColorMatrix type="matrix" values="0 0 0 0 1 0 0 0 0 1 0 0 0 0 1 0 0 0 1 0"/>
<feBlend mode="normal" in2="BackgroundImageFix" result="effect1_dropShadow_2886_1371"/>
<feBlend mode="normal" in="SourceGraphic" in2="effect1_dropShadow_2886_1371" result="shape"/>
</filter>
<clipPath id="clip0_2886_1371">
<rect width="1836" height="933" fill="white" transform="translate(88 359)"/>
</clipPath>
</defs>
</svg>
