<svg width="1024" height="800" viewBox="0 0 1024 800" fill="none" xmlns="http://www.w3.org/2000/svg">
<g clip-path="url(#clip0_2089_495)">
<rect width="1024" height="800" fill="white"/>
<rect width="1024" height="800" fill="url(#paint0_radial_2089_495)"/>
<g style="mix-blend-mode:color-dodge" opacity="0.9" clip-path="url(#clip1_2089_495)">
<g style="mix-blend-mode:screen">
<path d="M704.092 689.009C704.092 690.919 705.466 692.473 707.154 692.473C708.842 692.473 710.216 690.919 710.216 689.009C710.216 687.1 708.842 685.546 707.154 685.546C705.466 685.546 704.092 687.1 704.092 689.009Z" fill="#85A5F8"/>
</g>
<g style="mix-blend-mode:color-dodge">
<path d="M705.623 689.009C705.623 689.986 706.33 690.741 707.154 690.741C707.979 690.741 708.685 689.942 708.685 689.009C708.685 688.077 707.979 687.278 707.154 687.278C706.33 687.278 705.623 688.077 705.623 689.009Z" fill="#85A5F8"/>
</g>
<g style="mix-blend-mode:screen">
<path d="M879.646 148.212C879.646 152.075 882.394 155.183 885.81 155.183C889.225 155.183 891.973 152.075 891.973 148.212C891.973 144.349 889.225 141.24 885.81 141.24C882.394 141.24 879.646 144.349 879.646 148.212Z" fill="#85A5F8"/>
</g>
<g style="mix-blend-mode:color-dodge">
<path d="M882.708 148.212C882.708 150.121 884.082 151.675 885.77 151.675C887.458 151.675 888.832 150.121 888.832 148.212C888.832 146.302 887.458 144.748 885.77 144.748C884.082 144.748 882.708 146.302 882.708 148.212Z" fill="#85A5F8"/>
</g>
<g style="mix-blend-mode:screen">
<path d="M611.565 425.116C613.148 425.116 614.431 423.665 614.431 421.874C614.431 420.084 613.148 418.633 611.565 418.633C609.983 418.633 608.7 420.084 608.7 421.874C608.7 423.665 609.983 425.116 611.565 425.116Z" fill="#85A5F8"/>
</g>
<g style="mix-blend-mode:color-dodge">
<path d="M610.152 421.874C610.152 422.762 610.78 423.517 611.604 423.517C612.429 423.517 613.057 422.807 613.057 421.874C613.057 420.942 612.429 420.231 611.604 420.231C610.78 420.231 610.152 420.942 610.152 421.874Z" fill="#85A5F8"/>
</g>
<g style="mix-blend-mode:screen">
<path d="M310.941 231.825C311.721 231.825 312.354 231.109 312.354 230.226C312.354 229.343 311.721 228.628 310.941 228.628C310.16 228.628 309.528 229.343 309.528 230.226C309.528 231.109 310.16 231.825 310.941 231.825Z" fill="#85A5F8"/>
</g>
<g style="mix-blend-mode:color-dodge">
<path d="M310.234 230.226C310.234 230.67 310.548 231.026 310.941 231.026C311.333 231.026 311.647 230.67 311.647 230.226C311.647 229.782 311.333 229.427 310.941 229.427C310.548 229.427 310.234 229.782 310.234 230.226Z" fill="#85A5F8"/>
</g>
<g style="mix-blend-mode:screen">
<path d="M131.461 200.342C134.605 200.342 137.153 197.46 137.153 193.904C137.153 190.348 134.605 187.465 131.461 187.465C128.317 187.465 125.769 190.348 125.769 193.904C125.769 197.46 128.317 200.342 131.461 200.342Z" fill="#85A5F8"/>
</g>
<g style="mix-blend-mode:color-dodge">
<path d="M128.595 193.904C128.595 195.68 129.852 197.145 131.461 197.145C133.071 197.145 134.287 195.724 134.287 193.904C134.287 192.083 133.031 190.662 131.461 190.662C129.891 190.662 128.595 192.083 128.595 193.904Z" fill="#85A5F8"/>
</g>
<g style="mix-blend-mode:color-dodge">
<path d="M441.586 726.753C441.586 728.085 442.528 729.151 443.706 729.151C444.883 729.151 445.825 728.085 445.825 726.753C445.825 725.421 444.883 724.355 443.706 724.355C442.528 724.355 441.586 725.421 441.586 726.753Z" fill="#85A5F8"/>
</g>
<g style="mix-blend-mode:color-dodge">
<path d="M476.445 515.522C476.445 516.766 477.309 517.743 478.408 517.743C479.507 517.743 480.371 516.766 480.371 515.522C480.371 514.279 479.507 513.302 478.408 513.302C477.309 513.302 476.445 514.279 476.445 515.522Z" fill="#85A5F8"/>
</g>
<g style="mix-blend-mode:color-dodge">
<path d="M277.926 90.8419C277.926 92.4404 279.065 93.6837 280.439 93.6837C281.813 93.6837 282.951 92.396 282.951 90.8419C282.951 89.2877 281.813 88 280.439 88C279.065 88 277.926 89.2877 277.926 90.8419Z" fill="#85A5F8"/>
</g>
<g style="mix-blend-mode:color-dodge">
<path d="M132.05 751.086C132.05 754.283 134.327 756.859 137.153 756.859C139.98 756.859 142.257 754.283 142.257 751.086C142.257 747.889 139.98 745.314 137.153 745.314C134.327 745.314 132.05 747.889 132.05 751.086Z" fill="#85A5F8"/>
</g>
<g style="mix-blend-mode:color-dodge">
<path d="M942.535 789.54C942.535 793.67 945.479 796.956 949.091 796.956C952.702 796.956 955.646 793.625 955.646 789.54C955.646 785.455 952.702 782.125 949.091 782.125C945.479 782.125 942.535 785.455 942.535 789.54Z" fill="#85A5F8"/>
</g>
<g style="mix-blend-mode:color-dodge">
<path d="M628.485 618.851C628.485 620.227 629.466 621.338 630.683 621.338C631.9 621.338 632.881 620.227 632.881 618.851C632.881 617.474 631.9 616.364 630.683 616.364C629.466 616.364 628.485 617.474 628.485 618.851Z" fill="#85A5F8"/>
</g>
<g style="mix-blend-mode:color-dodge">
<path d="M499.449 753.573C499.449 754.949 500.431 756.059 501.648 756.059C502.865 756.059 503.846 754.949 503.846 753.573C503.846 752.196 502.865 751.086 501.648 751.086C500.431 751.086 499.449 752.196 499.449 753.573Z" fill="#85A5F8"/>
</g>
<g style="mix-blend-mode:color-dodge">
<path d="M983.48 686.259C983.48 687.636 984.462 688.746 985.679 688.746C986.896 688.746 987.877 687.636 987.877 686.259C987.877 684.883 986.896 683.773 985.679 683.773C984.462 683.773 983.48 684.883 983.48 686.259Z" fill="#85A5F8"/>
</g>
<g style="mix-blend-mode:color-dodge">
<path d="M330.716 439.642C330.716 441.241 331.854 442.484 333.228 442.484C334.602 442.484 335.74 441.197 335.74 439.642C335.74 438.088 334.602 436.801 333.228 436.801C331.854 436.801 330.716 438.088 330.716 439.642Z" fill="#85A5F8"/>
</g>
<g style="mix-blend-mode:color-dodge">
<path d="M280.439 570.717C280.439 572.315 281.577 573.559 282.951 573.559C284.325 573.559 285.463 572.271 285.463 570.717C285.463 569.163 284.325 567.875 282.951 567.875C281.577 567.875 280.439 569.163 280.439 570.717Z" fill="#85A5F8"/>
</g>
<g style="mix-blend-mode:color-dodge">
<path d="M335.711 323.564C335.711 325.162 336.85 326.406 338.224 326.406C339.598 326.406 340.736 325.118 340.736 323.564C340.736 322.01 339.598 320.722 338.224 320.722C336.85 320.722 335.711 322.01 335.711 323.564Z" fill="#85A5F8"/>
</g>
<g style="mix-blend-mode:color-dodge">
<path d="M238.711 505.676C238.711 506.343 239.182 506.92 239.81 506.92C240.438 506.92 240.909 506.387 240.909 505.676C240.909 504.966 240.438 504.433 239.81 504.433C239.182 504.433 238.711 504.966 238.711 505.676Z" fill="#85A5F8"/>
</g>
<g style="mix-blend-mode:color-dodge">
<path d="M126.559 687.296C126.559 687.962 127.03 688.539 127.658 688.539C128.286 688.539 128.757 688.006 128.757 687.296C128.757 686.585 128.286 686.052 127.658 686.052C127.03 686.052 126.559 686.585 126.559 687.296Z" fill="#85A5F8"/>
</g>
<g style="mix-blend-mode:color-dodge">
<path d="M144.02 503.397C144.02 504.063 144.491 504.64 145.119 504.64C145.747 504.64 146.218 504.107 146.218 503.397C146.218 502.686 145.747 502.153 145.119 502.153C144.491 502.153 144.02 502.686 144.02 503.397Z" fill="#85A5F8"/>
</g>
<g style="mix-blend-mode:color-dodge">
<path d="M955.686 488.925C954.272 488.925 953.173 490.212 953.173 491.766C953.173 493.321 954.312 494.608 955.686 494.608C957.06 494.608 958.198 493.321 958.198 491.766C958.198 490.212 957.06 488.925 955.686 488.925Z" fill="#85A5F8"/>
</g>
<g style="mix-blend-mode:color-dodge">
<path d="M888.322 563.745C886.909 563.745 885.81 565.033 885.81 566.587C885.81 568.141 886.948 569.429 888.322 569.429C889.696 569.429 890.834 568.141 890.834 566.587C890.834 565.033 889.696 563.745 888.322 563.745Z" fill="#85A5F8"/>
</g>
<g style="mix-blend-mode:color-dodge">
<path d="M1013.43 293.369C1012.02 293.369 1010.92 294.657 1010.92 296.211C1010.92 297.765 1012.06 299.053 1013.43 299.053C1014.81 299.053 1015.94 297.765 1015.94 296.211C1015.94 294.657 1014.81 293.369 1013.43 293.369Z" fill="#85A5F8"/>
</g>
<g style="mix-blend-mode:color-dodge">
<path d="M800.977 581.463C800.388 581.463 799.878 581.996 799.878 582.706C799.878 583.416 800.349 583.949 800.977 583.949C801.605 583.949 802.076 583.416 802.076 582.706C802.076 581.996 801.605 581.463 800.977 581.463Z" fill="#85A5F8"/>
</g>
<g style="mix-blend-mode:color-dodge">
<path d="M830.026 568.23C829.438 568.23 828.927 568.763 828.927 569.474C828.927 570.184 829.398 570.717 830.026 570.717C830.655 570.717 831.126 570.184 831.126 569.474C831.126 568.763 830.655 568.23 830.026 568.23Z" fill="#85A5F8"/>
</g>
<g style="mix-blend-mode:color-dodge">
<path d="M822.842 412.905C822.254 412.905 821.743 413.438 821.743 414.148C821.743 414.859 822.214 415.391 822.842 415.391C823.471 415.391 823.942 414.859 823.942 414.148C823.942 413.438 823.471 412.905 822.842 412.905Z" fill="#85A5F8"/>
</g>
<g style="mix-blend-mode:color-dodge">
<path d="M748.216 207.225C748.216 208.823 749.355 210.067 750.729 210.067C752.103 210.067 753.241 208.779 753.241 207.225C753.241 205.671 752.103 204.383 750.729 204.383C749.355 204.383 748.216 205.671 748.216 207.225Z" fill="#85A5F8"/>
</g>
<g style="mix-blend-mode:color-dodge">
<path d="M763.88 306.024C763.88 306.69 764.351 307.267 764.979 307.267C765.607 307.267 766.078 306.735 766.078 306.024C766.078 305.314 765.607 304.781 764.979 304.781C764.351 304.781 763.88 305.314 763.88 306.024Z" fill="#85A5F8"/>
</g>
<g style="mix-blend-mode:color-dodge">
<path d="M752.181 273.165C752.181 273.831 752.652 274.408 753.28 274.408C753.908 274.408 754.379 273.875 754.379 273.165C754.379 272.454 753.908 271.922 753.28 271.922C752.652 271.922 752.181 272.454 752.181 273.165Z" fill="#85A5F8"/>
</g>
<g style="mix-blend-mode:color-dodge">
<path d="M722.229 259.311C722.229 259.977 722.7 260.554 723.328 260.554C723.956 260.554 724.427 260.021 724.427 259.311C724.427 258.6 723.956 258.068 723.328 258.068C722.7 258.068 722.229 258.6 722.229 259.311Z" fill="#85A5F8"/>
</g>
<g style="mix-blend-mode:color-dodge">
<path d="M561.553 214.552C562.94 214.552 564.065 213.279 564.065 211.71C564.065 210.14 562.94 208.868 561.553 208.868C560.165 208.868 559.04 210.14 559.04 211.71C559.04 213.279 560.165 214.552 561.553 214.552Z" fill="#85A5F8"/>
</g>
<g style="mix-blend-mode:color-dodge">
<path d="M595.392 128.541C596.779 128.541 597.904 127.269 597.904 125.699C597.904 124.13 596.779 122.857 595.392 122.857C594.004 122.857 592.879 124.13 592.879 125.699C592.879 127.269 594.004 128.541 595.392 128.541Z" fill="#85A5F8"/>
</g>
</g>
<mask id="mask0_2089_495" style="mask-type:luminance" maskUnits="userSpaceOnUse" x="-6" y="492" width="1036" height="309">
<path d="M1030 492H-6V800.159H1030V492Z" fill="white"/>
</mask>
<g mask="url(#mask0_2089_495)">
<path d="M512.002 1439.73C772.276 1439.73 983.269 1241.62 983.269 997.245C983.269 752.87 772.276 554.764 512.002 554.764C251.728 554.764 40.734 752.87 40.734 997.245C40.734 1241.62 251.728 1439.73 512.002 1439.73Z" fill="#5AA6BE" fill-opacity="0.3"/>
<path d="M512.002 1422.21C761.953 1422.21 964.578 1231.94 964.578 997.234C964.578 762.528 761.953 572.261 512.002 572.261C262.052 572.261 59.4264 762.528 59.4264 997.234C59.4264 1231.94 262.052 1422.21 512.002 1422.21Z" fill="#3578FF" fill-opacity="0.8"/>
<path d="M930.067 986.479C930.067 1204.18 742.891 1380.64 512.007 1380.64C281.124 1380.64 93.9337 1204.18 93.9337 986.479C93.9337 929.52 105.23 875.383 126.428 826.49C133.402 810.416 141.439 794.912 150.512 780.063C154.144 774.092 157.955 768.221 161.932 762.464C161.932 762.464 161.932 762.464 161.96 762.435C176.419 741.502 193.004 722.05 211.592 704.337C215.486 700.617 219.463 696.984 223.537 693.421C223.537 693.421 223.551 693.421 223.579 693.393C225.07 692.082 226.575 690.785 228.095 689.516C299.546 628.995 396.586 592.329 512.007 592.329C604.711 592.329 685.608 616.028 750.901 656.769C764.434 665.22 777.291 674.383 789.443 684.23C789.457 684.258 789.471 684.258 789.471 684.258C799.345 692.253 808.763 700.703 817.684 709.552C834.076 725.798 848.825 743.425 861.847 762.264C865.811 767.979 869.622 773.821 873.254 779.764C873.434 780.034 873.585 780.277 873.696 780.462C910.195 840.413 930.067 910.966 930.067 986.479Z" fill="url(#paint1_radial_2089_495)"/>
<path opacity="0.21" d="M817.912 709.706C817.87 709.806 817.815 709.892 817.774 709.992C793.087 760.526 640.062 747.775 591.061 736.623C524.073 721.373 484.563 740.878 431.363 750.659C388.814 758.484 392.088 732.996 409.19 729.64C471.495 717.417 457.721 657.13 571.237 672.152C673.604 685.689 711.263 696.698 748.424 657.458C749.073 656.773 750.234 657.03 751.104 656.83C764.642 665.298 777.504 674.479 789.661 684.346C789.675 684.375 789.689 684.375 789.689 684.375C799.566 692.386 808.988 700.853 817.912 709.721V709.706Z" fill="#00060E"/>
<g style="mix-blend-mode:color-dodge" opacity="0.77">
<path d="M907.06 851.756C907.06 851.756 795.497 592.329 466.235 618.482C248.494 635.774 126.286 826.802 126.286 826.802V826.759C136.061 804.202 147.936 782.744 161.784 762.655C161.784 762.655 161.784 762.655 161.812 762.641C179.292 737.287 199.892 714.103 223.379 693.543C223.379 693.543 223.392 693.543 223.42 693.529C295.259 630.609 393.954 592.329 511.799 592.329C629.644 592.329 718.37 626.9 789.187 684.355C789.201 684.369 789.215 684.369 789.215 684.369C817.202 707.055 883.533 771.515 907.06 851.756Z" fill="#00327B"/>
</g>
<path opacity="0.21" d="M463.149 826.454C388.434 814.631 192.387 844.686 161.515 762.509C179.003 737.257 199.611 714.18 223.107 693.689C223.107 693.689 223.121 693.689 223.149 693.661C224.641 692.353 226.146 691.06 227.666 689.795C233.232 703.537 254.559 740.995 326.041 761.414C414.707 786.751 537.863 762.253 564.95 791.824C592.037 821.381 537.863 838.277 463.149 826.454Z" fill="#00060E"/>
<path style="mix-blend-mode:color-dodge" opacity="0.29" d="M762.068 669.515C711.712 634.781 608.18 597.851 453.56 622.623C298.94 647.382 307.409 694.573 322.108 712.51C338.991 733.116 427.823 752.053 463.756 723.37C499.689 694.687 548.885 723.113 590.11 736.27C780.788 797.089 812.411 704.262 762.068 669.515Z" fill="url(#paint2_linear_2089_495)"/>
<path style="mix-blend-mode:screen" opacity="0.82" d="M439.259 667.419C477.055 662.729 506.166 645.822 504.281 629.657C502.396 613.492 470.228 604.19 432.432 608.881C394.636 613.571 365.525 630.477 367.41 646.642C369.296 662.808 401.464 672.11 439.259 667.419Z" fill="url(#paint3_linear_2089_495)"/>
<path style="mix-blend-mode:screen" opacity="0.82" d="M313.071 692.02C325.702 686.769 333.204 675.507 329.827 666.865C326.451 658.223 313.475 655.474 300.844 660.725C288.214 665.975 280.712 677.237 284.088 685.879C287.465 694.521 300.441 697.27 313.071 692.02Z" fill="url(#paint4_linear_2089_495)"/>
<path style="mix-blend-mode:screen" opacity="0.82" d="M830.474 756.754C836.23 749.574 832.39 736.497 821.896 727.545C811.402 718.593 798.228 717.157 792.472 724.337C786.715 731.517 790.556 744.595 801.05 753.546C811.544 762.498 824.718 763.934 830.474 756.754Z" fill="url(#paint5_linear_2089_495)"/>
<path style="mix-blend-mode:color-dodge" opacity="0.47" d="M472.098 769.008C472.098 769.008 201.513 827.521 150.011 780.33C153.65 774.378 157.469 768.525 161.454 762.786C161.454 762.786 161.454 762.786 161.482 762.758C175.97 741.89 192.588 722.5 211.213 704.842C211.213 704.842 188.354 742.231 227.9 756.266C267.447 770.301 472.098 769.008 472.098 769.008Z" fill="url(#paint6_linear_2089_495)"/>
</g>
<ellipse cx="346.13" cy="602.682" rx="109.411" ry="26.2168" transform="rotate(-21.0245 346.13 602.682)" fill="url(#paint7_diamond_2089_495)"/>
<ellipse cx="711.713" cy="624.977" rx="59.5377" ry="14.2662" transform="rotate(33.7397 711.713 624.977)" fill="url(#paint8_diamond_2089_495)"/>
<mask id="mask1_2089_495" style="mask-type:alpha" maskUnits="userSpaceOnUse" x="375" y="737" width="294" height="64">
<rect x="375.47" y="737.06" width="293.484" height="63.0992" fill="#D9D9D9"/>
</mask>
<g mask="url(#mask1_2089_495)">
<ellipse cx="521.42" cy="796.367" rx="129.728" ry="31.0849" transform="rotate(0.150955 521.42 796.367)" fill="url(#paint9_diamond_2089_495)"/>
</g>
</g>
<defs>
<radialGradient id="paint0_radial_2089_495" cx="0" cy="0" r="1" gradientUnits="userSpaceOnUse" gradientTransform="translate(512 800) rotate(-90) scale(708.108 725.514)">
<stop offset="0.181452" stop-color="#0C52BA"/>
<stop offset="0.558891" stop-color="#1D44A8"/>
<stop offset="0.721944" stop-color="#202F65"/>
<stop offset="1" stop-color="#101625"/>
</radialGradient>
<radialGradient id="paint1_radial_2089_495" cx="0" cy="0" r="1" gradientUnits="userSpaceOnUse" gradientTransform="translate(515.849 552.827) rotate(90) scale(403.255 508.021)">
<stop stop-color="#48A0FF"/>
<stop offset="0.92" stop-color="#112260"/>
</radialGradient>
<linearGradient id="paint2_linear_2089_495" x1="760.162" y1="652.066" x2="380.195" y2="758.6" gradientUnits="userSpaceOnUse">
<stop stop-color="#0695FF"/>
<stop offset="1" stop-color="#001D3F"/>
</linearGradient>
<linearGradient id="paint3_linear_2089_495" x1="489.127" y1="616.559" x2="370.755" y2="642.13" gradientUnits="userSpaceOnUse">
<stop stop-color="#0695FF"/>
<stop offset="1" stop-color="#001D3F"/>
</linearGradient>
<linearGradient id="paint4_linear_2089_495" x1="351.007" y1="649.612" x2="296.75" y2="680.598" gradientUnits="userSpaceOnUse">
<stop stop-color="#34A9FF"/>
<stop offset="1" stop-color="#001D3F"/>
</linearGradient>
<linearGradient id="paint5_linear_2089_495" x1="767.708" y1="713.351" x2="821.691" y2="744.844" gradientUnits="userSpaceOnUse">
<stop stop-color="#63BDFF"/>
<stop offset="1" stop-color="#001D3F"/>
</linearGradient>
<linearGradient id="paint6_linear_2089_495" x1="557.335" y1="606.47" x2="244.685" y2="785.902" gradientUnits="userSpaceOnUse">
<stop stop-color="#0B97FF"/>
<stop offset="1" stop-color="#001D3F"/>
</linearGradient>
<radialGradient id="paint7_diamond_2089_495" cx="0" cy="0" r="1" gradientUnits="userSpaceOnUse" gradientTransform="translate(346.13 602.682) rotate(90) scale(26.2168 113.643)">
<stop stop-color="#4CCDF5"/>
<stop offset="0.255208" stop-color="#9AE3FF" stop-opacity="0.744792"/>
<stop offset="0.458333" stop-color="#3BC0FA" stop-opacity="0.541667"/>
<stop offset="1" stop-color="#27B1FF" stop-opacity="0"/>
</radialGradient>
<radialGradient id="paint8_diamond_2089_495" cx="0" cy="0" r="1" gradientUnits="userSpaceOnUse" gradientTransform="translate(711.713 624.977) rotate(90) scale(14.2662 61.8407)">
<stop stop-color="#4CCDF5"/>
<stop offset="0.255208" stop-color="#9AE3FF" stop-opacity="0.744792"/>
<stop offset="0.458333" stop-color="#3BC0FA" stop-opacity="0.541667"/>
<stop offset="1" stop-color="#27B1FF" stop-opacity="0"/>
</radialGradient>
<radialGradient id="paint9_diamond_2089_495" cx="0" cy="0" r="1" gradientUnits="userSpaceOnUse" gradientTransform="translate(521.42 796.367) rotate(90) scale(31.0849 134.746)">
<stop stop-color="#4CCDF5"/>
<stop offset="0.255208" stop-color="#9AE3FF" stop-opacity="0.744792"/>
<stop offset="0.458333" stop-color="#3BC0FA" stop-opacity="0.541667"/>
<stop offset="1" stop-color="#27B1FF" stop-opacity="0"/>
</radialGradient>
<clipPath id="clip0_2089_495">
<rect width="1024" height="800" fill="white"/>
</clipPath>
<clipPath id="clip1_2089_495">
<rect width="1233" height="709" fill="white" transform="translate(-87 88)"/>
</clipPath>
</defs>
</svg>
