<svg width="749" height="350" viewBox="0 0 749 350" fill="none" xmlns="http://www.w3.org/2000/svg">
<mask id="mask0_2182_1060" style="mask-type:luminance" maskUnits="userSpaceOnUse" x="190" y="0" width="349" height="350">
<path d="M538.524 184.531C538.599 183.137 538.655 181.776 538.702 180.424C539.149 168.096 538.305 153.615 534.771 137.581C533.223 129.76 530.421 119.427 525.329 107.453C524.131 104.508 522.667 101.296 521.105 98.1407C520.727 97.367 520.34 96.6026 519.967 95.8429C519.813 95.5493 519.659 95.2556 519.51 94.962C519.062 94.1044 518.629 93.2607 518.181 92.4404C515.859 88.0871 513.444 83.9855 510.954 80.1496C510.157 78.8958 509.336 77.6374 508.516 76.4069C508.408 76.2531 508.306 76.1039 508.198 75.9501C507.602 75.0692 507 74.2162 506.403 73.3819C501.475 66.3906 496.351 60.3547 491.292 55.1112C490.34 54.1044 489.357 53.1163 488.382 52.1328C487.962 51.6994 487.538 51.2892 487.128 50.8651C486.718 50.4642 486.331 50.0681 485.92 49.6672C485.734 49.4901 485.557 49.327 485.379 49.1499C485.179 48.9634 484.978 48.763 484.792 48.5766C484.438 48.2363 484.051 47.8961 483.677 47.5465C476.861 41.189 471.158 36.7798 466.351 33.3214C466.22 33.2282 466.081 33.121 465.95 33.0277C466.011 33.0744 466.067 33.121 466.127 33.1676C465.633 32.818 465.143 32.4638 464.673 32.1235C462.7 30.6786 460.332 29.1685 457.916 27.6677C456.601 26.8101 455.31 25.9804 454.149 25.286C451.006 23.3983 446.735 20.9839 443.448 19.3619C443.411 19.348 443.378 19.3247 443.355 19.3153C441.76 18.5183 440.175 17.7306 438.641 17.0175C438.627 17.0175 438.604 16.9942 438.594 16.9942C438.548 16.9709 438.501 16.9569 438.454 16.9336C437.527 16.5001 436.599 16.0667 435.769 15.7031C434.561 15.1625 433.409 14.6824 432.248 14.2023C428.719 12.6782 425.007 11.2333 421.137 9.90029C421.1 9.90029 421.067 9.87698 421.03 9.863C417.981 8.81896 414.838 7.8122 411.537 6.90798C395.04 2.19114 378.101 0.084402 360.77 0.541172C351.855 0.625068 341.48 1.66911 330.383 3.92966L329.152 4.17669H329.106C329.073 4.17669 329.036 4.19067 328.989 4.19999C326.01 4.81989 323.04 5.50039 319.836 6.35799C317.701 6.89866 315.248 7.62576 313.159 8.28295C313.113 8.29693 313.076 8.30626 313.029 8.32024C312.819 8.39015 312.595 8.46007 312.395 8.52066H312.371C308.958 9.61131 307.434 10.0914 304.921 11.0562C304.627 11.1634 304.333 11.2659 304.086 11.3592H304.072C301.293 12.3566 299.367 13.1163 296.929 14.1837C295.367 14.8409 293.819 15.5214 292.257 16.2252C292.163 16.2718 292.07 16.309 291.986 16.3557C289.991 17.2599 288.009 18.22 286.037 19.2175C285.967 19.2547 285.883 19.2874 285.813 19.334C284.088 20.2009 282.386 21.1051 280.675 22.042C279.467 22.7085 278.315 23.3657 277.168 24.0368C276.721 24.2932 276.278 24.5402 275.844 24.8012C264.192 31.6621 255.711 38.4531 250.61 43.0021C250.069 43.4729 249.673 43.8364 249.463 44.0228C247.094 46.097 244.945 48.0918 243.28 49.7325C242.739 50.2592 242.166 50.8371 241.569 51.4197C241.522 51.4663 241.476 51.5129 241.429 51.5595L241.289 51.6994C238.496 54.4913 235.093 58.0196 230.975 62.9695C211.546 85.8639 198.817 112.837 193.492 142.112C193.329 142.946 193.175 143.79 193.021 144.643C192.998 144.75 192.989 144.852 192.961 144.969C192.173 149.495 191.529 154.128 191.236 158.057C191.212 158.304 191.198 158.574 191.175 158.821C190.905 161.963 190.718 165.412 190.601 168.94C190.564 169.504 190.518 170.077 190.494 170.618L190.518 172.403C190.494 173.624 190.494 174.831 190.494 176.025C190.494 178.91 190.555 181.711 190.718 184.232C190.849 186.498 191.035 188.679 191.236 190.823C191.259 191.07 191.282 191.317 191.306 191.564C191.375 192.305 191.445 193.056 191.529 193.783C191.66 195.004 191.8 196.15 191.94 197.255C191.94 197.339 191.963 197.409 191.963 197.488C191.972 197.581 191.986 197.689 191.996 197.782C195.67 227.006 206.65 254.277 224.261 277.87C224.709 278.481 225.152 279.077 225.609 279.679C225.809 279.949 226.01 280.205 226.206 280.476C226.872 281.343 227.52 282.163 228.164 282.937C242.828 301.562 260.369 315.81 278.754 326.153C310.269 344.391 343.373 351.107 373.62 348.492H373.713C373.984 348.478 374.264 348.455 374.548 348.446C375.965 348.362 377.42 348.259 378.936 348.129C379.509 348.082 380.073 348.036 380.647 347.975C381.444 347.905 382.209 347.821 382.945 347.751H383.006C383.934 347.658 384.815 347.551 385.612 347.458C385.65 347.458 385.696 347.458 385.729 347.448C389.189 347.024 391.417 346.661 391.595 346.628C394.527 346.204 396.383 345.878 399.517 345.197C399.694 345.16 399.88 345.127 400.043 345.104H400.067C400.29 345.057 400.514 344.997 400.747 344.95C400.971 344.904 401.181 344.843 401.414 344.796C402.645 344.526 403.937 344.246 405.298 343.915L405.895 343.785L408.17 343.212C408.226 343.202 408.301 343.179 408.357 343.165H408.427C410.726 342.615 413.635 341.748 416.027 340.993C416.064 340.984 416.111 340.97 416.144 340.956C416.367 340.886 416.615 340.816 416.824 340.746C417.272 340.606 417.668 340.476 418.055 340.359C418.163 340.322 418.265 340.289 418.372 340.252C420.848 339.455 422.289 338.975 424.532 338.117C424.732 338.047 424.965 337.963 425.152 337.893C425.189 337.88 425.236 337.856 425.268 337.847C426.793 337.274 428.355 336.672 429.94 336.029C430.574 335.773 431.185 335.512 431.805 335.255C432.519 334.952 433.237 334.659 433.964 334.342C434.729 334.025 435.536 333.661 436.379 333.275C439.489 331.867 442.432 330.427 445.248 328.959C445.318 328.921 445.388 328.889 445.458 328.851C461.19 320.629 472.385 311.797 478.577 306.297C479.117 305.817 479.514 305.463 479.728 305.276C481.36 303.799 482.917 302.359 484.517 300.853C484.988 300.42 485.454 299.986 485.939 299.553C487.795 297.828 490.727 294.841 493.893 291.322C500.02 284.601 505.438 277.591 510.087 270.422C510.814 269.308 511.518 268.217 512.152 267.187C512.656 266.414 513.169 265.556 513.7 264.666C523.86 248.176 529.549 232.753 532.729 220.275C532.999 219.255 533.246 218.257 533.465 217.306C533.503 217.167 533.54 216.975 533.573 216.826C536.449 205.44 537.914 194.766 538.478 185.081C538.478 184.918 538.501 184.755 538.501 184.587L538.51 184.517L538.524 184.531Z" fill="white"/>
</mask>
<g mask="url(#mask0_2182_1060)">
<path d="M538.524 184.531C538.599 183.137 538.655 181.776 538.702 180.425C539.149 168.096 538.305 153.615 534.771 137.581C533.223 129.76 530.421 119.427 525.329 107.453C524.131 104.508 522.667 101.296 521.105 98.1408C520.727 97.3671 520.34 96.6027 519.967 95.8429C519.813 95.5493 519.659 95.2557 519.51 94.962C519.062 94.1044 518.629 93.2608 518.181 92.4405C515.859 88.0872 513.444 83.9856 510.954 80.1497C510.157 78.8959 509.336 77.6374 508.515 76.4069C508.408 76.2531 508.306 76.104 508.198 75.9502C507.602 75.0693 507 74.2163 506.403 73.382C501.475 66.3906 496.351 60.3547 491.292 55.1112C490.34 54.1045 489.357 53.1163 488.382 52.1329C487.962 51.6994 487.538 51.2893 487.128 50.8651C486.718 50.4643 486.331 50.0681 485.92 49.6673C485.734 49.4902 485.557 49.327 485.379 49.1499C485.179 48.9635 484.978 48.7631 484.792 48.5766C484.438 48.2364 484.05 47.8961 483.677 47.5466C476.861 41.1891 471.158 36.7798 466.351 33.3214C466.22 33.2282 466.081 33.121 465.95 33.0278C466.011 33.0744 466.067 33.121 466.127 33.1676C465.633 32.8181 465.143 32.4638 464.672 32.1236C462.7 30.6787 460.332 29.1686 457.916 27.6678C456.601 26.8102 455.31 25.9805 454.149 25.286C451.006 23.3984 446.735 20.984 443.448 19.362C443.411 19.348 443.378 19.3247 443.355 19.3154C441.76 18.5184 440.175 17.7307 438.641 17.0176C438.627 17.0176 438.604 16.9943 438.594 16.9943C438.548 16.971 438.501 16.957 438.454 16.9337C437.526 16.5002 436.599 16.0667 435.769 15.7032C434.561 15.1625 433.409 14.6825 432.248 14.2024C428.719 12.6783 425.007 11.2334 421.137 9.90035C421.1 9.90035 421.067 9.87704 421.03 9.86306C417.981 8.81902 414.838 7.81226 411.537 6.90804C395.04 2.1912 378.101 0.0844631 360.77 0.541233C351.855 0.625129 341.48 1.66917 330.383 3.92972L329.152 4.17675H329.106C329.073 4.17675 329.036 4.19073 328.989 4.20005C326.01 4.81995 323.04 5.50045 319.836 6.35806C317.701 6.89872 315.248 7.62582 313.159 8.28301C313.113 8.297 313.075 8.30632 313.029 8.3203C312.819 8.39021 312.595 8.46013 312.395 8.52072H312.371C308.958 9.61137 307.434 10.0914 304.921 11.0563C304.627 11.1635 304.333 11.266 304.086 11.3592H304.072C301.293 12.3567 299.367 13.1164 296.929 14.1837C295.367 14.8409 293.819 15.5214 292.257 16.2252C292.163 16.2718 292.07 16.3091 291.986 16.3557C289.991 17.2599 288.009 18.2201 286.037 19.2175C285.967 19.2548 285.883 19.2874 285.813 19.334C284.088 20.201 282.386 21.1052 280.675 22.042C279.467 22.7085 278.315 23.3657 277.168 24.0369C276.721 24.2933 276.278 24.5403 275.844 24.8013C264.192 31.6622 255.711 38.4531 250.61 43.0022C250.069 43.4729 249.673 43.8365 249.463 44.0229C247.094 46.097 244.945 48.0919 243.28 49.7325C242.739 50.2592 242.166 50.8372 241.569 51.4198C241.522 51.4664 241.476 51.513 241.429 51.5596L241.289 51.6994C238.496 54.4913 235.093 58.0196 230.975 62.9695C211.546 85.8639 198.817 112.837 193.492 142.112C193.329 142.946 193.175 143.79 193.021 144.643C192.998 144.75 192.989 144.852 192.961 144.969C192.173 149.495 191.529 154.128 191.236 158.057C191.212 158.304 191.198 158.574 191.175 158.821C190.905 161.963 190.718 165.412 190.601 168.94C190.564 169.504 190.518 170.077 190.494 170.618L190.518 172.403C190.494 173.624 190.494 174.831 190.494 176.025C190.494 178.91 190.555 181.711 190.718 184.233C190.849 186.498 191.035 188.679 191.236 190.823C191.259 191.07 191.282 191.317 191.306 191.564C191.375 192.305 191.445 193.056 191.529 193.783C191.66 195.004 191.8 196.15 191.94 197.255C191.94 197.339 191.963 197.409 191.963 197.488C191.972 197.581 191.986 197.689 191.996 197.782C195.67 227.006 206.65 254.277 224.261 277.87C224.709 278.481 225.152 279.077 225.609 279.679C225.809 279.949 226.01 280.205 226.206 280.476C226.872 281.343 227.52 282.163 228.164 282.937C242.828 301.562 260.369 315.81 278.754 326.153C310.269 344.391 343.373 351.107 373.62 348.492H373.713C373.984 348.479 374.264 348.455 374.548 348.446C375.965 348.362 377.42 348.259 378.936 348.129C379.509 348.082 380.073 348.036 380.647 347.975C381.444 347.905 382.209 347.821 382.945 347.751H383.006C383.934 347.658 384.815 347.551 385.612 347.458C385.65 347.458 385.696 347.458 385.729 347.448C389.189 347.024 391.417 346.661 391.595 346.628C394.527 346.204 396.383 345.878 399.516 345.197C399.694 345.16 399.88 345.127 400.043 345.104H400.067C400.29 345.057 400.514 344.997 400.747 344.95C400.971 344.904 401.181 344.843 401.414 344.796C402.645 344.526 403.937 344.246 405.298 343.915L405.895 343.785L408.17 343.212C408.226 343.202 408.301 343.179 408.357 343.165H408.427C410.726 342.615 413.635 341.748 416.027 340.993C416.064 340.984 416.111 340.97 416.144 340.956C416.367 340.886 416.614 340.816 416.824 340.746C417.272 340.606 417.668 340.476 418.055 340.359C418.162 340.322 418.265 340.289 418.372 340.252C420.848 339.455 422.289 338.975 424.532 338.117C424.732 338.047 424.965 337.963 425.152 337.894C425.189 337.88 425.236 337.856 425.268 337.847C426.793 337.274 428.355 336.672 429.94 336.029C430.574 335.773 431.185 335.512 431.805 335.255C432.519 334.953 433.237 334.659 433.964 334.342C434.729 334.025 435.536 333.661 436.379 333.275C439.489 331.867 442.432 330.427 445.248 328.959C445.318 328.921 445.388 328.889 445.458 328.851C461.189 320.63 472.384 311.797 478.577 306.297C479.117 305.817 479.514 305.463 479.728 305.276C481.36 303.799 482.917 302.359 484.517 300.853C484.988 300.42 485.454 299.986 485.939 299.553C487.795 297.828 490.727 294.841 493.893 291.322C500.02 284.601 505.438 277.591 510.087 270.422C510.814 269.308 511.518 268.218 512.152 267.188C512.656 266.414 513.169 265.556 513.7 264.666C523.86 248.176 529.549 232.753 532.729 220.275C532.999 219.255 533.246 218.257 533.465 217.306C533.503 217.167 533.54 216.975 533.573 216.826C536.449 205.44 537.914 194.766 538.478 185.081C538.478 184.918 538.501 184.755 538.501 184.587L538.51 184.517L538.524 184.531Z" fill="url(#paint0_radial_2182_1060)"/>
<g opacity="0.1">
<path d="M-107.818 378.299C-110.564 404.638 -101.822 426.069 -82.5836 441.347C-73.0438 431.848 -64.292 422.349 -56.0438 413.037C-31.9099 385.794 -9.88812 358.35 23.1981 330.893C61.5997 299.031 113.957 269.038 165.101 248.786C189.599 239.087 206.706 236.728 229.218 229.975C258.373 221.226 293.357 205.78 323.357 193.736C380.022 170.995 437.559 146.437 492.266 116.565C552.769 83.5288 606.585 45.8126 657.431 7.19231C653.879 3.89704 649.887 0.848801 645.476 -1.94309C590.499 35.773 534.02 73.9832 472.007 107.066C409.275 140.527 347.444 150.026 287.482 166.726C239.051 180.215 187.65 196.878 137.885 222.163C48.6889 267.481 -20.8454 332.855 -107.818 378.29V378.299ZM454.569 97.0081C379.751 126.232 319.846 128.651 249.901 148.059C203.862 160.83 153.589 179.735 107.578 205.677C55.487 235.032 12.6652 271.107 -39.9296 299.888C-55.8013 308.567 -72.3118 316.365 -88.7476 323.062C-80.5227 308.073 -69.6494 292.184 -56.0251 275.517C-30.7535 244.601 1.75453 213.759 39.1257 184.26C50.2462 186.675 66.9665 184.871 84.7172 180.755C151.085 165.356 226.406 122.559 297.927 94.6823C361.74 69.821 421.422 57.3065 483.309 38.7187C526.378 25.7847 574.044 8.02661 616.232 -14.7979C622.074 -13.064 627.53 -11.0459 632.575 -8.78065C630.243 -6.80908 627.991 -4.82819 625.749 -2.89391C580.861 36.0667 516.605 72.7853 454.573 97.0174V97.0035L454.569 97.0081ZM559.021 -22.9592C506.441 -4.2316 453.855 14.5006 401.26 33.2282C320.648 61.9394 238.1 91.1866 166.393 103.585C162.989 104.172 159.613 104.722 156.233 105.263C260.061 45.0529 378.306 -1.202 481.085 -17.2122C510.04 -21.7147 536.076 -23.5557 559.021 -22.9685V-22.9545V-22.9592ZM381.136 357.917C339.461 380.257 296.052 400.196 252.717 416.766C261.763 403.128 269.857 389.602 279.211 375.95C300.374 345.011 333.05 309.08 383.286 281.259C417.803 262.144 454.676 250.189 489.781 239.003C524.168 228.036 558.555 217.073 592.942 206.106C580.013 219.031 565.945 231.862 550.964 244.479C522.653 249.826 489.273 260.443 460.061 278.066C419.291 302.671 400.719 331.583 381.136 357.908V357.917ZM667.148 105.673C662.584 109.579 657.926 113.447 653.081 117.26C601.843 157.558 531.899 189.434 466.547 218.602C365.661 263.636 264.528 308.767 163.633 348.698C142.492 357.059 120.82 365.458 100.561 376.784C80.297 388.124 61.3853 403.323 58.2893 414.267C54.0556 429.257 79.537 430.333 79.7608 443.598C79.868 449.662 75.0422 456.933 67.8151 464.838C30.7516 469.108 -0.926491 468.651 -26.7576 464.004C-10.2611 449.084 6.84149 434.263 25.59 419.823C88.0277 371.741 167.069 329.224 244.935 292.272C296.43 267.831 348.143 245.598 399.251 220.429C447.845 196.505 489.814 180.518 527.628 146.954C553.193 124.251 567.447 102.116 590.723 79.4272C611.266 59.3945 638.921 39.1895 669.354 21.6551C682.377 43.1979 682.092 71.7693 667.158 105.649L667.148 105.673Z" fill="#1E293B"/>
</g>
</g>
<path d="M538.701 180.429C538.655 181.776 538.599 183.137 538.524 184.535L538.515 184.605C538.515 184.768 538.492 184.932 538.492 185.095C538.3 188.381 538.007 191.783 537.587 195.283C526.807 199.525 515.645 203.724 504.142 207.859C471.704 219.516 436.533 230.66 399.512 240.83C355.175 253.009 312.213 262.68 272.343 269.756C255.58 272.729 239.359 275.232 223.809 277.255C216.959 268.003 211.136 258.192 206.366 247.919C218.2 246.978 230.798 245.607 244.045 243.827C287.403 237.996 337.648 227.709 390.387 213.223C435.237 200.905 476.753 186.95 512.577 172.613C521.534 169.029 530.136 165.416 538.342 161.804C538.837 168.441 538.911 174.668 538.701 180.429Z" fill="url(#paint1_radial_2182_1060)"/>
<g filter="url(#filter0_di_2182_1060)">
<path d="M537.587 195.284C526.807 199.525 515.645 203.724 504.142 207.859C471.704 219.516 436.533 230.66 399.512 240.83C355.175 253.009 312.213 262.68 272.343 269.756C255.58 272.729 239.359 275.232 223.809 277.255C122.681 290.431 49.8871 283.566 41.1167 257.031C31.6608 228.437 93.8187 184.228 193.334 142.951C193.227 143.51 193.124 144.074 193.021 144.647C192.998 144.755 192.989 144.857 192.965 144.974C192.299 148.81 191.734 152.72 191.399 156.211C131.61 184.074 96.3505 211.667 102.389 229.933C107.993 246.894 147.747 252.599 206.366 247.919C218.2 246.978 230.798 245.607 244.045 243.827C287.403 237.996 337.648 227.71 390.387 213.223C435.237 200.905 476.753 186.95 512.577 172.613C521.534 169.029 530.136 165.416 538.342 161.804C606.086 131.979 647.08 101.86 640.548 82.0979C633.904 62 579.332 57.7166 502.244 67.7655C499.563 64.3071 496.849 61.1098 494.136 58.1454C611.182 39.0263 697.782 42.7364 708.054 73.8201C718.074 104.121 647.649 151.974 537.587 195.284Z" fill="#DAE8FF"/>
</g>
<defs>
<filter id="filter0_di_2182_1060" x="0.170166" y="6.45087" width="748.83" height="317.315" filterUnits="userSpaceOnUse" color-interpolation-filters="sRGB">
<feFlood flood-opacity="0" result="BackgroundImageFix"/>
<feColorMatrix in="SourceAlpha" type="matrix" values="0 0 0 0 0 0 0 0 0 0 0 0 0 0 0 0 0 0 127 0" result="hardAlpha"/>
<feOffset/>
<feGaussianBlur stdDeviation="20"/>
<feComposite in2="hardAlpha" operator="out"/>
<feColorMatrix type="matrix" values="0 0 0 0 1 0 0 0 0 1 0 0 0 0 1 0 0 0 0.75 0"/>
<feBlend mode="normal" in2="BackgroundImageFix" result="effect1_dropShadow_2182_1060"/>
<feBlend mode="normal" in="SourceGraphic" in2="effect1_dropShadow_2182_1060" result="shape"/>
<feColorMatrix in="SourceAlpha" type="matrix" values="0 0 0 0 0 0 0 0 0 0 0 0 0 0 0 0 0 0 127 0" result="hardAlpha"/>
<feOffset/>
<feGaussianBlur stdDeviation="35"/>
<feComposite in2="hardAlpha" operator="arithmetic" k2="-1" k3="1"/>
<feColorMatrix type="matrix" values="0 0 0 0 1 0 0 0 0 1 0 0 0 0 1 0 0 0 0.8 0"/>
<feBlend mode="normal" in2="shape" result="effect2_innerShadow_2182_1060"/>
</filter>
<radialGradient id="paint0_radial_2182_1060" cx="0" cy="0" r="1" gradientUnits="userSpaceOnUse" gradientTransform="translate(388.24 197.511) rotate(-45.3693) scale(193.566 193.567)">
<stop stop-color="#2C3D5B"/>
<stop offset="0.73" stop-color="#315D93"/>
<stop offset="0.96" stop-color="#06A5FF"/>
</radialGradient>
<radialGradient id="paint1_radial_2182_1060" cx="0" cy="0" r="1" gradientUnits="userSpaceOnUse" gradientTransform="translate(373.322 208.987) scale(128.703 128.655)">
<stop stop-color="#2C3D5B"/>
<stop offset="0.73" stop-color="#315D93"/>
<stop offset="0.96" stop-color="#06A5FF"/>
</radialGradient>
</defs>
</svg>
