<svg width="119" height="119" viewBox="0 0 119 119" fill="none" xmlns="http://www.w3.org/2000/svg">
<g opacity="0.3">
<mask id="mask0_2349_223" style="mask-type:luminance" maskUnits="userSpaceOnUse" x="0" y="0" width="119" height="119">
<path d="M59.5 7.62939e-06C92.3609 7.62939e-06 119 26.6391 119 59.5C119 92.3609 92.3609 119 59.5 119C26.6391 119 0 92.3609 0 59.5C0 26.6391 26.6391 7.62939e-06 59.5 7.62939e-06Z" fill="white"/>
</mask>
<g mask="url(#mask0_2349_223)">
<path d="M59.4995 7.62939e-06C92.3604 7.62939e-06 119 26.6391 119 59.5C119 92.3609 92.3604 119 59.4995 119C26.6386 119 -0.000488281 92.3609 -0.000488281 59.5C-0.000488281 26.6391 26.6386 7.62939e-06 59.4995 7.62939e-06Z" fill="url(#paint0_linear_2349_223)"/>
<path opacity="0.3" d="M95.8337 94.4041C100.112 93.9164 104.424 93.4453 108.725 92.9188C111.025 89.5326 112.986 85.897 114.56 82.0618C101.243 82.6715 87.8863 82.943 75.1062 86.5509C66.4495 88.995 58.3137 92.9188 50.4328 97.1973C47.0133 99.0539 42.8235 100.761 39.8141 103.244C38.3344 104.469 34.9205 108.875 39.1325 108.747C43.7601 108.603 47.7671 105.738 51.9125 104.014C56.5069 102.102 61.2621 100.6 66.0837 99.3698C75.8378 96.8814 85.8413 95.5458 95.8282 94.3985L95.8337 94.4041ZM65.6791 77.8166C50.5436 84.9105 40.2353 99.2479 26.8068 109.213C24.6842 107.816 22.6558 106.286 20.7382 104.635C25.7427 101.758 30.4979 98.4443 34.9149 94.7311C49.0196 82.8543 59.7325 66.9873 75.3058 57.1113C86.4398 50.0507 99.3917 46.4982 112.211 43.4445C113.635 43.1064 115.076 42.7739 116.522 42.4691C118.13 47.8671 119 53.581 119 59.4999C119 62.9527 118.7 66.3389 118.135 69.6364C113.685 70.1075 109.223 70.5065 104.756 70.828C91.4721 71.7812 77.7332 72.1692 65.6791 77.8166ZM81.8343 30.476C75.7547 32.5764 69.5253 34.76 64.6039 38.9055C58.1973 44.3035 54.739 52.4116 49.0861 58.5966C41.4158 66.9818 30.3649 71.2104 20.4057 76.6915C15.4677 79.4072 10.5518 82.7657 6.63357 86.8336C2.39387 78.6479 -0.00585938 69.3538 -0.00585938 59.4999C-0.00585938 55.8311 0.326667 52.2342 0.964008 48.7483C10.1861 43.0122 18.5602 35.6412 27.1006 28.83C41.0833 17.6848 56.8395 7.56491 73.6043 1.68474C86.5063 4.82157 97.7623 12.1649 105.837 22.1794C97.8344 24.9449 89.8316 27.7104 81.8343 30.4704V30.476ZM13.4725 29.4839C11.2502 30.3928 8.99451 31.2352 6.72225 32.0056C10.5463 24.6789 15.8501 18.2501 22.2401 13.1125C23.4594 17.7291 22.9717 22.645 19.6464 25.8982C17.9339 27.5719 15.6949 28.5806 13.4781 29.4839H13.4725ZM41.8315 116.329C51.3362 109.928 62.7307 106.358 74.1918 106.225C80.8922 106.148 87.6037 107.201 94.2874 107.766C84.5056 114.832 72.4904 118.994 59.4997 118.994C53.3479 118.994 47.4179 118.063 41.8315 116.329Z" fill="url(#paint1_linear_2349_223)"/>
</g>
</g>
<defs>
<linearGradient id="paint0_linear_2349_223" x1="59.4995" y1="119.759" x2="59.4995" y2="-28.5141" gradientUnits="userSpaceOnUse">
<stop stop-color="#06A5FF"/>
<stop offset="0.42" stop-color="#315D93"/>
<stop offset="0.97" stop-color="#0F172A"/>
</linearGradient>
<linearGradient id="paint1_linear_2349_223" x1="31.3403" y1="105.788" x2="78.1433" y2="28.8521" gradientUnits="userSpaceOnUse">
<stop stop-color="#315D93"/>
<stop offset="0.98" stop-color="#1E293B"/>
</linearGradient>
</defs>
</svg>
