<svg width="164" height="129" viewBox="0 0 164 129" fill="none" xmlns="http://www.w3.org/2000/svg">
<g opacity="0.8" clip-path="url(#clip0_2089_664)">
<path d="M34.2194 55.8188C27.8416 81.9904 45.1969 107.541 72.9856 112.892C78.7632 114.004 84.5313 114.154 90.1049 113.46C91.0146 113.346 91.9164 113.214 92.8117 113.056C99.4691 111.893 105.795 109.523 111.459 106.148L111.465 106.15C119.022 101.655 125.395 95.3704 129.781 87.7907C132.028 83.911 133.751 79.6889 134.847 75.1929C135.526 72.4075 135.934 69.6288 136.085 66.8774C137.409 43.8094 120.912 22.9009 96.0806 18.1201C84.5911 15.908 73.1267 17.4946 63.1726 21.9699C61.8679 22.5494 60.5881 23.1808 59.3406 23.8596C56.6985 25.3068 54.1919 26.9685 51.8394 28.819C51.166 29.3492 50.5064 29.8996 49.856 30.4637C48.3813 31.7409 46.9871 33.0984 45.6735 34.5362C40.2292 40.4749 36.1982 47.6989 34.2194 55.8188Z" fill="#56B8FF" fill-opacity="0.31"/>
<path d="M40.7114 57.0689C35.1565 79.8635 50.2724 102.118 74.4755 106.777C79.5076 107.746 84.5314 107.877 89.3859 107.273C90.1781 107.174 90.9636 107.058 91.7434 106.921C97.5418 105.908 103.051 103.844 107.985 100.904L107.99 100.905C114.572 96.9904 120.122 91.5171 123.943 84.9154C125.899 81.5363 127.4 77.859 128.355 73.9431C128.946 71.5171 129.301 69.097 129.433 66.7006C130.586 46.6091 116.218 28.3985 94.5905 24.2345C84.5835 22.3079 74.5983 23.6897 65.9286 27.5876C64.7923 28.0923 63.6777 28.6422 62.5911 29.2335C60.29 30.4939 58.1067 31.9412 56.0578 33.5529C55.4713 34.0147 54.8968 34.4941 54.3304 34.9854C53.0459 36.0978 51.8316 37.2802 50.6875 38.5325C45.9457 43.7049 42.4348 49.9967 40.7114 57.0689Z" fill="#0A327A"/>
<path d="M47.6634 50.9418C41.5018 76.2262 58.2656 100.906 85.107 106.074C87.3239 106.501 89.5377 106.784 91.7434 106.921C97.5418 105.908 103.051 103.844 107.985 100.904L107.99 100.905C111.965 98.541 115.562 95.6109 118.625 92.2038L118.631 92.2048C120.641 89.9699 122.428 87.533 123.943 84.9154C125.899 81.5363 127.4 77.859 128.355 73.9431C128.946 71.5171 129.301 69.097 129.433 66.7006C130.586 46.6091 116.218 28.3985 94.5905 24.2345C90.4535 23.438 86.3203 23.2067 82.2807 23.4859C76.5512 23.881 71.0126 25.3032 65.9286 27.5876C64.7923 28.0923 63.6777 28.6422 62.5911 29.2335C60.29 30.4939 58.1067 31.9412 56.0578 33.5529C52.1523 38.6247 49.2352 44.4921 47.6634 50.9418Z" fill="url(#paint0_radial_2089_664)"/>
<path d="M62.5913 29.2332C66.9831 36.8312 77.0094 52.2714 87.9735 56.2397C98.9415 60.214 98.696 71.0136 109.849 74.341C115.918 76.1509 120.396 81.7643 123.943 84.9152C125.9 81.5361 127.401 77.8588 128.355 73.9429C128.946 71.5169 129.301 69.0968 129.433 66.7004C128.243 66.0196 126.798 65.4438 125.075 64.9581C114.787 62.059 108.437 49.3071 93.9327 45.4678C82.5204 42.4445 70.5254 31.9307 65.9288 27.5874C64.7925 28.0921 63.6779 28.642 62.5913 29.2332Z" fill="#00060E" fill-opacity="0.2"/>
<path d="M50.6876 38.5323C50.9244 44.4015 51.7219 52.821 54.1686 59.6596C58.3946 71.4484 76.0155 81.3214 81.4006 85.7601C84.9837 88.7178 87.4004 99.6144 89.386 107.272C96.0486 106.446 102.389 104.239 107.985 100.904C106.813 100.412 105.661 99.8668 104.608 99.269C98.9856 96.0931 99.5502 83.4924 84.7517 73.4393C69.9532 63.3862 67.8743 58.794 62.4496 52.5057C58.8265 48.3037 55.8832 40.0149 54.3304 34.9852C53.046 36.0976 51.8317 37.28 50.6876 38.5323Z" fill="#00060E" fill-opacity="0.2"/>
<path d="M82.2807 23.4859C92.1468 24.4926 102.562 27.7396 111.488 35.2664C137.8 57.4493 118.625 92.2038 118.625 92.2038L118.631 92.2048C120.641 89.9699 122.428 87.533 123.943 84.9154C125.899 81.5363 127.4 77.859 128.355 73.9431C128.946 71.5171 129.301 69.097 129.433 66.7006C130.586 46.6091 116.218 28.3985 94.5905 24.2345C90.4534 23.438 86.3203 23.2067 82.2807 23.4859Z" fill="#52B6FF" fill-opacity="0.77"/>
<path opacity="0.4" d="M89.6275 27.4764C89.6275 27.4764 106.176 27.979 114.597 35.4292C123.018 42.8793 107.617 60.361 115.488 70.0911C123.359 79.8212 114.964 97.8616 87.5525 77.9094C60.1407 57.9571 65.195 26.441 89.6275 27.4764Z" fill="url(#paint1_linear_2089_664)" fill-opacity="0.8"/>
<path d="M110.171 77.5489C111.765 73.1742 115.664 70.4411 118.88 71.4443C122.095 72.4475 123.409 76.8072 121.815 81.1819C120.221 85.5566 116.322 88.2898 113.106 87.2866C109.891 86.2833 108.577 81.9237 110.171 77.5489Z" fill="white" fill-opacity="0.8"/>
<path d="M109.243 91.2852C109.766 89.8506 111.572 89.1188 113.276 89.6507C114.981 90.1826 115.939 91.7768 115.416 93.2115C114.893 94.6461 113.088 95.3779 111.383 94.8459C109.679 94.314 108.721 92.7198 109.243 91.2852Z" fill="white" fill-opacity="0.8"/>
<path d="M20.9874 40.4222C22.1648 37.8936 25.977 35.0154 45.3759 39.2018C46.6593 39.4797 47.9755 39.7793 49.3246 40.1006C48.2649 41.364 47.2765 42.6925 46.3734 44.0733C46.1364 44.0174 45.8983 43.9664 45.6613 43.9106C31.531 40.7282 26.3887 41.5083 25.4187 42.1579C25.5797 43.2408 28.5186 47.1879 40.8014 54.3297C40.9916 54.4433 41.183 54.552 41.3797 54.6617C52.0468 60.8099 66.4433 67.5275 82.0279 73.6169C96.6316 79.3275 110.949 83.9774 122.752 86.8502C123.772 87.0927 124.771 87.3312 125.747 87.55C139.877 90.7323 145.019 89.9522 145.99 89.3026C145.828 88.2197 142.89 84.2726 130.607 77.1308C129.733 76.624 128.834 76.1122 127.914 75.5964C128.074 75.0475 128.219 74.5006 128.355 73.9419C128.602 72.9274 128.806 71.9098 128.971 70.8999C130.922 71.9683 132.774 73.0225 134.52 74.0617C151.237 84.0017 151.603 88.5106 150.421 91.0383C149.312 93.421 145.86 96.1172 129.202 92.9101C128.198 92.7167 127.14 92.4976 126.032 92.2587C124.05 91.8309 121.978 91.3448 119.837 90.8094C108.153 87.8723 94.298 83.337 80.0875 77.779C64.9024 71.8384 50.9245 65.3708 40.2299 59.3352C39.0761 58.6821 37.9639 58.037 36.8882 57.3988C21.8509 48.4594 20.045 43.9094 20.6935 41.2482C20.7664 40.9492 20.8709 40.6769 20.9874 40.4222Z" fill="url(#paint2_linear_2089_664)"/>
</g>
<defs>
<radialGradient id="paint0_radial_2089_664" cx="0" cy="0" r="1" gradientUnits="userSpaceOnUse" gradientTransform="translate(108.952 94.7415) rotate(-131.815) scale(68.6605 69.0815)">
<stop offset="0.421347" stop-color="#258AC2"/>
<stop offset="1" stop-color="#112260"/>
</radialGradient>
<linearGradient id="paint1_linear_2089_664" x1="88.9581" y1="27.8496" x2="108.438" y2="83.249" gradientUnits="userSpaceOnUse">
<stop stop-color="#112260"/>
<stop offset="1" stop-color="#48A0FF"/>
</linearGradient>
<linearGradient id="paint2_linear_2089_664" x1="50.2859" y1="57.6354" x2="112.741" y2="101.271" gradientUnits="userSpaceOnUse">
<stop stop-color="#0A327A"/>
<stop offset="1" stop-color="#48A0FF"/>
</linearGradient>
<clipPath id="clip0_2089_664">
<rect width="146" height="100" fill="white" transform="matrix(-0.977394 -0.211425 -0.211425 0.977394 163.842 30.8682)"/>
</clipPath>
</defs>
</svg>
