<svg width="1440" height="810" viewBox="0 0 1440 810" fill="none" xmlns="http://www.w3.org/2000/svg">
<path d="M1440 0H0V814H1440V0Z" fill="url(#paint0_radial_1998_290)"/>
<g style="mix-blend-mode:color-dodge" opacity="0.9" clip-path="url(#clip0_1998_290)">
<g style="mix-blend-mode:screen">
<path d="M929.977 760.892C929.977 763.404 932.022 765.45 934.536 765.45C937.05 765.45 939.095 763.404 939.095 760.892C939.095 758.379 937.05 756.334 934.536 756.334C932.022 756.334 929.977 758.379 929.977 760.892Z" fill="#85A5F8"/>
</g>
<g style="mix-blend-mode:color-dodge">
<path d="M932.256 760.892C932.256 762.178 933.308 763.171 934.536 763.171C935.763 763.171 936.815 762.119 936.815 760.892C936.815 759.665 935.763 758.613 934.536 758.613C933.308 758.613 932.256 759.665 932.256 760.892Z" fill="#85A5F8"/>
</g>
<g style="mix-blend-mode:screen">
<path d="M1415.38 118.537C1415.38 123.621 1419.47 127.711 1424.56 127.711C1429.65 127.711 1433.74 123.621 1433.74 118.537C1433.74 113.454 1429.65 109.363 1424.56 109.363C1419.47 109.363 1415.38 113.454 1415.38 118.537Z" fill="#85A5F8"/>
</g>
<g style="mix-blend-mode:color-dodge">
<path d="M1419.94 118.536C1419.94 121.049 1421.99 123.094 1424.5 123.094C1427.01 123.094 1429.06 121.049 1429.06 118.536C1429.06 116.024 1427.01 113.979 1424.5 113.979C1421.99 113.979 1419.94 116.024 1419.94 118.536Z" fill="#85A5F8"/>
</g>
<g style="mix-blend-mode:screen">
<path d="M1191.39 49.2345C1191.39 54.3182 1195.48 58.4085 1200.56 58.4085C1205.65 58.4085 1209.74 54.3182 1209.74 49.2345C1209.74 44.1509 1205.65 40.0605 1200.56 40.0605C1195.48 40.0605 1191.39 44.1509 1191.39 49.2345Z" fill="#85A5F8"/>
</g>
<g style="mix-blend-mode:color-dodge">
<path d="M1195.95 49.2336C1195.95 51.7462 1197.99 53.7913 1200.5 53.7913C1203.02 53.7913 1205.06 51.7462 1205.06 49.2336C1205.06 46.7209 1203.02 44.6758 1200.5 44.6758C1197.99 44.6758 1195.95 46.7209 1195.95 49.2336Z" fill="#85A5F8"/>
</g>
<g style="mix-blend-mode:screen">
<path d="M792.199 413.623C794.556 413.623 796.466 411.713 796.466 409.357C796.466 407.002 794.556 405.092 792.199 405.092C789.842 405.092 787.932 407.002 787.932 409.357C787.932 411.713 789.842 413.623 792.199 413.623Z" fill="#85A5F8"/>
</g>
<g style="mix-blend-mode:color-dodge">
<path d="M790.094 409.357C790.094 410.526 791.029 411.519 792.257 411.519C793.484 411.519 794.419 410.584 794.419 409.357C794.419 408.13 793.484 407.195 792.257 407.195C791.029 407.195 790.094 408.13 790.094 409.357Z" fill="#85A5F8"/>
</g>
<g style="mix-blend-mode:screen">
<path d="M344.554 159.264C345.716 159.264 346.658 158.322 346.658 157.16C346.658 155.998 345.716 155.057 344.554 155.057C343.391 155.057 342.449 155.998 342.449 157.16C342.449 158.322 343.391 159.264 344.554 159.264Z" fill="#85A5F8"/>
</g>
<g style="mix-blend-mode:color-dodge">
<path d="M343.502 157.161C343.502 157.745 343.97 158.213 344.554 158.213C345.139 158.213 345.606 157.745 345.606 157.161C345.606 156.577 345.139 156.109 344.554 156.109C343.97 156.109 343.502 156.577 343.502 157.161Z" fill="#85A5F8"/>
</g>
<g style="mix-blend-mode:screen">
<path d="M77.3001 117.836C81.9813 117.836 85.776 114.043 85.776 109.363C85.776 104.684 81.9813 100.891 77.3001 100.891C72.619 100.891 68.8242 104.684 68.8242 109.363C68.8242 114.043 72.619 117.836 77.3001 117.836Z" fill="#85A5F8"/>
</g>
<g style="mix-blend-mode:color-dodge">
<path d="M73.0332 109.363C73.0332 111.701 74.9038 113.629 77.3004 113.629C79.697 113.629 81.5091 111.759 81.5091 109.363C81.5091 106.968 79.6386 105.098 77.3004 105.098C74.9622 105.098 73.0332 106.968 73.0332 109.363Z" fill="#85A5F8"/>
</g>
<g style="mix-blend-mode:color-dodge">
<path d="M539.092 810.56C539.092 812.313 540.495 813.715 542.248 813.715C544.002 813.715 545.405 812.313 545.405 810.56C545.405 808.807 544.002 807.404 542.248 807.404C540.495 807.404 539.092 808.807 539.092 810.56Z" fill="#85A5F8"/>
</g>
<g style="mix-blend-mode:color-dodge">
<path d="M590.998 532.594C590.998 534.23 592.284 535.515 593.921 535.515C595.558 535.515 596.844 534.23 596.844 532.594C596.844 530.957 595.558 529.672 593.921 529.672C592.284 529.672 590.998 530.957 590.998 532.594Z" fill="#85A5F8"/>
</g>
<g style="mix-blend-mode:color-dodge">
<path d="M78.1758 842.581C78.1758 846.788 81.5661 850.177 85.7749 850.177C89.9836 850.177 93.374 846.788 93.374 842.581C93.374 838.374 89.9836 834.984 85.7749 834.984C81.5661 834.984 78.1758 838.374 78.1758 842.581Z" fill="#85A5F8"/>
</g>
<g style="mix-blend-mode:color-dodge">
<path d="M1285.03 893.184C1285.03 898.618 1289.41 902.942 1294.79 902.942C1300.17 902.942 1304.55 898.56 1304.55 893.184C1304.55 887.808 1300.17 883.426 1294.79 883.426C1289.41 883.426 1285.03 887.808 1285.03 893.184Z" fill="#85A5F8"/>
</g>
<g style="mix-blend-mode:color-dodge">
<path d="M817.393 668.567C817.393 670.379 818.854 671.839 820.666 671.839C822.478 671.839 823.94 670.379 823.94 668.567C823.94 666.756 822.478 665.295 820.666 665.295C818.854 665.295 817.393 666.756 817.393 668.567Z" fill="#85A5F8"/>
</g>
<g style="mix-blend-mode:color-dodge">
<path d="M625.254 845.852C625.254 847.664 626.715 849.125 628.527 849.125C630.339 849.125 631.801 847.664 631.801 845.852C631.801 844.041 630.339 842.58 628.527 842.58C626.715 842.58 625.254 844.041 625.254 845.852Z" fill="#85A5F8"/>
</g>
<g style="mix-blend-mode:color-dodge">
<path d="M1346 757.272C1346 759.084 1347.46 760.544 1349.27 760.544C1351.09 760.544 1352.55 759.084 1352.55 757.272C1352.55 755.461 1351.09 754 1349.27 754C1347.46 754 1346 755.461 1346 757.272Z" fill="#85A5F8"/>
</g>
<g style="mix-blend-mode:color-dodge">
<path d="M374 432.74C374 434.843 375.695 436.479 377.741 436.479C379.787 436.479 381.482 434.785 381.482 432.74C381.482 430.695 379.787 429 377.741 429C375.695 429 374 430.695 374 432.74Z" fill="#85A5F8"/>
</g>
<g style="mix-blend-mode:color-dodge">
<path d="M299.135 605.226C299.135 607.33 300.83 608.966 302.876 608.966C304.922 608.966 306.617 607.271 306.617 605.226C306.617 603.181 304.922 601.486 302.876 601.486C300.83 601.486 299.135 603.181 299.135 605.226Z" fill="#85A5F8"/>
</g>
<g style="mix-blend-mode:color-dodge">
<path d="M381.439 279.988C381.439 282.091 383.135 283.727 385.181 283.727C387.226 283.727 388.922 282.033 388.922 279.988C388.922 277.943 387.226 276.248 385.181 276.248C383.135 276.248 381.439 277.943 381.439 279.988Z" fill="#85A5F8"/>
</g>
<g style="mix-blend-mode:color-dodge">
<path d="M237 519.636C237 520.513 237.701 521.272 238.637 521.272C239.572 521.272 240.273 520.571 240.273 519.636C240.273 518.701 239.572 518 238.637 518C237.701 518 237 518.701 237 519.636Z" fill="#85A5F8"/>
</g>
<g style="mix-blend-mode:color-dodge">
<path d="M70 758.636C70 759.513 70.7014 760.272 71.6367 760.272C72.572 760.272 73.2734 759.571 73.2734 758.636C73.2734 757.701 72.572 757 71.6367 757C70.7014 757 70 757.701 70 758.636Z" fill="#85A5F8"/>
</g>
<g style="mix-blend-mode:color-dodge">
<path d="M96 516.636C96 517.513 96.7014 518.272 97.6367 518.272C98.572 518.272 99.2735 517.571 99.2735 516.636C99.2735 515.701 98.572 515 97.6367 515C96.7014 515 96 515.701 96 516.636Z" fill="#85A5F8"/>
</g>
<g style="mix-blend-mode:color-dodge">
<path d="M1304.61 497.592C1302.51 497.592 1300.87 499.286 1300.87 501.332C1300.87 503.377 1302.57 505.071 1304.61 505.071C1306.66 505.071 1308.35 503.377 1308.35 501.332C1308.35 499.286 1306.66 497.592 1304.61 497.592Z" fill="#85A5F8"/>
</g>
<g style="mix-blend-mode:color-dodge">
<path d="M1204.3 596.051C1202.2 596.051 1200.56 597.745 1200.56 599.79C1200.56 601.836 1202.26 603.53 1204.3 603.53C1206.35 603.53 1208.04 601.836 1208.04 599.79C1208.04 597.745 1206.35 596.051 1204.3 596.051Z" fill="#85A5F8"/>
</g>
<g style="mix-blend-mode:color-dodge">
<path d="M1416.55 294.771C1416.55 298.336 1419.48 301.257 1423.04 301.257C1426.61 301.257 1429.53 298.336 1429.53 294.771C1429.53 291.207 1426.61 288.285 1423.04 288.285C1419.48 288.285 1416.55 291.207 1416.55 294.771Z" fill="#85A5F8"/>
</g>
<g style="mix-blend-mode:color-dodge">
<path d="M1390.6 240.252C1388.49 240.252 1386.86 241.947 1386.86 243.992C1386.86 246.037 1388.55 247.731 1390.6 247.731C1392.64 247.731 1394.34 246.037 1394.34 243.992C1394.34 241.947 1392.64 240.252 1390.6 240.252Z" fill="#85A5F8"/>
</g>
<g style="mix-blend-mode:color-dodge">
<path d="M1074.24 619.365C1073.37 619.365 1072.61 620.066 1072.61 621.001C1072.61 621.936 1073.31 622.638 1074.24 622.638C1075.18 622.638 1075.88 621.936 1075.88 621.001C1075.88 620.066 1075.18 619.365 1074.24 619.365Z" fill="#85A5F8"/>
</g>
<g style="mix-blend-mode:color-dodge">
<path d="M1117.5 601.953C1116.62 601.953 1115.86 602.654 1115.86 603.589C1115.86 604.524 1116.56 605.225 1117.5 605.225C1118.44 605.225 1119.14 604.524 1119.14 603.589C1119.14 602.654 1118.44 601.953 1117.5 601.953Z" fill="#85A5F8"/>
</g>
<g style="mix-blend-mode:color-dodge">
<path d="M1106.8 397.555C1105.93 397.555 1105.17 398.256 1105.17 399.191C1105.17 400.126 1105.87 400.827 1106.8 400.827C1107.74 400.827 1108.44 400.126 1108.44 399.191C1108.44 398.256 1107.74 397.555 1106.8 397.555Z" fill="#85A5F8"/>
</g>
<g style="mix-blend-mode:color-dodge">
<path d="M995.68 126.892C995.68 128.996 997.375 130.632 999.421 130.632C1001.47 130.632 1003.16 128.937 1003.16 126.892C1003.16 124.847 1001.47 123.152 999.421 123.152C997.375 123.152 995.68 124.847 995.68 126.892Z" fill="#85A5F8"/>
</g>
<g style="mix-blend-mode:color-dodge">
<path d="M1019 256.906C1019 257.782 1019.71 258.542 1020.64 258.542C1021.58 258.542 1022.28 257.841 1022.28 256.906C1022.28 255.971 1021.58 255.27 1020.64 255.27C1019.71 255.27 1019 255.971 1019 256.906Z" fill="#85A5F8"/>
</g>
<g style="mix-blend-mode:color-dodge">
<path d="M1001.58 213.665C1001.58 214.542 1002.29 215.302 1003.22 215.302C1004.16 215.302 1004.86 214.6 1004.86 213.665C1004.86 212.731 1004.16 212.029 1003.22 212.029C1002.29 212.029 1001.58 212.731 1001.58 213.665Z" fill="#85A5F8"/>
</g>
<g style="mix-blend-mode:color-dodge">
<path d="M956.982 195.435C956.982 196.311 957.684 197.071 958.619 197.071C959.554 197.071 960.256 196.37 960.256 195.435C960.256 194.5 959.554 193.799 958.619 193.799C957.684 193.799 956.982 194.5 956.982 195.435Z" fill="#85A5F8"/>
</g>
<g style="mix-blend-mode:color-dodge">
<path d="M717.727 136.534C719.794 136.534 721.469 134.86 721.469 132.794C721.469 130.729 719.794 129.055 717.727 129.055C715.661 129.055 713.986 130.729 713.986 132.794C713.986 134.86 715.661 136.534 717.727 136.534Z" fill="#85A5F8"/>
</g>
<g style="mix-blend-mode:color-dodge">
<path d="M768.116 23.3486C770.182 23.3486 771.857 21.6742 771.857 19.6089C771.857 17.5435 770.182 15.8691 768.116 15.8691C766.05 15.8691 764.375 17.5435 764.375 19.6089C764.375 21.6742 766.05 23.3486 768.116 23.3486Z" fill="#85A5F8"/>
</g>
<g style="mix-blend-mode:color-dodge">
<path d="M1433.5 623.924C1433.5 625.151 1434.5 626.144 1435.73 626.144C1436.95 626.144 1437.95 625.151 1437.95 623.924C1437.95 622.697 1436.95 621.703 1435.73 621.703C1434.5 621.703 1433.5 622.697 1433.5 623.924Z" fill="#85A5F8"/>
</g>
</g>
<mask id="mask0_1998_290" style="mask-type:luminance" maskUnits="userSpaceOnUse" x="-1" y="381" width="1441" height="430">
<path d="M1440 381H-1V811H1440V381Z" fill="white"/>
</mask>
<g mask="url(#mask0_1998_290)">
<g style="mix-blend-mode:overlay">
<path d="M719.501 1703.44C1081.52 1703.44 1375 1427.01 1375 1086.01C1375 745.014 1081.52 468.58 719.501 468.58C357.479 468.58 64.002 745.014 64.002 1086.01C64.002 1427.01 357.479 1703.44 719.501 1703.44Z" fill="white" fill-opacity="0.3"/>
</g>
<g style="mix-blend-mode:overlay">
<path d="M719.5 1679C1067.16 1679 1349 1413.5 1349 1086C1349 758.495 1067.16 493 719.5 493C371.837 493 90 758.495 90 1086C90 1413.5 371.837 1679 719.5 1679Z" fill="#BAD1FF" fill-opacity="0.8"/>
</g>
<path d="M1301 1070.99C1301 1374.77 1040.65 1621 719.51 1621C398.367 1621 138 1374.77 138 1070.99C138 991.511 153.712 915.969 183.197 847.745C192.897 825.315 204.076 803.68 216.696 782.961C221.748 774.629 227.049 766.436 232.581 758.403C232.581 758.403 232.581 758.403 232.62 758.363C252.731 729.153 275.8 702.01 301.654 677.293C307.071 672.104 312.603 667.033 318.269 662.062C318.269 662.062 318.288 662.062 318.327 662.022C320.401 660.193 322.495 658.383 324.608 656.613C423.991 572.163 558.967 521 719.51 521C848.454 521 960.976 554.068 1051.79 610.918C1070.62 622.71 1088.5 635.496 1105.4 649.236C1105.42 649.276 1105.44 649.276 1105.44 649.276C1119.17 660.431 1132.27 672.223 1144.68 684.571C1167.48 707.24 1188 731.837 1206.11 758.125C1211.62 766.098 1216.93 774.251 1221.98 782.543C1222.23 782.921 1222.44 783.259 1222.59 783.517C1273.36 867.172 1301 965.621 1301 1070.99Z" fill="url(#paint1_radial_1998_290)"/>
<path opacity="0.21" d="M1145 684.783C1144.94 684.922 1144.87 685.042 1144.81 685.181C1110.47 755.696 897.623 737.903 829.467 722.342C736.292 701.062 681.337 728.279 607.339 741.928C548.156 752.847 552.71 717.281 576.498 712.598C663.159 695.542 644.002 611.418 801.893 632.38C944.278 651.269 996.659 666.631 1048.35 611.877C1049.25 610.92 1050.86 611.279 1052.08 611C1070.91 622.816 1088.8 635.627 1105.7 649.396C1105.72 649.436 1105.74 649.436 1105.74 649.436C1119.48 660.614 1132.59 672.429 1145 684.803V684.783Z" fill="#00060E"/>
<g style="mix-blend-mode:color-dodge" opacity="0.77">
<path d="M1269 883C1269 883 1113.82 521 655.844 557.493C352.983 581.622 183 848.18 183 848.18V848.12C196.597 816.644 213.113 786.702 232.376 758.67C232.376 758.67 232.376 758.67 232.414 758.65C256.728 723.272 285.381 690.921 318.049 662.232C318.049 662.232 318.068 662.232 318.107 662.212C418.03 574.415 555.307 521 719.221 521C883.135 521 1006.55 569.239 1105.05 649.411C1105.07 649.431 1105.09 649.431 1105.09 649.431C1144.01 681.086 1236.27 771.033 1269 883Z" fill="#00327B"/>
</g>
<path opacity="0.21" d="M651.55 847.692C547.628 831.194 274.941 873.132 232 758.463C256.323 723.228 284.989 691.026 317.67 662.433C317.67 662.433 317.689 662.433 317.727 662.393C319.802 660.569 321.897 658.765 324.01 657C331.753 676.174 361.417 728.442 460.844 756.936C584.171 792.291 755.472 758.106 793.148 799.369C830.824 840.613 755.472 864.189 651.55 847.692Z" fill="#00060E"/>
<path style="mix-blend-mode:color-dodge" opacity="0.29" d="M1067.32 628.705C997.281 580.239 853.277 528.706 638.212 563.274C423.146 597.821 434.926 663.671 455.372 688.701C478.853 717.454 602.412 743.877 652.393 703.854C702.374 663.83 770.802 703.495 828.142 721.854C1093.36 806.72 1137.35 677.191 1067.32 628.705Z" fill="url(#paint2_linear_1998_290)"/>
<path style="mix-blend-mode:screen" opacity="0.82" d="M618.32 625.781C670.891 619.236 711.382 595.645 708.76 573.089C706.138 550.532 661.395 537.552 608.823 544.097C556.252 550.642 515.761 574.233 518.383 596.789C521.005 619.346 565.749 632.326 618.32 625.781Z" fill="url(#paint3_linear_1998_290)"/>
<path style="mix-blend-mode:screen" opacity="0.82" d="M442.805 660.106C460.373 652.779 470.808 637.064 466.111 625.005C461.415 612.947 443.366 609.11 425.798 616.437C408.23 623.764 397.795 639.479 402.492 651.537C407.188 663.596 425.237 667.432 442.805 660.106Z" fill="url(#paint4_linear_1998_290)"/>
<path style="mix-blend-mode:screen" opacity="0.82" d="M1162.47 750.436C1170.48 740.417 1165.14 722.168 1150.54 709.677C1135.94 697.186 1117.62 695.182 1109.61 705.201C1101.61 715.22 1106.95 733.468 1121.54 745.959C1136.14 758.45 1154.46 760.455 1162.47 750.436Z" fill="url(#paint5_linear_1998_290)"/>
<path style="mix-blend-mode:color-dodge" opacity="0.47" d="M664 767.536C664 767.536 287.635 849.183 216 783.334C221.062 775.029 226.374 766.862 231.917 758.854C231.917 758.854 231.917 758.854 231.955 758.815C252.106 729.696 275.221 702.639 301.127 678C301.127 678 269.332 730.172 324.338 749.756C379.345 769.34 664 767.536 664 767.536Z" fill="url(#paint6_linear_1998_290)"/>
</g>
<g style="mix-blend-mode:color-dodge">
<ellipse cx="461.836" cy="542.791" rx="202.136" ry="48.4352" transform="rotate(-21.0245 461.836 542.791)" fill="url(#paint7_diamond_1998_290)"/>
</g>
<g style="mix-blend-mode:color-dodge">
<ellipse cx="1125.65" cy="642.868" rx="109.995" ry="26.3567" transform="rotate(33.7397 1125.65 642.868)" fill="url(#paint8_diamond_1998_290)" fill-opacity="0.7"/>
</g>
<g style="mix-blend-mode:color-dodge">
<ellipse cx="705.737" cy="807.968" rx="239.67" ry="57.429" transform="rotate(0.150955 705.737 807.968)" fill="url(#paint9_diamond_1998_290)" fill-opacity="0.9"/>
</g>
<g opacity="0.8" clip-path="url(#clip1_1998_290)">
<path d="M1449.93 433.506C1466.12 499.985 1422.46 564.792 1352.42 578.265C1337.85 581.067 1323.31 581.425 1309.25 579.64C1306.96 579.348 1304.69 579.007 1302.43 578.604C1285.64 575.624 1269.68 569.581 1255.38 560.989L1255.37 560.992C1236.29 549.548 1220.2 533.566 1209.11 514.303C1203.43 504.442 1199.07 493.715 1196.29 482.295C1194.56 475.219 1193.52 468.163 1193.13 461.176C1189.7 402.598 1231.21 349.575 1293.8 337.535C1322.76 331.965 1351.68 336.039 1376.79 347.443C1380.09 348.919 1383.32 350.528 1386.46 352.256C1393.13 355.941 1399.46 360.171 1405.4 364.879C1407.1 366.228 1408.76 367.628 1410.4 369.063C1414.13 372.312 1417.65 375.765 1420.97 379.421C1434.72 394.522 1444.91 412.88 1449.93 433.506Z" fill="#0057FF" fill-opacity="0.2"/>
<path d="M1433.57 436.655C1447.67 494.556 1409.64 551.001 1348.64 562.736C1335.95 565.176 1323.28 565.488 1311.04 563.933C1309.04 563.679 1307.06 563.382 1305.1 563.031C1290.47 560.435 1276.57 555.172 1264.12 547.689L1264.11 547.691C1247.5 537.724 1233.48 523.804 1223.82 507.026C1218.87 498.438 1215.07 489.095 1212.65 479.149C1211.15 472.986 1210.25 466.84 1209.9 460.754C1206.91 409.735 1243.07 363.554 1297.59 353.068C1322.81 348.216 1347.99 351.765 1369.87 361.697C1372.73 362.983 1375.55 364.384 1378.29 365.889C1384.1 369.099 1389.61 372.783 1394.78 376.883C1396.26 378.058 1397.71 379.278 1399.14 380.527C1402.38 383.357 1405.45 386.364 1408.34 389.549C1420.32 402.701 1429.2 418.691 1433.57 436.655Z" fill="#0A327A"/>
<path d="M1416.02 421.07C1431.65 485.295 1389.48 547.893 1321.83 560.907C1316.24 561.982 1310.66 562.691 1305.1 563.031C1290.47 560.435 1276.57 555.172 1264.12 547.689L1264.11 547.691C1254.07 541.672 1245 534.217 1237.26 525.554L1237.24 525.557C1232.17 519.874 1227.65 513.679 1223.82 507.026C1218.87 498.439 1215.07 489.095 1212.65 479.149C1211.15 472.986 1210.25 466.84 1209.9 460.755C1206.91 409.735 1243.07 363.554 1297.59 353.068C1308.01 351.062 1318.43 350.491 1328.62 351.216C1343.07 352.243 1357.04 355.876 1369.87 361.697C1372.73 362.983 1375.55 364.384 1378.29 365.889C1384.1 369.099 1389.61 372.783 1394.78 376.883C1404.65 389.777 1412.03 404.687 1416.02 421.07Z" fill="url(#paint10_radial_1998_290)"/>
<path d="M1378.29 365.888C1367.25 385.163 1342.03 424.327 1314.4 434.359C1286.76 444.406 1287.42 471.829 1259.31 480.233C1244.02 484.804 1232.75 499.039 1223.82 507.025C1218.87 498.437 1215.07 489.094 1212.65 479.147C1211.15 472.985 1210.24 466.839 1209.9 460.753C1212.9 459.03 1216.54 457.573 1220.89 456.347C1246.81 449.027 1262.77 416.674 1299.33 406.984C1328.09 399.353 1358.29 372.705 1369.87 361.696C1372.73 362.982 1375.55 364.383 1378.29 365.888Z" fill="#00060E" fill-opacity="0.25"/>
<path d="M1408.34 389.548C1407.77 404.45 1405.79 425.825 1399.65 443.179C1389.04 473.095 1344.65 498.093 1331.09 509.342C1322.07 516.838 1316.02 544.496 1311.04 563.932C1294.24 561.808 1278.25 556.179 1264.12 547.688C1267.07 546.443 1269.98 545.063 1272.63 543.55C1286.79 535.508 1285.32 503.511 1322.59 478.045C1359.86 452.578 1365.09 440.926 1378.74 424.981C1387.86 414.326 1395.25 393.292 1399.14 380.527C1402.39 383.357 1405.45 386.364 1408.34 389.548Z" fill="#00060E" fill-opacity="0.25"/>
<g style="mix-blend-mode:color-dodge">
<path d="M1328.62 351.216C1303.75 353.733 1277.5 361.936 1255.02 381.011C1188.77 437.231 1237.26 525.554 1237.26 525.554L1237.24 525.557C1232.17 519.874 1227.65 513.679 1223.82 507.026C1218.87 498.438 1215.07 489.095 1212.65 479.149C1211.15 472.986 1210.25 466.84 1209.9 460.754C1206.91 409.735 1243.07 363.554 1297.59 353.068C1308.01 351.062 1318.43 350.491 1328.62 351.216Z" fill="#00327B"/>
</g>
<g style="mix-blend-mode:color-dodge" opacity="0.4">
<path d="M1310.11 361.32C1310.11 361.32 1268.39 362.529 1247.18 381.412C1225.98 400.295 1264.88 444.746 1245.08 469.42C1225.27 494.094 1246.51 539.935 1315.55 489.384C1384.58 438.833 1371.71 358.789 1310.11 361.32Z" fill="url(#paint11_linear_1998_290)" fill-opacity="0.8"/>
</g>
<g style="mix-blend-mode:screen">
<path d="M1258.53 488.364C1254.5 477.253 1244.66 470.307 1236.55 472.849C1228.44 475.391 1225.13 486.458 1229.16 497.568C1233.18 508.679 1243.02 515.625 1251.13 513.083C1259.24 510.541 1262.55 499.474 1258.53 488.364Z" fill="#9CB1FF" fill-opacity="0.7"/>
<path d="M1260.91 523.252C1259.59 519.61 1255.04 517.749 1250.74 519.097C1246.44 520.444 1244.03 524.489 1245.35 528.131C1246.67 531.774 1251.22 533.634 1255.52 532.287C1259.82 530.94 1262.23 526.895 1260.91 523.252Z" fill="#9CB1FF" fill-opacity="0.7"/>
</g>
<path d="M1483.23 394.466C1480.26 388.04 1470.63 380.717 1421.74 391.269C1418.5 391.969 1415.18 392.725 1411.78 393.535C1414.46 396.747 1416.96 400.124 1419.24 403.634C1419.84 403.493 1420.44 403.365 1421.04 403.224C1456.65 395.2 1469.62 397.202 1472.07 398.855C1471.67 401.604 1464.27 411.614 1433.33 429.699C1432.85 429.986 1432.37 430.262 1431.87 430.539C1405 446.108 1368.73 463.107 1329.46 478.506C1292.66 492.947 1256.58 504.696 1226.83 511.943C1224.26 512.555 1221.74 513.156 1219.28 513.708C1183.67 521.732 1170.7 519.73 1168.25 518.077C1168.65 515.328 1176.04 505.317 1206.99 487.233C1209.19 485.95 1211.45 484.654 1213.77 483.347C1213.36 481.953 1213 480.564 1212.65 479.145C1212.02 476.568 1211.5 473.983 1211.09 471.418C1206.17 474.123 1201.51 476.793 1197.11 479.424C1155 504.596 1154.09 516.043 1157.08 522.466C1159.89 528.521 1168.6 535.38 1210.59 527.304C1213.12 526.817 1215.79 526.265 1218.58 525.663C1223.58 524.585 1228.8 523.359 1234.2 522.008C1263.64 514.597 1298.56 503.137 1334.37 489.082C1372.63 474.059 1407.85 457.693 1434.79 442.411C1437.7 440.757 1440.5 439.123 1443.21 437.508C1481.09 414.87 1485.62 403.324 1483.98 396.564C1483.79 395.805 1483.53 395.113 1483.23 394.466Z" fill="url(#paint12_linear_1998_290)"/>
</g>
<g opacity="0.6" clip-path="url(#clip2_1998_290)">
<path d="M103.104 237.828C94.4426 273.424 117.662 308.09 154.97 315.262C162.727 316.753 170.475 316.936 177.964 315.972C179.186 315.815 180.398 315.631 181.601 315.414C190.548 313.809 199.054 310.565 206.674 305.957L206.682 305.959C216.849 299.821 225.432 291.257 231.352 280.939C234.384 275.657 236.714 269.912 238.202 263.797C239.124 260.009 239.682 256.23 239.895 252.49C241.758 221.131 219.673 192.771 186.336 186.363C170.911 183.398 155.505 185.596 142.118 191.715C140.364 192.508 138.642 193.37 136.964 194.298C133.41 196.274 130.037 198.542 126.87 201.066C125.964 201.789 125.076 202.539 124.2 203.308C122.215 205.05 120.337 206.9 118.567 208.859C111.233 216.951 105.792 226.784 103.104 237.828Z" fill="#0057FF" fill-opacity="0.2"/>
<path d="M111.82 239.503C104.276 270.506 124.499 300.7 156.993 306.946C163.749 308.244 170.497 308.404 177.02 307.565C178.084 307.427 179.14 307.268 180.188 307.078C187.98 305.68 195.388 302.855 202.025 298.842L202.032 298.843C210.888 293.498 218.363 286.038 223.519 277.051C226.16 272.451 228.189 267.448 229.485 262.122C230.288 258.822 230.774 255.531 230.96 252.274C232.582 224.961 213.347 200.261 184.312 194.679C170.877 192.097 157.459 194.011 145.8 199.341C144.271 200.031 142.772 200.782 141.31 201.59C138.215 203.311 135.277 205.286 132.519 207.485C131.729 208.114 130.956 208.768 130.193 209.438C128.464 210.955 126.829 212.566 125.287 214.272C118.899 221.32 114.16 229.885 111.82 239.503Z" fill="#0A327A"/>
<path d="M121.18 231.15C112.812 265.54 135.241 299.024 171.277 305.951C174.253 306.523 177.226 306.9 180.188 307.078C187.98 305.68 195.388 302.855 202.025 298.842L202.032 298.843C207.381 295.615 212.222 291.619 216.35 286.977L216.357 286.978C219.066 283.933 221.475 280.615 223.519 277.051C226.16 272.451 228.189 267.448 229.485 262.122C230.288 258.822 230.774 255.531 230.96 252.274C232.582 224.961 213.347 200.261 184.312 194.679C178.758 193.612 173.207 193.312 167.779 193.706C160.082 194.264 152.637 196.217 145.8 199.341C144.271 200.031 142.772 200.782 141.31 201.59C138.215 203.311 135.277 205.286 132.519 207.485C127.255 214.392 123.315 222.378 121.18 231.15Z" fill="url(#paint13_radial_1998_290)"/>
<path d="M141.312 201.59C147.184 211.901 160.596 232.851 175.309 238.206C190.027 243.568 189.659 258.248 204.628 262.73C212.774 265.168 218.768 272.782 223.521 277.051C226.162 272.451 228.191 267.448 229.487 262.122C230.29 258.822 230.776 255.531 230.962 252.274C229.365 251.353 227.426 250.575 225.113 249.921C211.305 246.018 202.821 228.708 183.353 223.543C168.034 219.475 151.96 205.228 145.801 199.341C144.273 200.031 142.774 200.782 141.312 201.59Z" fill="#00060E" fill-opacity="0.2"/>
<path d="M125.288 214.272C125.585 222.248 126.626 233.689 129.887 242.976C135.521 258.984 159.155 272.34 166.372 278.353C171.175 282.36 174.381 297.162 177.021 307.564C185.973 306.417 194.497 303.395 202.026 298.841C200.455 298.176 198.908 297.439 197.496 296.631C189.956 292.334 190.76 275.205 170.918 261.594C151.077 247.984 148.301 241.749 141.037 233.222C136.185 227.524 132.262 216.268 130.194 209.437C128.465 210.954 126.829 212.565 125.288 214.272Z" fill="#00060E" fill-opacity="0.2"/>
<g style="mix-blend-mode:color-dodge">
<path d="M167.779 193.706C181.028 195.039 195.007 199.415 206.969 209.613C242.233 239.669 216.35 286.977 216.35 286.977L216.357 286.978C219.066 283.933 221.475 280.615 223.519 277.051C226.16 272.451 228.189 267.448 229.485 262.122C230.288 258.822 230.774 255.531 230.96 252.274C232.582 224.961 213.347 200.261 184.312 194.679C178.758 193.612 173.207 193.312 167.779 193.706Z" fill="#00327B"/>
</g>
<g style="mix-blend-mode:color-dodge" opacity="0.4">
<path d="M177.635 199.104C177.635 199.104 199.862 199.727 211.147 209.823C222.431 219.919 201.68 243.736 212.218 256.933C222.755 270.13 211.413 294.681 174.665 267.661C137.916 240.641 144.82 197.785 177.635 199.104Z" fill="url(#paint14_linear_1998_290)" fill-opacity="0.8"/>
</g>
<g style="mix-blend-mode:screen">
<path d="M205.036 267.077C207.185 261.129 212.431 257.408 216.752 258.767C221.074 260.125 222.835 266.049 220.686 271.997C218.537 277.946 213.292 281.666 208.97 280.307C204.648 278.949 202.887 273.025 205.036 267.077Z" fill="#273F94" fill-opacity="0.7"/>
<path d="M203.747 285.758C204.451 283.808 206.878 282.811 209.168 283.531C211.458 284.252 212.743 286.416 212.039 288.366C211.335 290.316 208.907 291.313 206.618 290.593C204.328 289.873 203.043 287.708 203.747 285.758Z" fill="#273F94" fill-opacity="0.7"/>
</g>
<path d="M85.3863 216.949C86.977 213.508 92.1082 209.582 118.151 215.202C119.874 215.575 121.64 215.978 123.451 216.41C122.023 218.131 120.691 219.94 119.473 221.82C119.155 221.745 118.835 221.676 118.517 221.601C99.5479 217.327 92.6377 218.406 91.3323 219.292C91.5447 220.764 95.478 226.118 111.951 235.781C112.206 235.935 112.463 236.082 112.727 236.23C127.033 244.548 146.347 253.627 167.259 261.847C186.854 269.556 206.069 275.825 221.913 279.687C223.282 280.013 224.623 280.333 225.933 280.627C244.902 284.901 251.813 283.822 253.118 282.936C252.906 281.465 248.972 276.11 232.499 266.447C231.328 265.762 230.121 265.069 228.887 264.372C229.105 263.625 229.301 262.881 229.486 262.121C229.822 260.741 230.1 259.357 230.324 257.984C232.942 259.429 235.425 260.856 237.767 262.262C260.185 275.712 260.662 281.839 259.064 285.279C257.565 288.522 252.919 292.199 230.555 287.9C229.207 287.641 227.787 287.347 226.3 287.026C223.638 286.452 220.857 285.799 217.983 285.079C202.299 281.129 183.705 275.014 164.637 267.511C144.261 259.492 125.509 250.751 111.165 242.586C109.618 241.703 108.126 240.83 106.683 239.967C86.5171 227.87 84.1078 221.693 84.9886 218.073C85.0875 217.666 85.2289 217.296 85.3863 216.949Z" fill="url(#paint15_linear_1998_290)"/>
</g>
<path d="M375.192 569.174C366.554 576.528 346.172 584.087 333.869 584.499L332.312 572.304L367.772 559.154L375.192 569.174Z" fill="#12304E"/>
<g filter="url(#filter0_d_1998_290)">
<path d="M355.487 576.122C344.229 580.312 333.578 581.3 333.411 581.314L333.349 580.719C333.602 580.695 358.818 578.356 372.505 565.529L372.919 565.968C368.017 570.561 361.658 573.825 355.484 576.123L355.487 576.122Z" fill="#06A5FF"/>
</g>
<g filter="url(#filter1_d_1998_290)">
<path d="M302.436 468.764C313.12 464.81 318.405 452.96 314.241 442.297C310.077 431.634 298.041 426.196 287.357 430.15C276.673 434.105 271.387 445.955 275.551 456.617C279.715 467.28 291.752 472.718 302.436 468.764Z" fill="#06A5FF"/>
</g>
<g filter="url(#filter2_d_1998_290)">
<path d="M324.991 455.547C331.294 453.215 334.412 446.224 331.956 439.934C329.499 433.644 322.399 430.435 316.096 432.768C309.793 435.101 306.675 442.092 309.131 448.382C311.588 454.672 318.689 457.88 324.991 455.547Z" fill="#06A5FF"/>
</g>
<path d="M378.63 485.09C382.15 495.408 384.198 507.364 383.789 519.051C383.758 519.927 383.713 520.798 383.656 521.671C382.26 542.385 372.842 561.805 349.805 569.197C328.704 575.968 309.277 571.437 293.318 554.938C292.583 554.18 291.856 553.394 291.138 552.583C283.265 543.724 276.295 531.819 270.452 516.791C269.794 515.366 269.12 513.623 268.498 511.622C268.334 511.089 268.169 510.537 268.011 509.969C263.192 492.588 262.871 459.398 302.209 445.746C348.513 429.677 370.138 460.187 378.63 485.09Z" fill="#EAEAEA"/>
<path d="M378.63 485.09C382.15 495.408 384.198 507.364 383.789 519.051C383.758 519.927 383.713 520.798 383.656 521.671C382.26 542.385 372.842 561.805 349.805 569.197C328.704 575.968 309.277 571.437 293.318 554.938C292.583 554.18 291.856 553.394 291.138 552.583C283.265 543.724 276.295 531.819 270.452 516.791C269.794 515.366 269.12 513.623 268.498 511.622C268.334 511.089 268.169 510.537 268.011 509.969C263.192 492.588 262.871 459.398 302.209 445.746C348.513 429.677 370.138 460.187 378.63 485.09Z" fill="url(#paint16_radial_1998_290)"/>
<path d="M279.645 506.082L280.082 507.517C276.351 509.944 272.426 511.462 268.281 511.954C268.116 511.417 267.951 510.86 267.792 510.288C271.977 509.653 275.926 508.254 279.645 506.082Z" fill="#90A3B9"/>
<path d="M373.687 472.692C369.632 475.248 365.243 476.673 360.466 476.807L359.922 475.408C364.622 474.905 368.973 473.514 372.977 471.23C373.222 471.712 373.457 472.201 373.687 472.692Z" fill="#90A3B9"/>
<path d="M383.868 518.697C383.837 519.583 383.792 520.464 383.735 521.346C356.929 537.484 326.187 548.026 292.922 554.98C292.183 554.215 291.452 553.42 290.73 552.6C326.75 544.761 361.089 534.3 383.868 518.697Z" fill="#90A3B9"/>
<path d="M276.736 462.494C276.411 464.106 278.808 476.765 281.736 481.976L281.067 483.026C281.067 483.026 276.802 474.071 275.774 463.694L276.736 462.494Z" fill="#90A3B9"/>
<path d="M294.945 522.512C294.945 522.512 300.06 540.029 307.671 548.733L309.549 548.713C309.549 548.713 302.451 541.892 296.833 522.51L294.947 522.511L294.945 522.512Z" fill="#90A3B9"/>
<path d="M343.742 553.406C352.039 550.337 356.14 541.13 352.901 532.841C349.662 524.553 340.309 520.322 332.012 523.391C323.715 526.459 319.614 535.666 322.853 543.955C326.092 552.243 335.445 556.475 343.742 553.406Z" fill="#90A3B9"/>
<path d="M343.207 552.023C351.504 548.954 355.605 539.747 352.366 531.459C349.127 523.17 339.774 518.939 331.477 522.008C323.18 525.077 319.079 534.284 322.318 542.572C325.557 550.861 334.909 555.092 343.207 552.023Z" fill="#11304E"/>
<g filter="url(#filter3_d_1998_290)">
<path d="M342.557 550.36C335.193 553.083 326.865 549.313 323.989 541.955C321.113 534.598 324.763 526.399 332.126 523.676C339.489 520.953 347.818 524.723 350.694 532.081C353.57 539.438 349.92 547.637 342.557 550.36ZM332.343 524.232C325.289 526.84 321.79 534.701 324.545 541.75C327.301 548.799 335.285 552.413 342.339 549.804C349.394 547.196 352.893 539.336 350.137 532.286C347.382 525.237 339.398 521.623 332.343 524.232Z" fill="#06A5FF"/>
</g>
<path d="M340.841 538.648C339.838 539.235 338.529 538.902 337.923 537.904C337.317 536.907 337.643 535.615 338.646 535.028C339.648 534.441 340.957 534.775 341.563 535.772C342.17 536.77 341.843 538.061 340.841 538.648ZM338.887 535.426C338.102 535.885 337.847 536.895 338.319 537.672C338.793 538.451 339.814 538.71 340.599 538.251C341.385 537.792 341.639 536.781 341.167 536.005C340.693 535.225 339.672 534.967 338.887 535.426Z" fill="white"/>
<path d="M344.996 538.451C344.745 538.598 344.461 538.703 344.152 538.747C343.521 538.843 342.887 538.689 342.369 538.31C341.856 537.936 341.515 537.39 341.413 536.771C341.393 536.645 341.479 536.53 341.604 536.509C341.731 536.491 341.851 536.577 341.872 536.704C341.955 537.202 342.225 537.64 342.638 537.94C343.056 538.241 343.567 538.367 344.076 538.291C345.124 538.133 345.835 537.162 345.666 536.126C345.485 535.026 344.796 533.917 344.788 533.904C342.753 530.55 338.357 529.432 334.982 531.41C332.209 533.035 330.903 536.315 331.805 539.391C331.841 539.515 331.771 539.639 331.647 539.673C331.523 539.706 331.396 539.635 331.361 539.511C330.4 536.237 331.791 532.74 334.743 531.011C338.336 528.905 343.02 530.097 345.184 533.669C345.212 533.716 345.929 534.865 346.124 536.058C346.284 537.038 345.81 537.971 344.998 538.447L344.996 538.451Z" fill="white"/>
<path d="M343.309 535.045C343.199 535.108 343.057 535.071 342.989 534.963C341.734 532.893 339.02 532.203 336.94 533.423C335.11 534.496 334.364 536.597 335.08 538.652C335.121 538.774 335.06 538.902 334.939 538.944C334.817 538.982 334.685 538.916 334.642 538.798C333.853 536.531 334.68 534.214 336.7 533.03C339.001 531.681 342.003 532.446 343.387 534.732C343.453 534.842 343.418 534.983 343.31 535.048L343.309 535.045Z" fill="white"/>
<path d="M341.411 547.483C339.85 548.06 338.089 547.267 337.483 545.718C336.878 544.17 337.653 542.439 339.214 541.862C340.774 541.285 342.536 542.078 343.142 543.626C343.747 545.174 342.972 546.906 341.411 547.483ZM339.381 542.29C338.06 542.779 337.401 544.244 337.913 545.556C338.426 546.868 339.92 547.538 341.241 547.049C342.563 546.56 343.222 545.095 342.709 543.783C342.196 542.471 340.703 541.802 339.381 542.29Z" fill="white"/>
<path d="M337.381 539.734C337.296 539.785 337.204 539.828 337.108 539.867C336.632 540.053 336.108 540.043 335.634 539.835C335.168 539.631 334.804 539.262 334.614 538.793C334.567 538.673 334.624 538.54 334.741 538.497C334.861 538.453 334.996 538.511 335.041 538.629C335.185 538.98 335.458 539.262 335.811 539.415C336.169 539.57 336.565 539.58 336.928 539.439C337.67 539.152 338.03 538.317 337.733 537.582C337.687 537.462 337.743 537.329 337.86 537.286C337.98 537.241 338.115 537.3 338.16 537.417C338.516 538.294 338.165 539.275 337.373 539.737L337.381 539.734Z" fill="white"/>
<path d="M347.643 537.132C347.495 537.219 347.326 537.278 347.144 537.301C346.797 537.343 346.451 537.248 346.173 537.035C345.895 536.822 345.719 536.518 345.674 536.174C345.656 536.047 345.746 535.934 345.874 535.918C346.002 535.903 346.117 535.994 346.135 536.121C346.163 536.341 346.278 536.537 346.455 536.672C346.634 536.81 346.855 536.872 347.08 536.843C347.54 536.788 347.863 536.375 347.807 535.921C347.529 534.58 346.994 533.515 346.597 532.856C343.786 528.218 337.699 526.67 333.031 529.404C329.133 531.687 327.346 536.304 328.685 540.628C328.939 541.408 329.482 542.048 330.219 542.432C330.965 542.823 331.815 542.9 332.614 542.653C334.257 542.147 335.164 540.412 334.634 538.788C334.593 538.666 334.66 538.536 334.783 538.5C334.906 538.464 335.035 538.531 335.076 538.653C335.681 540.52 334.642 542.512 332.761 543.092C331.841 543.375 330.866 543.287 330.008 542.839C329.162 542.396 328.536 541.659 328.245 540.759C326.842 536.229 328.71 531.397 332.789 529.006C337.678 526.142 344.049 527.764 346.992 532.62C347.412 533.309 347.97 534.429 348.263 535.838C348.265 535.844 348.267 535.849 348.265 535.853C348.337 536.378 348.076 536.87 347.643 537.125L347.643 537.132Z" fill="white"/>
<g filter="url(#filter4_d_1998_290)">
<path d="M366.677 488.364C366.29 496.172 360.925 503.094 348.672 509.5C344.667 511.594 339.925 513.633 334.382 515.631C325.466 518.843 317.842 521.073 311.309 522.25C298.479 524.564 289.875 522.813 284.028 516.456C281.047 513.216 278.781 508.778 277.036 503.075C270.426 481.454 289.028 466.791 307.423 459.98C323.589 453.996 348.492 451.377 359.829 468.92C364.415 476.018 366.976 482.445 366.677 488.364Z" fill="#12304E"/>
</g>
<path d="M305.018 502.733C307.356 500.369 310.241 498.629 314.802 499.095" stroke="#11304E" stroke-width="14" stroke-miterlimit="10" stroke-linecap="round"/>
<path d="M310.143 516.543C310.88 518.431 311.18 520.373 311.09 522.258C298.267 524.57 289.668 522.821 283.824 516.469C285.147 512.828 288.006 509.781 291.948 508.322C299.18 505.645 307.325 509.326 310.143 516.543Z" fill="#06A5FF"/>
<path d="M366.678 488.123C366.291 495.926 360.929 502.844 348.682 509.245C346.946 507.762 345.538 505.848 344.656 503.588C341.837 496.37 345.414 488.35 352.646 485.673C357.552 483.857 362.88 484.968 366.678 488.123Z" fill="#06A5FF"/>
<path d="M374.222 538.862L367.271 542.457C365.465 543.39 363.214 542.531 362.47 540.623C361.842 539.016 362.513 537.219 364.035 536.432L370.986 532.837C372.793 531.904 375.043 532.763 375.788 534.671C376.415 536.278 375.744 538.076 374.222 538.862Z" stroke="#90A3B9" stroke-width="3" stroke-miterlimit="10"/>
<g style="mix-blend-mode:screen">
<path d="M281.967 504.401C281.967 504.401 290.888 524.275 319.086 516.886C319.086 516.886 291.205 531.845 281.967 504.401Z" fill="#06A5FF"/>
</g>
<g style="mix-blend-mode:screen" opacity="0.71">
<path d="M323.67 459.439C323.67 459.439 343.148 455.412 354.261 467.536C354.261 467.536 339.714 460.504 323.67 459.439Z" fill="#06A5FF"/>
</g>
<path d="M274.492 504.833C274.492 504.833 278.752 534.024 318.561 523.035C358.37 512.046 374.813 499.722 366.711 479.73" stroke="#06A5FF" stroke-miterlimit="10"/>
<g filter="url(#filter5_d_1998_290)">
<path d="M311.159 504.758C308.767 505.644 305.952 504.314 304.638 501.672L299.529 491.411C298.006 488.353 299.092 484.797 301.865 483.77L302.83 483.412C305.411 482.456 308.437 484.082 309.593 487.045L313.737 497.664C314.892 500.625 313.737 503.803 311.159 504.758Z" fill="#EAEAEA"/>
</g>
<g filter="url(#filter6_d_1998_290)">
<path d="M335.976 495.495C338.368 494.609 339.565 491.792 338.746 488.968L335.568 477.991C334.621 474.719 331.385 472.764 328.613 473.791L327.647 474.149C325.066 475.105 323.913 478.279 325.069 481.242L329.213 491.861C330.368 494.822 333.398 496.45 335.976 495.495Z" fill="#EAEAEA"/>
</g>
<path d="M280.133 579.22C279.637 580.042 279.127 580.814 278.613 581.532C278.599 581.553 278.584 581.571 278.57 581.592C278.015 582.363 277.454 583.066 276.891 583.693C275.977 584.714 275.064 585.535 274.168 586.114C274.168 586.114 252.908 532.171 278.078 535.035C278.944 535.137 279.752 535.308 280.5 535.548C280.541 535.561 280.584 535.574 280.625 535.59C280.883 535.673 281.137 535.769 281.387 535.873C281.489 535.915 281.588 535.957 281.686 536.004C293.618 541.431 288.004 566.297 280.133 579.22Z" fill="#EAEAEA"/>
<g filter="url(#filter7_d_1998_290)">
<path d="M284.278 546.566C284.995 553.615 284.501 565.225 278.577 581.578C278.024 582.347 277.463 583.05 276.901 583.677C280.799 573.539 284.776 559.506 283.498 546.667C282.919 540.856 281.438 537.225 280.614 535.594L280.609 535.58C280.958 535.67 281.294 535.774 281.623 535.893C281.641 535.931 281.656 535.97 281.674 536.008C282.548 537.946 283.753 541.407 284.278 546.566Z" fill="white"/>
</g>
<path d="M410.952 530.43C411.884 530.723 412.791 530.971 413.665 531.174C413.69 531.181 413.714 531.185 413.739 531.191C414.679 531.408 415.578 531.57 416.426 531.675C417.806 531.847 419.048 531.869 420.113 531.722C420.113 531.722 399.21 477.647 382.351 496.075C381.773 496.712 381.286 497.362 380.89 498.026C380.869 498.062 380.846 498.099 380.826 498.138C380.69 498.367 380.566 498.603 380.449 498.843C380.402 498.94 380.356 499.036 380.315 499.134C375.099 510.912 396.255 525.864 410.952 530.43Z" fill="#EAEAEA"/>
<g filter="url(#filter8_d_1998_290)">
<path d="M385.58 508.706C389.853 514.438 398.142 522.796 413.724 531.186C414.663 531.403 415.561 531.566 416.409 531.671C406.58 526.615 394.035 518.7 386.232 508.277C382.7 503.559 381.33 499.887 380.834 498.135L380.828 498.121C380.629 498.414 380.448 498.709 380.284 499.011C380.296 499.051 380.311 499.09 380.324 499.13C380.993 501.145 382.453 504.51 385.58 508.706Z" fill="white"/>
</g>
<path d="M317.797 504.562L320.844 497.8C321.361 496.653 322.738 496.148 323.914 496.675L330.854 499.778L327.807 506.541C327.29 507.688 325.913 508.192 324.736 507.666L317.797 504.562Z" fill="#06A5FF"/>
<path d="M265.763 497.258L266.651 496.929L275.734 520.21L274.846 520.539C269.364 522.57 263.179 519.773 261.042 514.297L259.702 510.863C257.566 505.386 260.281 499.292 265.764 497.26L265.763 497.258Z" fill="#06A5FF"/>
<path d="M375.188 483.067L374.301 483.396L365.217 460.114L366.105 459.785C371.588 457.754 377.772 460.551 379.909 466.028L381.249 469.462C383.386 474.938 380.67 481.033 375.187 483.064L375.188 483.067Z" fill="#06A5FF"/>
<path d="M365.825 528.058L364.767 528.59C364.374 528.787 363.888 528.599 363.727 528.186L362.002 523.763C361.864 523.409 362.014 523.013 362.351 522.844L363.41 522.312C363.803 522.116 364.289 522.304 364.45 522.717L366.175 527.139C366.313 527.494 366.162 527.889 365.825 528.058Z" fill="#90A3B9"/>
<path d="M369.073 526.531L368.015 527.063C367.622 527.259 367.136 527.071 366.975 526.658L365.25 522.236C365.112 521.881 365.262 521.486 365.599 521.317L366.658 520.785C367.051 520.589 367.537 520.776 367.698 521.189L369.423 525.612C369.561 525.967 369.41 526.362 369.073 526.531Z" fill="#90A3B9"/>
<path d="M372.323 525.002L371.265 525.533C370.872 525.73 370.386 525.542 370.225 525.129L368.5 520.707C368.362 520.352 368.512 519.957 368.849 519.788L369.908 519.256C370.301 519.059 370.787 519.247 370.948 519.66L372.673 524.083C372.811 524.437 372.66 524.832 372.323 525.002Z" fill="#90A3B9"/>
<defs>
<filter id="filter0_d_1998_290" x="322.01" y="554.189" width="62.2484" height="38.4652" filterUnits="userSpaceOnUse" color-interpolation-filters="sRGB">
<feFlood flood-opacity="0" result="BackgroundImageFix"/>
<feColorMatrix in="SourceAlpha" type="matrix" values="0 0 0 0 0 0 0 0 0 0 0 0 0 0 0 0 0 0 127 0" result="hardAlpha"/>
<feOffset/>
<feGaussianBlur stdDeviation="5.67"/>
<feColorMatrix type="matrix" values="0 0 0 0 0.133333 0 0 0 0 0.607843 0 0 0 0 1 0 0 0 1 0"/>
<feBlend mode="normal" in2="BackgroundImageFix" result="effect1_dropShadow_1998_290"/>
<feBlend mode="normal" in="SourceGraphic" in2="effect1_dropShadow_1998_290" result="shape"/>
</filter>
<filter id="filter1_d_1998_290" x="251.129" y="414.859" width="87.5352" height="87.1953" filterUnits="userSpaceOnUse" color-interpolation-filters="sRGB">
<feFlood flood-opacity="0" result="BackgroundImageFix"/>
<feColorMatrix in="SourceAlpha" type="matrix" values="0 0 0 0 0 0 0 0 0 0 0 0 0 0 0 0 0 0 127 0" result="hardAlpha"/>
<feMorphology radius="1" operator="dilate" in="SourceAlpha" result="effect1_dropShadow_1998_290"/>
<feOffset dy="9"/>
<feGaussianBlur stdDeviation="11"/>
<feComposite in2="hardAlpha" operator="out"/>
<feColorMatrix type="matrix" values="0 0 0 0 0.0235294 0 0 0 0 0.647059 0 0 0 0 1 0 0 0 0.7 0"/>
<feBlend mode="normal" in2="BackgroundImageFix" result="effect1_dropShadow_1998_290"/>
<feBlend mode="normal" in="SourceGraphic" in2="effect1_dropShadow_1998_290" result="shape"/>
</filter>
<filter id="filter2_d_1998_290" x="285.293" y="418.008" width="70.502" height="70.3008" filterUnits="userSpaceOnUse" color-interpolation-filters="sRGB">
<feFlood flood-opacity="0" result="BackgroundImageFix"/>
<feColorMatrix in="SourceAlpha" type="matrix" values="0 0 0 0 0 0 0 0 0 0 0 0 0 0 0 0 0 0 127 0" result="hardAlpha"/>
<feMorphology radius="1" operator="dilate" in="SourceAlpha" result="effect1_dropShadow_1998_290"/>
<feOffset dy="9"/>
<feGaussianBlur stdDeviation="11"/>
<feComposite in2="hardAlpha" operator="out"/>
<feColorMatrix type="matrix" values="0 0 0 0 0.0235294 0 0 0 0 0.647059 0 0 0 0 1 0 0 0 0.7 0"/>
<feBlend mode="normal" in2="BackgroundImageFix" result="effect1_dropShadow_1998_290"/>
<feBlend mode="normal" in="SourceGraphic" in2="effect1_dropShadow_1998_290" result="shape"/>
</filter>
<filter id="filter3_d_1998_290" x="317.346" y="517.131" width="39.9919" height="39.7751" filterUnits="userSpaceOnUse" color-interpolation-filters="sRGB">
<feFlood flood-opacity="0" result="BackgroundImageFix"/>
<feColorMatrix in="SourceAlpha" type="matrix" values="0 0 0 0 0 0 0 0 0 0 0 0 0 0 0 0 0 0 127 0" result="hardAlpha"/>
<feOffset/>
<feGaussianBlur stdDeviation="2.83"/>
<feColorMatrix type="matrix" values="0 0 0 0 0.133333 0 0 0 0 0.607843 0 0 0 0 1 0 0 0 1 0"/>
<feBlend mode="normal" in2="BackgroundImageFix" result="effect1_dropShadow_1998_290"/>
<feBlend mode="normal" in="SourceGraphic" in2="effect1_dropShadow_1998_290" result="shape"/>
</filter>
<filter id="filter4_d_1998_290" x="258.672" y="438.463" width="125.029" height="101.762" filterUnits="userSpaceOnUse" color-interpolation-filters="sRGB">
<feFlood flood-opacity="0" result="BackgroundImageFix"/>
<feColorMatrix in="SourceAlpha" type="matrix" values="0 0 0 0 0 0 0 0 0 0 0 0 0 0 0 0 0 0 127 0" result="hardAlpha"/>
<feOffset/>
<feGaussianBlur stdDeviation="8.5"/>
<feColorMatrix type="matrix" values="0 0 0 0 0.133333 0 0 0 0 0.607843 0 0 0 0 1 0 0 0 1 0"/>
<feBlend mode="normal" in2="BackgroundImageFix" result="effect1_dropShadow_1998_290"/>
<feBlend mode="normal" in="SourceGraphic" in2="effect1_dropShadow_1998_290" result="shape"/>
</filter>
<filter id="filter5_d_1998_290" x="293.178" y="477.479" width="26.6677" height="33.2126" filterUnits="userSpaceOnUse" color-interpolation-filters="sRGB">
<feFlood flood-opacity="0" result="BackgroundImageFix"/>
<feColorMatrix in="SourceAlpha" type="matrix" values="0 0 0 0 0 0 0 0 0 0 0 0 0 0 0 0 0 0 127 0" result="hardAlpha"/>
<feOffset/>
<feGaussianBlur stdDeviation="2.83"/>
<feColorMatrix type="matrix" values="0 0 0 0 0.133333 0 0 0 0 0.607843 0 0 0 0 1 0 0 0 1 0"/>
<feBlend mode="normal" in2="BackgroundImageFix" result="effect1_dropShadow_1998_290"/>
<feBlend mode="normal" in="SourceGraphic" in2="effect1_dropShadow_1998_290" result="shape"/>
</filter>
<filter id="filter6_d_1998_290" x="318.961" y="467.856" width="25.7009" height="33.572" filterUnits="userSpaceOnUse" color-interpolation-filters="sRGB">
<feFlood flood-opacity="0" result="BackgroundImageFix"/>
<feColorMatrix in="SourceAlpha" type="matrix" values="0 0 0 0 0 0 0 0 0 0 0 0 0 0 0 0 0 0 127 0" result="hardAlpha"/>
<feOffset/>
<feGaussianBlur stdDeviation="2.83"/>
<feColorMatrix type="matrix" values="0 0 0 0 0.133333 0 0 0 0 0.607843 0 0 0 0 1 0 0 0 1 0"/>
<feBlend mode="normal" in2="BackgroundImageFix" result="effect1_dropShadow_1998_290"/>
<feBlend mode="normal" in="SourceGraphic" in2="effect1_dropShadow_1998_290" result="shape"/>
</filter>
<filter id="filter7_d_1998_290" x="266.32" y="525" width="28.7909" height="69.2577" filterUnits="userSpaceOnUse" color-interpolation-filters="sRGB">
<feFlood flood-opacity="0" result="BackgroundImageFix"/>
<feColorMatrix in="SourceAlpha" type="matrix" values="0 0 0 0 0 0 0 0 0 0 0 0 0 0 0 0 0 0 127 0" result="hardAlpha"/>
<feOffset/>
<feGaussianBlur stdDeviation="5.29"/>
<feColorMatrix type="matrix" values="0 0 0 0 0.133333 0 0 0 0 0.607843 0 0 0 0 1 0 0 0 1 0"/>
<feBlend mode="normal" in2="BackgroundImageFix" result="effect1_dropShadow_1998_290"/>
<feBlend mode="normal" in="SourceGraphic" in2="effect1_dropShadow_1998_290" result="shape"/>
</filter>
<filter id="filter8_d_1998_290" x="369.703" y="487.541" width="57.285" height="54.7108" filterUnits="userSpaceOnUse" color-interpolation-filters="sRGB">
<feFlood flood-opacity="0" result="BackgroundImageFix"/>
<feColorMatrix in="SourceAlpha" type="matrix" values="0 0 0 0 0 0 0 0 0 0 0 0 0 0 0 0 0 0 127 0" result="hardAlpha"/>
<feOffset/>
<feGaussianBlur stdDeviation="5.29"/>
<feColorMatrix type="matrix" values="0 0 0 0 0.133333 0 0 0 0 0.607843 0 0 0 0 1 0 0 0 1 0"/>
<feBlend mode="normal" in2="BackgroundImageFix" result="effect1_dropShadow_1998_290"/>
<feBlend mode="normal" in="SourceGraphic" in2="effect1_dropShadow_1998_290" result="shape"/>
</filter>
<radialGradient id="paint0_radial_1998_290" cx="0" cy="0" r="1" gradientUnits="userSpaceOnUse" gradientTransform="translate(720 814) rotate(-90) scale(720.5 1020.25)">
<stop offset="0.181452" stop-color="#0C52BA"/>
<stop offset="0.558891" stop-color="#1D44A8"/>
<stop offset="0.721944" stop-color="#202F65"/>
<stop offset="1" stop-color="#101625"/>
</radialGradient>
<radialGradient id="paint1_radial_1998_290" cx="0" cy="0" r="1" gradientUnits="userSpaceOnUse" gradientTransform="translate(724.853 465.88) rotate(90) scale(562.696 706.62)">
<stop stop-color="#48A0FF"/>
<stop offset="0.92" stop-color="#112260"/>
</radialGradient>
<linearGradient id="paint2_linear_1998_290" x1="1064.67" y1="604.357" x2="535.92" y2="752.133" gradientUnits="userSpaceOnUse">
<stop stop-color="#0695FF"/>
<stop offset="1" stop-color="#001D3F"/>
</linearGradient>
<linearGradient id="paint3_linear_1998_290" x1="687.681" y1="554.811" x2="522.989" y2="590.275" gradientUnits="userSpaceOnUse">
<stop stop-color="#0695FF"/>
<stop offset="1" stop-color="#001D3F"/>
</linearGradient>
<linearGradient id="paint4_linear_1998_290" x1="495.57" y1="600.93" x2="419.984" y2="643.959" gradientUnits="userSpaceOnUse">
<stop stop-color="#34A9FF"/>
<stop offset="1" stop-color="#001D3F"/>
</linearGradient>
<linearGradient id="paint5_linear_1998_290" x1="1075.17" y1="689.872" x2="1150.38" y2="733.607" gradientUnits="userSpaceOnUse">
<stop stop-color="#63BDFF"/>
<stop offset="1" stop-color="#001D3F"/>
</linearGradient>
<linearGradient id="paint6_linear_1998_290" x1="782.558" y1="540.732" x2="346.996" y2="789.906" gradientUnits="userSpaceOnUse">
<stop stop-color="#0B97FF"/>
<stop offset="1" stop-color="#001D3F"/>
</linearGradient>
<radialGradient id="paint7_diamond_1998_290" cx="0" cy="0" r="1" gradientUnits="userSpaceOnUse" gradientTransform="translate(461.836 542.791) rotate(90) scale(48.4352 209.955)">
<stop stop-color="#CEEDFF"/>
<stop offset="1"/>
</radialGradient>
<radialGradient id="paint8_diamond_1998_290" cx="0" cy="0" r="1" gradientUnits="userSpaceOnUse" gradientTransform="translate(1125.65 642.868) rotate(90) scale(26.3567 114.25)">
<stop stop-color="#CEEDFF"/>
<stop offset="1"/>
</radialGradient>
<radialGradient id="paint9_diamond_1998_290" cx="0" cy="0" r="1" gradientUnits="userSpaceOnUse" gradientTransform="translate(705.737 807.968) rotate(90) scale(57.429 248.941)">
<stop stop-color="#CEEDFF"/>
<stop offset="1"/>
</radialGradient>
<radialGradient id="paint10_radial_1998_290" cx="0" cy="0" r="1" gradientUnits="userSpaceOnUse" gradientTransform="translate(1261.66 532.036) rotate(-48.3943) scale(173.524 175)">
<stop offset="0.421347" stop-color="#48A0FF"/>
<stop offset="1" stop-color="#112260"/>
</radialGradient>
<linearGradient id="paint11_linear_1998_290" x1="1311.8" y1="362.27" x2="1261.94" y2="502.516" gradientUnits="userSpaceOnUse">
<stop stop-color="#112260"/>
<stop offset="1" stop-color="#48A0FF"/>
</linearGradient>
<linearGradient id="paint12_linear_1998_290" x1="1409.43" y1="438.054" x2="1251.53" y2="547.736" gradientUnits="userSpaceOnUse">
<stop stop-color="#0A327A"/>
<stop offset="1" stop-color="#48A0FF"/>
</linearGradient>
<radialGradient id="paint13_radial_1998_290" cx="0" cy="0" r="1" gradientUnits="userSpaceOnUse" gradientTransform="translate(203.348 290.461) rotate(-131.461) scale(92.5917 93.5274)">
<stop offset="0.421347" stop-color="#258AC2"/>
<stop offset="1" stop-color="#112260"/>
</radialGradient>
<linearGradient id="paint14_linear_1998_290" x1="176.734" y1="199.614" x2="203.567" y2="274.532" gradientUnits="userSpaceOnUse">
<stop stop-color="#112260"/>
<stop offset="1" stop-color="#48A0FF"/>
</linearGradient>
<linearGradient id="paint15_linear_1998_290" x1="124.679" y1="240.24" x2="208.952" y2="298.545" gradientUnits="userSpaceOnUse">
<stop stop-color="#0A327A"/>
<stop offset="1" stop-color="#48A0FF"/>
</linearGradient>
<radialGradient id="paint16_radial_1998_290" cx="0" cy="0" r="1" gradientUnits="userSpaceOnUse" gradientTransform="translate(315.934 476.529) rotate(69.1373) scale(24.4254 50.0803)">
<stop stop-color="#06A5FF"/>
<stop offset="0.62" stop-color="#06A5FF" stop-opacity="0.38"/>
<stop offset="1" stop-color="#06A5FF" stop-opacity="0"/>
</radialGradient>
<clipPath id="clip0_1998_290">
<rect width="1836" height="933" fill="white" transform="translate(-248 -30)"/>
</clipPath>
<clipPath id="clip1_1998_290">
<rect width="368" height="254" fill="white" transform="translate(1123 369.633) rotate(-12.2059)"/>
</clipPath>
<clipPath id="clip2_1998_290">
<rect width="196" height="136" fill="white" transform="matrix(-0.977394 -0.211425 -0.211425 0.977394 277.311 203.445)"/>
</clipPath>
</defs>
</svg>
