<svg width="251" height="204" viewBox="0 0 251 204" fill="none" xmlns="http://www.w3.org/2000/svg">
<g clip-path="url(#clip0_2089_676)">
<path d="M197.967 88.8969C208.118 130.783 182.086 171.289 139.821 179.374C131.034 181.055 122.245 181.2 113.739 180.001C112.35 179.804 110.974 179.578 109.607 179.312C99.4411 177.345 89.7608 173.458 81.0731 167.977L81.064 167.979C69.4726 160.679 59.6566 150.542 52.8464 138.369C49.3588 132.139 46.6631 125.37 44.9194 118.174C43.8392 113.717 43.1715 109.274 42.8957 104.879C40.4987 68.0303 65.2991 34.9218 103.066 27.6972C120.541 24.3543 138.04 27.0754 153.284 34.3835C155.282 35.33 157.243 36.359 159.156 37.4632C163.206 39.8169 167.054 42.5109 170.67 45.5038C171.705 46.3612 172.719 47.2509 173.719 48.162C175.988 50.2252 178.135 52.4153 180.161 54.7323C188.556 64.3024 194.818 75.9014 197.967 88.8969Z" fill="#56B8FF" fill-opacity="0.31"/>
<path d="M188.094 90.7863C196.934 127.268 174.261 162.547 137.45 169.589C129.796 171.053 122.142 171.18 114.733 170.135C113.524 169.964 112.325 169.766 111.134 169.535C102.28 167.822 93.8491 164.437 86.2823 159.663L86.2744 159.664C76.1787 153.306 67.6293 144.477 61.6978 133.875C58.6602 128.449 56.3124 122.553 54.7937 116.286C53.8528 112.403 53.2713 108.534 53.031 104.706C50.9434 72.6122 72.5437 43.7757 105.437 37.4833C120.657 34.5717 135.898 36.9417 149.176 43.3069C150.916 44.1312 152.624 45.0274 154.29 45.9891C157.818 48.0392 161.169 50.3856 164.318 52.9922C165.22 53.739 166.103 54.5139 166.974 55.3075C168.95 57.1045 170.82 59.012 172.585 61.03C179.897 69.3653 185.351 79.4676 188.094 90.7863Z" fill="#0A327A"/>
<path d="M177.397 80.8906C187.203 121.357 162.059 160.482 121.235 168.292C117.863 168.937 114.494 169.352 111.134 169.535C102.28 167.822 93.8491 164.437 86.2823 159.663L86.2744 159.664C80.1762 155.824 74.6473 151.088 69.9216 145.598L69.9137 145.6C66.8134 141.999 64.0498 138.079 61.6978 133.875C58.6602 128.448 56.3124 122.553 54.7937 116.286C53.8528 112.403 53.2713 108.534 53.031 104.706C50.9434 72.6122 72.5437 43.7757 105.437 37.4833C111.73 36.2796 118.025 35.9781 124.186 36.4902C132.925 37.215 141.39 39.5764 149.176 43.3069C150.916 44.1312 152.624 45.0274 154.29 45.9891C157.818 48.0392 161.169 50.3856 164.318 52.9922C170.354 61.1531 174.896 70.5681 177.397 80.8906Z" fill="url(#paint0_radial_2089_676)"/>
<path d="M154.289 45.9887C147.721 58.0463 132.693 82.5312 116.048 88.6864C99.3967 94.8511 99.9482 112.096 83.0047 117.225C73.7842 120.015 67.0517 128.903 61.6975 133.875C58.6599 128.448 56.3121 122.553 54.7934 116.286C53.8525 112.403 53.271 108.534 53.0308 104.706C54.8343 103.638 57.0272 102.743 59.6454 101.996C75.2771 97.5363 84.746 77.2828 106.789 71.3918C124.132 66.7526 142.241 50.1648 149.176 43.3064C150.916 44.1308 152.624 45.027 154.289 45.9887Z" fill="#00060E" fill-opacity="0.2"/>
<path d="M172.585 61.0295C172.32 70.3955 171.243 83.8238 167.626 94.7011C161.379 113.452 134.685 128.924 126.55 135.922C121.138 140.585 117.633 157.941 114.733 170.134C104.565 168.706 94.866 165.079 86.2822 159.662C88.0591 158.896 89.8073 158.044 91.4021 157.107C99.9185 152.129 98.8511 132.004 121.241 116.198C143.63 100.391 146.723 93.0941 154.887 83.1442C160.341 76.4954 164.69 63.3111 166.974 55.3069C168.95 57.1039 170.82 59.0115 172.585 61.0295Z" fill="#00060E" fill-opacity="0.2"/>
<path d="M124.186 36.4902C109.166 37.9354 93.3454 42.9481 79.8655 54.8175C40.1268 89.7994 69.9216 145.598 69.9216 145.598L69.9137 145.6C66.8134 141.999 64.0498 138.079 61.6978 133.875C58.6602 128.449 56.3124 122.553 54.7937 116.286C53.8528 112.403 53.2713 108.534 53.031 104.706C50.9434 72.6122 72.5437 43.7757 105.437 37.4833C111.73 36.2796 118.025 35.9781 124.186 36.4902Z" fill="#52B6FF" fill-opacity="0.77"/>
<path opacity="0.4" d="M113.055 42.7402C113.055 42.7402 87.8414 43.2709 75.1289 55.0264C62.4164 66.7819 86.1765 94.9433 74.3399 110.348C62.5033 125.752 75.5945 154.691 117.045 123.288C158.496 91.8852 150.275 41.4883 113.055 42.7402Z" fill="url(#paint1_linear_2089_676)" fill-opacity="0.8"/>
<path d="M82.615 122.285C80.1506 115.292 74.1717 110.904 69.2607 112.483C64.3497 114.063 62.3664 121.013 64.8308 128.006C67.2953 134.999 73.2742 139.387 78.1852 137.807C83.0962 136.227 85.0795 129.278 82.615 122.285Z" fill="white" fill-opacity="0.8"/>
<path d="M84.221 144.259C83.4146 141.97 80.6551 140.792 78.0575 141.628C75.4599 142.464 74.0078 144.997 74.8142 147.286C75.6207 149.575 78.3802 150.753 80.9778 149.917C83.5754 149.081 85.0275 146.548 84.221 144.259Z" fill="white" fill-opacity="0.8"/>
<path d="M217.882 64.5344C216.046 60.4782 210.188 55.8207 180.691 62.1857C178.74 62.6082 176.738 63.0649 174.688 63.5557C176.323 65.5901 177.852 67.7272 179.251 69.9464C179.611 69.861 179.973 69.7836 180.333 69.6982C201.817 64.8498 209.667 66.1797 211.156 67.2326C210.929 68.9587 206.514 75.2118 187.912 86.4116C187.623 86.5899 187.333 86.7602 187.036 86.9321C170.879 96.5724 149.047 107.06 125.395 116.526C103.231 125.403 81.4863 132.591 63.5444 136.984C61.9944 137.354 60.476 137.718 58.9915 138.051C37.5079 142.9 29.6576 141.57 28.1685 140.517C28.3962 138.791 32.8106 132.538 51.4135 121.338C52.7364 120.543 54.0989 119.741 55.4931 118.933C55.2388 118.054 55.0101 117.178 54.7934 116.284C54.3999 114.66 54.0717 113.032 53.8045 111.417C50.8478 113.091 48.0433 114.744 45.399 116.374C20.0845 131.968 19.5996 139.161 21.4434 143.215C23.1729 147.037 28.4782 151.398 53.8132 146.552C55.3408 146.26 56.9497 145.927 58.6339 145.564C61.6482 144.914 64.7976 144.172 68.0524 143.352C85.8116 138.855 106.854 131.842 128.421 123.202C151.467 113.968 172.664 103.872 188.865 94.4121C190.613 93.3883 192.297 92.3767 193.926 91.3756C216.698 77.3512 219.375 70.117 218.343 65.8578C218.227 65.3794 218.063 64.9429 217.882 64.5344Z" fill="url(#paint2_linear_2089_676)"/>
</g>
<defs>
<radialGradient id="paint0_radial_2089_676" cx="0" cy="0" r="1" gradientUnits="userSpaceOnUse" gradientTransform="translate(84.7063 149.808) rotate(-49.5824) scale(106.316 108.54)">
<stop offset="0.421347" stop-color="#258AC2"/>
<stop offset="1" stop-color="#112260"/>
</radialGradient>
<linearGradient id="paint1_linear_2089_676" x1="114.081" y1="43.347" x2="81.3623" y2="129.982" gradientUnits="userSpaceOnUse">
<stop stop-color="#112260"/>
<stop offset="1" stop-color="#48A0FF"/>
</linearGradient>
<linearGradient id="paint2_linear_2089_676" x1="173.51" y1="91.5332" x2="76.6742" y2="156.653" gradientUnits="userSpaceOnUse">
<stop stop-color="#0A327A"/>
<stop offset="1" stop-color="#48A0FF"/>
</linearGradient>
<clipPath id="clip0_2089_676">
<rect width="222" height="160" fill="white" transform="translate(0 46.9363) rotate(-12.2059)"/>
</clipPath>
</defs>
</svg>
