<svg width="1836" height="933" viewBox="0 0 1836 933" fill="none" xmlns="http://www.w3.org/2000/svg">
<g style="mix-blend-mode:color-dodge" opacity="0.9" clip-path="url(#clip0_1988_395)">
<g style="mix-blend-mode:screen">
<path d="M1177.98 790.892C1177.98 793.404 1180.02 795.45 1182.54 795.45C1185.05 795.45 1187.1 793.404 1187.1 790.892C1187.1 788.379 1185.05 786.334 1182.54 786.334C1180.02 786.334 1177.98 788.379 1177.98 790.892Z" fill="#85A5F8"/>
</g>
<g style="mix-blend-mode:color-dodge">
<path d="M1180.26 790.892C1180.26 792.178 1181.31 793.171 1182.54 793.171C1183.76 793.171 1184.82 792.119 1184.82 790.892C1184.82 789.665 1183.76 788.613 1182.54 788.613C1181.31 788.613 1180.26 789.665 1180.26 790.892Z" fill="#85A5F8"/>
</g>
<g style="mix-blend-mode:screen">
<path d="M1663.38 148.537C1663.38 153.621 1667.47 157.711 1672.56 157.711C1677.65 157.711 1681.74 153.621 1681.74 148.537C1681.74 143.454 1677.65 139.363 1672.56 139.363C1667.47 139.363 1663.38 143.454 1663.38 148.537Z" fill="#85A5F8"/>
</g>
<g style="mix-blend-mode:color-dodge">
<path d="M1667.94 148.536C1667.94 151.049 1669.99 153.094 1672.5 153.094C1675.01 153.094 1677.06 151.049 1677.06 148.536C1677.06 146.024 1675.01 143.979 1672.5 143.979C1669.99 143.979 1667.94 146.024 1667.94 148.536Z" fill="#85A5F8"/>
</g>
<g style="mix-blend-mode:screen">
<path d="M1439.39 79.2345C1439.39 84.3182 1443.48 88.4085 1448.56 88.4085C1453.65 88.4085 1457.74 84.3182 1457.74 79.2345C1457.74 74.1509 1453.65 70.0605 1448.56 70.0605C1443.48 70.0605 1439.39 74.1509 1439.39 79.2345Z" fill="#85A5F8"/>
</g>
<g style="mix-blend-mode:color-dodge">
<path d="M1443.95 79.2336C1443.95 81.7462 1445.99 83.7913 1448.5 83.7913C1451.02 83.7913 1453.06 81.7462 1453.06 79.2336C1453.06 76.7209 1451.02 74.6758 1448.5 74.6758C1445.99 74.6758 1443.95 76.7209 1443.95 79.2336Z" fill="#85A5F8"/>
</g>
<g style="mix-blend-mode:screen">
<path d="M1040.2 443.623C1042.56 443.623 1044.47 441.713 1044.47 439.357C1044.47 437.002 1042.56 435.092 1040.2 435.092C1037.84 435.092 1035.93 437.002 1035.93 439.357C1035.93 441.713 1037.84 443.623 1040.2 443.623Z" fill="#85A5F8"/>
</g>
<g style="mix-blend-mode:color-dodge">
<path d="M1038.09 439.357C1038.09 440.526 1039.03 441.519 1040.26 441.519C1041.48 441.519 1042.42 440.584 1042.42 439.357C1042.42 438.13 1041.48 437.195 1040.26 437.195C1039.03 437.195 1038.09 438.13 1038.09 439.357Z" fill="#85A5F8"/>
</g>
<g style="mix-blend-mode:screen">
<path d="M592.554 189.264C593.716 189.264 594.658 188.322 594.658 187.16C594.658 185.998 593.716 185.057 592.554 185.057C591.391 185.057 590.449 185.998 590.449 187.16C590.449 188.322 591.391 189.264 592.554 189.264Z" fill="#85A5F8"/>
</g>
<g style="mix-blend-mode:color-dodge">
<path d="M591.502 187.161C591.502 187.745 591.97 188.213 592.554 188.213C593.139 188.213 593.606 187.745 593.606 187.161C593.606 186.577 593.139 186.109 592.554 186.109C591.97 186.109 591.502 186.577 591.502 187.161Z" fill="#85A5F8"/>
</g>
<g style="mix-blend-mode:screen">
<path d="M325.3 147.836C329.981 147.836 333.776 144.043 333.776 139.363C333.776 134.684 329.981 130.891 325.3 130.891C320.619 130.891 316.824 134.684 316.824 139.363C316.824 144.043 320.619 147.836 325.3 147.836Z" fill="#85A5F8"/>
</g>
<g style="mix-blend-mode:color-dodge">
<path d="M321.033 139.363C321.033 141.701 322.904 143.629 325.3 143.629C327.697 143.629 329.509 141.759 329.509 139.363C329.509 136.968 327.639 135.098 325.3 135.098C322.962 135.098 321.033 136.968 321.033 139.363Z" fill="#85A5F8"/>
</g>
<g style="mix-blend-mode:screen">
<path d="M0 369.121C0 373.796 3.79955 377.594 8.47592 377.594C13.1523 377.594 16.9518 373.796 16.9518 369.121C16.9518 364.447 13.1523 360.648 8.47592 360.648C3.79955 360.648 0 364.447 0 369.121Z" fill="#85A5F8"/>
</g>
<g style="mix-blend-mode:color-dodge">
<path d="M4.26758 369.121C4.26758 371.458 6.13812 373.387 8.53476 373.387C10.9314 373.387 12.7435 371.517 12.7435 369.121C12.7435 366.725 10.8729 364.855 8.53476 364.855C6.19658 364.855 4.26758 366.725 4.26758 369.121Z" fill="#85A5F8"/>
</g>
<g style="mix-blend-mode:color-dodge">
<path d="M787.092 840.56C787.092 842.313 788.495 843.715 790.248 843.715C792.002 843.715 793.405 842.313 793.405 840.56C793.405 838.807 792.002 837.404 790.248 837.404C788.495 837.404 787.092 838.807 787.092 840.56Z" fill="#85A5F8"/>
</g>
<g style="mix-blend-mode:color-dodge">
<path d="M838.998 562.594C838.998 564.23 840.284 565.515 841.921 565.515C843.558 565.515 844.844 564.23 844.844 562.594C844.844 560.957 843.558 559.672 841.921 559.672C840.284 559.672 838.998 560.957 838.998 562.594Z" fill="#85A5F8"/>
</g>
<g style="mix-blend-mode:color-dodge">
<path d="M543.395 3.73971C543.395 5.8433 545.09 7.47943 547.136 7.47943C549.182 7.47943 550.877 5.78487 550.877 3.73971C550.877 1.69456 549.182 0 547.136 0C545.09 0 543.395 1.69456 543.395 3.73971Z" fill="#85A5F8"/>
</g>
<g style="mix-blend-mode:color-dodge">
<path d="M326.176 872.581C326.176 876.788 329.566 880.177 333.775 880.177C337.984 880.177 341.374 876.788 341.374 872.581C341.374 868.374 337.984 864.984 333.775 864.984C329.566 864.984 326.176 868.374 326.176 872.581Z" fill="#85A5F8"/>
</g>
<g style="mix-blend-mode:color-dodge">
<path d="M1820.86 709.786C1820.86 713.993 1824.25 717.382 1828.46 717.382C1832.67 717.382 1836.06 713.993 1836.06 709.786C1836.06 705.579 1832.67 702.189 1828.46 702.189C1824.25 702.189 1820.86 705.579 1820.86 709.786Z" fill="#85A5F8"/>
</g>
<g style="mix-blend-mode:color-dodge">
<path d="M1533.03 923.184C1533.03 928.618 1537.41 932.942 1542.79 932.942C1548.17 932.942 1552.55 928.56 1552.55 923.184C1552.55 917.808 1548.17 913.426 1542.79 913.426C1537.41 913.426 1533.03 917.808 1533.03 923.184Z" fill="#85A5F8"/>
</g>
<g style="mix-blend-mode:color-dodge">
<path d="M1688.7 801.935C1688.7 805.5 1691.62 808.421 1695.18 808.421C1698.75 808.421 1701.67 805.5 1701.67 801.935C1701.67 798.371 1698.75 795.449 1695.18 795.449C1691.62 795.449 1688.7 798.371 1688.7 801.935Z" fill="#85A5F8"/>
</g>
<g style="mix-blend-mode:color-dodge">
<path d="M1065.39 698.567C1065.39 700.379 1066.85 701.839 1068.67 701.839C1070.48 701.839 1071.94 700.379 1071.94 698.567C1071.94 696.756 1070.48 695.295 1068.67 695.295C1066.85 695.295 1065.39 696.756 1065.39 698.567Z" fill="#85A5F8"/>
</g>
<g style="mix-blend-mode:color-dodge">
<path d="M873.254 875.852C873.254 877.664 874.715 879.125 876.527 879.125C878.339 879.125 879.801 877.664 879.801 875.852C879.801 874.041 878.339 872.58 876.527 872.58C874.715 872.58 873.254 874.041 873.254 875.852Z" fill="#85A5F8"/>
</g>
<g style="mix-blend-mode:color-dodge">
<path d="M1594 787.272C1594 789.084 1595.46 790.544 1597.27 790.544C1599.09 790.544 1600.55 789.084 1600.55 787.272C1600.55 785.461 1599.09 784 1597.27 784C1595.46 784 1594 785.461 1594 787.272Z" fill="#85A5F8"/>
</g>
<g style="mix-blend-mode:color-dodge">
<path d="M622 462.74C622 464.843 623.695 466.479 625.741 466.479C627.787 466.479 629.482 464.785 629.482 462.74C629.482 460.695 627.787 459 625.741 459C623.695 459 622 460.695 622 462.74Z" fill="#85A5F8"/>
</g>
<g style="mix-blend-mode:color-dodge">
<path d="M547.135 635.226C547.135 637.33 548.83 638.966 550.876 638.966C552.922 638.966 554.617 637.271 554.617 635.226C554.617 633.181 552.922 631.486 550.876 631.486C548.83 631.486 547.135 633.181 547.135 635.226Z" fill="#85A5F8"/>
</g>
<g style="mix-blend-mode:color-dodge">
<path d="M629.439 309.988C629.439 312.091 631.135 313.727 633.181 313.727C635.226 313.727 636.922 312.033 636.922 309.988C636.922 307.943 635.226 306.248 633.181 306.248C631.135 306.248 629.439 307.943 629.439 309.988Z" fill="#85A5F8"/>
</g>
<g style="mix-blend-mode:color-dodge">
<path d="M485 549.636C485 550.513 485.701 551.272 486.637 551.272C487.572 551.272 488.273 550.571 488.273 549.636C488.273 548.701 487.572 548 486.637 548C485.701 548 485 548.701 485 549.636Z" fill="#85A5F8"/>
</g>
<g style="mix-blend-mode:color-dodge">
<path d="M318 788.636C318 789.513 318.701 790.272 319.637 790.272C320.572 790.272 321.273 789.571 321.273 788.636C321.273 787.701 320.572 787 319.637 787C318.701 787 318 787.701 318 788.636Z" fill="#85A5F8"/>
</g>
<g style="mix-blend-mode:color-dodge">
<path d="M344 546.636C344 547.513 344.701 548.272 345.637 548.272C346.572 548.272 347.273 547.571 347.273 546.636C347.273 545.701 346.572 545 345.637 545C344.701 545 344 545.701 344 546.636Z" fill="#85A5F8"/>
</g>
<g style="mix-blend-mode:color-dodge">
<path d="M1552.61 527.592C1550.51 527.592 1548.87 529.286 1548.87 531.332C1548.87 533.377 1550.57 535.071 1552.61 535.071C1554.66 535.071 1556.35 533.377 1556.35 531.332C1556.35 529.286 1554.66 527.592 1552.61 527.592Z" fill="#85A5F8"/>
</g>
<g style="mix-blend-mode:color-dodge">
<path d="M1452.3 626.051C1450.2 626.051 1448.56 627.745 1448.56 629.79C1448.56 631.836 1450.26 633.53 1452.3 633.53C1454.35 633.53 1456.04 631.836 1456.04 629.79C1456.04 627.745 1454.35 626.051 1452.3 626.051Z" fill="#85A5F8"/>
</g>
<g style="mix-blend-mode:color-dodge">
<path d="M1664.55 324.771C1664.55 328.336 1667.48 331.257 1671.04 331.257C1674.61 331.257 1677.53 328.336 1677.53 324.771C1677.53 321.207 1674.61 318.285 1671.04 318.285C1667.48 318.285 1664.55 321.207 1664.55 324.771Z" fill="#85A5F8"/>
</g>
<g style="mix-blend-mode:color-dodge">
<path d="M1827.06 528.059C1827.06 529.871 1828.52 531.332 1830.33 531.332C1832.14 531.332 1833.6 529.871 1833.6 528.059C1833.6 526.248 1832.14 524.787 1830.33 524.787C1828.52 524.787 1827.06 526.248 1827.06 528.059Z" fill="#85A5F8"/>
</g>
<g style="mix-blend-mode:color-dodge">
<path d="M1715.58 287.666C1713.48 287.666 1711.84 289.361 1711.84 291.406C1711.84 293.451 1713.54 295.145 1715.58 295.145C1717.63 295.145 1719.32 293.451 1719.32 291.406C1719.32 289.361 1717.63 287.666 1715.58 287.666Z" fill="#85A5F8"/>
</g>
<g style="mix-blend-mode:color-dodge">
<path d="M1638.6 270.252C1636.49 270.252 1634.86 271.947 1634.86 273.992C1634.86 276.037 1636.55 277.731 1638.6 277.731C1640.64 277.731 1642.34 276.037 1642.34 273.992C1642.34 271.947 1640.64 270.252 1638.6 270.252Z" fill="#85A5F8"/>
</g>
<g style="mix-blend-mode:color-dodge">
<path d="M1322.24 649.365C1321.37 649.365 1320.61 650.066 1320.61 651.001C1320.61 651.936 1321.31 652.638 1322.24 652.638C1323.18 652.638 1323.88 651.936 1323.88 651.001C1323.88 650.066 1323.18 649.365 1322.24 649.365Z" fill="#85A5F8"/>
</g>
<g style="mix-blend-mode:color-dodge">
<path d="M1365.5 631.953C1364.62 631.953 1363.86 632.654 1363.86 633.589C1363.86 634.524 1364.56 635.225 1365.5 635.225C1366.44 635.225 1367.14 634.524 1367.14 633.589C1367.14 632.654 1366.44 631.953 1365.5 631.953Z" fill="#85A5F8"/>
</g>
<g style="mix-blend-mode:color-dodge">
<path d="M1354.8 427.555C1353.93 427.555 1353.17 428.256 1353.17 429.191C1353.17 430.126 1353.87 430.827 1354.8 430.827C1355.74 430.827 1356.44 430.126 1356.44 429.191C1356.44 428.256 1355.74 427.555 1354.8 427.555Z" fill="#85A5F8"/>
</g>
<g style="mix-blend-mode:color-dodge">
<path d="M1243.68 156.892C1243.68 158.996 1245.37 160.632 1247.42 160.632C1249.47 160.632 1251.16 158.937 1251.16 156.892C1251.16 154.847 1249.47 153.152 1247.42 153.152C1245.37 153.152 1243.68 154.847 1243.68 156.892Z" fill="#85A5F8"/>
</g>
<g style="mix-blend-mode:color-dodge">
<path d="M1267 286.906C1267 287.782 1267.71 288.542 1268.64 288.542C1269.58 288.542 1270.28 287.841 1270.28 286.906C1270.28 285.971 1269.58 285.27 1268.64 285.27C1267.71 285.27 1267 285.971 1267 286.906Z" fill="#85A5F8"/>
</g>
<g style="mix-blend-mode:color-dodge">
<path d="M1249.58 243.665C1249.58 244.542 1250.29 245.302 1251.22 245.302C1252.16 245.302 1252.86 244.6 1252.86 243.665C1252.86 242.731 1252.16 242.029 1251.22 242.029C1250.29 242.029 1249.58 242.731 1249.58 243.665Z" fill="#85A5F8"/>
</g>
<g style="mix-blend-mode:color-dodge">
<path d="M1204.98 225.435C1204.98 226.311 1205.68 227.071 1206.62 227.071C1207.55 227.071 1208.26 226.37 1208.26 225.435C1208.26 224.5 1207.55 223.799 1206.62 223.799C1205.68 223.799 1204.98 224.5 1204.98 225.435Z" fill="#85A5F8"/>
</g>
<g style="mix-blend-mode:color-dodge">
<path d="M965.727 166.534C967.794 166.534 969.469 164.86 969.469 162.794C969.469 160.729 967.794 159.055 965.727 159.055C963.661 159.055 961.986 160.729 961.986 162.794C961.986 164.86 963.661 166.534 965.727 166.534Z" fill="#85A5F8"/>
</g>
<g style="mix-blend-mode:color-dodge">
<path d="M1016.12 53.3486C1018.18 53.3486 1019.86 51.6742 1019.86 49.6089C1019.86 47.5435 1018.18 45.8691 1016.12 45.8691C1014.05 45.8691 1012.38 47.5435 1012.38 49.6089C1012.38 51.6742 1014.05 53.3486 1016.12 53.3486Z" fill="#85A5F8"/>
</g>
<g style="mix-blend-mode:color-dodge">
<path d="M1681.5 653.924C1681.5 655.151 1682.5 656.144 1683.73 656.144C1684.95 656.144 1685.95 655.151 1685.95 653.924C1685.95 652.697 1684.95 651.703 1683.73 651.703C1682.5 651.703 1681.5 652.697 1681.5 653.924Z" fill="#85A5F8"/>
</g>
</g>
<defs>
<clipPath id="clip0_1988_395">
<rect width="1836" height="933" fill="white"/>
</clipPath>
</defs>
</svg>
