<svg width="1440" height="921" viewBox="0 0 1440 921" fill="none" xmlns="http://www.w3.org/2000/svg">
<path d="M1440 79H0V921H1440V79Z" fill="url(#paint0_radial_2690_3906)"/>
<g filter="url(#filter0_f_2690_3906)">
<circle cx="93.5" cy="119.5" r="429.5" fill="#0A3E8C"/>
</g>
<g clip-path="url(#clip0_2690_3906)">
<g filter="url(#filter1_f_2690_3906)">
<ellipse cx="1340" cy="532.5" rx="342" ry="312.5" fill="#24455E"/>
</g>
</g>
<g opacity="0.7">
<mask id="mask0_2690_3906" style="mask-type:luminance" maskUnits="userSpaceOnUse" x="1260" y="509" width="322" height="322">
<path d="M1420.58 509.077C1509.22 509.077 1581.08 580.935 1581.08 669.577C1581.08 758.218 1509.22 830.076 1420.58 830.076C1331.94 830.076 1260.08 758.218 1260.08 669.577C1260.08 580.935 1331.94 509.077 1420.58 509.077Z" fill="white"/>
</mask>
<g mask="url(#mask0_2690_3906)">
<path d="M1420.58 509.077C1509.22 509.077 1581.08 580.935 1581.08 669.577C1581.08 758.218 1509.22 830.076 1420.58 830.076C1331.94 830.076 1260.08 758.218 1260.08 669.577C1260.08 580.935 1331.94 509.077 1420.58 509.077Z" fill="url(#paint1_linear_2690_3906)"/>
<path opacity="0.3" d="M1518.59 763.73C1530.13 762.414 1541.76 761.143 1553.36 759.723C1559.57 750.589 1564.86 740.782 1569.1 730.437C1533.18 732.081 1497.15 732.814 1462.68 742.546C1439.33 749.139 1417.38 759.723 1396.12 771.264C1386.9 776.272 1375.6 780.877 1367.48 787.574C1363.49 790.878 1354.28 802.763 1365.64 802.419C1378.12 802.031 1388.93 794.302 1400.11 789.652C1412.51 784.495 1425.33 780.443 1438.34 777.124C1464.65 770.412 1491.64 766.809 1518.57 763.715L1518.59 763.73ZM1437.25 718.985C1396.42 738.121 1368.61 776.796 1332.39 803.675C1326.67 799.908 1321.19 795.782 1316.02 791.327C1329.52 783.568 1342.35 774.628 1354.26 764.612C1392.31 732.574 1421.21 689.774 1463.22 663.133C1493.25 644.088 1528.19 634.505 1562.77 626.268C1566.61 625.356 1570.49 624.459 1574.4 623.636C1578.73 638.197 1581.08 653.61 1581.08 669.577C1581.08 678.89 1580.27 688.025 1578.75 696.92C1566.74 698.19 1554.71 699.267 1542.66 700.134C1506.82 702.705 1469.76 703.752 1437.25 718.985ZM1480.83 591.285C1464.43 596.951 1447.62 602.841 1434.35 614.024C1417.07 628.585 1407.74 650.456 1392.49 667.14C1371.8 689.759 1341.99 701.165 1315.12 715.95C1301.8 723.276 1288.54 732.335 1277.97 743.308C1266.54 721.228 1260.06 696.157 1260.06 669.577C1260.06 659.68 1260.96 649.978 1262.68 640.574C1287.56 625.101 1310.15 605.218 1333.18 586.845C1370.9 556.782 1413.4 529.483 1458.63 513.622C1493.43 522.083 1523.79 541.892 1545.57 568.906C1523.99 576.366 1502.4 583.825 1480.83 591.27V591.285ZM1296.42 588.609C1290.43 591.061 1284.34 593.333 1278.21 595.411C1288.53 575.648 1302.84 558.306 1320.07 544.448C1323.36 556.901 1322.05 570.161 1313.08 578.937C1308.46 583.452 1302.42 586.173 1296.44 588.609H1296.42ZM1372.92 822.87C1398.56 805.604 1429.3 795.976 1460.21 795.617C1478.29 795.408 1496.39 798.248 1514.42 799.773C1488.03 818.834 1455.62 830.061 1420.58 830.061C1403.99 830.061 1387.99 827.55 1372.92 822.87Z" fill="url(#paint2_linear_2690_3906)"/>
</g>
</g>
<g opacity="0.3">
<mask id="mask1_2690_3906" style="mask-type:luminance" maskUnits="userSpaceOnUse" x="42" y="132" width="216" height="216">
<path d="M149.692 132.331C208.985 132.331 257.052 180.398 257.052 239.692C257.052 298.985 208.985 347.052 149.692 347.052C90.3983 347.052 42.3315 298.985 42.3315 239.692C42.3315 180.398 90.3983 132.331 149.692 132.331Z" fill="white"/>
</mask>
<g mask="url(#mask1_2690_3906)">
<path d="M149.692 132.331C208.985 132.331 257.052 180.398 257.052 239.692C257.052 298.985 208.985 347.052 149.692 347.052C90.3983 347.052 42.3315 298.985 42.3315 239.692C42.3315 180.398 90.3983 132.331 149.692 132.331Z" fill="url(#paint3_linear_2690_3906)"/>
<path opacity="0.3" d="M215.252 302.672C222.972 301.792 230.752 300.942 238.512 299.992C242.662 293.882 246.202 287.322 249.042 280.402C225.012 281.502 200.912 281.992 177.852 288.502C162.232 292.912 147.552 299.992 133.332 307.712C127.162 311.062 119.602 314.142 114.172 318.622C111.502 320.832 105.342 328.782 112.942 328.552C121.292 328.292 128.522 323.122 136.002 320.012C144.292 316.562 152.872 313.852 161.572 311.632C179.172 307.142 197.222 304.732 215.242 302.662L215.252 302.672ZM160.842 272.742C133.532 285.542 114.932 311.412 90.7018 329.392C86.8718 326.872 83.2118 324.111 79.7518 321.132C88.7818 315.941 97.3618 309.962 105.332 303.262C130.782 281.832 150.112 253.202 178.212 235.382C198.302 222.642 221.672 216.232 244.802 210.722C247.372 210.112 249.972 209.512 252.582 208.962C255.482 218.702 257.052 229.012 257.052 239.692C257.052 245.922 256.512 252.032 255.492 257.982C247.462 258.832 239.412 259.551 231.352 260.132C207.382 261.852 182.592 262.551 160.842 272.742ZM189.992 187.322C179.022 191.112 167.782 195.052 158.902 202.532C147.342 212.272 141.102 226.902 130.902 238.062C117.062 253.192 97.1218 260.822 79.1518 270.712C70.2418 275.612 61.3718 281.672 54.3018 289.012C46.6518 274.242 42.3218 257.472 42.3218 239.692C42.3218 233.072 42.9218 226.582 44.0718 220.292C60.7118 209.942 75.8218 196.642 91.2318 184.352C116.462 164.242 144.892 145.982 175.142 135.372C198.422 141.032 218.732 154.282 233.302 172.352C218.862 177.342 204.422 182.332 189.992 187.312V187.322ZM66.6418 185.532C62.6318 187.172 58.5618 188.691 54.4618 190.081C61.3618 176.861 70.9318 165.262 82.4618 155.992C84.6618 164.322 83.7818 173.192 77.7818 179.062C74.6918 182.082 70.6518 183.902 66.6518 185.532H66.6418ZM117.812 342.232C134.962 330.682 155.522 324.242 176.202 324.002C188.292 323.862 200.402 325.762 212.462 326.782C194.812 339.532 173.132 347.042 149.692 347.042C138.592 347.042 127.892 345.362 117.812 342.232Z" fill="url(#paint4_linear_2690_3906)"/>
</g>
</g>
<g clip-path="url(#clip1_2690_3906)">
<g style="mix-blend-mode:screen">
<path d="M929.977 839.891C929.977 842.404 932.022 844.449 934.536 844.449C937.05 844.449 939.095 842.404 939.095 839.891C939.095 837.378 937.05 835.333 934.536 835.333C932.022 835.333 929.977 837.378 929.977 839.891Z" fill="#6579AD"/>
</g>
<g style="mix-blend-mode:color-dodge">
<path d="M932.256 839.891C932.256 841.176 933.309 842.17 934.536 842.17C935.764 842.17 936.816 841.118 936.816 839.891C936.816 838.664 935.764 837.612 934.536 837.612C933.309 837.612 932.256 838.664 932.256 839.891Z" fill="#6579AD"/>
</g>
<g style="mix-blend-mode:screen">
<path d="M1415.38 197.537C1415.38 202.62 1419.48 206.711 1424.56 206.711C1429.65 206.711 1433.74 202.62 1433.74 197.537C1433.74 192.453 1429.65 188.363 1424.56 188.363C1419.48 188.363 1415.38 192.453 1415.38 197.537Z" fill="#6579AD"/>
</g>
<g style="mix-blend-mode:color-dodge">
<path d="M1419.94 197.537C1419.94 200.049 1421.99 202.095 1424.5 202.095C1427.02 202.095 1429.06 200.049 1429.06 197.537C1429.06 195.024 1427.02 192.979 1424.5 192.979C1421.99 192.979 1419.94 195.024 1419.94 197.537Z" fill="#6579AD"/>
</g>
<g style="mix-blend-mode:screen">
<path d="M1191.39 128.235C1191.39 133.319 1195.48 137.409 1200.56 137.409C1205.65 137.409 1209.74 133.319 1209.74 128.235C1209.74 123.151 1205.65 119.061 1200.56 119.061C1195.48 119.061 1191.39 123.151 1191.39 128.235Z" fill="#6579AD"/>
</g>
<g style="mix-blend-mode:color-dodge">
<path d="M1195.95 128.235C1195.95 130.748 1197.99 132.793 1200.5 132.793C1203.02 132.793 1205.06 130.748 1205.06 128.235C1205.06 125.723 1203.02 123.677 1200.5 123.677C1197.99 123.677 1195.95 125.723 1195.95 128.235Z" fill="#6579AD"/>
</g>
<g style="mix-blend-mode:screen">
<path d="M792.199 492.624C794.556 492.624 796.466 490.714 796.466 488.358C796.466 486.002 794.556 484.092 792.199 484.092C789.843 484.092 787.932 486.002 787.932 488.358C787.932 490.714 789.843 492.624 792.199 492.624Z" fill="#6579AD"/>
</g>
<g style="mix-blend-mode:color-dodge">
<path d="M790.095 488.358C790.095 489.527 791.03 490.52 792.258 490.52C793.485 490.52 794.42 489.585 794.42 488.358C794.42 487.131 793.485 486.196 792.258 486.196C791.03 486.196 790.095 487.131 790.095 488.358Z" fill="#6579AD"/>
</g>
<g style="mix-blend-mode:screen">
<path d="M344.554 238.265C345.716 238.265 346.658 237.323 346.658 236.161C346.658 234.999 345.716 234.057 344.554 234.057C343.392 234.057 342.45 234.999 342.45 236.161C342.45 237.323 343.392 238.265 344.554 238.265Z" fill="#6579AD"/>
</g>
<g style="mix-blend-mode:color-dodge">
<path d="M343.502 236.161C343.502 236.745 343.97 237.213 344.554 237.213C345.139 237.213 345.606 236.745 345.606 236.161C345.606 235.577 345.139 235.109 344.554 235.109C343.97 235.109 343.502 235.577 343.502 236.161Z" fill="#6579AD"/>
</g>
<g style="mix-blend-mode:screen">
<path d="M71.4759 426.946C76.157 426.946 79.9518 423.152 79.9518 418.473C79.9518 413.793 76.157 410 71.4759 410C66.7948 410 63 413.793 63 418.473C63 423.152 66.7948 426.946 71.4759 426.946Z" fill="#6579AD"/>
</g>
<g style="mix-blend-mode:color-dodge">
<path d="M67.2085 418.473C67.2085 420.81 69.0791 422.738 71.4757 422.738C73.8723 422.738 75.6844 420.869 75.6844 418.473C75.6844 416.077 73.8139 414.207 71.4757 414.207C69.1375 414.207 67.2085 416.077 67.2085 418.473Z" fill="#6579AD"/>
</g>
<g style="mix-blend-mode:color-dodge">
<path d="M539.091 889.559C539.091 891.312 540.494 892.714 542.247 892.714C544.001 892.714 545.404 891.312 545.404 889.559C545.404 887.806 544.001 886.404 542.247 886.404C540.494 886.404 539.091 887.806 539.091 889.559Z" fill="#6579AD"/>
</g>
<g style="mix-blend-mode:color-dodge">
<path d="M590.999 611.593C590.999 613.229 592.285 614.515 593.921 614.515C595.558 614.515 596.844 613.229 596.844 611.593C596.844 609.957 595.558 608.671 593.921 608.671C592.285 608.671 590.999 609.957 590.999 611.593Z" fill="#6579AD"/>
</g>
<g style="mix-blend-mode:color-dodge">
<path d="M295.394 52.7397C295.394 54.8433 297.089 56.4794 299.135 56.4794C301.181 56.4794 302.876 54.7849 302.876 52.7397C302.876 50.6946 301.181 49 299.135 49C297.089 49 295.394 50.6946 295.394 52.7397Z" fill="#6579AD"/>
</g>
<g style="mix-blend-mode:color-dodge">
<path d="M817.393 747.567C817.393 749.378 818.855 750.839 820.667 750.839C822.479 750.839 823.94 749.378 823.94 747.567C823.94 745.755 822.479 744.294 820.667 744.294C818.855 744.294 817.393 745.755 817.393 747.567Z" fill="#6579AD"/>
</g>
<g style="mix-blend-mode:color-dodge">
<path d="M1346 836.272C1346 838.084 1347.46 839.544 1349.27 839.544C1351.09 839.544 1352.55 838.084 1352.55 836.272C1352.55 834.461 1351.09 833 1349.27 833C1347.46 833 1346 834.461 1346 836.272Z" fill="#6579AD"/>
</g>
<g style="mix-blend-mode:color-dodge">
<path d="M374 511.74C374 513.843 375.695 515.479 377.741 515.479C379.787 515.479 381.482 513.785 381.482 511.74C381.482 509.695 379.787 508 377.741 508C375.695 508 374 509.695 374 511.74Z" fill="#6579AD"/>
</g>
<g style="mix-blend-mode:color-dodge">
<path d="M299.135 684.225C299.135 686.329 300.83 687.965 302.876 687.965C304.922 687.965 306.617 686.271 306.617 684.225C306.617 682.18 304.922 680.486 302.876 680.486C300.83 680.486 299.135 682.18 299.135 684.225Z" fill="#6579AD"/>
</g>
<g style="mix-blend-mode:color-dodge">
<path d="M335 421.74C335 423.843 336.695 425.479 338.741 425.479C340.787 425.479 342.482 423.785 342.482 421.74C342.482 419.695 340.787 418 338.741 418C336.695 418 335 419.695 335 421.74Z" fill="#6579AD"/>
</g>
<g style="mix-blend-mode:color-dodge">
<path d="M237 598.636C237 599.513 237.701 600.272 238.637 600.272C239.572 600.272 240.273 599.571 240.273 598.636C240.273 597.701 239.572 597 238.637 597C237.701 597 237 597.701 237 598.636Z" fill="#6579AD"/>
</g>
<g style="mix-blend-mode:color-dodge">
<path d="M70 837.636C70 838.513 70.7014 839.272 71.6367 839.272C72.572 839.272 73.2734 838.571 73.2734 837.636C73.2734 836.701 72.572 836 71.6367 836C70.7014 836 70 836.701 70 837.636Z" fill="#6579AD"/>
</g>
<g style="mix-blend-mode:color-dodge">
<path d="M96 595.636C96 596.513 96.7014 597.272 97.6367 597.272C98.572 597.272 99.2735 596.571 99.2735 595.636C99.2735 594.701 98.572 594 97.6367 594C96.7014 594 96 594.701 96 595.636Z" fill="#6579AD"/>
</g>
<g style="mix-blend-mode:color-dodge">
<path d="M1304.61 576.592C1302.51 576.592 1300.87 578.286 1300.87 580.331C1300.87 582.377 1302.57 584.071 1304.61 584.071C1306.66 584.071 1308.35 582.377 1308.35 580.331C1308.35 578.286 1306.66 576.592 1304.61 576.592Z" fill="#6579AD"/>
</g>
<g style="mix-blend-mode:color-dodge">
<path d="M1204.3 675.051C1202.2 675.051 1200.56 676.746 1200.56 678.791C1200.56 680.836 1202.26 682.531 1204.3 682.531C1206.35 682.531 1208.05 680.836 1208.05 678.791C1208.05 676.746 1206.35 675.051 1204.3 675.051Z" fill="#6579AD"/>
</g>
<g style="mix-blend-mode:color-dodge">
<path d="M1416.55 373.771C1416.55 377.335 1419.48 380.257 1423.04 380.257C1426.61 380.257 1429.53 377.335 1429.53 373.771C1429.53 370.206 1426.61 367.285 1423.04 367.285C1419.48 367.285 1416.55 370.206 1416.55 373.771Z" fill="#6579AD"/>
</g>
<g style="mix-blend-mode:color-dodge">
<path d="M1390.6 319.253C1388.49 319.253 1386.86 320.947 1386.86 322.992C1386.86 325.038 1388.55 326.732 1390.6 326.732C1392.64 326.732 1394.34 325.038 1394.34 322.992C1394.34 320.947 1392.64 319.253 1390.6 319.253Z" fill="#6579AD"/>
</g>
<g style="mix-blend-mode:color-dodge">
<path d="M1074.24 698.366C1073.37 698.366 1072.61 699.067 1072.61 700.002C1072.61 700.937 1073.31 701.638 1074.24 701.638C1075.18 701.638 1075.88 700.937 1075.88 700.002C1075.88 699.067 1075.18 698.366 1074.24 698.366Z" fill="#6579AD"/>
</g>
<g style="mix-blend-mode:color-dodge">
<path d="M1117.5 680.953C1116.62 680.953 1115.86 681.654 1115.86 682.589C1115.86 683.524 1116.56 684.225 1117.5 684.225C1118.43 684.225 1119.14 683.524 1119.14 682.589C1119.14 681.654 1118.43 680.953 1117.5 680.953Z" fill="#6579AD"/>
</g>
<g style="mix-blend-mode:color-dodge">
<path d="M1106.8 476.554C1105.92 476.554 1105.17 477.256 1105.17 478.19C1105.17 479.125 1105.87 479.827 1106.8 479.827C1107.74 479.827 1108.44 479.125 1108.44 478.19C1108.44 477.256 1107.74 476.554 1106.8 476.554Z" fill="#6579AD"/>
</g>
<g style="mix-blend-mode:color-dodge">
<path d="M995.68 205.893C995.68 207.996 997.375 209.632 999.421 209.632C1001.47 209.632 1003.16 207.938 1003.16 205.893C1003.16 203.848 1001.47 202.153 999.421 202.153C997.375 202.153 995.68 203.848 995.68 205.893Z" fill="#6579AD"/>
</g>
<g style="mix-blend-mode:color-dodge">
<path d="M1019 335.906C1019 336.783 1019.7 337.542 1020.64 337.542C1021.57 337.542 1022.28 336.841 1022.28 335.906C1022.28 334.971 1021.57 334.27 1020.64 334.27C1019.7 334.27 1019 334.971 1019 335.906Z" fill="#6579AD"/>
</g>
<g style="mix-blend-mode:color-dodge">
<path d="M1001.58 292.666C1001.58 293.542 1002.28 294.302 1003.22 294.302C1004.16 294.302 1004.86 293.601 1004.86 292.666C1004.86 291.731 1004.16 291.03 1003.22 291.03C1002.28 291.03 1001.58 291.731 1001.58 292.666Z" fill="#6579AD"/>
</g>
<g style="mix-blend-mode:color-dodge">
<path d="M956.983 274.435C956.983 275.311 957.684 276.071 958.62 276.071C959.555 276.071 960.256 275.37 960.256 274.435C960.256 273.5 959.555 272.798 958.62 272.798C957.684 272.798 956.983 273.5 956.983 274.435Z" fill="#6579AD"/>
</g>
<g style="mix-blend-mode:color-dodge">
<path d="M717.728 215.534C719.795 215.534 721.469 213.86 721.469 211.794C721.469 209.729 719.795 208.055 717.728 208.055C715.662 208.055 713.987 209.729 713.987 211.794C713.987 213.86 715.662 215.534 717.728 215.534Z" fill="#6579AD"/>
</g>
<g style="mix-blend-mode:color-dodge">
<path d="M768.116 102.349C770.182 102.349 771.857 100.675 771.857 98.6096C771.857 96.5442 770.182 94.8699 768.116 94.8699C766.05 94.8699 764.375 96.5442 764.375 98.6096C764.375 100.675 766.05 102.349 768.116 102.349Z" fill="#6579AD"/>
</g>
<g style="mix-blend-mode:color-dodge">
<path d="M1433.5 702.924C1433.5 704.151 1434.5 705.144 1435.73 705.144C1436.95 705.144 1437.95 704.151 1437.95 702.924C1437.95 701.697 1436.95 700.703 1435.73 700.703C1434.5 700.703 1433.5 701.697 1433.5 702.924Z" fill="#6579AD"/>
</g>
<g filter="url(#filter2_d_2690_3906)">
<path d="M120.513 694.136C120.693 693.015 122.307 693.015 122.487 694.136L124.919 709.252C124.988 709.678 125.322 710.012 125.748 710.081L140.864 712.513C141.985 712.693 141.985 714.307 140.864 714.487L125.748 716.919C125.322 716.988 124.988 717.322 124.919 717.748L122.487 732.864C122.307 733.985 120.693 733.985 120.513 732.864L118.081 717.748C118.012 717.322 117.678 716.988 117.252 716.919L102.136 714.487C101.015 714.307 101.015 712.693 102.136 712.513L117.252 710.081C117.678 710.012 118.012 709.678 118.081 709.252L120.513 694.136Z" fill="white"/>
</g>
<g filter="url(#filter3_d_2690_3906)">
<path d="M396.013 121.136C396.193 120.015 397.807 120.015 397.987 121.136L398.548 124.623C398.617 125.049 398.951 125.383 399.377 125.452L402.864 126.013C403.985 126.193 403.985 127.807 402.864 127.987L399.377 128.548C398.951 128.617 398.617 128.951 398.548 129.377L397.987 132.864C397.807 133.985 396.193 133.985 396.013 132.864L395.452 129.377C395.383 128.951 395.049 128.617 394.623 128.548L391.136 127.987C390.015 127.807 390.015 126.193 391.136 126.013L394.623 125.452C395.049 125.383 395.383 125.049 395.452 124.623L396.013 121.136Z" fill="white"/>
</g>
<g filter="url(#filter4_d_2690_3906)">
<path d="M1199.51 424.136C1199.69 423.015 1201.31 423.015 1201.49 424.136L1202.81 432.361C1202.88 432.787 1203.21 433.121 1203.64 433.189L1211.86 434.513C1212.99 434.693 1212.99 436.307 1211.86 436.487L1203.64 437.811C1203.21 437.879 1202.88 438.213 1202.81 438.639L1201.49 446.864C1201.31 447.985 1199.69 447.985 1199.51 446.864L1198.19 438.639C1198.12 438.213 1197.79 437.879 1197.36 437.811L1189.14 436.487C1188.01 436.307 1188.01 434.693 1189.14 434.513L1197.36 433.189C1197.79 433.121 1198.12 432.787 1198.19 432.361L1199.51 424.136Z" fill="white"/>
</g>
</g>
<rect x="1440" y="921" width="1440" height="484" transform="rotate(180 1440 921)" fill="url(#paint5_linear_2690_3906)" fill-opacity="0.6"/>
<defs>
<filter id="filter0_f_2690_3906" x="-836" y="-810" width="1859" height="1859" filterUnits="userSpaceOnUse" color-interpolation-filters="sRGB">
<feFlood flood-opacity="0" result="BackgroundImageFix"/>
<feBlend mode="normal" in="SourceGraphic" in2="BackgroundImageFix" result="shape"/>
<feGaussianBlur stdDeviation="250" result="effect1_foregroundBlur_2690_3906"/>
</filter>
<filter id="filter1_f_2690_3906" x="498" y="-280" width="1684" height="1625" filterUnits="userSpaceOnUse" color-interpolation-filters="sRGB">
<feFlood flood-opacity="0" result="BackgroundImageFix"/>
<feBlend mode="normal" in="SourceGraphic" in2="BackgroundImageFix" result="shape"/>
<feGaussianBlur stdDeviation="250" result="effect1_foregroundBlur_2690_3906"/>
</filter>
<filter id="filter2_d_2690_3906" x="93.2954" y="685.295" width="56.4092" height="56.4094" filterUnits="userSpaceOnUse" color-interpolation-filters="sRGB">
<feFlood flood-opacity="0" result="BackgroundImageFix"/>
<feColorMatrix in="SourceAlpha" type="matrix" values="0 0 0 0 0 0 0 0 0 0 0 0 0 0 0 0 0 0 127 0" result="hardAlpha"/>
<feOffset/>
<feGaussianBlur stdDeviation="4"/>
<feComposite in2="hardAlpha" operator="out"/>
<feColorMatrix type="matrix" values="0 0 0 0 1 0 0 0 0 1 0 0 0 0 1 0 0 0 0.9 0"/>
<feBlend mode="normal" in2="BackgroundImageFix" result="effect1_dropShadow_2690_3906"/>
<feBlend mode="normal" in="SourceGraphic" in2="effect1_dropShadow_2690_3906" result="shape"/>
</filter>
<filter id="filter3_d_2690_3906" x="382.295" y="112.295" width="29.4092" height="29.4094" filterUnits="userSpaceOnUse" color-interpolation-filters="sRGB">
<feFlood flood-opacity="0" result="BackgroundImageFix"/>
<feColorMatrix in="SourceAlpha" type="matrix" values="0 0 0 0 0 0 0 0 0 0 0 0 0 0 0 0 0 0 127 0" result="hardAlpha"/>
<feOffset/>
<feGaussianBlur stdDeviation="4"/>
<feComposite in2="hardAlpha" operator="out"/>
<feColorMatrix type="matrix" values="0 0 0 0 1 0 0 0 0 1 0 0 0 0 1 0 0 0 1 0"/>
<feBlend mode="normal" in2="BackgroundImageFix" result="effect1_dropShadow_2690_3906"/>
<feBlend mode="normal" in="SourceGraphic" in2="effect1_dropShadow_2690_3906" result="shape"/>
</filter>
<filter id="filter4_d_2690_3906" x="1180.3" y="415.295" width="40.4092" height="40.4094" filterUnits="userSpaceOnUse" color-interpolation-filters="sRGB">
<feFlood flood-opacity="0" result="BackgroundImageFix"/>
<feColorMatrix in="SourceAlpha" type="matrix" values="0 0 0 0 0 0 0 0 0 0 0 0 0 0 0 0 0 0 127 0" result="hardAlpha"/>
<feOffset/>
<feGaussianBlur stdDeviation="4"/>
<feComposite in2="hardAlpha" operator="out"/>
<feColorMatrix type="matrix" values="0 0 0 0 1 0 0 0 0 1 0 0 0 0 1 0 0 0 1 0"/>
<feBlend mode="normal" in2="BackgroundImageFix" result="effect1_dropShadow_2690_3906"/>
<feBlend mode="normal" in="SourceGraphic" in2="effect1_dropShadow_2690_3906" result="shape"/>
</filter>
<radialGradient id="paint0_radial_2690_3906" cx="0" cy="0" r="1" gradientUnits="userSpaceOnUse" gradientTransform="translate(720 921) rotate(-90) scale(726.148 1396.11)">
<stop offset="0.181452" stop-color="#0F172A"/>
<stop offset="0.558891" stop-color="#1D44A8"/>
<stop offset="0.721944" stop-color="#202F65"/>
<stop offset="1" stop-color="#101625"/>
</radialGradient>
<linearGradient id="paint1_linear_2690_3906" x1="1420.58" y1="832.124" x2="1420.58" y2="432.161" gradientUnits="userSpaceOnUse">
<stop stop-color="#06A5FF"/>
<stop offset="0.42" stop-color="#315D93"/>
<stop offset="0.97" stop-color="#0F172A"/>
</linearGradient>
<linearGradient id="paint2_linear_2690_3906" x1="1344.62" y1="794.436" x2="1470.87" y2="586.905" gradientUnits="userSpaceOnUse">
<stop stop-color="#315D93"/>
<stop offset="0.98" stop-color="#1E293B"/>
</linearGradient>
<linearGradient id="paint3_linear_2690_3906" x1="149.692" y1="348.422" x2="149.692" y2="80.8815" gradientUnits="userSpaceOnUse">
<stop stop-color="#06A5FF"/>
<stop offset="0.42" stop-color="#315D93"/>
<stop offset="0.97" stop-color="#0F172A"/>
</linearGradient>
<linearGradient id="paint4_linear_2690_3906" x1="98.8818" y1="323.212" x2="183.332" y2="184.391" gradientUnits="userSpaceOnUse">
<stop stop-color="#315D93"/>
<stop offset="0.98" stop-color="#1E293B"/>
</linearGradient>
<linearGradient id="paint5_linear_2690_3906" x1="2160" y1="921" x2="2160" y2="1405" gradientUnits="userSpaceOnUse">
<stop offset="0.5" stop-color="#0F172A"/>
<stop offset="1" stop-color="#0F172A" stop-opacity="0"/>
</linearGradient>
<clipPath id="clip0_2690_3906">
<rect width="693" height="814" fill="white" transform="translate(748 79)"/>
</clipPath>
<clipPath id="clip1_2690_3906">
<rect width="1836" height="933" fill="white" transform="translate(-248 49)"/>
</clipPath>
</defs>
</svg>
