<svg width="109" height="108" viewBox="0 0 109 108" fill="none" xmlns="http://www.w3.org/2000/svg">
<g id="HomeworkMana">
<mask id="mask0_1984_257" style="mask-type:alpha" maskUnits="userSpaceOnUse" x="0" y="0" width="109" height="108">
<rect id="Bounding box" x="0.5" width="108" height="108" fill="#D9D9D9"/>
</mask>
<g mask="url(#mask0_1984_257)">
<path id="folder_managed" d="M16.0923 92.3333C13.4544 92.3333 11.1962 91.3868 9.31775 89.4938C7.43925 87.6007 6.5 85.325 6.5 82.6667V24.6667C6.5 22.0083 7.43925 19.7326 9.31775 17.8396C11.1962 15.9465 13.4544 15 16.0923 15H44.8693L54.4616 24.6667H92.8309C95.4688 24.6667 97.727 25.6132 99.6055 27.5062C101.484 29.3993 102.423 31.675 102.423 34.3333V50.0417C100.984 48.9944 99.4656 48.1083 97.8669 47.3833C96.2682 46.6583 94.5895 46.0139 92.8309 45.45V34.3333H16.0923V82.6667H50.0252C50.265 84.3583 50.6247 86.0097 51.1043 87.6208C51.5839 89.2319 52.1835 90.8028 52.9029 92.3333H16.0923ZM78.4424 102L77.0036 94.75C76.0444 94.3472 75.1451 93.9243 74.3057 93.4813C73.4664 93.0382 72.6071 92.4944 71.7278 91.85L64.7734 94.025L59.9772 85.8083L65.4928 80.975C65.3329 80.0083 65.253 78.9611 65.253 77.8333C65.253 76.7056 65.3329 75.6583 65.4928 74.6917L59.9772 69.8583L64.7734 61.6417L71.7278 63.8167C72.6071 63.1722 73.4664 62.6285 74.3057 62.1854C75.1451 61.7424 76.0444 61.3194 77.0036 60.9167L78.4424 53.6667H88.0348L89.4736 60.9167C90.4329 61.3194 91.3321 61.7424 92.1715 62.1854C93.0108 62.6285 93.8701 63.1722 94.7494 63.8167L101.704 61.6417L106.5 69.8583L100.984 74.6917C101.144 75.6583 101.224 76.7056 101.224 77.8333C101.224 78.9611 101.144 80.0083 100.984 80.975L106.5 85.8083L101.704 94.025L94.7494 91.85C93.8701 92.4944 93.0108 93.0382 92.1715 93.4813C91.3321 93.9243 90.4329 94.3472 89.4736 94.75L88.0348 102H78.4424ZM83.2386 87.5C85.8765 87.5 88.1347 86.5535 90.0132 84.6604C91.8917 82.7674 92.8309 80.4917 92.8309 77.8333C92.8309 75.175 91.8917 72.8993 90.0132 71.0063C88.1347 69.1132 85.8765 68.1667 83.2386 68.1667C80.6007 68.1667 78.3425 69.1132 76.464 71.0063C74.5855 72.8993 73.6463 75.175 73.6463 77.8333C73.6463 80.4917 74.5855 82.7674 76.464 84.6604C78.3425 86.5535 80.6007 87.5 83.2386 87.5Z" fill="white"/>
</g>
</g>
</svg>
