<svg width="1024" height="800" viewBox="0 0 1024 800" fill="none" xmlns="http://www.w3.org/2000/svg">
<g clip-path="url(#clip0_2305_1022)">
<rect width="1024" height="800" fill="white"/>
<path d="M1024 0H0V800H1024V0Z" fill="url(#paint0_radial_2305_1022)"/>
<g filter="url(#filter0_f_2305_1022)">
<circle cx="59.2685" cy="118.268" r="329.268" fill="#0A3E8C"/>
</g>
<g clip-path="url(#clip1_2305_1022)">
<g filter="url(#filter1_f_2305_1022)">
<ellipse cx="1153.03" cy="540.72" rx="342" ry="312.5" fill="#24455E"/>
</g>
</g>
<g clip-path="url(#clip2_2305_1022)">
<g style="mix-blend-mode:screen">
<path d="M809.199 528.624C811.556 528.624 813.466 526.714 813.466 524.358C813.466 522.002 811.556 520.092 809.199 520.092C806.843 520.092 804.932 522.002 804.932 524.358C804.932 526.714 806.843 528.624 809.199 528.624Z" fill="#6579AD"/>
</g>
<g style="mix-blend-mode:color-dodge">
<path d="M807.095 524.358C807.095 525.527 808.03 526.52 809.258 526.52C810.485 526.52 811.42 525.585 811.42 524.358C811.42 523.131 810.485 522.196 809.258 522.196C808.03 522.196 807.095 523.131 807.095 524.358Z" fill="#6579AD"/>
</g>
<g style="mix-blend-mode:screen">
<path d="M361.554 274.265C362.716 274.265 363.658 273.323 363.658 272.161C363.658 270.999 362.716 270.057 361.554 270.057C360.392 270.057 359.45 270.999 359.45 272.161C359.45 273.323 360.392 274.265 361.554 274.265Z" fill="#6579AD"/>
</g>
<g style="mix-blend-mode:color-dodge">
<path d="M360.502 272.161C360.502 272.745 360.97 273.213 361.554 273.213C362.139 273.213 362.606 272.745 362.606 272.161C362.606 271.577 362.139 271.109 361.554 271.109C360.97 271.109 360.502 271.577 360.502 272.161Z" fill="#6579AD"/>
</g>
<g style="mix-blend-mode:screen">
<path d="M88.4759 462.946C93.157 462.946 96.9518 459.152 96.9518 454.473C96.9518 449.793 93.157 446 88.4759 446C83.7948 446 80 449.793 80 454.473C80 459.152 83.7948 462.946 88.4759 462.946Z" fill="#6579AD"/>
</g>
<g style="mix-blend-mode:color-dodge">
<path d="M84.2085 454.473C84.2085 456.81 86.0791 458.738 88.4757 458.738C90.8723 458.738 92.6844 456.869 92.6844 454.473C92.6844 452.077 90.8139 450.207 88.4757 450.207C86.1375 450.207 84.2085 452.077 84.2085 454.473Z" fill="#6579AD"/>
</g>
<g style="mix-blend-mode:color-dodge">
<path d="M607.999 647.593C607.999 649.229 609.285 650.515 610.921 650.515C612.558 650.515 613.844 649.229 613.844 647.593C613.844 645.957 612.558 644.671 610.921 644.671C609.285 644.671 607.999 645.957 607.999 647.593Z" fill="#6579AD"/>
</g>
<g style="mix-blend-mode:color-dodge">
<path d="M312.394 88.7397C312.394 90.8433 314.089 92.4794 316.135 92.4794C318.181 92.4794 319.876 90.7849 319.876 88.7397C319.876 86.6946 318.181 85 316.135 85C314.089 85 312.394 86.6946 312.394 88.7397Z" fill="#6579AD"/>
</g>
<g style="mix-blend-mode:color-dodge">
<path d="M834.393 783.567C834.393 785.378 835.855 786.839 837.667 786.839C839.479 786.839 840.94 785.378 840.94 783.567C840.94 781.755 839.479 780.294 837.667 780.294C835.855 780.294 834.393 781.755 834.393 783.567Z" fill="#6579AD"/>
</g>
<g style="mix-blend-mode:color-dodge">
<path d="M391 547.74C391 549.843 392.695 551.479 394.741 551.479C396.787 551.479 398.482 549.785 398.482 547.74C398.482 545.695 396.787 544 394.741 544C392.695 544 391 545.695 391 547.74Z" fill="#6579AD"/>
</g>
<g style="mix-blend-mode:color-dodge">
<path d="M316.135 720.225C316.135 722.329 317.83 723.965 319.876 723.965C321.922 723.965 323.617 722.27 323.617 720.225C323.617 718.18 321.922 716.486 319.876 716.486C317.83 716.486 316.135 718.18 316.135 720.225Z" fill="#6579AD"/>
</g>
<g style="mix-blend-mode:color-dodge">
<path d="M352 457.74C352 459.843 353.695 461.479 355.741 461.479C357.787 461.479 359.482 459.785 359.482 457.74C359.482 455.695 357.787 454 355.741 454C353.695 454 352 455.695 352 457.74Z" fill="#6579AD"/>
</g>
<g style="mix-blend-mode:color-dodge">
<path d="M254 634.636C254 635.513 254.701 636.272 255.637 636.272C256.572 636.272 257.273 635.571 257.273 634.636C257.273 633.701 256.572 633 255.637 633C254.701 633 254 633.701 254 634.636Z" fill="#6579AD"/>
</g>
<g style="mix-blend-mode:color-dodge">
<path d="M113 631.636C113 632.513 113.701 633.272 114.637 633.272C115.572 633.272 116.273 632.571 116.273 631.636C116.273 630.701 115.572 630 114.637 630C113.701 630 113 630.701 113 631.636Z" fill="#6579AD"/>
</g>
<g style="mix-blend-mode:color-dodge">
<path d="M1012.68 241.893C1012.68 243.996 1014.37 245.632 1016.42 245.632C1018.47 245.632 1020.16 243.938 1020.16 241.893C1020.16 239.848 1018.47 238.153 1016.42 238.153C1014.37 238.153 1012.68 239.848 1012.68 241.893Z" fill="#6579AD"/>
</g>
<g style="mix-blend-mode:color-dodge">
<path d="M1018.58 328.666C1018.58 329.542 1019.28 330.302 1020.22 330.302C1021.16 330.302 1021.86 329.601 1021.86 328.666C1021.86 327.731 1021.16 327.03 1020.22 327.03C1019.28 327.03 1018.58 327.731 1018.58 328.666Z" fill="#6579AD"/>
</g>
<g style="mix-blend-mode:color-dodge">
<path d="M973.983 310.435C973.983 311.311 974.684 312.071 975.62 312.071C976.555 312.071 977.256 311.37 977.256 310.435C977.256 309.5 976.555 308.798 975.62 308.798C974.684 308.798 973.983 309.5 973.983 310.435Z" fill="#6579AD"/>
</g>
<g style="mix-blend-mode:color-dodge">
<path d="M734.728 251.534C736.795 251.534 738.469 249.86 738.469 247.794C738.469 245.729 736.795 244.055 734.728 244.055C732.662 244.055 730.987 245.729 730.987 247.794C730.987 249.86 732.662 251.534 734.728 251.534Z" fill="#6579AD"/>
</g>
<g style="mix-blend-mode:color-dodge">
<path d="M785.116 138.349C787.182 138.349 788.857 136.675 788.857 134.61C788.857 132.544 787.182 130.87 785.116 130.87C783.05 130.87 781.375 132.544 781.375 134.61C781.375 136.675 783.05 138.349 785.116 138.349Z" fill="#6579AD"/>
</g>
<g filter="url(#filter2_d_2305_1022)">
<path d="M51.283 581.014C51.4634 579.893 53.0772 579.893 53.2576 581.014L54.8649 591.004C54.9334 591.43 55.2674 591.764 55.6933 591.832L65.683 593.44C66.8045 593.62 66.8045 595.234 65.683 595.414L55.6933 597.022C55.2674 597.09 54.9334 597.424 54.8649 597.85L53.2576 607.84C53.0772 608.961 51.4634 608.961 51.283 607.84L49.6758 597.85C49.6072 597.424 49.2732 597.09 48.8473 597.022L38.8576 595.414C37.7361 595.234 37.7361 593.62 38.8576 593.44L48.8473 591.832C49.2732 591.764 49.6072 591.43 49.6758 591.004L51.283 581.014Z" fill="white"/>
</g>
<g filter="url(#filter3_d_2305_1022)">
<path d="M262.491 141.734C262.671 140.613 264.285 140.613 264.465 141.734L264.638 142.809C264.707 143.235 265.041 143.569 265.467 143.637L266.541 143.81C267.663 143.99 267.663 145.604 266.541 145.785L265.467 145.957C265.041 146.026 264.707 146.36 264.638 146.786L264.465 147.86C264.285 148.982 262.671 148.982 262.491 147.86L262.318 146.786C262.249 146.36 261.915 146.026 261.489 145.957L260.415 145.785C259.293 145.604 259.293 143.99 260.415 143.81L261.489 143.637C261.915 143.569 262.249 143.235 262.318 142.809L262.491 141.734Z" fill="white"/>
</g>
<g filter="url(#filter4_d_2305_1022)">
<path d="M878.479 374.024C878.659 372.902 880.273 372.902 880.454 374.024L881.211 378.73C881.279 379.156 881.613 379.49 882.039 379.559L886.746 380.316C887.867 380.496 887.867 382.11 886.746 382.291L882.039 383.048C881.613 383.116 881.279 383.45 881.211 383.876L880.454 388.583C880.273 389.704 878.659 389.704 878.479 388.583L877.722 383.876C877.653 383.45 877.319 383.116 876.893 383.048L872.187 382.291C871.065 382.11 871.065 380.496 872.187 380.316L876.893 379.559C877.319 379.49 877.653 379.156 877.722 378.73L878.479 374.024Z" fill="white"/>
</g>
</g>
<rect x="1091.54" y="800.05" width="1103.95" height="371.05" transform="rotate(180 1091.54 800.05)" fill="url(#paint1_linear_2305_1022)" fill-opacity="0.6"/>
<mask id="mask0_2305_1022" style="mask-type:luminance" maskUnits="userSpaceOnUse" x="357" y="349" width="293" height="293">
<path d="M649.754 503.71C649.817 502.542 649.864 501.402 649.903 500.27C650.279 489.942 649.57 477.81 646.6 464.378C645.299 457.826 642.945 449.169 638.666 439.138C637.659 436.671 636.429 433.98 635.117 431.337C634.799 430.689 634.474 430.048 634.161 429.412C634.031 429.166 633.902 428.92 633.777 428.674C633.401 427.956 633.036 427.249 632.66 426.562C630.709 422.915 628.679 419.479 626.587 416.265C625.917 415.215 625.228 414.16 624.538 413.13C624.448 413.001 624.362 412.876 624.272 412.747C623.77 412.009 623.265 411.294 622.763 410.595C618.622 404.739 614.316 399.682 610.066 395.289C609.266 394.446 608.44 393.618 607.621 392.794C607.268 392.431 606.912 392.087 606.567 391.732C606.222 391.396 605.897 391.064 605.552 390.729C605.395 390.58 605.247 390.444 605.098 390.295C604.929 390.139 604.761 389.971 604.604 389.815C604.306 389.53 603.981 389.245 603.668 388.952C597.94 383.626 593.148 379.932 589.109 377.035C588.999 376.957 588.881 376.867 588.772 376.789C588.823 376.828 588.87 376.867 588.921 376.906C588.505 376.613 588.094 376.317 587.698 376.032C586.041 374.821 584.051 373.556 582.021 372.299C580.916 371.58 579.831 370.885 578.855 370.303C576.215 368.722 572.626 366.699 569.864 365.341C569.833 365.329 569.805 365.309 569.786 365.302C568.446 364.634 567.114 363.974 565.825 363.377C565.813 363.377 565.793 363.357 565.785 363.357C565.746 363.338 565.707 363.326 565.668 363.306C564.888 362.943 564.108 362.58 563.411 362.276C562.396 361.823 561.429 361.42 560.453 361.018C557.487 359.741 554.369 358.531 551.117 357.414C551.085 357.414 551.058 357.395 551.027 357.383C548.464 356.508 545.824 355.665 543.05 354.907C529.188 350.956 514.954 349.191 500.392 349.574C492.9 349.644 484.183 350.519 474.859 352.412L473.824 352.619H473.785C473.758 352.619 473.726 352.631 473.687 352.639C471.184 353.158 468.688 353.728 465.996 354.447C464.202 354.9 462.141 355.509 460.386 356.059C460.347 356.071 460.315 356.079 460.276 356.091C460.1 356.149 459.912 356.208 459.743 356.258H459.724C456.856 357.172 455.575 357.574 453.463 358.383C453.216 358.472 452.969 358.558 452.762 358.636H452.75C450.415 359.472 448.797 360.108 446.748 361.003C445.435 361.553 444.134 362.123 442.822 362.713C442.743 362.752 442.665 362.783 442.595 362.822C440.918 363.58 439.253 364.384 437.595 365.22C437.537 365.251 437.466 365.278 437.407 365.317C435.958 366.043 434.528 366.801 433.09 367.586C432.075 368.144 431.107 368.695 430.143 369.257C429.767 369.472 429.395 369.679 429.031 369.897C419.24 375.645 412.113 381.334 407.827 385.145C407.373 385.539 407.04 385.844 406.863 386C404.873 387.738 403.067 389.409 401.668 390.783C401.214 391.225 400.732 391.709 400.23 392.197C400.191 392.236 400.152 392.275 400.113 392.314L399.995 392.431C397.648 394.77 394.788 397.726 391.329 401.873C375.003 421.052 364.307 443.648 359.833 468.173C359.696 468.872 359.566 469.579 359.437 470.294C359.417 470.383 359.41 470.469 359.386 470.567C358.724 474.358 358.183 478.24 357.936 481.531C357.917 481.738 357.905 481.965 357.885 482.172C357.658 484.803 357.502 487.693 357.404 490.649C357.372 491.121 357.333 491.601 357.313 492.054L357.333 493.55C357.313 494.573 357.313 495.584 357.313 496.584C357.313 499.001 357.364 501.347 357.502 503.46C357.611 505.357 357.768 507.185 357.936 508.981C357.956 509.188 357.976 509.395 357.995 509.602C358.054 510.222 358.113 510.851 358.183 511.46C358.293 512.483 358.411 513.444 358.528 514.369C358.528 514.44 358.548 514.498 358.548 514.564C358.555 514.643 358.567 514.732 358.575 514.81C361.662 539.293 370.889 562.139 385.687 581.904C386.063 582.415 386.435 582.915 386.819 583.419C386.988 583.645 387.156 583.86 387.321 584.087C387.881 584.813 388.426 585.5 388.966 586.148C401.288 601.751 416.027 613.688 431.476 622.352C457.957 637.631 485.774 643.258 511.189 641.067H511.268C511.495 641.055 511.73 641.036 511.969 641.028C513.16 640.958 514.382 640.872 515.656 640.763C516.138 640.723 516.612 640.684 517.094 640.634C517.764 640.575 518.406 640.505 519.025 640.446H519.076C519.856 640.368 520.596 640.278 521.266 640.2C521.297 640.2 521.337 640.2 521.364 640.192C524.271 639.837 526.144 639.533 526.293 639.505C528.757 639.15 530.317 638.877 532.949 638.307C533.098 638.275 533.255 638.248 533.392 638.228H533.412C533.6 638.189 533.788 638.139 533.984 638.1C534.172 638.061 534.348 638.01 534.544 637.971C535.578 637.744 536.664 637.51 537.808 637.233L538.309 637.123L540.221 636.643C540.268 636.635 540.331 636.616 540.378 636.604H540.436C542.368 636.143 544.813 635.417 546.823 634.785C546.854 634.777 546.893 634.765 546.921 634.753C547.109 634.695 547.316 634.636 547.493 634.578C547.869 634.46 548.202 634.351 548.527 634.254C548.617 634.222 548.703 634.195 548.793 634.164C550.874 633.496 552.084 633.094 553.969 632.375C554.137 632.317 554.333 632.247 554.49 632.188C554.521 632.176 554.561 632.157 554.588 632.149C555.869 631.669 557.182 631.165 558.514 630.626C559.047 630.411 559.56 630.193 560.081 629.978C560.68 629.724 561.284 629.478 561.895 629.213C562.537 628.947 563.215 628.643 563.924 628.318C566.538 627.139 569.01 625.933 571.376 624.703C571.435 624.672 571.494 624.644 571.553 624.613C584.772 617.725 594.178 610.326 599.381 605.718C599.836 605.316 600.169 605.019 600.349 604.863C601.72 603.625 603.029 602.419 604.373 601.158C604.768 600.795 605.16 600.431 605.568 600.068C607.127 598.624 609.591 596.121 612.252 593.173C617.4 587.542 621.952 581.67 625.859 575.664C626.47 574.731 627.061 573.817 627.594 572.954C628.017 572.306 628.448 571.588 628.895 570.842C637.432 557.027 642.212 544.107 644.884 533.654C645.111 532.799 645.319 531.964 645.503 531.167C645.534 531.05 645.566 530.89 645.593 530.765C648.01 521.226 649.241 512.284 649.715 504.17C649.715 504.034 649.734 503.897 649.734 503.756L649.742 503.698L649.754 503.71Z" fill="white"/>
</mask>
<g mask="url(#mask0_2305_1022)">
<path d="M649.754 503.71C649.817 502.542 649.864 501.402 649.903 500.27C650.279 489.942 649.57 477.81 646.6 464.378C645.299 457.826 642.945 449.169 638.666 439.138C637.659 436.671 636.429 433.98 635.117 431.337C634.799 430.689 634.474 430.048 634.161 429.412C634.031 429.166 633.902 428.92 633.777 428.674C633.401 427.956 633.036 427.249 632.66 426.562C630.709 422.915 628.679 419.479 626.587 416.265C625.917 415.215 625.228 414.16 624.538 413.13C624.448 413.001 624.362 412.876 624.272 412.747C623.77 412.009 623.265 411.294 622.763 410.595C618.622 404.739 614.316 399.682 610.066 395.289C609.266 394.446 608.44 393.618 607.621 392.794C607.268 392.431 606.912 392.087 606.567 391.732C606.222 391.396 605.897 391.064 605.552 390.729C605.395 390.58 605.247 390.444 605.098 390.295C604.929 390.139 604.761 389.971 604.604 389.815C604.306 389.53 603.981 389.245 603.668 388.952C597.94 383.626 593.148 379.932 589.109 377.035C588.999 376.957 588.881 376.867 588.772 376.789C588.823 376.828 588.87 376.867 588.921 376.906C588.505 376.613 588.094 376.317 587.698 376.032C586.041 374.821 584.051 373.556 582.021 372.299C580.916 371.58 579.831 370.885 578.855 370.303C576.215 368.722 572.626 366.699 569.864 365.341C569.833 365.329 569.805 365.309 569.786 365.302C568.446 364.634 567.114 363.974 565.825 363.377C565.813 363.377 565.793 363.357 565.785 363.357C565.746 363.338 565.707 363.326 565.668 363.306C564.888 362.943 564.108 362.58 563.411 362.276C562.396 361.823 561.429 361.42 560.453 361.018C557.487 359.741 554.369 358.531 551.117 357.414C551.085 357.414 551.058 357.395 551.027 357.383C548.464 356.508 545.824 355.665 543.05 354.907C529.188 350.956 514.954 349.191 500.392 349.574C492.9 349.644 484.183 350.519 474.859 352.412L473.824 352.619H473.785C473.758 352.619 473.726 352.631 473.687 352.639C471.184 353.158 468.688 353.728 465.996 354.447C464.202 354.9 462.141 355.509 460.386 356.059C460.347 356.071 460.315 356.079 460.276 356.091C460.1 356.149 459.912 356.208 459.743 356.258H459.724C456.856 357.172 455.575 357.574 453.463 358.383C453.216 358.472 452.969 358.558 452.762 358.636H452.75C450.415 359.472 448.797 360.108 446.748 361.003C445.435 361.553 444.134 362.123 442.822 362.713C442.743 362.752 442.665 362.783 442.595 362.822C440.918 363.58 439.253 364.384 437.595 365.22C437.537 365.251 437.466 365.278 437.407 365.317C435.958 366.043 434.528 366.801 433.09 367.586C432.075 368.144 431.107 368.695 430.143 369.257C429.767 369.472 429.395 369.679 429.031 369.897C419.24 375.645 412.113 381.334 407.827 385.145C407.373 385.539 407.04 385.844 406.863 386C404.873 387.738 403.067 389.409 401.668 390.783C401.214 391.225 400.732 391.709 400.23 392.197C400.191 392.236 400.152 392.275 400.113 392.314L399.995 392.431C397.648 394.77 394.788 397.726 391.329 401.873C375.003 421.052 364.307 443.648 359.833 468.173C359.696 468.872 359.566 469.579 359.437 470.294C359.417 470.383 359.41 470.469 359.386 470.567C358.724 474.358 358.183 478.24 357.936 481.531C357.917 481.738 357.905 481.965 357.885 482.172C357.658 484.803 357.502 487.693 357.404 490.649C357.372 491.121 357.333 491.601 357.313 492.054L357.333 493.55C357.313 494.573 357.313 495.584 357.313 496.584C357.313 499.001 357.364 501.347 357.502 503.46C357.611 505.357 357.768 507.185 357.936 508.981C357.956 509.188 357.976 509.395 357.995 509.602C358.054 510.222 358.113 510.851 358.183 511.46C358.293 512.483 358.411 513.444 358.528 514.369C358.528 514.44 358.548 514.498 358.548 514.564C358.555 514.643 358.567 514.732 358.575 514.81C361.662 539.293 370.889 562.139 385.687 581.904C386.063 582.415 386.435 582.915 386.819 583.419C386.988 583.645 387.156 583.86 387.321 584.087C387.881 584.813 388.426 585.5 388.966 586.148C401.288 601.751 416.027 613.688 431.476 622.352C457.957 637.631 485.774 643.258 511.189 641.067H511.268C511.495 641.055 511.73 641.036 511.969 641.028C513.16 640.958 514.382 640.872 515.656 640.763C516.138 640.723 516.612 640.684 517.094 640.634C517.764 640.575 518.406 640.505 519.025 640.446H519.076C519.856 640.368 520.596 640.278 521.266 640.2C521.297 640.2 521.337 640.2 521.364 640.192C524.271 639.837 526.144 639.533 526.293 639.505C528.757 639.15 530.317 638.877 532.949 638.307C533.098 638.275 533.255 638.248 533.392 638.228H533.412C533.6 638.189 533.788 638.139 533.984 638.1C534.172 638.061 534.348 638.01 534.544 637.971C535.578 637.744 536.664 637.51 537.808 637.233L538.309 637.123L540.221 636.643C540.268 636.635 540.331 636.616 540.378 636.604H540.436C542.368 636.143 544.813 635.417 546.823 634.785C546.854 634.777 546.893 634.765 546.921 634.753C547.109 634.695 547.316 634.636 547.493 634.578C547.869 634.46 548.202 634.351 548.527 634.254C548.617 634.222 548.703 634.195 548.793 634.164C550.874 633.496 552.084 633.094 553.969 632.375C554.137 632.317 554.333 632.247 554.49 632.188C554.521 632.176 554.561 632.157 554.588 632.149C555.869 631.669 557.182 631.165 558.514 630.626C559.047 630.411 559.56 630.193 560.081 629.978C560.68 629.724 561.284 629.478 561.895 629.213C562.537 628.947 563.215 628.643 563.924 628.318C566.538 627.139 569.01 625.933 571.376 624.703C571.435 624.672 571.494 624.644 571.553 624.613C584.772 617.725 594.178 610.326 599.381 605.718C599.836 605.316 600.169 605.019 600.349 604.863C601.72 603.625 603.029 602.419 604.373 601.158C604.768 600.795 605.16 600.431 605.568 600.068C607.127 598.624 609.591 596.121 612.252 593.173C617.4 587.542 621.952 581.67 625.859 575.664C626.47 574.731 627.061 573.817 627.594 572.954C628.017 572.306 628.448 571.588 628.895 570.842C637.432 557.027 642.212 544.107 644.884 533.654C645.111 532.799 645.319 531.964 645.503 531.167C645.534 531.05 645.566 530.89 645.593 530.765C648.01 521.226 649.241 512.284 649.715 504.17C649.715 504.034 649.734 503.897 649.734 503.756L649.742 503.698L649.754 503.71Z" fill="url(#paint2_radial_2305_1022)"/>
<g opacity="0.1">
<path d="M106.651 666.037C104.343 688.103 111.689 706.056 127.854 718.855C135.87 710.898 143.224 702.94 150.155 695.139C170.434 672.316 188.938 649.325 216.74 626.323C249.008 599.631 293.002 574.505 335.977 557.539C356.562 549.413 370.937 547.438 389.853 541.78C414.351 534.451 443.747 521.511 468.955 511.421C516.569 492.37 564.916 471.797 610.885 446.772C661.724 419.096 706.944 387.5 749.669 355.146C746.684 352.385 743.33 349.831 739.624 347.493C693.428 379.089 645.97 411.099 593.862 438.814C541.15 466.846 489.195 474.803 438.811 488.794C398.115 500.094 354.924 514.053 313.109 535.236C238.159 573.201 179.731 627.967 106.651 666.03V666.037ZM579.209 430.388C516.342 454.87 466.005 456.897 407.232 473.156C368.547 483.854 326.304 499.692 287.642 521.425C243.871 546.016 207.889 576.238 163.695 600.35C150.359 607.62 136.485 614.152 122.675 619.763C129.586 607.206 138.722 593.895 150.171 579.932C171.406 554.033 198.721 528.196 230.123 503.483C239.468 505.506 253.517 503.995 268.433 500.547C324.2 487.646 387.49 451.793 447.587 428.44C501.207 407.612 551.357 397.128 603.359 381.557C639.549 370.721 679.601 355.845 715.051 336.724C719.96 338.176 724.544 339.867 728.783 341.764C726.824 343.416 724.932 345.076 723.047 346.696C685.329 379.335 631.337 410.096 579.213 430.396V430.384L579.209 430.388ZM666.978 329.886C622.796 345.575 578.609 361.268 534.415 376.957C466.679 401.01 397.316 425.511 337.063 435.898C334.203 436.39 331.366 436.85 328.526 437.303C415.769 386.863 515.128 348.113 601.49 334.701C625.82 330.929 647.698 329.387 666.978 329.879V329.89V329.886ZM517.506 648.962C482.488 667.677 446.012 684.381 409.599 698.262C417.2 686.837 424.001 675.506 431.86 664.069C449.644 638.15 477.1 608.049 519.312 584.743C548.316 568.73 579.299 558.714 608.797 549.343C637.692 540.156 666.586 530.972 695.481 521.784C684.616 532.612 672.796 543.361 660.208 553.931C636.418 558.41 608.37 567.305 583.824 582.068C549.566 602.681 533.961 626.901 517.506 648.955V648.962ZM757.834 437.647C753.999 440.919 750.085 444.16 746.014 447.354C702.96 481.113 644.187 507.817 589.274 532.253C504.502 569.979 419.523 607.788 334.743 641.239C316.979 648.244 298.769 655.28 281.746 664.768C264.718 674.268 248.827 687.001 246.226 696.169C242.668 708.727 264.08 709.629 264.268 720.741C264.358 725.821 260.303 731.913 254.23 738.535C223.087 742.112 196.469 741.729 174.763 737.836C188.625 725.337 202.996 712.92 218.75 700.824C271.214 660.544 337.631 624.925 403.06 593.969C446.329 573.493 489.783 554.868 532.727 533.783C573.559 513.741 608.824 500.348 640.599 472.23C662.081 453.211 674.058 434.668 693.616 415.66C710.878 398.878 734.115 381.951 759.687 367.262C770.63 385.309 770.391 409.244 757.842 437.627L757.834 437.647Z" fill="#1E293B"/>
</g>
</g>
<path d="M649.903 500.273C649.864 501.402 649.816 502.542 649.754 503.713L649.746 503.772C649.746 503.909 649.726 504.045 649.726 504.182C649.566 506.935 649.319 509.785 648.966 512.717C639.908 516.271 630.529 519.789 620.863 523.252C593.606 533.018 564.053 542.354 532.945 550.874C495.69 561.076 459.59 569.179 426.088 575.106C412.003 577.597 398.373 579.694 385.307 581.388C379.551 573.638 374.658 565.418 370.65 556.813C380.594 556.024 391.18 554.876 402.311 553.384C438.743 548.5 480.963 539.882 525.278 527.746C562.964 517.426 597.849 505.736 627.951 493.725C635.477 490.723 642.705 487.697 649.601 484.67C650.016 490.231 650.079 495.447 649.903 500.273Z" fill="url(#paint3_radial_2305_1022)"/>
<g filter="url(#filter5_di_2305_1022)">
<path d="M648.966 512.717C639.908 516.271 630.529 519.789 620.863 523.252C593.606 533.018 564.053 542.354 532.945 550.874C495.69 561.076 459.59 569.179 426.088 575.106C412.003 577.597 398.373 579.694 385.307 581.388C300.331 592.427 239.165 586.675 231.795 564.446C223.85 540.491 276.079 503.456 359.699 468.876C359.609 469.345 359.523 469.817 359.437 470.297C359.417 470.387 359.409 470.473 359.39 470.571C358.83 473.784 358.355 477.06 358.073 479.985C307.834 503.327 278.207 526.442 283.281 541.745C287.99 555.954 321.394 560.733 370.65 556.813C380.594 556.024 391.18 554.876 402.311 553.384C438.743 548.5 480.963 539.882 525.278 527.746C562.964 517.426 597.849 505.736 627.951 493.725C635.477 490.723 642.705 487.696 649.601 484.67C706.524 459.685 740.97 434.453 735.481 417.897C729.898 401.06 684.043 397.472 619.269 405.89C617.016 402.993 614.736 400.314 612.455 397.831C710.807 381.814 783.574 384.922 792.205 410.962C800.625 436.346 741.448 476.435 648.966 512.717Z" fill="#DAE8FF"/>
</g>
</g>
<defs>
<filter id="filter0_f_2305_1022" x="-770" y="-711" width="1658.54" height="1658.54" filterUnits="userSpaceOnUse" color-interpolation-filters="sRGB">
<feFlood flood-opacity="0" result="BackgroundImageFix"/>
<feBlend mode="normal" in="SourceGraphic" in2="BackgroundImageFix" result="shape"/>
<feGaussianBlur stdDeviation="250" result="effect1_foregroundBlur_2305_1022"/>
</filter>
<filter id="filter1_f_2305_1022" x="311.029" y="-271.78" width="1684" height="1625" filterUnits="userSpaceOnUse" color-interpolation-filters="sRGB">
<feFlood flood-opacity="0" result="BackgroundImageFix"/>
<feBlend mode="normal" in="SourceGraphic" in2="BackgroundImageFix" result="shape"/>
<feGaussianBlur stdDeviation="250" result="effect1_foregroundBlur_2305_1022"/>
</filter>
<filter id="filter2_d_2305_1022" x="30.0166" y="572.173" width="44.5073" height="44.5077" filterUnits="userSpaceOnUse" color-interpolation-filters="sRGB">
<feFlood flood-opacity="0" result="BackgroundImageFix"/>
<feColorMatrix in="SourceAlpha" type="matrix" values="0 0 0 0 0 0 0 0 0 0 0 0 0 0 0 0 0 0 127 0" result="hardAlpha"/>
<feOffset/>
<feGaussianBlur stdDeviation="4"/>
<feComposite in2="hardAlpha" operator="out"/>
<feColorMatrix type="matrix" values="0 0 0 0 1 0 0 0 0 1 0 0 0 0 1 0 0 0 0.9 0"/>
<feBlend mode="normal" in2="BackgroundImageFix" result="effect1_dropShadow_2305_1022"/>
<feBlend mode="normal" in="SourceGraphic" in2="effect1_dropShadow_2305_1022" result="shape"/>
</filter>
<filter id="filter3_d_2305_1022" x="251.574" y="132.893" width="23.8086" height="23.8086" filterUnits="userSpaceOnUse" color-interpolation-filters="sRGB">
<feFlood flood-opacity="0" result="BackgroundImageFix"/>
<feColorMatrix in="SourceAlpha" type="matrix" values="0 0 0 0 0 0 0 0 0 0 0 0 0 0 0 0 0 0 127 0" result="hardAlpha"/>
<feOffset/>
<feGaussianBlur stdDeviation="4"/>
<feComposite in2="hardAlpha" operator="out"/>
<feColorMatrix type="matrix" values="0 0 0 0 1 0 0 0 0 1 0 0 0 0 1 0 0 0 1 0"/>
<feBlend mode="normal" in2="BackgroundImageFix" result="effect1_dropShadow_2305_1022"/>
<feBlend mode="normal" in="SourceGraphic" in2="effect1_dropShadow_2305_1022" result="shape"/>
</filter>
<filter id="filter4_d_2305_1022" x="863.346" y="365.182" width="32.2412" height="32.2416" filterUnits="userSpaceOnUse" color-interpolation-filters="sRGB">
<feFlood flood-opacity="0" result="BackgroundImageFix"/>
<feColorMatrix in="SourceAlpha" type="matrix" values="0 0 0 0 0 0 0 0 0 0 0 0 0 0 0 0 0 0 127 0" result="hardAlpha"/>
<feOffset/>
<feGaussianBlur stdDeviation="4"/>
<feComposite in2="hardAlpha" operator="out"/>
<feColorMatrix type="matrix" values="0 0 0 0 1 0 0 0 0 1 0 0 0 0 1 0 0 0 1 0"/>
<feBlend mode="normal" in2="BackgroundImageFix" result="effect1_dropShadow_2305_1022"/>
<feBlend mode="normal" in="SourceGraphic" in2="effect1_dropShadow_2305_1022" result="shape"/>
</filter>
<filter id="filter5_di_2305_1022" x="191" y="348.034" width="642" height="278.808" filterUnits="userSpaceOnUse" color-interpolation-filters="sRGB">
<feFlood flood-opacity="0" result="BackgroundImageFix"/>
<feColorMatrix in="SourceAlpha" type="matrix" values="0 0 0 0 0 0 0 0 0 0 0 0 0 0 0 0 0 0 127 0" result="hardAlpha"/>
<feOffset/>
<feGaussianBlur stdDeviation="20"/>
<feComposite in2="hardAlpha" operator="out"/>
<feColorMatrix type="matrix" values="0 0 0 0 1 0 0 0 0 1 0 0 0 0 1 0 0 0 0.75 0"/>
<feBlend mode="normal" in2="BackgroundImageFix" result="effect1_dropShadow_2305_1022"/>
<feBlend mode="normal" in="SourceGraphic" in2="effect1_dropShadow_2305_1022" result="shape"/>
<feColorMatrix in="SourceAlpha" type="matrix" values="0 0 0 0 0 0 0 0 0 0 0 0 0 0 0 0 0 0 127 0" result="hardAlpha"/>
<feOffset/>
<feGaussianBlur stdDeviation="35"/>
<feComposite in2="hardAlpha" operator="arithmetic" k2="-1" k3="1"/>
<feColorMatrix type="matrix" values="0 0 0 0 1 0 0 0 0 1 0 0 0 0 1 0 0 0 0.8 0"/>
<feBlend mode="normal" in2="shape" result="effect2_innerShadow_2305_1022"/>
</filter>
<radialGradient id="paint0_radial_2305_1022" cx="0" cy="0" r="1" gradientUnits="userSpaceOnUse" gradientTransform="translate(512 800) rotate(-90) scale(689.926 992.788)">
<stop offset="0.181452" stop-color="#0F172A"/>
<stop offset="0.558891" stop-color="#1D44A8"/>
<stop offset="0.721944" stop-color="#202F65"/>
<stop offset="1" stop-color="#101625"/>
</radialGradient>
<linearGradient id="paint1_linear_2305_1022" x1="1643.51" y1="800.05" x2="1643.51" y2="1171.1" gradientUnits="userSpaceOnUse">
<stop offset="0.5" stop-color="#0F172A"/>
<stop offset="1" stop-color="#0F172A" stop-opacity="0"/>
</linearGradient>
<radialGradient id="paint2_radial_2305_1022" cx="0" cy="0" r="1" gradientUnits="userSpaceOnUse" gradientTransform="translate(523.474 514.583) rotate(-45.2829) scale(162.401 162.407)">
<stop stop-color="#2C3D5B"/>
<stop offset="0.73" stop-color="#315D93"/>
<stop offset="0.96" stop-color="#06A5FF"/>
</radialGradient>
<radialGradient id="paint3_radial_2305_1022" cx="0" cy="0" r="1" gradientUnits="userSpaceOnUse" gradientTransform="translate(510.938 524.197) scale(108.146 107.78)">
<stop stop-color="#2C3D5B"/>
<stop offset="0.73" stop-color="#315D93"/>
<stop offset="0.96" stop-color="#06A5FF"/>
</radialGradient>
<clipPath id="clip0_2305_1022">
<rect width="1024" height="800" fill="white"/>
</clipPath>
<clipPath id="clip1_2305_1022">
<rect width="531.276" height="624.038" fill="white" transform="translate(561.029 87.2198)"/>
</clipPath>
<clipPath id="clip2_2305_1022">
<rect width="1407.54" height="715.268" fill="white" transform="translate(-231 85)"/>
</clipPath>
</defs>
</svg>
