<svg width="127" height="40" viewBox="0 0 127 40" fill="none" xmlns="http://www.w3.org/2000/svg">
<path d="M23.8392 24.1269C23.0305 24.1212 22.2415 23.8744 21.5719 23.4175C20.9022 22.9606 20.3817 22.3141 20.0761 21.5595C19.7705 20.805 19.6934 19.9761 19.8546 19.1774C20.0158 18.3787 20.4081 17.6461 20.9819 17.0718C21.5557 16.4974 22.2854 16.1072 23.079 15.9503C23.8726 15.7933 24.6945 15.8767 25.4411 16.1899C26.1877 16.5031 26.8256 17.032 27.2743 17.7101C27.7231 18.3881 27.9625 19.1849 27.9626 19.9999C27.9584 21.0981 27.5217 22.1497 26.7485 22.9236C25.9753 23.6974 24.9289 24.1302 23.8392 24.1269ZM23.8392 16.7904C23.2094 16.7979 22.596 16.9931 22.0761 17.3512C21.5562 17.7094 21.1531 18.2146 20.9176 18.8032C20.682 19.3919 20.6246 20.0376 20.7525 20.659C20.8803 21.2805 21.1878 21.8499 21.6362 22.2956C22.0845 22.7413 22.6537 23.0433 23.2721 23.1636C23.8904 23.2839 24.5303 23.2171 25.111 22.9717C25.6918 22.7262 26.1875 22.3131 26.5357 21.7842C26.884 21.2554 27.0692 20.6346 27.068 19.9999C27.0655 19.5751 26.98 19.1549 26.8164 18.7634C26.6528 18.3719 26.4143 18.0167 26.1145 17.7181C25.8146 17.4194 25.4594 17.1832 25.069 17.023C24.6786 16.8627 24.2607 16.7815 23.8392 16.7841V16.7904Z" fill="#00C4D0"/>
<path d="M30.989 27.8301C30.4041 27.8332 29.8239 27.7255 29.2785 27.5127C28.7136 27.289 28.1985 26.9543 27.7632 26.5281C27.3278 26.1019 26.981 25.5927 26.7427 25.0302C26.5044 24.4753 26.3784 23.8782 26.3719 23.2737C26.3654 22.6692 26.4786 22.0694 26.7049 21.5095C26.7496 21.3984 26.8363 21.3097 26.9459 21.263C27.0555 21.2162 27.179 21.2153 27.2892 21.2603C27.3995 21.3054 27.4875 21.3927 27.5339 21.5032C27.5803 21.6136 27.5812 21.7381 27.5365 21.8492C27.3547 22.2984 27.2636 22.7797 27.2685 23.2648C27.2734 23.7499 27.3741 24.2292 27.5649 24.6746C27.7574 25.1273 28.0372 25.537 28.3882 25.8798C28.7392 26.2226 29.1542 26.4917 29.6093 26.6714C30.5242 27.0387 31.5459 27.0277 32.4528 26.6408C33.3597 26.254 34.0788 25.5224 34.454 24.6048C35.2667 22.5826 35.2384 20.0429 35.2384 20.0175C35.2384 12.3985 29.0265 6.19851 21.3782 6.19851C18.3387 6.18948 15.3808 7.18948 12.9616 9.04399C10.5423 10.8985 8.79647 13.5043 7.99368 16.4588C7.98132 16.5188 7.95694 16.5757 7.92202 16.6259C7.88711 16.6761 7.8424 16.7186 7.79062 16.7508C7.73884 16.783 7.68109 16.8042 7.6209 16.8132C7.56071 16.8221 7.49934 16.8186 7.44055 16.8028C7.38176 16.787 7.32678 16.7593 7.27898 16.7214C7.23118 16.6834 7.19156 16.6361 7.16254 16.5822C7.13352 16.5283 7.11572 16.469 7.11023 16.4079C7.10473 16.3469 7.11165 16.2853 7.13057 16.227C7.98399 13.0807 9.8419 10.3053 12.4172 8.32966C14.9925 6.35404 18.1417 5.28822 21.3782 5.29693C29.5085 5.29693 36.1204 11.8969 36.1204 20.0111C36.1204 20.1159 36.1519 22.7476 35.273 24.9413C34.9234 25.7964 34.3295 26.5276 33.5667 27.042C32.804 27.5563 31.9067 27.8307 30.989 27.8301Z" fill="#00C4D0"/>
<path d="M31.6034 20.4488C31.5444 20.4492 31.4859 20.4379 31.4312 20.4154C31.3766 20.3929 31.3269 20.3598 31.285 20.3179C31.2432 20.276 31.2099 20.2261 31.1873 20.1712C31.1646 20.1163 31.1529 20.0575 31.1529 19.998C31.1379 17.7291 30.2309 15.5588 28.6307 13.9628C27.0305 12.3668 24.8677 11.4753 22.6163 11.4838C18.4803 11.4838 15.1098 14.2679 14.2277 18.4107C14.2031 18.5277 14.1333 18.6301 14.0338 18.6953C13.9343 18.7605 13.8131 18.7832 13.697 18.7583C13.5808 18.7335 13.4793 18.6632 13.4146 18.5629C13.3499 18.4625 13.3274 18.3404 13.352 18.2234C14.3223 13.652 18.0456 10.5822 22.6163 10.5822C25.1082 10.5687 27.5034 11.5529 29.2755 13.3185C31.0476 15.0842 32.0514 17.4867 32.0664 19.998C32.0665 20.0586 32.0544 20.1185 32.0309 20.1743C32.0075 20.23 31.9731 20.2804 31.9299 20.3225C31.8867 20.3646 31.8355 20.3974 31.7794 20.4191C31.7233 20.4408 31.6634 20.4509 31.6034 20.4488Z" fill="#00C4D0"/>
<path d="M20.3433 40.0008C19.1883 39.9945 18.0611 39.6436 17.1038 38.9924C16.1465 38.3412 15.402 37.4188 14.9644 36.3416C14.5267 35.2645 14.4154 34.0808 14.6445 32.9399C14.8737 31.7991 15.433 30.7522 16.2518 29.9314C17.0707 29.1105 18.1125 28.5525 19.2457 28.3277C20.379 28.1029 21.5529 28.2214 22.6194 28.6683C23.6858 29.1152 24.5971 29.8704 25.2381 30.8386C25.8791 31.8069 26.2213 32.9448 26.2213 34.1088C26.2154 35.6751 25.5933 37.1752 24.4913 38.2798C23.3893 39.3844 21.8975 40.0033 20.3433 40.0008ZM20.3433 29.1183C19.3653 29.1246 18.411 29.4226 17.6008 29.9747C16.7906 30.5269 16.1609 31.3085 15.7909 32.2209C15.4209 33.1333 15.3273 34.1357 15.522 35.1017C15.7166 36.0676 16.1906 36.9538 16.8844 37.6486C17.5782 38.3434 18.4606 38.8155 19.4203 39.0055C20.38 39.1955 21.374 39.0948 22.277 38.7162C23.18 38.3376 23.9515 37.6979 24.4943 36.878C25.037 36.058 25.3266 35.0944 25.3267 34.1088C25.3183 32.7835 24.7892 31.5155 23.8552 30.5825C22.9212 29.6496 21.6584 29.1276 20.3433 29.131V29.1183Z" fill="#00C4D0"/>
<path d="M17.0081 22.5395C16.8098 22.5393 16.6118 22.5234 16.4159 22.4919C15.9337 22.4165 15.4712 22.2452 15.0553 21.9879C14.6395 21.7307 14.2785 21.3927 13.9935 20.9935C13.7107 20.6017 13.5077 20.1573 13.3963 19.6859C13.285 19.2146 13.2674 18.7257 13.3446 18.2475C13.3634 18.1292 13.4281 18.0233 13.5244 17.953C13.6207 17.8828 13.7407 17.8539 13.8581 17.8729C13.9755 17.8918 14.0806 17.957 14.1503 18.054C14.22 18.1511 14.2486 18.272 14.2298 18.3903C14.1714 18.7512 14.1845 19.1202 14.2683 19.476C14.3521 19.8318 14.505 20.1673 14.718 20.4633C15.0473 20.9094 15.4985 21.2489 16.0164 21.4404C16.5343 21.6318 17.0963 21.6668 17.6337 21.5411C18.171 21.4154 18.6603 21.1345 19.0416 20.7327C19.4228 20.3309 19.6795 19.8258 19.7801 19.2792C19.7994 19.1609 19.8644 19.0552 19.961 18.9852C20.0576 18.9153 20.1778 18.8868 20.2952 18.9062C20.4126 18.9256 20.5175 18.9911 20.5869 19.0885C20.6563 19.1858 20.6845 19.307 20.6653 19.4252C20.5199 20.2965 20.0727 21.0876 19.403 21.6578C18.7334 22.2281 17.8848 22.5405 17.0081 22.5395Z" fill="#00C4D0"/>
<path d="M36.7431 28.1936C36.2367 28.1925 35.7422 28.039 35.323 27.7528C34.9038 27.4666 34.5789 27.0608 34.39 26.5873C34.2682 26.2787 34.2088 25.9488 34.2153 25.6168C34.2218 25.2848 34.294 24.9574 34.4278 24.6539C34.4775 24.5477 34.5663 24.4652 34.6755 24.424C34.7846 24.3828 34.9053 24.3862 35.012 24.4333C35.1188 24.4805 35.203 24.5677 35.2468 24.6765C35.2907 24.7853 35.2907 24.9071 35.2468 25.0159C35.161 25.2102 35.1148 25.42 35.1111 25.6326C35.1073 25.8453 35.1459 26.0566 35.2248 26.2539C35.3026 26.4551 35.4196 26.6386 35.5689 26.7934C35.7182 26.9483 35.8968 27.0714 36.0942 27.1555C36.4892 27.3269 36.9349 27.3358 37.3363 27.1804C37.7377 27.025 38.063 26.7175 38.2425 26.3238C38.9539 24.2924 39.3181 22.1542 39.3198 20C39.3198 9.46355 30.7265 0.888989 20.1644 0.888989C15.8965 0.874724 11.7464 2.29945 8.37461 4.93645C5.00282 7.57345 2.60304 11.2712 1.55715 15.4413C1.37454 16.2075 1.34511 17.0026 1.47058 17.7804C1.59606 18.5582 1.87392 19.303 2.28796 19.9714C2.91996 20.994 3.83705 21.8061 4.92458 22.3062C6.0121 22.8063 7.22178 22.9722 8.40236 22.7832C9.58294 22.5942 10.682 22.0586 11.5622 21.2434C12.4423 20.4282 13.0645 19.3696 13.3509 18.2C13.3785 18.0834 13.4509 17.9826 13.5522 17.9198C13.6535 17.857 13.7754 17.8373 13.8911 17.8651C14.0068 17.8929 14.1069 17.9658 14.1692 18.0679C14.2315 18.1701 14.251 18.2929 14.2235 18.4095C13.8964 19.7527 13.1834 20.9688 12.1737 21.9054C11.1641 22.8421 9.90267 23.4578 8.54744 23.6754C7.19221 23.893 5.80341 23.7028 4.55493 23.1286C3.30646 22.5545 2.25381 21.6219 1.5288 20.4476C1.05248 19.679 0.732795 18.8225 0.588393 17.9281C0.443991 17.0337 0.477764 16.1193 0.687742 15.2381C1.78155 10.8722 4.29303 7.00046 7.82244 4.23915C11.3518 1.47784 15.6963 -0.0143449 20.1644 0.000103951C31.2211 0.000103951 40.2176 8.97784 40.2176 20C40.214 22.2637 39.8295 24.5103 39.0804 26.6444C39.0816 26.6539 39.0816 26.6635 39.0804 26.673C38.8819 27.1297 38.5545 27.5174 38.1388 27.7878C37.7232 28.0582 37.2378 28.1993 36.7431 28.1936Z" fill="#00C4D0"/>
<path d="M49.407 24.9625C49.348 24.9629 49.2895 24.9516 49.2349 24.9291C49.1802 24.9066 49.1305 24.8735 49.0887 24.8316C49.0468 24.7897 49.0136 24.7399 48.9909 24.685C48.9682 24.63 48.9565 24.5712 48.9565 24.5117V15.4863C48.966 15.3729 49.0174 15.2672 49.1005 15.1901C49.1836 15.1131 49.2925 15.0703 49.4054 15.0703C49.5184 15.0703 49.6272 15.1131 49.7103 15.1901C49.7935 15.2672 49.8449 15.3729 49.8543 15.4863V24.5117C49.8543 24.6313 49.8072 24.7459 49.7233 24.8305C49.6394 24.915 49.5256 24.9625 49.407 24.9625Z" fill="#00C4D0"/>
<path d="M56.8407 24.9636C56.748 24.9645 56.6575 24.9356 56.5823 24.8811L50.2823 20.4081C50.2305 20.3757 50.1859 20.333 50.1511 20.2827C50.1163 20.2323 50.092 20.1754 50.0799 20.1152C50.0677 20.0551 50.0678 19.9931 50.0802 19.933C50.0926 19.873 50.1171 19.8161 50.1521 19.7659C50.1871 19.7156 50.2319 19.6732 50.2838 19.641C50.3357 19.6089 50.3935 19.5877 50.4537 19.5789C50.514 19.5701 50.5754 19.5737 50.6342 19.5897C50.693 19.6056 50.748 19.6335 50.7957 19.6716L57.0958 24.1446C57.1734 24.1998 57.2316 24.2785 57.2618 24.3692C57.2921 24.46 57.2929 24.5581 57.2641 24.6493C57.2353 24.7406 57.1785 24.8202 57.1018 24.8767C57.0251 24.9332 56.9325 24.9637 56.8375 24.9636H56.8407Z" fill="#00C4D0"/>
<path d="M49.4056 21.3014C49.3342 21.3024 49.2636 21.2858 49.1999 21.2532C49.1363 21.2205 49.0815 21.1728 49.0402 21.1141C49.0046 21.0659 48.9791 21.011 48.9651 20.9526C48.9511 20.8943 48.9489 20.8337 48.9586 20.7745C48.9683 20.7152 48.9897 20.6586 49.0216 20.6078C49.0534 20.5571 49.0951 20.5134 49.1441 20.4792L56.6065 15.111C56.6545 15.0766 56.7088 15.0521 56.7662 15.0388C56.8236 15.0255 56.883 15.0238 56.941 15.0336C56.9991 15.0435 57.0547 15.0648 57.1046 15.0963C57.1545 15.1279 57.1977 15.169 57.2318 15.2173C57.266 15.2657 57.2903 15.3203 57.3035 15.3782C57.3166 15.436 57.3184 15.4959 57.3086 15.5544C57.2988 15.6129 57.2776 15.6689 57.2464 15.7192C57.2151 15.7695 57.1743 15.8131 57.1263 15.8475L49.6639 21.2125C49.5893 21.269 49.4988 21.3001 49.4056 21.3014Z" fill="#00C4D0"/>
<path d="M70.4312 24.961C70.3723 24.9614 70.314 24.95 70.2595 24.9275C70.2051 24.905 70.1556 24.8718 70.114 24.8299C70.0724 24.7879 70.0394 24.7381 70.0171 24.6832C69.9948 24.6283 69.9835 24.5695 69.9839 24.5102V21.1578C69.9839 21.0383 70.031 20.9236 70.1149 20.8391C70.1988 20.7545 70.3126 20.707 70.4312 20.707C70.5498 20.707 70.6636 20.7545 70.7475 20.8391C70.8314 20.9236 70.8785 21.0383 70.8785 21.1578V24.5102C70.8785 24.6297 70.8314 24.7444 70.7475 24.8289C70.6636 24.9135 70.5498 24.961 70.4312 24.961Z" fill="#00C4D0"/>
<path d="M70.4292 21.6111C70.3553 21.611 70.2825 21.5928 70.2171 21.5579C70.1518 21.5231 70.0959 21.4727 70.0543 21.4111L66.3341 15.7381C66.2681 15.6383 66.2442 15.5162 66.2675 15.3986C66.2908 15.281 66.3596 15.1776 66.4586 15.1111C66.5576 15.0446 66.6787 15.0204 66.7954 15.0439C66.9121 15.0675 67.0147 15.1367 67.0807 15.2365L70.8103 20.9127C70.8445 20.9622 70.8685 21.0181 70.8808 21.0771C70.8931 21.1362 70.8936 21.1971 70.8821 21.2563C70.8707 21.3155 70.8476 21.3718 70.8141 21.4218C70.7807 21.4718 70.7376 21.5146 70.6875 21.5476C70.6095 21.5941 70.5196 21.6162 70.4292 21.6111Z" fill="#00C4D0"/>
<path d="M70.4311 21.6098C70.3499 21.6111 70.2699 21.5899 70.1998 21.5486C70.1296 21.5072 70.0721 21.4473 70.0335 21.3752C69.9948 21.3032 69.9765 21.2219 69.9805 21.1401C69.9845 21.0583 70.0107 20.9792 70.0563 20.9114L73.7922 15.2384C73.8582 15.1387 73.9608 15.0694 74.0775 15.0459C74.1942 15.0224 74.3153 15.0465 74.4143 15.113C74.5133 15.1796 74.5821 15.283 74.6054 15.4006C74.6287 15.5181 74.6048 15.6403 74.5388 15.74L70.806 21.413C70.7646 21.4746 70.7087 21.5249 70.6433 21.5592C70.5778 21.5936 70.5049 21.611 70.4311 21.6098Z" fill="#00C4D0"/>
<path d="M89.9601 24.9623H85.4902C84.9756 24.9623 84.482 24.7563 84.1181 24.3896C83.7542 24.0228 83.5498 23.5254 83.5498 23.0068V16.9751C83.5498 16.4564 83.7542 15.959 84.1181 15.5923C84.482 15.2256 84.9756 15.0195 85.4902 15.0195H89.9601C90.4748 15.0195 90.9683 15.2256 91.3322 15.5923C91.6961 15.959 91.9006 16.4564 91.9006 16.9751V23.0068C91.9006 23.5254 91.6961 24.0228 91.3322 24.3896C90.9683 24.7563 90.4748 24.9623 89.9601 24.9623ZM85.4902 15.937C85.2129 15.937 84.9469 16.048 84.7507 16.2457C84.5546 16.4433 84.4444 16.7114 84.4444 16.9909V23.0227C84.4444 23.3022 84.5546 23.5703 84.7507 23.7679C84.9469 23.9656 85.2129 24.0766 85.4902 24.0766H89.9601C90.2375 24.0766 90.5035 23.9656 90.6996 23.7679C90.8958 23.5703 91.006 23.3022 91.006 23.0227V16.9909C91.006 16.7114 90.8958 16.4433 90.6996 16.2457C90.5035 16.048 90.2375 15.937 89.9601 15.937H85.4902Z" fill="#00C4D0"/>
<path d="M124.559 24.964H120.08C119.566 24.9632 119.073 24.7569 118.709 24.3903C118.345 24.0238 118.14 23.5269 118.14 23.0085V22.3482C118.149 22.2347 118.2 22.129 118.284 22.052C118.367 21.9749 118.476 21.9321 118.589 21.9321C118.701 21.9321 118.81 21.9749 118.893 22.052C118.977 22.129 119.028 22.2347 119.037 22.3482V23.0085C119.037 23.2875 119.147 23.5551 119.343 23.7526C119.538 23.9502 119.803 24.0616 120.08 24.0625H124.559C124.837 24.0625 125.103 23.9514 125.299 23.7538C125.495 23.5561 125.605 23.288 125.605 23.0085V21.5037C125.604 21.2248 125.494 20.9575 125.298 20.7605C125.102 20.5636 124.836 20.453 124.559 20.453H120.08C119.566 20.4513 119.073 20.2447 118.71 19.8783C118.346 19.512 118.141 19.0155 118.14 18.4974V16.9927C118.14 16.4743 118.345 15.9774 118.709 15.6108C119.073 15.2442 119.566 15.0379 120.08 15.0371H124.559C125.074 15.0371 125.568 15.2431 125.932 15.6099C126.295 15.9766 126.5 16.474 126.5 16.9927V17.5895C126.5 17.709 126.453 17.8237 126.369 17.9082C126.285 17.9928 126.171 18.0403 126.053 18.0403C125.934 18.0403 125.82 17.9928 125.736 17.9082C125.652 17.8237 125.605 17.709 125.605 17.5895V16.9927C125.605 16.7131 125.495 16.445 125.299 16.2474C125.103 16.0497 124.837 15.9387 124.559 15.9387H120.08C119.803 15.9395 119.538 16.0509 119.343 16.2485C119.147 16.4461 119.037 16.7137 119.037 16.9927V18.4974C119.037 18.7761 119.147 19.0434 119.343 19.2404C119.538 19.4375 119.804 19.5482 120.08 19.5482H124.559C125.074 19.549 125.567 19.7553 125.931 20.1219C126.294 20.4884 126.499 20.9854 126.5 21.5037V23.0085C126.5 23.5271 126.295 24.0245 125.932 24.3913C125.568 24.758 125.074 24.964 124.559 24.964Z" fill="#00C4D0"/>
<path d="M108.756 24.9621C108.691 24.9623 108.626 24.9479 108.567 24.9199C108.507 24.8919 108.455 24.851 108.413 24.8002L101.741 16.7336V24.5113C101.741 24.5705 101.73 24.6291 101.707 24.6838C101.685 24.7385 101.652 24.7882 101.61 24.8301C101.569 24.8719 101.519 24.9051 101.465 24.9278C101.411 24.9504 101.353 24.9621 101.294 24.9621C101.235 24.9621 101.177 24.9504 101.123 24.9278C101.069 24.9051 101.019 24.8719 100.978 24.8301C100.936 24.7882 100.903 24.7385 100.881 24.6838C100.858 24.6291 100.847 24.5705 100.847 24.5113V15.4859C100.847 15.3933 100.875 15.303 100.928 15.2272C100.981 15.1514 101.055 15.0937 101.142 15.0622C101.228 15.0306 101.322 15.0266 101.411 15.0508C101.499 15.0749 101.578 15.126 101.637 15.1971L108.309 23.2637V15.4859C108.309 15.3664 108.356 15.2517 108.44 15.1672C108.524 15.0827 108.638 15.0352 108.756 15.0352C108.875 15.0352 108.989 15.0827 109.073 15.1672C109.157 15.2517 109.204 15.3664 109.204 15.4859V24.5113C109.204 24.6043 109.176 24.6952 109.123 24.7713C109.07 24.8475 108.995 24.9052 108.908 24.9367C108.859 24.9546 108.808 24.9632 108.756 24.9621Z" fill="#00C4D0"/>
</svg>
