<svg width="109" height="108" viewBox="0 0 109 108" fill="none" xmlns="http://www.w3.org/2000/svg">
<g id="Artboard 1 5">
<g clip-path="url(#clip0_2361_1470)">
<g id="Group">
<g id="Layer 1">
<path id="Vector" d="M108.5 0H0.5V108H108.5V0Z" fill="url(#paint0_radial_2361_1470)"/>
<g id="Group_2">
<path id="Vector_2" d="M99.5 32.1817V113.52H9.5V45.4029C9.5 26.565 14.145 22 19.8864 22H89.1136C94.855 22 99.5 26.565 99.5 32.1817Z" fill="#0075FF"/>
<path id="Vector_3" d="M24.0009 29.0843H84.9991C89.538 29.0843 93.2281 32.7016 93.2281 37.1511V113.52H15.772V37.1395C15.772 32.6901 19.462 29.0728 24.0009 29.0728V29.0843Z" fill="white"/>
<g id="Vector_4" style="mix-blend-mode:color-dodge">
<path d="M84.8576 22C84.8576 22 81.7452 23.6758 79.6231 24.2652C77.4893 24.8546 36.4859 24.1612 23.1992 24.2652C9.90084 24.3576 9.5 40.2369 9.5 40.2369V32.1817C9.5 26.565 14.145 22 19.8864 22H84.8576Z" fill="#0842B7"/>
</g>
<path id="Vector_5" d="M93.2284 46.3618L44.8213 107.152L93.2284 107.036V46.3618Z" fill="#BED1FF"/>
<g id="Group_3">
<g id="Group_4">
<path id="Vector_6" d="M43.2531 37.7637H25.0504C22.3873 37.7637 20.2285 39.8799 20.2285 42.4905V59.2944C20.2285 61.9049 22.3873 64.0212 25.0504 64.0212H43.2531C45.9162 64.0212 48.075 61.9049 48.075 59.2944V42.4905C48.075 39.8799 45.9162 37.7637 43.2531 37.7637Z" fill="#FB923C"/>
<path id="Vector_7" d="M23.1646 50.7306C23.1646 50.7306 31.1459 51.2044 32.3838 59.0285C32.3838 59.0285 31.9712 47.5177 42.3576 40.2368C42.3576 40.2368 43.2065 43.8773 45.9652 44.7672C45.9652 44.7672 35.6966 50.1412 32.6078 62.1604C32.6078 62.1604 30.8158 55.9312 24.1902 55.3418C24.1902 55.3418 24.6618 52.7646 23.1646 50.7306Z" fill="white"/>
<path id="Vector_8" d="M87.1209 37.7637H53.0025C52.1886 37.7637 51.5288 38.4105 51.5288 39.2083V43.1261C51.5288 43.924 52.1886 44.5707 53.0025 44.5707H87.1209C87.9348 44.5707 88.5946 43.924 88.5946 43.1261V39.2083C88.5946 38.4105 87.9348 37.7637 87.1209 37.7637Z" fill="#0075FF"/>
<path id="Vector_9" d="M87.1209 47.7949H53.0025C52.1886 47.7949 51.5288 48.4417 51.5288 49.2395V53.1574C51.5288 53.9552 52.1886 54.602 53.0025 54.602H87.1209C87.9348 54.602 88.5946 53.9552 88.5946 53.1574V49.2395C88.5946 48.4417 87.9348 47.7949 87.1209 47.7949Z" fill="#0075FF"/>
<path id="Vector_10" d="M75.4848 57.2144H52.7431C52.0725 57.2144 51.5288 57.7473 51.5288 58.4047V62.831C51.5288 63.4885 52.0725 64.0214 52.7431 64.0214H75.4848C76.1554 64.0214 76.6991 63.4885 76.6991 62.831V58.4047C76.6991 57.7473 76.1554 57.2144 75.4848 57.2144Z" fill="#0075FF"/>
</g>
<g id="Group_5">
<path id="Vector_11" d="M43.2531 70.4233H25.0504C22.3873 70.4233 20.2285 72.5396 20.2285 75.1502V91.954C20.2285 94.5646 22.3873 96.6808 25.0504 96.6808H43.2531C45.9162 96.6808 48.075 94.5646 48.075 91.954V75.1502C48.075 72.5396 45.9162 70.4233 43.2531 70.4233Z" fill="#FB923C"/>
<path id="Vector_12" d="M23.1646 83.402C23.1646 83.402 31.1459 83.8758 32.3838 91.6999C32.3838 91.6999 31.9712 80.1891 42.3576 72.9082C42.3576 72.9082 43.2065 76.5487 45.9652 77.4386C45.9652 77.4386 35.6966 82.8126 32.6078 94.8318C32.6078 94.8318 30.8158 88.6026 24.1902 88.0132C24.1902 88.0132 24.6618 85.436 23.1646 83.402Z" fill="white"/>
<path id="Vector_13" d="M87.1209 70.4233H53.0025C52.1886 70.4233 51.5288 71.0701 51.5288 71.868V75.7858C51.5288 76.5836 52.1886 77.2304 53.0025 77.2304H87.1209C87.9348 77.2304 88.5946 76.5836 88.5946 75.7858V71.868C88.5946 71.0701 87.9348 70.4233 87.1209 70.4233Z" fill="#0075FF"/>
<path id="Vector_14" d="M87.1209 80.4663H53.0025C52.1886 80.4663 51.5288 81.1131 51.5288 81.9109V85.8288C51.5288 86.6266 52.1886 87.2734 53.0025 87.2734H87.1209C87.9348 87.2734 88.5946 86.6266 88.5946 85.8288V81.9109C88.5946 81.1131 87.9348 80.4663 87.1209 80.4663Z" fill="#0075FF"/>
<path id="Vector_15" d="M75.4848 89.874H52.7431C52.0725 89.874 51.5288 90.407 51.5288 91.0644V95.4907C51.5288 96.1481 52.0725 96.6811 52.7431 96.6811H75.4848C76.1554 96.6811 76.6991 96.1481 76.6991 95.4907V91.0644C76.6991 90.407 76.1554 89.874 75.4848 89.874Z" fill="#0075FF"/>
</g>
<g id="Group_6">
<path id="Vector_16" d="M43.2531 103.742H25.0504C22.3873 103.742 20.2285 105.858 20.2285 108.469V125.273C20.2285 127.883 22.3873 130 25.0504 130H43.2531C45.9162 130 48.075 127.883 48.075 125.273V108.469C48.075 105.858 45.9162 103.742 43.2531 103.742Z" fill="#FB923C"/>
<path id="Vector_17" d="M23.1646 116.72C23.1646 116.72 31.1459 117.194 32.3838 125.018C32.3838 125.018 31.9712 113.507 42.3576 106.227C42.3576 106.227 43.2065 109.867 45.9652 110.757C45.9652 110.757 35.6966 116.131 32.6078 128.15C32.6078 128.15 30.8158 121.921 24.1902 121.332C24.1902 121.332 24.6618 118.754 23.1646 116.72Z" fill="white"/>
<path id="Vector_18" d="M87.1209 103.742H53.0025C52.1886 103.742 51.5288 104.389 51.5288 105.187V109.105C51.5288 109.902 52.1886 110.549 53.0025 110.549H87.1209C87.9348 110.549 88.5946 109.902 88.5946 109.105V105.187C88.5946 104.389 87.9348 103.742 87.1209 103.742Z" fill="#0075FF"/>
</g>
</g>
</g>
</g>
</g>
</g>
</g>
<defs>
<radialGradient id="paint0_radial_2361_1470" cx="0" cy="0" r="1" gradientUnits="userSpaceOnUse" gradientTransform="translate(53.46 106.4) scale(107.95)">
<stop stop-color="#2F7FDD"/>
<stop offset="1" stop-color="#041E64"/>
</radialGradient>
<clipPath id="clip0_2361_1470">
<rect x="0.5" width="108" height="108" rx="16" fill="white"/>
</clipPath>
</defs>
</svg>
