<svg width="90" height="96" viewBox="0 0 90 96" fill="none" xmlns="http://www.w3.org/2000/svg">
<g>
<ellipse cx="45" cy="45" rx="9" ry="6" fill="url(#paint0_radial_1771_1823)"/>
</g>
<path d="M56.9984 11.9586C56.8226 21.7299 49.3916 28.9502 46.3141 31.5273C45.5585 32.1601 44.4392 32.1571 43.6835 31.5243C40.5672 28.9142 33 21.5522 33 11.6062C33 5.20248 38.3627 0.00997271 44.9818 1.36507e-05C51.7323 -0.00994541 57.1156 5.43077 56.9984 11.9586Z" fill="url(#paint0_radial_1771_1823)"/>
<path d="M45.0009 19.8408C49.7476 19.8408 53.5955 16.1194 53.5955 11.5288C53.5955 6.9382 49.7476 3.2168 45.0009 3.2168C40.2542 3.2168 36.4062 6.9382 36.4062 11.5288C36.4062 16.1194 40.2542 19.8408 45.0009 19.8408Z" fill="white"/>
<path d="M51.6326 6.24205C50.1474 5.05846 48.2439 4.34677 46.1693 4.34677C41.4228 4.34677 37.5746 8.06839 37.5746 12.6588C37.5746 14.6651 38.3105 16.506 39.5344 17.9424C37.6238 16.4179 36.4062 14.1105 36.4062 11.5288C36.4062 6.93842 40.2544 3.2168 45.0009 3.2168C47.6704 3.2168 50.0563 4.39426 51.6326 6.24205Z" fill="#C15802"/>
<path d="M43.0102 0.949085C41.4505 1.1858 37.1287 2.25679 35.3313 6.93831C35.1301 7.46231 35.862 7.83693 36.1916 7.37728C37.5651 5.46514 39.8576 3.14544 43.1742 2.50653C43.3984 2.46363 43.5592 2.27211 43.5631 2.05071L43.5742 1.42559C43.579 1.13218 43.3105 0.903886 43.0102 0.949085Z" fill="white"/>
<defs>
<radialGradient id="paint0_radial_1771_1823" cx="0" cy="0" r="1" gradientUnits="userSpaceOnUse" gradientTransform="translate(40.9399 -7.33342) rotate(84.2366) scale(39.5337 34.9881)">
<stop stop-color="#FDBA74"/>
<stop offset="0.672951" stop-color="#FB7200"/>
</radialGradient>
</defs>
</svg>
