<svg width="40" height="40" viewBox="0 0 40 40" fill="none" xmlns="http://www.w3.org/2000/svg">
<g id="local_library">
<mask id="mask0_3142_577" style="mask-type:alpha" maskUnits="userSpaceOnUse" x="0" y="0" width="40" height="40">
<rect id="Bounding box" width="40" height="40" fill="#D9D9D9"/>
</mask>
<g mask="url(#mask0_3142_577)">
<path id="local_library_2" d="M4.66113 28.7427V16.8659C4.66113 15.9483 4.99642 15.1745 5.66701 14.5445C6.33756 13.9145 7.1294 13.6273 8.04251 13.6829C10.2701 14.0029 12.3986 14.6272 14.4279 15.5556C16.4572 16.4841 18.3145 17.7022 19.9999 19.2101C21.6853 17.7022 23.5426 16.4841 25.5719 15.5556C27.6012 14.6272 29.7297 14.0029 31.9573 13.6829C32.8705 13.6273 33.6623 13.9145 34.3328 14.5445C35.0034 15.1745 35.3387 15.9483 35.3387 16.8659V28.7427C35.3387 29.6675 35.0354 30.455 34.4288 31.1052C33.8223 31.7554 33.0579 32.1117 32.1358 32.1739C30.328 32.4587 28.5767 32.9288 26.8818 33.5841C25.187 34.2394 23.6009 35.1028 22.1236 36.1745C21.8111 36.4283 21.4762 36.616 21.119 36.7377C20.7619 36.8594 20.3888 36.9202 19.9999 36.9202C19.611 36.9202 19.238 36.8594 18.8808 36.7377C18.5236 36.6161 18.1888 36.4283 17.8763 36.1745C16.3989 35.1028 14.8128 34.2394 13.118 33.5841C11.4232 32.9288 9.67185 32.4587 7.86405 32.1739C6.94194 32.1117 6.17759 31.7554 5.57101 31.1052C4.96442 30.455 4.66113 29.6675 4.66113 28.7427ZM19.9999 33.1068C21.7034 31.8212 23.5313 30.7862 25.4836 30.0017C27.4359 29.2173 29.457 28.6868 31.547 28.4103V17.6277C29.5458 17.9556 27.5744 18.6515 25.6326 19.7155C23.6909 20.7795 21.8133 22.2083 19.9999 24.0018C18.2197 22.2415 16.3571 20.8294 14.412 19.7654C12.467 18.7014 10.4806 17.9888 8.45284 17.6277V28.4103C10.5162 28.6735 12.5257 29.1991 14.4813 29.9868C16.437 30.7745 18.2765 31.8145 19.9999 33.1068ZM20.0013 15.1693C18.1272 15.1693 16.5224 14.502 15.187 13.1675C13.8515 11.8329 13.1838 10.2286 13.1838 8.35452C13.1838 6.48044 13.8511 4.87402 15.1856 3.53527C16.5202 2.19649 18.1245 1.5271 19.9986 1.5271C21.8727 1.5271 23.4774 2.19649 24.8129 3.53527C26.1483 4.87402 26.816 6.48044 26.816 8.35452C26.816 10.2286 26.1488 11.8329 24.8142 13.1675C23.4796 14.502 21.8753 15.1693 20.0013 15.1693ZM20.0013 11.5271C20.8772 11.5271 21.6266 11.2173 22.2495 10.5978C22.8724 9.97819 23.1838 9.23044 23.1838 8.35452C23.1838 7.4786 22.8719 6.72875 22.2481 6.10498C21.6244 5.4812 20.8745 5.16931 19.9986 5.16931C19.1227 5.16931 18.3733 5.4812 17.7504 6.10498C17.1275 6.72875 16.8161 7.4786 16.8161 8.35452C16.8161 9.23044 17.1279 9.97819 17.7517 10.5978C18.3755 11.2173 19.1253 11.5271 20.0013 11.5271Z" fill="url(#paint0_radial_3142_577)"/>
</g>
</g>
<defs>
<radialGradient id="paint0_radial_3142_577" cx="0" cy="0" r="1" gradientUnits="userSpaceOnUse" gradientTransform="translate(14.8101 -6.58382) rotate(83.3469) scale(43.799 44.6469)">
<stop stop-color="#4CE1EA"/>
<stop offset="0.672951" stop-color="#1FA1A9"/>
</radialGradient>
</defs>
</svg>
