<svg width="270" height="324" viewBox="0 0 270 324" fill="none" xmlns="http://www.w3.org/2000/svg">
<g opacity="0.5">
<path d="M131.139 195.424C124.308 195.378 117.644 193.379 111.987 189.678C106.331 185.977 101.934 180.741 99.3529 174.629C96.7715 168.517 96.1206 161.803 97.4822 155.334C98.8438 148.865 102.157 142.93 107.004 138.278C111.851 133.627 118.014 130.466 124.718 129.195C131.421 127.924 138.364 128.599 144.67 131.136C150.977 133.672 156.365 137.957 160.155 143.449C163.946 148.941 165.968 155.395 165.969 161.996C165.933 170.891 162.245 179.409 155.714 185.677C149.183 191.945 140.343 195.451 131.139 195.424ZM131.139 136C125.82 136.06 120.638 137.641 116.247 140.542C111.855 143.444 108.45 147.536 106.461 152.303C104.471 157.071 103.986 162.301 105.066 167.335C106.146 172.368 108.743 176.981 112.531 180.591C116.318 184.201 121.126 186.647 126.349 187.621C131.572 188.596 136.977 188.055 141.882 186.067C146.788 184.079 150.975 180.732 153.916 176.449C156.858 172.165 158.422 167.137 158.412 161.996C158.391 158.555 157.669 155.152 156.287 151.981C154.905 148.809 152.89 145.932 150.358 143.513C147.825 141.095 144.824 139.182 141.527 137.883C138.229 136.585 134.699 135.928 131.139 135.948V136Z" fill="#D0EEFF"/>
<path d="M191.53 225.42C186.59 225.444 181.689 224.572 177.082 222.848C172.31 221.036 167.96 218.326 164.282 214.873C160.605 211.421 157.675 207.297 155.663 202.74C153.65 198.246 152.585 193.41 152.53 188.513C152.475 183.617 153.432 178.759 155.343 174.224C155.721 173.324 156.453 172.605 157.379 172.227C158.304 171.848 159.348 171.84 160.279 172.205C161.211 172.57 161.954 173.278 162.346 174.172C162.737 175.067 162.745 176.075 162.368 176.975C160.832 180.614 160.063 184.512 160.104 188.441C160.145 192.37 160.996 196.252 162.607 199.86C164.233 203.527 166.597 206.846 169.562 209.622C172.526 212.399 176.032 214.578 179.876 216.034C187.604 219.009 196.234 218.92 203.895 215.786C211.555 212.653 217.629 206.727 220.799 199.295C227.663 182.915 227.424 162.344 227.424 162.138C227.424 100.426 174.953 50.2069 110.349 50.2069C84.6751 50.1337 59.6903 58.2336 39.2556 73.2548C18.8209 88.2761 4.07375 109.383 -2.70721 133.313C-2.8116 133.8 -3.01758 134.26 -3.3125 134.667C-3.60742 135.074 -3.9851 135.418 -4.42245 135.679C-4.85979 135.94 -5.34759 136.112 -5.85603 136.184C-6.36446 136.256 -6.88285 136.228 -7.37945 136.1C-7.87606 135.972 -8.34044 135.748 -8.74421 135.44C-9.14799 135.133 -9.48265 134.749 -9.72774 134.313C-9.97282 133.876 -10.1232 133.396 -10.1696 132.902C-10.216 132.407 -10.1576 131.908 -9.99775 131.436C-2.78911 105.952 12.9044 83.4712 34.6573 67.4689C56.4102 51.4667 83.0113 42.8337 110.349 42.9042C179.024 42.9042 234.874 96.3629 234.874 162.087C234.874 162.936 235.14 184.252 227.717 202.02C224.763 208.947 219.747 214.87 213.304 219.036C206.861 223.202 199.282 225.424 191.53 225.42Z" fill="#D0EEFF"/>
<path d="M196.719 165.632C196.22 165.635 195.726 165.543 195.265 165.361C194.803 165.179 194.384 164.911 194.03 164.571C193.676 164.232 193.396 163.828 193.204 163.384C193.013 162.939 192.914 162.462 192.914 161.98C192.787 143.603 185.126 126.024 171.609 113.096C158.093 100.169 139.824 92.948 120.807 93.0164C85.8706 93.0164 57.4003 115.567 49.9501 149.124C49.7419 150.072 49.1526 150.901 48.3118 151.429C47.471 151.957 46.4475 152.14 45.4666 151.939C44.4857 151.738 43.6277 151.169 43.0813 150.356C42.5349 149.543 42.3449 148.554 42.5531 147.607C50.7483 110.579 82.1987 85.7138 120.807 85.7138C141.855 85.6043 162.087 93.5765 177.056 107.878C192.024 122.179 200.504 141.639 200.63 161.98C200.631 162.471 200.529 162.956 200.33 163.408C200.132 163.86 199.842 164.268 199.477 164.609C199.112 164.95 198.68 165.216 198.206 165.392C197.732 165.567 197.226 165.649 196.719 165.632Z" fill="#D0EEFF"/>
<path d="M101.61 324C91.854 323.949 82.3324 321.107 74.2463 315.832C66.1602 310.557 59.8719 303.086 56.1749 294.361C52.4779 285.636 51.5378 276.049 53.4733 266.808C55.4087 257.568 60.133 249.088 67.0499 242.439C73.9669 235.791 82.7667 231.271 92.3389 229.45C101.911 227.629 111.827 228.589 120.835 232.209C129.844 235.828 137.541 241.945 142.955 249.788C148.37 257.631 151.26 266.847 151.26 276.275C151.211 288.963 145.955 301.113 136.647 310.06C127.339 319.007 114.738 324.02 101.61 324ZM101.61 235.854C93.3486 235.904 85.288 238.318 78.4446 242.79C71.6012 247.263 66.2815 253.593 63.1564 260.984C60.0314 268.374 59.2409 276.494 60.8847 284.318C62.5286 292.142 66.5331 299.32 72.3932 304.948C78.2534 310.575 85.7067 314.399 93.8131 315.938C101.919 317.477 110.316 316.662 117.943 313.595C125.571 310.528 132.088 305.347 136.672 298.706C141.257 292.064 143.703 284.259 143.703 276.275C143.633 265.541 139.164 255.27 131.274 247.713C123.385 240.157 112.718 235.929 101.61 235.956V235.854Z" fill="#D0EEFF"/>
<path d="M73.4363 182.566C71.761 182.565 70.0884 182.436 68.434 182.181C64.361 181.57 60.4544 180.182 56.9416 178.099C53.4288 176.015 50.38 173.277 47.9726 170.044C45.5836 166.87 43.8692 163.271 42.9284 159.453C41.9876 155.635 41.839 151.675 42.4914 147.802C42.6502 146.843 43.1963 145.985 44.0097 145.416C44.823 144.847 45.837 144.614 46.8285 144.767C47.82 144.921 48.7078 145.449 49.2966 146.235C49.8854 147.021 50.127 148.001 49.9682 148.959C49.4754 151.882 49.5861 154.871 50.2939 157.752C51.0018 160.634 52.2927 163.352 54.0924 165.75C56.8736 169.363 60.6849 172.113 65.0594 173.664C69.434 175.214 74.1816 175.498 78.7204 174.48C83.2593 173.462 87.3922 171.186 90.6126 167.932C93.8331 164.677 96.0012 160.586 96.8512 156.159C97.0135 155.2 97.5631 154.344 98.3789 153.777C99.1948 153.21 100.21 152.98 101.202 153.137C102.193 153.294 103.079 153.825 103.666 154.613C104.252 155.402 104.49 156.383 104.328 157.341C103.1 164.399 99.3221 170.806 93.6658 175.425C88.0095 180.044 80.8415 182.574 73.4363 182.566Z" fill="#D0EEFF"/>
<path d="M240.135 228.364C235.858 228.355 231.681 227.111 228.14 224.793C224.598 222.475 221.854 219.188 220.259 215.353C219.23 212.854 218.728 210.181 218.783 207.492C218.838 204.802 219.448 202.151 220.578 199.693C220.998 198.833 221.748 198.165 222.67 197.831C223.592 197.497 224.612 197.524 225.513 197.906C226.415 198.288 227.126 198.995 227.496 199.876C227.867 200.757 227.867 201.743 227.496 202.624C226.771 204.199 226.382 205.898 226.349 207.62C226.318 209.343 226.644 211.054 227.31 212.653C227.967 214.282 228.956 215.768 230.217 217.023C231.478 218.277 232.987 219.274 234.654 219.955C237.99 221.343 241.756 221.415 245.146 220.157C248.537 218.898 251.284 216.408 252.8 213.218C258.809 196.765 261.886 179.445 261.9 161.997C261.9 76.6532 189.314 7.20067 100.098 7.20067C64.0473 7.08512 28.9923 18.6252 0.511345 39.9844C-27.9696 61.3437 -48.2401 91.295 -57.0745 125.072C-58.617 131.278 -58.8656 137.719 -57.8058 144.019C-56.7459 150.318 -54.3989 156.351 -50.9015 161.765C-45.5631 170.048 -37.8166 176.626 -28.6305 180.677C-19.4444 184.728 -9.22644 186.071 0.745712 184.54C10.7179 183.009 20.0017 178.671 27.4362 172.068C34.8708 165.465 40.1262 156.891 42.5452 147.417C42.7781 146.473 43.3897 145.656 44.2455 145.147C45.1012 144.639 46.1311 144.479 47.1085 144.704C48.0858 144.929 48.9307 145.52 49.4571 146.347C49.9836 147.175 50.1485 148.17 49.9156 149.114C47.1529 159.994 41.1302 169.844 32.6019 177.431C24.0736 185.018 13.4186 190.005 1.97121 191.767C-9.47618 193.529 -21.2072 191.989 -31.7528 187.338C-42.2984 182.688 -51.19 175.134 -57.314 165.622C-61.3374 159.397 -64.0377 152.46 -65.2575 145.215C-66.4772 137.97 -66.192 130.563 -64.4183 123.426C-55.1791 88.063 -33.9651 56.7026 -4.15278 34.3364C25.6595 11.9702 62.3568 -0.116191 100.098 0.00084199C193.491 0.00084199 269.483 72.719 269.483 161.997C269.453 180.332 266.205 198.53 259.878 215.815C259.888 215.892 259.888 215.97 259.878 216.047C258.202 219.746 255.435 222.887 251.925 225.077C248.414 227.267 244.314 228.41 240.135 228.364Z" fill="#D0EEFF"/>
</g>
</svg>
