<svg width="127" height="40" viewBox="0 0 127 40" fill="none" xmlns="http://www.w3.org/2000/svg">
<path d="M23.8382 24.1269C23.0295 24.1212 22.2406 23.8744 21.5709 23.4175C20.9012 22.9606 20.3807 22.3141 20.0751 21.5595C19.7695 20.805 19.6925 19.9761 19.8537 19.1774C20.0149 18.3787 20.4071 17.6461 20.9809 17.0718C21.5547 16.4974 22.2844 16.1072 23.078 15.9503C23.8716 15.7933 24.6935 15.8767 25.4401 16.1899C26.1867 16.5031 26.8246 17.032 27.2734 17.7101C27.7221 18.3881 27.9616 19.1849 27.9616 19.9999C27.9574 21.0981 27.5207 22.1497 26.7476 22.9236C25.9744 23.6974 24.9279 24.1302 23.8382 24.1269ZM23.8382 16.7904C23.2085 16.7979 22.595 16.9931 22.0751 17.3512C21.5552 17.7094 21.1521 18.2146 20.9166 18.8032C20.6811 19.3919 20.6236 20.0376 20.7515 20.659C20.8793 21.2805 21.1868 21.8499 21.6352 22.2956C22.0836 22.7413 22.6528 23.0433 23.2711 23.1636C23.8895 23.2839 24.5293 23.2171 25.1101 22.9717C25.6908 22.7262 26.1865 22.3131 26.5348 21.7842C26.883 21.2554 27.0682 20.6346 27.067 19.9999C27.0645 19.5751 26.979 19.1549 26.8154 18.7634C26.6518 18.3719 26.4133 18.0167 26.1135 17.7181C25.8137 17.4194 25.4584 17.1832 25.068 17.023C24.6776 16.8627 24.2597 16.7815 23.8382 16.7841V16.7904Z" fill="white"/>
<path d="M30.988 27.8301C30.4031 27.8332 29.8229 27.7255 29.2775 27.5127C28.7126 27.289 28.1975 26.9543 27.7622 26.5281C27.3269 26.1019 26.98 25.5927 26.7417 25.0302C26.5035 24.4753 26.3774 23.8782 26.3709 23.2737C26.3644 22.6692 26.4776 22.0694 26.7039 21.5095C26.7486 21.3984 26.8353 21.3097 26.9449 21.263C27.0545 21.2162 27.178 21.2153 27.2883 21.2603C27.3986 21.3054 27.4866 21.3927 27.5329 21.5032C27.5793 21.6136 27.5802 21.7381 27.5356 21.8492C27.3538 22.2984 27.2626 22.7797 27.2675 23.2648C27.2724 23.7499 27.3731 24.2292 27.5639 24.6746C27.7564 25.1273 28.0363 25.537 28.3872 25.8798C28.7382 26.2226 29.1532 26.4917 29.6083 26.6714C30.5232 27.0387 31.5449 27.0277 32.4518 26.6408C33.3587 26.254 34.0778 25.5224 34.453 24.6048C35.2657 22.5826 35.2374 20.0429 35.2374 20.0175C35.2374 12.3985 29.0255 6.19851 21.3772 6.19851C18.3377 6.18948 15.3798 7.18948 12.9606 9.04399C10.5414 10.8985 8.79549 13.5043 7.99271 16.4588C7.98035 16.5188 7.95596 16.5757 7.92105 16.6259C7.88613 16.6761 7.84142 16.7186 7.78964 16.7508C7.73787 16.783 7.68012 16.8042 7.61993 16.8132C7.55973 16.8221 7.49836 16.8186 7.43957 16.8028C7.38078 16.787 7.3258 16.7593 7.278 16.7214C7.2302 16.6834 7.19058 16.6361 7.16156 16.5822C7.13255 16.5283 7.11475 16.469 7.10925 16.4079C7.10375 16.3469 7.11068 16.2853 7.1296 16.227C7.98301 13.0807 9.84093 10.3053 12.4162 8.32966C14.9915 6.35404 18.1407 5.28822 21.3772 5.29693C29.5075 5.29693 36.1194 11.8969 36.1194 20.0111C36.1194 20.1159 36.1509 22.7476 35.272 24.9413C34.9224 25.7964 34.3285 26.5276 33.5658 27.042C32.803 27.5563 31.9058 27.8307 30.988 27.8301Z" fill="white"/>
<path d="M31.6029 20.4488C31.5439 20.4492 31.4854 20.4379 31.4307 20.4154C31.3761 20.3929 31.3264 20.3598 31.2845 20.3179C31.2427 20.276 31.2094 20.2261 31.1868 20.1712C31.1641 20.1163 31.1524 20.0575 31.1524 19.998C31.1374 17.7291 30.2304 15.5588 28.6302 13.9628C27.03 12.3668 24.8672 11.4753 22.6158 11.4838C18.4798 11.4838 15.1093 14.2679 14.2273 18.4107C14.2026 18.5277 14.1328 18.6301 14.0333 18.6953C13.9338 18.7605 13.8126 18.7832 13.6965 18.7583C13.5804 18.7335 13.4788 18.6632 13.4141 18.5629C13.3494 18.4625 13.3269 18.3404 13.3516 18.2234C14.3218 13.652 18.0451 10.5822 22.6158 10.5822C25.1077 10.5687 27.5029 11.5529 29.275 13.3185C31.0471 15.0842 32.0509 17.4867 32.0659 19.998C32.066 20.0586 32.0539 20.1185 32.0304 20.1743C32.007 20.23 31.9726 20.2804 31.9294 20.3225C31.8862 20.3646 31.835 20.3974 31.7789 20.4191C31.7228 20.4408 31.6629 20.4509 31.6029 20.4488Z" fill="white"/>
<path d="M20.3423 40.0008C19.1874 39.9945 18.0601 39.6436 17.1028 38.9924C16.1455 38.3412 15.4011 37.4188 14.9634 36.3416C14.5257 35.2645 14.4144 34.0808 14.6436 32.9399C14.8727 31.7991 15.432 30.7522 16.2509 29.9314C17.0697 29.1105 18.1115 28.5525 19.2448 28.3277C20.378 28.1029 21.5519 28.2214 22.6184 28.6683C23.6848 29.1152 24.5961 29.8704 25.2371 30.8386C25.8782 31.8069 26.2203 32.9448 26.2203 34.1088C26.2145 35.6751 25.5923 37.1752 24.4903 38.2798C23.3883 39.3844 21.8966 40.0033 20.3423 40.0008ZM20.3423 29.1183C19.3643 29.1246 18.41 29.4226 17.5998 29.9747C16.7897 30.5269 16.1599 31.3085 15.7899 32.2209C15.4199 33.1333 15.3264 34.1357 15.521 35.1017C15.7156 36.0676 16.1897 36.9538 16.8834 37.6486C17.5772 38.3434 18.4596 38.8155 19.4193 39.0055C20.379 39.1955 21.373 39.0948 22.276 38.7162C23.179 38.3376 23.9505 37.6979 24.4933 36.878C25.036 36.058 25.3257 35.0944 25.3257 34.1088C25.3174 32.7835 24.7882 31.5155 23.8542 30.5825C22.9202 29.6496 21.6574 29.1276 20.3423 29.131V29.1183Z" fill="white"/>
<path d="M17.0076 22.5395C16.8093 22.5393 16.6113 22.5234 16.4154 22.4919C15.9332 22.4165 15.4707 22.2452 15.0549 21.9879C14.639 21.7307 14.278 21.3927 13.993 20.9935C13.7102 20.6017 13.5072 20.1573 13.3959 19.6859C13.2845 19.2146 13.2669 18.7257 13.3441 18.2475C13.3629 18.1292 13.4276 18.0233 13.5239 17.953C13.6202 17.8828 13.7402 17.8539 13.8576 17.8729C13.975 17.8918 14.0801 17.957 14.1498 18.054C14.2195 18.1511 14.2481 18.272 14.2293 18.3903C14.1709 18.7512 14.1841 19.1202 14.2678 19.476C14.3516 19.8318 14.5045 20.1673 14.7175 20.4633C15.0468 20.9094 15.498 21.2489 16.0159 21.4404C16.5338 21.6318 17.0959 21.6668 17.6332 21.5411C18.1705 21.4154 18.6598 21.1345 19.0411 20.7327C19.4223 20.3309 19.679 19.8258 19.7797 19.2792C19.7989 19.1609 19.8639 19.0552 19.9605 18.9852C20.0571 18.9153 20.1773 18.8868 20.2947 18.9062C20.4121 18.9256 20.517 18.9911 20.5864 19.0885C20.6558 19.1858 20.684 19.307 20.6648 19.4252C20.5195 20.2965 20.0722 21.0876 19.4025 21.6578C18.7329 22.2281 17.8843 22.5405 17.0076 22.5395Z" fill="white"/>
<path d="M36.7426 28.1936C36.2362 28.1925 35.7417 28.039 35.3225 27.7528C34.9033 27.4666 34.5784 27.0608 34.3895 26.5873C34.2677 26.2787 34.2083 25.9488 34.2148 25.6168C34.2213 25.2848 34.2935 24.9574 34.4273 24.6539C34.477 24.5477 34.5659 24.4652 34.675 24.424C34.7841 24.3828 34.9048 24.3862 35.0116 24.4333C35.1183 24.4805 35.2025 24.5677 35.2464 24.6765C35.2902 24.7853 35.2902 24.9071 35.2463 25.0159C35.1605 25.2102 35.1144 25.42 35.1106 25.6326C35.1068 25.8453 35.1455 26.0566 35.2243 26.2539C35.3021 26.4551 35.4191 26.6386 35.5684 26.7934C35.7177 26.9483 35.8964 27.0714 36.0937 27.1555C36.4887 27.3269 36.9345 27.3358 37.3359 27.1804C37.7373 27.025 38.0625 26.7175 38.242 26.3238C38.9534 24.2924 39.3176 22.1542 39.3193 20C39.3193 9.46355 30.726 0.888989 20.1639 0.888989C15.896 0.874724 11.7459 2.29945 8.37412 4.93645C5.00233 7.57345 2.60255 11.2712 1.55667 15.4413C1.37405 16.2075 1.34462 17.0026 1.4701 17.7804C1.59557 18.5582 1.87343 19.303 2.28747 19.9714C2.91947 20.994 3.83657 21.8061 4.92409 22.3062C6.01161 22.8063 7.22129 22.9722 8.40187 22.7832C9.58245 22.5942 10.6815 22.0586 11.5617 21.2434C12.4419 20.4282 13.064 19.3696 13.3504 18.2C13.378 18.0834 13.4504 17.9826 13.5517 17.9198C13.653 17.857 13.7749 17.8373 13.8906 17.8651C14.0064 17.8929 14.1064 17.9658 14.1687 18.0679C14.231 18.1701 14.2505 18.2929 14.223 18.4095C13.8959 19.7527 13.1829 20.9688 12.1732 21.9054C11.1636 22.8421 9.90218 23.4578 8.54695 23.6754C7.19172 23.893 5.80292 23.7028 4.55444 23.1286C3.30597 22.5545 2.25332 21.6219 1.52832 20.4476C1.05199 19.679 0.732307 18.8225 0.587905 17.9281C0.443503 17.0337 0.477275 16.1193 0.687254 15.2381C1.78106 10.8722 4.29254 7.00046 7.82195 4.23915C11.3514 1.47784 15.6959 -0.0143449 20.1639 0.000103951C31.2206 0.000103951 40.2171 8.97784 40.2171 20C40.2135 22.2637 39.829 24.5103 39.0799 26.6444C39.0811 26.6539 39.0811 26.6635 39.0799 26.673C38.8815 27.1297 38.554 27.5174 38.1384 27.7878C37.7227 28.0582 37.2373 28.1993 36.7426 28.1936Z" fill="white"/>
<path d="M49.4055 24.9625C49.3465 24.9629 49.288 24.9516 49.2334 24.9291C49.1788 24.9066 49.1291 24.8735 49.0872 24.8316C49.0453 24.7897 49.0121 24.7399 48.9894 24.685C48.9667 24.63 48.9551 24.5712 48.9551 24.5117V15.4863C48.9645 15.3729 49.0159 15.2672 49.099 15.1901C49.1822 15.1131 49.291 15.0703 49.404 15.0703C49.5169 15.0703 49.6257 15.1131 49.7089 15.1901C49.792 15.2672 49.8434 15.3729 49.8528 15.4863V24.5117C49.8528 24.6313 49.8057 24.7459 49.7218 24.8305C49.6379 24.915 49.5242 24.9625 49.4055 24.9625Z" fill="white"/>
<path d="M56.8402 24.9636C56.7475 24.9645 56.657 24.9356 56.5819 24.8811L50.2818 20.4081C50.23 20.3757 50.1854 20.333 50.1506 20.2827C50.1158 20.2323 50.0915 20.1754 50.0794 20.1152C50.0672 20.0551 50.0673 19.9931 50.0797 19.933C50.0921 19.873 50.1166 19.8161 50.1516 19.7659C50.1866 19.7156 50.2314 19.6732 50.2833 19.641C50.3352 19.6089 50.393 19.5877 50.4533 19.5789C50.5135 19.5701 50.5749 19.5737 50.6337 19.5897C50.6925 19.6056 50.7475 19.6335 50.7952 19.6716L57.0953 24.1446C57.1729 24.1998 57.2311 24.2785 57.2613 24.3692C57.2916 24.46 57.2924 24.5581 57.2636 24.6493C57.2348 24.7406 57.178 24.8202 57.1013 24.8767C57.0246 24.9332 56.932 24.9637 56.837 24.9636H56.8402Z" fill="white"/>
<path d="M49.4041 21.3014C49.3327 21.3024 49.2621 21.2858 49.1985 21.2532C49.1348 21.2205 49.08 21.1728 49.0387 21.1141C49.0032 21.0659 48.9777 21.011 48.9636 20.9526C48.9496 20.8943 48.9474 20.8337 48.9571 20.7745C48.9668 20.7152 48.9882 20.6586 49.0201 20.6078C49.052 20.5571 49.0936 20.5134 49.1426 20.4792L56.6051 15.111C56.6531 15.0766 56.7073 15.0521 56.7647 15.0388C56.8221 15.0255 56.8815 15.0238 56.9396 15.0336C56.9976 15.0435 57.0532 15.0648 57.1031 15.0963C57.153 15.1279 57.1962 15.169 57.2304 15.2173C57.2645 15.2657 57.2888 15.3203 57.302 15.3782C57.3152 15.436 57.3169 15.4959 57.3071 15.5544C57.2973 15.6129 57.2762 15.6689 57.2449 15.7192C57.2136 15.7695 57.1728 15.8131 57.1248 15.8475L49.6624 21.2125C49.5878 21.269 49.4974 21.3001 49.4041 21.3014Z" fill="white"/>
<path d="M70.4297 24.961C70.3709 24.9614 70.3125 24.95 70.2581 24.9275C70.2036 24.905 70.1541 24.8718 70.1125 24.8299C70.0709 24.7879 70.038 24.7381 70.0156 24.6832C69.9933 24.6283 69.982 24.5695 69.9824 24.5102V21.1578C69.9824 21.0383 70.0296 20.9236 70.1134 20.8391C70.1973 20.7545 70.3111 20.707 70.4297 20.707C70.5484 20.707 70.6621 20.7545 70.746 20.8391C70.8299 20.9236 70.877 21.0383 70.877 21.1578V24.5102C70.877 24.6297 70.8299 24.7444 70.746 24.8289C70.6621 24.9135 70.5484 24.961 70.4297 24.961Z" fill="white"/>
<path d="M70.4282 21.6111C70.3543 21.611 70.2815 21.5928 70.2162 21.5579C70.1508 21.5231 70.0949 21.4727 70.0534 21.4111L66.3332 15.7381C66.2672 15.6383 66.2432 15.5162 66.2665 15.3986C66.2899 15.281 66.3586 15.1776 66.4576 15.1111C66.5566 15.0446 66.6777 15.0204 66.7944 15.0439C66.9111 15.0675 67.0137 15.1367 67.0797 15.2365L70.8094 20.9127C70.8435 20.9622 70.8675 21.0181 70.8798 21.0771C70.8922 21.1362 70.8926 21.1971 70.8812 21.2563C70.8697 21.3155 70.8466 21.3718 70.8131 21.4218C70.7797 21.4718 70.7366 21.5146 70.6865 21.5476C70.6086 21.5941 70.5187 21.6162 70.4282 21.6111Z" fill="white"/>
<path d="M70.4297 21.6098C70.3484 21.6111 70.2684 21.5899 70.1983 21.5486C70.1282 21.5072 70.0707 21.4473 70.032 21.3752C69.9933 21.3032 69.975 21.2219 69.9791 21.1401C69.9831 21.0583 70.0093 20.9792 70.0548 20.9114L73.7908 15.2384C73.8568 15.1387 73.9594 15.0694 74.076 15.0459C74.1927 15.0224 74.3139 15.0465 74.4129 15.113C74.5119 15.1796 74.5806 15.283 74.6039 15.4006C74.6273 15.5181 74.6033 15.6403 74.5373 15.74L70.8045 21.413C70.7632 21.4746 70.7073 21.5249 70.6418 21.5592C70.5764 21.5936 70.5035 21.611 70.4297 21.6098Z" fill="white"/>
<path d="M89.9592 24.9623H85.4893C84.9746 24.9623 84.4811 24.7563 84.1172 24.3896C83.7533 24.0228 83.5488 23.5254 83.5488 23.0068V16.9751C83.5488 16.4564 83.7533 15.959 84.1172 15.5923C84.4811 15.2256 84.9746 15.0195 85.4893 15.0195H89.9592C90.4738 15.0195 90.9673 15.2256 91.3312 15.5923C91.6951 15.959 91.8996 16.4564 91.8996 16.9751V23.0068C91.8996 23.5254 91.6951 24.0228 91.3312 24.3896C90.9673 24.7563 90.4738 24.9623 89.9592 24.9623ZM85.4893 15.937C85.2119 15.937 84.9459 16.048 84.7498 16.2457C84.5536 16.4433 84.4434 16.7114 84.4434 16.9909V23.0227C84.4434 23.3022 84.5536 23.5703 84.7498 23.7679C84.9459 23.9656 85.2119 24.0766 85.4893 24.0766H89.9592C90.2365 24.0766 90.5025 23.9656 90.6987 23.7679C90.8948 23.5703 91.005 23.3022 91.005 23.0227V16.9909C91.005 16.7114 90.8948 16.4433 90.6987 16.2457C90.5025 16.048 90.2365 15.937 89.9592 15.937H85.4893Z" fill="white"/>
<path d="M124.558 24.964H120.079C119.565 24.9632 119.072 24.7569 118.708 24.3903C118.344 24.0238 118.14 23.5269 118.139 23.0085V22.3482C118.148 22.2347 118.199 22.129 118.283 22.052C118.366 21.9749 118.475 21.9321 118.588 21.9321C118.701 21.9321 118.809 21.9749 118.892 22.052C118.976 22.129 119.027 22.2347 119.036 22.3482V23.0085C119.036 23.2875 119.146 23.5551 119.342 23.7526C119.537 23.9502 119.802 24.0616 120.079 24.0625H124.558C124.836 24.0625 125.102 23.9514 125.298 23.7538C125.494 23.5561 125.604 23.288 125.604 23.0085V21.5037C125.603 21.2248 125.493 20.9575 125.297 20.7605C125.101 20.5636 124.835 20.453 124.558 20.453H120.079C119.565 20.4513 119.072 20.2447 118.709 19.8783C118.345 19.512 118.14 19.0155 118.139 18.4974V16.9927C118.14 16.4743 118.344 15.9774 118.708 15.6108C119.072 15.2442 119.565 15.0379 120.079 15.0371H124.558C125.073 15.0371 125.567 15.2431 125.931 15.6099C126.294 15.9766 126.499 16.474 126.499 16.9927V17.5895C126.499 17.709 126.452 17.8237 126.368 17.9082C126.284 17.9928 126.17 18.0403 126.052 18.0403C125.933 18.0403 125.819 17.9928 125.735 17.9082C125.651 17.8237 125.604 17.709 125.604 17.5895V16.9927C125.604 16.7131 125.494 16.445 125.298 16.2474C125.102 16.0497 124.836 15.9387 124.558 15.9387H120.079C119.802 15.9395 119.537 16.0509 119.342 16.2485C119.146 16.4461 119.036 16.7137 119.036 16.9927V18.4974C119.036 18.7761 119.146 19.0434 119.342 19.2404C119.537 19.4375 119.803 19.5482 120.079 19.5482H124.558C125.073 19.549 125.566 19.7553 125.93 20.1219C126.293 20.4884 126.498 20.9854 126.499 21.5037V23.0085C126.499 23.5271 126.294 24.0245 125.931 24.3913C125.567 24.758 125.073 24.964 124.558 24.964Z" fill="white"/>
<path d="M108.755 24.9621C108.69 24.9623 108.625 24.9479 108.566 24.9199C108.506 24.8919 108.454 24.851 108.412 24.8002L101.74 16.7336V24.5113C101.74 24.5705 101.729 24.6291 101.706 24.6838C101.684 24.7385 101.651 24.7882 101.609 24.8301C101.568 24.8719 101.518 24.9051 101.464 24.9278C101.41 24.9504 101.352 24.9621 101.293 24.9621C101.234 24.9621 101.176 24.9504 101.122 24.9278C101.068 24.9051 101.018 24.8719 100.977 24.8301C100.935 24.7882 100.902 24.7385 100.88 24.6838C100.857 24.6291 100.846 24.5705 100.846 24.5113V15.4859C100.846 15.3933 100.874 15.303 100.927 15.2272C100.98 15.1514 101.054 15.0937 101.141 15.0622C101.227 15.0306 101.321 15.0266 101.41 15.0508C101.498 15.0749 101.577 15.126 101.636 15.1971L108.308 23.2637V15.4859C108.308 15.3664 108.355 15.2517 108.439 15.1672C108.523 15.0827 108.637 15.0352 108.755 15.0352C108.874 15.0352 108.988 15.0827 109.072 15.1672C109.156 15.2517 109.203 15.3664 109.203 15.4859V24.5113C109.203 24.6043 109.175 24.6952 109.122 24.7713C109.069 24.8475 108.994 24.9052 108.907 24.9367C108.858 24.9546 108.807 24.9632 108.755 24.9621Z" fill="white"/>
</svg>
