<svg width="207" height="209" viewBox="0 0 207 209" fill="none" xmlns="http://www.w3.org/2000/svg">
<path d="M153.192 170.174C144.554 177.528 124.172 185.087 111.869 185.499L110.312 173.304L145.772 160.154L153.192 170.174Z" fill="#12304E"/>
<g filter="url(#filter0_d_1696_520)">
<path d="M133.487 177.122C122.229 181.312 111.578 182.3 111.411 182.314L111.349 181.719C111.602 181.695 136.818 179.356 150.505 166.529L150.919 166.968C146.017 171.561 139.658 174.825 133.484 177.123L133.487 177.122Z" fill="#06A5FF"/>
</g>
<g filter="url(#filter1_d_1696_520)">
<path d="M80.436 69.764C91.1199 65.8096 96.4053 53.9599 92.2413 43.297C88.0773 32.6341 76.0407 27.1959 65.3567 31.1504C54.6728 35.1048 49.3873 46.9545 53.5513 57.6174C57.7154 68.2803 69.752 73.7185 80.436 69.764Z" fill="#06A5FF"/>
</g>
<g filter="url(#filter2_d_1696_520)">
<path d="M102.991 56.5475C109.294 54.2146 112.412 47.2242 109.956 40.9338C107.499 34.6435 100.399 31.4353 94.0958 33.7682C87.793 36.101 84.675 43.0915 87.1314 49.3818C89.5879 55.6722 96.6887 58.8803 102.991 56.5475Z" fill="#06A5FF"/>
</g>
<path d="M156.63 86.0902C160.15 96.4083 162.198 108.364 161.789 120.051C161.758 120.927 161.713 121.798 161.656 122.671C160.26 143.385 150.842 162.805 127.805 170.197C106.704 176.968 87.2771 172.437 71.3179 155.938C70.5827 155.18 69.8556 154.394 69.1375 153.583C61.2651 144.724 54.2955 132.819 48.4523 117.791C47.7941 116.366 47.1199 114.623 46.4979 112.622C46.3341 112.089 46.1694 111.537 46.0114 110.969C41.1919 93.5881 40.8711 60.3979 80.2094 46.7456C126.513 30.6773 148.138 61.187 156.63 86.0902Z" fill="#EAEAEA"/>
<path d="M156.63 86.0902C160.15 96.4083 162.198 108.364 161.789 120.051C161.758 120.927 161.713 121.798 161.656 122.671C160.26 143.385 150.842 162.805 127.805 170.197C106.704 176.968 87.2771 172.437 71.3179 155.938C70.5827 155.18 69.8556 154.394 69.1375 153.583C61.2651 144.724 54.2955 132.819 48.4523 117.791C47.7941 116.366 47.1199 114.623 46.4979 112.622C46.3341 112.089 46.1694 111.537 46.0114 110.969C41.1919 93.5881 40.8711 60.3979 80.2094 46.7456C126.513 30.6773 148.138 61.187 156.63 86.0902Z" fill="url(#paint0_radial_1696_520)"/>
<path d="M57.6446 107.082L58.0818 108.517C54.3506 110.944 50.4258 112.462 46.2807 112.954C46.1162 112.417 45.9507 111.86 45.7921 111.288C49.9774 110.653 53.9262 109.254 57.6446 107.082Z" fill="#90A3B9"/>
<path d="M151.687 73.6923C147.632 76.2478 143.243 77.6725 138.466 77.8068L137.922 76.4082C142.622 75.9053 146.973 74.514 150.977 72.2303C151.222 72.7124 151.457 73.2013 151.687 73.6923Z" fill="#90A3B9"/>
<path d="M161.868 119.697C161.837 120.583 161.792 121.464 161.735 122.346C134.929 138.484 104.187 149.026 70.9222 155.98C70.1832 155.215 69.4523 154.42 68.7305 153.6C104.75 145.761 139.089 135.3 161.868 119.697Z" fill="#90A3B9"/>
<path d="M54.7356 63.4944C54.4114 65.1065 56.8077 77.7649 59.736 82.9763L59.0667 84.0263C59.0667 84.0263 54.8019 75.0707 53.7737 64.6941L54.7356 63.4944Z" fill="#90A3B9"/>
<path d="M72.9446 123.512C72.9446 123.512 78.0604 141.029 85.6708 149.733L87.5494 149.713C87.5494 149.713 80.4505 142.892 74.8335 123.51L72.9474 123.511L72.9446 123.512Z" fill="#90A3B9"/>
<path d="M121.742 154.406C130.039 151.337 134.14 142.13 130.901 133.841C127.662 125.553 118.309 121.322 110.012 124.391C101.715 127.459 97.6141 136.666 100.853 144.955C104.092 153.243 113.445 157.475 121.742 154.406Z" fill="#90A3B9"/>
<path d="M121.207 153.023C129.504 149.954 133.605 140.747 130.366 132.459C127.127 124.17 117.774 119.939 109.477 123.008C101.18 126.077 97.079 135.284 100.318 143.572C103.557 151.861 112.909 156.092 121.207 153.023Z" fill="#11304E"/>
<g filter="url(#filter3_d_1696_520)">
<path d="M120.557 151.36C113.193 154.083 104.865 150.313 101.989 142.955C99.1128 135.598 102.763 127.399 110.126 124.676C117.489 121.953 125.818 125.723 128.694 133.081C131.57 140.438 127.92 148.637 120.557 151.36ZM110.343 125.232C103.289 127.84 99.7897 135.701 102.545 142.75C105.301 149.799 113.285 153.413 120.339 150.804C127.394 148.196 130.893 140.336 128.137 133.286C125.382 126.237 117.398 122.623 110.343 125.232Z" fill="#06A5FF"/>
</g>
<path d="M118.841 139.648C117.838 140.235 116.529 139.902 115.923 138.904C115.317 137.907 115.643 136.615 116.646 136.028C117.648 135.441 118.957 135.775 119.563 136.772C120.17 137.77 119.843 139.061 118.841 139.648ZM116.887 136.426C116.102 136.885 115.847 137.895 116.319 138.672C116.793 139.451 117.814 139.71 118.599 139.251C119.385 138.792 119.639 137.781 119.167 137.005C118.693 136.225 117.672 135.967 116.887 136.426Z" fill="white"/>
<path d="M122.996 139.451C122.745 139.598 122.461 139.703 122.152 139.747C121.521 139.843 120.887 139.689 120.369 139.31C119.856 138.936 119.515 138.39 119.413 137.771C119.393 137.645 119.479 137.53 119.604 137.509C119.731 137.491 119.851 137.577 119.872 137.704C119.955 138.202 120.225 138.64 120.638 138.94C121.056 139.241 121.567 139.367 122.076 139.291C123.124 139.133 123.835 138.162 123.666 137.126C123.485 136.026 122.796 134.917 122.788 134.904C120.753 131.55 116.357 130.432 112.982 132.41C110.209 134.035 108.903 137.315 109.805 140.391C109.841 140.515 109.771 140.639 109.647 140.673C109.523 140.706 109.396 140.635 109.361 140.511C108.4 137.237 109.791 133.74 112.743 132.011C116.336 129.905 121.02 131.097 123.184 134.669C123.212 134.716 123.929 135.865 124.124 137.058C124.284 138.038 123.81 138.971 122.998 139.447L122.996 139.451Z" fill="white"/>
<path d="M121.309 136.045C121.199 136.108 121.057 136.071 120.989 135.963C119.734 133.893 117.02 133.203 114.94 134.423C113.11 135.496 112.364 137.597 113.08 139.652C113.121 139.774 113.06 139.902 112.939 139.944C112.817 139.982 112.685 139.916 112.642 139.798C111.853 137.531 112.68 135.214 114.7 134.03C117.001 132.681 120.003 133.446 121.387 135.732C121.453 135.842 121.418 135.983 121.31 136.048L121.309 136.045Z" fill="white"/>
<path d="M119.411 148.483C117.85 149.06 116.089 148.267 115.483 146.718C114.878 145.17 115.653 143.439 117.214 142.862C118.774 142.285 120.536 143.078 121.142 144.626C121.747 146.174 120.972 147.906 119.411 148.483ZM117.381 143.29C116.06 143.779 115.401 145.244 115.913 146.556C116.426 147.868 117.92 148.538 119.241 148.049C120.563 147.56 121.222 146.095 120.709 144.783C120.196 143.471 118.703 142.802 117.381 143.29Z" fill="white"/>
<path d="M115.381 140.734C115.296 140.785 115.204 140.828 115.108 140.867C114.632 141.053 114.108 141.043 113.634 140.835C113.168 140.631 112.804 140.262 112.614 139.793C112.567 139.673 112.624 139.54 112.741 139.497C112.861 139.453 112.996 139.511 113.041 139.629C113.185 139.98 113.458 140.262 113.811 140.415C114.169 140.57 114.565 140.58 114.928 140.439C115.67 140.152 116.03 139.317 115.733 138.582C115.687 138.462 115.743 138.329 115.86 138.286C115.98 138.241 116.115 138.3 116.16 138.417C116.516 139.294 116.165 140.275 115.373 140.737L115.381 140.734Z" fill="white"/>
<path d="M125.643 138.132C125.495 138.219 125.326 138.278 125.144 138.301C124.797 138.343 124.451 138.248 124.173 138.035C123.895 137.822 123.719 137.518 123.674 137.174C123.656 137.047 123.746 136.934 123.874 136.918C124.002 136.903 124.117 136.994 124.135 137.121C124.163 137.341 124.278 137.537 124.455 137.672C124.634 137.81 124.855 137.872 125.08 137.843C125.54 137.788 125.863 137.375 125.807 136.921C125.529 135.58 124.994 134.515 124.597 133.856C121.786 129.218 115.699 127.67 111.031 130.404C107.133 132.687 105.346 137.304 106.685 141.628C106.939 142.408 107.482 143.048 108.219 143.432C108.965 143.823 109.815 143.9 110.614 143.653C112.257 143.147 113.164 141.412 112.634 139.788C112.593 139.666 112.66 139.536 112.783 139.5C112.906 139.464 113.035 139.531 113.076 139.653C113.681 141.52 112.642 143.512 110.761 144.092C109.841 144.375 108.866 144.287 108.008 143.839C107.162 143.396 106.536 142.659 106.245 141.759C104.842 137.229 106.71 132.397 110.789 130.006C115.678 127.142 122.049 128.764 124.992 133.62C125.412 134.309 125.97 135.429 126.263 136.838C126.265 136.844 126.267 136.849 126.265 136.853C126.337 137.378 126.076 137.87 125.643 138.125L125.643 138.132Z" fill="white"/>
<g filter="url(#filter4_d_1696_520)">
<path d="M144.677 89.364C144.29 97.1723 138.925 104.094 126.672 110.5C122.667 112.594 117.925 114.633 112.382 116.631C103.466 119.843 95.8421 122.073 89.309 123.25C76.4793 125.564 67.8751 123.813 62.0278 117.456C59.0466 114.216 56.7812 109.778 55.036 104.075C48.4258 82.4539 67.028 67.7906 85.4233 60.9804C101.589 54.9956 126.492 52.3774 137.829 69.9203C142.415 77.0178 144.976 83.4451 144.677 89.364Z" fill="#12304E"/>
</g>
<path d="M83.0184 103.733C85.3564 101.369 88.2411 99.6294 92.8024 100.095" stroke="#11304E" stroke-width="14" stroke-miterlimit="10" stroke-linecap="round"/>
<path d="M88.1433 117.543C88.8804 119.431 89.1796 121.373 89.09 123.258C76.2673 125.57 67.6678 123.821 61.8237 117.469C63.1473 113.828 66.0065 110.781 69.9481 109.322C77.1796 106.645 85.3249 110.326 88.1433 117.543Z" fill="#06A5FF"/>
<path d="M144.678 89.1228C144.291 96.926 138.929 103.844 126.682 110.245C124.946 108.762 123.538 106.848 122.656 104.588C119.837 97.3697 123.414 89.3499 130.646 86.673C135.552 84.857 140.88 85.9685 144.678 89.1228Z" fill="#06A5FF"/>
<path d="M152.222 139.862L145.271 143.457C143.465 144.39 141.214 143.531 140.47 141.623C139.842 140.016 140.513 138.219 142.035 137.432L148.986 133.837C150.793 132.904 153.043 133.763 153.788 135.671C154.415 137.278 153.744 139.076 152.222 139.862Z" stroke="#90A3B9" stroke-width="3" stroke-miterlimit="10"/>
<g style="mix-blend-mode:screen">
<path d="M59.9671 105.401C59.9671 105.401 68.8884 125.275 97.086 117.886C97.086 117.886 69.2048 132.845 59.9671 105.401Z" fill="#06A5FF"/>
</g>
<g style="mix-blend-mode:screen" opacity="0.71">
<path d="M101.67 60.4395C101.67 60.4395 121.148 56.4124 132.261 68.5357C132.261 68.5357 117.714 61.5042 101.67 60.4395Z" fill="#06A5FF"/>
</g>
<path d="M52.4921 105.833C52.4921 105.833 56.7515 135.024 96.5606 124.035C136.37 113.046 152.813 100.722 144.711 80.7296" stroke="#06A5FF" stroke-miterlimit="10"/>
<g filter="url(#filter5_d_1696_520)">
<path d="M89.159 105.758C86.767 106.644 83.9517 105.314 82.6384 102.672L77.5294 92.4111C76.0057 89.3526 77.0923 85.7965 79.8645 84.7696L80.8302 84.4118C83.411 83.4558 86.4371 85.0821 87.5932 88.0453L91.7365 98.6643C92.8916 101.625 91.737 104.803 89.159 105.758Z" fill="#EAEAEA"/>
</g>
<g filter="url(#filter6_d_1696_520)">
<path d="M113.976 96.4949C116.368 95.6088 117.565 92.7922 116.746 89.9676L113.568 78.9909C112.621 75.7185 109.385 73.7641 106.613 74.7911L105.647 75.1488C103.066 76.1048 101.913 79.2793 103.069 82.2425L107.213 92.8615C108.368 95.8218 111.398 97.4499 113.976 96.4949Z" fill="#EAEAEA"/>
</g>
<path d="M58.1328 180.22C57.6366 181.042 57.1275 181.814 56.6128 182.532C56.5988 182.553 56.5837 182.571 56.5697 182.592C56.0152 183.363 55.4536 184.066 54.891 184.693C53.9767 185.714 53.0636 186.535 52.1675 187.114C52.1675 187.114 30.9084 133.171 56.0782 136.035C56.9443 136.137 57.7517 136.308 58.5003 136.548C58.5406 136.561 58.5837 136.574 58.625 136.59C58.8828 136.673 59.1367 136.769 59.3871 136.873C59.4891 136.915 59.5884 136.957 59.686 137.004C71.6179 142.431 66.0045 167.297 58.1328 180.22Z" fill="#EAEAEA"/>
<g filter="url(#filter7_d_1696_520)">
<path d="M62.278 147.566C62.9946 154.615 62.5007 166.225 56.5774 182.578C56.0239 183.347 55.4631 184.05 54.9013 184.677C58.799 174.539 62.7765 160.506 61.4984 147.667C60.9189 141.856 59.438 138.225 58.6141 136.594L58.6087 136.58C58.958 136.67 59.2939 136.774 59.6231 136.893C59.641 136.931 59.6562 136.97 59.6741 137.008C60.5484 138.946 61.7532 142.407 62.278 147.566Z" fill="white"/>
</g>
<path d="M188.952 131.43C189.884 131.723 190.791 131.971 191.665 132.174C191.69 132.181 191.714 132.185 191.739 132.191C192.679 132.408 193.578 132.57 194.426 132.675C195.806 132.847 197.048 132.869 198.113 132.722C198.113 132.722 177.21 78.6471 160.351 97.0754C159.773 97.7117 159.286 98.3618 158.89 99.0257C158.869 99.062 158.846 99.0993 158.826 99.1383C158.69 99.3666 158.566 99.603 158.449 99.8428C158.402 99.9399 158.356 100.036 158.315 100.134C153.099 111.912 174.255 126.864 188.952 131.43Z" fill="#EAEAEA"/>
<g filter="url(#filter8_d_1696_520)">
<path d="M163.58 109.706C167.853 115.438 176.142 123.796 191.724 132.186C192.663 132.403 193.561 132.566 194.409 132.671C184.58 127.615 172.035 119.7 164.232 109.277C160.7 104.559 159.33 100.887 158.834 99.1348L158.828 99.1209C158.629 99.4139 158.448 99.7091 158.284 100.011C158.296 100.051 158.311 100.09 158.324 100.13C158.993 102.145 160.453 105.51 163.58 109.706Z" fill="white"/>
</g>
<path d="M95.7969 105.562L98.844 98.7998C99.3608 97.653 100.738 97.1485 101.914 97.6748L108.854 100.778L105.807 107.541C105.29 108.688 103.913 109.192 102.736 108.666L95.7969 105.562Z" fill="#06A5FF"/>
<path d="M43.7628 98.2576L44.6506 97.9287L53.7338 121.21L52.8459 121.539C47.3635 123.57 41.1788 120.773 39.0421 115.297L37.7023 111.863C35.5656 106.386 38.2814 100.292 43.7638 98.2604L43.7628 98.2576Z" fill="#06A5FF"/>
<path d="M153.188 84.0666L152.301 84.3955L143.217 61.114L144.105 60.785C149.588 58.7539 155.772 61.5508 157.909 67.0275L159.249 70.4616C161.386 75.9383 158.67 82.0327 153.187 84.0638L153.188 84.0666Z" fill="#06A5FF"/>
<path d="M143.825 129.058L142.767 129.59C142.374 129.787 141.888 129.599 141.727 129.186L140.002 124.763C139.864 124.409 140.014 124.013 140.351 123.844L141.41 123.312C141.803 123.116 142.289 123.304 142.45 123.717L144.175 128.139C144.313 128.494 144.162 128.889 143.825 129.058Z" fill="#90A3B9"/>
<path d="M147.073 127.531L146.015 128.063C145.622 128.259 145.136 128.071 144.975 127.658L143.25 123.236C143.112 122.881 143.262 122.486 143.599 122.317L144.658 121.785C145.051 121.589 145.537 121.776 145.698 122.189L147.423 126.612C147.561 126.967 147.41 127.362 147.073 127.531Z" fill="#90A3B9"/>
<path d="M150.323 126.002L149.265 126.533C148.872 126.73 148.386 126.542 148.225 126.129L146.5 121.707C146.362 121.352 146.512 120.957 146.849 120.788L147.908 120.256C148.301 120.059 148.787 120.247 148.948 120.66L150.673 125.083C150.811 125.437 150.66 125.832 150.323 126.002Z" fill="#90A3B9"/>
<defs>
<filter id="filter0_d_1696_520" x="100.01" y="155.189" width="62.2484" height="38.4652" filterUnits="userSpaceOnUse" color-interpolation-filters="sRGB">
<feFlood flood-opacity="0" result="BackgroundImageFix"/>
<feColorMatrix in="SourceAlpha" type="matrix" values="0 0 0 0 0 0 0 0 0 0 0 0 0 0 0 0 0 0 127 0" result="hardAlpha"/>
<feOffset/>
<feGaussianBlur stdDeviation="5.67"/>
<feColorMatrix type="matrix" values="0 0 0 0 0.133333 0 0 0 0 0.607843 0 0 0 0 1 0 0 0 1 0"/>
<feBlend mode="normal" in2="BackgroundImageFix" result="effect1_dropShadow_1696_520"/>
<feBlend mode="normal" in="SourceGraphic" in2="effect1_dropShadow_1696_520" result="shape"/>
</filter>
<filter id="filter1_d_1696_520" x="29.1289" y="15.8594" width="87.5352" height="87.1953" filterUnits="userSpaceOnUse" color-interpolation-filters="sRGB">
<feFlood flood-opacity="0" result="BackgroundImageFix"/>
<feColorMatrix in="SourceAlpha" type="matrix" values="0 0 0 0 0 0 0 0 0 0 0 0 0 0 0 0 0 0 127 0" result="hardAlpha"/>
<feMorphology radius="1" operator="dilate" in="SourceAlpha" result="effect1_dropShadow_1696_520"/>
<feOffset dy="9"/>
<feGaussianBlur stdDeviation="11"/>
<feComposite in2="hardAlpha" operator="out"/>
<feColorMatrix type="matrix" values="0 0 0 0 0.0235294 0 0 0 0 0.647059 0 0 0 0 1 0 0 0 0.7 0"/>
<feBlend mode="normal" in2="BackgroundImageFix" result="effect1_dropShadow_1696_520"/>
<feBlend mode="normal" in="SourceGraphic" in2="effect1_dropShadow_1696_520" result="shape"/>
</filter>
<filter id="filter2_d_1696_520" x="63.293" y="19.0078" width="70.502" height="70.3008" filterUnits="userSpaceOnUse" color-interpolation-filters="sRGB">
<feFlood flood-opacity="0" result="BackgroundImageFix"/>
<feColorMatrix in="SourceAlpha" type="matrix" values="0 0 0 0 0 0 0 0 0 0 0 0 0 0 0 0 0 0 127 0" result="hardAlpha"/>
<feMorphology radius="1" operator="dilate" in="SourceAlpha" result="effect1_dropShadow_1696_520"/>
<feOffset dy="9"/>
<feGaussianBlur stdDeviation="11"/>
<feComposite in2="hardAlpha" operator="out"/>
<feColorMatrix type="matrix" values="0 0 0 0 0.0235294 0 0 0 0 0.647059 0 0 0 0 1 0 0 0 0.7 0"/>
<feBlend mode="normal" in2="BackgroundImageFix" result="effect1_dropShadow_1696_520"/>
<feBlend mode="normal" in="SourceGraphic" in2="effect1_dropShadow_1696_520" result="shape"/>
</filter>
<filter id="filter3_d_1696_520" x="95.3459" y="118.131" width="39.9919" height="39.7751" filterUnits="userSpaceOnUse" color-interpolation-filters="sRGB">
<feFlood flood-opacity="0" result="BackgroundImageFix"/>
<feColorMatrix in="SourceAlpha" type="matrix" values="0 0 0 0 0 0 0 0 0 0 0 0 0 0 0 0 0 0 127 0" result="hardAlpha"/>
<feOffset/>
<feGaussianBlur stdDeviation="2.83"/>
<feColorMatrix type="matrix" values="0 0 0 0 0.133333 0 0 0 0 0.607843 0 0 0 0 1 0 0 0 1 0"/>
<feBlend mode="normal" in2="BackgroundImageFix" result="effect1_dropShadow_1696_520"/>
<feBlend mode="normal" in="SourceGraphic" in2="effect1_dropShadow_1696_520" result="shape"/>
</filter>
<filter id="filter4_d_1696_520" x="36.6719" y="39.4629" width="125.029" height="101.762" filterUnits="userSpaceOnUse" color-interpolation-filters="sRGB">
<feFlood flood-opacity="0" result="BackgroundImageFix"/>
<feColorMatrix in="SourceAlpha" type="matrix" values="0 0 0 0 0 0 0 0 0 0 0 0 0 0 0 0 0 0 127 0" result="hardAlpha"/>
<feOffset/>
<feGaussianBlur stdDeviation="8.5"/>
<feColorMatrix type="matrix" values="0 0 0 0 0.133333 0 0 0 0 0.607843 0 0 0 0 1 0 0 0 1 0"/>
<feBlend mode="normal" in2="BackgroundImageFix" result="effect1_dropShadow_1696_520"/>
<feBlend mode="normal" in="SourceGraphic" in2="effect1_dropShadow_1696_520" result="shape"/>
</filter>
<filter id="filter5_d_1696_520" x="71.1779" y="78.4787" width="26.6677" height="33.2126" filterUnits="userSpaceOnUse" color-interpolation-filters="sRGB">
<feFlood flood-opacity="0" result="BackgroundImageFix"/>
<feColorMatrix in="SourceAlpha" type="matrix" values="0 0 0 0 0 0 0 0 0 0 0 0 0 0 0 0 0 0 127 0" result="hardAlpha"/>
<feOffset/>
<feGaussianBlur stdDeviation="2.83"/>
<feColorMatrix type="matrix" values="0 0 0 0 0.133333 0 0 0 0 0.607843 0 0 0 0 1 0 0 0 1 0"/>
<feBlend mode="normal" in2="BackgroundImageFix" result="effect1_dropShadow_1696_520"/>
<feBlend mode="normal" in="SourceGraphic" in2="effect1_dropShadow_1696_520" result="shape"/>
</filter>
<filter id="filter6_d_1696_520" x="96.9611" y="68.8556" width="25.7009" height="33.572" filterUnits="userSpaceOnUse" color-interpolation-filters="sRGB">
<feFlood flood-opacity="0" result="BackgroundImageFix"/>
<feColorMatrix in="SourceAlpha" type="matrix" values="0 0 0 0 0 0 0 0 0 0 0 0 0 0 0 0 0 0 127 0" result="hardAlpha"/>
<feOffset/>
<feGaussianBlur stdDeviation="2.83"/>
<feColorMatrix type="matrix" values="0 0 0 0 0.133333 0 0 0 0 0.607843 0 0 0 0 1 0 0 0 1 0"/>
<feBlend mode="normal" in2="BackgroundImageFix" result="effect1_dropShadow_1696_520"/>
<feBlend mode="normal" in="SourceGraphic" in2="effect1_dropShadow_1696_520" result="shape"/>
</filter>
<filter id="filter7_d_1696_520" x="44.3204" y="126" width="28.7909" height="69.2577" filterUnits="userSpaceOnUse" color-interpolation-filters="sRGB">
<feFlood flood-opacity="0" result="BackgroundImageFix"/>
<feColorMatrix in="SourceAlpha" type="matrix" values="0 0 0 0 0 0 0 0 0 0 0 0 0 0 0 0 0 0 127 0" result="hardAlpha"/>
<feOffset/>
<feGaussianBlur stdDeviation="5.29"/>
<feColorMatrix type="matrix" values="0 0 0 0 0.133333 0 0 0 0 0.607843 0 0 0 0 1 0 0 0 1 0"/>
<feBlend mode="normal" in2="BackgroundImageFix" result="effect1_dropShadow_1696_520"/>
<feBlend mode="normal" in="SourceGraphic" in2="effect1_dropShadow_1696_520" result="shape"/>
</filter>
<filter id="filter8_d_1696_520" x="147.703" y="88.5411" width="57.285" height="54.7108" filterUnits="userSpaceOnUse" color-interpolation-filters="sRGB">
<feFlood flood-opacity="0" result="BackgroundImageFix"/>
<feColorMatrix in="SourceAlpha" type="matrix" values="0 0 0 0 0 0 0 0 0 0 0 0 0 0 0 0 0 0 127 0" result="hardAlpha"/>
<feOffset/>
<feGaussianBlur stdDeviation="5.29"/>
<feColorMatrix type="matrix" values="0 0 0 0 0.133333 0 0 0 0 0.607843 0 0 0 0 1 0 0 0 1 0"/>
<feBlend mode="normal" in2="BackgroundImageFix" result="effect1_dropShadow_1696_520"/>
<feBlend mode="normal" in="SourceGraphic" in2="effect1_dropShadow_1696_520" result="shape"/>
</filter>
<radialGradient id="paint0_radial_1696_520" cx="0" cy="0" r="1" gradientUnits="userSpaceOnUse" gradientTransform="translate(93.9339 77.5293) rotate(69.1373) scale(24.4254 50.0803)">
<stop stop-color="#06A5FF"/>
<stop offset="0.62" stop-color="#06A5FF" stop-opacity="0.38"/>
<stop offset="1" stop-color="#06A5FF" stop-opacity="0"/>
</radialGradient>
</defs>
</svg>
