<svg width="24" height="24" viewBox="0 0 24 24" fill="none" xmlns="http://www.w3.org/2000/svg">
<mask id="mask0_2642_929" style="mask-type:alpha" maskUnits="userSpaceOnUse" x="0" y="0" width="24" height="24">
<rect width="24" height="24" fill="#D9D9D9"/>
</mask>
<g mask="url(#mask0_2642_929)">
<path d="M0 24V3.08041L5.91615 0L11.8323 3.08041V7.86204H24V24H0ZM1.86821 22.2069H9.96407V19.2184H1.86821V22.2069ZM1.86821 17.4253H9.96407V14.4367H1.86821V17.4253ZM1.86821 12.6437H9.96407V9.65512H1.86821V12.6437ZM1.86821 7.86204H9.96407V4.87349L5.91614 3L1.86821 4.87349V7.86204ZM11.8323 22.2069H22.1318V9.65512H11.8323V22.2069ZM14.5629 14.4367V12.6437H19.1617V14.4367H14.5629ZM14.5629 19.2184V17.4253H19.1617V19.2184H14.5629Z" fill="white"/>
</g>
</svg>
