<svg width="24" height="24" viewBox="0 0 24 24" fill="none" xmlns="http://www.w3.org/2000/svg">
<path fill-rule="evenodd" clip-rule="evenodd" d="M3.72343 5L11.9427 11.4914L20.162 5H3.72343ZM22 6.09691L11.9427 14.0399L2 6.18741V18.6667C2 19.1269 2.3731 19.5 2.83333 19.5H21.1667C21.6269 19.5 22 19.1269 22 18.6667V6.09691ZM0 5.83333C0 4.26853 1.26853 3 2.83333 3H21.1667C22.7315 3 24 4.26853 24 5.83333V18.6667C24 20.2315 22.7315 21.5 21.1667 21.5H2.83333C1.26853 21.5 0 20.2315 0 18.6667V5.83333Z" fill="white"/>
</svg>
