<svg width="30" height="30" viewBox="0 0 30 30" fill="none" xmlns="http://www.w3.org/2000/svg">
<path d="M15 1.5C7.53157 1.5 1.5 7.53157 1.5 15C1.5 22.4684 7.53157 28.5 15 28.5C22.4684 28.5 28.5 22.4684 28.5 15C28.5 7.53157 22.4684 1.5 15 1.5ZM15 23.5C10.3084 23.5 6.5 19.6916 6.5 15C6.5 10.3084 10.3084 6.5 15 6.5C19.6916 6.5 23.5 10.3084 23.5 15C23.5 19.6916 19.6916 23.5 15 23.5Z" fill="url(#paint0_linear_2419_1584)" stroke="white" stroke-width="3"/>
<path d="M15 25.0005C20.5228 25.0005 25 20.5233 25 15.0005C25 9.47764 20.5228 5.00049 15 5.00049C9.47715 5.00049 5 9.47764 5 15.0005C5 20.5233 9.47715 25.0005 15 25.0005Z" fill="#06A5FF"/>
<path d="M14.1672 9.85068C14.5629 9.25616 15.4363 9.25616 15.8321 9.85068L17.0173 11.6313C17.1499 11.8305 17.3496 11.9756 17.58 12.0401L19.6398 12.6171C20.3275 12.8098 20.5974 13.6405 20.1542 14.2005L18.827 15.878C18.6785 16.0657 18.6023 16.3004 18.6121 16.5395L18.6998 18.6768C18.7291 19.3904 18.0225 19.9037 17.3529 19.6554L15.3474 18.9115C15.123 18.8283 14.8762 18.8283 14.6518 18.9115L12.6463 19.6554C11.9767 19.9037 11.2701 19.3904 11.2994 18.6768L11.3871 16.5395C11.3969 16.3004 11.3207 16.0657 11.1722 15.878L9.84498 14.2005C9.40185 13.6405 9.67175 12.8098 10.3595 12.6171L12.4192 12.0401C12.6496 11.9756 12.8493 11.8305 12.9819 11.6313L14.1672 9.85068Z" fill="white"/>
<defs>
<linearGradient id="paint0_linear_2419_1584" x1="15" y1="3" x2="15" y2="27" gradientUnits="userSpaceOnUse">
<stop stop-color="#98D6FA"/>
<stop offset="1" stop-color="#06A5FF"/>
</linearGradient>
</defs>
</svg>
