<svg width="24" height="24" viewBox="0 0 24 24" fill="none" xmlns="http://www.w3.org/2000/svg">
<g clip-path="url(#clip0_2422_465)">
<path d="M12 22C17.5228 22 22 17.5228 22 12C22 6.47715 17.5228 2 12 2C6.47715 2 2 6.47715 2 12C2 17.5228 6.47715 22 12 22Z" fill="#FB7200"/>
<path d="M14.47 10.4484L12.563 7.48808C12.3166 7.10423 11.6946 7.10423 11.4481 7.48808L9.54117 10.4484C9.35341 10.7428 8.92507 10.827 8.61995 10.6324L6.61323 9.39151C6.16142 9.11283 5.54532 9.4441 5.604 9.9331L6.42546 16.2902C6.46067 16.5794 6.73645 16.8002 7.06503 16.8002H16.9344C17.263 16.8002 17.5387 16.5794 17.5739 16.2902L18.3954 9.9331C18.46 9.43884 17.8439 9.10758 17.392 9.39151L15.3912 10.6324C15.0802 10.8217 14.6577 10.7376 14.47 10.4484Z" fill="white"/>
<path d="M12 0C5.36 0 0 5.36 0 12C0 18.64 5.36 24 12 24C18.64 24 24 18.64 24 12C24 5.36 18.64 0 12 0ZM12 22C6.48 22 2 17.52 2 12C2 6.48 6.48 2 12 2C17.52 2 22 6.48 22 12C22 17.52 17.52 22 12 22Z" fill="url(#paint0_linear_2422_465)"/>
</g>
<defs>
<linearGradient id="paint0_linear_2422_465" x1="12" y1="0" x2="12" y2="24" gradientUnits="userSpaceOnUse">
<stop stop-color="#FDBA74"/>
<stop offset="1" stop-color="#FB7200"/>
</linearGradient>
<clipPath id="clip0_2422_465">
<rect width="24" height="24" fill="white"/>
</clipPath>
</defs>
</svg>
