<svg width="1440" height="761" viewBox="0 0 1440 761" fill="none" xmlns="http://www.w3.org/2000/svg">
<g clip-path="url(#clip0_193_3622)">
<mask id="mask0_193_3622" style="mask-type:luminance" maskUnits="userSpaceOnUse" x="-134" y="0" width="1673" height="474">
<path d="M1500.87 17.5117C1433.72 -15.3938 1348.67 -0.545151 1294.69 53.5412C1279.07 69.1716 1265.67 87.8969 1247.19 99.4112C1196.97 130.727 1132.27 97.7871 1075.66 111.671C979.774 135.175 938.61 281.396 840.78 292.14C800.863 296.526 760.841 276.782 723.306 264.872C667.999 247.316 607.269 229.983 554.186 254.27C505.659 276.477 470.194 331.16 417.702 336.583C375.564 340.94 337.785 311.84 299.581 292.311C209.35 246.208 100.614 253.806 13.6603 305.3C-50.1714 343.106 -100.659 404.312 -133.892 473.984L1538.54 471.926L1500.87 17.4807L1500.87 17.5117Z" fill="white"/>
</mask>
<g mask="url(#mask0_193_3622)">
<path d="M1500.87 17.5117C1433.72 -15.3938 1348.67 -0.54515 1294.69 53.5412C1279.07 69.1716 1265.67 87.8969 1247.19 99.4112C1196.97 130.727 1132.27 97.7871 1075.66 111.671C979.774 135.175 938.61 281.396 840.78 292.14C800.863 296.526 760.841 276.782 723.306 264.872C667.999 247.316 607.269 229.983 554.186 254.27C505.659 276.477 470.194 331.16 417.702 336.583C375.564 340.94 337.785 311.84 299.581 292.311C209.35 246.208 100.614 253.806 13.6603 305.3C-50.1714 343.106 -100.659 404.312 -133.892 473.984L1538.54 471.926L1500.87 17.4807L1500.87 17.5117Z" fill="url(#paint0_linear_193_3622)"/>
</g>
<mask id="mask1_193_3622" style="mask-type:luminance" maskUnits="userSpaceOnUse" x="-167" y="466" width="1673" height="208">
<path d="M1468.13 665.737C1401 679.874 1315.95 673.375 1261.94 649.968C1246.31 643.203 1232.9 635.105 1214.41 630.114C1164.18 616.542 1099.5 630.696 1042.88 624.643C946.984 614.396 905.745 551.223 807.909 546.483C767.991 544.548 727.98 553.031 690.451 558.134C635.154 565.656 574.433 573.077 521.338 562.536C472.8 552.898 437.307 529.252 384.812 526.856C342.673 524.931 304.909 537.456 266.715 545.848C176.51 565.66 67.771 562.266 -19.2089 539.944C-83.0594 523.555 -133.578 497.077 -166.847 466.962L1505.57 469.583L1468.13 665.75L1468.13 665.737Z" fill="white"/>
</mask>
<g mask="url(#mask1_193_3622)">
<path d="M1468.13 665.737C1401 679.874 1315.95 673.375 1261.94 649.968C1246.31 643.203 1232.9 635.105 1214.41 630.114C1164.18 616.542 1099.5 630.696 1042.88 624.643C946.984 614.396 905.745 551.223 807.909 546.483C767.991 544.548 727.98 553.031 690.451 558.134C635.154 565.656 574.433 573.077 521.338 562.536C472.8 552.898 437.307 529.252 384.813 526.856C342.673 524.931 304.909 537.456 266.715 545.848C176.51 565.66 67.771 562.266 -19.2089 539.944C-83.0594 523.555 -133.578 497.077 -166.847 466.962L1505.57 469.583L1468.13 665.75L1468.13 665.737Z" fill="url(#paint1_linear_193_3622)"/>
</g>
<mask id="mask2_193_3622" style="mask-type:luminance" maskUnits="userSpaceOnUse" x="1201" y="74" width="240" height="240">
<path d="M1440.03 186.864C1440.07 187.823 1440.12 188.759 1440.14 189.672C1440.44 198.119 1439.87 208.051 1437.45 219.055C1436.4 224.42 1434.46 231.498 1430.97 239.717C1430.15 241.726 1429.15 243.94 1428.07 246.109C1427.82 246.634 1427.55 247.16 1427.3 247.685C1427.21 247.89 1427.09 248.073 1426.98 248.278C1426.68 248.872 1426.38 249.443 1426.06 250.013C1424.47 253.004 1422.82 255.812 1421.11 258.438C1420.57 259.305 1420 260.15 1419.45 260.995C1419.38 261.109 1419.31 261.2 1419.22 261.315C1418.81 261.908 1418.4 262.502 1417.99 263.073C1414.61 267.867 1411.1 271.999 1407.63 275.607C1406.97 276.291 1406.31 276.976 1405.64 277.638C1405.35 277.935 1405.07 278.209 1404.78 278.506C1404.5 278.78 1404.23 279.054 1403.96 279.328C1403.82 279.442 1403.7 279.556 1403.59 279.67C1403.45 279.807 1403.32 279.944 1403.18 280.058C1402.93 280.287 1402.68 280.538 1402.43 280.766C1397.75 285.127 1393.85 288.141 1390.56 290.515C1390.47 290.583 1390.38 290.652 1390.29 290.72C1390.33 290.698 1390.38 290.652 1390.4 290.629C1390.06 290.88 1389.72 291.109 1389.4 291.337C1388.05 292.319 1386.43 293.369 1384.77 294.396C1383.88 294.99 1382.99 295.56 1382.19 296.017C1380.04 297.318 1377.12 298.962 1374.86 300.081C1374.86 300.081 1374.82 300.081 1374.8 300.104C1373.7 300.652 1372.63 301.177 1371.56 301.679C1371.56 301.679 1371.53 301.679 1371.51 301.679C1371.49 301.679 1371.44 301.702 1371.42 301.725C1370.78 302.022 1370.16 302.318 1369.57 302.569C1368.75 302.935 1367.95 303.277 1367.15 303.597C1364.73 304.647 1362.2 305.629 1359.53 306.542C1359.51 306.542 1359.49 306.542 1359.46 306.565C1357.36 307.295 1355.22 307.98 1352.96 308.597C1341.67 311.839 1330.05 313.277 1318.19 312.957C1312.07 312.889 1304.98 312.181 1297.38 310.629L1296.54 310.469C1296.54 310.469 1296.54 310.469 1296.51 310.469C1296.49 310.469 1296.47 310.469 1296.44 310.469C1294.41 310.035 1292.38 309.578 1290.17 308.985C1288.71 308.62 1287.02 308.117 1285.61 307.661C1285.58 307.661 1285.56 307.661 1285.52 307.638C1285.38 307.592 1285.22 307.547 1285.08 307.501C1282.75 306.747 1281.71 306.428 1279.97 305.766C1279.77 305.697 1279.58 305.629 1279.4 305.56C1277.51 304.875 1276.18 304.35 1274.52 303.62C1273.45 303.163 1272.4 302.706 1271.32 302.227C1271.26 302.204 1271.21 302.181 1271.14 302.136C1269.77 301.519 1268.43 300.857 1267.06 300.172C1267.01 300.149 1266.97 300.127 1266.9 300.104C1265.71 299.51 1264.55 298.894 1263.38 298.254C1262.56 297.798 1261.76 297.341 1260.99 296.885C1260.69 296.702 1260.37 296.542 1260.08 296.36C1252.09 291.656 1246.29 286.999 1242.78 283.871C1242.42 283.552 1242.14 283.3 1241.98 283.163C1240.36 281.748 1238.88 280.378 1237.74 279.237C1237.37 278.871 1236.96 278.483 1236.57 278.072C1236.55 278.049 1236.51 278.004 1236.48 277.981L1236.39 277.89C1234.48 275.972 1232.15 273.552 1229.32 270.173C1216.02 254.465 1207.28 235.973 1203.65 215.904C1203.54 215.334 1203.44 214.763 1203.33 214.169C1203.33 214.101 1203.31 214.032 1203.28 213.941C1202.74 210.836 1202.3 207.663 1202.1 204.969C1202.1 204.809 1202.08 204.626 1202.05 204.443C1201.87 202.297 1201.73 199.923 1201.67 197.503C1201.64 197.115 1201.62 196.727 1201.6 196.361V195.129C1201.6 194.284 1201.6 193.462 1201.6 192.64C1201.6 190.654 1201.64 188.736 1201.76 187.001C1201.85 185.448 1201.96 183.942 1202.12 182.48C1202.12 182.321 1202.14 182.138 1202.17 181.978C1202.21 181.476 1202.26 180.951 1202.33 180.471C1202.42 179.649 1202.51 178.85 1202.6 178.097C1202.6 178.051 1202.6 177.983 1202.6 177.937C1202.6 177.869 1202.6 177.8 1202.62 177.732C1205.13 157.686 1212.66 138.988 1224.73 122.801C1225.03 122.39 1225.35 121.979 1225.65 121.568C1225.78 121.386 1225.92 121.203 1226.06 121.02C1226.51 120.427 1226.97 119.856 1227.4 119.331C1237.44 106.569 1249.47 96.7971 1262.06 89.6968C1283.64 77.1856 1306.32 72.5738 1327.04 74.3774C1327.04 74.3774 1327.09 74.3774 1327.11 74.3774C1327.29 74.3774 1327.5 74.3774 1327.68 74.4003C1328.66 74.4459 1329.64 74.5372 1330.69 74.6286C1331.08 74.6514 1331.47 74.6971 1331.86 74.7427C1332.4 74.7884 1332.93 74.834 1333.43 74.9025C1333.43 74.9025 1333.45 74.9025 1333.48 74.9025C1334.11 74.971 1334.71 75.0395 1335.26 75.108C1335.28 75.108 1335.3 75.108 1335.32 75.108C1337.7 75.4048 1339.23 75.6559 1339.34 75.6788C1341.35 75.9756 1342.63 76.181 1344.77 76.6605C1344.88 76.6605 1345.02 76.7061 1345.13 76.729C1345.29 76.7518 1345.43 76.7975 1345.59 76.8431C1345.75 76.8888 1345.89 76.9116 1346.05 76.9573C1346.89 77.1399 1347.78 77.3454 1348.72 77.5509L1349.13 77.6422L1350.68 78.0303C1350.68 78.0303 1350.77 78.0303 1350.82 78.0531H1350.86C1352.44 78.4413 1354.42 79.0349 1356.06 79.5372C1356.09 79.5372 1356.11 79.5371 1356.13 79.56C1356.29 79.6056 1356.45 79.6513 1356.59 79.6969C1356.89 79.7883 1357.16 79.8796 1357.43 79.9709C1357.5 79.9938 1357.57 80.0166 1357.66 80.0394C1359.35 80.5874 1360.35 80.907 1361.88 81.5006C1362.02 81.5462 1362.18 81.6147 1362.32 81.6604C1362.34 81.6604 1362.36 81.6604 1362.41 81.6832C1363.46 82.0714 1364.53 82.4823 1365.6 82.9161C1366.03 83.0987 1366.45 83.2814 1366.88 83.4412C1367.38 83.6467 1367.86 83.8521 1368.36 84.0576C1368.89 84.2631 1369.43 84.5142 1370 84.7882C1372.13 85.7471 1374.16 86.7516 1376.07 87.7562C1376.12 87.779 1376.17 87.8018 1376.21 87.8246C1386.98 93.4638 1394.65 99.5139 1398.89 103.304C1399.26 103.623 1399.53 103.875 1399.69 104.012C1400.81 105.016 1401.88 106.021 1402.97 107.048C1403.29 107.345 1403.61 107.642 1403.96 107.938C1405.23 109.126 1407.24 111.18 1409.41 113.578C1413.61 118.189 1417.33 122.984 1420.5 127.915C1421 128.669 1421.48 129.422 1421.91 130.13C1422.25 130.655 1422.62 131.249 1422.98 131.865C1429.94 143.166 1433.85 153.737 1436.01 162.298C1436.2 163.006 1436.38 163.691 1436.51 164.33C1436.54 164.421 1436.56 164.558 1436.58 164.65C1438.55 172.458 1439.55 179.764 1439.94 186.407C1439.94 186.521 1439.94 186.636 1439.94 186.75L1440.03 186.864Z" fill="white"/>
</mask>
<g mask="url(#mask2_193_3622)">
<path d="M1440.03 186.864C1440.07 187.823 1440.12 188.759 1440.14 189.672C1440.44 198.119 1439.87 208.051 1437.45 219.055C1436.4 224.42 1434.46 231.498 1430.97 239.717C1430.15 241.726 1429.14 243.94 1428.07 246.109C1427.82 246.634 1427.55 247.16 1427.3 247.685C1427.21 247.89 1427.09 248.073 1426.98 248.278C1426.68 248.872 1426.38 249.443 1426.06 250.013C1424.47 253.004 1422.82 255.812 1421.11 258.438C1420.57 259.305 1420 260.15 1419.45 260.995C1419.38 261.109 1419.31 261.2 1419.22 261.315C1418.81 261.908 1418.4 262.502 1417.99 263.073C1414.61 267.867 1411.1 271.999 1407.63 275.607C1406.97 276.291 1406.31 276.976 1405.64 277.638C1405.35 277.935 1405.07 278.209 1404.78 278.506C1404.5 278.78 1404.23 279.054 1403.96 279.328C1403.82 279.442 1403.7 279.556 1403.59 279.67C1403.45 279.807 1403.32 279.944 1403.18 280.058C1402.93 280.287 1402.68 280.538 1402.43 280.766C1397.75 285.127 1393.85 288.141 1390.56 290.515C1390.47 290.583 1390.38 290.652 1390.29 290.72C1390.33 290.698 1390.38 290.652 1390.4 290.629C1390.06 290.88 1389.72 291.109 1389.4 291.337C1388.05 292.319 1386.43 293.369 1384.77 294.396C1383.88 294.99 1382.99 295.56 1382.19 296.017C1380.04 297.318 1377.12 298.962 1374.86 300.081C1374.86 300.081 1374.82 300.081 1374.8 300.104C1373.7 300.652 1372.63 301.177 1371.56 301.679C1371.56 301.679 1371.53 301.679 1371.51 301.679C1371.49 301.679 1371.44 301.702 1371.42 301.725C1370.78 302.022 1370.16 302.318 1369.57 302.569C1368.75 302.935 1367.95 303.277 1367.15 303.597C1364.73 304.647 1362.2 305.629 1359.53 306.542C1359.51 306.542 1359.49 306.542 1359.46 306.565C1357.36 307.295 1355.22 307.98 1352.96 308.597C1341.67 311.839 1330.05 313.277 1318.19 312.957C1312.07 312.889 1304.98 312.181 1297.38 310.629L1296.54 310.469C1296.54 310.469 1296.54 310.469 1296.51 310.469C1296.49 310.469 1296.47 310.469 1296.44 310.469C1294.41 310.035 1292.38 309.578 1290.17 308.985C1288.71 308.62 1287.02 308.117 1285.61 307.661C1285.58 307.661 1285.56 307.661 1285.51 307.638C1285.38 307.592 1285.22 307.547 1285.08 307.501C1282.75 306.747 1281.7 306.428 1279.97 305.766C1279.77 305.697 1279.58 305.629 1279.4 305.56C1277.51 304.875 1276.18 304.35 1274.52 303.62C1273.45 303.163 1272.4 302.706 1271.32 302.227C1271.25 302.204 1271.21 302.181 1271.14 302.136C1269.77 301.519 1268.43 300.857 1267.06 300.172C1267.01 300.149 1266.97 300.127 1266.9 300.104C1265.71 299.51 1264.55 298.894 1263.38 298.254C1262.56 297.798 1261.76 297.341 1260.99 296.885C1260.69 296.702 1260.37 296.542 1260.07 296.36C1252.09 291.656 1246.29 286.999 1242.78 283.871C1242.41 283.552 1242.14 283.3 1241.98 283.163C1240.36 281.748 1238.88 280.378 1237.74 279.237C1237.37 278.871 1236.96 278.483 1236.57 278.072C1236.55 278.049 1236.51 278.004 1236.48 277.981L1236.39 277.89C1234.47 275.972 1232.15 273.552 1229.32 270.173C1216.02 254.465 1207.28 235.973 1203.65 215.904C1203.54 215.334 1203.44 214.763 1203.33 214.169C1203.33 214.101 1203.31 214.032 1203.28 213.941C1202.74 210.836 1202.3 207.663 1202.1 204.969C1202.1 204.809 1202.08 204.626 1202.05 204.443C1201.87 202.297 1201.73 199.923 1201.66 197.503C1201.64 197.115 1201.62 196.727 1201.6 196.361V195.129C1201.6 194.284 1201.6 193.462 1201.6 192.64C1201.6 190.654 1201.64 188.736 1201.76 187.001C1201.85 185.448 1201.96 183.942 1202.12 182.48C1202.12 182.321 1202.14 182.138 1202.17 181.978C1202.21 181.476 1202.26 180.951 1202.33 180.471C1202.42 179.649 1202.51 178.85 1202.6 178.097C1202.6 178.051 1202.6 177.983 1202.6 177.937C1202.6 177.869 1202.6 177.8 1202.62 177.732C1205.13 157.686 1212.66 138.988 1224.73 122.801C1225.03 122.39 1225.35 121.979 1225.64 121.568C1225.78 121.386 1225.92 121.203 1226.06 121.02C1226.51 120.427 1226.97 119.856 1227.4 119.331C1237.44 106.569 1249.47 96.7971 1262.06 89.6968C1283.64 77.1856 1306.32 72.5738 1327.04 74.3774C1327.04 74.3774 1327.09 74.3774 1327.11 74.3774C1327.29 74.3774 1327.5 74.3774 1327.68 74.4003C1328.66 74.4459 1329.64 74.5372 1330.69 74.6286C1331.08 74.6514 1331.47 74.6971 1331.86 74.7427C1332.4 74.7884 1332.93 74.834 1333.43 74.9025C1333.43 74.9025 1333.45 74.9025 1333.48 74.9025C1334.11 74.971 1334.71 75.0395 1335.25 75.108C1335.28 75.108 1335.3 75.108 1335.32 75.108C1337.7 75.4048 1339.22 75.6559 1339.34 75.6788C1341.35 75.9756 1342.62 76.181 1344.77 76.6605C1344.88 76.6605 1345.02 76.7061 1345.13 76.729C1345.29 76.7518 1345.43 76.7975 1345.59 76.8431C1345.75 76.8888 1345.89 76.9116 1346.05 76.9573C1346.89 77.1399 1347.78 77.3454 1348.72 77.5509L1349.13 77.6422L1350.68 78.0303C1350.68 78.0303 1350.77 78.0303 1350.82 78.0531H1350.86C1352.44 78.4413 1354.42 79.0349 1356.06 79.5372C1356.09 79.5372 1356.11 79.5371 1356.13 79.56C1356.29 79.6056 1356.45 79.6513 1356.59 79.6969C1356.88 79.7883 1357.16 79.8796 1357.43 79.9709C1357.5 79.9938 1357.57 80.0166 1357.66 80.0394C1359.35 80.5874 1360.35 80.907 1361.88 81.5006C1362.02 81.5462 1362.18 81.6147 1362.32 81.6604C1362.34 81.6604 1362.36 81.6604 1362.41 81.6832C1363.46 82.0714 1364.53 82.4823 1365.6 82.9161C1366.03 83.0987 1366.44 83.2814 1366.88 83.4412C1367.38 83.6467 1367.86 83.8521 1368.36 84.0576C1368.89 84.2631 1369.43 84.5142 1370 84.7882C1372.13 85.7471 1374.16 86.7516 1376.07 87.7562C1376.12 87.779 1376.16 87.8018 1376.21 87.8246C1386.98 93.4638 1394.65 99.5139 1398.89 103.304C1399.26 103.623 1399.53 103.875 1399.69 104.012C1400.81 105.016 1401.88 106.021 1402.97 107.048C1403.29 107.345 1403.61 107.642 1403.96 107.938C1405.23 109.126 1407.24 111.18 1409.41 113.578C1413.61 118.189 1417.33 122.984 1420.5 127.915C1421 128.669 1421.48 129.422 1421.91 130.13C1422.25 130.655 1422.62 131.249 1422.98 131.865C1429.94 143.166 1433.84 153.737 1436.01 162.298C1436.19 163.006 1436.38 163.691 1436.51 164.33C1436.54 164.421 1436.56 164.558 1436.58 164.65C1438.54 172.458 1439.55 179.764 1439.94 186.407C1439.94 186.521 1439.94 186.636 1439.94 186.75L1440.03 186.864Z" fill="url(#paint2_radial_193_3622)"/>
<g style="mix-blend-mode:screen" opacity="0.2">
<path d="M1519.57 123.555C1525.64 134.673 1530.38 145.518 1534.01 155.746C1534.1 155.974 1534.17 156.203 1534.26 156.431C1534.92 158.349 1535.56 160.221 1536.18 162.093C1538.14 168.029 1539.85 174.581 1541.42 181.385C1358.96 213.987 1182.61 290.447 1035.33 399.509C1027.94 389.577 1021.3 379.144 1015.6 368.116C1015 367.021 1014.43 365.902 1013.86 364.783C1013.79 364.646 1013.73 364.509 1013.66 364.349C1010.62 358.391 1007.79 352.181 1005.79 346.815C1005.65 346.473 1005.53 346.108 1005.4 345.765C1005.33 345.605 1005.26 345.4 1005.21 345.217C1156.03 235.996 1334.55 158.646 1519.57 123.555ZM1011.44 160.381C1011.24 160.837 1011.03 161.294 1010.83 161.75C1010.37 162.801 1009.92 163.805 1009.46 164.855C995.084 197.458 988.354 231.475 989.243 265.516C1126.64 162.458 1290.17 88.3044 1460.47 52.5973C1459.1 51.4557 1457.62 50.2685 1456.07 49.0585C1446.01 41.0906 1434.8 33.6935 1422.64 27.0041C1416.32 23.4882 1410.59 20.6115 1407.01 19.0134C1406.1 18.6024 1405.21 18.2143 1404.3 17.8034C1401.24 16.4107 1398.23 15.0865 1395.13 13.7395C1394.71 13.5569 1393.96 13.2373 1392.93 12.8263C1381.69 8.10037 1362.09 1.18268 1336.28 -3.38345C1226.12 29.9493 1120.19 77.8251 1023.19 138.098C1019.82 143.965 1016.46 149.833 1013.52 156.043C1012.84 157.413 1012.15 158.828 1011.47 160.358L1011.44 160.381ZM1191.19 495.854C1191.58 495.922 1191.97 496.014 1192.36 496.082C1194.41 496.493 1196.44 496.927 1198.58 497.315C1201.6 497.886 1204.61 498.365 1207.62 498.822C1207.76 498.822 1207.87 498.867 1208.01 498.89C1211.48 499.415 1214.92 499.872 1218.39 500.26C1218.55 500.26 1218.71 500.306 1218.87 500.306C1221.56 500.603 1224.25 500.877 1226.92 501.082C1227.77 501.173 1228.5 501.219 1229.27 501.265C1312.92 451.311 1403.13 410.833 1496.75 381.541C1498.94 378.573 1501.18 375.445 1503.53 371.975C1503.96 371.336 1504.44 370.673 1504.85 370.057C1505.08 369.715 1505.31 369.349 1505.53 368.984C1505.76 368.664 1505.94 368.368 1506.17 368.025C1506.65 367.295 1507.11 366.564 1507.56 365.811C1508.04 365.057 1508.52 364.281 1509.02 363.482C1510.14 361.678 1511.28 359.852 1512.36 358.025C1513.86 355.514 1515.3 352.729 1516.78 350.057C1401.95 383.23 1291.56 432.75 1191.19 495.854ZM1058.97 426.54C1072.61 439.896 1087.99 451.882 1105.15 462.11C1113.5 467.201 1120.19 470.626 1125.64 473.297L1125.91 473.434C1125.91 473.434 1126.1 473.525 1126.19 473.571C1127.35 474.142 1128.47 474.667 1129.52 475.169C1131.34 476.037 1133.49 477.019 1135.79 478.023C1256.17 396.13 1393.69 335.492 1536.82 301.93C1537.61 299.282 1538.55 296.794 1539.26 294.054C1539.62 292.707 1539.96 291.337 1540.31 289.944C1540.42 289.465 1540.56 289.008 1540.67 288.529C1540.97 287.296 1541.26 286.063 1541.54 284.808C1542.7 279.716 1543.71 274.579 1544.39 269.922C1547.54 250.95 1547.79 235.265 1547.08 223.667C1546.95 219.832 1546.56 216.247 1546.26 212.594C1371.3 249.603 1203.01 323.825 1058.99 426.54H1058.97ZM990.179 281.543C990.476 284.693 990.727 287.844 991.16 290.995C991.16 291.132 991.206 291.291 991.229 291.406C991.229 291.52 991.251 291.634 991.274 291.748C991.479 293.346 991.73 295.013 992.004 296.771C992.164 297.821 992.346 298.894 992.529 299.967C992.597 300.332 992.643 300.675 992.712 301.04C993.168 303.711 993.716 306.428 994.286 309.213C1139.92 200.015 1313.97 122.276 1494.83 86.6377C1489.22 79.8114 1482.72 72.8252 1475.23 65.7477C1300.55 102.528 1132.64 177.504 990.179 281.52V281.543Z" fill="#1A2F4B"/>
</g>
</g>
<g filter="url(#filter0_d_193_3622)">
<path d="M1234.52 275.812C1233.95 275.218 1233.38 274.624 1232.83 274.008C1196.65 279.807 1170.66 276.428 1164.57 262.615C1153.29 237.022 1214.24 185.22 1300.44 147.161C1386.66 109.102 1465.97 98.9656 1477.26 124.559C1481.85 134.992 1474.48 149.741 1458.28 166.156C1452.99 171.521 1446.71 177.069 1439.66 182.685C1439.73 183.484 1439.82 184.306 1439.87 185.151C1470.01 161.202 1485.84 138.394 1479.34 123.645C1467.54 96.888 1386.87 106.522 1299.5 145.083C1248.55 167.572 1206.43 195.014 1182.48 219.283C1165.36 236.634 1157.54 252.387 1162.44 263.529C1168.95 278.3 1196.49 281.953 1234.5 275.812H1234.52Z" fill="#27BEFF"/>
</g>
<path d="M1296.08 135.998C1296.08 135.998 1313.24 134.674 1321.84 126.272C1331.33 117.003 1331.56 85.565 1331.56 85.565C1331.56 85.565 1331.79 117.003 1341.28 126.272C1349.88 134.674 1367.04 135.998 1367.04 135.998C1367.04 135.998 1349.88 137.322 1341.28 145.724C1331.79 154.993 1331.56 186.431 1331.56 186.431C1331.56 186.431 1331.33 154.993 1321.84 145.724C1313.24 137.322 1296.08 135.998 1296.08 135.998Z" fill="#27BEFF"/>
<path d="M1272.67 267.228C1272.67 267.228 1283.99 266.36 1289.67 260.813C1295.92 254.694 1296.08 233.964 1296.08 233.964C1296.08 233.964 1296.24 254.694 1302.49 260.813C1308.17 266.36 1319.49 267.228 1319.49 267.228C1319.49 267.228 1308.17 268.096 1302.49 273.643C1296.24 279.762 1296.08 300.492 1296.08 300.492C1296.08 300.492 1295.92 279.762 1289.67 273.643C1283.99 268.096 1272.67 267.228 1272.67 267.228Z" fill="#27BEFF"/>
<path d="M1178.71 186.408C1178.71 186.408 1182.23 186.134 1184.01 184.421C1185.94 182.527 1185.99 176.065 1185.99 176.065C1185.99 176.065 1186.04 182.504 1187.98 184.421C1189.73 186.134 1193.27 186.408 1193.27 186.408C1193.27 186.408 1189.75 186.682 1187.98 188.394C1186.04 190.289 1185.99 196.75 1185.99 196.75C1185.99 196.75 1185.94 190.312 1184.01 188.394C1182.25 186.682 1178.71 186.408 1178.71 186.408Z" fill="#27BEFF"/>
<path d="M1374.52 171.226C1374.52 171.226 1379.7 170.815 1382.28 168.304C1385.13 165.518 1385.2 156.043 1385.2 156.043C1385.2 156.043 1385.27 165.518 1388.12 168.304C1390.7 170.838 1395.88 171.226 1395.88 171.226C1395.88 171.226 1390.7 171.637 1388.12 174.148C1385.27 176.934 1385.2 186.408 1385.2 186.408C1385.2 186.408 1385.13 176.934 1382.28 174.148C1379.7 171.614 1374.52 171.226 1374.52 171.226Z" fill="#27BEFF"/>
<mask id="mask3_193_3622" style="mask-type:luminance" maskUnits="userSpaceOnUse" x="79" y="384" width="251" height="250">
<path d="M292.53 420.529C291.812 419.827 291.113 419.141 290.415 418.489C284.023 412.387 275.87 405.93 265.598 400.169C260.679 397.259 253.806 393.853 244.965 390.863C242.826 390.108 240.4 389.352 237.962 388.681C237.377 388.511 236.777 388.36 236.193 388.191C235.969 388.119 235.748 388.081 235.508 388.027C234.839 387.846 234.187 387.681 233.52 387.533C230.076 386.7 226.743 386.03 223.505 385.54C222.448 385.364 221.392 385.221 220.353 385.061C220.216 385.035 220.097 385.025 219.945 385.017C219.196 384.925 218.448 384.833 217.717 384.756C211.63 384.058 205.965 383.926 200.742 384.123C199.748 384.163 198.754 384.203 197.778 384.259C197.34 384.284 196.937 384.307 196.499 384.332C196.095 384.356 195.691 384.379 195.287 384.402C195.103 384.429 194.935 384.439 194.767 384.448C194.565 384.46 194.363 384.472 194.179 384.499C193.826 384.536 193.456 384.557 193.104 384.594C186.453 385.211 181.393 386.159 177.26 387.071C177.143 387.095 177.026 387.119 176.909 387.142C176.959 387.122 177.026 387.119 177.06 387.117C176.626 387.209 176.21 387.317 175.81 387.408C174.11 387.775 172.166 388.308 170.208 388.893C169.127 389.175 168.064 389.472 167.154 389.777C164.65 390.545 161.34 391.68 158.899 392.664C158.899 392.664 158.868 392.7 158.834 392.702C157.646 393.175 156.492 393.646 155.356 394.134C155.356 394.134 155.341 394.151 155.325 394.169C155.309 394.187 155.259 394.207 155.226 394.209C154.551 394.501 153.892 394.775 153.284 395.063C152.429 395.449 151.608 395.834 150.804 396.235C148.306 397.391 145.783 398.683 143.218 400.13C143.202 400.148 143.186 400.166 143.152 400.168C141.126 401.297 139.103 402.494 137.055 403.827C126.689 410.381 117.51 418.437 109.53 427.911C105.342 432.727 100.973 438.752 96.9153 445.755L96.4546 446.525C96.4546 446.525 96.4546 446.525 96.4387 446.542C96.4229 446.56 96.4071 446.578 96.3913 446.596C95.3215 448.481 94.2697 450.382 93.1982 452.52C92.4706 453.912 91.6918 455.578 91.0672 456.998C91.0514 457.016 91.0356 457.034 91.0218 457.085C90.9625 457.224 90.8873 457.38 90.828 457.519C89.8023 459.857 89.3239 460.898 88.6383 462.71C88.5493 462.918 88.4762 463.108 88.4031 463.297C87.6245 465.25 87.1167 466.647 86.5321 468.454C86.1449 469.607 85.7735 470.743 85.4042 471.912C85.3745 471.981 85.3607 472.033 85.3489 472.118C84.8808 473.614 84.4642 475.124 84.0496 476.667C84.0358 476.719 84.022 476.77 83.9923 476.839C83.633 478.177 83.3073 479.513 82.9995 480.864C82.7864 481.822 82.5892 482.762 82.4077 483.684C82.3446 484.043 82.2479 484.403 82.1848 484.761C80.3192 494.256 79.9371 502.012 79.9429 506.926C79.9394 507.433 79.9456 507.821 79.9418 508.04C79.9238 510.287 79.965 512.396 80.0653 514.078C80.0974 514.617 80.1157 515.207 80.1677 515.795C80.1697 515.829 80.1737 515.896 80.1757 515.93L80.1837 516.064C80.3522 518.892 80.6282 522.388 81.305 526.942C84.347 548.231 92.7298 567.896 105.888 584.671C106.255 585.157 106.637 585.624 107.022 586.126C107.075 586.173 107.113 586.239 107.169 586.32C109.214 588.905 111.392 591.448 113.354 593.481C113.479 593.592 113.605 593.736 113.732 593.881C115.282 595.515 117.041 597.272 118.884 599.007C119.172 599.294 119.459 599.582 119.728 599.853L120.691 600.71C121.351 601.297 121.993 601.868 122.635 602.439C124.186 603.82 125.716 605.117 127.15 606.234C128.426 607.241 129.682 608.2 130.934 609.09C131.059 609.202 131.218 609.311 131.358 609.404C131.782 609.717 132.224 610.047 132.646 610.327C133.351 610.827 134.039 611.311 134.691 611.763C134.726 611.795 134.78 611.842 134.815 611.874C134.869 611.922 134.922 611.969 134.992 611.999C152.389 623.972 172.217 631.095 193.232 632.932C193.759 632.986 194.301 633.023 194.828 633.077C195.066 633.097 195.303 633.117 195.541 633.137C196.321 633.194 197.083 633.235 197.794 633.262C214.726 634.302 230.699 631.717 244.98 626.83C269.724 618.693 289.057 604.213 302.019 586.805C302.019 586.805 302.05 586.769 302.066 586.751C302.193 586.609 302.335 586.449 302.444 586.291C303.089 585.494 303.698 584.665 304.355 583.784C304.606 583.465 304.839 583.131 305.073 582.797C305.417 582.338 305.745 581.897 306.04 581.458C306.04 581.458 306.056 581.44 306.072 581.423C306.461 580.877 306.819 580.367 307.146 579.892C307.161 579.874 307.177 579.856 307.193 579.839C308.607 577.782 309.471 576.415 309.533 576.311C310.694 574.539 311.419 573.4 312.532 571.394C312.612 571.305 312.671 571.166 312.732 571.062C312.825 570.921 312.884 570.783 312.96 570.626C313.035 570.47 313.112 570.348 313.187 570.191C313.63 569.406 314.087 568.569 314.575 567.697L314.788 567.313L315.561 565.834C315.561 565.834 315.625 565.763 315.639 565.711L315.67 565.676C316.459 564.178 317.372 562.218 318.12 560.588C318.135 560.57 318.151 560.552 318.149 560.519C318.224 560.362 318.299 560.206 318.359 560.068C318.493 559.773 318.612 559.496 318.73 559.219C318.76 559.15 318.79 559.08 318.835 558.993C319.578 557.296 320.025 556.291 320.622 554.687C320.681 554.548 320.738 554.376 320.797 554.237C320.813 554.22 320.829 554.202 320.843 554.15C321.268 553.062 321.691 551.94 322.096 550.803C322.254 550.338 322.396 549.891 322.572 549.442C322.759 548.907 322.931 548.391 323.119 547.857C323.322 547.305 323.506 546.703 323.688 546.068C324.411 543.747 325.035 541.465 325.579 539.273C325.593 539.221 325.607 539.17 325.621 539.118C328.686 526.802 329.278 516.619 329.262 510.676C329.265 510.17 329.259 509.782 329.263 509.562C329.254 507.992 329.213 506.458 329.17 504.89C329.16 504.434 329.149 503.979 329.155 503.506C329.114 501.685 328.902 498.691 328.533 495.335C327.843 488.856 326.678 482.624 325.026 476.724C324.785 475.809 324.529 474.912 324.277 474.082C324.104 473.451 323.894 472.753 323.666 472.04C319.666 458.76 314.116 448.372 308.932 440.732C308.506 440.098 308.097 439.48 307.693 438.929C307.637 438.847 307.546 438.734 307.491 438.653C302.753 431.697 297.743 425.837 292.823 420.918C292.734 420.838 292.645 420.759 292.555 420.68L292.53 420.529Z" fill="white"/>
</mask>
<g mask="url(#mask3_193_3622)">
<path d="M292.53 420.53C291.812 419.828 291.113 419.142 290.415 418.49C284.023 412.388 275.87 405.931 265.598 400.17C260.679 397.26 253.806 393.854 244.965 390.864C242.826 390.109 240.4 389.353 237.962 388.682C237.377 388.512 236.777 388.361 236.193 388.192C235.969 388.12 235.748 388.082 235.508 388.028C234.839 387.847 234.187 387.682 233.52 387.534C230.076 386.701 226.743 386.031 223.505 385.541C222.448 385.365 221.392 385.222 220.353 385.062C220.216 385.036 220.097 385.026 219.945 385.018C219.196 384.926 218.448 384.834 217.717 384.757C211.63 384.059 205.965 383.927 200.742 384.124C199.748 384.164 198.754 384.204 197.778 384.26C197.341 384.285 196.937 384.308 196.499 384.333C196.095 384.357 195.691 384.38 195.287 384.403C195.103 384.43 194.935 384.44 194.767 384.449C194.565 384.461 194.363 384.473 194.179 384.5C193.826 384.537 193.456 384.558 193.104 384.595C186.453 385.212 181.393 386.16 177.26 387.072C177.143 387.096 177.026 387.119 176.909 387.143C176.959 387.123 177.026 387.119 177.06 387.118C176.626 387.21 176.21 387.318 175.81 387.409C174.11 387.776 172.166 388.309 170.208 388.894C169.127 389.176 168.064 389.473 167.154 389.778C164.65 390.546 161.34 391.681 158.899 392.665C158.899 392.665 158.868 392.701 158.834 392.703C157.646 393.176 156.492 393.647 155.356 394.135C155.356 394.135 155.341 394.152 155.325 394.17C155.309 394.188 155.259 394.208 155.226 394.21C154.551 394.501 153.892 394.776 153.284 395.064C152.429 395.45 151.608 395.835 150.804 396.236C148.306 397.392 145.783 398.684 143.218 400.131C143.202 400.149 143.186 400.167 143.152 400.169C141.126 401.298 139.103 402.495 137.055 403.828C126.689 410.382 117.51 418.438 109.53 427.912C105.342 432.728 100.973 438.753 96.9153 445.756L96.4546 446.526C96.4546 446.526 96.4546 446.526 96.4388 446.543C96.4229 446.561 96.4071 446.579 96.3913 446.597C95.3216 448.482 94.2697 450.383 93.1982 452.521C92.4707 453.913 91.6918 455.579 91.0673 456.999C91.0514 457.017 91.0356 457.035 91.0218 457.086C90.9625 457.225 90.8874 457.381 90.8281 457.52C89.8023 459.858 89.324 460.899 88.6383 462.711C88.5494 462.919 88.4763 463.108 88.4031 463.298C87.6246 465.251 87.1168 466.648 86.5321 468.454C86.1449 469.608 85.7736 470.744 85.4042 471.913C85.3746 471.982 85.3608 472.034 85.349 472.119C84.8809 473.615 84.4642 475.125 84.0496 476.668C84.0358 476.72 84.022 476.771 83.9924 476.84C83.6331 478.178 83.3074 479.514 82.9996 480.865C82.7865 481.823 82.5892 482.763 82.4078 483.685C82.3447 484.044 82.248 484.404 82.1849 484.762C80.3192 494.257 79.9372 502.013 79.943 506.927C79.9394 507.433 79.9457 507.821 79.9419 508.041C79.9238 510.288 79.9651 512.397 80.0654 514.079C80.0975 514.618 80.1158 515.208 80.1677 515.796C80.1697 515.83 80.1737 515.897 80.1757 515.931L80.1838 516.065C80.3523 518.892 80.6283 522.389 81.305 526.943C84.3471 548.232 92.7299 567.897 105.888 584.672C106.255 585.158 106.637 585.625 107.022 586.127C107.075 586.174 107.113 586.24 107.169 586.321C109.214 588.906 111.392 591.449 113.354 593.481C113.479 593.593 113.605 593.737 113.732 593.882C115.282 595.516 117.041 597.272 118.884 599.008C119.172 599.295 119.459 599.583 119.728 599.854L120.691 600.711C121.351 601.298 121.993 601.869 122.635 602.44C124.187 603.821 125.716 605.118 127.15 606.235C128.426 607.242 129.682 608.201 130.934 609.091C131.059 609.202 131.218 609.312 131.358 609.405C131.782 609.718 132.224 610.048 132.646 610.328C133.351 610.828 134.039 611.312 134.691 611.764C134.726 611.796 134.78 611.843 134.816 611.875C134.869 611.923 134.922 611.97 134.992 612C152.39 623.973 172.217 631.096 193.232 632.933C193.759 632.987 194.301 633.024 194.828 633.078C195.066 633.098 195.303 633.118 195.541 633.138C196.321 633.195 197.083 633.236 197.794 633.263C214.726 634.303 230.699 631.718 244.981 626.831C269.724 618.694 289.058 604.214 302.019 586.806C302.019 586.806 302.051 586.77 302.066 586.752C302.193 586.61 302.335 586.45 302.444 586.292C303.089 585.495 303.698 584.666 304.355 583.785C304.606 583.466 304.839 583.132 305.073 582.798C305.417 582.339 305.745 581.898 306.04 581.459C306.04 581.459 306.056 581.441 306.072 581.423C306.461 580.878 306.819 580.368 307.146 579.893C307.161 579.875 307.177 579.857 307.193 579.84C308.607 577.783 309.471 576.416 309.533 576.312C310.694 574.54 311.419 573.401 312.533 571.395C312.612 571.306 312.671 571.167 312.732 571.063C312.825 570.922 312.884 570.784 312.96 570.627C313.035 570.471 313.112 570.349 313.187 570.192C313.63 569.407 314.087 568.57 314.575 567.698L314.788 567.314L315.562 565.835C315.562 565.835 315.625 565.764 315.639 565.712L315.67 565.677C316.459 564.179 317.372 562.219 318.12 560.589C318.135 560.571 318.151 560.553 318.149 560.52C318.224 560.363 318.299 560.207 318.359 560.069C318.493 559.774 318.612 559.497 318.73 559.22C318.76 559.151 318.79 559.081 318.835 558.994C319.578 557.297 320.025 556.292 320.622 554.688C320.681 554.549 320.738 554.377 320.798 554.238C320.813 554.221 320.829 554.203 320.843 554.151C321.268 553.063 321.691 551.941 322.096 550.804C322.254 550.339 322.396 549.892 322.572 549.443C322.759 548.908 322.931 548.392 323.119 547.858C323.323 547.306 323.506 546.704 323.688 546.069C324.411 543.748 325.035 541.466 325.579 539.274C325.593 539.222 325.607 539.171 325.621 539.119C328.686 526.803 329.278 516.62 329.262 510.677C329.265 510.171 329.259 509.783 329.263 509.563C329.254 507.993 329.213 506.459 329.17 504.891C329.16 504.435 329.15 503.98 329.155 503.507C329.114 501.686 328.902 498.692 328.533 495.336C327.843 488.857 326.678 482.625 325.026 476.725C324.785 475.81 324.529 474.913 324.277 474.083C324.104 473.452 323.894 472.754 323.666 472.041C319.666 458.761 314.116 448.373 308.932 440.733C308.506 440.099 308.097 439.481 307.693 438.93C307.637 438.848 307.546 438.735 307.491 438.654C302.753 431.698 297.743 425.838 292.823 420.919C292.734 420.839 292.645 420.76 292.555 420.681L292.53 420.53Z" fill="url(#paint3_radial_193_3622)"/>
<g style="mix-blend-mode:screen" opacity="0.2">
<path d="M397.234 402.238C392.758 389.781 387.578 378.546 382.104 368.611C381.989 368.381 381.858 368.169 381.743 367.94C380.704 366.091 379.684 364.292 378.649 362.511C375.373 356.857 371.441 350.97 367.218 345.016C215.15 464.619 33.059 548.982 -154.335 588.03C-151.705 600.694 -148.16 613.119 -143.502 625.228C-143.058 626.452 -142.58 627.674 -142.101 628.896C-142.042 629.045 -141.982 629.193 -141.905 629.358C-139.355 635.864 -136.466 642.384 -133.667 647.677C-133.495 648.022 -133.289 648.365 -133.116 648.71C-133.039 648.874 -132.926 649.07 -132.815 649.233C57.1585 607.538 241.449 522.104 397.234 402.238ZM15.918 772.802C15.4188 772.645 14.9196 772.488 14.4203 772.33C13.2832 771.956 12.1817 771.614 11.0446 771.24C-24.4002 759.795 -55.6478 741.407 -81.6258 717.062C94.2228 681.544 265.615 605.576 411.671 497.612C411.613 499.472 411.512 501.453 411.381 503.504C410.625 516.885 408.631 530.758 405.42 544.888C403.782 552.258 402.056 558.722 400.819 562.625C400.507 563.622 400.193 564.585 399.881 565.582C398.848 568.934 397.792 572.202 396.692 575.557C396.55 576.004 396.277 576.813 395.886 577.899C391.774 589.952 383.58 610.039 369.243 633.331C266.771 696.054 155.866 745.382 41.4799 779.123C34.5528 777.679 27.6415 776.217 20.7476 774.197C19.2025 773.779 17.6217 773.329 15.9516 772.8L15.918 772.802ZM-121.471 399.575C-121.255 399.225 -121.057 398.859 -120.842 398.509C-119.738 396.623 -118.668 394.738 -117.483 392.797C-115.84 390.052 -114.125 387.371 -112.392 384.705C-112.297 384.599 -112.253 384.478 -112.176 384.355C-110.18 381.287 -108.147 378.283 -106.044 375.31C-105.933 375.185 -105.858 375.029 -105.747 374.904C-104.111 372.599 -102.457 370.31 -100.765 368.086C-100.251 367.364 -99.7798 366.763 -99.2773 366.127C-2.21479 335.622 92.0044 293.411 179.842 240.776C183.681 241.131 187.676 241.561 192.017 242.14C192.818 242.246 193.667 242.332 194.434 242.44C194.86 242.501 195.304 242.576 195.747 242.652C196.155 242.697 196.514 242.76 196.94 242.821C197.843 242.955 198.73 243.106 199.636 243.274C200.557 243.424 201.496 243.59 202.468 243.754C204.653 244.135 206.871 244.515 209.042 244.948C212.049 245.519 215.223 246.333 218.339 247.033C112.746 313.514 -2.53036 365.168 -121.471 399.575ZM-159.054 550.819C-160.023 530.902 -158.717 510.585 -154.804 490.101C-152.988 480.053 -151.025 472.462 -149.329 466.354L-149.246 466.046C-149.246 466.046 -149.19 465.84 -149.163 465.737C-148.801 464.433 -148.436 463.197 -148.1 462.029C-147.511 460.003 -146.79 457.649 -145.976 455.155C1.5276 418.202 144.314 353.123 269.839 264.853C272.462 266.071 275.055 267.071 277.687 268.423C278.992 269.074 280.3 269.759 281.626 270.46C282.079 270.704 282.531 270.914 282.985 271.159C284.154 271.784 285.323 272.409 286.494 273.068C291.279 275.699 295.989 278.485 300.103 281.187C317.11 291.915 329.538 302.617 338.109 311.226C341.011 313.998 343.542 316.791 346.19 319.56C195.888 430.249 21.1333 509.887 -159.039 550.802L-159.054 550.819ZM-93.4985 705.197C-95.7543 702.776 -98.0417 700.392 -100.202 697.865C-100.31 697.769 -100.403 697.623 -100.476 697.526C-100.565 697.446 -100.639 697.349 -100.712 697.252C-101.818 695.982 -102.946 694.628 -104.13 693.193C-104.839 692.339 -105.551 691.451 -106.263 690.563C-106.501 690.256 -106.737 689.982 -106.974 689.675C-108.745 687.464 -110.487 685.149 -112.268 682.769C74.0938 645.097 255.585 563.419 408.917 447.171C410.356 456.29 411.302 466.214 411.639 476.966C261.705 587.6 86.6314 666.412 -93.4807 705.213L-93.4985 705.197Z" fill="#C4DBFB"/>
</g>
</g>
<g filter="url(#filter1_d_193_3622)">
<path d="M80.302 518.956C80.3701 519.813 80.4382 520.669 80.54 521.523C50.861 545.685 35.4487 568.274 42.0228 582.608C54.2152 609.153 137.086 597.643 226.753 556.918C316.436 516.175 379.47 461.434 367.293 434.87C362.317 424.055 345.657 419.557 321.559 420.781C313.684 421.18 304.984 422.216 295.691 423.809C295.114 423.201 294.534 422.559 293.905 421.937C333.583 415.085 362.429 418.583 369.45 433.887C382.189 461.65 318.597 517.806 227.729 559.089C174.736 583.164 124.002 596.922 88.3694 598.737C62.9048 600.021 45.1425 595.182 39.834 583.626C32.7951 568.307 49.071 544.32 80.2861 518.974L80.302 518.956Z" fill="#FEFEFC"/>
</g>
<path d="M232.251 568.324C232.251 568.324 245.175 555.857 257.692 554.988C271.503 554.027 296.194 575.71 296.194 575.71C296.194 575.71 271.819 553.671 271.163 539.82C270.568 527.266 281.425 512.957 281.425 512.957C281.425 512.957 268.501 525.424 255.984 526.294C242.173 527.254 217.482 505.571 217.482 505.571C217.482 505.571 241.857 527.61 242.513 541.462C243.108 554.016 232.251 568.324 232.251 568.324Z" fill="#FEFEFC"/>
<path d="M113.882 494.936C113.882 494.936 122.402 486.709 130.668 486.134C139.775 485.511 156.063 499.801 156.063 499.801C156.063 499.801 139.997 485.261 139.554 476.129C139.162 467.838 146.328 458.404 146.328 458.404C146.328 458.404 137.808 466.631 129.542 467.206C120.435 467.83 104.147 453.539 104.147 453.539C104.147 453.539 120.213 468.079 120.656 477.212C121.048 485.502 113.882 494.936 113.882 494.936Z" fill="#FEFEFC"/>
<path d="M111.074 624.281C111.074 624.281 113.723 621.73 116.292 621.532C119.115 621.337 124.189 625.794 124.189 625.794C124.189 625.794 119.196 621.281 119.044 618.435C118.925 615.873 121.162 612.923 121.162 612.923C121.162 612.923 118.513 615.474 115.944 615.672C113.121 615.868 108.047 611.411 108.047 611.411C108.047 611.411 113.04 615.923 113.192 618.77C113.311 621.331 111.074 624.281 111.074 624.281Z" fill="#FEFEFC"/>
<path d="M259.481 482.711C259.481 482.711 263.391 478.956 267.137 478.69C271.287 478.402 278.728 484.937 278.728 484.937C278.728 484.937 271.382 478.295 271.185 474.133C270.994 470.359 274.28 466.048 274.28 466.048C274.28 466.048 270.37 469.803 266.624 470.068C262.474 470.357 255.033 463.822 255.033 463.822C255.033 463.822 262.379 470.464 262.576 474.626C262.767 478.4 259.481 482.711 259.481 482.711Z" fill="#FEFEFC"/>
</g>
<defs>
<filter id="filter0_d_193_3622" x="1151" y="98.4961" width="339.787" height="190.164" filterUnits="userSpaceOnUse" color-interpolation-filters="sRGB">
<feFlood flood-opacity="0" result="BackgroundImageFix"/>
<feColorMatrix in="SourceAlpha" type="matrix" values="0 0 0 0 0 0 0 0 0 0 0 0 0 0 0 0 0 0 127 0" result="hardAlpha"/>
<feOffset/>
<feGaussianBlur stdDeviation="5"/>
<feColorMatrix type="matrix" values="0 0 0 0 1 0 0 0 0 1 0 0 0 0 1 0 0 0 0.75 0"/>
<feBlend mode="normal" in2="BackgroundImageFix" result="effect1_dropShadow_193_3622"/>
<feBlend mode="normal" in="SourceGraphic" in2="effect1_dropShadow_193_3622" result="shape"/>
</filter>
<filter id="filter1_d_193_3622" x="28.21" y="408.586" width="352.865" height="200.353" filterUnits="userSpaceOnUse" color-interpolation-filters="sRGB">
<feFlood flood-opacity="0" result="BackgroundImageFix"/>
<feColorMatrix in="SourceAlpha" type="matrix" values="0 0 0 0 0 0 0 0 0 0 0 0 0 0 0 0 0 0 127 0" result="hardAlpha"/>
<feOffset/>
<feGaussianBlur stdDeviation="5"/>
<feColorMatrix type="matrix" values="0 0 0 0 1 0 0 0 0 1 0 0 0 0 1 0 0 0 0.75 0"/>
<feBlend mode="normal" in2="BackgroundImageFix" result="effect1_dropShadow_193_3622"/>
<feBlend mode="normal" in="SourceGraphic" in2="effect1_dropShadow_193_3622" result="shape"/>
</filter>
<linearGradient id="paint0_linear_193_3622" x1="680.29" y1="162.536" x2="693.03" y2="455.295" gradientUnits="userSpaceOnUse">
<stop stop-color="#98D6FA"/>
<stop offset="1" stop-color="#27B1FF"/>
</linearGradient>
<linearGradient id="paint1_linear_193_3622" x1="642.289" y1="602.785" x2="642.737" y2="467.295" gradientUnits="userSpaceOnUse">
<stop stop-color="#315D93"/>
<stop offset="1" stop-color="#27B1FF"/>
</linearGradient>
<radialGradient id="paint2_radial_193_3622" cx="0" cy="0" r="1" gradientUnits="userSpaceOnUse" gradientTransform="translate(1377.58 184.878) rotate(45.3978) scale(144.052 144.051)">
<stop offset="0.03" stop-color="#1D66D3"/>
<stop offset="0.59" stop-color="#008CDC"/>
<stop offset="1" stop-color="#0C4497"/>
</radialGradient>
<radialGradient id="paint3_radial_193_3622" cx="0" cy="0" r="1" gradientUnits="userSpaceOnUse" gradientTransform="translate(250.764 470.607) rotate(-93.7912) scale(150.48 150.458)">
<stop offset="0.03" stop-color="#109867"/>
<stop offset="0.59" stop-color="#34D399"/>
<stop offset="1" stop-color="#D1FAE5"/>
</radialGradient>
<clipPath id="clip0_193_3622">
<rect width="1440" height="761" fill="white" transform="translate(0 0.000976562)"/>
</clipPath>
</defs>
</svg>
