<svg width="374" height="299" viewBox="0 0 374 299" fill="none" xmlns="http://www.w3.org/2000/svg">
<g clip-path="url(#clip0_2015_463)">
<path d="M78.4869 130.273C63.608 191.524 102.776 251.001 165.976 263.125C179.116 265.646 192.247 265.919 204.947 264.22C207.02 263.943 209.075 263.62 211.116 263.24C226.29 260.431 240.726 254.806 253.669 246.842L253.682 246.844C270.95 236.236 285.546 221.463 295.638 203.689C300.806 194.591 304.787 184.7 307.343 174.178C308.927 167.659 309.894 161.159 310.276 154.727C313.606 100.798 276.328 52.159 219.854 41.3248C193.724 36.3117 167.599 40.1761 144.873 50.7711C141.894 52.1431 138.972 53.6361 136.122 55.2395C130.086 58.6577 124.356 62.5755 118.975 66.9323C117.434 68.1804 115.925 69.476 114.436 70.803C111.061 73.8081 107.868 76.9997 104.857 80.3779C92.3801 94.3311 83.1031 111.269 78.4869 130.273Z" fill="#56B8FF" fill-opacity="0.31"/>
<path d="M93.2515 133.107C80.2925 186.454 114.407 238.257 169.452 248.817C180.896 251.013 192.333 251.25 203.395 249.771C205.2 249.529 206.99 249.248 208.767 248.917C221.984 246.47 234.557 241.572 245.829 234.635L245.841 234.637C260.881 225.397 273.594 212.53 282.383 197.05C286.884 189.126 290.352 180.511 292.578 171.347C293.957 165.669 294.8 160.008 295.133 154.406C298.033 107.435 265.565 65.0721 216.378 55.6359C193.619 51.2697 170.865 54.6354 151.071 63.8633C148.477 65.0583 145.932 66.3586 143.45 67.7552C138.193 70.7323 133.202 74.1446 128.515 77.9392C127.173 79.0263 125.859 80.1547 124.562 81.3105C121.622 83.9278 118.841 86.7076 116.219 89.6499C105.352 101.803 97.2721 116.555 93.2515 133.107Z" fill="#0A327A"/>
<path d="M109.164 118.692C94.7899 177.867 132.623 235.317 193.668 247.029C198.71 247.996 203.747 248.626 208.767 248.917C221.984 246.47 234.557 241.572 245.829 234.635L245.841 234.637C254.926 229.057 263.154 222.16 270.177 214.155L270.188 214.158C274.796 208.907 278.898 203.188 282.383 197.05C286.884 189.126 290.352 180.511 292.578 171.347C293.957 165.669 294.8 160.008 295.133 154.406C298.033 107.435 265.565 65.0721 216.378 55.6359C206.969 53.8308 197.562 53.3465 188.36 54.0542C175.309 55.0558 162.679 58.455 151.072 63.8633C148.477 65.0583 145.932 66.3587 143.45 67.7552C138.193 70.7323 133.202 74.1446 128.515 77.9392C119.553 89.8453 112.831 103.598 109.164 118.692Z" fill="url(#paint0_radial_2015_463)"/>
<path d="M143.45 67.7533C153.347 85.4501 175.965 121.398 200.875 130.522C225.794 139.661 225.088 164.903 250.437 172.528C264.232 176.675 274.351 189.732 282.384 197.048C286.885 189.124 290.353 180.509 292.579 171.345C293.958 165.667 294.8 160.006 295.133 154.404C292.431 152.829 289.149 151.503 285.232 150.392C261.848 143.756 247.563 114.041 214.591 105.267C188.647 98.3568 161.479 73.9491 151.072 63.8614C148.478 65.0564 145.932 66.3567 143.45 67.7533Z" fill="#00060E" fill-opacity="0.2"/>
<path d="M116.219 89.6489C116.679 103.362 118.38 123.028 123.857 138.977C133.319 166.47 173.305 189.304 185.506 199.604C193.624 206.467 198.978 231.9 203.395 249.77C218.576 247.748 233.042 242.504 245.829 234.634C243.169 233.499 240.552 232.241 238.163 230.858C225.405 223.512 226.863 194.056 193.305 170.764C159.747 147.471 155.076 136.767 142.81 122.145C134.618 112.374 128.029 93.043 124.562 81.3095C121.623 83.9268 118.842 86.7066 116.219 89.6489Z" fill="#00060E" fill-opacity="0.2"/>
<path d="M188.36 54.0542C210.811 56.2724 234.481 63.7187 254.701 81.1872C314.31 132.671 270.177 214.156 270.177 214.156L270.188 214.158C274.796 208.907 278.898 203.188 282.383 197.05C286.884 189.126 290.352 180.511 292.578 171.347C293.957 165.669 294.8 160.008 295.133 154.406C298.033 107.435 265.565 65.0721 216.378 55.6359C206.969 53.8308 197.562 53.3465 188.36 54.0542Z" fill="#52B6FF" fill-opacity="0.77"/>
<path opacity="0.4" d="M205.034 63.2801C205.034 63.2801 242.707 64.229 261.779 81.5255C280.852 98.8219 245.546 139.888 263.335 162.52C281.125 185.152 261.763 227.428 199.621 181.173C137.479 134.917 149.417 61.1937 205.034 63.2801Z" fill="url(#paint1_linear_2015_463)" fill-opacity="0.8"/>
<path d="M251.027 179.999C254.661 169.742 263.576 163.302 270.939 165.615C278.301 167.928 281.323 178.118 277.689 188.375C274.054 198.632 265.139 205.072 257.777 202.759C250.414 200.446 247.392 190.256 251.027 179.999Z" fill="white" fill-opacity="0.8"/>
<path d="M248.793 212.128C249.984 208.765 254.105 207.031 257.997 208.255C261.89 209.48 264.08 213.199 262.889 216.562C261.698 219.926 257.577 221.66 253.685 220.435C249.792 219.211 247.602 215.491 248.793 212.128Z" fill="white" fill-opacity="0.8"/>
<path d="M48.5688 94.4703C51.284 88.5447 60.0034 81.7661 104.116 91.2854C107.035 91.9173 110.027 92.5995 113.095 93.332C110.665 96.2992 108.396 99.4173 106.321 102.657C105.782 102.529 105.241 102.413 104.702 102.286C72.5716 95.0416 60.8522 96.9349 58.6346 98.4662C58.9866 100.995 65.6243 110.179 93.4938 126.702C93.9255 126.965 94.3599 127.217 94.8061 127.47C119.01 141.694 151.698 157.196 187.1 171.215C220.274 184.362 252.81 195.033 279.646 201.586C281.964 202.139 284.235 202.683 286.455 203.181C318.585 210.425 330.305 208.532 332.522 207.001C332.17 204.472 325.532 195.287 297.663 178.764C295.681 177.592 293.64 176.408 291.551 175.215C291.925 173.93 292.261 172.65 292.579 171.342C293.156 168.968 293.635 166.587 294.023 164.225C298.452 166.695 302.653 169.134 306.615 171.538C344.542 194.541 345.315 205.073 342.588 210.996C340.03 216.58 332.134 222.928 294.25 215.66C291.965 215.222 289.559 214.725 287.041 214.181C282.533 213.209 277.822 212.101 272.954 210.879C246.391 204.174 214.906 193.764 182.625 180.969C148.131 167.292 116.393 152.368 92.1243 138.408C89.5061 136.898 86.9826 135.405 84.5419 133.928C50.4252 113.242 46.3754 102.633 47.8883 96.4046C48.0583 95.7049 48.3 95.067 48.5688 94.4703Z" fill="url(#paint2_linear_2015_463)"/>
</g>
<defs>
<radialGradient id="paint0_radial_2015_463" cx="0" cy="0" r="1" gradientUnits="userSpaceOnUse" gradientTransform="translate(248.117 220.218) rotate(-131.032) scale(157.712 160.032)">
<stop offset="0.421347" stop-color="#258AC2"/>
<stop offset="1" stop-color="#112260"/>
</radialGradient>
<linearGradient id="paint1_linear_2015_463" x1="203.504" y1="64.1616" x2="250.373" y2="192.17" gradientUnits="userSpaceOnUse">
<stop stop-color="#112260"/>
<stop offset="1" stop-color="#48A0FF"/>
</linearGradient>
<linearGradient id="paint2_linear_2015_463" x1="115.044" y1="134.298" x2="258.657" y2="232.495" gradientUnits="userSpaceOnUse">
<stop stop-color="#0A327A"/>
<stop offset="1" stop-color="#48A0FF"/>
</linearGradient>
<clipPath id="clip0_2015_463">
<rect width="332" height="234" fill="white" transform="matrix(-0.977394 -0.211425 -0.211425 0.977394 373.968 70.1934)"/>
</clipPath>
</defs>
</svg>
