<svg width="317" height="327" viewBox="0 0 317 327" fill="none" xmlns="http://www.w3.org/2000/svg">
<g opacity="0.8" clip-path="url(#clip0_1717_52)">
<path d="M326.933 142.506C343.119 208.985 299.462 273.792 229.416 287.265C214.853 290.067 200.31 290.425 186.254 288.64C183.96 288.348 181.685 288.007 179.427 287.604C162.636 284.624 146.677 278.581 132.382 269.989L132.367 269.992C113.295 258.548 97.2007 242.566 86.1096 223.303C80.4296 213.442 76.0677 202.715 73.287 191.295C71.5643 184.219 70.5241 177.163 70.1314 170.176C66.6998 111.598 108.213 58.5746 170.803 46.5353C199.764 40.9647 228.677 45.0393 253.794 56.4428C257.086 57.9194 260.315 59.5277 263.463 61.2563C270.131 64.9415 276.458 69.1709 282.397 73.879C284.097 75.2279 285.762 76.6283 287.404 78.0631C291.128 81.312 294.649 84.7645 297.967 88.4206C311.718 103.522 321.911 121.88 326.933 142.506Z" fill="#0057FF" fill-opacity="0.2"/>
<path d="M310.569 145.655C324.667 203.556 286.643 260.001 225.636 271.736C212.952 274.176 200.285 274.488 188.042 272.933C186.044 272.679 184.064 272.382 182.097 272.031C167.473 269.435 153.572 264.172 141.122 256.689L141.109 256.691C124.497 246.724 110.48 232.804 100.82 216.026C95.873 207.438 92.0739 198.095 89.652 188.149C88.1516 181.986 87.2456 175.84 86.9036 169.754C83.9148 118.735 120.071 72.5536 174.586 62.0677C199.81 57.2159 224.992 60.7648 246.868 70.6969C249.735 71.9829 252.547 73.3837 255.29 74.8892C261.097 78.0989 266.607 81.7826 271.78 85.8832C273.261 87.058 274.711 88.2777 276.141 89.5274C279.385 92.3571 282.451 95.3642 285.341 98.5485C297.318 111.701 306.195 127.691 310.569 145.655Z" fill="#0A327A"/>
<path d="M293.016 130.07C308.653 194.295 266.484 256.893 198.826 269.907C193.239 270.982 187.658 271.691 182.097 272.031C167.473 269.435 153.572 264.172 141.122 256.689L141.109 256.691C131.075 250.672 121.996 243.217 114.257 234.554L114.243 234.557C109.166 228.874 104.651 222.679 100.82 216.026C95.873 207.439 92.0739 198.095 89.652 188.149C88.1516 181.986 87.2456 175.84 86.9036 169.755C83.9148 118.735 120.071 72.5536 174.586 62.0677C185.014 60.0619 195.434 59.491 205.621 60.2163C220.069 61.2425 234.04 64.8759 246.868 70.6969C249.735 71.9829 252.547 73.3837 255.29 74.8892C261.097 78.0989 266.607 81.7826 271.78 85.8832C281.648 98.7767 289.027 113.687 293.016 130.07Z" fill="url(#paint0_radial_1717_52)"/>
<path d="M255.289 74.8882C244.246 94.1626 219.028 133.327 191.398 143.359C163.759 153.406 164.422 180.829 136.314 189.233C121.018 193.804 109.75 208.039 100.82 216.025C95.8724 207.437 92.0733 198.094 89.6515 188.147C88.1511 181.985 87.245 175.839 86.903 169.753C89.9024 168.03 93.5437 166.573 97.8863 165.347C123.814 158.027 139.774 125.674 176.33 115.984C205.093 108.353 235.295 81.7054 246.867 70.6958C249.734 71.9818 252.547 73.3826 255.289 74.8882Z" fill="#00060E" fill-opacity="0.25"/>
<path d="M285.341 98.5479C284.768 113.45 282.791 134.825 276.649 152.179C266.041 182.095 221.651 207.093 208.091 218.342C199.068 225.838 193.019 253.496 188.043 272.932C171.24 270.808 155.246 265.179 141.122 256.688C144.074 255.443 146.978 254.063 149.631 252.55C163.793 244.508 162.319 212.511 199.592 187.045C236.865 161.578 242.088 149.926 255.741 133.981C264.859 123.326 272.247 102.292 276.142 89.5268C279.385 92.3565 282.452 95.3636 285.341 98.5479Z" fill="#00060E" fill-opacity="0.25"/>
<g style="mix-blend-mode:color-dodge">
<path d="M205.621 60.2163C180.748 62.7329 154.5 70.9356 132.025 90.011C65.7694 146.231 114.257 234.554 114.257 234.554L114.243 234.557C109.166 228.874 104.651 222.679 100.82 216.026C95.873 207.438 92.0739 198.095 89.652 188.149C88.1516 181.986 87.2456 175.84 86.9036 169.754C83.9148 118.735 120.071 72.5536 174.586 62.0677C185.014 60.0619 195.434 59.4911 205.621 60.2163Z" fill="#00327B"/>
</g>
<g style="mix-blend-mode:color-dodge" opacity="0.4">
<path d="M187.112 70.3197C187.112 70.3197 145.388 71.5294 124.185 90.4124C102.981 109.295 141.885 153.746 122.077 178.42C102.27 203.094 123.51 248.935 192.547 198.384C261.583 147.833 248.712 67.7888 187.112 70.3197Z" fill="url(#paint1_linear_1717_52)" fill-opacity="0.8"/>
</g>
<g style="mix-blend-mode:screen">
<path d="M135.526 197.364C131.497 186.253 121.657 179.307 113.547 181.849C105.437 184.391 102.128 195.458 106.156 206.568C110.184 217.679 120.024 224.625 128.134 222.083C136.244 219.541 139.554 208.474 135.526 197.364Z" fill="#9CB1FF" fill-opacity="0.7"/>
<path d="M137.912 232.252C136.591 228.61 132.037 226.749 127.739 228.097C123.441 229.444 121.027 233.489 122.348 237.131C123.668 240.774 128.222 242.634 132.52 241.287C136.818 239.94 139.232 235.895 137.912 232.252Z" fill="#9CB1FF" fill-opacity="0.7"/>
</g>
<path d="M360.234 103.466C357.256 97.0403 347.632 89.7168 298.736 100.269C295.501 100.969 292.184 101.725 288.783 102.535C291.46 105.747 293.958 109.124 296.24 112.634C296.838 112.493 297.438 112.365 298.035 112.224C333.651 104.2 346.62 106.202 349.068 107.855C348.667 110.604 341.272 120.614 310.331 138.699C309.852 138.986 309.37 139.262 308.874 139.539C282.003 155.108 245.73 172.107 206.459 187.506C169.66 201.947 133.579 213.696 103.83 220.943C101.26 221.555 98.7424 222.156 96.2815 222.708C60.6661 230.732 47.6969 228.73 45.2484 227.077C45.6502 224.328 53.0445 214.317 83.9858 196.233C86.1861 194.95 88.4521 193.654 90.7705 192.347C90.3624 190.953 89.9967 189.564 89.6511 188.145C89.0237 185.568 88.5042 182.983 88.0856 180.418C83.1693 183.123 78.5053 185.793 74.1066 188.424C31.9972 213.596 31.0906 225.043 34.0825 231.466C36.8886 237.521 45.603 244.38 87.5907 236.304C90.1223 235.817 92.789 235.265 95.5809 234.663C100.577 233.585 105.799 232.359 111.196 231.008C140.644 223.597 175.56 212.137 211.369 198.082C249.633 183.059 284.851 166.693 311.792 151.411C314.699 149.757 317.5 148.123 320.21 146.508C358.089 123.87 362.625 112.324 360.979 105.564C360.794 104.805 360.529 104.113 360.234 103.466Z" fill="url(#paint2_linear_1717_52)"/>
</g>
<defs>
<radialGradient id="paint0_radial_1717_52" cx="0" cy="0" r="1" gradientUnits="userSpaceOnUse" gradientTransform="translate(138.657 241.036) rotate(-48.3943) scale(173.524 175)">
<stop offset="0.421347" stop-color="#48A0FF"/>
<stop offset="1" stop-color="#112260"/>
</radialGradient>
<linearGradient id="paint1_linear_1717_52" x1="188.801" y1="71.2701" x2="138.945" y2="211.516" gradientUnits="userSpaceOnUse">
<stop stop-color="#112260"/>
<stop offset="1" stop-color="#48A0FF"/>
</linearGradient>
<linearGradient id="paint2_linear_1717_52" x1="286.43" y1="147.054" x2="128.53" y2="256.736" gradientUnits="userSpaceOnUse">
<stop stop-color="#0A327A"/>
<stop offset="1" stop-color="#48A0FF"/>
</linearGradient>
<clipPath id="clip0_1717_52">
<rect width="368" height="254" fill="white" transform="translate(0 78.6328) rotate(-12.2059)"/>
</clipPath>
</defs>
</svg>
