<svg width="222" height="175" viewBox="0 0 222 175" fill="none" xmlns="http://www.w3.org/2000/svg">
<g opacity="0.6" clip-path="url(#clip0_1728_448)">
<path d="M47.1044 75.828C38.4426 111.424 61.6625 146.09 98.9703 153.262C106.727 154.753 114.475 154.936 121.964 153.972C123.186 153.815 124.398 153.631 125.601 153.414C134.548 151.809 143.054 148.565 150.674 143.957L150.682 143.959C160.849 137.821 169.432 129.257 175.352 118.939C178.384 113.657 180.714 107.912 182.202 101.797C183.124 98.0085 183.682 94.2303 183.895 90.4899C185.758 59.1308 163.673 30.7714 130.336 24.3632C114.911 21.3981 99.5054 23.5962 86.1184 29.7152C84.3638 30.5075 82.6424 31.3704 80.9642 32.2975C77.41 34.2741 74.0369 36.5419 70.8702 39.0656C69.9638 39.7886 69.0758 40.5393 68.2002 41.3083C66.2146 43.0496 64.337 44.8998 62.5672 46.8589C55.2327 54.9506 49.7918 64.7842 47.1044 75.828Z" fill="#0057FF" fill-opacity="0.2"/>
<path d="M55.8197 77.5035C48.2755 108.506 68.4993 138.7 100.993 144.946C107.749 146.244 114.497 146.404 121.02 145.565C122.084 145.427 123.14 145.268 124.188 145.078C131.98 143.68 139.388 140.855 146.025 136.842L146.032 136.843C154.888 131.498 162.363 124.038 167.519 115.051C170.16 110.451 172.189 105.448 173.485 100.122C174.288 96.822 174.774 93.5313 174.96 90.2735C176.582 62.9607 157.347 38.2606 128.312 32.6792C114.877 30.0967 101.459 32.0112 89.7995 37.3407C88.2714 38.0308 86.7721 38.7822 85.3104 39.5898C82.2149 41.3113 79.277 43.2865 76.5189 45.4846C75.7294 46.1143 74.956 46.7681 74.1934 47.4379C72.464 48.9545 70.8287 50.566 69.2872 52.2723C62.8991 59.3199 58.1603 67.8846 55.8197 77.5035Z" fill="#0A327A"/>
<path d="M65.1802 69.1503C56.812 103.54 79.2405 137.024 115.277 143.951C118.253 144.523 121.226 144.9 124.188 145.078C131.98 143.68 139.388 140.855 146.025 136.842L146.032 136.843C151.381 133.615 156.222 129.619 160.35 124.977L160.357 124.978C163.066 121.933 165.475 118.615 167.519 115.051C170.16 110.451 172.189 105.448 173.485 100.122C174.288 96.822 174.774 93.5313 174.96 90.2735C176.582 62.9607 157.347 38.2606 128.312 32.6792C122.758 31.6116 117.207 31.3121 111.779 31.7062C104.082 32.2641 96.6369 34.2172 89.7995 37.3407C88.2714 38.0308 86.7721 38.7822 85.3104 39.5898C82.2149 41.3113 79.277 43.2865 76.5189 45.4846C71.2545 52.3923 67.3148 60.378 65.1802 69.1503Z" fill="url(#paint0_radial_1728_448)"/>
<path d="M85.3122 39.5899C91.1841 49.9012 104.596 70.8515 119.309 76.2056C134.027 81.5677 133.659 96.2476 148.628 100.73C156.774 103.168 162.768 110.782 167.521 115.051C170.162 110.451 172.191 105.448 173.487 100.122C174.29 96.8221 174.776 93.5314 174.962 90.2736C173.365 89.3526 171.426 88.5752 169.113 87.9213C155.305 84.018 146.821 66.7084 127.353 61.5427C112.034 57.4747 95.96 43.2275 89.8013 37.3408C88.2732 38.0309 86.7739 38.7823 85.3122 39.5899Z" fill="#00060E" fill-opacity="0.2"/>
<path d="M69.2881 52.2716C69.5849 60.2484 70.6257 71.6894 73.8875 80.9757C79.5212 96.9839 103.155 110.34 110.372 116.353C115.175 120.36 118.381 135.162 121.021 145.564C129.973 144.417 138.497 141.395 146.026 136.841C144.455 136.176 142.908 135.439 141.496 134.631C133.956 130.334 134.76 113.205 114.918 99.5945C95.0765 85.9838 92.3007 79.7494 85.0368 71.222C80.1852 65.5236 76.2618 54.2681 74.1942 47.4372C72.4649 48.9539 70.8295 50.5654 69.2881 52.2716Z" fill="#00060E" fill-opacity="0.2"/>
<g style="mix-blend-mode:color-dodge">
<path d="M111.779 31.7062C125.028 33.0389 139.007 37.4145 150.969 47.6126C186.233 77.6687 160.35 124.977 160.35 124.977L160.357 124.978C163.066 121.933 165.475 118.615 167.519 115.051C170.16 110.451 172.189 105.448 173.485 100.122C174.288 96.822 174.774 93.5313 174.96 90.2735C176.582 62.9607 157.347 38.2606 128.312 32.6792C122.758 31.6116 117.207 31.3121 111.779 31.7062Z" fill="#00327B"/>
</g>
<g style="mix-blend-mode:color-dodge" opacity="0.4">
<path d="M121.635 37.1042C121.635 37.1042 143.862 37.7274 155.147 47.8233C166.431 57.9191 145.68 81.7363 156.218 94.9331C166.755 108.13 155.413 132.681 118.665 105.661C81.9162 78.641 88.8195 35.7854 121.635 37.1042Z" fill="url(#paint1_linear_1728_448)" fill-opacity="0.8"/>
</g>
<g style="mix-blend-mode:screen">
<path d="M149.036 105.077C151.185 99.1287 156.431 95.4081 160.752 96.7668C165.074 98.1255 166.835 104.049 164.686 109.997C162.537 115.946 157.292 119.666 152.97 118.307C148.648 116.949 146.887 111.025 149.036 105.077Z" fill="#273F94" fill-opacity="0.7"/>
<path d="M147.747 123.758C148.451 121.808 150.878 120.811 153.168 121.531C155.458 122.252 156.743 124.416 156.039 126.366C155.335 128.316 152.907 129.313 150.618 128.593C148.328 127.873 147.043 125.708 147.747 123.758Z" fill="#273F94" fill-opacity="0.7"/>
</g>
<path d="M29.3863 54.9493C30.977 51.508 36.1082 47.5821 62.1506 53.2022C63.8735 53.5753 65.6405 53.9777 67.4514 54.4096C66.0234 56.1307 64.6909 57.9399 63.4729 59.82C63.1547 59.7449 62.835 59.6765 62.5168 59.6014C43.5479 55.327 36.6377 56.406 35.3323 57.2924C35.5447 58.7637 39.478 64.118 55.951 73.7808C56.2061 73.9345 56.4628 74.0816 56.7266 74.2299C71.0329 82.5482 90.3465 91.6266 111.259 99.847C130.854 107.556 150.069 113.825 165.913 117.687C167.282 118.013 168.623 118.333 169.933 118.627C188.902 122.901 195.813 121.822 197.118 120.936C196.906 119.465 192.972 114.11 176.499 104.447C175.328 103.762 174.121 103.069 172.887 102.372C173.105 101.625 173.301 100.881 173.486 100.121C173.822 98.7414 174.1 97.3575 174.324 95.9842C176.942 97.4293 179.425 98.8556 181.767 100.262C204.185 113.712 204.662 119.839 203.064 123.279C201.565 126.522 196.919 130.199 174.555 125.9C173.207 125.641 171.787 125.347 170.3 125.026C167.638 124.452 164.857 123.799 161.983 123.079C146.299 119.129 127.705 113.014 108.637 105.511C88.2611 97.4917 69.5087 88.7514 55.1651 80.5865C53.6177 79.7029 52.1261 78.83 50.6834 77.9666C30.5171 65.8704 28.1078 59.6925 28.9886 56.073C29.0875 55.6664 29.2289 55.2958 29.3863 54.9493Z" fill="url(#paint2_linear_1728_448)"/>
</g>
<defs>
<radialGradient id="paint0_radial_1728_448" cx="0" cy="0" r="1" gradientUnits="userSpaceOnUse" gradientTransform="translate(147.348 128.461) rotate(-131.461) scale(92.5917 93.5274)">
<stop offset="0.421347" stop-color="#258AC2"/>
<stop offset="1" stop-color="#112260"/>
</radialGradient>
<linearGradient id="paint1_linear_1728_448" x1="120.734" y1="37.614" x2="147.567" y2="112.532" gradientUnits="userSpaceOnUse">
<stop stop-color="#112260"/>
<stop offset="1" stop-color="#48A0FF"/>
</linearGradient>
<linearGradient id="paint2_linear_1728_448" x1="68.6791" y1="78.2396" x2="152.952" y2="136.545" gradientUnits="userSpaceOnUse">
<stop stop-color="#0A327A"/>
<stop offset="1" stop-color="#48A0FF"/>
</linearGradient>
<clipPath id="clip0_1728_448">
<rect width="196" height="136" fill="white" transform="matrix(-0.977394 -0.211425 -0.211425 0.977394 221.311 41.4453)"/>
</clipPath>
</defs>
</svg>
