<svg width="306" height="191" viewBox="0 0 306 191" fill="none" xmlns="http://www.w3.org/2000/svg">
<mask id="mask0_149_346" style="mask-type:luminance" maskUnits="userSpaceOnUse" x="62" y="0" width="170" height="170">
<path d="M231.077 89.8788C231.111 89.2019 231.139 88.542 231.162 87.8879C231.377 81.9096 230.969 74.8847 229.262 67.1089C228.514 63.3148 227.158 58.3035 224.697 52.4958C224.119 51.0681 223.41 49.5095 222.656 47.9794C222.475 47.604 222.288 47.2342 222.106 46.8645C222.032 46.7223 221.959 46.5801 221.885 46.4379C221.669 46.0227 221.46 45.6131 221.244 45.2149C220.121 43.1046 218.953 41.1137 217.751 39.2537C217.366 38.645 216.969 38.0364 216.572 37.4391C216.521 37.3652 216.47 37.2913 216.419 37.2173C216.13 36.7907 215.84 36.3755 215.551 35.9716C213.17 32.5814 210.692 29.652 208.248 27.1093C207.788 26.6202 207.312 26.1424 206.842 25.6645C206.637 25.4541 206.433 25.255 206.235 25.0502C206.036 24.8568 205.849 24.6634 205.651 24.47C205.56 24.3847 205.475 24.3051 205.39 24.2197C205.294 24.1287 205.197 24.032 205.106 23.941C204.936 23.7761 204.749 23.6111 204.568 23.4405C201.273 20.3574 198.518 18.2187 196.193 16.5407C196.13 16.4951 196.062 16.444 196 16.3984C196.028 16.4212 196.057 16.4439 196.085 16.4667C195.847 16.2961 195.609 16.1254 195.382 15.9605C194.429 15.2608 193.284 14.527 192.116 13.7989C191.481 13.3837 190.857 12.9798 190.296 12.6442C188.776 11.7284 186.712 10.5566 185.124 9.77736C185.107 9.77167 185.09 9.7603 185.079 9.75462C184.308 9.36782 183.542 8.98669 182.799 8.63971C182.794 8.63971 182.782 8.62834 182.777 8.62834C182.754 8.61697 182.731 8.61129 182.709 8.59991C182.261 8.38945 181.813 8.17897 181.41 8.00264C180.826 7.74098 180.27 7.50776 179.709 7.27455C178.002 6.53508 176.21 5.83544 174.339 5.18698C174.322 5.18698 174.305 5.17561 174.288 5.16992C172.814 4.66367 171.294 4.17447 169.701 3.73648C161.728 1.44982 153.541 0.425941 145.165 0.647781C140.856 0.687599 135.843 1.19386 130.479 2.29168L129.884 2.41113C129.884 2.41113 129.867 2.41113 129.861 2.41113C129.844 2.41113 129.827 2.41681 129.805 2.4225C128.364 2.72398 126.93 3.05389 125.382 3.46913C124.35 3.73079 123.165 4.08347 122.155 4.40201C122.133 4.40769 122.116 4.41338 122.093 4.41907C121.991 4.4532 121.883 4.48732 121.787 4.51576H121.775C120.125 5.04476 119.388 5.27798 118.175 5.74442C118.033 5.79561 117.891 5.84681 117.772 5.89231C117.772 5.89231 117.772 5.89231 117.766 5.89231C116.423 6.37581 115.493 6.74555 114.313 7.26318C113.559 7.58172 112.811 7.91163 112.056 8.25292C112.011 8.27567 111.966 8.29275 111.926 8.3155C110.962 8.75349 110.004 9.21993 109.051 9.70342C109.017 9.72049 108.977 9.73754 108.943 9.76029C108.11 10.1812 107.288 10.6192 106.46 11.0743C105.876 11.3985 105.32 11.717 104.764 12.0413C104.549 12.1664 104.333 12.2859 104.124 12.411C98.493 15.7386 94.3934 19.0321 91.9268 21.2391C91.6659 21.4666 91.4731 21.643 91.3711 21.734C90.2257 22.7408 89.188 23.7078 88.3828 24.5041C88.122 24.7601 87.8441 25.0388 87.555 25.3233C87.5323 25.346 87.5096 25.3688 87.4869 25.3915L87.4189 25.4598C86.0694 26.8136 84.4249 28.5257 82.4346 30.9261C73.0446 42.0295 66.8923 55.1124 64.318 69.3102C64.2386 69.7141 64.1649 70.1236 64.0912 70.5389C64.0798 70.59 64.0742 70.6412 64.0628 70.6981C63.6829 72.8938 63.371 75.1406 63.2293 77.0462C63.2179 77.1656 63.2122 77.2964 63.2009 77.4159C63.0705 78.9403 62.9798 80.6127 62.9231 82.3248C62.9061 82.5979 62.8834 82.8766 62.872 83.1382L62.8834 84.0029C62.872 84.5944 62.872 85.1803 62.872 85.7605C62.872 87.1598 62.9004 88.5193 62.9798 89.7423C63.0421 90.8401 63.1329 91.8981 63.2293 92.939C63.2406 93.0585 63.2519 93.1779 63.2633 93.2974C63.2973 93.6558 63.3313 94.0198 63.371 94.3725C63.4334 94.964 63.5014 95.5215 63.5695 96.0562C63.5695 96.096 63.5808 96.1301 63.5808 96.1699C63.5865 96.2154 63.5922 96.2666 63.5978 96.3121C65.3727 110.487 70.6801 123.712 79.1912 135.157C79.4067 135.453 79.6222 135.743 79.8433 136.033C79.9397 136.164 80.0361 136.289 80.1325 136.42C80.4557 136.841 80.7676 137.239 81.0795 137.614C88.1674 146.647 96.6445 153.558 105.53 158.575C120.76 167.421 136.762 170.68 151.38 169.411C151.397 169.411 151.414 169.411 151.425 169.411C151.556 169.406 151.692 169.394 151.828 169.389C152.514 169.349 153.217 169.298 153.949 169.235C154.227 169.212 154.499 169.19 154.777 169.161C155.162 169.127 155.531 169.087 155.888 169.053C155.899 169.053 155.911 169.053 155.916 169.053C156.364 169.008 156.79 168.956 157.175 168.911C157.192 168.911 157.215 168.911 157.232 168.905C158.905 168.7 159.982 168.524 160.067 168.507C161.485 168.302 162.381 168.143 163.895 167.813C163.98 167.796 164.07 167.779 164.15 167.767C164.15 167.767 164.155 167.767 164.161 167.767C164.269 167.745 164.377 167.716 164.49 167.694C164.598 167.671 164.7 167.642 164.813 167.62C165.409 167.489 166.032 167.352 166.69 167.193L166.979 167.13L168.079 166.852C168.108 166.846 168.142 166.835 168.17 166.829H168.204C169.315 166.562 170.722 166.141 171.878 165.777C171.895 165.771 171.918 165.765 171.935 165.76C172.043 165.725 172.162 165.691 172.264 165.657C172.479 165.589 172.672 165.526 172.859 165.469C172.91 165.452 172.961 165.435 173.012 165.418C174.209 165.031 174.906 164.798 175.989 164.383C176.086 164.349 176.199 164.309 176.29 164.275C176.307 164.269 176.33 164.258 176.347 164.252C177.084 163.973 177.838 163.683 178.603 163.37C178.91 163.245 179.204 163.12 179.505 162.995C179.851 162.847 180.197 162.705 180.548 162.551C180.917 162.398 181.308 162.221 181.716 162.034C183.219 161.351 184.642 160.652 186.003 159.94C186.037 159.923 186.071 159.906 186.105 159.889C193.709 155.902 199.119 151.619 202.113 148.951C202.373 148.718 202.566 148.547 202.668 148.456C203.456 147.739 204.211 147.04 204.982 146.312C205.208 146.101 205.435 145.891 205.668 145.68C206.564 144.844 207.981 143.393 209.512 141.687C212.472 138.428 215.092 135.026 217.337 131.551C217.689 131.01 218.029 130.481 218.335 129.981C218.579 129.605 218.829 129.19 219.084 128.758C223.994 120.76 226.744 113.28 228.281 107.228C228.411 106.733 228.531 106.249 228.638 105.789C228.655 105.72 228.672 105.629 228.689 105.555C230.079 100.032 230.787 94.856 231.06 90.1575C231.06 90.0779 231.071 89.9982 231.071 89.9186L231.077 89.8788Z" fill="white"/>
</mask>
<g mask="url(#mask0_149_346)">
<path d="M231.077 89.8788C231.111 89.2019 231.139 88.542 231.162 87.8879C231.377 81.9096 230.969 74.8847 229.262 67.1089C228.514 63.3148 227.158 58.3035 224.697 52.4958C224.119 51.0681 223.41 49.5095 222.656 47.9794C222.475 47.604 222.288 47.2342 222.106 46.8645C222.032 46.7223 221.959 46.5801 221.885 46.4379C221.669 46.0227 221.46 45.6131 221.244 45.2149C220.121 43.1046 218.953 41.1137 217.751 39.2537C217.366 38.645 216.969 38.0364 216.572 37.4391C216.521 37.3652 216.47 37.2913 216.419 37.2173C216.13 36.7907 215.84 36.3755 215.551 35.9716C213.17 32.5814 210.692 29.652 208.248 27.1093C207.788 26.6202 207.312 26.1424 206.842 25.6645C206.637 25.4541 206.433 25.255 206.235 25.0502C206.036 24.8568 205.849 24.6634 205.651 24.47C205.56 24.3847 205.475 24.3051 205.39 24.2197C205.294 24.1287 205.197 24.032 205.106 23.941C204.936 23.7761 204.749 23.6111 204.568 23.4405C201.273 20.3574 198.518 18.2187 196.193 16.5407C196.13 16.4951 196.062 16.444 196 16.3984C196.028 16.4212 196.057 16.4439 196.085 16.4667C195.847 16.2961 195.609 16.1254 195.382 15.9605C194.429 15.2608 193.284 14.527 192.116 13.7989C191.481 13.3837 190.857 12.9798 190.296 12.6442C188.776 11.7284 186.712 10.5566 185.124 9.77736C185.107 9.77167 185.09 9.7603 185.079 9.75462C184.308 9.36782 183.542 8.98669 182.799 8.63971C182.794 8.63971 182.782 8.62834 182.777 8.62834C182.754 8.61697 182.731 8.61129 182.709 8.59991C182.261 8.38945 181.813 8.17897 181.41 8.00264C180.826 7.74098 180.27 7.50776 179.709 7.27455C178.002 6.53508 176.21 5.83544 174.339 5.18698C174.322 5.18698 174.305 5.17561 174.288 5.16992C172.814 4.66367 171.294 4.17447 169.701 3.73648C161.728 1.44982 153.541 0.425941 145.165 0.647781C140.856 0.687599 135.843 1.19386 130.479 2.29168L129.884 2.41113C129.884 2.41113 129.867 2.41113 129.861 2.41113C129.844 2.41113 129.827 2.41681 129.805 2.4225C128.364 2.72398 126.93 3.05389 125.382 3.46913C124.35 3.73079 123.165 4.08347 122.155 4.40201C122.133 4.40769 122.116 4.41338 122.093 4.41907C121.991 4.4532 121.883 4.48732 121.787 4.51576H121.775C120.125 5.04476 119.388 5.27798 118.175 5.74442C118.033 5.79561 117.891 5.84681 117.772 5.89231C117.772 5.89231 117.772 5.89231 117.766 5.89231C116.423 6.37581 115.493 6.74555 114.313 7.26318C113.559 7.58172 112.811 7.91163 112.056 8.25292C112.011 8.27567 111.966 8.29275 111.926 8.3155C110.962 8.75349 110.004 9.21993 109.051 9.70342C109.017 9.72049 108.977 9.73754 108.943 9.76029C108.11 10.1812 107.288 10.6192 106.46 11.0743C105.876 11.3985 105.32 11.717 104.764 12.0413C104.549 12.1664 104.333 12.2859 104.124 12.411C98.493 15.7386 94.3934 19.0321 91.9268 21.2391C91.6659 21.4666 91.4731 21.643 91.3711 21.734C90.2257 22.7408 89.188 23.7078 88.3828 24.5041C88.122 24.7601 87.8441 25.0388 87.555 25.3233C87.5323 25.346 87.5096 25.3688 87.4869 25.3915L87.4189 25.4598C86.0694 26.8136 84.4249 28.5257 82.4346 30.9261C73.0446 42.0295 66.8923 55.1124 64.318 69.3102C64.2386 69.7141 64.1649 70.1236 64.0912 70.5389C64.0798 70.59 64.0742 70.6412 64.0628 70.6981C63.6829 72.8938 63.371 75.1406 63.2293 77.0462C63.2179 77.1656 63.2122 77.2964 63.2009 77.4159C63.0705 78.9403 62.9798 80.6127 62.9231 82.3248C62.9061 82.5979 62.8834 82.8766 62.872 83.1382L62.8834 84.0029C62.872 84.5944 62.872 85.1803 62.872 85.7605C62.872 87.1598 62.9004 88.5193 62.9798 89.7423C63.0421 90.8401 63.1329 91.8981 63.2293 92.939C63.2406 93.0585 63.2519 93.1779 63.2633 93.2974C63.2973 93.6558 63.3313 94.0198 63.371 94.3725C63.4334 94.964 63.5014 95.5215 63.5695 96.0562C63.5695 96.096 63.5808 96.1301 63.5808 96.1699C63.5865 96.2154 63.5922 96.2666 63.5978 96.3121C65.3727 110.487 70.6801 123.712 79.1912 135.157C79.4067 135.453 79.6222 135.743 79.8433 136.033C79.9397 136.164 80.0361 136.289 80.1325 136.42C80.4557 136.841 80.7676 137.239 81.0795 137.614C88.1674 146.647 96.6445 153.558 105.53 158.575C120.76 167.421 136.762 170.68 151.38 169.411C151.397 169.411 151.414 169.411 151.425 169.411C151.556 169.406 151.692 169.394 151.828 169.389C152.514 169.349 153.217 169.298 153.949 169.235C154.227 169.212 154.499 169.19 154.777 169.161C155.162 169.127 155.531 169.087 155.888 169.053C155.899 169.053 155.911 169.053 155.916 169.053C156.364 169.008 156.79 168.956 157.175 168.911C157.192 168.911 157.215 168.911 157.232 168.905C158.905 168.7 159.982 168.524 160.067 168.507C161.485 168.302 162.381 168.143 163.895 167.813C163.98 167.796 164.07 167.779 164.15 167.767C164.15 167.767 164.155 167.767 164.161 167.767C164.269 167.745 164.377 167.716 164.49 167.694C164.598 167.671 164.7 167.642 164.813 167.62C165.409 167.489 166.032 167.352 166.69 167.193L166.979 167.13L168.079 166.852C168.108 166.846 168.142 166.835 168.17 166.829H168.204C169.315 166.562 170.722 166.141 171.878 165.777C171.895 165.771 171.918 165.765 171.935 165.76C172.043 165.725 172.162 165.691 172.264 165.657C172.479 165.589 172.672 165.526 172.859 165.469C172.91 165.452 172.961 165.435 173.012 165.418C174.209 165.031 174.906 164.798 175.989 164.383C176.086 164.349 176.199 164.309 176.29 164.275C176.307 164.269 176.33 164.258 176.347 164.252C177.084 163.973 177.838 163.683 178.603 163.37C178.91 163.245 179.204 163.12 179.505 162.995C179.851 162.847 180.197 162.705 180.548 162.551C180.917 162.398 181.308 162.221 181.716 162.034C183.219 161.351 184.642 160.652 186.003 159.94C186.037 159.923 186.071 159.906 186.105 159.889C193.709 155.902 199.119 151.619 202.113 148.951C202.373 148.718 202.566 148.547 202.668 148.456C203.456 147.739 204.211 147.04 204.982 146.312C205.208 146.101 205.435 145.891 205.668 145.68C206.564 144.844 207.981 143.393 209.512 141.687C212.472 138.428 215.092 135.026 217.337 131.551C217.689 131.01 218.029 130.481 218.335 129.981C218.579 129.605 218.829 129.19 219.084 128.758C223.994 120.76 226.744 113.28 228.281 107.228C228.411 106.733 228.531 106.249 228.638 105.789C228.655 105.72 228.672 105.629 228.689 105.555C230.079 100.032 230.787 94.856 231.06 90.1575C231.06 90.0779 231.071 89.9982 231.071 89.9186L231.077 89.8788Z" fill="url(#paint0_radial_149_346)"/>
<path d="M-81.314 183.86C-82.6408 196.635 -78.4164 207.028 -69.1171 214.44C-64.5071 209.832 -60.2771 205.225 -56.2908 200.708C-44.627 187.495 -33.9838 174.184 -17.9934 160.868C0.565521 145.413 25.8722 130.868 50.5891 121.045C62.4287 116.341 70.6961 115.197 81.5774 111.921C95.6682 107.678 112.577 100.186 127.076 94.3444C154.464 83.3149 182.271 71.4038 208.712 56.9159C237.954 40.8922 263.963 22.5989 288.539 3.86765C286.82 2.26926 284.893 0.790318 282.761 -0.563477C256.189 17.7298 228.892 36.262 198.919 52.3085C168.6 68.5369 138.717 73.1444 109.736 81.2444C86.3292 87.7858 61.4875 95.8688 37.4339 108.133C-5.67184 130.112 -39.2799 161.818 -81.314 183.854V183.86Z" fill="#C7E5C9"/>
<path d="M190.493 47.4279C154.333 61.6029 125.38 62.7747 91.574 72.1887C69.3236 78.3831 45.0263 87.5525 22.7873 100.135C-2.38895 114.372 -23.0856 131.869 -48.5056 145.828C-56.1776 150.038 -64.1558 153.82 -72.0999 157.068C-68.125 149.799 -62.8686 142.091 -56.2854 134.008C-44.0715 119.014 -28.359 104.054 -10.299 89.7482C-4.92355 90.9199 3.15665 90.044 11.7358 88.0474C43.8129 80.5788 80.2164 59.8225 114.783 46.3016C145.624 34.2426 174.468 28.1733 204.379 19.1575C225.195 12.8834 248.234 4.27141 268.624 -6.79785C271.448 -5.956 274.085 -4.97762 276.523 -3.8798C275.395 -2.92418 274.306 -1.96287 273.223 -1.02432C251.528 17.8719 220.472 35.6817 190.493 47.4336V47.4279Z" fill="#9AD5BF"/>
<path d="M240.977 -10.7574C215.562 -1.67336 190.148 7.4107 164.728 16.4948C125.767 30.4195 85.8705 44.6059 51.2135 50.6184C49.5691 50.9028 47.9361 51.1701 46.303 51.4318C96.4854 22.2285 153.637 -0.205804 203.309 -7.97021C217.303 -10.1545 229.885 -11.0475 240.977 -10.7631V-10.7574Z" fill="#C7E5C9"/>
<path d="M155.003 173.973C134.862 184.809 113.882 194.479 92.9354 202.516C97.3072 195.901 101.22 189.343 105.739 182.721C115.968 167.716 131.76 150.287 156.04 136.795C172.723 127.523 190.544 121.727 207.51 116.3C224.13 110.982 240.749 105.663 257.369 100.345C251.12 106.613 244.322 112.836 237.081 118.957C223.398 121.55 207.266 126.698 193.147 135.248C173.443 147.181 164.467 161.203 155.003 173.973Z" fill="#C7E5C9"/>
<path d="M293.234 51.6361C291.028 53.5303 288.777 55.4074 286.435 57.2561C261.673 76.8008 227.866 92.2613 196.283 106.408C147.523 128.251 98.6453 150.139 49.8805 169.507C39.6626 173.563 29.1895 177.636 19.3968 183.131C9.60419 188.631 0.463623 196.003 -1.03336 201.31C-3.08032 208.58 9.23563 209.103 9.34335 215.536C9.39438 218.477 7.06387 222.004 3.57095 225.838C-14.3416 227.908 -29.6515 227.686 -42.1375 225.434C-34.165 218.198 -25.8977 211.008 -16.8365 204.006C13.3409 180.685 51.5419 160.065 89.1758 142.141C114.063 130.287 139.058 119.502 163.758 107.295C187.244 95.6913 207.527 87.9383 225.802 71.6586C238.158 60.6462 245.047 49.9126 256.297 38.9059C266.226 29.1904 279.591 19.3896 294.3 10.8857C300.594 21.335 300.458 35.1915 293.239 51.6247L293.234 51.6361Z" fill="#9AD5BF"/>
</g>
<g filter="url(#filter0_d_149_346)">
<path d="M65.4934 100.389C65.5085 100.994 65.5286 101.599 65.5588 102.199C43.9456 118.103 32.3476 133.417 36.4079 143.726C43.9356 162.801 102.197 157.649 166.293 132.233C230.393 106.816 276.424 70.6168 268.906 51.5366C265.846 43.7634 254.373 40.0179 237.509 40.0179C232.001 40.0179 225.896 40.4413 219.348 41.2328C218.966 40.774 218.579 40.3204 218.177 39.8566C246.132 36.4489 266.127 39.9222 270.464 50.9267C278.318 70.8638 231.866 108.041 166.911 133.795C129.036 148.813 93.1116 156.682 68.1769 156.682C50.3477 156.682 38.1416 152.659 34.8652 144.346C30.5285 133.342 42.7647 117.08 65.4985 100.394L65.4934 100.389Z" fill="#FEFEFC"/>
</g>
<path d="M168.755 119.706C168.755 119.706 181.313 120.679 187.6 126.834C194.539 133.634 194.705 156.677 194.705 156.677C194.705 156.677 194.871 133.629 201.811 126.834C208.097 120.679 220.655 119.706 220.655 119.706C220.655 119.706 208.097 118.733 201.811 112.578C194.871 105.778 194.705 82.7354 194.705 82.7354C194.705 82.7354 194.539 105.783 187.6 112.578C181.313 118.733 168.755 119.706 168.755 119.706Z" fill="#FEFEFC"/>
<defs>
<filter id="filter0_d_149_346" x="0" y="4.60059" width="305.33" height="186.081" filterUnits="userSpaceOnUse" color-interpolation-filters="sRGB">
<feFlood flood-opacity="0" result="BackgroundImageFix"/>
<feColorMatrix in="SourceAlpha" type="matrix" values="0 0 0 0 0 0 0 0 0 0 0 0 0 0 0 0 0 0 127 0" result="hardAlpha"/>
<feOffset/>
<feGaussianBlur stdDeviation="17"/>
<feColorMatrix type="matrix" values="0 0 0 0 1 0 0 0 0 1 0 0 0 0 1 0 0 0 1 0"/>
<feBlend mode="normal" in2="BackgroundImageFix" result="effect1_dropShadow_149_346"/>
<feBlend mode="normal" in="SourceGraphic" in2="effect1_dropShadow_149_346" result="shape"/>
</filter>
<radialGradient id="paint0_radial_149_346" cx="0" cy="0" r="1" gradientUnits="userSpaceOnUse" gradientTransform="translate(154.27 100.353) rotate(-45.4702) scale(93.7209 93.7165)">
<stop stop-color="#589981"/>
<stop offset="0.73" stop-color="#9AD5BF"/>
<stop offset="0.99" stop-color="#E0F3E0"/>
</radialGradient>
</defs>
</svg>
