<svg width="374" height="300" viewBox="0 0 374 300" fill="none" xmlns="http://www.w3.org/2000/svg">
<g clip-path="url(#clip0_2015_579)">
<path d="M78.4874 131.079C63.6085 192.33 102.776 251.807 165.976 263.932C179.116 266.453 192.248 266.725 204.948 265.027C207.021 264.749 209.076 264.427 211.117 264.046C226.291 261.238 240.727 255.613 253.669 247.648L253.683 247.651C270.951 237.043 285.547 222.269 295.639 204.495C300.807 195.397 304.788 185.507 307.344 174.984C308.927 168.465 309.895 161.966 310.277 155.534C313.607 101.605 276.329 52.9656 219.855 42.1314C193.724 37.1184 167.599 40.9828 144.873 51.5777C141.895 52.9497 138.972 54.4427 136.122 56.0462C130.087 59.4643 124.357 63.3821 118.975 67.7389C117.435 68.9871 115.925 70.2826 114.437 71.6097C111.061 74.6147 107.868 77.8063 104.858 81.1845C92.3806 95.1377 83.1036 112.076 78.4874 131.079Z" fill="#56B8FF" fill-opacity="0.31"/>
<path d="M93.252 133.913C80.293 187.261 114.407 239.064 169.452 249.624C180.897 251.819 192.334 252.057 203.395 250.577C205.2 250.336 206.99 250.055 208.768 249.723C221.984 247.277 234.557 242.378 245.83 235.441L245.842 235.443C260.881 226.204 273.594 213.337 282.384 197.856C286.885 189.932 290.352 181.318 292.579 172.153C293.958 166.475 294.8 160.815 295.133 155.212C298.033 108.242 265.565 65.8788 216.379 56.4425C193.62 52.0763 170.865 55.4421 151.072 64.6699C148.478 65.8649 145.932 67.1653 143.45 68.5618C138.193 71.5389 133.203 74.9512 128.515 78.7458C127.174 79.833 125.859 80.9613 124.563 82.1171C121.623 84.7344 118.842 87.5142 116.22 90.4565C105.353 102.609 97.2726 117.362 93.252 133.913Z" fill="#0A327A"/>
<path d="M109.165 119.499C94.7904 178.674 132.623 236.124 193.669 247.835C198.711 248.802 203.748 249.433 208.768 249.723C221.984 247.277 234.557 242.378 245.83 235.441L245.842 235.443C254.926 229.863 263.154 222.967 270.177 214.962L270.189 214.964C274.796 209.714 278.898 203.994 282.384 197.856C286.885 189.932 290.352 181.318 292.579 172.153C293.958 166.475 294.8 160.815 295.133 155.212C298.033 108.242 265.565 65.8788 216.379 56.4425C206.97 54.6375 197.562 54.1532 188.36 54.8608C175.309 55.8624 162.679 59.2617 151.072 64.6699C148.478 65.8649 145.932 67.1653 143.45 68.5618C138.194 71.5389 133.203 74.9512 128.515 78.7458C119.554 90.652 112.832 104.404 109.165 119.499Z" fill="url(#paint0_radial_2015_579)"/>
<path d="M143.45 68.5599C153.347 86.2567 175.965 122.204 200.875 131.329C225.794 140.467 225.088 165.71 250.437 173.334C264.232 177.481 274.351 190.539 282.384 197.854C286.885 189.93 290.353 181.316 292.579 172.151C293.958 166.473 294.8 160.813 295.133 155.21C292.431 153.636 289.149 152.31 285.232 151.198C261.848 144.563 247.563 114.848 214.591 106.073C188.647 99.1634 161.479 74.7557 151.072 64.668C148.478 65.863 145.932 67.1634 143.45 68.5599Z" fill="#00060E" fill-opacity="0.2"/>
<path d="M116.22 90.4555C116.679 104.169 118.38 123.835 123.858 139.784C133.319 167.277 173.306 190.11 185.507 200.41C193.625 207.274 198.979 232.706 203.395 250.576C218.577 248.555 233.043 243.311 245.83 235.44C243.17 234.306 240.552 233.047 238.163 231.664C225.406 224.319 226.863 194.863 193.305 171.57C159.747 148.278 155.076 137.574 142.811 122.952C134.618 113.181 128.03 93.8496 124.563 82.1161C121.623 84.7334 118.842 87.5132 116.22 90.4555Z" fill="#00060E" fill-opacity="0.2"/>
<path d="M188.36 54.8608C210.811 57.0791 234.482 64.5253 254.702 81.9939C314.311 133.477 270.177 214.962 270.177 214.962L270.189 214.964C274.796 209.714 278.898 203.994 282.384 197.856C286.885 189.932 290.352 181.318 292.579 172.153C293.958 166.475 294.8 160.815 295.133 155.212C298.033 108.242 265.565 65.8788 216.379 56.4425C206.97 54.6375 197.562 54.1532 188.36 54.8608Z" fill="#52B6FF" fill-opacity="0.77"/>
<path opacity="0.4" d="M205.034 64.0868C205.034 64.0868 242.707 65.0356 261.78 82.3321C280.853 99.6285 245.547 140.694 263.336 163.327C281.125 185.959 261.764 228.235 199.621 181.979C137.479 135.724 149.417 62.0003 205.034 64.0868Z" fill="url(#paint1_linear_2015_579)" fill-opacity="0.8"/>
<path d="M251.028 180.805C254.663 170.548 263.578 164.109 270.94 166.422C278.303 168.735 281.325 178.925 277.69 189.182C274.056 199.439 265.141 205.879 257.778 203.566C250.416 201.252 247.394 191.062 251.028 180.805Z" fill="white" fill-opacity="0.8"/>
<path d="M248.794 212.935C249.985 209.571 254.106 207.837 257.999 209.062C261.891 210.286 264.081 214.006 262.89 217.369C261.7 220.732 257.579 222.466 253.686 221.242C249.794 220.017 247.604 216.298 248.794 212.935Z" fill="white" fill-opacity="0.8"/>
<path d="M48.5693 95.277C51.2845 89.3513 60.0039 82.5728 104.117 92.092C107.035 92.7239 110.028 93.4061 113.095 94.1387C110.665 97.1058 108.397 100.224 106.321 103.463C105.783 103.336 105.241 103.22 104.702 103.093C72.5721 95.8482 60.8527 97.7415 58.6351 99.2729C58.9871 101.801 65.6248 110.986 93.4943 127.509C93.926 127.772 94.3603 128.023 94.8066 128.277C119.011 142.5 151.699 158.003 187.101 172.022C220.275 185.168 252.811 195.84 279.646 202.393C281.965 202.946 284.235 203.489 286.456 203.987C318.586 211.232 330.305 209.338 332.523 207.807C332.171 205.279 325.533 196.094 297.663 179.571C295.681 178.399 293.64 177.215 291.552 176.022C291.926 174.737 292.262 173.457 292.579 172.149C293.156 169.775 293.635 167.394 294.023 165.031C298.452 167.502 302.654 169.94 306.615 172.345C344.542 195.347 345.316 205.88 342.588 211.803C340.031 217.387 332.134 223.735 294.25 216.467C291.966 216.029 289.56 215.531 287.041 214.988C282.533 214.015 277.823 212.907 272.955 211.685C246.391 204.981 214.906 194.571 182.626 181.775C148.132 168.099 116.393 153.174 92.1248 139.215C89.5066 137.704 86.983 136.212 84.5424 134.735C50.4257 114.048 46.3759 103.44 47.8888 97.2112C48.0588 96.5116 48.3005 95.8737 48.5693 95.277Z" fill="url(#paint2_linear_2015_579)"/>
</g>
<defs>
<radialGradient id="paint0_radial_2015_579" cx="0" cy="0" r="1" gradientUnits="userSpaceOnUse" gradientTransform="translate(248.117 221.025) rotate(-131.032) scale(157.712 160.032)">
<stop offset="0.421347" stop-color="#258AC2"/>
<stop offset="1" stop-color="#112260"/>
</radialGradient>
<linearGradient id="paint1_linear_2015_579" x1="203.505" y1="64.9682" x2="250.373" y2="192.976" gradientUnits="userSpaceOnUse">
<stop stop-color="#112260"/>
<stop offset="1" stop-color="#48A0FF"/>
</linearGradient>
<linearGradient id="paint2_linear_2015_579" x1="115.045" y1="135.105" x2="258.658" y2="233.302" gradientUnits="userSpaceOnUse">
<stop stop-color="#0A327A"/>
<stop offset="1" stop-color="#48A0FF"/>
</linearGradient>
<clipPath id="clip0_2015_579">
<rect width="332" height="234" fill="white" transform="matrix(-0.977394 -0.211425 -0.211425 0.977394 373.969 71)"/>
</clipPath>
</defs>
</svg>
