<svg width="221" height="151" viewBox="0 0 221 151" fill="none" xmlns="http://www.w3.org/2000/svg">
<mask id="mask0_2425_566" style="mask-type:luminance" maskUnits="userSpaceOnUse" x="35" y="0" width="151" height="151">
<path d="M35.6183 79.2828C35.5896 78.6801 35.5609 78.0917 35.5466 77.5177C35.3602 72.2082 35.7187 65.9659 37.2388 59.0492C37.8985 55.6769 39.1175 51.2284 41.3117 46.0624C41.828 44.7996 42.459 43.4076 43.1331 42.0443C43.2908 41.7143 43.4629 41.3842 43.6207 41.0542C43.678 40.925 43.7497 40.8102 43.8214 40.6811C44.0079 40.308 44.1943 39.9492 44.3951 39.5905C45.399 37.7106 46.4315 35.9456 47.5071 34.2953C47.8513 33.75 48.2098 33.2191 48.554 32.6881C48.597 32.6164 48.6401 32.559 48.6974 32.4872C48.9556 32.1141 49.2137 31.741 49.4719 31.3823C51.5943 28.3687 53.8029 25.7714 55.9827 23.5041C56.3986 23.0736 56.8145 22.6431 57.2304 22.2269C57.4168 22.0404 57.5889 21.8682 57.7754 21.6816C57.9475 21.5094 58.1196 21.3372 58.2917 21.165C58.3777 21.0933 58.4494 21.0215 58.5211 20.9498C58.6072 20.8637 58.6932 20.7776 58.7793 20.7058C58.937 20.5623 59.0948 20.4045 59.2525 20.261C62.1925 17.5201 64.6448 15.6259 66.7099 14.1335C66.7673 14.0904 66.8246 14.0474 66.882 14.0043C66.8533 14.0187 66.8246 14.0474 66.8103 14.0617C67.0254 13.9039 67.2405 13.7604 67.4413 13.6169C68.2874 12.9998 69.3057 12.3397 70.3526 11.694C70.9119 11.3209 71.4712 10.9621 71.9731 10.6751C73.3212 9.85717 75.1569 8.82396 76.5766 8.12081C76.5766 8.12081 76.6053 8.12081 76.6196 8.10646C77.308 7.76206 77.9821 7.43201 78.6561 7.11631C78.6561 7.11631 78.6704 7.11631 78.6848 7.11631C78.6991 7.11631 78.7278 7.10196 78.7421 7.08761C79.1437 6.90106 79.5309 6.71451 79.9038 6.55666C80.4201 6.32705 80.922 6.1118 81.4239 5.9109C82.9441 5.25079 84.536 4.63375 86.2139 4.05975C86.2282 4.05975 86.2426 4.05974 86.2569 4.04539C87.5763 3.58619 88.9244 3.15569 90.3441 2.76824C97.443 0.730532 104.743 -0.173527 112.2 0.0273739C116.043 0.0704241 120.504 0.515282 125.279 1.49109L125.81 1.59154C125.81 1.59154 125.81 1.59154 125.824 1.59154C125.838 1.59154 125.853 1.59154 125.867 1.59154C127.144 1.86419 128.42 2.15119 129.811 2.52429C130.729 2.75389 131.79 3.06959 132.679 3.35659C132.694 3.35659 132.708 3.35659 132.737 3.37094C132.823 3.39964 132.923 3.42834 133.009 3.45704C134.472 3.93059 135.132 4.13149 136.221 4.54764C136.351 4.59069 136.465 4.63375 136.58 4.6768C137.77 5.1073 138.602 5.43735 139.649 5.89655C140.323 6.18356 140.983 6.47056 141.657 6.77191C141.7 6.78626 141.728 6.80061 141.771 6.82931C142.632 7.21676 143.478 7.6329 144.339 8.0634C144.367 8.07775 144.396 8.09211 144.439 8.10646C145.185 8.47957 145.916 8.86701 146.647 9.26882C147.164 9.55582 147.666 9.84282 148.153 10.1298C148.34 10.2446 148.541 10.3451 148.727 10.4599C153.746 13.416 157.389 16.3434 159.598 18.3094C159.827 18.5103 159.999 18.6681 160.099 18.7542C161.118 19.6439 162.05 20.5049 162.767 21.2224C162.996 21.452 163.255 21.696 163.498 21.9543C163.513 21.9686 163.541 21.9973 163.556 22.0117L163.613 22.0691C164.818 23.2745 166.281 24.7956 168.059 26.9194C176.42 36.7922 181.912 48.4158 184.193 61.0295C184.264 61.3882 184.322 61.747 184.393 62.1201C184.393 62.1631 184.408 62.2062 184.422 62.2636C184.766 64.2152 185.039 66.2098 185.168 67.9031C185.168 68.0036 185.182 68.1184 185.197 68.2332C185.311 69.5821 185.397 71.0745 185.44 72.5956C185.455 72.8396 185.469 73.0835 185.483 73.3131V74.088C185.483 74.619 185.483 75.1356 185.483 75.6522C185.483 76.9006 185.455 78.1061 185.383 79.1967C185.326 80.1725 185.254 81.1196 185.153 82.038C185.153 82.1384 185.139 82.2532 185.125 82.3537C185.096 82.6694 185.067 82.9994 185.024 83.3008C184.967 83.8174 184.91 84.3196 184.852 84.7932C184.852 84.8219 184.852 84.8649 184.852 84.8936C184.852 84.9367 184.852 84.9797 184.838 85.0228C183.26 97.6221 178.528 109.375 170.941 119.549C170.755 119.807 170.554 120.066 170.368 120.324C170.282 120.439 170.196 120.554 170.11 120.668C169.823 121.041 169.536 121.4 169.263 121.73C162.953 129.752 155.396 135.894 147.479 140.357C133.913 148.22 119.657 151.119 106.636 149.985C106.636 149.985 106.607 149.985 106.593 149.985C106.478 149.985 106.349 149.985 106.234 149.971C105.617 149.942 105.001 149.885 104.341 149.828C104.097 149.813 103.853 149.785 103.61 149.756C103.266 149.727 102.936 149.698 102.62 149.655C102.62 149.655 102.606 149.655 102.591 149.655C102.19 149.612 101.817 149.569 101.473 149.526C101.459 149.526 101.444 149.526 101.43 149.526C99.9384 149.34 98.9775 149.182 98.9058 149.168C97.6438 148.981 96.8407 148.852 95.4926 148.55C95.4209 148.55 95.3349 148.522 95.2631 148.507C95.1628 148.493 95.0767 148.464 94.9763 148.436C94.8759 148.407 94.7899 148.393 94.6895 148.364C94.1589 148.249 93.5996 148.12 93.0116 147.991L92.7534 147.933L91.7782 147.689C91.7782 147.689 91.7209 147.689 91.6922 147.675H91.6635C90.674 147.431 89.4263 147.058 88.3937 146.742C88.3794 146.742 88.3651 146.742 88.3507 146.728C88.2503 146.699 88.1499 146.671 88.0639 146.642C87.8774 146.585 87.7054 146.527 87.5333 146.47C87.4902 146.455 87.4472 146.441 87.3899 146.427C86.3286 146.082 85.6976 145.881 84.7367 145.508C84.6507 145.48 84.5503 145.437 84.4643 145.408C84.4499 145.408 84.4356 145.408 84.4069 145.393C83.7472 145.15 83.0732 144.891 82.3991 144.619C82.1267 144.504 81.8685 144.389 81.596 144.289C81.2805 144.159 80.9794 144.03 80.6639 143.901C80.334 143.772 79.9898 143.614 79.6313 143.442C78.2976 142.839 77.0212 142.208 75.8165 141.576C75.7879 141.562 75.7592 141.548 75.7305 141.533C68.9615 137.989 64.1428 134.186 61.4754 131.804C61.2459 131.603 61.0738 131.445 60.9734 131.359C60.2707 130.728 59.5967 130.096 58.9083 129.451C58.7075 129.264 58.5068 129.077 58.2917 128.891C57.4886 128.145 56.2265 126.853 54.8641 125.346C52.2254 122.448 49.8877 119.434 47.8943 116.335C47.5788 115.861 47.2777 115.388 47.0052 114.943C46.7901 114.613 46.5606 114.239 46.3311 113.852C41.9571 106.749 39.5048 100.105 38.1423 94.7234C38.0276 94.2786 37.9129 93.8481 37.8268 93.4463C37.8125 93.3889 37.7982 93.3028 37.7838 93.2454C36.5505 88.3376 35.9195 83.7456 35.6757 79.5698C35.6757 79.498 35.6757 79.4263 35.6757 79.3545L35.6183 79.2828Z" fill="white"/>
</mask>
<g mask="url(#mask0_2425_566)">
<path d="M35.6183 79.2828C35.5896 78.6801 35.5609 78.0917 35.5466 77.5177C35.3602 72.2082 35.7187 65.9659 37.2388 59.0492C37.8985 55.6769 39.1175 51.2284 41.3117 46.0624C41.828 44.7996 42.459 43.4076 43.1331 42.0443C43.2908 41.7143 43.4629 41.3842 43.6207 41.0542C43.678 40.925 43.7497 40.8102 43.8214 40.6811C44.0079 40.308 44.1943 39.9492 44.3951 39.5905C45.399 37.7106 46.4315 35.9456 47.5071 34.2953C47.8513 33.75 48.2098 33.2191 48.554 32.6881C48.597 32.6164 48.6401 32.559 48.6974 32.4872C48.9556 32.1141 49.2137 31.741 49.4719 31.3823C51.5943 28.3687 53.8029 25.7714 55.9827 23.5041C56.3986 23.0736 56.8145 22.6431 57.2304 22.2269C57.4168 22.0404 57.5889 21.8682 57.7754 21.6816C57.9475 21.5094 58.1196 21.3372 58.2917 21.165C58.3777 21.0933 58.4494 21.0215 58.5211 20.9498C58.6072 20.8637 58.6932 20.7776 58.7793 20.7058C58.937 20.5623 59.0948 20.4045 59.2525 20.261C62.1925 17.5201 64.6448 15.6259 66.7099 14.1335C66.7673 14.0904 66.8246 14.0474 66.882 14.0043C66.8533 14.0187 66.8246 14.0474 66.8103 14.0617C67.0254 13.9039 67.2405 13.7604 67.4413 13.6169C68.2874 12.9998 69.3057 12.3397 70.3526 11.694C70.9119 11.3209 71.4712 10.9621 71.9731 10.6751C73.3212 9.85717 75.1569 8.82396 76.5766 8.12081C76.5766 8.12081 76.6053 8.12081 76.6196 8.10646C77.308 7.76206 77.9821 7.43201 78.6561 7.11631C78.6561 7.11631 78.6704 7.11631 78.6848 7.11631C78.6991 7.11631 78.7278 7.10196 78.7421 7.08761C79.1437 6.90106 79.5309 6.71451 79.9038 6.55666C80.4201 6.32705 80.922 6.1118 81.4239 5.9109C82.9441 5.25079 84.536 4.63375 86.2139 4.05975C86.2282 4.05975 86.2426 4.05974 86.2569 4.04539C87.5763 3.58619 88.9244 3.15569 90.3441 2.76824C97.443 0.730532 104.743 -0.173527 112.2 0.0273739C116.043 0.0704241 120.504 0.515282 125.279 1.49109L125.81 1.59154C125.81 1.59154 125.81 1.59154 125.824 1.59154C125.838 1.59154 125.853 1.59154 125.867 1.59154C127.144 1.86419 128.42 2.15119 129.811 2.52429C130.729 2.75389 131.79 3.06959 132.679 3.35659C132.694 3.35659 132.708 3.35659 132.737 3.37094C132.823 3.39964 132.923 3.42834 133.009 3.45704C134.472 3.93059 135.132 4.13149 136.221 4.54764C136.351 4.59069 136.465 4.63375 136.58 4.6768C137.77 5.1073 138.602 5.43735 139.649 5.89655C140.323 6.18356 140.983 6.47056 141.657 6.77191C141.7 6.78626 141.728 6.80061 141.771 6.82931C142.632 7.21676 143.478 7.6329 144.339 8.0634C144.367 8.07775 144.396 8.09211 144.439 8.10646C145.185 8.47957 145.916 8.86701 146.647 9.26882C147.164 9.55582 147.666 9.84282 148.153 10.1298C148.34 10.2446 148.541 10.3451 148.727 10.4599C153.746 13.416 157.389 16.3434 159.598 18.3094C159.827 18.5103 159.999 18.6681 160.099 18.7542C161.118 19.6439 162.05 20.5049 162.767 21.2224C162.996 21.452 163.255 21.696 163.498 21.9543C163.513 21.9686 163.541 21.9973 163.556 22.0117L163.613 22.0691C164.818 23.2745 166.281 24.7956 168.059 26.9194C176.42 36.7922 181.912 48.4158 184.193 61.0295C184.264 61.3882 184.322 61.747 184.393 62.1201C184.393 62.1631 184.408 62.2062 184.422 62.2636C184.766 64.2152 185.039 66.2098 185.168 67.9031C185.168 68.0036 185.182 68.1184 185.197 68.2332C185.311 69.5821 185.397 71.0745 185.44 72.5956C185.455 72.8396 185.469 73.0835 185.483 73.3131V74.088C185.483 74.619 185.483 75.1356 185.483 75.6522C185.483 76.9006 185.455 78.1061 185.383 79.1967C185.326 80.1725 185.254 81.1196 185.153 82.038C185.153 82.1384 185.139 82.2532 185.125 82.3537C185.096 82.6694 185.067 82.9994 185.024 83.3008C184.967 83.8174 184.91 84.3196 184.852 84.7932C184.852 84.8219 184.852 84.8649 184.852 84.8936C184.852 84.9367 184.852 84.9797 184.838 85.0228C183.26 97.6221 178.528 109.375 170.941 119.549C170.755 119.807 170.554 120.066 170.368 120.324C170.282 120.439 170.196 120.554 170.11 120.668C169.823 121.041 169.536 121.4 169.263 121.73C162.953 129.752 155.396 135.894 147.479 140.357C133.913 148.22 119.657 151.119 106.636 149.985C106.636 149.985 106.607 149.985 106.593 149.985C106.478 149.985 106.349 149.985 106.234 149.971C105.617 149.942 105.001 149.885 104.341 149.828C104.097 149.813 103.853 149.785 103.61 149.756C103.266 149.727 102.936 149.698 102.62 149.655C102.62 149.655 102.606 149.655 102.591 149.655C102.19 149.612 101.817 149.569 101.473 149.526C101.459 149.526 101.444 149.526 101.43 149.526C99.9384 149.34 98.9775 149.182 98.9058 149.168C97.6438 148.981 96.8407 148.852 95.4926 148.55C95.4209 148.55 95.3349 148.522 95.2631 148.507C95.1628 148.493 95.0767 148.464 94.9763 148.436C94.8759 148.407 94.7899 148.393 94.6895 148.364C94.1589 148.249 93.5996 148.12 93.0116 147.991L92.7534 147.933L91.7782 147.689C91.7782 147.689 91.7209 147.689 91.6922 147.675H91.6635C90.674 147.431 89.4263 147.058 88.3937 146.742C88.3794 146.742 88.3651 146.742 88.3507 146.728C88.2503 146.699 88.1499 146.671 88.0639 146.642C87.8774 146.585 87.7054 146.527 87.5333 146.47C87.4902 146.455 87.4472 146.441 87.3899 146.427C86.3286 146.082 85.6976 145.881 84.7367 145.508C84.6507 145.48 84.5503 145.437 84.4643 145.408C84.4499 145.408 84.4356 145.408 84.4069 145.393C83.7472 145.15 83.0732 144.891 82.3991 144.619C82.1267 144.504 81.8685 144.389 81.596 144.289C81.2805 144.159 80.9794 144.03 80.6639 143.901C80.334 143.772 79.9898 143.614 79.6313 143.442C78.2976 142.839 77.0212 142.208 75.8165 141.576C75.7879 141.562 75.7592 141.548 75.7305 141.533C68.9615 137.989 64.1428 134.186 61.4754 131.804C61.2459 131.603 61.0738 131.445 60.9734 131.359C60.2707 130.728 59.5967 130.096 58.9083 129.451C58.7075 129.264 58.5068 129.077 58.2917 128.891C57.4886 128.145 56.2265 126.853 54.8641 125.346C52.2254 122.448 49.8877 119.434 47.8943 116.335C47.5788 115.861 47.2777 115.388 47.0052 114.943C46.7901 114.613 46.5606 114.239 46.3311 113.852C41.9571 106.749 39.5048 100.105 38.1423 94.7234C38.0276 94.2786 37.9129 93.8481 37.8268 93.4463C37.8125 93.3889 37.7982 93.3028 37.7838 93.2454C36.5505 88.3376 35.9195 83.7456 35.6757 79.5698C35.6757 79.498 35.6757 79.4263 35.6757 79.3545L35.6183 79.2828Z" fill="url(#paint0_radial_2425_566)"/>
<g style="mix-blend-mode:screen" opacity="0.2">
<path d="M-14.3749 119.075C-18.1897 112.087 -21.1726 105.271 -23.4529 98.8418C-23.5102 98.6983 -23.5533 98.5548 -23.6106 98.4113C-24.0265 97.2059 -24.4281 96.0292 -24.8153 94.8525C-26.0486 91.1214 -27.1242 87.003 -28.1138 82.7266C86.5724 62.2348 197.415 14.1764 289.987 -54.3738C294.634 -48.1315 298.807 -41.5736 302.392 -34.6425C302.765 -33.9537 303.124 -33.2505 303.482 -32.5474C303.525 -32.4613 303.568 -32.3752 303.611 -32.2747C305.519 -28.5294 307.297 -24.6261 308.559 -21.2539C308.645 -21.0386 308.717 -20.809 308.803 -20.5938C308.846 -20.4933 308.889 -20.3642 308.918 -20.2494C214.123 48.4013 101.917 97.0193 -14.3749 119.075ZM305.003 95.9287C305.132 95.6417 305.261 95.3547 305.39 95.0677C305.677 94.4076 305.963 93.7762 306.25 93.1161C315.285 72.6242 319.516 51.2426 318.956 29.8467C232.594 94.6228 129.811 141.232 22.7686 163.675C23.6291 164.393 24.5613 165.139 25.5365 165.9C31.8609 170.908 38.9024 175.557 46.5463 179.762C50.5188 181.972 54.1184 183.78 56.37 184.784C56.9436 185.043 57.5029 185.287 58.0766 185.545C59.9983 186.42 61.8913 187.252 63.8417 188.099C64.0998 188.214 64.5731 188.415 65.2184 188.673C72.2886 191.644 84.6077 195.992 100.828 198.862C170.067 177.911 236.653 147.819 297.617 109.934C299.739 106.246 301.847 102.558 303.697 98.6552C304.128 97.7942 304.558 96.9045 304.988 95.9431L305.003 95.9287ZM192.023 -114.931C191.779 -114.974 191.535 -115.032 191.292 -115.075C190.001 -115.333 188.724 -115.606 187.376 -115.849C185.483 -116.208 183.59 -116.51 181.697 -116.797C181.611 -116.797 181.54 -116.825 181.453 -116.84C179.274 -117.17 177.108 -117.457 174.928 -117.701C174.828 -117.701 174.728 -117.729 174.627 -117.729C172.935 -117.916 171.243 -118.088 169.565 -118.217C169.034 -118.275 168.575 -118.303 168.088 -118.332C115.513 -86.9341 58.808 -61.4914 -0.0337812 -43.0803C-1.41053 -41.2148 -2.81597 -39.2489 -4.2931 -37.0676C-4.56559 -36.6658 -4.86675 -36.2497 -5.12489 -35.8622C-5.2683 -35.647 -5.41171 -35.4174 -5.55513 -35.1878C-5.69854 -34.9869 -5.81327 -34.8003 -5.95668 -34.5851C-6.25784 -34.1259 -6.54467 -33.6667 -6.83149 -33.1931C-7.13265 -32.7196 -7.43382 -32.2317 -7.74932 -31.7294C-8.45204 -30.5958 -9.1691 -29.4478 -9.84313 -28.2998C-10.7896 -26.7213 -11.6931 -24.9706 -12.6253 -23.2916C59.5537 -44.1422 128.936 -75.2675 192.023 -114.931ZM275.13 -71.3643C266.554 -79.7591 256.888 -87.2929 246.103 -93.7217C240.855 -96.9217 236.653 -99.0743 233.225 -100.753L233.053 -100.839C233.053 -100.839 232.938 -100.897 232.881 -100.925C232.149 -101.284 231.447 -101.614 230.787 -101.93C229.64 -102.475 228.292 -103.092 226.843 -103.724C151.179 -52.25 64.7452 -14.1363 -25.2168 6.95833C-25.7188 8.62294 -26.3068 10.1871 -26.7513 11.9091C-26.9808 12.7558 -27.1959 13.6168 -27.411 14.4921C-27.4827 14.7935 -27.5688 15.0805 -27.6405 15.3818C-27.8269 16.1567 -28.0134 16.9316 -28.1855 17.7209C-28.9169 20.9209 -29.5479 24.1497 -29.9781 27.0771C-31.9572 39.002 -32.1149 48.8605 -31.6704 56.1503C-31.5843 58.5611 -31.3405 60.8141 -31.1541 63.1101C78.8139 39.8487 184.594 -6.80337 275.116 -71.3643H275.13ZM318.368 19.7729C318.182 17.7926 318.024 15.8123 317.752 13.832C317.752 13.7459 317.723 13.6455 317.709 13.5737C317.709 13.502 317.694 13.4302 317.68 13.3585C317.551 12.354 317.393 11.3064 317.221 10.2014C317.121 9.54134 317.006 8.86689 316.891 8.19244C316.848 7.96284 316.82 7.74758 316.777 7.51798C316.49 5.83903 316.146 4.13137 315.787 2.38066C224.247 71.017 114.853 119.879 1.17088 142.279C4.6988 146.57 8.78602 150.961 13.4899 155.41C123.286 132.292 228.822 85.1662 318.368 19.7873V19.7729Z" fill="#1A2F4B"/>
</g>
</g>
<g filter="url(#filter0_d_2425_566)">
<path d="M164.789 23.3745C165.148 23.7476 165.506 24.1207 165.85 24.5081C188.595 20.8632 204.93 22.987 208.759 31.6688C215.844 47.7552 177.538 80.3155 123.358 104.237C69.1623 128.159 19.3125 134.53 12.2136 118.444C9.33107 111.886 13.9633 102.615 24.1455 92.2978C27.4726 88.9255 31.4164 85.4385 35.8479 81.9084C35.8048 81.4061 35.7475 80.8895 35.7188 80.3586C16.7741 95.4118 6.82137 109.747 10.9086 119.018C18.323 135.836 69.0333 129.78 123.946 105.543C155.969 91.4081 182.443 74.1593 197.501 58.9052C208.257 47.9992 213.176 38.0976 210.093 31.0948C206.006 21.8103 188.696 19.5143 164.803 23.3745H164.789Z" fill="#27BEFF"/>
</g>
<path d="M126.097 111.254C126.097 111.254 115.312 112.086 109.905 117.367C103.94 123.193 103.796 142.953 103.796 142.953C103.796 142.953 103.653 123.193 97.6868 117.367C92.2801 112.086 81.4956 111.254 81.4956 111.254C81.4956 111.254 92.2801 110.422 97.6868 105.141C103.653 99.3147 103.796 79.5547 103.796 79.5547C103.796 79.5547 103.94 99.3147 109.905 105.141C115.312 110.422 126.097 111.254 126.097 111.254Z" fill="#27BEFF"/>
<path d="M140.811 28.7699C140.811 28.7699 133.698 29.3152 130.127 32.8022C126.197 36.648 126.097 49.6779 126.097 49.6779C126.097 49.6779 125.996 36.648 122.067 32.8022C118.496 29.3152 111.383 28.7699 111.383 28.7699C111.383 28.7699 118.496 28.2246 122.067 24.7375C125.996 20.8917 126.097 7.86182 126.097 7.86182C126.097 7.86182 126.197 20.8917 130.127 24.7375C133.698 28.2246 140.811 28.7699 140.811 28.7699Z" fill="#27BEFF"/>
<path d="M199.867 79.5689C199.867 79.5689 197.659 79.7411 196.54 80.8174C195.321 82.0084 195.293 86.0695 195.293 86.0695C195.293 86.0695 195.264 82.0228 194.045 80.8174C192.941 79.7411 190.718 79.5689 190.718 79.5689C190.718 79.5689 192.926 79.3967 194.045 78.3205C195.264 77.1294 195.293 73.0684 195.293 73.0684C195.293 73.0684 195.321 77.1151 196.54 78.3205C197.645 79.3967 199.867 79.5689 199.867 79.5689Z" fill="#27BEFF"/>
<path d="M76.792 89.1121C76.792 89.1121 73.5365 89.3704 71.916 90.9489C70.1233 92.6997 70.0803 98.6549 70.0803 98.6549C70.0803 98.6549 70.0373 92.6997 68.2446 90.9489C66.6241 89.3561 63.3687 89.1121 63.3687 89.1121C63.3687 89.1121 66.6241 88.8538 68.2446 87.2753C70.0373 85.5246 70.0803 79.5693 70.0803 79.5693C70.0803 79.5693 70.1233 85.5246 71.916 87.2753C73.5365 88.8682 76.792 89.1121 76.792 89.1121Z" fill="#27BEFF"/>
<defs>
<filter id="filter0_d_2425_566" x="0" y="11.584" width="221" height="126.956" filterUnits="userSpaceOnUse" color-interpolation-filters="sRGB">
<feFlood flood-opacity="0" result="BackgroundImageFix"/>
<feColorMatrix in="SourceAlpha" type="matrix" values="0 0 0 0 0 0 0 0 0 0 0 0 0 0 0 0 0 0 127 0" result="hardAlpha"/>
<feOffset/>
<feGaussianBlur stdDeviation="5"/>
<feColorMatrix type="matrix" values="0 0 0 0 1 0 0 0 0 1 0 0 0 0 1 0 0 0 0.75 0"/>
<feBlend mode="normal" in2="BackgroundImageFix" result="effect1_dropShadow_2425_566"/>
<feBlend mode="normal" in="SourceGraphic" in2="effect1_dropShadow_2425_566" result="shape"/>
</filter>
<radialGradient id="paint0_radial_2425_566" cx="0" cy="0" r="1" gradientUnits="userSpaceOnUse" gradientTransform="translate(74.8704 80.5307) rotate(-134.602) scale(90.5429 90.5422)">
<stop offset="0.03" stop-color="#1D66D3"/>
<stop offset="0.59" stop-color="#008CDC"/>
<stop offset="1" stop-color="#0C4497"/>
</radialGradient>
</defs>
</svg>
