<svg width="1406" height="870" viewBox="0 0 1406 870" fill="none" xmlns="http://www.w3.org/2000/svg">
<g filter="url(#filter0_d_629_2645)">
<path d="M72.5127 431.757C72.6931 430.635 74.3069 430.635 74.4873 431.757L76.9193 446.872C76.9878 447.298 77.3218 447.632 77.7478 447.701L92.8635 450.133C93.9851 450.313 93.9851 451.927 92.8635 452.107L77.7478 454.539C77.3218 454.608 76.9878 454.942 76.9193 455.368L74.4873 470.484C74.3069 471.605 72.6931 471.605 72.5127 470.484L70.0807 455.368C70.0122 454.942 69.6782 454.608 69.2522 454.539L54.1365 452.107C53.0149 451.927 53.0149 450.313 54.1365 450.133L69.2522 447.701C69.6782 447.632 70.0122 447.298 70.0807 446.872L72.5127 431.757Z" fill="white"/>
</g>
<g filter="url(#filter1_d_629_2645)">
<path d="M112.513 474.757C112.693 473.635 114.307 473.635 114.487 474.757L116.919 489.872C116.988 490.298 117.322 490.632 117.748 490.701L132.864 493.133C133.985 493.313 133.985 494.927 132.864 495.107L117.748 497.539C117.322 497.608 116.988 497.942 116.919 498.368L114.487 513.484C114.307 514.605 112.693 514.605 112.513 513.484L110.081 498.368C110.012 497.942 109.678 497.608 109.252 497.539L94.1365 495.107C93.0149 494.927 93.0149 493.313 94.1365 493.133L109.252 490.701C109.678 490.632 110.012 490.298 110.081 489.872L112.513 474.757Z" fill="white"/>
</g>
<g opacity="0.2">
<mask id="mask0_629_2645" style="mask-type:luminance" maskUnits="userSpaceOnUse" x="183" y="109" width="216" height="216">
<path d="M290.191 109.506C349.418 109.908 397.765 158.255 398.177 217.492C398.589 276.73 350.911 324.425 291.684 324.023C232.458 323.622 184.111 275.275 183.698 216.037C183.286 156.8 230.964 109.105 290.191 109.506Z" fill="white"/>
</mask>
<g mask="url(#mask0_629_2645)">
<path d="M290.19 109.506C349.417 109.908 397.764 158.255 398.176 217.492C398.589 276.73 350.91 324.425 291.684 324.023C232.457 323.622 184.11 275.275 183.698 216.037C183.285 156.8 230.964 109.105 290.19 109.506Z" fill="url(#paint0_linear_629_2645)"/>
<path opacity="0.3" d="M356.858 280.133C364.564 279.306 372.33 278.51 380.075 277.613C384.178 271.538 387.669 265.009 390.458 258.115C366.46 259.051 342.389 259.377 319.398 265.724C303.824 270.024 289.208 276.997 275.057 284.613C268.916 287.917 261.386 290.943 255.992 295.382C253.34 297.571 247.242 305.471 254.833 305.293C263.172 305.09 270.359 299.974 277.81 296.918C286.067 293.528 294.619 290.879 303.295 288.72C320.846 284.354 338.861 282.069 356.848 280.123L356.858 280.133ZM302.295 249.866C275.102 262.467 256.701 288.184 232.621 305.981C228.778 303.438 225.102 300.656 221.625 297.656C230.61 292.532 239.139 286.617 247.054 279.978C272.329 258.742 291.44 230.273 319.388 212.662C339.368 200.072 362.67 193.827 385.738 188.479C388.301 187.887 390.894 187.305 393.498 186.774C396.462 196.523 398.103 206.833 398.177 217.502C398.22 223.725 397.723 229.825 396.746 235.762C388.73 236.557 380.693 237.222 372.645 237.747C348.712 239.302 323.952 239.834 302.295 249.866ZM330.821 164.732C319.889 168.444 308.688 172.304 299.869 179.716C288.389 189.367 282.257 203.94 272.145 215.019C258.424 230.039 238.558 237.526 220.675 247.284C211.808 252.119 202.989 258.112 195.978 265.397C188.233 250.59 183.791 233.809 183.667 216.047C183.621 209.434 184.175 202.955 185.28 196.679C201.831 186.453 216.833 173.269 232.142 161.096C257.206 141.178 285.48 123.13 315.625 112.736C338.921 118.548 359.302 131.921 373.983 150.071C359.592 154.958 345.202 159.845 330.821 164.722L330.821 164.732ZM207.585 162.108C203.591 163.719 199.536 165.21 195.449 166.571C202.25 153.412 211.73 141.888 223.184 132.706C225.439 141.042 224.622 149.897 218.669 155.721C215.603 158.716 211.58 160.507 207.595 162.108L207.585 162.108ZM259.793 318.992C276.845 307.57 297.339 301.276 317.996 301.176C330.073 301.118 342.184 303.098 354.238 304.199C336.695 316.816 315.089 324.171 291.674 324.013C280.585 323.937 269.884 322.187 259.793 318.992Z" fill="url(#paint1_linear_629_2645)"/>
</g>
<path d="M398.368 214.133C398.343 213.399 398.308 212.664 398.273 211.93C424.78 192.76 438.953 174.222 433.853 161.646C424.408 138.375 352.622 144.163 273.822 174.551C195.012 204.938 138.577 248.602 148.002 271.873C151.847 281.355 166.023 286.004 186.812 286.144C193.598 286.189 201.122 285.724 209.195 284.816C209.67 285.375 210.155 285.934 210.65 286.502C176.217 290.418 151.539 286.026 146.093 272.604C136.239 248.279 193.187 203.447 273.047 172.65C319.609 154.697 363.837 145.419 394.579 145.626C416.562 145.774 431.642 150.767 435.752 160.915C441.189 174.336 426.252 194.02 398.358 214.133L398.368 214.133Z" fill="#789BF5"/>
</g>
<mask id="mask1_629_2645" style="mask-type:luminance" maskUnits="userSpaceOnUse" x="1219" y="652" width="219" height="218">
<path d="M1220.09 766.783C1220.05 765.911 1220.01 765.059 1219.99 764.228C1219.72 756.541 1220.23 747.504 1222.44 737.49C1223.39 732.608 1225.16 726.167 1228.33 718.688C1229.08 716.86 1229.99 714.845 1230.97 712.871C1231.2 712.393 1231.45 711.915 1231.68 711.438C1231.76 711.251 1231.86 711.084 1231.97 710.897C1232.24 710.357 1232.51 709.838 1232.8 709.319C1234.25 706.597 1235.74 704.042 1237.3 701.652C1237.8 700.863 1238.32 700.094 1238.82 699.326C1238.88 699.222 1238.94 699.139 1239.03 699.035C1239.4 698.495 1239.77 697.954 1240.15 697.435C1243.22 693.072 1246.42 689.312 1249.57 686.029C1250.17 685.406 1250.78 684.783 1251.38 684.18C1251.65 683.91 1251.9 683.661 1252.17 683.391C1252.42 683.141 1252.67 682.892 1252.92 682.643C1253.04 682.539 1253.14 682.435 1253.25 682.331C1253.37 682.207 1253.5 682.082 1253.62 681.978C1253.85 681.77 1254.08 681.542 1254.31 681.334C1258.56 677.366 1262.11 674.624 1265.1 672.463C1265.19 672.401 1265.27 672.338 1265.35 672.276C1265.31 672.297 1265.27 672.338 1265.25 672.359C1265.56 672.13 1265.87 671.923 1266.16 671.715C1267.39 670.822 1268.86 669.866 1270.38 668.931C1271.19 668.391 1272 667.872 1272.72 667.456C1274.67 666.272 1277.33 664.776 1279.39 663.758C1279.39 663.758 1279.43 663.758 1279.45 663.737C1280.45 663.239 1281.42 662.761 1282.4 662.304C1282.4 662.304 1282.42 662.304 1282.44 662.304C1282.46 662.304 1282.5 662.283 1282.52 662.262C1283.1 661.992 1283.66 661.722 1284.2 661.493C1284.95 661.161 1285.68 660.849 1286.41 660.559C1288.61 659.603 1290.91 658.71 1293.34 657.879C1293.36 657.879 1293.38 657.879 1293.4 657.858C1295.31 657.193 1297.26 656.57 1299.32 656.009C1309.6 653.059 1320.17 651.75 1330.96 652.041C1336.53 652.103 1342.98 652.747 1349.9 654.16L1350.67 654.305C1350.67 654.305 1350.67 654.305 1350.69 654.305C1350.71 654.305 1350.73 654.305 1350.75 654.305C1352.6 654.7 1354.44 655.115 1356.46 655.656C1357.79 655.988 1359.32 656.445 1360.61 656.861C1360.63 656.861 1360.65 656.861 1360.69 656.881C1360.82 656.923 1360.96 656.964 1361.09 657.006C1363.21 657.692 1364.16 657.982 1365.74 658.585C1365.93 658.647 1366.09 658.71 1366.26 658.772C1367.98 659.395 1369.19 659.873 1370.7 660.538C1371.68 660.953 1372.63 661.369 1373.61 661.805C1373.67 661.826 1373.71 661.847 1373.77 661.888C1375.02 662.449 1376.24 663.052 1377.49 663.675C1377.53 663.696 1377.57 663.716 1377.64 663.737C1378.72 664.277 1379.77 664.838 1380.83 665.42C1381.58 665.836 1382.31 666.251 1383.01 666.667C1383.28 666.833 1383.57 666.978 1383.84 667.144C1391.11 671.424 1396.38 675.662 1399.58 678.509C1399.91 678.799 1400.16 679.028 1400.31 679.153C1401.78 680.441 1403.13 681.687 1404.17 682.726C1404.5 683.058 1404.88 683.412 1405.23 683.786C1405.25 683.806 1405.29 683.848 1405.31 683.869L1405.4 683.952C1407.14 685.697 1409.26 687.899 1411.83 690.974C1423.94 705.267 1431.89 722.095 1435.19 740.357C1435.29 740.876 1435.38 741.396 1435.48 741.936C1435.48 741.998 1435.5 742.061 1435.52 742.144C1436.02 744.969 1436.41 747.857 1436.6 750.309C1436.6 750.454 1436.62 750.62 1436.64 750.786C1436.81 752.739 1436.93 754.9 1437 757.102C1437.02 757.455 1437.04 757.808 1437.06 758.141V759.263C1437.06 760.031 1437.06 760.779 1437.06 761.527C1437.06 763.335 1437.02 765.08 1436.91 766.659C1436.83 768.072 1436.73 769.443 1436.58 770.772C1436.58 770.918 1436.56 771.084 1436.54 771.229C1436.5 771.686 1436.46 772.164 1436.39 772.601C1436.31 773.349 1436.23 774.076 1436.14 774.761C1436.14 774.803 1436.14 774.865 1436.14 774.907C1436.14 774.969 1436.14 775.031 1436.12 775.094C1433.84 793.335 1426.99 810.35 1416.01 825.079C1415.74 825.453 1415.44 825.827 1415.17 826.201C1415.05 826.367 1414.93 826.534 1414.8 826.7C1414.39 827.24 1413.97 827.759 1413.58 828.237C1404.44 839.851 1393.5 848.743 1382.04 855.204C1362.4 866.589 1341.76 870.785 1322.91 869.144C1322.91 869.144 1322.86 869.144 1322.84 869.144C1322.68 869.144 1322.49 869.144 1322.32 869.123C1321.43 869.082 1320.54 868.999 1319.58 868.916C1319.23 868.895 1318.88 868.853 1318.52 868.812C1318.03 868.77 1317.55 868.729 1317.09 868.666C1317.09 868.666 1317.07 868.666 1317.05 868.666C1316.47 868.604 1315.93 868.542 1315.43 868.479C1315.41 868.479 1315.39 868.479 1315.37 868.479C1313.21 868.209 1311.82 867.981 1311.71 867.96C1309.89 867.69 1308.72 867.503 1306.77 867.067C1306.67 867.067 1306.54 867.025 1306.44 867.004C1306.3 866.984 1306.17 866.942 1306.03 866.9C1305.88 866.859 1305.76 866.838 1305.61 866.797C1304.84 866.63 1304.03 866.443 1303.18 866.256L1302.81 866.173L1301.4 865.82C1301.4 865.82 1301.31 865.82 1301.27 865.799H1301.23C1299.8 865.446 1297.99 864.906 1296.5 864.449C1296.48 864.449 1296.45 864.449 1296.43 864.428C1296.29 864.387 1296.14 864.345 1296.02 864.303C1295.75 864.22 1295.5 864.137 1295.25 864.054C1295.19 864.033 1295.13 864.013 1295.04 863.992C1293.51 863.493 1292.59 863.202 1291.2 862.662C1291.08 862.621 1290.93 862.558 1290.81 862.517C1290.79 862.517 1290.77 862.517 1290.72 862.496C1289.77 862.143 1288.79 861.769 1287.82 861.374C1287.42 861.208 1287.05 861.042 1286.65 860.896C1286.2 860.709 1285.76 860.522 1285.3 860.335C1284.83 860.148 1284.33 859.92 1283.81 859.671C1281.88 858.798 1280.03 857.884 1278.29 856.97C1278.25 856.949 1278.2 856.928 1278.16 856.907C1268.36 851.776 1261.39 846.27 1257.52 842.822C1257.19 842.531 1256.94 842.302 1256.8 842.178C1255.78 841.263 1254.8 840.349 1253.81 839.414C1253.52 839.144 1253.23 838.874 1252.92 838.604C1251.75 837.524 1249.93 835.654 1247.95 833.473C1244.13 829.276 1240.75 824.913 1237.86 820.426C1237.41 819.74 1236.97 819.055 1236.58 818.41C1236.26 817.933 1235.93 817.392 1235.6 816.832C1229.27 806.548 1225.72 796.929 1223.74 789.138C1223.58 788.494 1223.41 787.871 1223.29 787.289C1223.27 787.206 1223.25 787.081 1223.22 786.998C1221.44 779.893 1220.53 773.245 1220.17 767.199C1220.17 767.095 1220.17 766.991 1220.17 766.887L1220.09 766.783Z" fill="white"/>
</mask>
<g mask="url(#mask1_629_2645)">
<path d="M1220.09 766.783C1220.05 765.911 1220.01 765.059 1219.99 764.228C1219.72 756.541 1220.23 747.504 1222.44 737.49C1223.39 732.608 1225.16 726.167 1228.33 718.688C1229.08 716.86 1229.99 714.845 1230.97 712.871C1231.2 712.393 1231.45 711.915 1231.68 711.438C1231.76 711.251 1231.86 711.084 1231.97 710.897C1232.24 710.357 1232.51 709.838 1232.8 709.319C1234.25 706.597 1235.74 704.042 1237.3 701.652C1237.8 700.863 1238.32 700.094 1238.82 699.326C1238.88 699.222 1238.94 699.139 1239.03 699.035C1239.4 698.495 1239.77 697.954 1240.15 697.435C1243.22 693.072 1246.42 689.312 1249.57 686.029C1250.17 685.406 1250.78 684.783 1251.38 684.18C1251.65 683.91 1251.9 683.661 1252.17 683.391C1252.42 683.141 1252.67 682.892 1252.92 682.643C1253.04 682.539 1253.14 682.435 1253.25 682.331C1253.37 682.207 1253.5 682.082 1253.62 681.978C1253.85 681.77 1254.08 681.542 1254.31 681.334C1258.56 677.366 1262.11 674.624 1265.1 672.463C1265.19 672.401 1265.27 672.338 1265.35 672.276C1265.31 672.297 1265.27 672.338 1265.25 672.359C1265.56 672.13 1265.87 671.923 1266.16 671.715C1267.39 670.822 1268.86 669.866 1270.38 668.931C1271.19 668.391 1272 667.872 1272.72 667.456C1274.67 666.272 1277.33 664.776 1279.39 663.758C1279.39 663.758 1279.43 663.758 1279.45 663.737C1280.45 663.239 1281.42 662.761 1282.4 662.304C1282.4 662.304 1282.42 662.304 1282.44 662.304C1282.46 662.304 1282.5 662.283 1282.52 662.262C1283.1 661.992 1283.66 661.722 1284.2 661.493C1284.95 661.161 1285.68 660.849 1286.41 660.559C1288.61 659.603 1290.91 658.71 1293.34 657.879C1293.36 657.879 1293.38 657.879 1293.4 657.858C1295.31 657.193 1297.26 656.57 1299.32 656.009C1309.6 653.059 1320.17 651.75 1330.96 652.041C1336.53 652.103 1342.98 652.747 1349.9 654.16L1350.67 654.305C1350.67 654.305 1350.67 654.305 1350.69 654.305C1350.71 654.305 1350.73 654.305 1350.75 654.305C1352.6 654.7 1354.44 655.115 1356.46 655.656C1357.79 655.988 1359.32 656.445 1360.61 656.861C1360.63 656.861 1360.65 656.861 1360.69 656.881C1360.82 656.923 1360.96 656.964 1361.09 657.006C1363.21 657.692 1364.16 657.982 1365.74 658.585C1365.93 658.647 1366.09 658.71 1366.26 658.772C1367.98 659.395 1369.19 659.873 1370.7 660.538C1371.68 660.953 1372.63 661.369 1373.61 661.805C1373.67 661.826 1373.71 661.847 1373.77 661.888C1375.02 662.449 1376.24 663.052 1377.49 663.675C1377.53 663.696 1377.57 663.716 1377.64 663.737C1378.72 664.277 1379.77 664.838 1380.83 665.42C1381.58 665.836 1382.31 666.251 1383.01 666.667C1383.28 666.833 1383.57 666.978 1383.84 667.144C1391.11 671.424 1396.38 675.662 1399.58 678.509C1399.91 678.799 1400.16 679.028 1400.31 679.153C1401.78 680.441 1403.13 681.687 1404.17 682.726C1404.5 683.058 1404.88 683.412 1405.23 683.786C1405.25 683.806 1405.29 683.848 1405.31 683.869L1405.4 683.952C1407.14 685.697 1409.26 687.899 1411.83 690.974C1423.94 705.267 1431.89 722.095 1435.19 740.357C1435.29 740.876 1435.38 741.396 1435.48 741.936C1435.48 741.998 1435.5 742.061 1435.52 742.144C1436.02 744.969 1436.41 747.857 1436.6 750.309C1436.6 750.454 1436.62 750.62 1436.64 750.786C1436.81 752.739 1436.93 754.9 1437 757.102C1437.02 757.455 1437.04 757.808 1437.06 758.141V759.263C1437.06 760.031 1437.06 760.779 1437.06 761.527C1437.06 763.335 1437.02 765.08 1436.91 766.659C1436.83 768.072 1436.73 769.443 1436.58 770.772C1436.58 770.918 1436.56 771.084 1436.54 771.229C1436.5 771.686 1436.46 772.164 1436.39 772.601C1436.31 773.349 1436.23 774.076 1436.14 774.761C1436.14 774.803 1436.14 774.865 1436.14 774.907C1436.14 774.969 1436.14 775.031 1436.12 775.094C1433.84 793.335 1426.99 810.35 1416.01 825.079C1415.74 825.453 1415.44 825.827 1415.17 826.201C1415.05 826.367 1414.93 826.534 1414.8 826.7C1414.39 827.24 1413.97 827.759 1413.58 828.237C1404.44 839.851 1393.5 848.743 1382.04 855.204C1362.4 866.589 1341.76 870.785 1322.91 869.144C1322.91 869.144 1322.86 869.144 1322.84 869.144C1322.68 869.144 1322.49 869.144 1322.32 869.123C1321.43 869.082 1320.54 868.999 1319.58 868.916C1319.23 868.895 1318.88 868.853 1318.52 868.812C1318.03 868.77 1317.55 868.729 1317.09 868.666C1317.09 868.666 1317.07 868.666 1317.05 868.666C1316.47 868.604 1315.93 868.542 1315.43 868.479C1315.41 868.479 1315.39 868.479 1315.37 868.479C1313.21 868.209 1311.82 867.981 1311.71 867.96C1309.89 867.69 1308.72 867.503 1306.77 867.067C1306.67 867.067 1306.54 867.025 1306.44 867.004C1306.3 866.984 1306.17 866.942 1306.03 866.9C1305.88 866.859 1305.76 866.838 1305.61 866.797C1304.84 866.63 1304.03 866.443 1303.18 866.256L1302.81 866.173L1301.4 865.82C1301.4 865.82 1301.31 865.82 1301.27 865.799H1301.23C1299.8 865.446 1297.99 864.906 1296.5 864.449C1296.48 864.449 1296.45 864.449 1296.43 864.428C1296.29 864.387 1296.14 864.345 1296.02 864.303C1295.75 864.22 1295.5 864.137 1295.25 864.054C1295.19 864.033 1295.13 864.013 1295.04 863.992C1293.51 863.493 1292.59 863.202 1291.2 862.662C1291.08 862.621 1290.93 862.558 1290.81 862.517C1290.79 862.517 1290.77 862.517 1290.72 862.496C1289.77 862.143 1288.79 861.769 1287.82 861.374C1287.42 861.208 1287.05 861.042 1286.65 860.896C1286.2 860.709 1285.76 860.522 1285.3 860.335C1284.83 860.148 1284.33 859.92 1283.81 859.671C1281.88 858.798 1280.03 857.884 1278.29 856.97C1278.25 856.949 1278.2 856.928 1278.16 856.907C1268.36 851.776 1261.39 846.27 1257.52 842.822C1257.19 842.531 1256.94 842.302 1256.8 842.178C1255.78 841.263 1254.8 840.349 1253.81 839.414C1253.52 839.144 1253.23 838.874 1252.92 838.604C1251.75 837.524 1249.93 835.654 1247.95 833.473C1244.13 829.276 1240.75 824.913 1237.86 820.426C1237.41 819.74 1236.97 819.055 1236.58 818.41C1236.26 817.933 1235.93 817.392 1235.6 816.832C1229.27 806.548 1225.72 796.929 1223.74 789.138C1223.58 788.494 1223.41 787.871 1223.29 787.289C1223.27 787.206 1223.25 787.081 1223.22 786.998C1221.44 779.893 1220.53 773.245 1220.17 767.199C1220.17 767.095 1220.17 766.991 1220.17 766.887L1220.09 766.783Z" fill="url(#paint2_radial_629_2645)"/>
<g style="mix-blend-mode:screen" opacity="0.2">
<path d="M1147.71 824.394C1142.19 814.276 1137.87 804.408 1134.57 795.1C1134.49 794.893 1134.42 794.685 1134.34 794.477C1133.74 792.732 1133.16 791.028 1132.6 789.325C1130.81 783.923 1129.25 777.961 1127.82 771.77C1293.86 742.102 1454.33 672.525 1588.36 573.281C1595.08 582.318 1601.12 591.813 1606.31 601.847C1606.85 602.844 1607.37 603.862 1607.89 604.88C1607.95 605.005 1608.02 605.13 1608.08 605.275C1610.84 610.697 1613.42 616.348 1615.24 621.231C1615.37 621.542 1615.47 621.875 1615.6 622.186C1615.66 622.332 1615.72 622.519 1615.76 622.685C1478.52 722.075 1316.07 792.462 1147.71 824.394ZM1610.09 790.883C1610.28 790.467 1610.47 790.052 1610.65 789.636C1611.07 788.681 1611.48 787.767 1611.9 786.811C1624.98 757.144 1631.11 726.188 1630.3 695.212C1505.26 788.992 1356.46 856.471 1201.49 888.964C1202.73 890.003 1204.08 891.083 1205.49 892.184C1214.65 899.435 1224.84 906.166 1235.91 912.253C1241.66 915.453 1246.87 918.07 1250.13 919.525C1250.96 919.899 1251.77 920.252 1252.6 920.626C1255.39 921.893 1258.13 923.098 1260.95 924.324C1261.32 924.49 1262.01 924.781 1262.94 925.155C1273.18 929.455 1291.01 935.75 1314.5 939.905C1414.74 909.573 1511.14 866.007 1599.4 811.16C1602.47 805.821 1605.53 800.481 1608.2 794.83C1608.83 793.584 1609.45 792.296 1610.07 790.904L1610.09 790.883ZM1446.53 485.608C1446.17 485.546 1445.82 485.463 1445.47 485.401C1443.6 485.027 1441.75 484.632 1439.8 484.279C1437.06 483.759 1434.32 483.323 1431.58 482.908C1431.45 482.908 1431.35 482.866 1431.22 482.845C1428.07 482.367 1424.93 481.952 1421.78 481.599C1421.63 481.599 1421.49 481.557 1421.34 481.557C1418.89 481.287 1416.44 481.038 1414.01 480.851C1413.24 480.768 1412.58 480.726 1411.87 480.685C1335.76 526.141 1253.66 562.976 1168.47 589.631C1166.48 592.332 1164.45 595.178 1162.31 598.336C1161.91 598.918 1161.48 599.52 1161.1 600.081C1160.9 600.393 1160.69 600.725 1160.48 601.058C1160.27 601.348 1160.11 601.619 1159.9 601.93C1159.46 602.595 1159.05 603.26 1158.63 603.945C1158.2 604.631 1157.76 605.337 1157.3 606.064C1156.29 607.706 1155.25 609.368 1154.27 611.03C1152.9 613.315 1151.59 615.85 1150.24 618.28C1254.74 588.094 1355.19 543.032 1446.53 485.608ZM1566.85 548.683C1554.43 536.529 1540.44 525.622 1524.82 516.314C1517.22 511.682 1511.14 508.565 1506.18 506.135L1505.93 506.01C1505.93 506.01 1505.76 505.927 1505.68 505.885C1504.62 505.366 1503.6 504.888 1502.65 504.431C1500.99 503.641 1499.03 502.748 1496.94 501.834C1387.39 576.356 1262.26 631.535 1132.01 662.075C1131.29 664.485 1130.44 666.75 1129.79 669.243C1129.46 670.468 1129.15 671.715 1128.84 672.982C1128.73 673.419 1128.61 673.834 1128.51 674.27C1128.24 675.392 1127.97 676.514 1127.72 677.657C1126.66 682.29 1125.74 686.964 1125.12 691.202C1122.26 708.467 1122.03 722.739 1122.67 733.293C1122.8 736.784 1123.15 740.045 1123.42 743.369C1282.63 709.692 1435.77 642.151 1566.82 548.683H1566.85ZM1629.44 680.628C1629.17 677.761 1628.95 674.894 1628.55 672.027C1628.55 671.902 1628.51 671.756 1628.49 671.653C1628.49 671.549 1628.47 671.445 1628.45 671.341C1628.26 669.887 1628.03 668.37 1627.78 666.77C1627.64 665.815 1627.47 664.838 1627.31 663.862C1627.24 663.529 1627.2 663.218 1627.14 662.885C1626.72 660.455 1626.23 657.982 1625.71 655.448C1493.18 754.817 1334.8 825.557 1170.22 857.988C1175.33 864.2 1181.24 870.557 1188.05 876.997C1347.01 843.528 1499.8 775.301 1629.44 680.648V680.628Z" fill="#1A2F4B"/>
</g>
</g>
<g filter="url(#filter2_d_629_2645)">
<path d="M1407.1 685.841C1407.62 686.381 1408.14 686.922 1408.63 687.482C1441.56 682.206 1465.21 685.28 1470.76 697.849C1481.01 721.139 1425.56 768.278 1347.11 802.911C1268.65 837.544 1196.48 846.768 1186.2 823.479C1182.03 813.984 1188.74 800.563 1203.48 785.626C1208.3 780.743 1214.01 775.695 1220.42 770.584C1220.36 769.857 1220.28 769.109 1220.23 768.341C1192.81 790.134 1178.4 810.889 1184.32 824.31C1195.05 848.658 1268.47 839.891 1347.97 804.801C1394.33 784.338 1432.66 759.366 1454.46 737.281C1470.03 721.492 1477.15 707.157 1472.69 697.018C1466.77 683.577 1441.71 680.253 1407.12 685.841H1407.1Z" fill="url(#paint3_linear_629_2645)"/>
</g>
<path d="M1351.08 813.07C1351.08 813.07 1335.47 814.275 1327.64 821.92C1319 830.355 1318.79 858.963 1318.79 858.963C1318.79 858.963 1318.59 830.355 1309.95 821.92C1302.12 814.275 1286.51 813.07 1286.51 813.07C1286.51 813.07 1302.12 811.865 1309.95 804.219C1318.59 795.785 1318.79 767.177 1318.79 767.177C1318.79 767.177 1319 795.785 1327.64 804.219C1335.47 811.865 1351.08 813.07 1351.08 813.07Z" fill="url(#paint4_linear_629_2645)"/>
<path d="M1372.38 693.654C1372.38 693.654 1362.08 694.443 1356.91 699.492C1351.23 705.059 1351.08 723.923 1351.08 723.923C1351.08 723.923 1350.94 705.059 1345.25 699.492C1340.08 694.443 1329.78 693.654 1329.78 693.654C1329.78 693.654 1340.08 692.864 1345.25 687.816C1350.94 682.248 1351.08 663.384 1351.08 663.384C1351.08 663.384 1351.23 682.248 1356.91 687.816C1362.08 692.864 1372.38 693.654 1372.38 693.654Z" fill="url(#paint5_linear_629_2645)"/>
<path d="M1279.7 781.014C1279.7 781.014 1274.99 781.388 1272.64 783.673C1270.04 786.208 1269.98 794.83 1269.98 794.83C1269.98 794.83 1269.92 786.208 1267.32 783.673C1264.98 781.367 1260.26 781.014 1260.26 781.014C1260.26 781.014 1264.98 780.64 1267.32 778.355C1269.92 775.82 1269.98 767.198 1269.98 767.198C1269.98 767.198 1270.04 775.82 1272.64 778.355C1274.99 780.661 1279.7 781.014 1279.7 781.014Z" fill="url(#paint6_linear_629_2645)"/>
<g filter="url(#filter3_d_629_2645)">
<path d="M1297.51 150.137C1297.69 149.016 1299.31 149.016 1299.49 150.137L1301.92 165.253C1301.99 165.679 1302.32 166.013 1302.75 166.082L1317.86 168.514C1318.99 168.694 1318.99 170.308 1317.86 170.488L1302.75 172.92C1302.32 172.989 1301.99 173.323 1301.92 173.749L1299.49 188.865C1299.31 189.986 1297.69 189.986 1297.51 188.865L1295.08 173.749C1295.01 173.323 1294.68 172.989 1294.25 172.92L1279.14 170.488C1278.01 170.308 1278.01 168.694 1279.14 168.514L1294.25 166.082C1294.68 166.013 1295.01 165.679 1295.08 165.253L1297.51 150.137Z" fill="white"/>
</g>
<g filter="url(#filter4_d_629_2645)">
<path d="M1246.51 210.757C1246.69 209.635 1248.31 209.635 1248.49 210.757L1250.92 225.872C1250.99 226.298 1251.32 226.632 1251.75 226.701L1266.86 229.133C1267.99 229.313 1267.99 230.927 1266.86 231.107L1251.75 233.539C1251.32 233.608 1250.99 233.942 1250.92 234.368L1248.49 249.484C1248.31 250.605 1246.69 250.605 1246.51 249.484L1244.08 234.368C1244.01 233.942 1243.68 233.608 1243.25 233.539L1228.14 231.107C1227.01 230.927 1227.01 229.313 1228.14 229.133L1243.25 226.701C1243.68 226.632 1244.01 226.298 1244.08 225.872L1246.51 210.757Z" fill="white"/>
</g>
<defs>
<filter id="filter0_d_629_2645" x="45.2954" y="422.915" width="56.4092" height="56.4102" filterUnits="userSpaceOnUse" color-interpolation-filters="sRGB">
<feFlood flood-opacity="0" result="BackgroundImageFix"/>
<feColorMatrix in="SourceAlpha" type="matrix" values="0 0 0 0 0 0 0 0 0 0 0 0 0 0 0 0 0 0 127 0" result="hardAlpha"/>
<feOffset/>
<feGaussianBlur stdDeviation="4"/>
<feComposite in2="hardAlpha" operator="out"/>
<feColorMatrix type="matrix" values="0 0 0 0 1 0 0 0 0 1 0 0 0 0 1 0 0 0 0.9 0"/>
<feBlend mode="normal" in2="BackgroundImageFix" result="effect1_dropShadow_629_2645"/>
<feBlend mode="normal" in="SourceGraphic" in2="effect1_dropShadow_629_2645" result="shape"/>
</filter>
<filter id="filter1_d_629_2645" x="85.2954" y="465.915" width="56.4092" height="56.4102" filterUnits="userSpaceOnUse" color-interpolation-filters="sRGB">
<feFlood flood-opacity="0" result="BackgroundImageFix"/>
<feColorMatrix in="SourceAlpha" type="matrix" values="0 0 0 0 0 0 0 0 0 0 0 0 0 0 0 0 0 0 127 0" result="hardAlpha"/>
<feOffset/>
<feGaussianBlur stdDeviation="4"/>
<feComposite in2="hardAlpha" operator="out"/>
<feColorMatrix type="matrix" values="0 0 0 0 1 0 0 0 0 1 0 0 0 0 1 0 0 0 0.9 0"/>
<feBlend mode="normal" in2="BackgroundImageFix" result="effect1_dropShadow_629_2645"/>
<feBlend mode="normal" in="SourceGraphic" in2="effect1_dropShadow_629_2645" result="shape"/>
</filter>
<filter id="filter2_d_629_2645" x="1173" y="673.249" width="311" height="174.846" filterUnits="userSpaceOnUse" color-interpolation-filters="sRGB">
<feFlood flood-opacity="0" result="BackgroundImageFix"/>
<feColorMatrix in="SourceAlpha" type="matrix" values="0 0 0 0 0 0 0 0 0 0 0 0 0 0 0 0 0 0 127 0" result="hardAlpha"/>
<feOffset/>
<feGaussianBlur stdDeviation="5"/>
<feColorMatrix type="matrix" values="0 0 0 0 1 0 0 0 0 1 0 0 0 0 1 0 0 0 0.75 0"/>
<feBlend mode="normal" in2="BackgroundImageFix" result="effect1_dropShadow_629_2645"/>
<feBlend mode="normal" in="SourceGraphic" in2="effect1_dropShadow_629_2645" result="shape"/>
</filter>
<filter id="filter3_d_629_2645" x="1270.3" y="141.296" width="56.4092" height="56.4102" filterUnits="userSpaceOnUse" color-interpolation-filters="sRGB">
<feFlood flood-opacity="0" result="BackgroundImageFix"/>
<feColorMatrix in="SourceAlpha" type="matrix" values="0 0 0 0 0 0 0 0 0 0 0 0 0 0 0 0 0 0 127 0" result="hardAlpha"/>
<feOffset/>
<feGaussianBlur stdDeviation="4"/>
<feComposite in2="hardAlpha" operator="out"/>
<feColorMatrix type="matrix" values="0 0 0 0 1 0 0 0 0 1 0 0 0 0 1 0 0 0 0.9 0"/>
<feBlend mode="normal" in2="BackgroundImageFix" result="effect1_dropShadow_629_2645"/>
<feBlend mode="normal" in="SourceGraphic" in2="effect1_dropShadow_629_2645" result="shape"/>
</filter>
<filter id="filter4_d_629_2645" x="1219.3" y="201.915" width="56.4092" height="56.4102" filterUnits="userSpaceOnUse" color-interpolation-filters="sRGB">
<feFlood flood-opacity="0" result="BackgroundImageFix"/>
<feColorMatrix in="SourceAlpha" type="matrix" values="0 0 0 0 0 0 0 0 0 0 0 0 0 0 0 0 0 0 127 0" result="hardAlpha"/>
<feOffset/>
<feGaussianBlur stdDeviation="4"/>
<feComposite in2="hardAlpha" operator="out"/>
<feColorMatrix type="matrix" values="0 0 0 0 1 0 0 0 0 1 0 0 0 0 1 0 0 0 0.9 0"/>
<feBlend mode="normal" in2="BackgroundImageFix" result="effect1_dropShadow_629_2645"/>
<feBlend mode="normal" in="SourceGraphic" in2="effect1_dropShadow_629_2645" result="shape"/>
</filter>
<linearGradient id="paint0_linear_629_2645" x1="291.693" y1="325.392" x2="293.506" y2="58.1298" gradientUnits="userSpaceOnUse">
<stop stop-color="#196691"/>
<stop offset="0.42" stop-color="#315D93"/>
<stop offset="0.97" stop-color="#0F172A"/>
</linearGradient>
<linearGradient id="paint1_linear_629_2645" x1="240.75" y1="299.863" x2="325.015" y2="162.291" gradientUnits="userSpaceOnUse">
<stop stop-color="#315D93"/>
<stop offset="0.98" stop-color="#1E293B"/>
</linearGradient>
<radialGradient id="paint2_radial_629_2645" cx="0" cy="0" r="1" gradientUnits="userSpaceOnUse" gradientTransform="translate(1276.92 768.59) rotate(-134.602) scale(131.085 131.083)">
<stop offset="0.03" stop-color="#62EDF5"/>
<stop offset="0.59" stop-color="#27B1FF"/>
<stop offset="1" stop-color="#315D93"/>
</radialGradient>
<linearGradient id="paint3_linear_629_2645" x1="1328.5" y1="683.249" x2="1328.5" y2="838.095" gradientUnits="userSpaceOnUse">
<stop stop-color="white"/>
<stop offset="0.9999" stop-color="#98D6FA"/>
<stop offset="1" stop-color="#999999"/>
</linearGradient>
<linearGradient id="paint4_linear_629_2645" x1="1318.79" y1="767.177" x2="1318.79" y2="858.963" gradientUnits="userSpaceOnUse">
<stop stop-color="white"/>
<stop offset="0.9999" stop-color="#98D6FA"/>
<stop offset="1" stop-color="#999999"/>
</linearGradient>
<linearGradient id="paint5_linear_629_2645" x1="1351.08" y1="663.384" x2="1351.08" y2="723.923" gradientUnits="userSpaceOnUse">
<stop stop-color="white"/>
<stop offset="0.9999" stop-color="#98D6FA"/>
<stop offset="1" stop-color="#999999"/>
</linearGradient>
<linearGradient id="paint6_linear_629_2645" x1="1269.98" y1="767.198" x2="1269.98" y2="794.83" gradientUnits="userSpaceOnUse">
<stop stop-color="white"/>
<stop offset="0.9999" stop-color="#98D6FA"/>
<stop offset="1" stop-color="#999999"/>
</linearGradient>
</defs>
</svg>
