<svg width="221" height="151" viewBox="0 0 221 151" fill="none" xmlns="http://www.w3.org/2000/svg">
<mask id="mask0_2425_552" style="mask-type:luminance" maskUnits="userSpaceOnUse" x="35" y="0" width="151" height="151">
<path d="M185.382 70.9394C185.41 71.5421 185.439 72.1305 185.453 72.7045C185.64 78.014 185.281 84.2563 183.761 91.173C183.101 94.5453 181.882 98.9938 179.688 104.16C179.172 105.423 178.541 106.815 177.867 108.178C177.709 108.508 177.537 108.838 177.379 109.168C177.322 109.297 177.25 109.412 177.179 109.541C176.992 109.914 176.806 110.273 176.605 110.632C175.601 112.512 174.568 114.277 173.493 115.927C173.149 116.472 172.79 117.003 172.446 117.534C172.403 117.606 172.36 117.663 172.303 117.735C172.044 118.108 171.786 118.481 171.528 118.84C169.406 121.853 167.197 124.451 165.017 126.718C164.601 127.149 164.185 127.579 163.77 127.995C163.583 128.182 163.411 128.354 163.225 128.541C163.053 128.713 162.88 128.885 162.708 129.057C162.622 129.129 162.551 129.201 162.479 129.272C162.393 129.359 162.307 129.445 162.221 129.516C162.063 129.66 161.905 129.818 161.747 129.961C158.808 132.702 156.355 134.596 154.29 136.089C154.233 136.132 154.175 136.175 154.118 136.218C154.147 136.203 154.175 136.175 154.19 136.16C153.975 136.318 153.759 136.462 153.559 136.605C152.713 137.222 151.694 137.882 150.647 138.528C150.088 138.901 149.529 139.26 149.027 139.547C147.679 140.365 145.843 141.398 144.423 142.101C144.423 142.101 144.395 142.101 144.38 142.116C143.692 142.46 143.018 142.79 142.344 143.106C142.344 143.106 142.33 143.106 142.315 143.106C142.301 143.106 142.272 143.12 142.258 143.135C141.856 143.321 141.469 143.508 141.096 143.666C140.58 143.895 140.078 144.11 139.576 144.311C138.056 144.971 136.464 145.588 134.786 146.162C134.772 146.162 134.757 146.162 134.743 146.177C133.424 146.636 132.076 147.066 130.656 147.454C123.557 149.492 116.257 150.396 108.8 150.195C104.957 150.152 100.496 149.707 95.7208 148.731L95.1902 148.631C95.1902 148.631 95.1902 148.631 95.1759 148.631C95.1615 148.631 95.1472 148.631 95.1328 148.631C93.8565 148.358 92.5801 148.071 91.189 147.698C90.2712 147.468 89.2099 147.153 88.3208 146.866C88.3065 146.866 88.2921 146.866 88.2634 146.851C88.1774 146.823 88.077 146.794 87.9909 146.765C86.5281 146.292 85.8685 146.091 84.7785 145.675C84.6495 145.631 84.5347 145.588 84.42 145.545C83.2297 145.115 82.3979 144.785 81.351 144.326C80.677 144.039 80.0173 143.752 79.3432 143.45C79.3002 143.436 79.2715 143.422 79.2285 143.393C78.368 143.005 77.5219 142.589 76.6614 142.159C76.6328 142.144 76.6041 142.13 76.561 142.116C75.8153 141.743 75.0839 141.355 74.3525 140.953C73.8362 140.666 73.3343 140.379 72.8467 140.092C72.6603 139.978 72.4595 139.877 72.273 139.762C67.2536 136.806 63.611 133.879 61.4025 131.913C61.173 131.712 61.0009 131.554 60.9005 131.468C59.8823 130.578 58.9501 129.717 58.2331 129C58.0036 128.77 57.7455 128.526 57.5017 128.268C57.4873 128.254 57.4586 128.225 57.4443 128.211L57.3869 128.153C56.1823 126.948 54.7195 125.427 52.9412 123.303C44.5803 113.43 39.0876 101.806 36.8074 89.1927C36.7357 88.8339 36.6783 88.4752 36.6066 88.1021C36.6066 88.059 36.5923 88.016 36.5779 87.9586C36.2337 86.007 35.9613 84.0123 35.8322 82.319C35.8322 82.2186 35.8178 82.1038 35.8035 81.989C35.6888 80.64 35.6027 79.1477 35.5597 77.6265C35.5454 77.3826 35.531 77.1386 35.5167 76.909V76.1341C35.5167 75.6032 35.5167 75.0866 35.5167 74.57C35.5167 73.3215 35.5454 72.1161 35.6171 71.0255C35.6744 70.0497 35.7461 69.1026 35.8465 68.1842C35.8465 68.0838 35.8609 67.9689 35.8752 67.8685C35.9039 67.5528 35.9326 67.2227 35.9756 66.9214C36.0329 66.4048 36.0903 65.9025 36.1477 65.429C36.1477 65.4003 36.1477 65.3572 36.1477 65.3285C36.1477 65.2855 36.1477 65.2424 36.162 65.1994C37.7396 52.6 42.4721 40.8473 50.0586 30.6732C50.245 30.4149 50.4458 30.1565 50.6322 29.8982C50.7183 29.7834 50.8043 29.6687 50.8904 29.5539C51.1772 29.1808 51.464 28.822 51.7365 28.4919C58.0466 20.4703 65.6044 14.3284 73.5207 9.86557C87.0875 2.00174 101.343 -0.896985 114.364 0.23667C114.364 0.23667 114.393 0.23667 114.407 0.23667C114.522 0.23667 114.651 0.236684 114.766 0.251034C115.383 0.279734 115.999 0.337121 116.659 0.394521C116.903 0.408871 117.147 0.437576 117.39 0.466276C117.734 0.494976 118.064 0.523687 118.38 0.566737C118.38 0.566737 118.394 0.566737 118.409 0.566737C118.81 0.609787 119.183 0.652832 119.527 0.695882C119.541 0.695882 119.556 0.695882 119.57 0.695882C121.062 0.882433 122.022 1.04028 122.094 1.05463C123.356 1.24118 124.159 1.37032 125.507 1.67168C125.579 1.67168 125.665 1.70037 125.737 1.71472C125.837 1.72907 125.923 1.75778 126.024 1.78648C126.124 1.81518 126.21 1.82953 126.311 1.85823C126.841 1.97303 127.4 2.10218 127.988 2.23133L128.247 2.28874L129.222 2.53269C129.222 2.53269 129.279 2.53268 129.308 2.54703H129.336C130.326 2.79098 131.574 3.1641 132.606 3.4798C132.621 3.4798 132.635 3.47979 132.649 3.49414C132.75 3.52284 132.85 3.55154 132.936 3.58024C133.123 3.63764 133.295 3.69505 133.467 3.75245C133.51 3.7668 133.553 3.78115 133.61 3.7955C134.671 4.1399 135.302 4.3408 136.263 4.7139C136.349 4.7426 136.45 4.78564 136.536 4.81434C136.55 4.81434 136.564 4.81436 136.593 4.82871C137.253 5.07266 137.927 5.33095 138.601 5.6036C138.873 5.7184 139.131 5.83319 139.404 5.93364C139.719 6.0628 140.021 6.19195 140.336 6.3211C140.666 6.45025 141.01 6.60811 141.369 6.78031C142.702 7.38302 143.979 8.0144 145.183 8.64581C145.212 8.66016 145.241 8.6745 145.27 8.68885C152.039 12.2333 156.857 16.0361 159.525 18.4182C159.754 18.6191 159.926 18.777 160.027 18.8631C160.729 19.4945 161.403 20.1259 162.092 20.7716C162.292 20.9582 162.493 21.1447 162.708 21.3313C163.511 22.0775 164.773 23.369 166.136 24.8757C168.775 27.7744 171.112 30.788 173.106 33.8876C173.421 34.3611 173.722 34.8347 173.995 35.2795C174.21 35.6096 174.439 35.9827 174.669 36.3701C179.043 43.4734 181.495 50.1175 182.858 55.4988C182.972 55.9436 183.087 56.3741 183.173 56.7759C183.188 56.8333 183.202 56.9194 183.216 56.9768C184.45 61.8845 185.081 66.4765 185.324 70.6524C185.324 70.7242 185.324 70.7959 185.324 70.8677L185.382 70.9394Z" fill="white"/>
</mask>
<g mask="url(#mask0_2425_552)">
<path d="M185.382 70.9394C185.41 71.5421 185.439 72.1305 185.453 72.7045C185.64 78.014 185.281 84.2563 183.761 91.173C183.101 94.5453 181.882 98.9938 179.688 104.16C179.172 105.423 178.541 106.815 177.867 108.178C177.709 108.508 177.537 108.838 177.379 109.168C177.322 109.297 177.25 109.412 177.179 109.541C176.992 109.914 176.806 110.273 176.605 110.632C175.601 112.512 174.568 114.277 173.493 115.927C173.149 116.472 172.79 117.003 172.446 117.534C172.403 117.606 172.36 117.663 172.303 117.735C172.044 118.108 171.786 118.481 171.528 118.84C169.406 121.853 167.197 124.451 165.017 126.718C164.601 127.149 164.185 127.579 163.77 127.995C163.583 128.182 163.411 128.354 163.225 128.541C163.053 128.713 162.88 128.885 162.708 129.057C162.622 129.129 162.551 129.201 162.479 129.272C162.393 129.359 162.307 129.445 162.221 129.516C162.063 129.66 161.905 129.818 161.747 129.961C158.808 132.702 156.355 134.596 154.29 136.089C154.233 136.132 154.175 136.175 154.118 136.218C154.147 136.203 154.175 136.175 154.19 136.16C153.975 136.318 153.759 136.462 153.559 136.605C152.713 137.222 151.694 137.882 150.647 138.528C150.088 138.901 149.529 139.26 149.027 139.547C147.679 140.365 145.843 141.398 144.423 142.101C144.423 142.101 144.395 142.101 144.38 142.116C143.692 142.46 143.018 142.79 142.344 143.106C142.344 143.106 142.33 143.106 142.315 143.106C142.301 143.106 142.272 143.12 142.258 143.135C141.856 143.321 141.469 143.508 141.096 143.666C140.58 143.895 140.078 144.11 139.576 144.311C138.056 144.971 136.464 145.588 134.786 146.162C134.772 146.162 134.757 146.162 134.743 146.177C133.424 146.636 132.076 147.066 130.656 147.454C123.557 149.492 116.257 150.396 108.8 150.195C104.957 150.152 100.496 149.707 95.7208 148.731L95.1902 148.631C95.1902 148.631 95.1902 148.631 95.1759 148.631C95.1615 148.631 95.1472 148.631 95.1328 148.631C93.8565 148.358 92.5801 148.071 91.189 147.698C90.2712 147.468 89.2099 147.153 88.3208 146.866C88.3065 146.866 88.2921 146.866 88.2634 146.851C88.1774 146.823 88.077 146.794 87.9909 146.765C86.5281 146.292 85.8685 146.091 84.7785 145.675C84.6495 145.631 84.5347 145.588 84.42 145.545C83.2297 145.115 82.3979 144.785 81.351 144.326C80.677 144.039 80.0173 143.752 79.3432 143.45C79.3002 143.436 79.2715 143.422 79.2285 143.393C78.368 143.005 77.5219 142.589 76.6614 142.159C76.6328 142.144 76.6041 142.13 76.561 142.116C75.8153 141.743 75.0839 141.355 74.3525 140.953C73.8362 140.666 73.3343 140.379 72.8467 140.092C72.6603 139.978 72.4595 139.877 72.273 139.762C67.2536 136.806 63.611 133.879 61.4025 131.913C61.173 131.712 61.0009 131.554 60.9005 131.468C59.8823 130.578 58.9501 129.717 58.2331 129C58.0036 128.77 57.7455 128.526 57.5017 128.268C57.4873 128.254 57.4586 128.225 57.4443 128.211L57.3869 128.153C56.1823 126.948 54.7195 125.427 52.9412 123.303C44.5803 113.43 39.0876 101.806 36.8074 89.1927C36.7357 88.8339 36.6783 88.4752 36.6066 88.1021C36.6066 88.059 36.5923 88.016 36.5779 87.9586C36.2337 86.007 35.9613 84.0123 35.8322 82.319C35.8322 82.2186 35.8178 82.1038 35.8035 81.989C35.6888 80.64 35.6027 79.1477 35.5597 77.6265C35.5454 77.3826 35.531 77.1386 35.5167 76.909V76.1341C35.5167 75.6032 35.5167 75.0866 35.5167 74.57C35.5167 73.3215 35.5454 72.1161 35.6171 71.0255C35.6744 70.0497 35.7461 69.1026 35.8465 68.1842C35.8465 68.0838 35.8609 67.9689 35.8752 67.8685C35.9039 67.5528 35.9326 67.2227 35.9756 66.9214C36.0329 66.4048 36.0903 65.9025 36.1477 65.429C36.1477 65.4003 36.1477 65.3572 36.1477 65.3285C36.1477 65.2855 36.1477 65.2424 36.162 65.1994C37.7396 52.6 42.4721 40.8473 50.0586 30.6732C50.245 30.4149 50.4458 30.1565 50.6322 29.8982C50.7183 29.7834 50.8043 29.6687 50.8904 29.5539C51.1772 29.1808 51.464 28.822 51.7365 28.4919C58.0466 20.4703 65.6044 14.3284 73.5207 9.86557C87.0875 2.00174 101.343 -0.896985 114.364 0.23667C114.364 0.23667 114.393 0.23667 114.407 0.23667C114.522 0.23667 114.651 0.236684 114.766 0.251034C115.383 0.279734 115.999 0.337121 116.659 0.394521C116.903 0.408871 117.147 0.437576 117.39 0.466276C117.734 0.494976 118.064 0.523687 118.38 0.566737C118.38 0.566737 118.394 0.566737 118.409 0.566737C118.81 0.609787 119.183 0.652832 119.527 0.695882C119.541 0.695882 119.556 0.695882 119.57 0.695882C121.062 0.882433 122.022 1.04028 122.094 1.05463C123.356 1.24118 124.159 1.37032 125.507 1.67168C125.579 1.67168 125.665 1.70037 125.737 1.71472C125.837 1.72907 125.923 1.75778 126.024 1.78648C126.124 1.81518 126.21 1.82953 126.311 1.85823C126.841 1.97303 127.4 2.10218 127.988 2.23133L128.247 2.28874L129.222 2.53269C129.222 2.53269 129.279 2.53268 129.308 2.54703H129.336C130.326 2.79098 131.574 3.1641 132.606 3.4798C132.621 3.4798 132.635 3.47979 132.649 3.49414C132.75 3.52284 132.85 3.55154 132.936 3.58024C133.123 3.63764 133.295 3.69505 133.467 3.75245C133.51 3.7668 133.553 3.78115 133.61 3.7955C134.671 4.1399 135.302 4.3408 136.263 4.7139C136.349 4.7426 136.45 4.78564 136.536 4.81434C136.55 4.81434 136.564 4.81436 136.593 4.82871C137.253 5.07266 137.927 5.33095 138.601 5.6036C138.873 5.7184 139.131 5.83319 139.404 5.93364C139.719 6.0628 140.021 6.19195 140.336 6.3211C140.666 6.45025 141.01 6.60811 141.369 6.78031C142.702 7.38302 143.979 8.0144 145.183 8.64581C145.212 8.66016 145.241 8.6745 145.27 8.68885C152.039 12.2333 156.857 16.0361 159.525 18.4182C159.754 18.6191 159.926 18.777 160.027 18.8631C160.729 19.4945 161.403 20.1259 162.092 20.7716C162.292 20.9582 162.493 21.1447 162.708 21.3313C163.511 22.0775 164.773 23.369 166.136 24.8757C168.775 27.7744 171.112 30.788 173.106 33.8876C173.421 34.3611 173.722 34.8347 173.995 35.2795C174.21 35.6096 174.439 35.9827 174.669 36.3701C179.043 43.4734 181.495 50.1175 182.858 55.4988C182.972 55.9436 183.087 56.3741 183.173 56.7759C183.188 56.8333 183.202 56.9194 183.216 56.9768C184.45 61.8845 185.081 66.4765 185.324 70.6524C185.324 70.7242 185.324 70.7959 185.324 70.8677L185.382 70.9394Z" fill="url(#paint0_radial_2425_552)"/>
<g style="mix-blend-mode:screen" opacity="0.2">
<path d="M235.375 31.1468C239.19 38.1353 242.173 44.9516 244.453 51.3804C244.51 51.5239 244.553 51.6674 244.611 51.8109C245.027 53.0163 245.428 54.193 245.815 55.3697C247.049 59.1007 248.124 63.2192 249.114 67.4955C134.428 87.9874 23.5848 136.046 -68.9873 204.596C-73.6339 198.354 -77.8071 191.796 -81.3924 184.865C-81.7653 184.176 -82.1238 183.473 -82.4824 182.77C-82.5254 182.683 -82.5684 182.597 -82.6114 182.497C-84.5188 178.752 -86.2971 174.848 -87.5591 171.476C-87.6452 171.261 -87.7169 171.031 -87.8029 170.816C-87.846 170.715 -87.889 170.586 -87.9177 170.472C6.87735 101.821 119.083 53.2029 235.375 31.1468ZM-84.0025 54.2934C-84.1316 54.5805 -84.2607 54.8675 -84.3897 55.1545C-84.6766 55.8146 -84.9634 56.446 -85.2502 57.1061C-94.2851 77.598 -98.5158 98.9796 -97.9565 120.375C-11.5941 55.5993 91.189 8.99033 198.231 -13.4532C197.371 -14.1707 196.439 -14.9169 195.464 -15.6774C189.139 -20.6856 182.098 -25.335 174.454 -29.5396C170.481 -31.7495 166.882 -33.5576 164.63 -34.5621C164.056 -34.8204 163.497 -35.0644 162.923 -35.3227C161.002 -36.198 159.109 -37.0303 157.158 -37.877C156.9 -37.9918 156.427 -38.1927 155.782 -38.451C148.711 -41.4214 136.392 -45.7695 120.172 -48.6395C50.9334 -27.6884 -15.6526 2.40364 -76.6168 40.2878C-78.7393 43.9758 -80.8475 47.6637 -82.6975 51.5669C-83.1277 52.428 -83.5579 53.3177 -83.9882 54.2791L-84.0025 54.2934ZM28.9771 265.153C29.2209 265.196 29.4647 265.254 29.7085 265.297C30.9992 265.555 32.2755 265.828 33.6236 266.072C35.5166 266.43 37.4097 266.732 39.3027 267.019C39.3888 267.019 39.4605 267.047 39.5465 267.062C41.7264 267.392 43.8919 267.679 46.0717 267.923C46.1721 267.923 46.2725 267.951 46.3729 267.951C48.0651 268.138 49.7574 268.31 51.4353 268.439C51.9659 268.497 52.4249 268.525 52.9125 268.554C105.487 237.156 162.192 211.714 221.034 193.302C222.411 191.437 223.816 189.471 225.293 187.29C225.566 186.888 225.867 186.472 226.125 186.084C226.268 185.869 226.412 185.64 226.555 185.41C226.699 185.209 226.813 185.023 226.957 184.807C227.258 184.348 227.545 183.889 227.831 183.415C228.133 182.942 228.434 182.454 228.749 181.952C229.452 180.818 230.169 179.67 230.843 178.522C231.79 176.943 232.693 175.193 233.625 173.514C161.446 194.364 92.0638 225.49 28.9771 265.153ZM-54.1299 221.586C-45.5539 229.981 -35.888 237.515 -25.1034 243.944C-19.8546 247.144 -15.6526 249.296 -12.2251 250.975L-12.053 251.061C-12.053 251.061 -11.9382 251.119 -11.8809 251.148C-11.1495 251.506 -10.4467 251.836 -9.78705 252.152C-8.63976 252.697 -7.29169 253.314 -5.84323 253.946C69.8207 202.472 156.255 164.358 246.217 143.264C246.719 141.599 247.307 140.035 247.751 138.313C247.981 137.466 248.196 136.605 248.411 135.73C248.483 135.429 248.569 135.142 248.64 134.84C248.827 134.065 249.013 133.291 249.185 132.501C249.917 129.301 250.548 126.072 250.978 123.145C252.957 111.22 253.115 101.362 252.67 94.0718C252.584 91.661 252.341 89.4081 252.154 87.1121C142.186 110.374 36.4058 157.026 -54.1156 221.586H-54.1299ZM-97.3685 130.449C-97.182 132.43 -97.0243 134.41 -96.7518 136.39C-96.7518 136.476 -96.7231 136.577 -96.7088 136.648C-96.7088 136.72 -96.6944 136.792 -96.6801 136.864C-96.551 137.868 -96.3933 138.916 -96.2212 140.021C-96.1208 140.681 -96.0061 141.355 -95.8913 142.03C-95.8483 142.259 -95.8196 142.475 -95.7766 142.704C-95.4898 144.383 -95.1456 146.091 -94.7871 147.842C-3.24749 79.2052 106.147 30.3432 219.829 7.94278C216.301 3.65211 212.214 -0.739023 207.51 -5.18754C97.7142 17.9304 -7.82233 65.056 -97.3685 130.435V130.449Z" fill="#1A2F4B"/>
</g>
</g>
<g filter="url(#filter0_d_2425_552)">
<path d="M56.2108 126.848C55.8523 126.475 55.4938 126.101 55.1496 125.714C32.4045 129.359 16.07 127.235 12.2409 118.553C5.15636 102.467 43.4616 69.9067 97.6424 45.9851C151.838 22.0636 201.687 15.6922 208.786 31.7786C211.669 38.3365 207.037 47.6067 196.855 57.9244C193.527 61.2966 189.584 64.7837 185.152 68.3138C185.195 68.8161 185.253 69.3327 185.281 69.8636C204.226 54.8104 214.179 40.4747 210.091 31.2046C202.677 14.3863 151.967 20.442 97.0544 44.6793C65.0307 58.8141 38.5569 76.0628 23.4987 91.317C12.7428 102.223 7.8238 112.125 10.9071 119.127C14.9944 128.412 32.3041 130.708 56.1965 126.848H56.2108Z" fill="#27BEFF"/>
</g>
<path d="M94.9034 38.9682C94.9034 38.9682 105.688 38.1359 111.095 32.8551C117.06 27.029 117.204 7.26893 117.204 7.26893C117.204 7.26893 117.347 27.029 123.313 32.8551C128.72 38.1359 139.504 38.9682 139.504 38.9682C139.504 38.9682 128.72 39.8005 123.313 45.0813C117.347 50.9074 117.204 70.6675 117.204 70.6675C117.204 70.6675 117.06 50.9074 111.095 45.0813C105.688 39.8005 94.9034 38.9682 94.9034 38.9682Z" fill="#27BEFF"/>
<path d="M80.1891 121.452C80.1891 121.452 87.3024 120.907 90.8733 117.42C94.8028 113.574 94.9032 100.544 94.9032 100.544C94.9032 100.544 95.0036 113.574 98.933 117.42C102.504 120.907 109.617 121.452 109.617 121.452C109.617 121.452 102.504 121.998 98.933 125.485C95.0036 129.33 94.9032 142.36 94.9032 142.36C94.9032 142.36 94.8028 129.33 90.8733 125.485C87.3024 121.998 80.1891 121.452 80.1891 121.452Z" fill="#27BEFF"/>
<path d="M21.1326 70.6532C21.1326 70.6532 23.3411 70.481 24.4597 69.4048C25.6787 68.2137 25.7074 64.1527 25.7074 64.1527C25.7074 64.1527 25.7361 68.1994 26.9551 69.4048C28.0594 70.481 30.2822 70.6532 30.2822 70.6532C30.2822 70.6532 28.0737 70.8254 26.9551 71.9017C25.7361 73.0927 25.7074 77.1538 25.7074 77.1538C25.7074 77.1538 25.6787 73.1071 24.4597 71.9017C23.3555 70.8254 21.1326 70.6532 21.1326 70.6532Z" fill="#27BEFF"/>
<path d="M144.208 61.11C144.208 61.11 147.463 60.8517 149.084 59.2732C150.877 57.5225 150.92 51.5672 150.92 51.5672C150.92 51.5672 150.963 57.5225 152.755 59.2732C154.376 60.8661 157.631 61.11 157.631 61.11C157.631 61.11 154.376 61.3684 152.755 62.9469C150.963 64.6976 150.92 70.6528 150.92 70.6528C150.92 70.6528 150.877 64.6976 149.084 62.9469C147.463 61.354 144.208 61.11 144.208 61.11Z" fill="#27BEFF"/>
<defs>
<filter id="filter0_d_2425_552" x="0" y="11.6829" width="221" height="126.955" filterUnits="userSpaceOnUse" color-interpolation-filters="sRGB">
<feFlood flood-opacity="0" result="BackgroundImageFix"/>
<feColorMatrix in="SourceAlpha" type="matrix" values="0 0 0 0 0 0 0 0 0 0 0 0 0 0 0 0 0 0 127 0" result="hardAlpha"/>
<feOffset/>
<feGaussianBlur stdDeviation="5"/>
<feColorMatrix type="matrix" values="0 0 0 0 1 0 0 0 0 1 0 0 0 0 1 0 0 0 0.75 0"/>
<feBlend mode="normal" in2="BackgroundImageFix" result="effect1_dropShadow_2425_552"/>
<feBlend mode="normal" in="SourceGraphic" in2="effect1_dropShadow_2425_552" result="shape"/>
</filter>
<radialGradient id="paint0_radial_2425_552" cx="0" cy="0" r="1" gradientUnits="userSpaceOnUse" gradientTransform="translate(146.13 69.6915) rotate(45.3978) scale(90.5429 90.5422)">
<stop offset="0.03" stop-color="#1D66D3"/>
<stop offset="0.59" stop-color="#008CDC"/>
<stop offset="1" stop-color="#0C4497"/>
</radialGradient>
</defs>
</svg>
