<svg width="142" height="116" viewBox="0 0 142 116" fill="none" xmlns="http://www.w3.org/2000/svg">
<g id="Quote mark" opacity="0.3" clip-path="url(#clip0_193_3291)">
<path id="&#226;&#128;&#156;" fill-rule="evenodd" clip-rule="evenodd" d="M141.377 18.1181C120.202 28.1832 109.615 40.0096 109.615 53.5975C118.64 54.604 126.103 58.1687 132.005 64.2916C137.906 70.4146 140.857 77.502 140.857 85.5541C140.857 94.1095 137.993 101.323 132.265 107.194C126.537 113.065 119.334 116.001 110.656 116.001C100.936 116.001 92.5185 112.185 85.4023 104.552C78.286 96.9192 74.728 87.6511 74.728 76.7472C74.728 44.0355 93.6465 18.4537 131.484 0.000976562L141.377 18.1181ZM66.6493 18.1181C45.3006 28.1832 34.6264 40.0096 34.6264 53.5975C43.8254 54.604 51.3755 58.1687 57.2767 64.2916C63.178 70.4146 66.1286 77.502 66.1286 85.5541C66.1286 94.1095 63.2214 101.323 57.4069 107.194C51.5924 113.065 44.3461 116.001 35.6678 116.001C25.948 116.001 17.5736 112.185 10.5441 104.552C3.51467 96.9192 0 87.6511 0 76.7472C0 44.0355 18.8317 18.4537 56.4957 0.000976562L66.6493 18.1181Z" fill="#98D6FA"/>
</g>
<defs>
<clipPath id="clip0_193_3291">
<rect width="142" height="116" fill="white" transform="translate(0 0.000976562)"/>
</clipPath>
</defs>
</svg>
