<svg width="16" height="13" viewBox="0 0 16 13" fill="none" xmlns="http://www.w3.org/2000/svg">
<g id="Quote mark" clip-path="url(#clip0_629_1618)">
<path id="&#226;&#128;&#156;" fill-rule="evenodd" clip-rule="evenodd" d="M15.9298 2.03135C13.5439 3.15933 12.351 4.4847 12.351 6.00748C13.3679 6.12028 14.2088 6.51977 14.8738 7.20597C15.5387 7.89216 15.8712 8.68644 15.8712 9.58883C15.8712 10.5476 15.5485 11.356 14.9031 12.014C14.2577 12.672 13.4461 13.001 12.4683 13.001C11.3731 13.001 10.4246 12.5733 9.62279 11.7179C8.82096 10.8625 8.42005 9.82383 8.42005 8.60184C8.42005 4.93588 10.5517 2.06896 14.8151 0.000976562L15.9298 2.03135ZM7.50978 2.03135C5.10429 3.15933 3.90156 4.4847 3.90156 6.00748C4.93808 6.12028 5.78878 6.51977 6.45372 7.20597C7.11865 7.89216 7.45111 8.68644 7.45111 9.58883C7.45111 10.5476 7.12354 11.356 6.46838 12.014C5.81323 12.672 4.99675 13.001 4.0189 13.001C2.92372 13.001 1.98012 12.5733 1.18807 11.7179C0.39602 10.8625 0 9.82383 0 8.60184C0 4.93588 2.12188 2.06896 6.36571 0.000976562L7.50978 2.03135Z" fill="#00C4D0"/>
</g>
<defs>
<clipPath id="clip0_629_1618">
<rect width="16" height="13" fill="white" transform="translate(0 0.000976562)"/>
</clipPath>
</defs>
</svg>
