<svg width="137" height="35" viewBox="0 0 137 35" fill="none" xmlns="http://www.w3.org/2000/svg">
<path d="M8.78 28.288V6.112H14.972V28.288H8.78ZM0.476 20.128V14.272H23.324V20.128H0.476Z" fill="#34D399"/>
<path d="M52.5961 34.576C50.2601 34.576 47.9401 34.272 45.6361 33.664C43.3321 33.024 41.3801 32.128 39.7801 30.976L42.8041 25.024C44.0841 25.952 45.5721 26.688 47.2681 27.232C48.9641 27.776 50.6761 28.048 52.4041 28.048C54.3561 28.048 55.8921 27.664 57.0121 26.896C58.1321 26.128 58.6921 25.072 58.6921 23.728C58.6921 22.448 58.1961 21.44 57.2041 20.704C56.2121 19.968 54.6121 19.6 52.4041 19.6H48.8521V14.464L58.2121 3.856L59.0761 6.64H41.4601V0.399998H64.9801V5.44L55.6681 16.048L51.7321 13.792H53.9881C58.1161 13.792 61.2361 14.72 63.3481 16.576C65.4601 18.432 66.5161 20.816 66.5161 23.728C66.5161 25.616 66.0201 27.392 65.0281 29.056C64.0361 30.688 62.5161 32.016 60.4681 33.04C58.4201 34.064 55.7961 34.576 52.5961 34.576ZM81.0616 34.576C78.7256 34.576 76.4056 34.272 74.1016 33.664C71.8296 33.024 69.8776 32.128 68.2456 30.976L71.3176 25.024C72.5976 25.952 74.0696 26.688 75.7336 27.232C77.4296 27.776 79.1416 28.048 80.8696 28.048C82.8216 28.048 84.3576 27.664 85.4776 26.896C86.5976 26.128 87.1576 25.056 87.1576 23.68C87.1576 22.816 86.9336 22.048 86.4856 21.376C86.0376 20.704 85.2376 20.192 84.0856 19.84C82.9656 19.488 81.3816 19.312 79.3336 19.312H70.7416L72.4696 0.399998H92.9656V6.64H75.2536L79.2856 3.088L78.0856 16.576L74.0536 13.024H81.1576C84.4856 13.024 87.1576 13.488 89.1736 14.416C91.2216 15.312 92.7096 16.544 93.6376 18.112C94.5656 19.68 95.0296 21.456 95.0296 23.44C95.0296 25.424 94.5336 27.264 93.5416 28.96C92.5496 30.624 91.0136 31.984 88.9336 33.04C86.8856 34.064 84.2616 34.576 81.0616 34.576ZM102.564 34L125.508 0.399998H131.22L108.276 34H102.564ZM105.492 18.544C103.86 18.544 102.42 18.176 101.172 17.44C99.9238 16.672 98.9318 15.6 98.1958 14.224C97.4918 12.816 97.1398 11.168 97.1398 9.28C97.1398 7.392 97.4918 5.76 98.1958 4.384C98.9318 3.008 99.9238 1.936 101.172 1.168C102.42 0.4 103.86 0.0159998 105.492 0.0159998C107.124 0.0159998 108.564 0.4 109.812 1.168C111.06 1.936 112.036 3.008 112.74 4.384C113.444 5.76 113.796 7.392 113.796 9.28C113.796 11.168 113.444 12.816 112.74 14.224C112.036 15.6 111.06 16.672 109.812 17.44C108.564 18.176 107.124 18.544 105.492 18.544ZM105.492 14.608C106.548 14.608 107.396 14.176 108.036 13.312C108.676 12.416 108.996 11.072 108.996 9.28C108.996 7.488 108.676 6.16 108.036 5.296C107.396 4.4 106.548 3.952 105.492 3.952C104.468 3.952 103.62 4.4 102.948 5.296C102.308 6.16 101.988 7.488 101.988 9.28C101.988 11.04 102.308 12.368 102.948 13.264C103.62 14.16 104.468 14.608 105.492 14.608ZM128.292 34.384C126.692 34.384 125.252 34.016 123.972 33.28C122.724 32.512 121.748 31.44 121.044 30.064C120.34 28.656 119.988 27.008 119.988 25.12C119.988 23.232 120.34 21.6 121.044 20.224C121.748 18.848 122.724 17.776 123.972 17.008C125.252 16.24 126.692 15.856 128.292 15.856C129.956 15.856 131.412 16.24 132.66 17.008C133.908 17.776 134.884 18.848 135.588 20.224C136.292 21.6 136.644 23.232 136.644 25.12C136.644 27.008 136.292 28.656 135.588 30.064C134.884 31.44 133.908 32.512 132.66 33.28C131.412 34.016 129.956 34.384 128.292 34.384ZM128.292 30.448C129.348 30.448 130.196 30.016 130.836 29.152C131.476 28.256 131.796 26.912 131.796 25.12C131.796 23.36 131.476 22.032 130.836 21.136C130.196 20.24 129.348 19.792 128.292 19.792C127.268 19.792 126.42 20.24 125.748 21.136C125.108 22 124.788 23.328 124.788 25.12C124.788 26.912 125.108 28.256 125.748 29.152C126.42 30.016 127.268 30.448 128.292 30.448Z" fill="#007E86"/>
</svg>
