<svg width="102" height="36" viewBox="0 0 102 36" fill="none" xmlns="http://www.w3.org/2000/svg">
<path d="M2.084 35V29.96L15.044 17.72C16.068 16.792 16.82 15.96 17.3 15.224C17.78 14.488 18.1 13.816 18.26 13.208C18.452 12.6 18.548 12.04 18.548 11.528C18.548 10.184 18.084 9.16 17.156 8.456C16.26 7.72 14.932 7.352 13.172 7.352C11.764 7.352 10.452 7.624 9.236 8.168C8.052 8.712 7.044 9.56 6.212 10.712L0.548 7.064C1.828 5.144 3.62 3.624 5.924 2.504C8.228 1.384 10.884 0.823999 13.892 0.823999C16.388 0.823999 18.564 1.24 20.42 2.072C22.308 2.872 23.764 4.008 24.788 5.48C25.844 6.952 26.372 8.712 26.372 10.76C26.372 11.848 26.228 12.936 25.94 14.024C25.684 15.08 25.14 16.2 24.308 17.384C23.508 18.568 22.324 19.896 20.756 21.368L10.004 31.496L8.516 28.664H27.476V35H2.084ZM44.9023 24.488V18.488H58.4863V24.488H44.9023ZM87.2836 35.576C84.9476 35.576 82.6276 35.272 80.3236 34.664C78.0196 34.024 76.0676 33.128 74.4676 31.976L77.4916 26.024C78.7716 26.952 80.2596 27.688 81.9556 28.232C83.6516 28.776 85.3636 29.048 87.0916 29.048C89.0436 29.048 90.5796 28.664 91.6996 27.896C92.8196 27.128 93.3796 26.072 93.3796 24.728C93.3796 23.448 92.8836 22.44 91.8916 21.704C90.8996 20.968 89.2996 20.6 87.0916 20.6H83.5396V15.464L92.8996 4.856L93.7636 7.64H76.1476V1.4H99.6676V6.44L90.3556 17.048L86.4196 14.792H88.6756C92.8036 14.792 95.9236 15.72 98.0356 17.576C100.148 19.432 101.204 21.816 101.204 24.728C101.204 26.616 100.708 28.392 99.7156 30.056C98.7236 31.688 97.2036 33.016 95.1556 34.04C93.1076 35.064 90.4836 35.576 87.2836 35.576Z" fill="#007E86"/>
</svg>
