<svg width="125" height="36" viewBox="0 0 125 36" fill="none" xmlns="http://www.w3.org/2000/svg">
<path d="M0.976 30.008V24.008L21.568 16.52V19.88L0.976 12.392V6.392L23.824 15.08V21.32L0.976 30.008Z" fill="#34D399"/>
<path d="M41.9121 35V29.96L54.8721 17.72C55.8961 16.792 56.6481 15.96 57.1281 15.224C57.6081 14.488 57.9281 13.816 58.0881 13.208C58.2801 12.6 58.3761 12.04 58.3761 11.528C58.3761 10.184 57.9121 9.16 56.9841 8.456C56.0881 7.72 54.7601 7.352 53.0001 7.352C51.5921 7.352 50.2801 7.624 49.0641 8.168C47.8801 8.712 46.8721 9.56 46.0401 10.712L40.3761 7.064C41.6561 5.144 43.4481 3.624 45.7521 2.504C48.0561 1.384 50.7121 0.823999 53.7201 0.823999C56.2161 0.823999 58.3921 1.24 60.2481 2.072C62.1361 2.872 63.5921 4.008 64.6161 5.48C65.6721 6.952 66.2001 8.712 66.2001 10.76C66.2001 11.848 66.0561 12.936 65.7681 14.024C65.5121 15.08 64.9681 16.2 64.1361 17.384C63.3361 18.568 62.1521 19.896 60.5841 21.368L49.8321 31.496L48.3441 28.664H67.3041V35H41.9121ZM81.9366 35.576C79.6006 35.576 77.2806 35.272 74.9766 34.664C72.7046 34.024 70.7526 33.128 69.1206 31.976L72.1926 26.024C73.4726 26.952 74.9446 27.688 76.6086 28.232C78.3046 28.776 80.0166 29.048 81.7446 29.048C83.6966 29.048 85.2326 28.664 86.3526 27.896C87.4726 27.128 88.0326 26.056 88.0326 24.68C88.0326 23.816 87.8086 23.048 87.3606 22.376C86.9126 21.704 86.1126 21.192 84.9606 20.84C83.8406 20.488 82.2566 20.312 80.2086 20.312H71.6166L73.3446 1.4H93.8406V7.64H76.1286L80.1606 4.088L78.9606 17.576L74.9286 14.024H82.0326C85.3606 14.024 88.0326 14.488 90.0486 15.416C92.0966 16.312 93.5846 17.544 94.5126 19.112C95.4406 20.68 95.9046 22.456 95.9046 24.44C95.9046 26.424 95.4086 28.264 94.4166 29.96C93.4246 31.624 91.8886 32.984 89.8086 34.04C87.7606 35.064 85.1366 35.576 81.9366 35.576ZM96.817 35L108.385 19.832L108.241 23.96L97.153 9.176H105.553L112.561 18.824L109.393 18.92L116.641 9.176H124.609L113.473 23.816V19.784L124.993 35H116.497L109.153 24.728L112.273 25.16L104.977 35H96.817Z" fill="#007E86"/>
</svg>
