<svg width="106" height="100" viewBox="0 0 106 100" fill="none" xmlns="http://www.w3.org/2000/svg">
<g clip-path="url(#clip0_3142_549)">
<path fill-rule="evenodd" clip-rule="evenodd" d="M102.671 1.51293C95.3896 51.6156 50.6695 75.952 3.98389 81.4855C3.18221 81.5821 2.60581 82.3137 2.70187 83.1196C2.79792 83.9255 3.52567 84.5048 4.32735 84.4083C52.3207 78.7225 98.0828 53.4427 105.568 1.93627C105.686 1.13409 105.132 0.387622 104.33 0.268781C103.532 0.14994 102.789 0.707044 102.671 1.51293Z" fill="#1D332B"/>
<path fill-rule="evenodd" clip-rule="evenodd" d="M5.03183 82.8439C7.10806 81.3175 9.73476 79.4309 10.0266 79.2081C17.9362 73.1694 24.49 66.221 30.2606 58.0692C30.7298 57.4082 30.5746 56.4871 29.917 56.0155C29.2594 55.5438 28.3433 55.6999 27.8741 56.3609C22.2808 64.2676 15.9266 71.0081 8.25339 76.8647C7.80638 77.2064 1.899 81.4438 0.768531 82.3908C0.303042 82.777 0.159063 83.141 0.133202 83.2301C-0.021961 83.698 0.0703691 84.0657 0.195977 84.3331C0.340057 84.6339 0.698316 85.0722 1.39286 85.295C2.12064 85.5252 3.73884 85.6293 4.14522 85.6887C10.2742 86.6023 17.1937 87.0851 23.4926 88.838C29.4996 90.5092 34.9487 93.339 38.4436 99.01C38.8684 99.7007 39.7735 99.9124 40.4607 99.4853C41.1478 99.0583 41.3585 98.1484 40.9337 97.4576C37.025 91.1182 30.9883 87.8686 24.2757 86.0006C18.0138 84.2588 11.1571 83.7315 5.03183 82.8439Z" fill="#1D332B"/>
</g>
<defs>
<clipPath id="clip0_3142_549">
<rect width="106" height="100" fill="white"/>
</clipPath>
</defs>
</svg>
