<svg width="24" height="24" viewBox="0 0 24 24" fill="none" xmlns="http://www.w3.org/2000/svg">
<mask id="mask0_2907_446" style="mask-type:alpha" maskUnits="userSpaceOnUse" x="0" y="0" width="24" height="24">
<rect width="24" height="24" fill="#D9D9D9"/>
</mask>
<g mask="url(#mask0_2907_446)">
<path d="M13.9349 10.0095L14.2017 10.1429C15.2801 10.6988 16.1584 11.5771 16.7142 12.6554L16.8477 12.9222C17.3813 13.9784 18.8932 13.9784 19.438 12.9222L19.5714 12.6554C20.1273 11.5771 21.0055 10.6988 22.0839 10.1429L22.3507 10.0095C23.4069 9.47589 23.4069 7.96394 22.3507 7.41919L22.0839 7.28578C21.0055 6.72992 20.1273 5.85165 19.5714 4.77328L19.438 4.50646C18.9044 3.45032 17.3924 3.45032 16.8477 4.50646L16.7142 4.77328C16.1584 5.85165 15.2801 6.72992 14.2017 7.28578L13.9349 7.41919C12.8788 7.95282 12.8788 9.46477 13.9349 10.0095Z" fill="white"/>
<path d="M3.63369 6.03613L3.84714 6.14286C4.70984 6.58755 5.41244 7.29016 5.85714 8.15286L5.96386 8.36631C6.39077 9.21123 7.60033 9.21123 8.03613 8.36631L8.14285 8.15286C8.58755 7.29016 9.29016 6.58755 10.1529 6.14286L10.3663 6.03613C11.2112 5.60923 11.2112 4.39967 10.3663 3.96387L10.1529 3.85714C9.29016 3.41245 8.58755 2.70984 8.14285 1.84714L8.03613 1.63369C7.60922 0.788771 6.39966 0.788771 5.96386 1.63369L5.85714 1.84714C5.41244 2.70984 4.70984 3.41245 3.84714 3.85714L3.63369 3.96387C2.78877 4.39077 2.78877 5.60033 3.63369 6.03613Z" fill="white"/>
<path d="M4.95053 18.5542L5.27071 18.7143C6.56476 19.3813 7.61867 20.4352 8.2857 21.7293L8.44579 22.0495C9.08615 23.3168 10.9005 23.3168 11.5542 22.0495L11.7143 21.7293C12.3813 20.4352 13.4352 19.3813 14.7293 18.7143L15.0495 18.5542C16.3168 17.9138 16.3168 16.0995 15.0495 15.4458L14.7293 15.2857C13.4352 14.6187 12.3813 13.5648 11.7143 12.2707L11.5542 11.9505C10.9138 10.6832 9.09949 10.6832 8.44579 11.9505L8.2857 12.2707C7.61867 13.5648 6.56476 14.6187 5.27071 15.2857L4.95053 15.4458C3.68316 16.0862 3.68316 17.9005 4.95053 18.5542Z" fill="white"/>
</g>
</svg>
