<svg width="92" height="101" viewBox="0 0 92 101" fill="none" xmlns="http://www.w3.org/2000/svg">
<path fill-rule="evenodd" clip-rule="evenodd" d="M21.3898 10.6416C21.2451 9.7834 21.1362 8.93492 21.0658 8.08635C20.9597 6.8135 21.0253 5.53091 20.9877 4.25805C20.9713 3.71805 20.9067 2.31021 20.9327 2.10771C21.169 0.343068 22.5932 0.0730353 23.0098 0.024821C23.2113 -0.00410755 25.2807 -0.235433 25.7271 2.05957C26.2748 4.86564 26.4504 7.69096 26.2565 10.4585C26.7088 12.8113 27.4822 15.1545 28.5033 17.2759C32.5668 25.7134 40.31 26.5331 48.6993 26.4559C49.9895 26.4366 51.0609 27.4491 51.1284 28.7316C51.1959 30.0238 50.2355 31.1423 48.951 31.258C44.2617 31.7113 35.9418 35.472 33.0653 39.387C32.4636 40.2067 32.1136 42.1835 31.6507 44.1217C31.0047 46.8121 30.2362 49.4734 29.375 50.592C29.2458 50.7656 27.675 52.5399 27.2063 52.8003C26.0801 53.4174 25.1785 53.0606 24.6664 52.7327C24.1544 52.4049 23.5749 51.7588 23.3434 50.6884C23.1014 49.5699 23.3058 47.2748 23.2682 46.783C23.1313 44.9991 22.7745 41.4988 22.0465 38.4902C21.654 36.8702 21.2355 35.3755 20.5432 34.633C17.9801 31.8848 13.8819 32.2899 10.4307 32.7431C10.0344 32.7913 9.63805 32.8492 9.2427 32.8974C7.83773 33.312 6.34594 33.6206 4.76934 33.8038C2.38852 34.0834 1.99704 31.8945 1.97583 31.7498C1.93147 31.4316 1.76656 29.7924 3.5611 29.1367C3.75685 29.0692 5.20136 28.7509 5.75775 28.6256C6.53304 28.452 7.31699 28.317 8.10385 28.1917C16.2318 25.6653 20.6463 18.568 21.3898 10.6416ZM24.1795 19.4071C27.2478 25.7521 31.9044 28.8184 37.4239 30.207H37.423C33.9766 32.0102 30.8417 34.2667 29.1802 36.5328C28.5496 37.391 27.971 39.117 27.4494 41.0552C27.1668 39.252 26.785 37.333 26.2807 35.6937C25.7069 33.823 24.9345 32.2706 24.0724 31.3449C22.4081 29.561 20.3194 28.5678 18.0736 28.076C20.762 25.6942 22.8005 22.7242 24.1795 19.4071Z" fill="#00C4D0"/>
<path fill-rule="evenodd" clip-rule="evenodd" d="M67.2404 68.0797C67.1306 67.4281 67.0478 66.7839 66.9944 66.1396C66.9139 65.1732 66.9636 64.1994 66.9351 63.2329C66.9226 62.8229 66.8736 61.754 66.8934 61.6003C67.0727 60.2605 68.1541 60.0554 68.4704 60.0188C68.6234 59.9969 70.1946 59.8212 70.5336 61.5637C70.9494 63.6943 71.0827 65.8394 70.9355 67.9407C71.2789 69.7271 71.8661 71.5062 72.6414 73.1169C75.7267 79.5231 81.6058 80.1455 87.9754 80.0869C88.955 80.0722 89.7684 80.841 89.8197 81.8147C89.8709 82.7958 89.1417 83.6451 88.1665 83.7329C84.6061 84.0771 78.2891 86.9325 76.1052 89.905C75.6483 90.5273 75.3825 92.0282 75.0311 93.4998C74.5406 95.5425 73.9571 97.5632 73.3033 98.4124C73.2052 98.5442 72.0125 99.8914 71.6567 100.089C70.8015 100.558 70.117 100.287 69.7282 100.038C69.3395 99.7889 68.8994 99.2983 68.7237 98.4856C68.5399 97.6364 68.6952 95.8938 68.6666 95.5204C68.5626 94.166 68.2918 91.5083 67.739 89.224C67.441 87.994 67.1233 86.8592 66.5976 86.2954C64.6515 84.2088 61.5399 84.5164 58.9196 84.8605C58.6187 84.8971 58.3178 84.941 58.0176 84.9776C56.9509 85.2925 55.8182 85.5267 54.6212 85.6658C52.8135 85.8781 52.5163 84.2162 52.5002 84.1063C52.4665 83.8647 52.3413 82.6201 53.7038 82.1223C53.8524 82.071 54.9492 81.8294 55.3716 81.7342C55.9603 81.6024 56.5555 81.5 57.1529 81.4048C63.3242 79.4866 66.6759 74.0979 67.2404 68.0797ZM69.3585 74.735C71.6882 79.5525 75.2237 81.8807 79.4145 82.9349H79.4137C76.7971 84.304 74.4168 86.0173 73.1554 87.7378C72.6765 88.3894 72.2373 89.6999 71.8412 91.1715C71.6267 89.8024 71.3367 88.3454 70.9538 87.1008C70.5182 85.6804 69.9317 84.5018 69.2772 83.7989C68.0135 82.4444 66.4277 81.6903 64.7225 81.3169C66.7638 79.5085 68.3115 77.2535 69.3585 74.735Z" fill="#00C4D0"/>
</svg>
