<svg width="1440" height="903" viewBox="0 0 1440 903" fill="none" xmlns="http://www.w3.org/2000/svg">
<g style="mix-blend-mode:color-dodge" opacity="0.9" clip-path="url(#clip0_1659_937)">
<g style="mix-blend-mode:screen">
<path d="M929.977 760.892C929.977 763.404 932.022 765.45 934.536 765.45C937.05 765.45 939.095 763.404 939.095 760.892C939.095 758.379 937.05 756.334 934.536 756.334C932.022 756.334 929.977 758.379 929.977 760.892Z" fill="#85A5F8"/>
</g>
<g style="mix-blend-mode:color-dodge">
<path d="M932.256 760.892C932.256 762.178 933.308 763.171 934.536 763.171C935.763 763.171 936.815 762.119 936.815 760.892C936.815 759.665 935.763 758.613 934.536 758.613C933.308 758.613 932.256 759.665 932.256 760.892Z" fill="#85A5F8"/>
</g>
<g style="mix-blend-mode:screen">
<path d="M1415.38 118.537C1415.38 123.621 1419.47 127.711 1424.56 127.711C1429.65 127.711 1433.74 123.621 1433.74 118.537C1433.74 113.454 1429.65 109.363 1424.56 109.363C1419.47 109.363 1415.38 113.454 1415.38 118.537Z" fill="#85A5F8"/>
</g>
<g style="mix-blend-mode:color-dodge">
<path d="M1419.94 118.536C1419.94 121.049 1421.99 123.094 1424.5 123.094C1427.01 123.094 1429.06 121.049 1429.06 118.536C1429.06 116.024 1427.01 113.979 1424.5 113.979C1421.99 113.979 1419.94 116.024 1419.94 118.536Z" fill="#85A5F8"/>
</g>
<g style="mix-blend-mode:screen">
<path d="M1191.39 49.2345C1191.39 54.3182 1195.48 58.4085 1200.56 58.4085C1205.65 58.4085 1209.74 54.3182 1209.74 49.2345C1209.74 44.1509 1205.65 40.0605 1200.56 40.0605C1195.48 40.0605 1191.39 44.1509 1191.39 49.2345Z" fill="#85A5F8"/>
</g>
<g style="mix-blend-mode:color-dodge">
<path d="M1195.95 49.2336C1195.95 51.7462 1197.99 53.7913 1200.5 53.7913C1203.02 53.7913 1205.06 51.7462 1205.06 49.2336C1205.06 46.7209 1203.02 44.6758 1200.5 44.6758C1197.99 44.6758 1195.95 46.7209 1195.95 49.2336Z" fill="#85A5F8"/>
</g>
<g style="mix-blend-mode:screen">
<path d="M792.199 413.623C794.556 413.623 796.466 411.713 796.466 409.357C796.466 407.002 794.556 405.092 792.199 405.092C789.842 405.092 787.932 407.002 787.932 409.357C787.932 411.713 789.842 413.623 792.199 413.623Z" fill="#85A5F8"/>
</g>
<g style="mix-blend-mode:color-dodge">
<path d="M790.094 409.357C790.094 410.526 791.029 411.519 792.257 411.519C793.484 411.519 794.419 410.584 794.419 409.357C794.419 408.13 793.484 407.195 792.257 407.195C791.029 407.195 790.094 408.13 790.094 409.357Z" fill="#85A5F8"/>
</g>
<g style="mix-blend-mode:screen">
<path d="M344.554 159.264C345.716 159.264 346.658 158.322 346.658 157.16C346.658 155.998 345.716 155.057 344.554 155.057C343.391 155.057 342.449 155.998 342.449 157.16C342.449 158.322 343.391 159.264 344.554 159.264Z" fill="#85A5F8"/>
</g>
<g style="mix-blend-mode:color-dodge">
<path d="M343.502 157.161C343.502 157.745 343.97 158.213 344.554 158.213C345.139 158.213 345.606 157.745 345.606 157.161C345.606 156.577 345.139 156.109 344.554 156.109C343.97 156.109 343.502 156.577 343.502 157.161Z" fill="#85A5F8"/>
</g>
<g style="mix-blend-mode:screen">
<path d="M77.3001 117.836C81.9813 117.836 85.776 114.043 85.776 109.363C85.776 104.684 81.9813 100.891 77.3001 100.891C72.619 100.891 68.8242 104.684 68.8242 109.363C68.8242 114.043 72.619 117.836 77.3001 117.836Z" fill="#85A5F8"/>
</g>
<g style="mix-blend-mode:color-dodge">
<path d="M73.0332 109.363C73.0332 111.701 74.9038 113.629 77.3004 113.629C79.697 113.629 81.5091 111.759 81.5091 109.363C81.5091 106.968 79.6386 105.098 77.3004 105.098C74.9622 105.098 73.0332 106.968 73.0332 109.363Z" fill="#85A5F8"/>
</g>
<g style="mix-blend-mode:color-dodge">
<path d="M539.092 810.56C539.092 812.313 540.495 813.715 542.248 813.715C544.002 813.715 545.405 812.313 545.405 810.56C545.405 808.807 544.002 807.404 542.248 807.404C540.495 807.404 539.092 808.807 539.092 810.56Z" fill="#85A5F8"/>
</g>
<g style="mix-blend-mode:color-dodge">
<path d="M590.998 532.594C590.998 534.23 592.284 535.515 593.921 535.515C595.558 535.515 596.844 534.23 596.844 532.594C596.844 530.957 595.558 529.672 593.921 529.672C592.284 529.672 590.998 530.957 590.998 532.594Z" fill="#85A5F8"/>
</g>
<g style="mix-blend-mode:color-dodge">
<path d="M78.1758 842.581C78.1758 846.788 81.5661 850.177 85.7749 850.177C89.9836 850.177 93.374 846.788 93.374 842.581C93.374 838.374 89.9836 834.984 85.7749 834.984C81.5661 834.984 78.1758 838.374 78.1758 842.581Z" fill="#85A5F8"/>
</g>
<g style="mix-blend-mode:color-dodge">
<path d="M1285.03 893.184C1285.03 898.618 1289.41 902.942 1294.79 902.942C1300.17 902.942 1304.55 898.56 1304.55 893.184C1304.55 887.808 1300.17 883.426 1294.79 883.426C1289.41 883.426 1285.03 887.808 1285.03 893.184Z" fill="#85A5F8"/>
</g>
<g style="mix-blend-mode:color-dodge">
<path d="M817.393 668.567C817.393 670.379 818.854 671.839 820.666 671.839C822.478 671.839 823.94 670.379 823.94 668.567C823.94 666.756 822.478 665.295 820.666 665.295C818.854 665.295 817.393 666.756 817.393 668.567Z" fill="#85A5F8"/>
</g>
<g style="mix-blend-mode:color-dodge">
<path d="M625.254 845.852C625.254 847.664 626.715 849.125 628.527 849.125C630.339 849.125 631.801 847.664 631.801 845.852C631.801 844.041 630.339 842.58 628.527 842.58C626.715 842.58 625.254 844.041 625.254 845.852Z" fill="#85A5F8"/>
</g>
<g style="mix-blend-mode:color-dodge">
<path d="M1346 757.272C1346 759.084 1347.46 760.544 1349.27 760.544C1351.09 760.544 1352.55 759.084 1352.55 757.272C1352.55 755.461 1351.09 754 1349.27 754C1347.46 754 1346 755.461 1346 757.272Z" fill="#85A5F8"/>
</g>
<g style="mix-blend-mode:color-dodge">
<path d="M374 432.74C374 434.843 375.695 436.479 377.741 436.479C379.787 436.479 381.482 434.785 381.482 432.74C381.482 430.695 379.787 429 377.741 429C375.695 429 374 430.695 374 432.74Z" fill="#85A5F8"/>
</g>
<g style="mix-blend-mode:color-dodge">
<path d="M299.135 605.226C299.135 607.33 300.83 608.966 302.876 608.966C304.922 608.966 306.617 607.271 306.617 605.226C306.617 603.181 304.922 601.486 302.876 601.486C300.83 601.486 299.135 603.181 299.135 605.226Z" fill="#85A5F8"/>
</g>
<g style="mix-blend-mode:color-dodge">
<path d="M381.439 279.988C381.439 282.091 383.135 283.727 385.181 283.727C387.226 283.727 388.922 282.033 388.922 279.988C388.922 277.943 387.226 276.248 385.181 276.248C383.135 276.248 381.439 277.943 381.439 279.988Z" fill="#85A5F8"/>
</g>
<g style="mix-blend-mode:color-dodge">
<path d="M237 519.636C237 520.513 237.701 521.272 238.637 521.272C239.572 521.272 240.273 520.571 240.273 519.636C240.273 518.701 239.572 518 238.637 518C237.701 518 237 518.701 237 519.636Z" fill="#85A5F8"/>
</g>
<g style="mix-blend-mode:color-dodge">
<path d="M70 758.636C70 759.513 70.7014 760.272 71.6367 760.272C72.572 760.272 73.2734 759.571 73.2734 758.636C73.2734 757.701 72.572 757 71.6367 757C70.7014 757 70 757.701 70 758.636Z" fill="#85A5F8"/>
</g>
<g style="mix-blend-mode:color-dodge">
<path d="M96 516.636C96 517.513 96.7014 518.272 97.6367 518.272C98.572 518.272 99.2735 517.571 99.2735 516.636C99.2735 515.701 98.572 515 97.6367 515C96.7014 515 96 515.701 96 516.636Z" fill="#85A5F8"/>
</g>
<g style="mix-blend-mode:color-dodge">
<path d="M1304.61 497.592C1302.51 497.592 1300.87 499.286 1300.87 501.332C1300.87 503.377 1302.57 505.071 1304.61 505.071C1306.66 505.071 1308.35 503.377 1308.35 501.332C1308.35 499.286 1306.66 497.592 1304.61 497.592Z" fill="#85A5F8"/>
</g>
<g style="mix-blend-mode:color-dodge">
<path d="M1204.3 596.051C1202.2 596.051 1200.56 597.745 1200.56 599.79C1200.56 601.836 1202.26 603.53 1204.3 603.53C1206.35 603.53 1208.04 601.836 1208.04 599.79C1208.04 597.745 1206.35 596.051 1204.3 596.051Z" fill="#85A5F8"/>
</g>
<g style="mix-blend-mode:color-dodge">
<path d="M1416.55 294.771C1416.55 298.336 1419.48 301.257 1423.04 301.257C1426.61 301.257 1429.53 298.336 1429.53 294.771C1429.53 291.207 1426.61 288.285 1423.04 288.285C1419.48 288.285 1416.55 291.207 1416.55 294.771Z" fill="#85A5F8"/>
</g>
<g style="mix-blend-mode:color-dodge">
<path d="M1390.6 240.252C1388.49 240.252 1386.86 241.947 1386.86 243.992C1386.86 246.037 1388.55 247.731 1390.6 247.731C1392.64 247.731 1394.34 246.037 1394.34 243.992C1394.34 241.947 1392.64 240.252 1390.6 240.252Z" fill="#85A5F8"/>
</g>
<g style="mix-blend-mode:color-dodge">
<path d="M1074.24 619.365C1073.37 619.365 1072.61 620.066 1072.61 621.001C1072.61 621.936 1073.31 622.638 1074.24 622.638C1075.18 622.638 1075.88 621.936 1075.88 621.001C1075.88 620.066 1075.18 619.365 1074.24 619.365Z" fill="#85A5F8"/>
</g>
<g style="mix-blend-mode:color-dodge">
<path d="M1117.5 601.953C1116.62 601.953 1115.86 602.654 1115.86 603.589C1115.86 604.524 1116.56 605.225 1117.5 605.225C1118.44 605.225 1119.14 604.524 1119.14 603.589C1119.14 602.654 1118.44 601.953 1117.5 601.953Z" fill="#85A5F8"/>
</g>
<g style="mix-blend-mode:color-dodge">
<path d="M1106.8 397.555C1105.93 397.555 1105.17 398.256 1105.17 399.191C1105.17 400.126 1105.87 400.827 1106.8 400.827C1107.74 400.827 1108.44 400.126 1108.44 399.191C1108.44 398.256 1107.74 397.555 1106.8 397.555Z" fill="#85A5F8"/>
</g>
<g style="mix-blend-mode:color-dodge">
<path d="M995.68 126.892C995.68 128.996 997.375 130.632 999.421 130.632C1001.47 130.632 1003.16 128.937 1003.16 126.892C1003.16 124.847 1001.47 123.152 999.421 123.152C997.375 123.152 995.68 124.847 995.68 126.892Z" fill="#85A5F8"/>
</g>
<g style="mix-blend-mode:color-dodge">
<path d="M1019 256.906C1019 257.782 1019.71 258.542 1020.64 258.542C1021.58 258.542 1022.28 257.841 1022.28 256.906C1022.28 255.971 1021.58 255.27 1020.64 255.27C1019.71 255.27 1019 255.971 1019 256.906Z" fill="#85A5F8"/>
</g>
<g style="mix-blend-mode:color-dodge">
<path d="M1001.58 213.665C1001.58 214.542 1002.29 215.302 1003.22 215.302C1004.16 215.302 1004.86 214.6 1004.86 213.665C1004.86 212.731 1004.16 212.029 1003.22 212.029C1002.29 212.029 1001.58 212.731 1001.58 213.665Z" fill="#85A5F8"/>
</g>
<g style="mix-blend-mode:color-dodge">
<path d="M956.982 195.435C956.982 196.311 957.684 197.071 958.619 197.071C959.554 197.071 960.256 196.37 960.256 195.435C960.256 194.5 959.554 193.799 958.619 193.799C957.684 193.799 956.982 194.5 956.982 195.435Z" fill="#85A5F8"/>
</g>
<g style="mix-blend-mode:color-dodge">
<path d="M717.727 136.534C719.794 136.534 721.469 134.86 721.469 132.794C721.469 130.729 719.794 129.055 717.727 129.055C715.661 129.055 713.986 130.729 713.986 132.794C713.986 134.86 715.661 136.534 717.727 136.534Z" fill="#85A5F8"/>
</g>
<g style="mix-blend-mode:color-dodge">
<path d="M768.116 23.3486C770.182 23.3486 771.857 21.6742 771.857 19.6089C771.857 17.5435 770.182 15.8691 768.116 15.8691C766.05 15.8691 764.375 17.5435 764.375 19.6089C764.375 21.6742 766.05 23.3486 768.116 23.3486Z" fill="#85A5F8"/>
</g>
<g style="mix-blend-mode:color-dodge">
<path d="M1433.5 623.924C1433.5 625.151 1434.5 626.144 1435.73 626.144C1436.95 626.144 1437.95 625.151 1437.95 623.924C1437.95 622.697 1436.95 621.703 1435.73 621.703C1434.5 621.703 1433.5 622.697 1433.5 623.924Z" fill="#85A5F8"/>
</g>
</g>
<defs>
<clipPath id="clip0_1659_937">
<rect width="1836" height="933" fill="white" transform="translate(-248 -30)"/>
</clipPath>
</defs>
</svg>
