<svg width="1440" height="800" viewBox="0 0 1440 800" fill="none" xmlns="http://www.w3.org/2000/svg">
<path d="M1440 0H0V800H1440V0Z" fill="url(#paint0_radial_2008_293)"/>
<g style="mix-blend-mode:color-dodge" opacity="0.4" clip-path="url(#clip0_2008_293)">
<g style="mix-blend-mode:screen">
<path d="M961.002 733.249C961.002 735.579 962.899 737.475 965.229 737.475C967.559 737.475 969.455 735.579 969.455 733.249C969.455 730.92 967.559 729.023 965.229 729.023C962.899 729.023 961.002 730.92 961.002 733.249Z" fill="#CBD6FF"/>
</g>
<g style="mix-blend-mode:color-dodge">
<path d="M963.115 733.25C963.115 734.441 964.091 735.362 965.229 735.362C966.367 735.362 967.342 734.387 967.342 733.25C967.342 732.112 966.367 731.137 965.229 731.137C964.091 731.137 963.115 732.112 963.115 733.25Z" fill="#CBD6FF"/>
</g>
<g style="mix-blend-mode:screen">
<path d="M1410.98 137.71C1410.98 142.424 1414.78 146.216 1419.49 146.216C1424.2 146.216 1428 142.424 1428 137.71C1428 132.997 1424.2 129.205 1419.49 129.205C1414.78 129.205 1410.98 132.997 1410.98 137.71Z" fill="#CBD6FF"/>
</g>
<g style="mix-blend-mode:color-dodge">
<path d="M1415.21 137.71C1415.21 140.039 1417.11 141.936 1419.44 141.936C1421.77 141.936 1423.66 140.039 1423.66 137.71C1423.66 135.38 1421.77 133.484 1419.44 133.484C1417.11 133.484 1415.21 135.38 1415.21 137.71Z" fill="#CBD6FF"/>
</g>
<g style="mix-blend-mode:screen">
<path d="M1203.33 73.4604C1203.33 78.1736 1207.13 81.9658 1211.84 81.9658C1216.55 81.9658 1220.35 78.1736 1220.35 73.4604C1220.35 68.7473 1216.55 64.9551 1211.84 64.9551C1207.13 64.9551 1203.33 68.7473 1203.33 73.4604Z" fill="#CBD6FF"/>
</g>
<g style="mix-blend-mode:color-dodge">
<path d="M1207.56 73.46C1207.56 75.7895 1209.46 77.6856 1211.79 77.6856C1214.12 77.6856 1216.01 75.7895 1216.01 73.46C1216.01 71.1305 1214.12 69.2344 1211.79 69.2344C1209.46 69.2344 1207.56 71.1305 1207.56 73.46Z" fill="#CBD6FF"/>
</g>
<g style="mix-blend-mode:screen">
<path d="M833.28 411.29C835.465 411.29 837.236 409.52 837.236 407.336C837.236 405.151 835.465 403.381 833.28 403.381C831.095 403.381 829.324 405.151 829.324 407.336C829.324 409.52 831.095 411.29 833.28 411.29Z" fill="#CBD6FF"/>
</g>
<g style="mix-blend-mode:color-dodge">
<path d="M831.33 407.336C831.33 408.42 832.197 409.341 833.335 409.341C834.473 409.341 835.34 408.474 835.34 407.336C835.34 406.199 834.473 405.332 833.335 405.332C832.197 405.332 831.33 406.199 831.33 407.336Z" fill="#CBD6FF"/>
</g>
<g style="mix-blend-mode:screen">
<path d="M418.306 175.471C419.384 175.471 420.257 174.598 420.257 173.521C420.257 172.443 419.384 171.57 418.306 171.57C417.229 171.57 416.355 172.443 416.355 173.521C416.355 174.598 417.229 175.471 418.306 175.471Z" fill="#CBD6FF"/>
</g>
<g style="mix-blend-mode:color-dodge">
<path d="M417.33 173.52C417.33 174.062 417.764 174.495 418.305 174.495C418.847 174.495 419.281 174.062 419.281 173.52C419.281 172.978 418.847 172.545 418.305 172.545C417.764 172.545 417.33 172.978 417.33 173.52Z" fill="#CBD6FF"/>
</g>
<g style="mix-blend-mode:screen">
<path d="M170.558 137.06C174.898 137.06 178.416 133.543 178.416 129.205C178.416 124.867 174.898 121.35 170.558 121.35C166.219 121.35 162.701 124.867 162.701 129.205C162.701 133.543 166.219 137.06 170.558 137.06Z" fill="#CBD6FF"/>
</g>
<g style="mix-blend-mode:color-dodge">
<path d="M166.604 129.205C166.604 131.372 168.338 133.159 170.559 133.159C172.781 133.159 174.461 131.426 174.461 129.205C174.461 126.984 172.727 125.25 170.559 125.25C168.392 125.25 166.604 126.984 166.604 129.205Z" fill="#CBD6FF"/>
</g>
<g style="mix-blend-mode:color-dodge">
<path d="M598.645 779.297C598.645 780.922 599.945 782.222 601.571 782.222C603.196 782.222 604.497 780.922 604.497 779.297C604.497 777.671 603.196 776.371 601.571 776.371C599.945 776.371 598.645 777.671 598.645 779.297Z" fill="#CBD6FF"/>
</g>
<g style="mix-blend-mode:color-dodge">
<path d="M646.764 521.59C646.764 523.106 647.956 524.298 649.473 524.298C650.99 524.298 652.183 523.106 652.183 521.59C652.183 520.073 650.99 518.881 649.473 518.881C647.956 518.881 646.764 520.073 646.764 521.59Z" fill="#CBD6FF"/>
</g>
<g style="mix-blend-mode:color-dodge">
<path d="M372.734 3.46715C372.734 5.41742 374.306 6.9343 376.202 6.9343C378.099 6.9343 379.67 5.36325 379.67 3.46715C379.67 1.57105 378.099 0 376.202 0C374.306 0 372.734 1.57105 372.734 3.46715Z" fill="#CBD6FF"/>
</g>
<g style="mix-blend-mode:color-dodge">
<path d="M1434.45 743.488C1434.45 746.793 1437.15 749.501 1440.46 749.501C1443.77 749.501 1446.47 746.793 1446.47 743.488C1446.47 740.183 1443.77 737.475 1440.46 737.475C1437.15 737.475 1434.45 740.183 1434.45 743.488Z" fill="#CBD6FF"/>
</g>
<g style="mix-blend-mode:color-dodge">
<path d="M856.637 647.653C856.637 649.332 857.991 650.687 859.671 650.687C861.351 650.687 862.706 649.332 862.706 647.653C862.706 645.974 861.351 644.619 859.671 644.619C857.991 644.619 856.637 645.974 856.637 647.653Z" fill="#CBD6FF"/>
</g>
<g style="mix-blend-mode:color-dodge">
<path d="M1228.42 658.055C1228.42 659.735 1229.78 661.089 1231.46 661.089C1233.14 661.089 1234.49 659.735 1234.49 658.055C1234.49 656.376 1233.14 655.021 1231.46 655.021C1229.78 655.021 1228.42 656.376 1228.42 658.055Z" fill="#CBD6FF"/>
</g>
<g style="mix-blend-mode:color-dodge">
<path d="M292.914 342.219C292.914 344.169 294.486 345.686 296.382 345.686C298.279 345.686 299.85 344.115 299.85 342.219C299.85 340.323 298.279 338.752 296.382 338.752C294.486 338.752 292.914 340.323 292.914 342.219Z" fill="#CBD6FF"/>
</g>
<g style="mix-blend-mode:color-dodge">
<path d="M376.203 588.928C376.203 590.878 377.775 592.395 379.671 592.395C381.568 592.395 383.139 590.824 383.139 588.928C383.139 587.032 381.568 585.461 379.671 585.461C377.775 585.461 376.203 587.032 376.203 588.928Z" fill="#CBD6FF"/>
</g>
<g style="mix-blend-mode:color-dodge">
<path d="M452.5 287.395C452.5 289.345 454.071 290.862 455.968 290.862C457.865 290.862 459.436 289.291 459.436 287.395C459.436 285.499 457.865 283.928 455.968 283.928C454.071 283.928 452.5 285.499 452.5 287.395Z" fill="#CBD6FF"/>
</g>
<g style="mix-blend-mode:color-dodge">
<path d="M152.352 663.148C152.352 663.96 153.002 664.665 153.869 664.665C154.736 664.665 155.386 664.015 155.386 663.148C155.386 662.281 154.736 661.631 153.869 661.631C153.002 661.631 152.352 662.281 152.352 663.148Z" fill="#CBD6FF"/>
</g>
<g style="mix-blend-mode:color-dodge">
<path d="M136.203 623.058C136.203 623.871 136.853 624.575 137.72 624.575C138.587 624.575 139.238 623.925 139.238 623.058C139.238 622.191 138.587 621.541 137.72 621.541C136.853 621.541 136.203 622.191 136.203 623.058Z" fill="#CBD6FF"/>
</g>
<g style="mix-blend-mode:color-dodge">
<path d="M153.867 426.839C153.867 427.652 154.517 428.356 155.384 428.356C156.251 428.356 156.902 427.706 156.902 426.839C156.902 425.972 156.251 425.322 155.384 425.322C154.517 425.322 153.867 425.972 153.867 426.839Z" fill="#CBD6FF"/>
</g>
<g style="mix-blend-mode:color-dodge">
<path d="M1308.3 489.139C1306.35 489.139 1304.83 490.71 1304.83 492.606C1304.83 494.502 1306.4 496.073 1308.3 496.073C1310.19 496.073 1311.76 494.502 1311.76 492.606C1311.76 490.71 1310.19 489.139 1308.3 489.139Z" fill="#CBD6FF"/>
</g>
<g style="mix-blend-mode:color-dodge">
<path d="M1215.31 580.422C1213.36 580.422 1211.84 581.993 1211.84 583.889C1211.84 585.785 1213.41 587.356 1215.31 587.356C1217.2 587.356 1218.78 585.785 1218.78 583.889C1218.78 581.993 1217.2 580.422 1215.31 580.422Z" fill="#CBD6FF"/>
</g>
<g style="mix-blend-mode:color-dodge">
<path d="M1412.07 301.101C1412.07 304.406 1414.78 307.115 1418.08 307.115C1421.39 307.115 1424.1 304.406 1424.1 301.101C1424.1 297.797 1421.39 295.088 1418.08 295.088C1414.78 295.088 1412.07 297.797 1412.07 301.101Z" fill="#CBD6FF"/>
</g>
<g style="mix-blend-mode:color-dodge">
<path d="M1388.01 250.557C1386.06 250.557 1384.54 252.128 1384.54 254.024C1384.54 255.92 1386.11 257.491 1388.01 257.491C1389.9 257.491 1391.48 255.92 1391.48 254.024C1391.48 252.128 1389.9 250.557 1388.01 250.557Z" fill="#CBD6FF"/>
</g>
<g style="mix-blend-mode:color-dodge">
<path d="M1094.74 602.039C1093.93 602.039 1093.22 602.689 1093.22 603.556C1093.22 604.423 1093.87 605.073 1094.74 605.073C1095.61 605.073 1096.26 604.423 1096.26 603.556C1096.26 602.689 1095.61 602.039 1094.74 602.039Z" fill="#CBD6FF"/>
</g>
<g style="mix-blend-mode:color-dodge">
<path d="M1134.84 585.895C1134.02 585.895 1133.32 586.545 1133.32 587.411C1133.32 588.278 1133.97 588.928 1134.84 588.928C1135.7 588.928 1136.35 588.278 1136.35 587.411C1136.35 586.545 1135.7 585.895 1134.84 585.895Z" fill="#CBD6FF"/>
</g>
<g style="mix-blend-mode:color-dodge">
<path d="M1124.92 396.393C1124.11 396.393 1123.4 397.043 1123.4 397.909C1123.4 398.776 1124.05 399.426 1124.92 399.426C1125.79 399.426 1126.44 398.776 1126.44 397.909C1126.44 397.043 1125.79 396.393 1124.92 396.393Z" fill="#CBD6FF"/>
</g>
<g style="mix-blend-mode:color-dodge">
<path d="M1021.91 145.457C1021.91 147.408 1023.48 148.925 1025.38 148.925C1027.27 148.925 1028.85 147.353 1028.85 145.457C1028.85 143.561 1027.27 141.99 1025.38 141.99C1023.48 141.99 1021.91 143.561 1021.91 145.457Z" fill="#CBD6FF"/>
</g>
<g style="mix-blend-mode:color-dodge">
<path d="M1043.53 265.995C1043.53 266.808 1044.18 267.512 1045.05 267.512C1045.92 267.512 1046.57 266.862 1046.57 265.995C1046.57 265.129 1045.92 264.479 1045.05 264.479C1044.18 264.479 1043.53 265.129 1043.53 265.995Z" fill="#CBD6FF"/>
</g>
<g style="mix-blend-mode:color-dodge">
<path d="M1027.38 225.908C1027.38 226.72 1028.03 227.424 1028.9 227.424C1029.77 227.424 1030.42 226.774 1030.42 225.908C1030.42 225.041 1029.77 224.391 1028.9 224.391C1028.03 224.391 1027.38 225.041 1027.38 225.908Z" fill="#CBD6FF"/>
</g>
<g style="mix-blend-mode:color-dodge">
<path d="M986.037 209.005C986.037 209.818 986.687 210.522 987.554 210.522C988.421 210.522 989.072 209.872 989.072 209.005C989.072 208.138 988.421 207.488 987.554 207.488C986.687 207.488 986.037 208.138 986.037 209.005Z" fill="#CBD6FF"/>
</g>
<g style="mix-blend-mode:color-dodge">
<path d="M764.245 154.397C766.161 154.397 767.713 152.845 767.713 150.93C767.713 149.015 766.161 147.463 764.245 147.463C762.33 147.463 760.777 149.015 760.777 150.93C760.777 152.845 762.33 154.397 764.245 154.397Z" fill="#CBD6FF"/>
</g>
<g style="mix-blend-mode:color-dodge">
<path d="M810.954 49.4616C812.87 49.4616 814.422 47.9093 814.422 45.9945C814.422 44.0796 812.87 42.5273 810.954 42.5273C809.039 42.5273 807.486 44.0796 807.486 45.9945C807.486 47.9093 809.039 49.4616 810.954 49.4616Z" fill="#CBD6FF"/>
</g>
<g style="mix-blend-mode:color-dodge">
<path d="M1427.78 606.264C1427.78 607.401 1428.7 608.322 1429.84 608.322C1430.98 608.322 1431.9 607.401 1431.9 606.264C1431.9 605.126 1430.98 604.205 1429.84 604.205C1428.7 604.205 1427.78 605.126 1427.78 606.264Z" fill="#CBD6FF"/>
</g>
</g>
<g style="mix-blend-mode:color-dodge">
<path d="M437.886 591.006C254.795 604.292 41.6741 458.697 -42 384.238L-33.3423 565.463C-5.24263 595.827 96.1499 660.287 276.923 675.219C502.889 693.884 865.448 416.664 983.078 672.488C1077.18 877.147 1336.9 890.906 1454.99 872.204L1448.22 730.483C1385.97 756.315 1221.59 776.78 1062.05 651.98C862.618 495.98 666.751 574.397 437.886 591.006Z" fill="url(#paint1_linear_2008_293)" fill-opacity="0.6"/>
</g>
<defs>
<radialGradient id="paint0_radial_2008_293" cx="0" cy="0" r="1" gradientUnits="userSpaceOnUse" gradientTransform="translate(720 800) rotate(-90) scale(708.108 1020.25)">
<stop offset="0.181452" stop-color="#2F4871"/>
<stop offset="1" stop-color="#0F172A"/>
</radialGradient>
<linearGradient id="paint1_linear_2008_293" x1="693.202" y1="349.964" x2="719.28" y2="909.356" gradientUnits="userSpaceOnUse">
<stop/>
<stop offset="1" stop-color="#168097"/>
</linearGradient>
<clipPath id="clip0_2008_293">
<rect width="1702" height="865" fill="white" transform="translate(-131)"/>
</clipPath>
</defs>
</svg>
