<svg width="109" height="108" viewBox="0 0 109 108" fill="none" xmlns="http://www.w3.org/2000/svg">
<g id="Artboard 1 6">
<g clip-path="url(#clip0_2361_1496)">
<g id="Group">
<g id="Layer 1">
<path id="Vector" d="M108.5 0H0.5V108H108.5V0Z" fill="url(#paint0_radial_2361_1496)"/>
<g id="Group 1481">
<circle id="Ellipse 75" cx="54.5001" cy="56.9996" r="45.9996" fill="#FF5959"/>
<path id="Intersect" fill-rule="evenodd" clip-rule="evenodd" d="M58.2466 11.1504C57.0109 11.0508 55.7615 11 54.5002 11C29.808 11 9.65988 30.4554 8.54883 54.8732C11.1132 40.4272 23.4551 15.9617 58.2466 11.1504Z" fill="#FEE2E2"/>
<circle id="Ellipse 76" cx="54.5003" cy="56.9999" r="32.3241" fill="white"/>
<path id="Intersect_2" fill-rule="evenodd" clip-rule="evenodd" d="M24.8113 69.8038C23.0183 61.727 24.4569 45.5046 36.1 34.92C48.244 23.88 62.7801 25.7198 69.6801 28.4798C69.6645 28.463 69.6487 28.4463 69.6329 28.4295C65.1182 26.0332 59.9678 24.6758 54.5003 24.6758C36.6482 24.6758 22.1763 39.1478 22.1763 56.9999C22.1763 61.5484 23.1158 65.8775 24.8113 69.8038Z" fill="#E2E8F0"/>
<circle id="Ellipse 77" cx="54.4998" cy="56.9998" r="13.6756" fill="#FF5959"/>
<path id="Intersect_3" fill-rule="evenodd" clip-rule="evenodd" d="M54.5008 102.999C79.9057 102.999 100.5 82.4043 100.5 56.9994C100.5 43.0639 94.3036 30.5757 84.5153 22.1401C99.465 36.1073 103.252 60.5517 90.223 81.4672C80.6208 96.8813 60.6646 101.159 44.0771 101.813C47.4263 102.589 50.9157 102.999 54.5008 102.999Z" fill="#B90F0F"/>
<path id="Intersect_4" fill-rule="evenodd" clip-rule="evenodd" d="M54.5002 70.6752C62.053 70.6752 68.1758 64.5524 68.1758 56.9996C68.1758 54.289 67.3871 51.7625 66.0268 49.6372C66.0179 49.6381 66.009 49.639 66.0001 49.6399C67.6616 55.3794 65.6035 65.4339 52.791 70.5694C53.3509 70.6392 53.9214 70.6752 54.5002 70.6752Z" fill="#B90F0F"/>
</g>
</g>
</g>
</g>
</g>
<defs>
<radialGradient id="paint0_radial_2361_1496" cx="0" cy="0" r="1" gradientUnits="userSpaceOnUse" gradientTransform="translate(53.46 106.4) scale(107.95)">
<stop stop-color="#2F7FDD"/>
<stop offset="1" stop-color="#041E64"/>
</radialGradient>
<clipPath id="clip0_2361_1496">
<rect x="0.5" width="108" height="108" rx="16" fill="white"/>
</clipPath>
</defs>
</svg>
