<svg width="1321" height="623" viewBox="0 0 1321 623" fill="none" xmlns="http://www.w3.org/2000/svg">
<g filter="url(#filter0_d_618_2537)">
<path d="M1141.51 9.17291C1141.68 8.03852 1143.32 8.03853 1143.49 9.17292L1152.86 71.2491C1152.92 71.6755 1153.25 72.0126 1153.68 72.0855L1212.25 82.1345C1213.36 82.3246 1213.36 83.9157 1212.25 84.1057L1153.68 94.1547C1153.25 94.2276 1152.92 94.5647 1152.86 94.9911L1143.49 157.067C1143.32 158.202 1141.68 158.202 1141.51 157.067L1132.14 94.9911C1132.08 94.5647 1131.75 94.2276 1131.32 94.1547L1072.75 84.1057C1071.64 83.9157 1071.64 82.3246 1072.75 82.1345L1131.32 72.0855C1131.75 72.0126 1132.08 71.6755 1132.14 71.2491L1141.51 9.17291Z" fill="url(#paint0_linear_618_2537)" shape-rendering="crispEdges"/>
</g>
<g filter="url(#filter1_d_618_2537)">
<path d="M1240.51 466.173C1240.68 465.039 1242.32 465.039 1242.49 466.173L1251.86 528.249C1251.92 528.675 1252.25 529.013 1252.68 529.086L1311.25 539.135C1312.36 539.325 1312.36 540.916 1311.25 541.106L1252.68 551.155C1252.25 551.228 1251.92 551.565 1251.86 551.991L1242.49 614.067C1242.32 615.202 1240.68 615.202 1240.51 614.067L1231.14 551.991C1231.08 551.565 1230.75 551.228 1230.32 551.155L1171.75 541.106C1170.64 540.916 1170.64 539.325 1171.75 539.135L1230.32 529.086C1230.75 529.013 1231.08 528.675 1231.14 528.249L1240.51 466.173Z" fill="url(#paint1_linear_618_2537)" shape-rendering="crispEdges"/>
</g>
<g filter="url(#filter2_d_618_2537)">
<path d="M27.5124 277.845C27.6908 276.721 29.3092 276.721 29.4876 277.845L31.9209 293.181C31.9885 293.607 32.3217 293.942 32.7475 294.011L47.9507 296.491C49.0694 296.674 49.0694 298.283 47.9507 298.465L32.7475 300.946C32.3217 301.015 31.9885 301.35 31.9209 301.776L29.4876 317.112C29.3092 318.236 27.6908 318.236 27.5124 317.112L25.0791 301.776C25.0115 301.35 24.6783 301.015 24.2525 300.946L9.04929 298.465C7.93065 298.283 7.93064 296.674 9.04928 296.491L24.2525 294.011C24.6783 293.942 25.0115 293.607 25.0791 293.181L27.5124 277.845Z" fill="url(#paint2_linear_618_2537)" shape-rendering="crispEdges"/>
</g>
<defs>
<filter id="filter0_d_618_2537" x="1063.91" y="0.322266" width="157.171" height="165.596" filterUnits="userSpaceOnUse" color-interpolation-filters="sRGB">
<feFlood flood-opacity="0" result="BackgroundImageFix"/>
<feColorMatrix in="SourceAlpha" type="matrix" values="0 0 0 0 0 0 0 0 0 0 0 0 0 0 0 0 0 0 127 0" result="hardAlpha"/>
<feOffset/>
<feGaussianBlur stdDeviation="4"/>
<feComposite in2="hardAlpha" operator="out"/>
<feColorMatrix type="matrix" values="0 0 0 0 1 0 0 0 0 1 0 0 0 0 1 0 0 0 0.9 0"/>
<feBlend mode="normal" in2="BackgroundImageFix" result="effect1_dropShadow_618_2537"/>
<feBlend mode="normal" in="SourceGraphic" in2="effect1_dropShadow_618_2537" result="shape"/>
</filter>
<filter id="filter1_d_618_2537" x="1162.91" y="457.322" width="157.171" height="165.596" filterUnits="userSpaceOnUse" color-interpolation-filters="sRGB">
<feFlood flood-opacity="0" result="BackgroundImageFix"/>
<feColorMatrix in="SourceAlpha" type="matrix" values="0 0 0 0 0 0 0 0 0 0 0 0 0 0 0 0 0 0 127 0" result="hardAlpha"/>
<feOffset/>
<feGaussianBlur stdDeviation="4"/>
<feComposite in2="hardAlpha" operator="out"/>
<feColorMatrix type="matrix" values="0 0 0 0 1 0 0 0 0 1 0 0 0 0 1 0 0 0 0.9 0"/>
<feBlend mode="normal" in2="BackgroundImageFix" result="effect1_dropShadow_618_2537"/>
<feBlend mode="normal" in="SourceGraphic" in2="effect1_dropShadow_618_2537" result="shape"/>
</filter>
<filter id="filter2_d_618_2537" x="0.210449" y="269.002" width="56.5791" height="56.9531" filterUnits="userSpaceOnUse" color-interpolation-filters="sRGB">
<feFlood flood-opacity="0" result="BackgroundImageFix"/>
<feColorMatrix in="SourceAlpha" type="matrix" values="0 0 0 0 0 0 0 0 0 0 0 0 0 0 0 0 0 0 127 0" result="hardAlpha"/>
<feOffset/>
<feGaussianBlur stdDeviation="4"/>
<feComposite in2="hardAlpha" operator="out"/>
<feColorMatrix type="matrix" values="0 0 0 0 1 0 0 0 0 1 0 0 0 0 1 0 0 0 0.9 0"/>
<feBlend mode="normal" in2="BackgroundImageFix" result="effect1_dropShadow_618_2537"/>
<feBlend mode="normal" in="SourceGraphic" in2="effect1_dropShadow_618_2537" result="shape"/>
</filter>
<linearGradient id="paint0_linear_618_2537" x1="1146.84" y1="-179.877" x2="1146.84" y2="131.146" gradientUnits="userSpaceOnUse">
<stop stop-color="#06A5FF"/>
<stop offset="1" stop-color="#06A5FF" stop-opacity="0"/>
</linearGradient>
<linearGradient id="paint1_linear_618_2537" x1="1245.84" y1="277.123" x2="1245.84" y2="588.146" gradientUnits="userSpaceOnUse">
<stop stop-color="#06A5FF"/>
<stop offset="1" stop-color="#06A5FF" stop-opacity="0"/>
</linearGradient>
<linearGradient id="paint2_linear_618_2537" x1="29.9663" y1="212.998" x2="29.9663" y2="312.905" gradientUnits="userSpaceOnUse">
<stop stop-color="#06A5FF"/>
<stop offset="1" stop-color="#06A5FF" stop-opacity="0"/>
</linearGradient>
</defs>
</svg>
