<svg width="181" height="20" viewBox="0 0 181 20" fill="none" xmlns="http://www.w3.org/2000/svg">
<path fill-rule="evenodd" clip-rule="evenodd" d="M77.0233 2.69704C68.6138 3.2786 60.3031 3.99369 52.1987 4.77546C40.7261 5.88138 29.258 7.02544 17.859 8.83687C14.2708 9.40889 10.627 9.77116 7.06125 10.4862C4.82291 10.9343 1.85492 11.573 1.46541 11.7064C1.26168 11.7827 1.1728 11.8972 1.14408 11.9353C0.942148 12.2023 0.978994 12.4596 1.09298 12.6598C1.13875 12.7456 1.25449 12.9554 1.57579 12.984C23.0635 14.9385 45.0359 11.125 66.5496 10.7245C103.858 10.0381 142.298 12.7648 179.31 18.7139C179.633 18.7615 179.947 18.5231 179.992 18.1704C180.046 17.8272 179.813 17.4935 179.49 17.4458C142.414 11.4872 103.912 8.75096 66.5316 9.44693C46.4817 9.81874 26.036 13.1652 5.95823 12.0211C6.41954 11.9258 6.8719 11.8304 7.28475 11.7446C10.8361 11.0296 14.4647 10.6768 18.0385 10.1048C29.4132 8.2934 40.8581 7.14934 52.3154 6.05296C66.5316 4.68009 81.3671 3.49789 96.3193 2.94493C101.668 3.03074 106.999 3.11658 112.33 3.22145C123.863 3.45026 135.45 4.11763 146.956 5.01381C150.42 5.29029 153.884 5.57628 157.349 5.82415C158.497 5.90996 161.459 6.1578 161.872 6.13873C162.384 6.11966 162.482 5.66208 162.491 5.58581C162.518 5.4142 162.5 5.17584 162.249 4.97563C162.222 4.94703 162.06 4.85163 161.701 4.79443C140.781 1.41947 118.442 0.857063 96.3373 1.66744C73.0205 1.31468 49.6139 1.16207 26.3564 1C26.0234 1 25.7515 1.28606 25.7488 1.63881C25.747 1.99156 26.0153 2.27762 26.3483 2.28716C43.1888 2.40156 60.1146 2.5159 77.0233 2.69704Z" fill="#00C4D0" stroke="#00C4D0" stroke-width="2"/>
</svg>
