<svg width="221" height="118" viewBox="0 0 221 118" fill="none" xmlns="http://www.w3.org/2000/svg">
<path d="M58.657 38.6432L58.8338 38.82L59.0106 38.6432L78.0699 19.5839L98.0949 39.6089L79.0356 58.6683L78.8588 58.845L79.0356 59.0218L98.0893 78.0755L78.0756 98.0891L59.0219 79.0354L58.8452 78.8587L58.6684 79.0354L39.609 98.0948L19.584 78.0698L38.6434 59.0104L38.8201 58.8337L38.6434 58.6569L19.5897 39.6032L39.6033 19.5896L58.657 38.6432Z" stroke="#00C4D0" stroke-width="0.5"/>
<path d="M161.978 38.6432L162.155 38.82L162.332 38.6432L181.391 19.5839L201.416 39.6089L182.357 58.6683L182.18 58.845L182.357 59.0218L201.41 78.0755L181.397 98.0891L162.343 79.0354L162.166 78.8587L161.989 79.0354L142.93 98.0948L122.905 78.0698L141.964 59.0104L142.141 58.8337L141.964 58.6569L122.911 39.6032L142.924 19.5896L161.978 38.6432Z" stroke="#00C4D0" stroke-width="0.5"/>
</svg>
