<svg width="24" height="24" viewBox="0 0 24 24" fill="none" xmlns="http://www.w3.org/2000/svg">
<path d="M4.45684 0.120429C5.28 -0.00915819 6.11715 -0.00993417 6.94886 0.00868916L6.87735 0.0746468C5.78913 0.786213 4.88668 1.76316 4.23453 2.88444C2.92711 5.12933 2.45063 7.78393 2.55867 10.3571C2.66594 12.4522 3.16963 14.5589 4.23764 16.3801C4.41642 16.7061 4.71412 16.9939 4.71879 17.3897C4.75221 18.2386 4.33169 19.0386 3.76271 19.6454C3.80002 19.6842 3.83655 19.723 3.87386 19.7618C4.40631 20.3423 4.97452 20.8878 5.51552 21.4604C6.28427 22.328 7.16028 23.0962 7.91349 23.9792C6.66048 23.9979 5.39271 24.0561 4.15447 23.8225C2.59598 23.5206 1.21239 22.442 0.551688 21.0003C0.151379 20.1669 0.0316749 19.235 0.000582974 18.3216C-0.000194325 14.105 -0.000194325 9.88914 0.000582974 5.67329C0.0176836 4.26412 0.391564 2.78977 1.38495 1.74454C2.17158 0.859155 3.28545 0.283383 4.45684 0.120429Z" fill="white"/>
<path d="M15.8694 7.86328C16.2028 7.86328 16.5363 7.86328 16.8705 7.86328C16.8651 9.8133 16.8651 11.7641 16.8705 13.7141C16.5441 13.6683 16.0007 13.8771 15.8779 13.4433C15.8577 11.5841 15.8764 9.72329 15.8694 7.86328Z" fill="white"/>
<path d="M5.66742 7.92958C7.21891 7.92803 8.76884 7.91794 10.3196 7.9288C10.3087 8.23221 10.2916 8.56277 10.0879 8.80798C9.02768 10.1256 7.98999 11.4603 6.93053 12.7779C8.05683 12.7848 9.18314 12.7802 10.3094 12.7802C10.2885 13.0432 10.381 13.3497 10.21 13.5779C10.1027 13.7253 9.90836 13.7121 9.74746 13.7137C8.33822 13.7059 6.92897 13.7207 5.52051 13.7059C5.52439 13.4087 5.5275 13.0797 5.73582 12.843C6.78362 11.5309 7.84385 10.228 8.88699 8.91273C7.81509 8.91429 6.74242 8.90575 5.67053 8.91739C5.66353 8.58838 5.66586 8.25859 5.66742 7.92958Z" fill="white"/>
<path d="M19.3521 9.22261C20.4683 8.97353 21.6793 9.70527 21.9848 10.8025C22.368 11.9439 21.6684 13.3011 20.5126 13.6488C19.5308 13.9941 18.3556 13.5432 17.8464 12.64C17.4469 11.9727 17.4228 11.0989 17.7858 10.4122C18.0936 9.80614 18.6883 9.36306 19.3521 9.22261ZM19.3334 10.2112C18.6525 10.451 18.2856 11.2782 18.5515 11.9463C18.7714 12.5779 19.5122 12.9644 20.1558 12.7704C20.8903 12.595 21.3342 11.736 21.0738 11.0322C20.8561 10.3354 20.0128 9.9334 19.3334 10.2112Z" fill="white"/>
<path d="M11.0837 10.0349C11.6209 9.37063 12.5614 9.04317 13.39 9.27984C13.6636 9.3489 13.9116 9.48547 14.151 9.63058C14.1486 9.55764 14.1432 9.41253 14.1409 9.33959C14.4541 9.33804 14.7666 9.33881 15.0798 9.33726C15.0783 10.7961 15.0767 12.2549 15.0806 13.7145C14.8505 13.7083 14.6166 13.7355 14.3904 13.6889C14.2318 13.6245 14.1828 13.4515 14.1199 13.3102C13.2555 13.9807 11.8976 13.8286 11.1794 13.0123C10.4137 12.2215 10.3741 10.8745 11.0837 10.0349ZM12.3492 10.2304C11.6294 10.4834 11.2804 11.4091 11.645 12.0764C11.9559 12.7267 12.8311 12.9998 13.4568 12.6413C14.0375 12.3372 14.3057 11.5821 14.0561 10.9784C13.8144 10.322 12.999 9.95416 12.3492 10.2304Z" fill="white"/>
<path d="M6.87838 0.0745197C7.0525 0.0248575 7.23439 0.00933806 7.41472 0.00390625C10.5231 0.0155458 13.6316 0.00235431 16.74 0.00778611C17.5709 0.0178737 18.4065 -0.0379963 19.2312 0.0884872C20.3731 0.175396 21.4722 0.658051 22.3218 1.42083C23.3882 2.43813 23.9572 3.90317 23.9751 5.36432C23.9759 9.47775 23.9735 13.5943 23.9774 17.7062C23.9665 17.7302 23.9455 17.7799 23.9347 17.8047C22.827 19.0416 21.3377 19.8789 19.7808 20.4205C17.6828 21.1344 15.4357 21.3641 13.2305 21.1965C11.0253 21.0071 8.80298 20.4321 6.9328 19.2154C5.97672 19.6399 4.92192 19.8478 3.8749 19.7617C3.83759 19.7229 3.80106 19.6841 3.76375 19.6453C4.33273 19.0385 4.75325 18.2385 4.71983 17.3896C4.71516 16.9938 4.41746 16.7059 4.23868 16.38C3.17067 14.5588 2.66698 12.4521 2.55971 10.3569C2.45167 7.7838 2.92815 5.1292 4.23557 2.88431C4.88772 1.76304 5.79017 0.786086 6.87838 0.0745197ZM15.8702 7.86295C15.8772 9.72296 15.8585 11.5837 15.8787 13.443C16.0015 13.8767 16.5449 13.668 16.8713 13.7138C16.8659 11.7638 16.8659 9.81297 16.8713 7.86295C16.5371 7.86295 16.2036 7.86295 15.8702 7.86295ZM5.66891 7.93201C5.66735 8.26103 5.66502 8.59081 5.67202 8.91983C6.74391 8.90819 7.81658 8.91672 8.88848 8.91517C7.84534 10.2304 6.78511 11.5333 5.73731 12.8455C5.52899 13.0821 5.52588 13.4112 5.522 13.7084C6.93046 13.7231 8.33971 13.7084 9.74895 13.7161C9.90985 13.7146 10.1042 13.7277 10.2114 13.5803C10.3824 13.3522 10.2899 13.0457 10.3109 12.7826C9.18463 12.7826 8.05832 12.7873 6.93202 12.7803C7.99148 11.4627 9.02917 10.128 10.0894 8.81041C10.2931 8.56521 10.3102 8.23464 10.321 7.93124C8.77033 7.92037 7.2204 7.93046 5.66891 7.93201ZM19.3533 9.22323C18.6894 9.36368 18.0948 9.80676 17.787 10.4128C17.424 11.0995 17.4481 11.9733 17.8476 12.6406C18.3568 13.5438 19.532 13.9947 20.5138 13.6494C21.6696 13.3017 22.3692 11.9446 21.986 10.8031C21.6805 9.70589 20.4695 8.97414 19.3533 9.22323ZM11.0843 10.0357C10.3747 10.8753 10.4143 12.2224 11.18 13.0131C11.8982 13.8294 13.2561 13.9815 14.1205 13.3111C14.1834 13.4523 14.2324 13.6253 14.391 13.6897C14.6172 13.7363 14.8511 13.7091 15.0812 13.7153C15.0773 12.2557 15.0789 10.7969 15.0804 9.33808C14.7672 9.33963 14.4547 9.33885 14.1415 9.3404C14.1438 9.41334 14.1492 9.55845 14.1516 9.63139C13.9122 9.48629 13.6642 9.34971 13.3906 9.28065C12.562 9.04398 11.6215 9.37144 11.0843 10.0357Z" fill="#1E293B"/>
<path d="M12.3493 10.2294C12.9991 9.9532 13.8145 10.321 14.0562 10.9775C14.3057 11.5812 14.0376 12.3362 13.4569 12.6404C12.8312 12.9989 11.9559 12.7257 11.645 12.0755C11.2805 11.4081 11.6295 10.4824 12.3493 10.2294Z" fill="#1E293B"/>
<path d="M19.3348 10.2098C20.0141 9.93205 20.8575 10.334 21.0751 11.0308C21.3355 11.7346 20.8917 12.5936 20.1572 12.769C19.5135 12.963 18.7728 12.5766 18.5528 11.9449C18.287 11.2768 18.6539 10.4496 19.3348 10.2098Z" fill="#1E293B"/>
<path d="M23.9348 17.8031L23.9962 17.7363C24.028 18.9492 23.8967 20.2148 23.3005 21.2942C22.6071 22.5605 21.3495 23.501 19.9348 23.8021C19.1412 23.9658 18.3273 24.0023 17.5189 23.9922C15.0323 23.993 12.5458 23.9922 10.0592 23.993C9.34408 23.9814 8.62741 24.0147 7.91462 23.9775C7.16142 23.0944 6.2854 22.3262 5.51666 21.4587C4.97566 20.886 4.40745 20.3405 3.875 19.7601C4.92202 19.8462 5.97682 19.6382 6.93289 19.2138C8.80308 20.4305 11.0254 21.0055 13.2306 21.1948C15.4358 21.3624 17.6829 21.1328 19.7809 20.4189C21.3378 19.8772 22.8271 19.04 23.9348 17.8031Z" fill="white"/>
</svg>
